<svg xmlns="http://www.w3.org/2000/svg" viewBox="0 0 337.82 378.33"><defs><style>.cls-1{fill:#8ddcd1;}.cls-2{fill:none;stroke:#fff;stroke-width:1.5px;}.cls-3{fill:#fff;}</style></defs><g id="レイヤー_2" data-name="レイヤー 2"><g id="レイヤー_1-2" data-name="レイヤー 1"><path class="cls-1" d="M337.82,266.69c0,11-7.79,24.5-17.32,30L186.23,374.21c-9.52,5.5-25.11,5.5-34.64,0L17.32,296.69c-9.53-5.5-17.32-19-17.32-30v-155c0-11,7.79-24.5,17.32-30L151.59,4.13c9.53-5.5,25.12-5.51,34.64,0L320.5,81.65c9.53,5.5,17.32,19,17.32,30Z"/><path class="cls-2" d="M325,259.28c0,11-7.8,24.5-17.32,30L186.23,359.4c-9.52,5.5-25.11,5.5-34.64,0L30.15,289.28c-9.53-5.5-17.32-19-17.32-30V119.05c0-11,7.79-24.5,17.32-30L151.59,18.94c9.53-5.5,25.12-5.5,34.64,0L307.68,89.05c9.52,5.5,17.32,19,17.32,30Z"/><path class="cls-3" d="M222,120.84c-.17.51-5.65,11.82-24.84,12.16-3.76,0-3.94.34-3.76.68a70.93,70.93,0,0,0,3.59,8.4c2.4,5,8.91,15.59,3.77,22.78-2.05,2.57-5.31,3.77-8.91,3.77-6.85-.51-13.19-3.26-19.7-5-10.27-2.74-23.29-5.14-34.08-1.2-6.51,2.57-13.71,8.4-11.82,17,2.91,10.45,17.47,13.36,27.06,14.22a145.47,145.47,0,0,0,36.32-.86c7-.86,8,10.11,1.2,11h-.18a154.49,154.49,0,0,1-38.71.17c-12.5-2.06-31.35-7.37-34.09-23-2.22-11.82,6.51-21.93,18.16-25.18,15.59-4.28,32.89-.34,48.65,4.11,6,1.55,8.56.17,7.71-2.91-.35-.86-2.23-5.48-4.8-10.79-1.88-4.28-3.6-8.4-5.31-12.51a1.13,1.13,0,0,0-.86-.68h-55.5a3.58,3.58,0,0,1-3.59-3.43c0-2.57,2-3.25,3.94-3.77,5.31-1.37,40.76-11.47,31.86-23-5.65-7.37-21.41-5.31-34.78-4.46-5.82.52-6.68-8.73-.68-9.07,13.19-.86,44.19-2.4,43.17,17.13-.52,9.76-11.48,14.73-21.07,18.5a.52.52,0,0,0,.17,1h33.74c.35,0,.52-.35.52-.69-5.31-14.39-8.91-28.61-9.94-43,0,0-.17-2.39-.34-3.76-.34-6.68,9.59-7.54,10.62-.69V78c0,15.25,4.11,30.66,10.45,47.28,0,.51.51.69.86.69h6.85c13.7,0,17.81-7.88,18-8.23C217.51,113.81,224,116.72,222,120.84Z"/><path class="cls-3" d="M105.13,243.31c4.32,4.38,6.48,10,6.48,16.74,0,7.2-2.16,13-6.54,17.28a18.91,18.91,0,0,1-14,5.64,19.19,19.19,0,0,1-14-5.7c-4.38-4.32-6.54-10-6.54-17.1,0-6.84,2.16-12.48,6.48-16.86a20.22,20.22,0,0,1,28.14,0Zm-25.68,2.46c-2.64,3.66-4,8.4-4,14.28a26.2,26.2,0,0,0,3.06,13.2c2.82,4.92,7,7.44,12.54,7.44a13.68,13.68,0,0,0,11.52-6c2.7-3.6,4-8.4,4-14.4,0-6.42-1.5-11.52-4.5-15.24a14.15,14.15,0,0,0-22.68.72Z"/><path class="cls-3" d="M122.11,252.49v-4.08c0-3.36.9-6,2.82-7.86a8.55,8.55,0,0,1,6.3-2.46,9.06,9.06,0,0,1,6,1.8,3.24,3.24,0,0,1,1.26,2.52c0,1.74-.84,2.64-2.4,2.64-1.74,0-2.58-.78-2.58-2.34a2.93,2.93,0,0,1,.66-1.86,3.89,3.89,0,0,0-2.82-1c-3.54,0-5.28,2.88-5.28,8.52v4.08h7.32a.84.84,0,0,1,1,.9v.36a.86.86,0,0,1-1,1h-7.32V276c0,1.74.42,2.82,1.38,3.3a10.91,10.91,0,0,0,3.12.48.84.84,0,0,1,.9,1q0,.72-.9.72H117.85a.8.8,0,0,1-.9-.9c0-.48.3-.78.9-.78a9.49,9.49,0,0,0,2.22-.36c1.32-.42,2-1.56,2-3.42V254.71h-4.62a.83.83,0,0,1-1-1v-.36c0-.6.3-.9,1-.9Z"/><path class="cls-3" d="M140.89,252.49v-4.08c0-3.36.9-6,2.82-7.86a8.55,8.55,0,0,1,6.3-2.46,9.06,9.06,0,0,1,6,1.8,3.24,3.24,0,0,1,1.26,2.52c0,1.74-.84,2.64-2.4,2.64-1.74,0-2.58-.78-2.58-2.34a2.93,2.93,0,0,1,.66-1.86,3.89,3.89,0,0,0-2.82-1c-3.54,0-5.28,2.88-5.28,8.52v4.08h7.32a.84.84,0,0,1,1,.9v.36a.86.86,0,0,1-1,1h-7.32V276c0,1.74.42,2.82,1.38,3.3a10.91,10.91,0,0,0,3.12.48.84.84,0,0,1,.9,1q0,.72-.9.72H136.63a.8.8,0,0,1-.9-.9c0-.48.3-.78.9-.78a9.49,9.49,0,0,0,2.22-.36c1.32-.42,2-1.56,2-3.42V254.71h-4.62a.83.83,0,0,1-1-1v-.36c0-.6.3-.9,1-.9Z"/><path class="cls-3" d="M168.13,281.41H155.77c-.66,0-1-.3-1-.9s.3-.78,1-.78a12.11,12.11,0,0,0,2.28-.36q2-.54,2-3.42V258c0-1.92-.48-3-1.44-3.36a11,11,0,0,0-2.82-.36.83.83,0,0,1-1-1c0-.54.3-.84,1-.9a45.73,45.73,0,0,0,7.2-.72c.66-.12,1,.18,1,.84V276c0,1.8.48,2.88,1.38,3.3a10.43,10.43,0,0,0,2.76.48c.66,0,1,.3,1,.84S168.79,281.41,168.13,281.41Zm-4-41.58a3,3,0,0,1,.9,2.16c0,2-1,3-3.06,3s-3-1-3-3,1-3.06,3-3.06A3,3,0,0,1,164.17,239.83Z"/><path class="cls-3" d="M199.45,274.21a.91.91,0,0,1,.3,1.32,12.73,12.73,0,0,1-11.7,6.84,13.39,13.39,0,0,1-9.9-4c-2.76-2.82-4.14-6.54-4.14-11.22,0-4.92,1.5-8.76,4.38-11.7a13.43,13.43,0,0,1,9.84-4,13,13,0,0,1,8.4,2.64c1.74,1.38,2.58,2.82,2.58,4.38,0,2-.9,3.06-2.76,3.06s-2.64-.78-2.64-2.46a2.33,2.33,0,0,1,1.44-2.34c-1.44-2.22-3.72-3.24-6.84-3.24a8.23,8.23,0,0,0-7.8,4.68,16.79,16.79,0,0,0-2.16,8.64,14.18,14.18,0,0,0,2.88,9.12,9.12,9.12,0,0,0,7.44,3.66c3.84,0,6.84-1.74,9.18-5.34.3-.54.78-.6,1.32-.24Z"/><path class="cls-3" d="M218.29,281.41H205.93c-.66,0-1-.3-1-.9s.3-.78,1-.78a12.11,12.11,0,0,0,2.28-.36q2-.54,2-3.42V258c0-1.92-.48-3-1.44-3.36a11,11,0,0,0-2.82-.36.83.83,0,0,1-1-1c0-.54.3-.84,1-.9a45.73,45.73,0,0,0,7.2-.72c.66-.12,1,.18,1,.84V276c0,1.8.48,2.88,1.38,3.3a10.43,10.43,0,0,0,2.76.48c.66,0,1,.3,1,.84S219,281.41,218.29,281.41Zm-4-41.58a3,3,0,0,1,.9,2.16c0,2-1,3-3.06,3s-3-1-3-3,1-3.06,3-3.06A3,3,0,0,1,214.33,239.83Z"/><path class="cls-3" d="M252,280a4.39,4.39,0,0,1-4,2.28c-2.82,0-4.26-1.62-4.38-5.1a11.68,11.68,0,0,1-10.2,5.28,10,10,0,0,1-6.6-2.1,7.47,7.47,0,0,1-2.82-6.12c0-6.3,5.4-9.84,16.14-10.44l3.06-.18v-1.08c0-6-2.4-9-7.08-9-3.12,0-5.28,1-6.42,3.12a1.89,1.89,0,0,1,1.68,2.16c0,1.74-.84,2.58-2.64,2.58s-2.88-1-2.88-2.94c0-1.62.9-3.12,2.76-4.5a12.36,12.36,0,0,1,7.8-2.46c7,0,10.56,3.48,10.56,10.5v12.18c0,4,.66,6,2,6a2,2,0,0,0,1.62-1c.42-.54.72-.72,1.14-.42A.91.91,0,0,1,252,280Zm-8.76-14.28-2.52.12c-8.34.36-12.48,3.12-12.48,8a5.88,5.88,0,0,0,1.74,4.5,5.7,5.7,0,0,0,4.26,1.68,9.68,9.68,0,0,0,6.3-2.16,8.1,8.1,0,0,0,2.7-4Z"/><path class="cls-3" d="M268.57,281.41H255.85a.8.8,0,0,1-.9-.9c0-.48.3-.78.9-.78a13.5,13.5,0,0,0,2.4-.36c1.32-.3,2-1.44,2-3.42V244.63c0-1.8-.48-2.88-1.38-3.3A12.21,12.21,0,0,0,256,241a.83.83,0,0,1-1-1,.82.82,0,0,1,.9-.9,70.35,70.35,0,0,0,7.32-.72.78.78,0,0,1,1,.84V276c0,1.86.48,2.94,1.56,3.36a9.89,9.89,0,0,0,2.76.42c.6,0,1,.3,1,.84S269.17,281.41,268.57,281.41Z"/></g></g></svg>