<svg id="レイヤー_1" data-name="レイヤー 1" xmlns="http://www.w3.org/2000/svg" viewBox="0 0 500 500"><defs><style>.cls-1{fill:#dd5090;}.cls-2{fill:#fff;}</style></defs><rect class="cls-1" width="500" height="500"/><path id="iconmonstr-instagram-11" class="cls-2" d="M250,128.6c39.53,0,44.23.15,59.85.88,40.13,1.85,58.87,20.86,60.71,60.7.73,15.61.85,20.31.85,59.84s-.14,44.23-.85,59.83c-1.85,39.79-20.53,58.87-60.71,60.71-15.62.72-20.28.87-59.85.87s-44.23-.15-59.83-.87c-40.24-1.86-58.87-21-60.71-60.71-.72-15.6-.87-20.28-.87-59.83s.16-44.21.87-59.84c1.85-39.82,20.53-58.87,60.71-60.7,15.62-.71,20.3-.86,59.83-.86Zm0-26.68c-40.22,0-45.25.16-61,.89-53.78,2.47-83.67,32.31-86.13,86.13-.75,15.81-.91,20.84-.91,61.06s.16,45.27.89,61.06c2.47,53.82,32.31,83.66,86.13,86.13,15.81.73,20.84.89,61.06.89s45.27-.16,61.06-.89c53.82-2.47,83.7-32.31,86.13-86.13.73-15.79.91-20.84.91-61.06s-.16-45.25-.89-61c-2.43-53.73-32.31-83.67-86.13-86.13C295.26,102.08,290.21,101.92,250,101.92Zm0,72a76.1,76.1,0,1,0,76.09,76.1A76.1,76.1,0,0,0,250,174Zm0,125.41A49.37,49.37,0,1,1,299.36,250h0A49.36,49.36,0,0,1,250,299.37ZM329.05,153.2A17.78,17.78,0,1,0,346.81,171v0A17.77,17.77,0,0,0,329.05,153.2Z"/></svg>