<svg xmlns="http://www.w3.org/2000/svg" width="15.958" height="15.958" viewBox="0 0 15.958 15.958">
  <path id="iconmonstr-instagram-11" d="M7.979,1.438c2.13,0,2.383.008,3.225.047,2.162.1,3.172,1.124,3.271,3.271.039.841.046,1.094.046,3.224s-.008,2.383-.046,3.224c-.1,2.144-1.106,3.172-3.271,3.271-.842.039-1.093.047-3.225.047s-2.383-.008-3.224-.047c-2.168-.1-3.172-1.13-3.271-3.271-.039-.841-.047-1.093-.047-3.224s.009-2.382.047-3.224c.1-2.146,1.106-3.172,3.271-3.271.842-.038,1.094-.046,3.224-.046ZM7.979,0C5.812,0,5.541.009,4.69.048,1.792.181.182,1.789.049,4.689.009,5.541,0,5.812,0,7.979s.009,2.439.048,3.29c.133,2.9,1.741,4.508,4.641,4.641.852.039,1.123.048,3.29.048s2.439-.009,3.29-.048c2.9-.133,4.51-1.741,4.641-4.641.039-.851.049-1.123.049-3.29s-.009-2.438-.048-3.289C15.78,1.795,14.17.182,11.27.049,10.418.009,10.146,0,7.979,0Zm0,3.882a4.1,4.1,0,1,0,4.1,4.1A4.1,4.1,0,0,0,7.979,3.882Zm0,6.757a2.66,2.66,0,1,1,2.66-2.66A2.659,2.659,0,0,1,7.979,10.639Zm4.26-7.876a.958.958,0,1,0,.957.958A.958.958,0,0,0,12.239,2.763Z" fill="#8ddcd1"/>
</svg>
