<svg id="レイヤー_1" data-name="レイヤー 1" xmlns="http://www.w3.org/2000/svg" viewBox="0 0 500 500"><defs><style>.cls-1{fill:#25ce69;}.cls-2{fill:#fff;}.cls-3{fill:#06c755;}</style></defs><rect class="cls-1" width="500" height="500"/><path class="cls-2" d="M423.36,225.5c0-77.57-77.77-140.68-173.36-140.68S76.64,147.93,76.64,225.5c0,69.55,61.67,127.79,145,138.8,5.65,1.22,13.33,3.73,15.28,8.55,1.74,4.38,1.14,11.25.56,15.68,0,0-2,12.23-2.48,14.84-.75,4.38-3.48,17.14,15,9.34s99.84-58.78,136.21-100.65h0C411.33,284.51,423.36,256.55,423.36,225.5Z"/><path class="cls-3" d="M365.69,270.3H317a3.32,3.32,0,0,1-3.31-3.31v-.06h0V191.4h0v-.07A3.31,3.31,0,0,1,317,188h48.71a3.32,3.32,0,0,1,3.31,3.31v12.29a3.31,3.31,0,0,1-3.31,3.31h-33.1V219.7h33.1A3.32,3.32,0,0,1,369,223V235.3a3.31,3.31,0,0,1-3.31,3.31h-33.1v12.77h33.1a3.32,3.32,0,0,1,3.31,3.31V267A3.31,3.31,0,0,1,365.69,270.3Z"/><path class="cls-3" d="M185.52,270.3a3.31,3.31,0,0,0,3.31-3.31v-12.3a3.31,3.31,0,0,0-3.31-3.31h-33.1v-60a3.32,3.32,0,0,0-3.31-3.31H136.82a3.31,3.31,0,0,0-3.31,3.31v75.6h0V267a3.31,3.31,0,0,0,3.31,3.31h48.7Z"/><rect class="cls-3" x="199.24" y="188.02" width="18.91" height="82.28" rx="3.31"/><path class="cls-3" d="M298.54,188H286.25a3.31,3.31,0,0,0-3.31,3.31v44.93l-34.62-46.74c-.08-.12-.17-.24-.26-.35l0,0-.2-.21-.07-.05a.93.93,0,0,0-.18-.16l-.09-.06-.17-.12-.1-.06-.18-.1-.11-.06-.19-.08-.11,0-.2-.06-.12,0-.2-.05-.14,0-.18,0H233.29a3.31,3.31,0,0,0-3.31,3.31V267a3.31,3.31,0,0,0,3.31,3.31h12.29a3.31,3.31,0,0,0,3.31-3.31V222.06l34.66,46.81a3.23,3.23,0,0,0,.86.83l0,0,.21.13.1.05.16.08.16.07.11,0,.22.07h.05a3.58,3.58,0,0,0,.87.12h12.22a3.31,3.31,0,0,0,3.31-3.31V191.33A3.31,3.31,0,0,0,298.54,188Z"/></svg>