<svg id="グループ_36" data-name="グループ 36" xmlns="http://www.w3.org/2000/svg" width="33.127" height="31.564" viewBox="0 0 33.127 31.564">
  <g id="グループ_30" data-name="グループ 30" transform="translate(0)">
    <g id="グループ_28" data-name="グループ 28">
      <path id="パス_88" data-name="パス 88" d="M726.406,511.786c0-7.411-7.43-13.441-16.563-13.441s-16.563,6.03-16.563,13.441c0,6.645,5.893,12.209,13.852,13.261.539.117,1.274.356,1.459.817a3.405,3.405,0,0,1,.054,1.5s-.194,1.169-.236,1.418c-.072.418-.333,1.638,1.435.893s9.539-5.617,13.014-9.616h0A11.96,11.96,0,0,0,726.406,511.786Z" transform="translate(-693.279 -498.345)" fill="#fff"/>
    </g>
    <g id="グループ_29" data-name="グループ 29" transform="translate(5.434 9.86)">
      <path id="パス_89" data-name="パス 89" d="M844.122,569.716h-4.653a.316.316,0,0,1-.316-.316v-.005h0v-7.216h0v-.007a.316.316,0,0,1,.316-.316h4.653a.317.317,0,0,1,.316.316v1.175a.316.316,0,0,1-.316.316h-3.162v1.22h3.162a.317.317,0,0,1,.316.316v1.175a.316.316,0,0,1-.316.316h-3.162v1.22h3.162a.317.317,0,0,1,.316.316V569.4A.316.316,0,0,1,844.122,569.716Z" transform="translate(-821.939 -561.855)" fill="#86d682"/>
      <path id="パス_90" data-name="パス 90" d="M733.248,569.716a.316.316,0,0,0,.316-.316v-1.175a.317.317,0,0,0-.316-.316h-3.163v-5.738a.317.317,0,0,0-.316-.316h-1.175a.316.316,0,0,0-.316.316v7.223h0v.005a.316.316,0,0,0,.316.316h4.653Z" transform="translate(-728.278 -561.855)" fill="#86d682"/>
      <rect id="長方形_110" data-name="長方形 110" width="1.807" height="7.861" rx="0.904" transform="translate(6.28)" fill="#86d682"/>
      <path id="パス_91" data-name="パス 91" d="M794.2,561.855h-1.175a.316.316,0,0,0-.316.316v4.293L789.4,562a.3.3,0,0,0-.025-.033l0,0-.019-.02-.006-.005-.017-.015-.008-.006-.017-.011-.01-.006-.018-.01-.01,0-.018-.008-.01,0-.019-.006-.011,0-.019,0-.013,0-.017,0h-1.2a.316.316,0,0,0-.316.316V569.4a.316.316,0,0,0,.316.316h1.175a.316.316,0,0,0,.316-.316v-4.292l3.311,4.472a.323.323,0,0,0,.082.08l0,0,.02.012.009.005.015.007.016.007.01,0,.022.007h0a.323.323,0,0,0,.083.011H794.2a.316.316,0,0,0,.316-.316v-7.229A.316.316,0,0,0,794.2,561.855Z" transform="translate(-778.429 -561.855)" fill="#86d682"/>
    </g>
  </g>
</svg>
