<svg xmlns="http://www.w3.org/2000/svg" viewBox="0 0 300.7 23.12"><defs><style>.cls-1{fill:#00cc42;}</style></defs><g id="レイヤー_2" data-name="レイヤー 2"><g id="design"><rect class="cls-1" x="16.7" y="1.76" width="4.81" height="20.91" rx="0.86"/><path class="cls-1" d="M41.92,1.76H38.83a.85.85,0,0,0-.86.86V14L29.17,2.14l-.06-.09h0l-.05,0,0,0,0,0h0l0,0h0l0,0h0l-.05,0h0l-.05,0h0l-.05,0H25.37a.86.86,0,0,0-.86.86V21.81a.87.87,0,0,0,.86.86h3.09a.87.87,0,0,0,.86-.86V10.41l8.81,11.9a1,1,0,0,0,.21.21h0l.06,0h0l0,0,0,0h.1a.78.78,0,0,0,.22,0h3.09a.87.87,0,0,0,.86-.86V2.62A.86.86,0,0,0,41.92,1.76Z"/><path class="cls-1" d="M13.2,17.86H4.81V2.62A.86.86,0,0,0,4,1.76H.86A.85.85,0,0,0,0,2.62V21.81H0a.83.83,0,0,0,.24.59v0h0a.87.87,0,0,0,.6.24H13.2a.87.87,0,0,0,.86-.86V18.72A.87.87,0,0,0,13.2,17.86Z"/><path class="cls-1" d="M59,1.76H46.64A.87.87,0,0,0,46,2h0V2a.83.83,0,0,0-.24.59h0V21.81h0a.83.83,0,0,0,.24.59v0h0a.87.87,0,0,0,.6.24H59a.86.86,0,0,0,.86-.86V18.72a.86.86,0,0,0-.86-.86H50.59V14.62H59a.86.86,0,0,0,.86-.86V10.67A.85.85,0,0,0,59,9.81H50.59V6.57H59a.86.86,0,0,0,.86-.86V2.62A.85.85,0,0,0,59,1.76Z"/><path class="cls-1" d="M203.16,22.76h-4a.67.67,0,0,1-.54-.2,1,1,0,0,1-.25-.46L197,18.58h-8.3l-1.26,3.52a1.38,1.38,0,0,1-.26.46.63.63,0,0,1-.53.2h-3.86c-.44,0-.58-.21-.42-.62l7.68-19.72a1.13,1.13,0,0,1,.38-.49,1.18,1.18,0,0,1,.8-.23h3.5a1.13,1.13,0,0,1,.77.23,1.57,1.57,0,0,1,.42.49l7.68,19.72C203.78,22.55,203.63,22.76,203.16,22.76Zm-7.71-8.57L192.88,7.1l-2.57,7.09h5.14Z"/><path class="cls-1" d="M215.43,18a1,1,0,0,1,.61-.15.78.78,0,0,1,.6.37l1.34,2a.72.72,0,0,1,.13.65.94.94,0,0,1-.36.53,8.7,8.7,0,0,1-2.35,1.22,8.21,8.21,0,0,1-2.78.48,8.11,8.11,0,0,1-3.19-.64,8.45,8.45,0,0,1-2.6-1.73,8.25,8.25,0,0,1-1.76-2.55,7.51,7.51,0,0,1-.66-3.13,7.82,7.82,0,0,1,.64-3.15,8.11,8.11,0,0,1,1.73-2.59,8.31,8.31,0,0,1,2.57-1.73,7.91,7.91,0,0,1,3.14-.64,8.63,8.63,0,0,1,2.94.48,7.72,7.72,0,0,1,2.39,1.32,1,1,0,0,1,.31.54.78.78,0,0,1-.18.67l-1.47,1.83a.7.7,0,0,1-.59.35,1.35,1.35,0,0,1-.62-.18,4.52,4.52,0,0,0-1.16-.54,4.81,4.81,0,0,0-1.36-.18,3.59,3.59,0,0,0-2.7,1.06A3.83,3.83,0,0,0,209,15a3.58,3.58,0,0,0,3.73,3.76,4.62,4.62,0,0,0,1.41-.21A5.64,5.64,0,0,0,215.43,18Z"/><path class="cls-1" d="M230.46,18a1,1,0,0,1,.61-.15.78.78,0,0,1,.6.37l1.34,2a.72.72,0,0,1,.13.65.94.94,0,0,1-.36.53,8.7,8.7,0,0,1-2.35,1.22,8.21,8.21,0,0,1-2.78.48,8.08,8.08,0,0,1-3.19-.64,8.31,8.31,0,0,1-4.37-4.28,7.66,7.66,0,0,1-.65-3.13,7.82,7.82,0,0,1,.64-3.15,8.11,8.11,0,0,1,1.73-2.59,8.31,8.31,0,0,1,2.57-1.73,7.91,7.91,0,0,1,3.14-.64,8.63,8.63,0,0,1,2.94.48,7.84,7.84,0,0,1,2.39,1.32,1,1,0,0,1,.31.54.78.78,0,0,1-.18.67l-1.47,1.83a.7.7,0,0,1-.59.35,1.35,1.35,0,0,1-.62-.18,4.52,4.52,0,0,0-1.16-.54,4.81,4.81,0,0,0-1.36-.18,3.59,3.59,0,0,0-2.7,1.06,3.79,3.79,0,0,0-1,2.76,3.58,3.58,0,0,0,3.73,3.76,4.51,4.51,0,0,0,1.4-.21A5.51,5.51,0,0,0,230.46,18Z"/><path class="cls-1" d="M242.7,6.8a8.08,8.08,0,0,1,3.19.64,8.33,8.33,0,0,1,2.6,1.75,8.56,8.56,0,0,1,1.77,2.6,8.08,8.08,0,0,1,0,6.35,8.51,8.51,0,0,1-1.77,2.59,8,8,0,0,1-2.6,1.75,8.27,8.27,0,0,1-6.38,0,8.14,8.14,0,0,1-4.34-4.34,8.2,8.2,0,0,1,0-6.35,8.13,8.13,0,0,1,1.74-2.6,8.44,8.44,0,0,1,2.6-1.75A8.15,8.15,0,0,1,242.7,6.8Zm0,11.91a3.48,3.48,0,0,0,1.36-.28,3.36,3.36,0,0,0,1.11-.79,3.52,3.52,0,0,0,.74-1.19,4.21,4.21,0,0,0,.26-1.47,4.26,4.26,0,0,0-.26-1.5,3.67,3.67,0,0,0-.74-1.2,3.2,3.2,0,0,0-1.11-.78,3.31,3.31,0,0,0-1.36-.28,3.23,3.23,0,0,0-1.37.28,3.18,3.18,0,0,0-1.08.78,3.8,3.8,0,0,0-.72,1.2,4.26,4.26,0,0,0-.26,1.5,4.21,4.21,0,0,0,.26,1.47,3.64,3.64,0,0,0,.72,1.19,3.35,3.35,0,0,0,1.08.79A3.39,3.39,0,0,0,242.7,18.71Z"/><path class="cls-1" d="M268.11,15.7a8.05,8.05,0,0,1-.52,3A6.32,6.32,0,0,1,266.1,21a6.6,6.6,0,0,1-2.34,1.44,8.89,8.89,0,0,1-3,.5,9,9,0,0,1-3.07-.5A6.6,6.6,0,0,1,255.31,21a6.19,6.19,0,0,1-1.49-2.28,8.05,8.05,0,0,1-.52-3V8a.82.82,0,0,1,.85-.85h2.94a.82.82,0,0,1,.85.85v7.36a3.35,3.35,0,0,0,.77,2.32,2.56,2.56,0,0,0,2,.85,2.51,2.51,0,0,0,2-.85,3.34,3.34,0,0,0,.76-2.32V8a.82.82,0,0,1,.85-.85h2.94a.81.81,0,0,1,.6.24.82.82,0,0,1,.25.61Z"/><path class="cls-1" d="M285.67,22.52a.85.85,0,0,1-.61.24h-3a.81.81,0,0,1-.6-.24.82.82,0,0,1-.25-.61V14.16a2.93,2.93,0,0,0-.7-2,2.38,2.38,0,0,0-1.85-.78,2.41,2.41,0,0,0-.74.13,2.94,2.94,0,0,0-.77.39,2.62,2.62,0,0,0-.63.69,2,2,0,0,0-.31,1v8.3a.82.82,0,0,1-.25.61.81.81,0,0,1-.6.24h-3.18a.81.81,0,0,1-.6-.24.86.86,0,0,1-.25-.61V8a.84.84,0,0,1,.25-.6.82.82,0,0,1,.6-.25h3.18a.82.82,0,0,1,.6.25.8.8,0,0,1,.25.6v1.7a3.9,3.9,0,0,1,1.7-2.07,4.7,4.7,0,0,1,2.48-.74,5.08,5.08,0,0,1,4.07,1.75,7.19,7.19,0,0,1,1.49,4.79v8.47A.85.85,0,0,1,285.67,22.52Z"/><path class="cls-1" d="M300.68,21.16a.84.84,0,0,1-.26.39,7.3,7.3,0,0,1-1.92,1,6.6,6.6,0,0,1-2.24.39,5,5,0,0,1-4-1.64,6.83,6.83,0,0,1-1.43-4.64V11.15h-2.09a.76.76,0,0,1-.6-.26.84.84,0,0,1-.25-.62V8a.88.88,0,0,1,.25-.62.79.79,0,0,1,.6-.26h2.13V4.06a.85.85,0,0,1,.24-.61.84.84,0,0,1,.61-.24h2.94a.81.81,0,0,1,.6.24.82.82,0,0,1,.25.61V7.13h3.14a.79.79,0,0,1,.6.26.88.88,0,0,1,.25.62v2.26a.84.84,0,0,1-.25.62.76.76,0,0,1-.6.26h-3.08v5.4c0,1.39.55,2.09,1.64,2.09a1.93,1.93,0,0,0,.67-.1,2.66,2.66,0,0,0,.54-.26.69.69,0,0,1,.51-.11.58.58,0,0,1,.4.31l1.28,2.16A.69.69,0,0,1,300.68,21.16Z"/><path class="cls-1" d="M89.79,12.23A10,10,0,0,1,89,16.3a10.37,10.37,0,0,1-2.25,3.32,10.71,10.71,0,0,1-3.34,2.24,10.42,10.42,0,0,1-8.15,0,10.5,10.5,0,0,1-3.35-2.25,10.89,10.89,0,0,1-2.26-3.34,10.39,10.39,0,0,1,0-8.14,11,11,0,0,1,2.26-3.34,10.67,10.67,0,0,1,3.35-2.25,10.42,10.42,0,0,1,8.15,0A10.47,10.47,0,0,1,89,8.15,10.06,10.06,0,0,1,89.79,12.23Zm-5,0A6.16,6.16,0,0,0,84.33,10a5.66,5.66,0,0,0-1.18-1.87,6,6,0,0,0-1.73-1.27,4.94,4.94,0,0,0-2.12-.47,5.16,5.16,0,0,0-2.13.46,5.56,5.56,0,0,0-1.75,1.25,5.87,5.87,0,0,0-1.17,1.86,6.31,6.31,0,0,0,0,4.58,5.76,5.76,0,0,0,1.17,1.86,5.56,5.56,0,0,0,1.75,1.25,5.16,5.16,0,0,0,2.13.46,5.08,5.08,0,0,0,2.12-.46,5.59,5.59,0,0,0,1.73-1.25,5.68,5.68,0,0,0,1.18-1.85A6,6,0,0,0,84.75,12.23Z"/><path class="cls-1" d="M104.86,1.05a.76.76,0,0,1,.34.5.84.84,0,0,1-.11.67l-1.21,1.93a.77.77,0,0,1-.54.4,1.18,1.18,0,0,1-.57-.07,3.81,3.81,0,0,0-1.31-.26,2.12,2.12,0,0,0-1.7.72,3,3,0,0,0-.62,2v.1h3.14a.79.79,0,0,1,.6.25.82.82,0,0,1,.25.6V10.3a.86.86,0,0,1-.25.61.81.81,0,0,1-.6.24H99.14V21.81a.86.86,0,0,1-.25.61.81.81,0,0,1-.6.24H95.44a.81.81,0,0,1-.6-.24.82.82,0,0,1-.25-.61V11.15h-1.8a.81.81,0,0,1-.6-.24.82.82,0,0,1-.25-.61V7.91a.85.85,0,0,1,.85-.85h1.8V7a7.61,7.61,0,0,1,1.72-5.13A5.83,5.83,0,0,1,100.87,0a8.17,8.17,0,0,1,2.24.28A6.07,6.07,0,0,1,104.86,1.05Z"/><path class="cls-1" d="M118,1.05a.73.73,0,0,1,.34.5.84.84,0,0,1-.11.67L117,4.15a.77.77,0,0,1-.54.4,1.18,1.18,0,0,1-.57-.07,3.81,3.81,0,0,0-1.31-.26,2.12,2.12,0,0,0-1.7.72,3,3,0,0,0-.62,2v.1h3.14a.85.85,0,0,1,.85.85V10.3a.82.82,0,0,1-.25.61.81.81,0,0,1-.6.24h-3.14V21.81a.82.82,0,0,1-.25.61.81.81,0,0,1-.6.24h-2.85a.81.81,0,0,1-.6-.24.82.82,0,0,1-.25-.61V11.15h-1.8a.81.81,0,0,1-.6-.24.86.86,0,0,1-.25-.61V7.91a.82.82,0,0,1,.25-.6.79.79,0,0,1,.6-.25h1.8V7a7.66,7.66,0,0,1,1.72-5.13A5.83,5.83,0,0,1,114,0a8.12,8.12,0,0,1,2.24.28A6,6,0,0,1,118,1.05Z"/><path class="cls-1" d="M122.19,0a2.69,2.69,0,0,1,2,.78,2.63,2.63,0,0,1,.8,1.93,2.6,2.6,0,0,1-.8,1.93,2.66,2.66,0,0,1-2,.79,2.54,2.54,0,0,1-1.91-.79,2.65,2.65,0,0,1-.77-1.93,2.68,2.68,0,0,1,.77-1.93A2.57,2.57,0,0,1,122.19,0Zm2.36,21.81a.82.82,0,0,1-.25.61.81.81,0,0,1-.6.24h-3a.82.82,0,0,1-.85-.85V7.91a.81.81,0,0,1,.24-.6.82.82,0,0,1,.61-.25h3a.85.85,0,0,1,.85.85Z"/><path class="cls-1" d="M138.14,18a1,1,0,0,1,.6-.15.8.8,0,0,1,.61.37l1.34,2a.75.75,0,0,1,.13.65,1.05,1.05,0,0,1-.36.53,8.76,8.76,0,0,1-2.36,1.22,8.17,8.17,0,0,1-2.78.48,8.06,8.06,0,0,1-3.18-.64,8.33,8.33,0,0,1-2.6-1.73,8.45,8.45,0,0,1-1.77-2.55,7.66,7.66,0,0,1-.65-3.13,7.82,7.82,0,0,1,.64-3.15,8.11,8.11,0,0,1,1.73-2.59,8.26,8.26,0,0,1,2.56-1.73,7.94,7.94,0,0,1,3.14-.64,8.73,8.73,0,0,1,2.95.48,7.67,7.67,0,0,1,2.38,1.32,1,1,0,0,1,.32.54.78.78,0,0,1-.18.67l-1.48,1.83a.69.69,0,0,1-.59.35,1.42,1.42,0,0,1-.62-.18,4.37,4.37,0,0,0-1.16-.54,4.69,4.69,0,0,0-1.35-.18,3.56,3.56,0,0,0-2.7,1.06,3.79,3.79,0,0,0-1,2.76,3.72,3.72,0,0,0,1,2.72,3.68,3.68,0,0,0,2.69,1,4.51,4.51,0,0,0,1.4-.21A5.71,5.71,0,0,0,138.14,18Z"/><path class="cls-1" d="M145.78,0a2.67,2.67,0,0,1,1.94.78,2.63,2.63,0,0,1,.8,1.93,2.6,2.6,0,0,1-.8,1.93,2.64,2.64,0,0,1-1.94.79,2.55,2.55,0,0,1-1.92-.79,2.65,2.65,0,0,1-.77-1.93,2.68,2.68,0,0,1,.77-1.93A2.58,2.58,0,0,1,145.78,0Zm2.35,21.81a.82.82,0,0,1-.25.61.81.81,0,0,1-.6.24h-3a.81.81,0,0,1-.6-.24.82.82,0,0,1-.25-.61V7.91a.85.85,0,0,1,.85-.85h3a.85.85,0,0,1,.85.85Z"/><path class="cls-1" d="M167.15,21.78a.88.88,0,0,1-.24.62.8.8,0,0,1-.61.26h-3.2a.8.8,0,0,1-.61-.26.88.88,0,0,1-.24-.62V20.64a7.48,7.48,0,0,1-1.7,1.57,4,4,0,0,1-2.26.65,6.56,6.56,0,0,1-2.58-.54,6.9,6.9,0,0,1-2.28-1.57,8,8,0,0,1-1.61-2.52,8.51,8.51,0,0,1-.63-3.35,8.86,8.86,0,0,1,.58-3.28,7.83,7.83,0,0,1,1.53-2.54,7,7,0,0,1,2.24-1.63,6.31,6.31,0,0,1,2.72-.59,4,4,0,0,1,2.3.67A7.3,7.3,0,0,1,162.25,9V7.88a.81.81,0,0,1,.24-.6A.86.86,0,0,1,163.1,7h3.2a.86.86,0,0,1,.61.25.81.81,0,0,1,.24.6Zm-8-3.56a2.82,2.82,0,0,0,2.21-1,3.4,3.4,0,0,0,.87-2.37,3.48,3.48,0,0,0-.87-2.43,2.82,2.82,0,0,0-2.21-1,2.78,2.78,0,0,0-2.19,1,3.51,3.51,0,0,0-.85,2.43,3.43,3.43,0,0,0,.85,2.37A2.78,2.78,0,0,0,159.17,18.22Z"/><path class="cls-1" d="M170.28.85a.81.81,0,0,1,.24-.6.82.82,0,0,1,.61-.25h3.2a.82.82,0,0,1,.61.25.81.81,0,0,1,.24.6V21.78a.88.88,0,0,1-.24.62.83.83,0,0,1-.61.26h-3.2a.83.83,0,0,1-.61-.26.88.88,0,0,1-.24-.62Z"/></g></g></svg>