<svg xmlns="http://www.w3.org/2000/svg" width="175.693" height="13.51" viewBox="0 0 175.693 13.51">
  <g id="グループ_35" data-name="グループ 35" transform="translate(-111.803 -272.534)">
    <g id="グループ_33" data-name="グループ 33" transform="translate(111.803 273.562)">
      <path id="長方形_111" data-name="長方形 111" d="M.857,0H1.95a.858.858,0,0,1,.858.858v10.5a.857.857,0,0,1-.857.857H.858A.858.858,0,0,1,0,11.358V.857A.857.857,0,0,1,.857,0Z" transform="translate(9.759 0)" fill="#fff"/>
      <path id="パス_92" data-name="パス 92" d="M146.485,274.294h-1.8a.5.5,0,0,0-.5.5v6.663l-5.139-6.941a.372.372,0,0,0-.04-.051l0,0a.371.371,0,0,0-.03-.031l-.009-.008-.027-.023-.013-.01-.026-.018-.015-.009-.027-.015-.016-.007-.029-.013-.016-.006-.03-.009-.018,0-.029-.006-.02,0-.027,0h-1.848a.5.5,0,0,0-.5.5V286.01a.5.5,0,0,0,.5.5h1.8a.5.5,0,0,0,.5-.5v-6.661l5.146,6.949a.5.5,0,0,0,.127.124l.006,0,.031.019.014.008.024.012.024.01.016.005.034.011.007,0a.487.487,0,0,0,.129.018h1.8a.5.5,0,0,0,.5-.5V274.795A.5.5,0,0,0,146.485,274.294Z" transform="translate(-121.993 -274.294)" fill="#fff"/>
      <path id="パス_93" data-name="パス 93" d="M119.517,283.7h-4.906v-8.907a.5.5,0,0,0-.5-.5H112.3a.5.5,0,0,0-.5.5v11.214h0a.5.5,0,0,0,.14.346l.007.007.008.007a.5.5,0,0,0,.346.14h7.213a.5.5,0,0,0,.5-.5V284.2A.5.5,0,0,0,119.517,283.7Z" transform="translate(-111.803 -274.294)" fill="#fff"/>
      <path id="パス_94" data-name="パス 94" d="M165.3,274.294h-7.213a.5.5,0,0,0-.348.141l-.006.006-.008.009a.5.5,0,0,0-.138.345h0v11.213h0a.5.5,0,0,0,.14.346l.007.007.008.007a.5.5,0,0,0,.346.14H165.3a.5.5,0,0,0,.5-.5V284.2a.5.5,0,0,0-.5-.5h-4.906v-1.9H165.3a.5.5,0,0,0,.5-.5v-1.8a.5.5,0,0,0-.5-.5h-4.906v-1.9H165.3a.5.5,0,0,0,.5-.5V274.8A.5.5,0,0,0,165.3,274.294Z" transform="translate(-130.835 -274.294)" fill="#fff"/>
    </g>
    <path id="パス_95" data-name="パス 95" d="M306.309,286.539H303.94a.412.412,0,0,1-.318-.115.613.613,0,0,1-.144-.27l-.751-2.061h-4.854l-.732,2.061a.924.924,0,0,1-.154.27.381.381,0,0,1-.308.115h-2.254q-.386,0-.25-.366l4.488-11.519a.7.7,0,0,1,.221-.289.729.729,0,0,1,.472-.134H301.4a.7.7,0,0,1,.453.134.9.9,0,0,1,.241.289l4.488,11.519Q306.713,286.54,306.309,286.539Zm-4.507-5.008-1.5-4.141-1.5,4.141h3Z" transform="translate(-75.799 -0.705)" fill="#fff"/>
    <path id="パス_96" data-name="パス 96" d="M322.653,285.9a.6.6,0,0,1,.353-.086.468.468,0,0,1,.353.22l.784,1.166a.428.428,0,0,1,.076.382.579.579,0,0,1-.21.306,5.175,5.175,0,0,1-1.376.716,4.836,4.836,0,0,1-1.624.278,4.677,4.677,0,0,1-1.863-.373A4.85,4.85,0,0,1,316.6,286a4.4,4.4,0,0,1-.382-1.824,4.634,4.634,0,0,1,.373-1.844,4.727,4.727,0,0,1,2.512-2.522,4.553,4.553,0,0,1,1.834-.373,5.128,5.128,0,0,1,1.72.277,4.66,4.66,0,0,1,1.395.774.582.582,0,0,1,.182.316.443.443,0,0,1-.105.391l-.859,1.07a.4.4,0,0,1-.344.2.823.823,0,0,1-.363-.105,2.6,2.6,0,0,0-.678-.315,2.781,2.781,0,0,0-.793-.105,2.1,2.1,0,0,0-1.576.621,2.223,2.223,0,0,0-.6,1.615,2.145,2.145,0,0,0,.611,1.586,2.123,2.123,0,0,0,1.567.611,2.642,2.642,0,0,0,.822-.124A3.3,3.3,0,0,0,322.653,285.9Z" transform="translate(-84.976 -2.87)" fill="#fff"/>
    <path id="パス_97" data-name="パス 97" d="M337.682,285.9a.6.6,0,0,1,.353-.086.467.467,0,0,1,.353.22l.784,1.166a.426.426,0,0,1,.077.382.58.58,0,0,1-.21.306,5.181,5.181,0,0,1-1.375.716,4.836,4.836,0,0,1-1.624.278,4.677,4.677,0,0,1-1.863-.373,4.844,4.844,0,0,1-2.551-2.5,4.4,4.4,0,0,1-.382-1.824,4.624,4.624,0,0,1,.373-1.844,4.727,4.727,0,0,1,2.512-2.522,4.553,4.553,0,0,1,1.834-.373,5.128,5.128,0,0,1,1.72.277,4.649,4.649,0,0,1,1.394.774.579.579,0,0,1,.182.316.442.442,0,0,1-.106.391l-.859,1.07a.4.4,0,0,1-.344.2.826.826,0,0,1-.363-.105,2.6,2.6,0,0,0-.678-.315,2.777,2.777,0,0,0-.793-.105,2.1,2.1,0,0,0-1.576.621,2.223,2.223,0,0,0-.6,1.615,2.145,2.145,0,0,0,.611,1.586,2.123,2.123,0,0,0,1.566.611,2.636,2.636,0,0,0,.822-.124A3.306,3.306,0,0,0,337.682,285.9Z" transform="translate(-91.224 -2.87)" fill="#fff"/>
    <path id="パス_98" data-name="パス 98" d="M351.107,279.339a4.683,4.683,0,0,1,1.863.372,4.813,4.813,0,0,1,1.519,1.023,4.935,4.935,0,0,1,1.032,1.519,4.579,4.579,0,0,1,.382,1.863,4.53,4.53,0,0,1-.382,1.843,4.935,4.935,0,0,1-1.032,1.519,4.8,4.8,0,0,1-1.519,1.022,4.842,4.842,0,0,1-3.726,0,4.772,4.772,0,0,1-2.541-2.541,4.63,4.63,0,0,1-.372-1.843,4.68,4.68,0,0,1,.372-1.863,4.776,4.776,0,0,1,2.541-2.542A4.68,4.68,0,0,1,351.107,279.339Zm0,6.955a1.967,1.967,0,0,0,.793-.162,1.939,1.939,0,0,0,.649-.459,2.114,2.114,0,0,0,.43-.7,2.4,2.4,0,0,0,.152-.859,2.452,2.452,0,0,0-.152-.879,2.114,2.114,0,0,0-.43-.7,1.947,1.947,0,0,0-.649-.459,1.967,1.967,0,0,0-.793-.162,1.945,1.945,0,0,0-.8.162,1.874,1.874,0,0,0-.63.459,2.179,2.179,0,0,0-.42.7,2.439,2.439,0,0,0-.153.879,2.383,2.383,0,0,0,.153.859,2.18,2.18,0,0,0,.42.7,1.867,1.867,0,0,0,.63.459A1.945,1.945,0,0,0,351.107,286.294Z" transform="translate(-97.496 -2.829)" fill="#fff"/>
    <path id="パス_99" data-name="パス 99" d="M373.755,284.658a4.758,4.758,0,0,1-.306,1.739,3.674,3.674,0,0,1-.869,1.327,3.856,3.856,0,0,1-1.366.841,5.1,5.1,0,0,1-1.777.3,5.157,5.157,0,0,1-1.8-.3,3.845,3.845,0,0,1-1.366-.841,3.667,3.667,0,0,1-.869-1.327,4.745,4.745,0,0,1-.306-1.739V280.13a.489.489,0,0,1,.5-.5h1.72a.489.489,0,0,1,.5.5v4.3a1.947,1.947,0,0,0,.449,1.357,1.508,1.508,0,0,0,1.175.5,1.478,1.478,0,0,0,1.165-.5,1.974,1.974,0,0,0,.439-1.357v-4.3a.49.49,0,0,1,.5-.5h1.72a.489.489,0,0,1,.5.5Z" transform="translate(-105.299 -2.951)" fill="#fff"/>
    <path id="パス_100" data-name="パス 100" d="M391.494,288.56a.48.48,0,0,1-.353.143h-1.777a.49.49,0,0,1-.5-.5v-4.528a1.709,1.709,0,0,0-.41-1.184,1.382,1.382,0,0,0-1.08-.459,1.43,1.43,0,0,0-.43.077,1.577,1.577,0,0,0-.449.229,1.506,1.506,0,0,0-.373.4,1.22,1.22,0,0,0-.182.611v4.853a.489.489,0,0,1-.5.5h-1.853a.49.49,0,0,1-.5-.5v-8.12a.491.491,0,0,1,.5-.5h1.853a.49.49,0,0,1,.5.5v.993a2.3,2.3,0,0,1,.994-1.213,2.758,2.758,0,0,1,1.452-.43,2.96,2.96,0,0,1,2.379,1.022,4.184,4.184,0,0,1,.869,2.8v4.948A.481.481,0,0,1,391.494,288.56Z" transform="translate(-112.78 -2.87)" fill="#fff"/>
    <path id="パス_101" data-name="パス 101" d="M407.152,286.231a.455.455,0,0,1-.153.229,4.118,4.118,0,0,1-1.117.592,3.85,3.85,0,0,1-1.309.229,2.958,2.958,0,0,1-2.359-.955,4.006,4.006,0,0,1-.831-2.713v-3.229H400.16a.465.465,0,0,1-.353-.153.513.513,0,0,1-.143-.363v-1.318a.515.515,0,0,1,.143-.363.466.466,0,0,1,.353-.153H401.4v-1.8a.489.489,0,0,1,.5-.5h1.72a.489.489,0,0,1,.5.5v1.8h1.834a.465.465,0,0,1,.354.153.513.513,0,0,1,.143.363v1.318a.51.51,0,0,1-.143.363.464.464,0,0,1-.354.153h-1.8v3.152q0,1.223.955,1.223a1.192,1.192,0,0,0,.392-.057,1.552,1.552,0,0,0,.315-.153.4.4,0,0,1,.3-.067.366.366,0,0,1,.239.182l.745,1.261A.4.4,0,0,1,407.152,286.231Z" transform="translate(-119.667 -1.334)" fill="#fff"/>
    <g id="グループ_34" data-name="グループ 34" transform="translate(151.991 272.534)">
      <path id="パス_102" data-name="パス 102" d="M192.861,280.392a5.9,5.9,0,0,1-.485,2.378,6.131,6.131,0,0,1-1.317,1.939,6.333,6.333,0,0,1-1.949,1.308,5.9,5.9,0,0,1-2.378.484,5.968,5.968,0,0,1-2.387-.484,6.173,6.173,0,0,1-3.275-3.266,6.075,6.075,0,0,1,0-4.757,6.167,6.167,0,0,1,3.275-3.266,5.967,5.967,0,0,1,2.387-.485,5.9,5.9,0,0,1,2.378.485A6.169,6.169,0,0,1,192.376,278,5.973,5.973,0,0,1,192.861,280.392Zm-2.945,0a3.583,3.583,0,0,0-.247-1.336,3.387,3.387,0,0,0-1.7-1.83,2.835,2.835,0,0,0-1.235-.274,2.984,2.984,0,0,0-1.244.265,3.216,3.216,0,0,0-1.025.732,3.41,3.41,0,0,0-.686,1.089,3.731,3.731,0,0,0,0,2.671,3.4,3.4,0,0,0,.686,1.089,3.207,3.207,0,0,0,1.025.732,2.975,2.975,0,0,0,1.244.265,2.913,2.913,0,0,0,1.235-.265,3.24,3.24,0,0,0,1.015-.732,3.419,3.419,0,0,0,.686-1.079A3.515,3.515,0,0,0,189.915,280.392Z" transform="translate(-180.585 -273.245)" fill="#fff"/>
      <path id="パス_103" data-name="パス 103" d="M211.292,273.145a.459.459,0,0,1,.2.3.512.512,0,0,1-.067.392l-.707,1.127a.435.435,0,0,1-.316.229.725.725,0,0,1-.334-.038,2.153,2.153,0,0,0-.764-.153,1.246,1.246,0,0,0-.994.421,1.757,1.757,0,0,0-.363,1.184v.057h1.834a.489.489,0,0,1,.5.5v1.4a.489.489,0,0,1-.5.5h-1.834v6.229a.489.489,0,0,1-.5.5h-1.662a.489.489,0,0,1-.5-.5v-6.229h-1.051a.489.489,0,0,1-.5-.5v-1.4a.489.489,0,0,1,.5-.5h1.051V276.6a4.459,4.459,0,0,1,1-3,3.407,3.407,0,0,1,2.665-1.07,4.884,4.884,0,0,1,1.309.162A3.672,3.672,0,0,1,211.292,273.145Z" transform="translate(-190.213 -272.534)" fill="#fff"/>
      <path id="パス_104" data-name="パス 104" d="M224.434,273.145a.459.459,0,0,1,.2.3.512.512,0,0,1-.067.392l-.707,1.127a.435.435,0,0,1-.316.229.725.725,0,0,1-.334-.038,2.153,2.153,0,0,0-.764-.153,1.246,1.246,0,0,0-.994.421,1.757,1.757,0,0,0-.363,1.184v.057h1.834a.489.489,0,0,1,.5.5v1.4a.489.489,0,0,1-.5.5H221.09v6.229a.489.489,0,0,1-.5.5h-1.662a.489.489,0,0,1-.5-.5v-6.229h-1.051a.489.489,0,0,1-.5-.5v-1.4a.489.489,0,0,1,.5-.5h1.051V276.6a4.458,4.458,0,0,1,1-3,3.407,3.407,0,0,1,2.665-1.07,4.884,4.884,0,0,1,1.309.162A3.672,3.672,0,0,1,224.434,273.145Z" transform="translate(-195.676 -272.534)" fill="#fff"/>
      <path id="パス_105" data-name="パス 105" d="M232.881,272.534a1.564,1.564,0,0,1,1.136.459,1.591,1.591,0,0,1,0,2.254,1.561,1.561,0,0,1-1.136.459,1.5,1.5,0,0,1-1.118-.459,1.638,1.638,0,0,1,0-2.254A1.5,1.5,0,0,1,232.881,272.534Zm1.375,12.744a.489.489,0,0,1-.5.5H232a.489.489,0,0,1-.5-.5v-8.12a.489.489,0,0,1,.5-.5h1.758a.489.489,0,0,1,.5.5Z" transform="translate(-201.674 -272.534)" fill="#fff"/>
      <path id="パス_106" data-name="パス 106" d="M245.359,285.9a.6.6,0,0,1,.353-.086.468.468,0,0,1,.353.22l.784,1.166a.428.428,0,0,1,.076.382.579.579,0,0,1-.21.306,5.175,5.175,0,0,1-1.376.716,4.836,4.836,0,0,1-1.624.278,4.682,4.682,0,0,1-1.863-.373,4.851,4.851,0,0,1-2.55-2.5,4.4,4.4,0,0,1-.382-1.824,4.634,4.634,0,0,1,.373-1.844,4.727,4.727,0,0,1,2.512-2.522,4.553,4.553,0,0,1,1.834-.373,5.128,5.128,0,0,1,1.72.277,4.66,4.66,0,0,1,1.395.774.582.582,0,0,1,.182.316.443.443,0,0,1-.105.391l-.86,1.07a.4.4,0,0,1-.344.2.828.828,0,0,1-.363-.105,2.6,2.6,0,0,0-.678-.315,2.775,2.775,0,0,0-.793-.105,2.1,2.1,0,0,0-1.576.621,2.223,2.223,0,0,0-.6,1.615,2.145,2.145,0,0,0,.611,1.586,2.122,2.122,0,0,0,1.566.611,2.643,2.643,0,0,0,.822-.124A3.3,3.3,0,0,0,245.359,285.9Z" transform="translate(-204.836 -275.404)" fill="#fff"/>
      <path id="パス_107" data-name="パス 107" d="M256.464,272.534a1.566,1.566,0,0,1,1.137.459,1.591,1.591,0,0,1,0,2.254,1.564,1.564,0,0,1-1.137.459,1.5,1.5,0,0,1-1.118-.459,1.64,1.64,0,0,1,0-2.254A1.5,1.5,0,0,1,256.464,272.534Zm1.375,12.744a.489.489,0,0,1-.5.5h-1.758a.489.489,0,0,1-.5-.5v-8.12a.489.489,0,0,1,.5-.5h1.758a.489.489,0,0,1,.5.5Z" transform="translate(-211.477 -272.534)" fill="#fff"/>
      <path id="パス_108" data-name="パス 108" d="M272.32,288.1a.513.513,0,0,1-.143.363.466.466,0,0,1-.353.153h-1.872a.465.465,0,0,1-.354-.153.513.513,0,0,1-.143-.363v-.668a4.253,4.253,0,0,1-.993.917,2.323,2.323,0,0,1-1.319.382,3.848,3.848,0,0,1-1.509-.315,4.01,4.01,0,0,1-1.327-.917,4.667,4.667,0,0,1-.946-1.471,5.041,5.041,0,0,1-.363-1.958,5.3,5.3,0,0,1,.334-1.921,4.571,4.571,0,0,1,.9-1.481,4.094,4.094,0,0,1,1.309-.955,3.731,3.731,0,0,1,1.586-.344,2.357,2.357,0,0,1,1.347.392,4.436,4.436,0,0,1,.984.888v-.668a.49.49,0,0,1,.5-.5h1.872a.49.49,0,0,1,.5.5Zm-4.662-2.082a1.658,1.658,0,0,0,1.29-.564,2,2,0,0,0,.506-1.385,2.054,2.054,0,0,0-.506-1.424,1.66,1.66,0,0,0-1.29-.563,1.63,1.63,0,0,0-1.28.563,2.078,2.078,0,0,0-.5,1.424,2.021,2.021,0,0,0,.5,1.385A1.629,1.629,0,0,0,267.658,286.02Z" transform="translate(-214.845 -275.376)" fill="#fff"/>
      <path id="パス_109" data-name="パス 109" d="M282.08,273.031a.489.489,0,0,1,.5-.5h1.872a.49.49,0,0,1,.5.5v12.228a.511.511,0,0,1-.144.363.464.464,0,0,1-.353.153h-1.872a.464.464,0,0,1-.353-.153.51.51,0,0,1-.143-.363Z" transform="translate(-222.778 -272.534)" fill="#fff"/>
    </g>
  </g>
</svg>
