<svg xmlns="http://www.w3.org/2000/svg" viewBox="0 0 109.21 109.21"><defs><style>.cls-1{fill:#8ddcd1;}.cls-2{fill:#fff;}</style></defs><g id="レイヤー_2" data-name="レイヤー 2"><g id="レイヤー_1-2" data-name="レイヤー 1"><circle class="cls-1" cx="54.61" cy="54.61" r="54.61"/><path class="cls-2" d="M97.25,53.45c0-19.09-19.13-34.61-42.64-34.61S12,34.36,12,53.45c0,17.11,15.17,31.43,35.67,34.14,1.39.3,3.28.92,3.76,2.11a8.78,8.78,0,0,1,.14,3.85s-.5,3-.61,3.65c-.19,1.08-.86,4.22,3.69,2.3S79.17,85,88.12,74.74h0C94.3,68,97.25,61.09,97.25,53.45Z"/><path class="cls-1" d="M82.76,63.39h-12a.82.82,0,0,1-.82-.81h0V44h0a.82.82,0,0,1,.81-.82h12a.82.82,0,0,1,.82.81v3a.82.82,0,0,1-.82.81H74.62V51h8.14a.81.81,0,0,1,.81.81v3a.82.82,0,0,1-.81.82H74.61v3.14h8.15a.81.81,0,0,1,.81.81v3A.81.81,0,0,1,82.76,63.39Z"/><path class="cls-1" d="M38.43,63.39a.82.82,0,0,0,.82-.81v-3a.82.82,0,0,0-.82-.81H30.29V44a.81.81,0,0,0-.81-.81h-3a.81.81,0,0,0-.81.81v18.6h0a.82.82,0,0,0,.81.82h12Z"/><rect class="cls-1" x="41.81" y="43.15" width="4.65" height="20.24" rx="0.81"/><path class="cls-1" d="M66.24,43.15h-3a.81.81,0,0,0-.81.81V55l-8.52-11.5-.06-.09h0l0,0h0l0,0,0,0,0,0h0l0,0h0l0,0h0l0,0H50.18a.82.82,0,0,0-.81.82V62.58a.82.82,0,0,0,.81.82h3a.82.82,0,0,0,.81-.82v-11L62.55,63a1,1,0,0,0,.21.21h0l.05,0h0l0,0,0,0h0l.06,0h0l.21,0h3a.81.81,0,0,0,.81-.81V44A.8.8,0,0,0,66.24,43.15Z"/></g></g></svg>