<svg xmlns="http://www.w3.org/2000/svg" width="16.61" height="13.499" viewBox="0 0 16.61 13.499">
  <path id="iconmonstr-twitter-1" d="M16.61,3.846a6.8,6.8,0,0,1-1.957.536,3.413,3.413,0,0,0,1.5-1.885,6.827,6.827,0,0,1-2.164.827A3.41,3.41,0,0,0,8.18,6.432a9.674,9.674,0,0,1-7.023-3.56,3.412,3.412,0,0,0,1.054,4.55A3.393,3.393,0,0,1,.668,7,3.41,3.41,0,0,0,3.4,10.379a3.416,3.416,0,0,1-1.539.058A3.41,3.41,0,0,0,5.045,12.8,6.852,6.852,0,0,1,0,14.216a9.647,9.647,0,0,0,5.224,1.531A9.638,9.638,0,0,0,14.91,5.61a6.938,6.938,0,0,0,1.7-1.764Z" transform="translate(0 -2.248)" fill="#8ddcd1"/>
</svg>
