<svg id="レイヤー_1" data-name="レイヤー 1" xmlns="http://www.w3.org/2000/svg" viewBox="0 0 500 500"><defs><style>.cls-1{fill:#6ebbea;}.cls-2{fill:#fff;}</style></defs><rect class="cls-1" width="500" height="500"/><path id="iconmonstr-twitter-1" class="cls-2" d="M411.84,149.64a132.73,132.73,0,0,1-38.14,10.45,66.54,66.54,0,0,0,29.23-36.74,133,133,0,0,1-42.17,16.12A66.45,66.45,0,0,0,247.56,200a188.5,188.5,0,0,1-136.85-69.37,66.49,66.49,0,0,0,20.54,88.66,66,66,0,0,1-30.07-8.22A66.47,66.47,0,0,0,154.42,277a66.65,66.65,0,0,1-30,1.13,66.44,66.44,0,0,0,62,46,133.52,133.52,0,0,1-98.31,27.6A188.05,188.05,0,0,0,190,381.55c103.73.65,188.34-82.9,189-186.62q0-5.46-.25-10.92A135.33,135.33,0,0,0,411.84,149.64Z"/></svg>