<svg id="グループ_80" data-name="グループ 80" xmlns="http://www.w3.org/2000/svg" width="21.081" height="12.326" viewBox="0 0 21.081 12.326">
  <path id="パス_251" data-name="パス 251" d="M211,167.63a12.427,12.427,0,0,1,.238-1.225,6.159,6.159,0,0,1,5.825-4.454c.672-.008,1.345,0,2.017,0a.659.659,0,1,1-.007,1.316c-.693,0-1.386-.008-2.079,0a4.83,4.83,0,0,0-.468,9.617,15.362,15.362,0,0,0,1.953.045c.226,0,.453-.005.679,0a.639.639,0,0,1,.616.58.646.646,0,0,1-.516.712.545.545,0,0,1-.122.019,26.282,26.282,0,0,1-2.837-.064,6.16,6.16,0,0,1-5.134-4.678c-.068-.307-.112-.619-.166-.928Z" transform="translate(-211 -161.942)" fill="#8ddcd1"/>
  <path id="パス_252" data-name="パス 252" d="M518.568,168.5a10.17,10.17,0,0,1-.239,1.207,6.044,6.044,0,0,1-5.084,4.395,16.972,16.972,0,0,1-2.836.061.628.628,0,0,1-.619-.684.64.64,0,0,1,.659-.623c.8-.017,1.592.028,2.387-.027a4.828,4.828,0,0,0,.572-9.537,4.937,4.937,0,0,0-1.1-.1c-.6,0-1.194,0-1.791,0a.66.66,0,0,1-.725-.666.652.652,0,0,1,.719-.649c.844.011,1.688-.04,2.531.033a6.156,6.156,0,0,1,5.362,4.7c.07.312.112.631.168.946Z" transform="translate(-497.487 -161.866)" fill="#8ddcd1"/>
  <path id="パス_253" data-name="パス 253" d="M385.214,296.557c-.946,0-1.892,0-2.838,0a.651.651,0,0,1-.643-.452.662.662,0,0,1,.221-.721.691.691,0,0,1,.441-.143q2.818,0,5.635,0a.659.659,0,1,1-.019,1.315C387.079,296.559,386.147,296.557,385.214,296.557Z" transform="translate(-374.673 -289.747)" fill="#8ddcd1"/>
</svg>
