<svg xmlns="http://www.w3.org/2000/svg" width="168.686" height="20.651" viewBox="0 0 168.686 20.651">
  <path id="パス_93" data-name="パス 93" d="M6.226,14.578a6.291,6.291,0,0,1,2.442,1.441,2.384,2.384,0,0,1,.77,1.573.986.986,0,0,1-.22.671.7.7,0,0,1-.55.253,1.183,1.183,0,0,1-.66-.242,5.487,5.487,0,0,0-.462-1.254q-2.024,1.32-5.06,3.036a.881.881,0,0,1-.176.363.578.578,0,0,1-.286.209L.88,18.56l1.782-.506V6.416A13.634,13.634,0,0,1,.726,7.934L.484,7.692A17.428,17.428,0,0,0,3.091,4.26,20.307,20.307,0,0,0,4.95.454l2.4.9q-.11.352-.66.418A7.118,7.118,0,0,1,9.207,3.138a2.067,2.067,0,0,1,.781,1.408.846.846,0,0,1-.858.88.911.911,0,0,1-.638-.242,9.037,9.037,0,0,0-.869-1.54A12.075,12.075,0,0,0,6.292,2.016a20.04,20.04,0,0,1-1.54,2.178A19.846,19.846,0,0,1,2.838,6.262l1.474.682h.814V4.37l2.112.22q-.066.374-.594.462V6.944h1.1l.77-.836L10.032,7.45a1.013,1.013,0,0,1-.33.242,1.713,1.713,0,0,1-.462.154v5.94q-.044.088-.451.242a2.258,2.258,0,0,1-.8.154H7.7v-.858H4.224V17.57q.616-.176,2.464-.792l.616-.2a10.722,10.722,0,0,0-1.32-1.848Zm14.52-6.864a.766.766,0,0,1-.3.22,2.468,2.468,0,0,1-.583.11,27.9,27.9,0,0,1-1.078,4.125,14.956,14.956,0,0,1-1.716,3.443A13.284,13.284,0,0,0,21.6,19.154l-.066.22a1.768,1.768,0,0,0-1.023.385,2.417,2.417,0,0,0-.737.957A12.946,12.946,0,0,1,16.1,16.91a14.649,14.649,0,0,1-5.3,3.784l-.22-.308a13.843,13.843,0,0,0,4.862-4.664A23.829,23.829,0,0,1,13.31,7.78h-.594v1.1a29.967,29.967,0,0,1-.308,4.488,13.063,13.063,0,0,1-1.3,3.971,10.083,10.083,0,0,1-2.9,3.421L7.9,20.54A11.5,11.5,0,0,0,10.483,15.5a29.649,29.649,0,0,0,.649-6.6V1.62L13,2.412h4.95L19.074.938q1.342,1.078,2.068,1.738-.066.352-.55.352H12.716V7.142H18l.968-.99ZM7.7,7.582H4.224v2.2H7.7Zm6.072.2a16.8,16.8,0,0,0,2.42,6.6,22.433,22.433,0,0,0,1.936-6.6ZM4.224,12.686H7.7V10.42H4.224ZM24.618.96a7.245,7.245,0,0,1,2.178.55,3.227,3.227,0,0,1,1.243.9,1.643,1.643,0,0,1,.385.99.984.984,0,0,1-.253.693.842.842,0,0,1-.649.275,1.154,1.154,0,0,1-.616-.176,5.092,5.092,0,0,0-.99-1.617,9.266,9.266,0,0,0-1.5-1.419Zm18.37,1.672a1.378,1.378,0,0,1-.836.33,30.346,30.346,0,0,1-.517,4.653,4,4,0,0,1-1.023,2.211,3.363,3.363,0,0,1-2.31.66A1.438,1.438,0,0,0,37.884,9.3a2.762,2.762,0,0,0-.792-.341,10.452,10.452,0,0,0-1.166-.275l.022-.352q.726.066,1.5.121t1.254.055a1.69,1.69,0,0,0,.44-.044,1.01,1.01,0,0,0,.308-.154q.7-.616.99-5.566H36.058a12.107,12.107,0,0,1-.9,3.234,9.185,9.185,0,0,1-2.2,2.937,14.759,14.759,0,0,1-4.224,2.607l-.286-.33a11.22,11.22,0,0,0,4.3-3.938,10.838,10.838,0,0,0,1.331-4.51H29.7L29.5,2.1H40.216l.946-.968Zm-12.87,1.76-1.3,3.322q-1.936,5.016-2.178,5.72a6.877,6.877,0,0,0-.374,1.87,2.933,2.933,0,0,0,.077.616,6.647,6.647,0,0,0,.187.682q.2.682.3,1.177a5.817,5.817,0,0,1,.1,1.133,2.2,2.2,0,0,1-.374,1.353,1.246,1.246,0,0,1-1.056.5.669.669,0,0,1-.55-.286,1.7,1.7,0,0,1-.286-.836,14.46,14.46,0,0,0,.176-2.244,6.076,6.076,0,0,0-.132-1.386,1.2,1.2,0,0,0-.352-.7,2.25,2.25,0,0,0-1.144-.33V14.49h1.034a.646.646,0,0,0,.341-.066,1.246,1.246,0,0,0,.275-.4q.352-.572,1.342-2.552t3.542-7.194ZM22.88,5.954a6.7,6.7,0,0,1,2.1.473,3.016,3.016,0,0,1,1.2.847,1.557,1.557,0,0,1,.374.946.94.94,0,0,1-.242.66.824.824,0,0,1-.638.264,1.154,1.154,0,0,1-.616-.176,4.456,4.456,0,0,0-.935-1.507,8.469,8.469,0,0,0-1.441-1.309Zm19.162,6.424a1.251,1.251,0,0,1-.836.4v7.37q0,.044-.2.165a2.025,2.025,0,0,1-.528.209,2.814,2.814,0,0,1-.726.088h-.286V18.89H32.626V20.3q0,.132-.407.308a2.459,2.459,0,0,1-.979.176h-.286V11.234L32.89,12H39.4l.858-.99Zm-9.416,5.874h6.842v-5.61H32.626Zm31.944.088a1.208,1.208,0,0,1,.528.33.751.751,0,0,1,.132.462.76.76,0,0,1-.341.671,3.047,3.047,0,0,1-1.243.341,23.816,23.816,0,0,1-2.662.11H58.718a5.49,5.49,0,0,1-1.452-.143A1.037,1.037,0,0,1,56.6,19.6a2.4,2.4,0,0,1-.187-1.067V10.552h-3.1a15.428,15.428,0,0,1-1.078,4.741,8.361,8.361,0,0,1-2.6,3.322,13.937,13.937,0,0,1-4.708,2.233l-.132-.308a12.408,12.408,0,0,0,3.74-2.508,8.55,8.55,0,0,0,1.98-3.2,16.363,16.363,0,0,0,.77-4.279h-6.16l-.2-.638h9.13V5.448H49.742a13.07,13.07,0,0,1-3.19,3.784l-.286-.2a18.428,18.428,0,0,0,1.9-3.608,22.458,22.458,0,0,0,1.265-4.334l2.574.748q-.132.462-.792.462a22.2,22.2,0,0,1-1.1,2.508h3.938V.586L56.672.85q-.066.484-.792.638V4.81h4l1.188-1.452Q62.458,4.392,63.25,5.1q-.088.352-.594.352H55.88V9.914H61.6l1.232-1.562q1.43,1.1,2.222,1.848-.088.352-.572.352h-6.27V18.1q0,.308.143.4a1.723,1.723,0,0,0,.715.088h2.024q1.276,0,1.848-.044a.642.642,0,0,0,.308-.088.685.685,0,0,0,.176-.242,8.445,8.445,0,0,0,.363-1.32q.231-1.034.319-1.43l.132-.638h.286Zm20.284-.748a29.56,29.56,0,0,1,2.332,1.87q-.088.352-.572.352H67.056l-.176-.638h9.108V12.708H69.542l-.154-.638h6.6V6.5H71.346a18.41,18.41,0,0,1-4.334,5.148l-.308-.2A23.258,23.258,0,0,0,69.4,6.9,31.547,31.547,0,0,0,71.39,1.268l2.684.836q-.154.462-.836.44a26.586,26.586,0,0,1-1.518,3.3h4.268V.542l2.684.286a.669.669,0,0,1-.22.4,1.163,1.163,0,0,1-.572.22v4.4h4.554l1.232-1.5q1.386,1.034,2.266,1.8-.088.352-.616.352H77.88V12.07h3.762l1.232-1.54q1.474,1.122,2.288,1.826-.088.352-.572.352H77.88v6.468H83.6Zm13.112,1.8q4.576-1.386,4.576-6.93a9.3,9.3,0,0,0-1.3-5.214A3.683,3.683,0,0,0,99.7,5.987a5.386,5.386,0,0,0-2.354-.5,5.125,5.125,0,0,0-2.541.671A5.039,5.039,0,0,0,92.95,7.89a9.773,9.773,0,0,0-1.364,5.61,9.735,9.735,0,0,0,.5,2.915q.451,1.309,1.353,1.309,1.342,0,2.035-2.607a37.724,37.724,0,0,0,.781-8.283l2.618.286q-.044.506-.814.616a35.891,35.891,0,0,1-.7,6.446,7.461,7.461,0,0,1-1.485,3.377,2.937,2.937,0,0,1-2.343.957,2.8,2.8,0,0,1-2.442-1.54,7.04,7.04,0,0,1-1.166-4.092,8.507,8.507,0,0,1,1.078-4.345A7.669,7.669,0,0,1,93.764,5.69,6.808,6.808,0,0,1,97.24,4.7a8.029,8.029,0,0,1,3.872.891A6.125,6.125,0,0,1,103.664,8.2a8.686,8.686,0,0,1,.9,4.092q0,6.2-6.512,7.634Zm20.526.308v-.836H108.2l-.176-.638h10.472V6.02H108.2l-.176-.638h10.274l.924-1.056,2.068,1.606a1.532,1.532,0,0,1-.363.242,1.778,1.778,0,0,1-.605.176H120.3l-.022,12.98Q118.492,20.364,118.492,19.7Zm6.336.22-.374-.44a19.489,19.489,0,0,0,7.656-7.414,43.384,43.384,0,0,0-5.346-4.928l.286-.264a28.638,28.638,0,0,1,5.808,3.806A27.665,27.665,0,0,0,135.08,3.93l2.618.286a.6.6,0,0,1-.2.385,1.161,1.161,0,0,1-.616.231,29.8,29.8,0,0,1-2.75,7.018A27.541,27.541,0,0,1,137.016,15a3.139,3.139,0,0,1,.66,1.452,1.058,1.058,0,0,1-.33.858.694.694,0,0,1-.605.11,1.537,1.537,0,0,1-.671-.462q-.924-1.3-2.86-3.608A16.418,16.418,0,0,1,124.828,19.924ZM146.74,7.1a14.23,14.23,0,0,0-5.478-1.914l.066-.4a15.576,15.576,0,0,1,2.574-.242,6.216,6.216,0,0,1,1.727.209,5.86,5.86,0,0,1,1.375.6q.836.44.836.968a.976.976,0,0,1-.154.484.641.641,0,0,1-.594.352A1.13,1.13,0,0,1,146.74,7.1Zm-5.5,10.934q8.316-1.87,12.936-11l.484.4q-3.454,9.394-11.946,12.144a.889.889,0,0,1-.4.792Zm17.468,2.816V3.138l2.618.286a.6.6,0,0,1-.2.385,1.161,1.161,0,0,1-.616.231V9.3a19.473,19.473,0,0,1,4.642,1.1,13.494,13.494,0,0,1,2.992,1.65,2.607,2.607,0,0,1,.946,1,.733.733,0,0,1-.11.825.712.712,0,0,1-.55.242,1.652,1.652,0,0,1-.77-.242,24.135,24.135,0,0,0-3.036-2,40.106,40.106,0,0,0-4.114-2l-.022,10.6Q158.708,21.508,158.708,20.848Z" transform="translate(-0.484 -0.454)" fill="#9f7f8e"/>
</svg>
