<svg xmlns="http://www.w3.org/2000/svg" xmlns:xlink="http://www.w3.org/1999/xlink" width="93.52" height="29.536" viewBox="0 0 93.52 29.536">
  <defs>
    <clipPath id="clip-path">
      <rect id="長方形_106" data-name="長方形 106" width="24.598" height="29.536" fill="#9f7f8e"/>
    </clipPath>
  </defs>
  <g id="グループ_85" data-name="グループ 85" transform="translate(-715.078 -1513.558)">
    <path id="パス_244" data-name="パス 244" d="M5.566,12.554q0,3.52.044,5.346l2.288.264V19H1.078v-.836l2.244-.242q.044-2.112.044-6.38V10.354q0-4.29-.044-6.4L1.078,3.71V2.874H7.546a6.876,6.876,0,0,1,4.51,1.287A4.307,4.307,0,0,1,13.6,7.648a4.38,4.38,0,0,1-1.65,3.542,7.92,7.92,0,0,1-5.1,1.364ZM5.61,3.82q-.044,2.134-.044,6.534v1.232h1.54a4.312,4.312,0,0,0,3.2-1.045A3.959,3.959,0,0,0,11.33,7.648q0-3.828-4.18-3.828ZM20.79,19.308a5.567,5.567,0,0,1-2.717-.693,5.2,5.2,0,0,1-2.035-2.046,6.458,6.458,0,0,1-.77-3.245,6.63,6.63,0,0,1,.77-3.289,5.241,5.241,0,0,1,2.035-2.079,5.595,5.595,0,0,1,5.434,0,5.315,5.315,0,0,1,2.046,2.079,6.555,6.555,0,0,1,.781,3.289,6.432,6.432,0,0,1-.781,3.267,5.2,5.2,0,0,1-2.046,2.035A5.638,5.638,0,0,1,20.79,19.308Zm0-.924a2.784,2.784,0,0,0,2.453-1.3,6.764,6.764,0,0,0,.869-3.762,6.986,6.986,0,0,0-.869-3.817,2.926,2.926,0,0,0-4.906,0,6.986,6.986,0,0,0-.869,3.817,6.833,6.833,0,0,0,.858,3.762A2.777,2.777,0,0,0,20.79,18.384ZM31.108,4.5A1.551,1.551,0,0,1,30,4.073a1.413,1.413,0,0,1-.451-1.067A1.369,1.369,0,0,1,30,1.939a1.6,1.6,0,0,1,1.111-.407A1.545,1.545,0,0,1,32.2,1.95a1.378,1.378,0,0,1,.451,1.056A1.413,1.413,0,0,1,32.2,4.073,1.523,1.523,0,0,1,31.108,4.5Zm2.706,13.75V19H28.27v-.748l1.848-.264q.044-2.464.044-4.048V12.664q0-1.606-.066-3.19L28.138,9.3V8.572l3.7-1.3.33.22-.044,3.212V13.94q0,1.584.044,4.048Zm14.718,0V19H42.988v-.748l1.782-.264q.044-2.42.044-4.048V11.7a4.117,4.117,0,0,0-.462-2.266,1.747,1.747,0,0,0-1.54-.66,3.779,3.779,0,0,0-1.628.385,7.365,7.365,0,0,0-1.738,1.221V13.94q0,1.584.044,4.048l1.672.264V19H35.618v-.748l1.782-.264q.044-2.464.044-4.048V12.686q0-1.716-.066-3.168l-1.914-.2V8.594l3.388-1.32.33.22.2,1.98a7.191,7.191,0,0,1,2.079-1.628,4.913,4.913,0,0,1,2.255-.594A2.678,2.678,0,0,1,46.035,8.3a5.749,5.749,0,0,1,.759,3.333v2.31q0,1.628.044,4.048Zm8.514-.176a3.38,3.38,0,0,1-2.794,1.232,2.766,2.766,0,0,1-2.024-.693,2.862,2.862,0,0,1-.7-2.123l.022-2V8.638H49.5V7.78l2.156-.264.638-3.256H53.68l-.132,3.322h3.234V8.638H53.526V16.4q0,1.8,1.386,1.8a1.979,1.979,0,0,0,.781-.154,4.5,4.5,0,0,0,.869-.528ZM60.632,2.5a1.278,1.278,0,0,1,.979.363,1.574,1.574,0,0,1,.341,1.111q0,.924-.462,4.84-.022.33-.176,1.606l-.33,3.52h-.726l-.33-3.52L59.62,7.692q-.33-3.036-.33-3.718a1.542,1.542,0,0,1,.352-1.111A1.315,1.315,0,0,1,60.632,2.5Zm0,16.808a1.43,1.43,0,0,1-1.067-.44,1.459,1.459,0,0,1-.429-1.056,1.5,1.5,0,0,1,.429-1.067,1.475,1.475,0,0,1,2.123,0,1.477,1.477,0,0,1,.44,1.067,1.452,1.452,0,0,1-.44,1.045A1.423,1.423,0,0,1,60.632,19.308Z" transform="translate(714 1521.037)" fill="#9f7f8e"/>
    <g id="グループ_84" data-name="グループ 84" transform="translate(784 1513.558)">
      <g id="グループ_83" data-name="グループ 83" clip-path="url(#clip-path)">
        <path id="パス_235" data-name="パス 235" d="M106.391,320.555a1.276,1.276,0,0,1-.879-.9,1.136,1.136,0,0,1,.809-1.339,1.521,1.521,0,0,1,.37-.05c1.374,0,2.748-.008,4.122,0a1.128,1.128,0,0,1,1.18.9,1.143,1.143,0,0,1-.669,1.3c-.067.03-.157.018-.2.1Zm2.377-.951h2.019c.156,0,.307-.032.31-.221s-.14-.23-.3-.223c-.048,0-.1,0-.144,0h-3.807q-.115,0-.231,0a.2.2,0,0,0-.21.194.208.208,0,0,0,.2.235,2.022,2.022,0,0,0,.259.011h1.9" transform="translate(-96.456 -291.019)" fill="#9f7f8e"/>
        <path id="パス_236" data-name="パス 236" d="M62.941,92.03q-1.644,0-3.288,0c-.535,0-.673-.136-.658-.662a7.343,7.343,0,0,0-.191-1.83,4.133,4.133,0,0,0-1.185-2.1,7.58,7.58,0,1,1,12.554-7.667,7.168,7.168,0,0,1-1.811,7.505,5.463,5.463,0,0,0-1.49,3.946c0,.1,0,.193,0,.288-.031.368-.18.512-.553.514-1,0-2,0-3,0h-.375m-.032-.936c.933,0,1.866-.005,2.8,0,.2,0,.272-.065.271-.262a6.07,6.07,0,0,1,.115-1.089,5.008,5.008,0,0,1,1.363-2.835A6.514,6.514,0,0,0,69.493,81a6.3,6.3,0,0,0-3.546-4.921,6.529,6.529,0,0,0-7.678,1.152A6.4,6.4,0,0,0,56.3,82.842a6.469,6.469,0,0,0,2.093,4.065,3.942,3.942,0,0,1,.913,1.318,6.957,6.957,0,0,1,.567,2.573c.008.227.082.307.323.3.9-.016,1.808-.006,2.712-.006" transform="translate(-50.618 -68.081)" fill="#9f7f8e"/>
        <path id="パス_237" data-name="パス 237" d="M99.119,288.31c-1.01,0-2.019.009-3.029,0A1.114,1.114,0,0,1,95,287.339a1.129,1.129,0,0,1,.763-1.242,1.6,1.6,0,0,1,.512-.069q2.885,0,5.77,0a1.163,1.163,0,0,1,1.269,1,1.146,1.146,0,0,1-1.2,1.278c-1,.01-2,0-3,0Zm.024-1.387H96.2c-.146,0-.281.023-.29.2s.123.241.283.249c.058,0,.115,0,.173,0h5.59a1.451,1.451,0,0,0,.258-.016.193.193,0,0,0,.165-.206.2.2,0,0,0-.159-.214,1.109,1.109,0,0,0-.257-.017H99.143" transform="translate(-86.862 -261.546)" fill="#9f7f8e"/>
        <path id="パス_238" data-name="パス 238" d="M56.094,27.873a.451.451,0,0,1-.285.429.417.417,0,0,1-.5-.1.637.637,0,0,1-.09-.112q-.815-1.274-1.628-2.549a.485.485,0,0,1-.016-.59.446.446,0,0,1,.461-.17.488.488,0,0,1,.337.249q.809,1.26,1.615,2.523a.614.614,0,0,1,.1.325" transform="translate(-48.906 -22.647)" fill="#9f7f8e"/>
        <path id="パス_239" data-name="パス 239" d="M139.236,2.069c0,.48,0,.961,0,1.441,0,.363-.185.579-.469.57s-.445-.222-.446-.565q0-1.47,0-2.94c0-.356.191-.583.467-.573s.445.232.448.569c0,.5,0,1,0,1.5" transform="translate(-126.479 -0.001)" fill="#9f7f8e"/>
        <path id="パス_240" data-name="パス 240" d="M248.115,82.934a.426.426,0,0,1-.254.395c-.911.494-1.822.989-2.738,1.474a.445.445,0,0,1-.628-.157.469.469,0,0,1,.2-.644c.908-.5,1.819-1,2.738-1.474a.443.443,0,0,1,.681.406" transform="translate(-223.518 -75.405)" fill="#9f7f8e"/>
        <path id="パス_241" data-name="パス 241" d="M.459,82.536a.761.761,0,0,1,.351.108q1.25.683,2.5,1.362l.051.028a.5.5,0,0,1,.25.676.464.464,0,0,1-.679.135c-.567-.3-1.13-.612-1.694-.921-.345-.189-.691-.375-1.031-.573a.4.4,0,0,1-.183-.5.43.43,0,0,1,.434-.318" transform="translate(0 -75.472)" fill="#9f7f8e"/>
        <path id="パス_242" data-name="パス 242" d="M205.778,30.006a.455.455,0,0,1-.439-.571.709.709,0,0,1,.086-.182q.844-1.272,1.692-2.542a.648.648,0,0,1,.072-.09.425.425,0,0,1,.6-.059.4.4,0,0,1,.114.561c-.151.256-.322.5-.486.748-.41.616-.822,1.229-1.23,1.846a.536.536,0,0,1-.406.287" transform="translate(-187.749 -24.202)" fill="#9f7f8e"/>
        <path id="パス_243" data-name="パス 243" d="M144.72,102.68c0,.086,0,.173,0,.259a.457.457,0,0,1-.414.471.442.442,0,0,1-.483-.4c-.04-.245-.037-.5-.073-.744a4.961,4.961,0,0,0-4.743-4.28c-.048,0-.1,0-.144-.006a.479.479,0,0,1-.485-.469.472.472,0,0,1,.508-.444,6.3,6.3,0,0,1,1.564.223,5.882,5.882,0,0,1,4.271,5.386" transform="translate(-126.534 -88.763)" fill="#9f7f8e"/>
      </g>
    </g>
  </g>
</svg>
