<svg xmlns="http://www.w3.org/2000/svg" width="143" height="143" viewBox="0 0 143 143">
  <g id="グループ_53" data-name="グループ 53" transform="translate(-4549 142)">
    <circle id="楕円形_6" data-name="楕円形 6" cx="71.5" cy="71.5" r="71.5" transform="translate(4549 -142)" fill="#c4dae8"/>
    <path id="パス_75" data-name="パス 75" d="M4.719,15.266l-.453-.3V14.8l1.547-3.812A23.059,23.059,0,0,1,3.656,8.719L2.25,11.25l-.516.078-.344-.281v-.469l3.2-5.3.734-.109q1.344.781,2.625,1.453l.188.844a37.645,37.645,0,0,1-3.078,7.8Zm5-.406-.562-.781.156-.406v-.937l.141-.125V10.719l.094-.125V8.922l-.078-.234.266-.766V6.188l-.094-.094V5.156L9.25,3.75l.2-.266h.609l.578.406V5.5l.188.8V7.469l-.094.938L11.094,9a12.459,12.459,0,0,0,3.734,1.422v.125a1.168,1.168,0,0,1-1.062.3L10.844,9.8l-.312.516v2.813l-.109,1,.094.313-.187.328ZM6.344,9.734,7.2,7.016a2.849,2.849,0,0,0-1.859-.734l-.406.156-.594,1.25L5.641,9.8l.531.188Zm18.8,6.2-.656-.516.094-.328.172-.172,2.422-4h-.625l-2.062.484-.391-.219-.062-.344.578-.375V10l-.141-.406h-.3l-1.719.2-.109.969.953.469.078.344a2.732,2.732,0,0,1-1.094.2l-.125.828,1.156.188.219.453-1.344.25-.156.75.922.25,1.234-.3.219.516-.125.141-.3.031a16.309,16.309,0,0,1-2.562.578H20.094l-1.187.266-.687-.672v-.2l.406-1.578V12.2l.078-.391-.109-.406h-.375l-1.187,2.3-.5.531h-.594l-.469-.312v-.359a31.159,31.159,0,0,0,3.3-6.328h-.391q-1.266.3-2.453.656l-.469-.25-.141-.406a7.487,7.487,0,0,1,2.516-.781H19.11a2.994,2.994,0,0,0,.75-2.062l-.812-.109-.375,1.25-.453.078-.562-.328-.094-.312.469-2.344V1.672a.568.568,0,0,1,.688-.266l.594.406v.5l-.219.8.3.3h2.234l.813-.109.547.563-.2.359-.687.078-.719-.109a5.9,5.9,0,0,0-.75,2.172h1.2L23.3,6.141l.281.25V6.8l-.562.25H21.626l-.141.438a3.687,3.687,0,0,1,.484,1.359l.172.141h1.3l.25-.062.781.422.141-.734V6.953L24.5,6.578l.281-2.656L24.626,3.3l.391-.469h.578l.5.094.516-.187h1.656a1.937,1.937,0,0,1,1.344.813l.063.063v1.25l-.3.859v1.2l-.078.109V8.453l-.094.094v.984l-.109.391.188.719-.937.953v.469a8.843,8.843,0,0,0,2.969,2.172l.063.375-.219.281h-.281q-1.687-.937-3.391-2.109l-1.859,2.984Zm-4.266-1.391.219-.969a1.466,1.466,0,0,0-1.156-.25l-.344.313v1.141h.938Zm.094-1.953.25-.562-.828-.359-.578.25-.172.453.859.453Zm.188-1.734.125-.828a1.525,1.525,0,0,0-1.141-.25.862.862,0,0,0-.453.953.881.881,0,0,0,1.125.328Zm6.75-.922a4.023,4.023,0,0,0,.313-1.562l-.266-.3H26.829L25.673,8.5l-.2,1.172.453.547h.469Zm-7.219-1,.219-.828-.234-.875h-.547a4.2,4.2,0,0,0-.641,1.844l.844.109Zm7.5-1.594.141-.687a1.516,1.516,0,0,0-1.109-.469H25.891l-.344.938a1.321,1.321,0,0,0,1.047.281L27.5,7.3l.5.219ZM28.3,5.328a9.116,9.116,0,0,0,.3-1.406l-.125-.406H27.188l-1.219.625-.234,1,.7.359h1.688Zm11.751,9.781a6,6,0,0,1-1.687-.969,4.036,4.036,0,0,1-1.2-2.219V10.828l-.2-.187H35.3l-.641.078-.609-.391-.156-.594.125-.109h1.328l.078.078h1.266l.547-.187.5-2.781-.406-.094-1.547.328-.609-.234-.3-.672.2-.281h1.031l2-.328L39.1,2.438l.422-.078.531.3.078.766-.672,1.672.594.219.094-.109h1.094l.609.469v.266l-.3.3H39.517l-.437.172-.672,2.922.2.2h.922l.906-.156h1.516l.344.406a3.29,3.29,0,0,1-2.031.609h-.984l-.922.25-.109.109v1.172a3.14,3.14,0,0,0,1.078,1.922,1.71,1.71,0,0,0,1.281.328l1.578-.984.406-.562.422-.141.281.656a6.145,6.145,0,0,1-1.984,1.891l-.391.078ZM7.438,36.656a3.352,3.352,0,0,1-1.516-1.594v-.953l.719-1.187q-1.594-2.8-2.953-5.656a.889.889,0,0,1,.719-.156l.563.469,2.141,4.391.25.078a14.777,14.777,0,0,1,2.781-2.469l.547.313.094.484-1.2,1.031H9.422l-.078.234a15.206,15.206,0,0,0-2.312,2.953v.391a1.169,1.169,0,0,0,.8.719h.641a8.927,8.927,0,0,0,2.469-1.359l.234-.312h.641l.469.8-.312.156-.078.234a18.58,18.58,0,0,1-3.109,1.438Zm17.219.016L24,36.188l-.078-.312a4.684,4.684,0,0,0,1.531-2.109l.25-1.047-.156-.328-.656-.234a8.861,8.861,0,0,0-3.8,1.938l-.562.891h-.562l-.406-.734a7.018,7.018,0,0,1,2.984-2.344,6.115,6.115,0,0,1,2.594-.562,2.8,2.8,0,0,1,1.453.813l.234.969a8.835,8.835,0,0,1-1.453,3.234Zm16.548.656a1.686,1.686,0,0,1-1.328-.641,4.887,4.887,0,0,1-1.359-3.016V32.2a14,14,0,0,1,1.906-4.281h-.531a34.4,34.4,0,0,1-5.094,1.7.891.891,0,0,1-.672-.687v-.25Q38.064,27.563,42,26.5l.688.391.078.422-1.437,1.531a12.944,12.944,0,0,0-1.812,4.5,6.816,6.816,0,0,0,1.156,2.875l1.063.328.141.422-.3.359Zm14.2-.219a6,6,0,0,1-1.687-.969,4.036,4.036,0,0,1-1.2-2.219V32.828l-.2-.187H50.658l-.641.078-.609-.391-.156-.594.125-.109h1.328l.078.078h1.266l.547-.187.5-2.781-.406-.094-1.547.328-.609-.234-.3-.672.2-.281h1.031l2-.328.984-3.016.422-.078.531.3.078.766-.672,1.672.594.219L55.5,27.2H56.6l.609.469v.266l-.3.3H54.877l-.437.172-.672,2.922.2.2h.922l.906-.156h1.516l.344.406a3.29,3.29,0,0,1-2.031.609h-.984l-.922.25-.109.109v1.172a3.14,3.14,0,0,0,1.078,1.922,1.71,1.71,0,0,0,1.281.328l1.578-.984.406-.562.422-.141.281.656a6.145,6.145,0,0,1-1.984,1.891l-.391.078Zm9.923.953-.734-.578v-.328L67.018,34.3h.531l.484.406v.25l-.406.484h-.156a6.941,6.941,0,0,0-1.7,2.484Zm3.844-.547a.729.729,0,0,1-.328-.672,6.616,6.616,0,0,0,.531-2.109V33.656l-.25-.25H68.049l-.547.078a1.375,1.375,0,0,1-1.266-.469l-.141-.422,2.281-.719v-.391h-.484l-.875.078-.453-.766L68.471,29h-.8l-1.656.375H64.893l-.656-.656v-.172l.188-.125h2.188l1.75-.375.109-.687-.687-.109-.984.25-.547-.531v-.234l2.109-.641.109-.516a1.543,1.543,0,0,0-1.156-.25l-1.484.172-.547-.766.156-.172h.906l.344-.094.547.094,1.125-.312.094-.734-.141-.719.563-.078.469.219.156,1.047.391.125,1.031-.375h1.219l.563.406v.2q-1.469.422-3.2.8l-.109.625.25.266h1.172l.406-.078.594.578a2.287,2.287,0,0,1-1.359.359l-.578-.094-.375.125-.094.672a.893.893,0,0,0,1.063.375l.813-.2h1.234l.094-.078h.828l.469.406v.156a1.227,1.227,0,0,1-.891.391H70.659l-1.234.875-.2.656.188.188h1.734l.391.2.063.422-.922.547V32h.344l1.453-.453.531.234.141.328a2.272,2.272,0,0,1-1.156.641H70.956l-.641.531v.469l.094.109v1.359l-.094.109v1l-.437,1.031Zm5-.172a10.56,10.56,0,0,1-2.406-1.922v-.344l.328-.125a16.065,16.065,0,0,1,2.641,1.656l.078.609A.753.753,0,0,1,74.174,37.344Zm4,.609-.516-.422v-.578a5.6,5.6,0,0,0,.406-1.781v-.937l.594-3.469V29.047l.016-.016h.969l.484.594h.578l.156-.437-.219-.328V27.672l-.266-.5a1.711,1.711,0,0,1-1.453-.406l-.109-.328q1.219-.25,2.734-.578l.156-.156V24.266l-.094-.656h1l.2.2v1.75l.891.25.109-.125h1.3l.391.156.047.344a1.186,1.186,0,0,1-.875.3L83.519,29l.156.234h1.469l.359-.109.578.266.078.656-.094.094v2.375q1.063.438,2.172.984a13.068,13.068,0,0,0,1.172-3.641l-.828-.125-.406.734-.453.141-.609-.484v-.406l.375-1.906v-1.25a1.05,1.05,0,0,1,1.016-.2.828.828,0,0,1,.313.859L88.6,28.578a1.37,1.37,0,0,0,1.125.25l.078-.094h2.266l.406.313v.2a2.6,2.6,0,0,1-1.547.609q-.734,2.406-1.656,4.8a18.279,18.279,0,0,1,2.719,1.938v.188l-.156.281h-.375l-2.641-1.453-1.094,1.375h-.5l-.594-.25v-.156a4.046,4.046,0,0,0,1.109-2.156l-1.578-.953v1.641l.078.281-.25.641-.672.172-.437-.219v-.469l.234-1.156-.031-.7-.094-.469-.016-1.156-.844-.234-.266.094-.3-.094-.437.125-.219,1.2.156.406a6.916,6.916,0,0,1,1.422.531,5.393,5.393,0,0,0-.391,1.8l-1.266.344H81.644l-.906.172-.5-.375v-.891l.109-.344-.125-1.2a2.875,2.875,0,0,1,1.359-.312l.359-1.109q-1.609-.375-1.437-.984l.672-.078.625.078.172-.109.188-.172-.3-.531-.484-.109-1.516.313-.047.7L79.456,33.3l-.266,1.953v1.156l-.375,1.453Zm4.7-2.7.328-.906-.2-.172H82l-.531-.141-.25.891.375.469.891.141Zm2-3.937v-.344l.109-.656-.422-.375H83.159l-.281.563.625.656ZM82.3,29.156l.844-2.562h-.7l-.8.234-.109.609.219.594v1.3h.375Zm14.532,8.359a2.3,2.3,0,0,1-1.547-.812l-.25-.484v-.812a9.555,9.555,0,0,1,1.8-2.437,4.064,4.064,0,0,1,1.375-.812h1.219l.891-4.062a1.063,1.063,0,0,1-.484-1.047l.484-.094.25.094.234-.578.5-.078.484.25.156.641a7.976,7.976,0,0,1,3.906,1.7l.484,1.063a3.879,3.879,0,0,1-1.469,2.359l-.484.484h-.156l-.25.328-1.219.563-.406-.328v-.484a8.567,8.567,0,0,0,2.844-2.922v-.406a8.245,8.245,0,0,0-3.578-1.3,21.676,21.676,0,0,0-1.219,4.953A4.029,4.029,0,0,1,101.3,35v.891a8.5,8.5,0,0,1-3.094,1.625Zm.641-.891v-.156a7.689,7.689,0,0,1-1.375-.812v.563a1.929,1.929,0,0,0,1.3.484Zm.734-1.781.563-.172v-.234l-.562-.094-.156.5.078.078Zm.969-.656-.406-.078v.156H99.1ZM10.406,59.125l-.484-.469v-.25l.391-.391h.172l.8-2.078-.328-.734a2.157,2.157,0,0,0-1.437-.547l-.234.078-.234-.078L6.563,55.688a9.094,9.094,0,0,1-.875,2.563,2.133,2.133,0,0,1-1.281.406l-1.359-.562-.25-.562a8.949,8.949,0,0,1,2.563-2.484l.156-1.516-.078-.484.078-.078v-1.2l-.156-.312-.234-.078a8.374,8.374,0,0,1-2.25.641l-.562-.562V51.2A18.264,18.264,0,0,1,5.2,50.328l.078-.484-.234-1.031.719-.25a.869.869,0,0,1,.641.734l-.094.234.172.484h.563a2.941,2.941,0,0,1,1.359-.328l.313.156.078.719-.641.328h-1.2l-.312.156-.078.078v1.2l.078.078v1.047l-.078.078v.875h.313A8.313,8.313,0,0,1,8.8,53.688H10a3.819,3.819,0,0,1,1.766.8,2.558,2.558,0,0,1,.641,1.766,7.865,7.865,0,0,1-1.2,2.8ZM4.719,57.609l.328-.8H4.8l-.391.313-.094.484.328.078Zm8.328-4.234-.734-.328a14.279,14.279,0,0,0-1.828-2.078v-.484l.719-.234.484.313.313.563.641.484a3.324,3.324,0,0,1,.875,1.516Q13.438,53.453,13.047,53.375ZM24.2,59.484l-.469-.562A12.756,12.756,0,0,0,26.2,53.484l-.234-.406-.406-.234H24.048A13.971,13.971,0,0,0,19.641,54.2l-.391-.328-.078-.562a9.993,9.993,0,0,1,4.234-1.437h2a2.387,2.387,0,0,1,1.516.719,2.8,2.8,0,0,1,.406,1.531,10.771,10.771,0,0,1-2.641,5.266Zm.328-9.687-.406-.406-.391-.641-2.172-1.828.172-.328.625-.078L25.329,49v.391l-.156.406Zm16.829,9.656-.484-.406v-.312a7.45,7.45,0,0,0,1.531-3.125l-.484-1.125-.891-.156A11.23,11.23,0,0,0,37.6,56.094l-.312.469-.406.172-.719-.562-.078-.969.484-3.594-.406-.078a8.145,8.145,0,0,1-2,.563,1.177,1.177,0,0,1-.562-.969q1.531-.469,3.125-.875l.156-.234V48.969a.54.54,0,0,1,.719-.234l.563.8-.078.406.641.078,2.234-.484.719.406.094.547-.891.25h-.8l-2.156.563a4,4,0,0,0-.328,1.188V53.3l-.234,1.438h.156A7.828,7.828,0,0,1,40.564,53.3H41.6a2.116,2.116,0,0,1,1.359.953l.484,1.125v.875a5.528,5.528,0,0,1-1.516,3.125Zm16.657.688-.531-.719.172-.8v-4.3l-.391-.391H55.846l-2.094.281-.625-.562v-.141l.609-.25h1.547l.953-.078.813.078.516-.359v-.8l-.344-.7-1.062-.125-.094.109H54.627l-.891.094-.453-.25-.312-.594.063-.109h1.281l.516.141.469-.828V48.625l-.812-.406-.125.141h-.969l-.547-.547v-.219l.078-.078h2.047a1.04,1.04,0,0,0,.406-1.2l-.062-.172a.638.638,0,0,1,.734-.156l.484.469.172,1.047.234.188h2l.25.141.063.422-.5.25-.062-.062h-1.3l-.594-.094a2.61,2.61,0,0,0-.484,1.813l.391.375h1.531l.328-.078.063.078h1.078l.422.3v.313a.705.705,0,0,1-.719.25l-.328-.109-.484.156v1.469a1.67,1.67,0,0,0,1.188.281l.516-.078.484.2.094.453-.094.078H59.174l-.375.391V56l-.109.688.109.641-.109.828.281,1.281-.312.625Zm-3.016-3a2.539,2.539,0,0,1-1.609-.734l-.109-.453.641-.2a10.292,10.292,0,0,0,2.234.984l.047.328-.109.078Zm-6.984-.562-.656-.234a1.51,1.51,0,0,1-.2-1.125l.125-.375-.125-.125V52.125l.094-.109v-1.3l.094-.094v-.984l.953-.25.719.3h1l.094.094h.938l.578.563.078.5v1.047l.094.266-.109.281.172.422-.062.047v1.688l.172,1-.547.641-.3.078H48.846Zm2.547-1.141.188-.609V53.8l-.219-.687L48.611,52.7l-.422.391v1.875l.609.578,1.578.094Zm-.094-3.281.188-.8-.328-.8-1.656-.234-.531,1.109.641.594,1.469.344Zm12.11,7.5-.656-.734v-.656l.094-.109v-1.3l.094-.078V55.547l.672-3.766v-.906l.094-.109V47.922l.563-.141.859.188,2-.375h1.5l.7-.094.719.563v.547a5.27,5.27,0,0,0-.312,1.844l.109.469a.9.9,0,0,0-.266.969l.781.391.016.078A2.562,2.562,0,0,1,68,52.984l-.578-.187-2.344.375-1.2-.562-.734,3.75v1.781l.2.328-.109.438.109.516A.615.615,0,0,1,62.581,59.656Zm6.234-.547a2.907,2.907,0,0,1-2.266-.828l-.078-.656a12.451,12.451,0,0,0,.484-2.75,6.64,6.64,0,0,1,1.984-.656H71a2.108,2.108,0,0,1,1.422.469l.078.656-.078.266.078.656q-.375,1.2-.609,2.3Zm6.656-.312-.391-.2V58.25l.281-.594V56.281l.094-.094V54.609l.234-1.7h-.625l-1.047.266H72.456L71.3,52.734a1.744,1.744,0,0,1-.375-1.375L71,51.25v-1.2l.094-.078V48.938l.109-.8-.094-.312q.172-.219.609-.125l.422.078,1.047-.187h1.328l.109.109h1.078l1.266.406.078.8-.187.625v1.828l-.078.313.063.422-.062.078V53.25l-.3,1.5v1.094l-.078.094v1.734l-.266.984ZM70.8,57.953l.172-.7-2.75-.2-.234.766.141.484h1.781Zm.469-1.719.219-.75L71,54.859H69.471L68.3,55.2l-.172.813a6.225,6.225,0,0,0,2.547.547Zm4.375-4,.109-.516-.3-.344h-.984l-.094-.078H72.3l-.3.734.844.391h1.672l.375-.094.531.109Zm-8.328-.25.109-.8a2.265,2.265,0,0,0-1.437-.3L65.893,51H64.174l-.391.938a2.853,2.853,0,0,0,1.75.391l.078-.094h1.2Zm8.375-1.422.141-.156V48.719l-.5-.359H74.268l-.234.094-.375-.094-1.3.422-.328,1.141.375.484.359.125h2l.75.219Zm-8.109-.484a3.5,3.5,0,0,0,.3-1.484l-.937-.234-2.7.594-.25.984.328.313h3.063Zm18.548,9.031a6,6,0,0,1-1.687-.969,4.036,4.036,0,0,1-1.2-2.219V54.828l-.2-.187H81.378l-.641.078-.609-.391-.156-.594.125-.109h1.328l.078.078h1.266l.547-.187.5-2.781-.406-.094-1.547.328-.609-.234-.3-.672.2-.281h1.031l2-.328.984-3.016.422-.078.531.3.078.766-.672,1.672.594.219.094-.109h1.094l.609.469v.266l-.3.3H85.6l-.437.172-.672,2.922.2.2h.922l.906-.156h1.516l.344.406a3.29,3.29,0,0,1-2.031.609h-.984l-.922.25-.109.109v1.172a3.14,3.14,0,0,0,1.078,1.922,1.71,1.71,0,0,0,1.281.328l1.578-.984.406-.562.422-.141.281.656a6.145,6.145,0,0,1-1.984,1.891L87,59.109ZM5.2,81.984l-.594-.422-.078-.344a28.4,28.4,0,0,0,1.781-4.891l.547-.172,1,.391.672-.094.453.234A27.449,27.449,0,0,0,9.938,80l.891.094,1.563-.656.109-.281L13.047,79l.547.25.172.563a13.7,13.7,0,0,1-2.609,1.156H10.141a2.191,2.191,0,0,1-1.3-.891Q8.3,78.344,7.484,76.438q-1.031,2.953-1.766,5.547Zm.75-6.469-.078-.094H4.922l-.672-.578v-.156a11.975,11.975,0,0,0,2.328-3.578h-.7l-2.281.344-.578-.547v-.281l.016-.016H4.047l2.547-.562.109-.969-.172-1.594.688-.062.453.219V69.2l.281.578.156.188h2.844l.469.313v.25l-.187.2H8.3q-1.187,1.859-2.2,3.844H7.25l1.3-.406.125-.391-.078-.3.516-.219a4.622,4.622,0,0,1,1.8,1,1.421,1.421,0,0,1,.422,1.047.928.928,0,0,1-.75.109l-.687-.547H9.281A20.78,20.78,0,0,1,5.953,75.516Zm14.641,6.547-.562-.5.234-.125A17.107,17.107,0,0,0,21.532,77.3l-.891-.094-.359.078-.953-.5-.062-.344.094-.125h2.391l.406-.8-1.016-.125-.094.094h-.922l-.5-.406v-.219a2.479,2.479,0,0,1,1.094-.234h1.406a2.059,2.059,0,0,0,.438-1.328l-.484-.25-1.125.2-.656-.5v-.234a3.6,3.6,0,0,1,1.188-.328h.984l.344-.141L23,71.516l.594-.094.516.344.172.375.172.141h1.328l.594.125.531-2.062-.2-.2H24.719l-.094-.094H23.344l-.219.078-.062-.078H21.657l-2.281.594-.094.938.172.875v.969l-.391.375h-.187l-.766-.5-.062-.391.188-.875-.109-.125V70.75l-.172-1.5.141-.547h.516l.594.422.109.313H20l.469-.172h1.25l.375-.359V67.516l-.187-.672.531-.3.719.328.156.391v.906l-.078.609.109.359.375.125H26.2l.844-.187h.891l.469.3v.391l-1,2.844a8.357,8.357,0,0,0-1.734.547H24.126l-.578,1.266,1,.219.094-.109H25.7l.219.578a1.568,1.568,0,0,1-1.234.281l-.8-.187-.562.328-.109.406a1.16,1.16,0,0,0,1,.281,11.937,11.937,0,0,0,3-.734l.938.328.063.375a8.394,8.394,0,0,1-2.047.641h-.953L24.657,77H23.141l-.109.656a11.555,11.555,0,0,0,3.594,2.516h1.313l.484.2.078.453-.391.281h-.969a9.086,9.086,0,0,1-4.594-2.344,11.986,11.986,0,0,1-1.234,3.2Zm18.813-.812a3.948,3.948,0,0,1-2-.875,4.348,4.348,0,0,1-1.437-3.516V75.5l-.094-.078V73.094l.094-.078V70.859a.849.849,0,0,1,.8-.25l.391.328V71.5l-.078.078v1.844L37,73.5v1.75l.078.078v1.281l.078.078v.891a3.866,3.866,0,0,0,1.125,2.313,3.233,3.233,0,0,0,1.438.484L41,79.813l.078-.234.8-.156.328.234v.313A3.94,3.94,0,0,1,39.408,81.25Zm16.8.563A6.2,6.2,0,0,1,54.689,80.7a3.524,3.524,0,0,1-.937-2.453q1.031-1.75,2.219-3.406H55.8q-1.969.7-4.031,1.266h-.875l-.547-.484v-.312l4.672-3.8v-.234h-.8l-.8.234-.469-.078-2.219.313a1.206,1.206,0,0,1-.547-.875.846.846,0,0,1,.781-.234l.8.078.625-.156h1.031l1.109-.234h1.031l.078-.078h1.109l.328.547a39.776,39.776,0,0,1-4.125,3.875h.469a24.493,24.493,0,0,1,3.969-.937l.391.313v.391a18.207,18.207,0,0,0-2.844,4.516,3.506,3.506,0,0,0,1.109,1.75l1.031.469.078.484A1.447,1.447,0,0,1,56.205,81.813Zm14.079-.328-.469-.562a12.756,12.756,0,0,0,2.469-5.437l-.234-.406-.406-.234H70.128A13.971,13.971,0,0,0,65.721,76.2l-.391-.328-.078-.562a9.993,9.993,0,0,1,4.234-1.437h2A2.387,2.387,0,0,1,73,74.594a2.8,2.8,0,0,1,.406,1.531,10.771,10.771,0,0,1-2.641,5.266Zm.328-9.687-.406-.406-.391-.641-2.172-1.828.172-.328.625-.078L71.409,71v.391l-.156.406Zm10,9.109-.531-.453v-.531l.234-.609.828-.234a1.9,1.9,0,0,1,.313,1.078l-.375.688Zm.234-3.8-.687-.609-.078-.234v-2.2l.078-.391-.078-.3.234-1.453V70.781l.531-.234.531.313.156.609-.234.766v.828l-.156.844v1.219l-.062.078v.984l.063.391L81,77.031Z" transform="translate(4573 -112.222)" fill="#fff"/>
  </g>
</svg>
