<?xml version="1.0" encoding="utf-8"?>
<!-- Generator: Adobe Illustrator 23.0.4, SVG Export Plug-In . SVG Version: 6.00 Build 0)  -->
<svg version="1.1" id="レイヤー_1" xmlns="http://www.w3.org/2000/svg" xmlns:xlink="http://www.w3.org/1999/xlink" x="0px"
	 y="0px" viewBox="0 0 414.94 165.33" style="enable-background:new 0 0 414.94 165.33;" xml:space="preserve">
<style type="text/css">
	.st0{fill:#70C6D0;}
	.st1{fill:#004165;}
</style>
<g>
	<g>
		<g>
			<path class="st0" d="M311.67,164.06H298.9v-33.51c0-9.44-2.66-14.16-7.97-14.16c-3.54,0-6.45,1.52-8.72,4.55v43.12h-12.77V130.3
				c0-9.27-2.61-13.91-7.84-13.91c-3.54,0-6.41,1.22-8.6,3.67v44h-13.02v-50.58H253v3.67c3.62-3.29,8.43-4.93,14.41-4.93
				c6.32,0,10.88,2.19,13.66,6.57c3.88-4.38,8.89-6.57,15.05-6.57c10.37,0,15.55,5.14,15.55,15.42V164.06z"/>
			<path class="st0" d="M379.44,138.9c0,7.67-2.46,13.99-7.4,18.97c-4.93,4.98-11.4,7.46-19.41,7.46c-8.94,0-16-2.42-21.18-7.27
				c-5.18-4.85-7.78-11.23-7.78-19.16c0-7.75,2.74-14.1,8.22-19.03s12.39-7.4,20.74-7.4c8.51,0,15.17,2.49,19.97,7.46
				C377.17,124.65,379.44,130.97,379.44,138.9z M375.53,138.64c0-6.41-1.84-11.78-5.52-16.12s-8.39-6.51-14.14-6.51
				c-5.5,0-9.92,2.17-13.26,6.51s-5.01,9.72-5.01,16.12c0,6.41,1.67,11.78,5.01,16.12c3.34,4.34,7.76,6.51,13.26,6.51
				c5.75,0,10.46-2.17,14.14-6.51C373.68,150.42,375.53,145.05,375.53,138.64z"/>
			<path class="st0" d="M404.22,90.35c0,1.85-0.65,3.46-1.95,4.8c-1.3,1.35-2.84,2.02-4.63,2.02c-1.78,0-3.31-0.67-4.56-2.02
				c-1.26-1.35-1.89-2.95-1.89-4.8s0.63-3.44,1.89-4.74c1.25-1.3,2.78-1.96,4.56-1.96c1.79,0,3.33,0.65,4.63,1.96
				C403.57,86.91,404.22,88.49,404.22,90.35z"/>
		</g>
		<path class="st0" d="M105.2,158.93c-1.44,1.43-3.01,2.14-4.7,2.14c-2.29,0-3.77-1.34-4.45-4.02c-0.51-1.84-0.76-5.45-0.76-10.81
			V82.21v-14.5c0-5.53-0.92-9.64-2.77-12.32c-2.18-3.27-5.87-4.9-11.06-4.9c-4.44,0-7.84,0.96-10.18,2.89l1.4,2.64
			c1.44-1.43,3.01-2.14,4.71-2.14c2.29,0,3.77,1.34,4.45,4.02c0.51,1.84,0.76,5.45,0.76,10.81V82.2v65.03
			c0,5.53,0.92,9.64,2.77,12.32c2.18,3.27,5.87,4.9,11.06,4.9c4.44,0,7.84-0.96,10.18-2.89L105.2,158.93z"/>
		<path class="st0" d="M413.54,158.93c-1.44,1.43-3.01,2.14-4.71,2.14c-2.29,0-3.77-1.34-4.45-4.02c-0.51-1.84-0.76-5.45-0.76-10.81
			v-7.56v-14.49c0-5.53-0.92-9.64-2.77-12.32c-2.18-3.27-5.87-4.9-11.06-4.9c-4.44,0-7.84,0.96-10.18,2.89l1.4,2.64
			c1.44-1.43,3.01-2.14,4.71-2.14c2.29,0,3.77,1.34,4.45,4.02c0.51,1.84,0.76,5.45,0.76,10.81v13.49v8.57
			c0,5.53,0.92,9.64,2.77,12.32c2.18,3.27,5.87,4.9,11.06,4.9c4.44,0,7.84-0.96,10.18-2.89L413.54,158.93z"/>
		<path class="st0" d="M24.02,82.21v-14.5c0-5.53-0.92-9.64-2.77-12.32c-2.18-3.27-5.87-4.9-11.07-4.9c-4.44,0-7.84,0.96-10.18,2.89
			l1.4,2.64c1.44-1.43,3.01-2.14,4.71-2.14c2.29,0,3.77,1.34,4.45,4.02c0.51,1.84,0.76,5.45,0.76,10.81V82.2v81.38h12.7V82.21z"/>
		<path class="st0" d="M164.3,138.56c0,7.63-2.45,13.91-7.35,18.86c-4.9,4.94-11.34,7.42-19.3,7.42c-8.89,0-15.9-2.41-21.06-7.23
			c-5.15-4.82-7.73-11.17-7.73-19.05c0-7.71,2.72-14.02,8.17-18.92s12.32-7.35,20.62-7.35c8.46,0,15.09,2.47,19.86,7.42
			C162.04,124.4,164.3,130.68,164.3,138.56z M160.41,138.31c0-6.37-1.83-11.71-5.49-16.03c-3.66-4.32-8.35-6.47-14.06-6.47
			c-5.47,0-9.86,2.16-13.18,6.47c-3.32,4.32-4.98,9.66-4.98,16.03s1.66,11.71,4.98,16.03c3.32,4.32,7.72,6.47,13.18,6.47
			c5.72,0,10.41-2.16,14.06-6.47C158.57,150.02,160.41,144.68,160.41,138.31z"/>
		<path class="st0" d="M228.3,138.56c0,7.63-2.45,13.91-7.36,18.86c-4.9,4.94-11.34,7.42-19.3,7.42c-8.89,0-15.9-2.41-21.06-7.23
			c-5.15-4.82-7.73-11.17-7.73-19.05c0-7.71,2.72-14.02,8.17-18.92s12.32-7.35,20.62-7.35c8.47,0,15.09,2.47,19.86,7.42
			C226.03,124.4,228.3,130.68,228.3,138.56z M224.4,138.31c0-6.37-1.83-11.71-5.49-16.03c-3.66-4.32-8.35-6.47-14.06-6.47
			c-5.47,0-9.86,2.16-13.18,6.47c-3.32,4.32-4.98,9.66-4.98,16.03s1.66,11.71,4.98,16.03c3.32,4.32,7.72,6.47,13.18,6.47
			c5.72,0,10.41-2.16,14.06-6.47C222.57,150.02,224.4,144.68,224.4,138.31z"/>
		<path class="st0" d="M35.79,109.04c5.71,0.26,10.23,2.83,13.52,7.79c2.99,4.75,4.48,10.7,4.48,17.86c0,7.36-1.59,13.41-4.77,18.15
			c-3.47,5.04-8.19,7.55-14.16,7.55c-4.24,0-7.85-1.02-10.84-3.05v3.49c5.03,2.42,10.16,3.63,15.39,3.63
			c9.49,0,16.99-2.95,22.51-8.86c5.23-5.52,7.84-12.68,7.84-21.49c0-8.9-2.18-15.98-6.54-21.2c-4.84-5.81-11.96-8.71-21.35-8.71
			c-2.14,0-6.09,2.81-6.09,2.81v2.03H35.79z"/>
		<path class="st0" d="M59.58,62.48c-4.39-5.27-10.84-7.9-19.36-7.9c-6.41,0-11.81,1.76-16.2,5.27v3.42c2.62-2.9,5.9-4.35,9.83-4.35
			c5.59,0,9.96,2.37,13.11,7.11c2.71,4.3,4.06,9.7,4.06,16.2c0,6.67-1.44,12.16-4.33,16.46c-3.15,4.56-7.43,6.85-12.84,6.85
			c-3.85,0-7.12-0.92-9.83-2.77v3.16c4.56,2.2,9.22,3.29,13.96,3.29c8.6,0,15.41-2.68,20.41-8.03c4.74-5,7.11-11.5,7.11-19.49
			C65.5,73.63,63.53,67.22,59.58,62.48z"/>
		<path class="st0" d="M224.86,34.44c2.37-1.42,4.63-2.79,6.19-3.99c0.33,3.18,0.89,10.8-0.54,16.02c-1.14,1.27-2.28,2.88-3.56,4.72
			c-2.71,3.85-6.07,8.64-11.16,12.37c-5.33,3.91-10.57,4.62-13.25,4.69c0.25-0.56,0.47-1.12,0.66-1.66l0.29-0.81
			c0.58-1.59,1.16-3.2,1.43-5.02c0.93-0.66,4.96-3.97,5.44-11.82c1.08-1.73,4.64-7.28,7.23-9.65c0.82-0.75,2.07-1.62,3.48-2.52
			l0.19,0.06c0.03-0.07,0.04-0.15,0.07-0.23C222.45,35.89,223.66,35.16,224.86,34.44z M200.7,68.19l-0.04,0.26
			c-1.03,1.92-2.21,2.8-3.67,2.8l0,0c-0.31,0-0.65-0.04-1-0.12c-3.08-0.71-7.67-4.63-9.94-7.19c-1.94-2.18-4.29-10.67-3.27-15.51
			c0.81-3.87,2.44-9.7,3.12-12.12c1.41,1.04,4.19,3.03,6.71,4.52c0.01,0.1,0.03,0.19,0.05,0.25l0.25-0.08
			c0.51,0.29,1.01,0.57,1.48,0.8c3.15,1.57,5.8,5.42,8.11,11.78c1.87,5.14,0.72,8.31-0.5,11.66l-0.3,0.82
			c-0.29,0.82-0.59,1.53-0.91,2.15C200.74,68.2,200.71,68.19,200.7,68.19z M183.33,71.9c-0.67,0-1.46-0.01-2.34-0.02
			c-3.39-0.04-8.02-0.09-12.31,0.27l0.27-0.35c-0.04-0.03-3.75-2.95-5.86-4.53c-1.47-1.11-5.21-6.07-7.15-8.76
			c1.34-0.41,3.82-1.18,6.65-2.06c3.57-1.12,8.53-1.86,9.87-2.05c1.7,2.5,3.63,4.72,5.13,5.68c2.57,1.63,5.49,3.04,6.27,3.41
			c0.33,0.6,0.66,1.11,1,1.49c1.32,1.49,3.57,3.59,5.93,5.25C189.35,70.91,186.67,71.9,183.33,71.9z M179.64,33.78l0.22-0.05
			c-0.04-0.15-0.09-0.29-0.13-0.44c0,0,0.42-3.09,1.78-4.91c1-1.34,2.88-3.42,3.76-4.62c0.69,0.73,1.79,1.8,2.7,2.35
			c1.05,0.63,4.25,3.05,5.37,3.9c-0.35,1.92-0.72,6.25-0.77,8.93c-3.2-1.98-6.58-4.55-6.63-4.59l-0.93-0.7l-0.32,1.12
			c-0.02,0.05-0.96,3.32-1.93,6.98c-0.82-1-2.15-2.39-3.96-3.6l0.54-0.06C179.34,38.09,179.4,34.97,179.64,33.78z M194.75,30.47
			c0.27-2.92,3.23-6.39,3.23-6.39c0.39,0.67,0.95,1.24,1.58,1.89c0.78,0.8,1.75,1.79,2.75,3.34c0.22,0.35,0.46,0.7,0.71,1.05
			c-0.02,0.17-0.03,0.28-0.03,0.31l0.26,0.02c0.08,0.12,0.16,0.23,0.24,0.35c2.28,3.25,5.11,7.31,5.33,15.65
			c0.02,0.6,0.01,1.18-0.01,1.74c-0.07,0.11-0.12,0.2-0.14,0.22l0.11,0.07c-0.3,5.36-2.36,8.38-3.71,9.79
			c-0.02-1.61-0.33-3.4-1.08-5.47c-2.49-6.85-5.32-10.87-8.89-12.66c-0.31-0.15-0.63-0.33-0.96-0.51
			C194.15,39.87,194.49,33.39,194.75,30.47z M175.34,38.11c3.9,1.51,6.34,4.76,6.92,5.59c-0.39,1.55-0.76,3.08-1.04,4.39
			c-0.76,3.63,0.16,9.2,1.62,13.13c-1.24-0.63-2.89-1.52-4.4-2.48c-2.65-1.69-7.62-8.83-8.41-12.77c-0.58-2.91-0.43-7.96-0.32-10.26
			L175.34,38.11z M214.71,14.43c1.26,1.93,3.89,6.18,5.05,9.65c1.33,3.98,1.39,7.56,0.22,11.5c-1.38,0.89-2.6,1.75-3.46,2.54
			c-2.02,1.85-4.51,5.38-6.13,7.85c-0.37-8.35-3.25-12.5-5.59-15.84c-0.04-0.06-0.08-0.11-0.12-0.16c0.28-1.84,1.22-6.35,3.97-9.9
			c1.43-1.84,2.48-2.73,3.34-3.33l0.51,0.16c0.06-0.21,0.12-0.42,0.16-0.62C213.41,15.78,214.06,15.33,214.71,14.43z M199.71,5.74
			c1.08-0.87,2.09-1.68,2.92-3.34c0.46-0.93,0.8-1.73,1.05-2.4c0.83,1.65,2.2,4.18,3.95,6.74c2.66,3.86,3.93,6.07,3.6,8.57
			c-0.95,0.66-2.18,1.65-3.83,3.77c-2.36,3.03-3.47,6.62-3.99,8.99c-0.24-0.36-0.48-0.69-0.71-0.99
			c-0.34-7.52-2.44-10.29-5.17-13.03c-0.29-0.55-1.92-3.9-0.29-5.93L199.71,5.74z M196.31,15.09c2.26,2.26,4.07,4.51,4.64,10.01
			c-0.08-0.09-0.17-0.18-0.25-0.26c-0.99-1.02-1.59-1.63-1.71-2.7l-0.25-2.21l-1.21,1.87c-0.12,0.19-2.64,4.07-3.7,6.58
			c-1.39-1.05-4.05-3.04-5.05-3.64c-0.91-0.55-2.23-1.92-2.84-2.58c-0.13-1.09-0.58-5.77,0.51-8.38c0.87-2.1,1.75-4.33,2.25-5.6
			L196.31,15.09z M180.37,17.48c2.77,2.09,3.51,4.21,3.89,4.93c-0.71,0.98-2.65,3.6-3.89,4.83c-0.7,0.7-1.26,2.01-1.7,3.51
			c-1.62-2.85-4.21-4.35-6.93-5.91c-0.42-0.24-0.85-0.49-1.27-0.74c-0.28-1.23-0.68-3.85,0.02-5.23c0.81-1.62,2.6-7.07,3.5-9.87
			C174,9,179.02,16.45,180.37,17.48z M170.96,26.23c3.03,2.04,5.92,3.4,7.14,7.14c-0.26,1.53-0.39,3.01-0.37,4.12
			c-0.57-0.32-1.17-0.6-1.8-0.85c-4.65-1.81-6.52-2.86-6.53-2.87l-1.1-0.63l-0.09,1.27c-0.02,0.32-0.53,7.85,0.28,11.9
			c0.35,1.77,1.54,4.25,3.02,6.65c-0.59,0.09-1.38,0.22-2.29,0.37c-0.4-0.23-1.51-0.85-2.95-1.62c-1.75-1.62-5.78-5.98-6.57-12.29
			c-0.86-6.84,1.69-15.41,2.58-18.14C162.27,21.25,167.39,23.83,170.96,26.23z M148.8,51.24c0.17-2.37,0.68-4.19,1-5.13
			c1.66,0.64,5.77,2.25,9.04,3.68c2.1,0.92,4.54,2.17,6.46,3.2c0.45,0.41,0.76,0.65,0.81,0.69l0.14-0.18
			c0.18,0.1,0.35,0.19,0.51,0.28c-1.55,0.32-3.2,0.71-4.65,1.16c-4.25,1.33-7.7,2.39-7.7,2.39l-1.05,0.32l0.64,0.9
			c0.24,0.34,5.94,8.35,8.14,10c1.44,1.08,3.63,2.79,4.88,3.76c-1.63,0.18-3.17,0.44-4.53,0.78c-2.64-1.17-8.45-4.14-9.79-6.62
			C150.85,63.06,148.55,54.75,148.8,51.24z M154.59,76.49c-0.02,0.01-2.3,0.99-5.52,0.99c-2.94,0-6.69-2.23-10.31-6.12
			c-1.97-2.12-4.47-3.41-6.37-4.15c2.87-1.02,5.68-2.86,8.06-4.42c0.75-0.49,1.46-0.96,2.12-1.37c2.77-1.71,6.32,0.68,6.76,0.99
			c0.62,1.91,1.31,3.63,1.95,4.82c1.4,2.6,6.19,5.23,8.98,6.59c-0.23,0.09-0.46,0.19-0.66,0.29c-1.28,0.64-2.45,1.26-3.56,1.85
			c-0.47,0.25-0.92,0.49-1.37,0.72L154.59,76.49z M167.48,89.84c-8,5.43-15.87,5.33-18.09,5.18c-3.16-0.23-10.53-4.36-13.98-6.52
			c-1.37-0.86-3.21-0.64-4.6-0.26c3.23-4.73,10.82-5.98,15.1-6.68l0.63-0.1c3.77-0.63,6.77-2.23,10.25-4.08
			c1.1-0.58,2.25-1.2,3.52-1.83c4.47-2.23,14.6-2.12,20.66-2.06c0.89,0.01,1.68,0.02,2.36,0.02c0.6,0,1.17-0.03,1.72-0.08
			c-1.86,2.03-4.91,5.55-7.57,9.39C176.04,83.86,172.76,86.25,167.48,89.84z M193.16,87.25c-0.54,6.98-2.66,13.64-5.98,18.75
			c-2.52,3.88-10.28,8.16-13.81,9.98c0.55-2.45,0.41-5.99,0.27-9.94c-0.16-4.22-0.33-9,0.39-12.73c0.54-2.8,2.43-6.19,4.64-9.4
			c0.42-0.31,0.63-0.48,0.64-0.48l-0.16-0.21c3.43-4.83,7.43-9.12,8.48-10.22c2.29-0.52,3.96-1.34,4.72-1.76
			c0.82,0.49,1.63,0.89,2.4,1.16c-1.5,3.65-1.49,6.19-1.45,9.31C193.31,83.28,193.33,85.06,193.16,87.25z M207.34,84.77
			c4.27,7.62,9.51,19,10.26,29.94c0.65,9.47-2.68,15.96-3.77,17.81l-3.6-1.52c0.58-1.07,1.62-3.13,2.54-5.72
			c1.37-3.82,2-14.28-4.27-29.26c-5.19-12.4-11.05-19.41-12.87-21.42c0.18-0.57,0.41-1.18,0.68-1.81c0.23,0.03,0.47,0.04,0.69,0.04
			l0,0c0.21,0,0.41-0.01,0.61-0.04l-0.02,0.16c0.02,0,0.95,0.12,2.39,0.58l-0.24,0.22C199.77,73.8,203.7,78.28,207.34,84.77z
			 M235.72,79.2c1.35,2.15,2.42,3.85,3.39,4.72c1.4,1.25,2.73,2.6,3.56,3.48c-1.97,0.47-6.06,1.31-11.03,1.5
			c-7.96,0.29-14.33-1.45-17.45-4.79c-1.12-1.2-2.23-2.51-3.3-3.78c-2.53-3-4.92-5.83-7.28-7.01c-1.43-0.71-2.7-1.17-3.69-1.46
			c0.71-0.53,1.29-1.23,1.77-2c0.14,0,0.29,0.01,0.46,0.01c2.53,0,7.62-0.52,13.08-3.99l0.01,0.19c0.04,0,2.44-0.06,5.42,0.51
			l-0.06,0.26c0.43,0.11,1.13,0.17,2.03,0.2c1.75,0.49,3.57,1.23,5.15,2.33C230.96,71.6,233.6,75.82,235.72,79.2z M251.62,49.37
			c-1.93,6.62-6.52,11.92-11.98,13.81c-4.85,1.68-12.83,2.36-16.73,2.27c-2.22-0.61-4.31-0.86-5.76-0.95
			c5.05-3.83,8.4-8.57,11.1-12.41c1.3-1.85,2.45-3.48,3.56-4.69l0.09,0.03c0.02-0.06,0.03-0.11,0.05-0.17c0.1-0.1,0.19-0.2,0.29-0.3
			l0.43-0.43c3.65-3.67,9.13-9.18,20.53-9.42C253.2,39.07,253.07,44.41,251.62,49.37z"/>
		<path class="st0" d="M210.23,131.01c0,0-1.69,4.08-7.07,5.21c-3.5,0.74-14.94-0.19-12.73-12.54l-6.27-1.11
			c0,0-0.05,5.24,2.21,9.78c1.44,2.88,4.23,5.32,7.19,6.46c7.19,2.77,13.46,1.47,16.78-1.66c2.94-2.78,3.47-4.62,3.47-4.62
			L210.23,131.01z"/>
		<path class="st0" d="M146.23,131.01c0,0-1.69,4.08-7.07,5.21c-3.5,0.74-14.94-0.19-12.73-12.54l-6.27-1.11
			c0,0-0.05,5.24,2.21,9.78c1.44,2.88,4.23,5.32,7.19,6.46c7.19,2.77,13.46,1.47,16.78-1.66c2.94-2.78,3.48-4.62,3.48-4.62
			L146.23,131.01z"/>
		<path class="st0" d="M361.11,131.01c0,0-1.69,4.08-7.07,5.21c-3.5,0.74-14.94-0.19-12.72-12.54l-6.27-1.11
			c0,0-0.05,5.24,2.21,9.78c1.44,2.88,4.22,5.32,7.19,6.46c7.2,2.77,13.46,1.47,16.79-1.66c2.94-2.78,3.47-4.62,3.47-4.62
			L361.11,131.01z"/>
	</g>
	<g>
		<g>
			<rect x="306.86" y="74.51" class="st1" width="5.42" height="3.79"/>
			<rect x="306.86" y="80.48" class="st1" width="5.42" height="15.72"/>
			<rect x="345.9" y="74.51" class="st1" width="5.43" height="3.79"/>
			<rect x="345.9" y="80.48" class="st1" width="5.43" height="15.72"/>
			<polygon class="st1" points="325.3,74.51 317.17,74.51 317.17,76.25 319.87,76.25 319.87,96.2 325.3,96.2 			"/>
			<polygon class="st1" points="338.31,74.51 330.18,74.51 330.18,76.25 332.89,76.25 332.89,96.2 338.31,96.2 			"/>
			<path class="st1" d="M295.2,83.52v-3.04h-8.13v1.73h2.71V96.2h5.41v-4.64c0-6.31,3.89-9.57,8.68-9.57v-2.17
				C300.1,79.82,296.83,81.33,295.2,83.52z"/>
			<g>
				<g>
					<path class="st1" d="M283.78,87.1c-0.2-2.31-1.23-3.43-4.04-3.97c1.4-0.34,1.84-1.26,1.9-2.36c0.02-0.45,0.04-0.92,0.04-1.38
						c0-0.43-0.02-0.85-0.04-1.28c-0.08-3.47-2.55-4.25-13.01-4.25c-5.88,0-10.49,0.06-14.09,0.22v2.17
						c0.83-0.04,1.74-0.07,2.71-0.09V96.2h15.18c9.37,0,11.16-0.85,11.36-4.53c0.06-0.74,0.09-1.49,0.09-2.25
						C283.88,88.64,283.85,87.87,283.78,87.1z M263.22,76.05c1.65-0.02,3.45-0.03,5.41-0.03c4.76,0,6.98,0.41,7.05,2.19
						c0.02,0.39,0.02,0.78,0.02,1.17c0,0.44,0,0.87-0.02,1.31c-0.06,1.11-0.59,1.97-2.55,1.97c-1.33-0.02-2.83-0.02-4.5-0.02
						c-2.06,0-3.86,0-5.41,0.04V76.05z M277.85,91.07c-0.17,2.42-2.53,2.96-5.41,2.96h-9.21v-9.18c1.33-0.07,3.09-0.04,5.41-0.04
						c7.3,0,9.1-0.27,9.21,2.91c0.04,0.56,0.05,1.12,0.04,1.69C277.89,89.98,277.87,90.53,277.85,91.07z"/>
				</g>
			</g>
			<g>
				<g>
					<path class="st1" d="M378.43,94.46V83.62c0-3.16-3.34-3.79-10.63-3.79c-3.53,0-6.79,0.49-9.43,0.81v2.16
						c2.13-0.37,5.56-0.8,9.43-0.8c2.88,0,5.21,0.29,5.21,1.62v1.81c-1.59-0.12-3.34-0.18-5.21-0.18c-6.23,0-10.33,1.46-10.51,4.66
						c-0.04,0.54-0.05,1.08-0.05,1.63c0,0.53,0.01,1.06,0.04,1.58c0.13,2.52,3,3.08,6.51,3.08h17.07v-1.74L378.43,94.46
						L378.43,94.46z M373.01,94.03h-5.97c-3.47,0-4.3-0.38-4.33-2.05c-0.01-0.23-0.01-0.47-0.01-0.71c0-0.23,0-0.45,0.01-0.68
						c0.04-2.34,2.04-3.17,5.09-3.17c1.87,0,3.62,0.06,5.21,0.18V94.03z"/>
				</g>
			</g>
		</g>
	</g>
</g>
</svg>
