<svg xmlns="http://www.w3.org/2000/svg" width="55" height="25.66" viewBox="0 0 55 25.66">
  <g id="グループ_68" data-name="グループ 68" transform="translate(-1025 -576.34)">
    <path id="パス_102" data-name="パス 102" d="M4.26,6.54q0,.12-.44.3a2.262,2.262,0,0,1-.86.18H2.72V1.58l1.7.72H15.68l.8-.84,1.7,1.3a.921.921,0,0,1-.3.22,1.2,1.2,0,0,1-.44.12V6.38q-.02.1-.49.27a2.485,2.485,0,0,1-.83.17h-.26V6.1H4.26ZM7.06,2.9H4.26V5.5h2.8Zm4.38,0H8.6V5.5h2.84Zm4.42,0H12.98V5.5h2.88ZM14.28,16.44V15.7H5.84v.52q0,.14-.44.34a2.111,2.111,0,0,1-.88.2H4.26V6.88l1.7.74H14.1l.82-.86,1.72,1.3a1.357,1.357,0,0,1-.76.38v7.5q-.02.12-.5.31a2.335,2.335,0,0,1-.84.19Zm0-8.24H5.84v1.9h8.44Zm0,4.4V10.68H5.84V12.6ZM5.84,15.1h8.44V13.16H5.84ZM1.18,19.26a21.115,21.115,0,0,0,3.65-1.38,15.9,15.9,0,0,0,2.93-1.74l1.96,1.4a.682.682,0,0,1-.5.16,2.118,2.118,0,0,1-.54-.08A18.99,18.99,0,0,1,5.33,18.8a29.2,29.2,0,0,1-4.03.78ZM11.24,16.6a22.926,22.926,0,0,1,4.13.53,7.144,7.144,0,0,1,2.23.85q.66.46.66.92a.6.6,0,0,1-.27.5,1.1,1.1,0,0,1-.67.2,1.3,1.3,0,0,1-.82-.28,12.593,12.593,0,0,0-2.22-1.31,16.664,16.664,0,0,0-3.1-1.09Zm12.52,2.56-.08-.48q7.12-1.36,7.2-5.36a4.265,4.265,0,0,0-.6-2.16,2.253,2.253,0,0,0-1.96-1.12,12.361,12.361,0,0,0-6,1.86,1.033,1.033,0,0,1-.1.6.68.68,0,0,1-.32.26l-.68-2.34a24.954,24.954,0,0,1,7.1-1.1,4.9,4.9,0,0,1,3.24,1.16,3.733,3.733,0,0,1,1.32,2.84Q32.92,18.48,23.76,19.16ZM30.1,6.86a15.133,15.133,0,0,0-2.83-.65,27.507,27.507,0,0,0-4.07-.27l-.04-.44a14.189,14.189,0,0,1,4.14-.87,8.818,8.818,0,0,1,2.7.35,1.806,1.806,0,0,1,.99.56.833.833,0,0,1,.11.82.746.746,0,0,1-.36.42A1,1,0,0,1,30.1,6.86Zm7.14-5.52a5.409,5.409,0,0,1,2.52.87,1.721,1.721,0,0,1,.82,1.31.833.833,0,0,1-.23.6.758.758,0,0,1-.57.24,1.085,1.085,0,0,1-.58-.16,4.816,4.816,0,0,0-.86-1.43A8.5,8.5,0,0,0,37.06,1.5Zm17.12,8.82a.4.4,0,0,1-.32.14,1.027,1.027,0,0,1-.32-.06,26.015,26.015,0,0,1-3.2,1.9q1.46,4.24,4.02,5.86l-.04.2a1.634,1.634,0,0,0-.78.49,2.456,2.456,0,0,0-.52.95,10.468,10.468,0,0,1-2.9-4.77A36.25,36.25,0,0,1,49,7.3l-1.68.2V18.94q0,.12-.37.29a2.067,2.067,0,0,1-.87.17h-.22V7.64q-1.1.08-2.22.12v.88a27.982,27.982,0,0,1-.27,4.03,12.364,12.364,0,0,1-1.17,3.68,9.542,9.542,0,0,1-2.64,3.23l-.28-.26a11.337,11.337,0,0,0,2.27-4.72,28.107,28.107,0,0,0,.57-5.98V2.76l1.94.8q2.12-.44,4.23-1.06A34.639,34.639,0,0,0,51.7,1.34L53.44,2.9a.667.667,0,0,1-.44.12,2.241,2.241,0,0,1-.66-.12q-1.76.38-4.12.72t-4.58.5v3.2q2.24-.36,4.57-.97a28.65,28.65,0,0,0,3.71-1.19L53.6,6.74a.631.631,0,0,1-.42.12,1.836,1.836,0,0,1-.66-.14q-1.44.28-3.12.52a27.214,27.214,0,0,0,.94,4.36,22.738,22.738,0,0,0,2.22-2.66ZM41.54,4.84q-2.22,6.58-2.62,8.04a6.594,6.594,0,0,0-.3,1.78,2.49,2.49,0,0,0,.11.71q.11.37.13.45a10.393,10.393,0,0,1,.27,1.15,6.048,6.048,0,0,1,.07,1.19,1.814,1.814,0,0,1-.36,1.07,1.077,1.077,0,0,1-.88.39.608.608,0,0,1-.5-.26,1.511,1.511,0,0,1-.26-.74,14.307,14.307,0,0,0,.18-2.14,5.523,5.523,0,0,0-.12-1.26,1.088,1.088,0,0,0-.32-.64,1.121,1.121,0,0,0-.41-.2,4.3,4.3,0,0,0-.57-.1v-.42h.88a.475.475,0,0,0,.29-.07,1.133,1.133,0,0,0,.23-.35q.28-.54,1.05-2.31t2.77-6.39Zm-5.7.96a4.851,4.851,0,0,1,2.31.81,1.62,1.62,0,0,1,.75,1.23.854.854,0,0,1-.22.6.726.726,0,0,1-.56.24,1.145,1.145,0,0,1-.6-.2,3.629,3.629,0,0,0-.7-1.33,6.652,6.652,0,0,0-1.16-1.17Z" transform="translate(1025 575)" fill="#9f7f8e"/>
    <path id="パス_103" data-name="パス 103" d="M0,0H55" transform="translate(1025 601)" fill="none" stroke="#f2e9a7" stroke-width="2"/>
  </g>
</svg>
