<svg id="グループ_63" data-name="グループ 63" xmlns="http://www.w3.org/2000/svg" xmlns:xlink="http://www.w3.org/1999/xlink" width="346.957" height="110.463" viewBox="0 0 346.957 110.463">
  <defs>
    <clipPath id="clip-path">
      <rect id="長方形_98" data-name="長方形 98" width="102.9" height="110.463" fill="none"/>
    </clipPath>
  </defs>
  <path id="パス_89" data-name="パス 89" d="M8.448,11.954q0,.237-.87.593a4.472,4.472,0,0,1-1.7.356H5.4V2.15l3.36,1.423H31.021L32.6,1.913l3.36,2.57a1.821,1.821,0,0,1-.593.435,2.365,2.365,0,0,1-.87.237v6.483q-.04.2-.969.534a4.912,4.912,0,0,1-1.641.336h-.514V11.084H8.448Zm5.535-7.195H8.448V9.9h5.535Zm8.658,0H17.027V9.9H22.64Zm8.737,0H25.684V9.9h5.693ZM28.254,31.523V30.06H11.571v1.028q0,.277-.87.672a4.173,4.173,0,0,1-1.739.4H8.448V12.626l3.36,1.463H27.9l1.621-1.7,3.4,2.57a2.682,2.682,0,0,1-1.5.751V30.534q-.04.237-.988.613a4.615,4.615,0,0,1-1.66.376Zm0-16.288H11.571v3.756H28.254Zm0,8.7v-3.8H11.571v3.8ZM11.571,28.874H28.254V25.039H11.571ZM2.36,37.1a41.735,41.735,0,0,0,7.215-2.728,31.434,31.434,0,0,0,5.792-3.439L19.24,33.7a1.349,1.349,0,0,1-.988.316,4.187,4.187,0,0,1-1.067-.158,37.537,37.537,0,0,1-6.622,2.332A57.719,57.719,0,0,1,2.6,37.729Zm19.885-5.258a45.317,45.317,0,0,1,8.164,1.048,14.121,14.121,0,0,1,4.408,1.68q1.3.909,1.3,1.819a1.189,1.189,0,0,1-.534.988,2.163,2.163,0,0,1-1.324.4,2.569,2.569,0,0,1-1.621-.553,24.892,24.892,0,0,0-4.388-2.589,32.939,32.939,0,0,0-6.128-2.155ZM46.992,36.9l-.158-.949q14.074-2.688,14.232-10.595a8.43,8.43,0,0,0-1.186-4.27,4.454,4.454,0,0,0-3.874-2.214q-5.376,0-11.86,3.677a2.043,2.043,0,0,1-.2,1.186,1.344,1.344,0,0,1-.633.514l-1.344-4.625a49.324,49.324,0,0,1,14.034-2.174,9.688,9.688,0,0,1,6.4,2.293,7.378,7.378,0,0,1,2.609,5.614Q65.1,35.555,46.992,36.9ZM59.524,12.586A29.913,29.913,0,0,0,53.93,11.3a54.37,54.37,0,0,0-8.045-.534l-.079-.87a28.047,28.047,0,0,1,8.183-1.72,17.429,17.429,0,0,1,5.337.692,3.569,3.569,0,0,1,1.957,1.107A1.647,1.647,0,0,1,61.5,11.6a1.475,1.475,0,0,1-.712.83A1.97,1.97,0,0,1,59.524,12.586ZM73.638,1.675A10.691,10.691,0,0,1,78.619,3.4,3.4,3.4,0,0,1,80.24,5.984a1.646,1.646,0,0,1-.455,1.186,1.5,1.5,0,0,1-1.127.474,2.144,2.144,0,0,1-1.146-.316,9.52,9.52,0,0,0-1.7-2.827,16.809,16.809,0,0,0-2.53-2.51Zm33.84,17.434a.791.791,0,0,1-.633.277,2.031,2.031,0,0,1-.633-.119,51.423,51.423,0,0,1-6.325,3.756q2.886,8.381,7.946,11.583l-.079.4a3.229,3.229,0,0,0-1.542.969,4.854,4.854,0,0,0-1.028,1.878,20.691,20.691,0,0,1-5.732-9.429,71.654,71.654,0,0,1-2.57-14.963l-3.321.4V36.464q0,.237-.731.573a4.086,4.086,0,0,1-1.72.336h-.435V14.128q-2.174.158-4.388.237V16.1a55.31,55.31,0,0,1-.534,7.966,24.439,24.439,0,0,1-2.313,7.274,18.862,18.862,0,0,1-5.218,6.385l-.553-.514a22.409,22.409,0,0,0,4.487-9.33,55.558,55.558,0,0,0,1.127-11.82V4.482l3.835,1.581q4.19-.87,8.361-2.1a68.469,68.469,0,0,0,6.74-2.293l3.439,3.084a1.319,1.319,0,0,1-.87.237,4.429,4.429,0,0,1-1.3-.237q-3.479.751-8.144,1.423t-9.053.988V13.5q4.428-.712,9.033-1.917a56.63,56.63,0,0,0,7.333-2.352l3.321,3.123a1.248,1.248,0,0,1-.83.237,3.629,3.629,0,0,1-1.3-.277q-2.846.553-6.167,1.028a53.791,53.791,0,0,0,1.858,8.618A44.945,44.945,0,0,0,103.92,16.7ZM82.137,8.594Q77.749,21.6,76.958,24.486A13.034,13.034,0,0,0,76.365,28a4.921,4.921,0,0,0,.217,1.4q.217.731.257.889a20.545,20.545,0,0,1,.534,2.273,11.956,11.956,0,0,1,.138,2.352,3.586,3.586,0,0,1-.712,2.115,2.128,2.128,0,0,1-1.739.771,1.2,1.2,0,0,1-.988-.514,2.986,2.986,0,0,1-.514-1.463,28.281,28.281,0,0,0,.356-4.23,10.918,10.918,0,0,0-.237-2.491,2.151,2.151,0,0,0-.633-1.265,2.215,2.215,0,0,0-.81-.4,8.49,8.49,0,0,0-1.127-.2v-.83h1.739a.94.94,0,0,0,.573-.138,2.239,2.239,0,0,0,.455-.692q.553-1.067,2.075-4.566T81.425,8.4Zm-11.267,1.9a9.588,9.588,0,0,1,4.566,1.6,3.2,3.2,0,0,1,1.482,2.431,1.688,1.688,0,0,1-.435,1.186,1.436,1.436,0,0,1-1.107.474,2.262,2.262,0,0,1-1.186-.4,7.173,7.173,0,0,0-1.384-2.629,13.149,13.149,0,0,0-2.293-2.313Zm55.781,24.827q8.223-2.491,8.223-12.453,0-5.851-2.332-9.369a6.618,6.618,0,0,0-2.767-2.273,9.679,9.679,0,0,0-4.23-.889,9.209,9.209,0,0,0-4.566,1.206,9.054,9.054,0,0,0-3.341,3.1,17.561,17.561,0,0,0-2.451,10.081,17.494,17.494,0,0,0,.889,5.238q.81,2.352,2.431,2.352,2.412,0,3.657-4.685t1.4-14.884l4.7.514q-.079.909-1.463,1.107a64.492,64.492,0,0,1-1.265,11.583q-.988,4.27-2.668,6.068a5.278,5.278,0,0,1-4.21,1.72q-2.412.158-4.388-2.767a12.651,12.651,0,0,1-2.1-7.353,15.287,15.287,0,0,1,1.937-7.808,13.78,13.78,0,0,1,4.981-5.119,12.234,12.234,0,0,1,6.246-1.779,14.428,14.428,0,0,1,6.958,1.6A11.006,11.006,0,0,1,136.89,15.2a15.608,15.608,0,0,1,1.621,7.353q0,11.148-11.7,13.718ZM175.83,8.712q2.451,1.858,3.8,3.084-.158.633-1.028.633H144.243l-.277-1.186h11.583q-.04-.04-.435-.316a5.989,5.989,0,0,0-.474-2.431,10.624,10.624,0,0,0-1.226-2.273h-6.839l-.316-1.146H160.1V1.28l4.625.435q-.119.909-1.463,1.067V5.075h8.579l2.1-2.53q2.372,1.9,3.756,3.044-.119.633-1.067.633h-9.093l3.637.949a.873.873,0,0,1-.474.573,1.778,1.778,0,0,1-.988.178,32.156,32.156,0,0,1-3.439,3.321h7.511ZM154.759,6.222a6.879,6.879,0,0,1,2.649,1.641,2.828,2.828,0,0,1,.83,1.878,1.917,1.917,0,0,1-.2.87,1.611,1.611,0,0,1-.553.633H165q.83-2.649,1.384-5.021Zm-1.344,19.845q0,.237-.889.613a4.411,4.411,0,0,1-1.72.376h-.474V13.733l3.321,1.423h15.971l1.621-1.819,3.558,2.728a2.881,2.881,0,0,1-1.66.791v8.895q-.04.237-.988.613a4.615,4.615,0,0,1-1.66.376h-.474V25.158h-16.6Zm16.6-9.765h-16.6v3.242h16.6Zm-16.6,7.709h16.6V20.691h-16.6Zm5.376,2.412a12.928,12.928,0,0,1,4.052.889,5.8,5.8,0,0,1,2.313,1.6,2.906,2.906,0,0,1,.712,1.779,1.608,1.608,0,0,1-.415,1.127,1.358,1.358,0,0,1-1.048.455,2.489,2.489,0,0,1-.949-.237,9.978,9.978,0,0,0-2.036-2.767,19.059,19.059,0,0,0-2.985-2.491Zm11.741,7.59a2.592,2.592,0,0,1,.988.514.963.963,0,0,1,.277.712,1.257,1.257,0,0,1-.672,1.146,6.838,6.838,0,0,1-2.53.573q-1.858.178-5.535.178h-5.139a12.367,12.367,0,0,1-2.827-.237,1.928,1.928,0,0,1-1.265-.81,3.581,3.581,0,0,1-.336-1.759V27.451l4.27.435q-.119.791-1.186.909v4.981a.7.7,0,0,0,.1.435.9.9,0,0,0,.553.158q.455.04,1.166.04h4.9q3.8,0,4.349-.04a2.148,2.148,0,0,0,.613-.119,1.025,1.025,0,0,0,.376-.356,16.938,16.938,0,0,0,1.3-3.953h.474Zm.672-6.207a16.44,16.44,0,0,1,4.7,1.838A8.359,8.359,0,0,1,178.538,32a4.216,4.216,0,0,1,.81,2.293,2.01,2.01,0,0,1-.415,1.3,1.33,1.33,0,0,1-1.087.514,2.262,2.262,0,0,1-1.186-.4,11.382,11.382,0,0,0-2.214-3.973,21.926,21.926,0,0,0-3.637-3.617Zm-21.348.158a9.774,9.774,0,0,1,.316,2.451,6.518,6.518,0,0,1-.889,3.518,5.142,5.142,0,0,1-2.155,2.016,3.672,3.672,0,0,1-1.423.316,2,2,0,0,1-1.245-.376,1.282,1.282,0,0,1-.494-1.087,1.549,1.549,0,0,1,.4-1.048,2.491,2.491,0,0,1,1.028-.692,5.914,5.914,0,0,0,2.649-1.9,5.052,5.052,0,0,0,1.186-3.2Zm68.392,5.693a2.506,2.506,0,0,1,.929.573,1.135,1.135,0,0,1,.257.771,1.282,1.282,0,0,1-.613,1.146,5.863,5.863,0,0,1-2.273.593,43.937,43.937,0,0,1-4.823.2h-4.309a9.664,9.664,0,0,1-2.57-.257,1.827,1.827,0,0,1-1.186-.87,4.034,4.034,0,0,1-.316-1.8V24.288h-4.072a15.662,15.662,0,0,1-2.332,6.681,12.67,12.67,0,0,1-5.08,4.27,31.185,31.185,0,0,1-8.519,2.491l-.158-.593a26.47,26.47,0,0,0,6.879-2.965,11.863,11.863,0,0,0,3.953-4.072,15.237,15.237,0,0,0,1.739-5.811h-2.807v1.3q0,.316-.83.712a4.085,4.085,0,0,1-1.779.4h-.514V2.229l3.4,1.5h16.169l1.66-1.858,3.6,2.807a2.923,2.923,0,0,1-1.7.751V25.276q-.04.237-.969.633a4.347,4.347,0,0,1-1.68.4h-.514V24.288h-3.321v9.053q0,.474.257.593a4.055,4.055,0,0,0,1.285.119h3.874q3,0,3.518-.04a1.379,1.379,0,0,0,.553-.138.81.81,0,0,0,.277-.415,9.025,9.025,0,0,0,.652-2.016q.376-1.542.771-3.321h.514Zm-8.46-28.74H192.947v5.139h16.841Zm0,11.662V11.242H192.947v5.337Zm-16.841,1.107V23.1h16.841V17.686Z" transform="translate(127.523 48.184)" fill="#9f7f8e"/>
  <path id="パス_90" data-name="パス 90" d="M15.022,18.832A26.512,26.512,0,0,1,12.585,20.5,24.052,24.052,0,0,0,10.2,21.536c-.374.089-.747.142-1.121.249-.463.463-.765.089-1.014.427a.379.379,0,0,0-.213-.053,1.263,1.263,0,0,0-.64.231c-1.014.213-2.259.178-3.327.338A1.281,1.281,0,0,0,3.1,22.55,3.463,3.463,0,0,1,1.235,19.74a13.434,13.434,0,0,0,.338-1.975,1.18,1.18,0,0,0,.32-.872c0-.231.409-.267.285-.569.3-.089.463-1.459.729-1.459.178,0,.16-.2.2-.338h.053c.16,0,.213-.125.213-.338a16.9,16.9,0,0,1,1.37-1.619c.48-.551,1.156-.961,1.619-1.548.356-.036.391-.391.676-.516.516-.338,1-.8,1.548-1.1,0-.213.3-.142.427-.249a3.876,3.876,0,0,0,1.014-.783.264.264,0,0,0,.107.018c.231,0,.213-.213.409-.267.285,0,.374-.2.64-.2a1.065,1.065,0,0,1,.213.036c.178-.107.249-.338.516-.356.32-.071.712-.071,1.014-.16.6.427,1.459.16,1.459,1.53a4.336,4.336,0,0,1-.089.854c-.285.213-.356.6-.676.765,0,.516-.48.5-.516.943a8.493,8.493,0,0,0-1.459,1.53c-.338.2-.783.3-.783.818,0,.213.3.231.463.231a1.013,1.013,0,0,0,.925-.534h.036a.2.2,0,0,0,.213-.16,5.646,5.646,0,0,0,1.21-1.281c.089-.249.356-.32.427-.6.285-.391.551-.8.854-1.192a6,6,0,0,0,.16-1.459V8.461c-.338-.249-.142-1-.676-1.441a6.541,6.541,0,0,0-1.227-.338,3.68,3.68,0,0,0-.391.071,6.281,6.281,0,0,0-1.21.178c-.142.053-.178.178-.338.178h-.142c-.071,0-.125,0-.125.071a.16.16,0,0,0,.018.089,13.736,13.736,0,0,0-1.281.516c-.783.445-1.53.925-2.313,1.37a6.819,6.819,0,0,1-1.1.854,8.459,8.459,0,0,0-.694.676c-.089.107-.338.142-.338.2,0,.018.018.071.018.107,0,.089-.213.089-.267.125a1.715,1.715,0,0,0-.427.6c-.48.142-.623.623-1.032.854-.249.516-.712.818-.943,1.352A12.4,12.4,0,0,0,.968,17.694c0,.018-.16.125-.16.16a11.394,11.394,0,0,0-.178,2.74,4.815,4.815,0,0,0,1.121,2.135,2.521,2.521,0,0,1,.765.516,9.138,9.138,0,0,0,2.153.267,21.734,21.734,0,0,0,4.412-.783c.231-.036.213-.338.48-.338.32,0,.569-.213.889-.267.569,0,.6-.427,1.37-.427.053-.285.534-.142.6-.427.107-.16,1.477-.463,1.477-.623s.32.071.338-.107V20.5a8.084,8.084,0,0,0,1.868-1.761,2.376,2.376,0,0,0,.338-1.548A8.958,8.958,0,0,1,15.022,18.832Zm2.437-1.067a4.115,4.115,0,0,0-.587,1.067c-.053.107-.018.231-.089.338-.036.071-.213.107-.249.178a6.214,6.214,0,0,0-.267.6,3.514,3.514,0,0,0,.178,1.619,4.648,4.648,0,0,0,1.886.089,9.481,9.481,0,0,0,2.046-1.281c.213-.231.142-.391.356-.427-.053-.16.391-.409.5-.516a5.256,5.256,0,0,0,1.032-1.53c0-.018.036-.053.32-.16.267-.107.089-.018.374-.125.142-.053.213-.071.249-.089a1.953,1.953,0,0,0,.427-.747,1.284,1.284,0,0,0-.729.036c-.249.089-.018.018-.267.071-.142.036-.231,0-.249-.036a3.647,3.647,0,0,0-.213-.925c.018-.5-.587-.729-.872-.943a7.152,7.152,0,0,0-1.352.338,7.271,7.271,0,0,1-.694.783c-.463.142-.676.516-1.192.587a4.426,4.426,0,0,0-.427.338A3.981,3.981,0,0,1,17.459,17.765ZM20.8,16.111a3.311,3.311,0,0,1,.6.071c.16.213.053.694.089,1.032a3.413,3.413,0,0,1-1.548.249c.036-.16-.071-.3-.089-.16-.231-.178.2-.427.249-.6a.8.8,0,0,0,.6-.338C20.679,16.217,20.786,16.217,20.8,16.111Zm-2.135,1.708c.285.071.445.285.676.427.231,0,.48-.036.6.071a2.994,2.994,0,0,0,1.21-.231c0,.285-.142.285-.267.5a2.717,2.717,0,0,0-.587.516,5.3,5.3,0,0,0-.516.587c-.338.053-.5.356-.765.516-.107.053-.107.018-.178.089a3.469,3.469,0,0,1-.854.427h-.872c-.071-.445.178-.569.178-.943.338-.374.587-.925.943-1.37.089-.125.125-.32.338-.338C18.544,17.925,18.651,17.925,18.669,17.818Zm16.954,1.21c.018-.071.3-.178.463-.178.267-.018.463-.356.374-1.192a2.314,2.314,0,0,0-1.121.48c-.125.053-.374.267-.516.32a2.56,2.56,0,0,1-.445.391,1.806,1.806,0,0,1-.64.32,7.39,7.39,0,0,1-1.975.872c-.2.053-.2.142-.427.16-.142.125-.427,0-.6.071-.2-.018-.374.409-.516.178.178-.107.089-.48.338-.516a2.851,2.851,0,0,0,.356-.6,5.643,5.643,0,0,0,1.032-1.672c.231-.053.178-.391.427-.427-.018-.338.374-.267.338-.6a1.01,1.01,0,0,0,.427-1.281c-.427-.231-1.156.125-1.459.267a13.541,13.541,0,0,1-1.459.854c-.089.053-.178.2-.267.249a4.2,4.2,0,0,1-.676.427c-.16.089-.231.231-.427.178-.089.213-.338.285-.427.516-.231-.071-.125.16-.285.16-.125-.036-.213.338-.267.089h.089c0-.089.125-.125,0-.178.213-.356.516-1.921.213-2.206-.427-.071-.623-.107-.747.2-.089.213-.409,1.708-.48,2.01a21.915,21.915,0,0,1-1.21,2.117,2.435,2.435,0,0,1-.516.676c-.142.267-.374.427-.338.854.231.32.338.036.783.089.2-.125.338-.3.516-.427.267-.053.231-.409.516-.427.374-.267.5-.729.889-.978a3.03,3.03,0,0,1,.534-.534,13.054,13.054,0,0,1,2.793-1.886c-.213.391-.765,1.441-.943,1.69a.843.843,0,0,1-.178.178c-.018.018.018.142,0,.16-.071.107-.2.178-.249.267a2.927,2.927,0,0,0-.178.338c-.036.071-.142.036-.16.089-.071.107,0,.178-.089.249-.036.018.018.142,0,.178a1.853,1.853,0,0,0-.267,1.014c.391.409,1.05.2,1.548.178.694-.427,1.512-.48,2.17-.943.32-.249.48-.178.783-.445.48-.213.551-.356.854-.463A7.362,7.362,0,0,0,35.622,19.028Zm15.121-1.352a6.147,6.147,0,0,1-1.032.818c-.516.125-.427.285-.943.445-.3.338-.285.178-.676.445a5.007,5.007,0,0,0-1.334.783,4.039,4.039,0,0,0-.889.3c-.427.213-.747.018-1.192.285h-.125c-.409,0-.569.3-1.014.3a.317.317,0,0,1-.3-.142c.071-.747.623-1.014.676-1.8a3.542,3.542,0,0,0,.765-.925.226.226,0,0,0,.107.018c.445,0,.836-1.014,1.441-1.334.053-.48.765-.534.765-.943a.226.226,0,0,0,.107.018c.267,0,1.245-1.192,1.761-1.637.409-.8,1.174-1.227,1.37-2.224.3-.053.569-.64.765-.943a3.019,3.019,0,0,0,.6-1.192c.2-.053.231-.285.427-.338.036-.712.6-.765.6-1.405,0-.089-.089-.071-.089-.16V8a.5.5,0,0,0-.356-.089h-.249c-.2.48-.729.623-1.1.943a3.765,3.765,0,0,0-.516.854h-.071c-.2,0-.178.231-.356.249v.053c0,.249-.249.231-.338.374-.107.409-.445.587-.694.854-.3.694-.925,1.067-1.281,1.708a32.976,32.976,0,0,1-2.562,3.273,4.811,4.811,0,0,0-1.868-.587c-.356.089-.8.107-1.192.16-.142.178-.5.16-.694.267-.3.16-.658.231-1.1.427-.089.2-.338.16-.516.249-.125.071-.213.267-.409.267a.226.226,0,0,1-.107-.018c-.178.338-.569.463-.765.783-.765.249-1.245,1.405-1.886,2.046a11.517,11.517,0,0,0-.267,1.477,1.787,1.787,0,0,0,.445.818H37.6a7.271,7.271,0,0,1,1.477-.267c.249-.3.623-.374.943-.6a11.223,11.223,0,0,1,1.121-.6c.231-.3.712-.356.925-.676a.107.107,0,0,0,.071.018c.231,0,.338-.374.48-.374.036,0,.036-.213.071-.213.071,0,.231-.249.32-.249.018,0,.036.018.053.071a5.17,5.17,0,0,0-.747,2.01c0,.676.32.712.8.712a3.126,3.126,0,0,0,1.565-.285c.356,0,.374-.125.587-.178.409-.089.747-.213,1.139-.267a5.356,5.356,0,0,1,.961-.48,7.032,7.032,0,0,0,1.245-.712c.32-.231.694-.231.889-.569a2.742,2.742,0,0,0,.64-.445c.356-.2.374-.534.818-.818C50.761,17.978,50.957,17.943,50.744,17.676Zm0-7.383a.133.133,0,0,1,.018.089c0,.445-1.405,1.9-1.405,2.1,0,.267-.16.285-.16.338,0,.036.018.089.018.107,0,.053-.818.8-1.121,1.21a10.838,10.838,0,0,1-1.192,1.21q-.107-.053-.107-.107c0-.267.374-.409.374-.623a.347.347,0,0,0-.018-.125,1.755,1.755,0,0,0,.516-.267c.071-.356.427-.445.427-.854a.8.8,0,0,0,.587-.64.038.038,0,0,1,.036-.036h.053c.213,0,.2-.48.356-.48-.053,0,.374-.409.427-.463.142-.16.213-.356.338-.516C50.157,10.916,50.477,10.631,50.744,10.293ZM44.25,17.142c0,.285-.729.889-1.014.961a.193.193,0,0,1,.018.089c0-.089-.32.356-.569.356-.018,0-.036-.018-.053-.018-.747.872-2.01,1.227-2.9,1.957a2.1,2.1,0,0,0-.943.427,2.47,2.47,0,0,0-.943.338.359.359,0,0,0-.2-.053c-.125,0-.285.053-.427.053-.125,0-.231,0-.231-.213a2.35,2.35,0,0,1,.427-1.139,9.425,9.425,0,0,1,2.9-2.562,2.64,2.64,0,0,1,1.21-.516c.053-.018.053-.089.071-.089a4.324,4.324,0,0,1,1.423-.249h.213c.231,0,.089-.018.089.125,0,.089.409-.036.409.125A.565.565,0,0,1,44.25,17.142Zm7.881.623a4.116,4.116,0,0,0-.587,1.067c-.053.107-.018.231-.089.338-.036.071-.213.107-.249.178a6.214,6.214,0,0,0-.267.6,3.514,3.514,0,0,0,.178,1.619A4.648,4.648,0,0,0,53,21.661a9.481,9.481,0,0,0,2.046-1.281c.213-.231.142-.391.356-.427-.053-.16.391-.409.5-.516a5.257,5.257,0,0,0,1.032-1.53c0-.018.036-.053.32-.16.267-.107.089-.018.374-.125.142-.053.213-.071.249-.089a1.953,1.953,0,0,0,.427-.747,1.284,1.284,0,0,0-.729.036c-.249.089-.018.018-.267.071-.142.036-.231,0-.249-.036a3.647,3.647,0,0,0-.213-.925c.018-.5-.587-.729-.872-.943a7.152,7.152,0,0,0-1.352.338,7.27,7.27,0,0,1-.694.783c-.463.142-.676.516-1.192.587a4.426,4.426,0,0,0-.427.338A3.981,3.981,0,0,1,52.131,17.765Zm3.344-1.654a3.311,3.311,0,0,1,.6.071c.16.213.053.694.089,1.032a3.413,3.413,0,0,1-1.548.249c.036-.16-.071-.3-.089-.16-.231-.178.2-.427.249-.6a.8.8,0,0,0,.6-.338C55.351,16.217,55.458,16.217,55.476,16.111Zm-2.135,1.708c.285.071.445.285.676.427.231,0,.48-.036.6.071a2.994,2.994,0,0,0,1.21-.231c0,.285-.142.285-.267.5a2.717,2.717,0,0,0-.587.516,5.3,5.3,0,0,0-.516.587c-.338.053-.5.356-.765.516-.107.053-.107.018-.178.089a3.468,3.468,0,0,1-.854.427h-.872c-.071-.445.178-.569.178-.943.338-.374.587-.925.943-1.37.089-.125.125-.32.338-.338C53.216,17.925,53.323,17.925,53.341,17.818Zm22.308.978c.249-1.832-1.121-.213-1.6.178-.516.16-.391.409-.836.658a5.627,5.627,0,0,1-.765.356c-.142.053-.32.053-.427.16-.178-.018-.178.125-.267.178-.6.036-1.05.64-1.708.338a2.778,2.778,0,0,1,.338-1.37c.267-.872.889-1.388,1.121-2.295.374-.463.658-1.53,0-1.886-.623.231-.961.747-1.619.943-.249.48-.818.6-1.121,1.032-.213.142-.48.249-.587.5a.491.491,0,0,0-.267.267c-.107-.018-.32.285-.338.089.089-.8.534-1.85-.089-2.4-.783.089-1.1.658-1.868.765-.16.3-.534.391-.783.6a5.723,5.723,0,0,1-.854.516,1.289,1.289,0,0,1-.765.587c-.018.213-.267.2-.338.356-.2-.089-.374.285-.427.071,0-.391.267-.64.231-.889a2.193,2.193,0,0,1,.2-.6c0-.2.089-.409.089-.6.5-.48.925-1.939.089-2.224h-.178c0,.107-.142.071-.16.16-.178.178-.125.569-.427.6.018.356-.427.267-.356.676-.071.32.427.036.267.427-.213.836-.356,1.067-.463,1.565a1.594,1.594,0,0,1-.231.551c-.16.427-.445.747-.587,1.192-.391.587-.534,1.459-.943,1.886a.458.458,0,0,0-.178.338,1.337,1.337,0,0,1,0,.267c.249.32.64,0,1.121.071.125-.249.427-.356.5-.676.178-.018.178-.231.267-.338.071-.089.267-.178.249-.338a5.492,5.492,0,0,0,1.192-1.21c.48-.036.516-.516.943-.587a2.352,2.352,0,0,1,.854-.765,2.67,2.67,0,0,1,.854-.694c.267-.178.658-.623,1.032-.427-.089.48-.267.872-.338,1.37-.285.3-.374.836-.694,1.1a6.353,6.353,0,0,1-.587,1.21c-.213.071-.231.338-.267.587-.3.178-.053.356,0,.6.427.053.463-.285.943-.178a8.825,8.825,0,0,0,1.1-1.441,4.574,4.574,0,0,0,.694-.6,17.843,17.843,0,0,1,1.868-1.957c.356-.267.534-.676,1.032-.694a1.806,1.806,0,0,1-.338.694,4.793,4.793,0,0,0-.338.676,1,1,0,0,0-.267.765c-.249-.089-.142.2-.16.338-.178.036-.089.32-.267.356-.071.6-.374,1.441.089,1.868.8.427,1.815-.089,2.562-.249.854-.231.943-.623,1.815-.836C74.244,20.22,75.151,19.1,75.649,18.8ZM80.9,19.971c.142-.16.427-.249.551-.427.8-.409,1.121-.943.925-1.494-.445.036-.8.356-1.174.463-.3.178-.3.427-.658.569-.463.267-.889.463-1.352.712a4.183,4.183,0,0,1-1.619.587c-.231.2-.765.5-1.121.267.071-.534.551-.658.765-1.032.391-.249.8-1.121,1.245-1.3.338-.249.427-.783.872-.943.142-.48.676-.569.765-1.1-.2-.125-.071-.551-.427-.516-.32-.089-.267.178-.427.249a4.114,4.114,0,0,1-.427.356c-.071.178-.32.178-.338.427-.178.071-.374.142-.427.338-.587.427-1.21,1.512-1.761,1.975A4.708,4.708,0,0,0,75.4,20.38a1.344,1.344,0,0,0-.053.783c-.018.285.285.267.338.5.374-.089.836,0,1.281-.071.036-.018.213-.16.249-.178.178-.053.338.107.427-.089.463-.2,1.032-.285,1.459-.516.018-.107.569-.374.6-.249C79.9,20.184,80.666,20.238,80.9,19.971Zm1.53-8.13c.285.142.889.3,1.121,0a3.407,3.407,0,0,0-.267-1.281C82.409,10.4,82.409,11.112,82.427,11.841Zm10.5,7.187c.018-.071.3-.178.463-.178.267-.018.463-.356.374-1.192a2.314,2.314,0,0,0-1.121.48c-.125.053-.374.267-.516.32a2.559,2.559,0,0,1-.445.391,1.806,1.806,0,0,1-.64.32,7.39,7.39,0,0,1-1.975.872c-.2.053-.2.142-.427.16-.142.125-.427,0-.6.071-.2-.018-.374.409-.516.178.178-.107.089-.48.338-.516a2.851,2.851,0,0,0,.356-.6,5.643,5.643,0,0,0,1.032-1.672c.231-.053.178-.391.427-.427-.018-.338.374-.267.338-.6a1.01,1.01,0,0,0,.427-1.281c-.427-.231-1.156.125-1.459.267a13.542,13.542,0,0,1-1.459.854c-.089.053-.178.2-.267.249a4.2,4.2,0,0,1-.676.427c-.16.089-.231.231-.427.178-.089.213-.338.285-.427.516-.231-.071-.125.16-.285.16-.125-.036-.213.338-.267.089h.089c0-.089.125-.125,0-.178.213-.356.516-1.921.213-2.206-.427-.071-.623-.107-.747.2-.089.213-.409,1.708-.48,2.01a21.915,21.915,0,0,1-1.21,2.117,2.435,2.435,0,0,1-.516.676c-.142.267-.374.427-.338.854.231.32.338.036.783.089.2-.125.338-.3.516-.427.267-.053.231-.409.516-.427.374-.267.5-.729.889-.978a3.031,3.031,0,0,1,.534-.534,13.053,13.053,0,0,1,2.793-1.886c-.213.391-.765,1.441-.943,1.69a.844.844,0,0,1-.178.178c-.018.018.018.142,0,.16-.071.107-.2.178-.249.267a2.925,2.925,0,0,0-.178.338c-.036.071-.142.036-.16.089-.071.107,0,.178-.089.249-.036.018.018.142,0,.178a1.853,1.853,0,0,0-.267,1.014c.391.409,1.05.2,1.548.178.694-.427,1.512-.48,2.17-.943.32-.249.48-.178.783-.445.48-.213.551-.356.854-.463A7.362,7.362,0,0,0,92.923,19.028Zm6.173.943c.142-.16.427-.249.551-.427.8-.409,1.121-.943.925-1.494-.445.036-.8.356-1.174.463-.3.178-.3.427-.658.569-.463.267-.889.463-1.352.712a4.183,4.183,0,0,1-1.619.587c-.231.2-.765.5-1.121.267.071-.534.551-.658.765-1.032.391-.249.8-1.121,1.245-1.3.338-.249.427-.783.872-.943.142-.48.676-.569.765-1.1-.2-.125-.071-.551-.427-.516-.32-.089-.267.178-.427.249a4.115,4.115,0,0,1-.427.356c-.071.178-.32.178-.338.427-.178.071-.374.142-.427.338-.587.427-1.21,1.512-1.761,1.975A4.709,4.709,0,0,0,93.6,20.38a1.344,1.344,0,0,0-.053.783c-.018.285.285.267.338.5.374-.089.836,0,1.281-.071.036-.018.213-.16.249-.178.178-.053.338.107.427-.089.463-.2,1.032-.285,1.459-.516.018-.107.569-.374.6-.249C98.1,20.184,98.865,20.238,99.1,19.971Zm1.53-8.13c.285.142.889.3,1.121,0a3.407,3.407,0,0,0-.267-1.281C100.608,10.4,100.608,11.112,100.626,11.841Zm9.411,7.489a6.777,6.777,0,0,1-2.366,1.21,1.491,1.491,0,0,1-.925-.178c.142-.729,1.281-1.637,1.726-2.081s.854-.961,1.281-1.441c.089-.16.16-.213.16-.356.018-.089.053-.036.089-.071.125-.2.2-.818-.16-.854-.125-.249-.427.018-.516.071a.989.989,0,0,1-.427.427c-.142.125-.338.178-.338.427-.267.089-.356.338-.516.516a14.119,14.119,0,0,0-1.9,2.242,5.022,5.022,0,0,0-1.1.694c-.409.231-.818.409-1.21.676-.729.142-1.423.729-2.295.427-.142-.765.445-.872.551-1.405a9.495,9.495,0,0,0,1.21-1.548c.2-.178.516-.427.569-.747.409-.374.925-.623.854-1.441-.2-.125-.285-.356-.676-.267-.267-.036-.249.213-.338.338-.036.213-.943.961-.907,1.227a32.27,32.27,0,0,0-2.028,2.811c-.125.32-.16.712-.267,1.032.213.267.231.747.6.854a1.637,1.637,0,0,0,.943.089c.125-.018.285.018.427,0,.712-.125,1.405-.551,2.046-.694a2.324,2.324,0,0,1,1.1-.676c.142.267.249.551.516.676.391,0,.8.178,1.192.178a2.45,2.45,0,0,1,.694-.16,8.508,8.508,0,0,0,2.01-1.05c.053.018,1.174-.729,1.174-.729a5.7,5.7,0,0,0-.3-.765C110.855,18.8,110.3,19.117,110.037,19.331Zm17.47-.534c.249-1.832-1.121-.213-1.6.178-.516.16-.391.409-.836.658a5.627,5.627,0,0,1-.765.356c-.142.053-.32.053-.427.16-.178-.018-.178.125-.267.178-.6.036-1.05.64-1.708.338a2.778,2.778,0,0,1,.338-1.37c.267-.872.889-1.388,1.121-2.295.374-.463.658-1.53,0-1.886-.623.231-.961.747-1.619.943-.249.48-.818.6-1.121,1.032-.213.142-.48.249-.587.5a.491.491,0,0,0-.267.267c-.107-.018-.32.285-.338.089.089-.8.534-1.85-.089-2.4-.783.089-1.1.658-1.868.765-.16.3-.534.391-.783.6a5.724,5.724,0,0,1-.854.516,1.289,1.289,0,0,1-.765.587c-.018.213-.267.2-.338.356-.2-.089-.374.285-.427.071,0-.391.267-.64.231-.889a2.193,2.193,0,0,1,.2-.6c0-.2.089-.409.089-.6.5-.48.925-1.939.089-2.224h-.178c0,.107-.142.071-.16.16-.178.178-.125.569-.427.6.018.356-.427.267-.356.676-.071.32.427.036.267.427-.213.836-.356,1.067-.463,1.565a1.594,1.594,0,0,1-.231.551c-.16.427-.445.747-.587,1.192-.391.587-.534,1.459-.943,1.886a.458.458,0,0,0-.178.338,1.337,1.337,0,0,1,0,.267c.249.32.64,0,1.121.071.125-.249.427-.356.5-.676.178-.018.178-.231.267-.338.071-.089.267-.178.249-.338a5.492,5.492,0,0,0,1.192-1.21c.48-.036.516-.516.943-.587a2.352,2.352,0,0,1,.854-.765,2.67,2.67,0,0,1,.854-.694c.267-.178.658-.623,1.032-.427-.089.48-.267.872-.338,1.37-.285.3-.374.836-.694,1.1a6.353,6.353,0,0,1-.587,1.21c-.213.071-.231.338-.267.587-.3.178-.053.356,0,.6.427.053.463-.285.943-.178a8.825,8.825,0,0,0,1.1-1.441,4.575,4.575,0,0,0,.694-.6,17.84,17.84,0,0,1,1.868-1.957c.356-.267.534-.676,1.032-.694a1.806,1.806,0,0,1-.338.694,4.794,4.794,0,0,0-.338.676,1,1,0,0,0-.267.765c-.249-.089-.142.2-.16.338-.178.036-.089.32-.267.356-.071.6-.374,1.441.089,1.868.8.427,1.815-.089,2.562-.249.854-.231.943-.623,1.815-.836C126.1,20.22,127.008,19.1,127.506,18.8Zm17.043-8.575c-.125.142-.071.338-.267.427a4.607,4.607,0,0,0-2.33.925c-.089.053-.2.036-.267.089-.178.142-.338.391-.5.516a3.255,3.255,0,0,0-1.37,1.192.81.81,0,0,1-.516.338.643.643,0,0,1-.427.516.612.612,0,0,1-.338.516c-.463.48-.676,1.192-1.192,1.619v.071c0,.463-.445.836-.445,1.032,0,.036.018.089.018.142,0,.071-.178.267-.178.32v.107c0,.107-.16.053-.178.125a10.488,10.488,0,0,0-.427,2.562c.053.16.178.249.178.48v.107a9.673,9.673,0,0,0,.854.854c.587.053.925.338,1.53.356a2.181,2.181,0,0,0,1.21-.267h.2a1.511,1.511,0,0,0,1-.249,9.154,9.154,0,0,0,1.619-.516c.089-.036.107-.178.267-.178.071,0,.16.018.249.018a.193.193,0,0,0,.089-.018c.267-.463.978-.5,1.352-.854a6.608,6.608,0,0,1,1.548-.765c.16-.32.5-.374.676-.516-.142.071.516-.356.516-.48a.51.51,0,0,1,.2-.107h.053c.142,0,.053-.249.178-.267a.442.442,0,0,0,.142.018c.285,0,.267-.32.534-.356.231-.107.3-.391.6-.427.053-.32.338-.463.516-.676.178-.231.32-.463.516-.694a9.233,9.233,0,0,0,.445-2.491,5.478,5.478,0,0,0-.071-.907c-.142-.213-.356-.356-.356-.694v-.071a1.034,1.034,0,0,1-.338-.694v-.089c-.249-.107-.356-.374-.516-.587-.3-.374-.6-.694-.925-1.032-.676-.036-1.227-.16-1.921-.16-.125,0-.391-.018-.391.053v.018A2.372,2.372,0,0,0,144.549,10.222Zm2.9.249a1.288,1.288,0,0,1,.765.178c0,.676-.445.8-.445,1.139,0,.071,0,.16.107.16.142,0,0-.285.142-.285.765,0,.516-.267.925-.267a7.306,7.306,0,0,1,1.032,3.006c-.178.5-.463,1.726-.712,1.726-.018,0-.036-.018-.053-.018V16.2c0,.142-.036.231-.178.249-.231.107-.249.427-.427.587a1.738,1.738,0,0,0-.765.6,10.922,10.922,0,0,0-1.708,1.192c-.178.125-.427.213-.516.427-.516.018-.747.356-1.1.516a1.93,1.93,0,0,0-.943.6,10.858,10.858,0,0,0-1.619.587,9.866,9.866,0,0,1-3.2.694,1.949,1.949,0,0,1-.907-.267c-.16-.053-.285-.018-.427-.089-.071-.036-.071-.16-.2-.16h-.053c-.089-.427-.338-.676-.338-1.21a.756.756,0,0,1,.249-.587c0-.036-.018-.089-.018-.125,0-.231.107-.356.107-.6v-.125c.213-.071.178-.356.249-.516a3.107,3.107,0,0,0,.694-1.37v-.071a1.386,1.386,0,0,0,.587-.943c.374-.125.48-.5.694-.783.249-.213.569-.391.676-.765.427-.053.427-.534.854-.587.053-.409.551-.356.6-.783a2.094,2.094,0,0,0,1.014-.5c.071-.036.036-.178.125-.178h.107a2.76,2.76,0,0,0,1.263-.676c.765,0,1.085-.374,1.8-.427a1.379,1.379,0,0,0,.587-.338A9.286,9.286,0,0,1,147.449,10.471Zm18.074,6.066a43.3,43.3,0,0,1-4.5,1.992.192.192,0,0,1-.125-.053,9.262,9.262,0,0,0,.249-1.868v-.178l-.089-.16c0-.213.089-.409.089-.623v-.071a.349.349,0,0,1-.089-.338c-.356-.391-.623-.783-1.192-.783-.623,0-3.771,1.832-3.932,2.313a14.043,14.043,0,0,0-2.722,2.313,21.094,21.094,0,0,1-1.548,1.53c-.249.694-2.846,3.647-2.633,4.2a3.489,3.489,0,0,0-.783,1.53c-.231.036-.2.374-.427.427l.018.16c0,.2-.178.32-.178.516-.213.107-.053.48-.249.6a7.692,7.692,0,0,1-.445,1.37c.018.409-.107,1.21.178,1.53h.071c1,0,2.864-3.131,3.344-3.932.213-.374.534-.658.765-1.014a.253.253,0,0,1,.178-.267,19.588,19.588,0,0,1,2.135-2.989c-.018-.249.231-.32.16-.587.391-.125,1.708-2.188,2.135-2.651a6.446,6.446,0,0,0,.943,1.53,3.33,3.33,0,0,0,.943.089h.6c.053-.2.5-.053.534-.267a2.369,2.369,0,0,1,.5-.178,16.788,16.788,0,0,1,1.583-.907,1.431,1.431,0,0,1,.765-.427c.036-.107,2.989-1.494,3.238-1.6.018,0,1.1-1.174,1.067-1.174Zm-6.084-1.21a1.881,1.881,0,0,1,.694.16,2.517,2.517,0,0,1,.214,1.085,4.874,4.874,0,0,1-.783,2.668c-.142.053-.463.142-.445.338-.534,0-1.05.3-1.512.3-.623,0-.747-.712-1.156-.978a1.164,1.164,0,0,1,.3-.587,6.9,6.9,0,0,0,.836-1.708,2.225,2.225,0,0,0,.658-.694c.409.018.516-.391.943-.338.036-.089.142-.142.16-.249ZM155.6,17.8c.089-.018.107,0,.107.053a5.074,5.074,0,0,1-.872,1.565c-.071.3-.409.427-.427.765a14.768,14.768,0,0,0-1.957,2.562v.178h-.178c-.107.16-.071.356-.178.516a.342.342,0,0,0-.249.338c-.338.534-.783,1-1.1,1.53-.231-.018-.107.249-.178.356l-.178.071c-.142.231-.374.551-.5.783v.16c-.338.267-.409.783-.783,1.032a1.123,1.123,0,0,1-.5.676c-.107.249-.213.534-.516.6a.257.257,0,0,0,.036-.125c0-.107-.125-.2-.125-.32,0-.036.053-.053.089-.071.053-.178.249-.16.16-.427a2.34,2.34,0,0,0,.267-1.032c.2-.231.249-.587.516-.765v-.427c.32-.285.356-.729.676-1.014.036-.5.48-.676.6-1.121.107-.142,1.334-1.921,1.352-1.957.338-.107.551-.818.854-.854,0-.285.3-.285.356-.516.178-.071.107-.409.338-.427.356-.213.48-.658.854-.854.213-.338.658-.445.765-.854.249,0,.338-.2.516-.338A.425.425,0,0,0,155.6,17.8Zm14.374,2.17c.142-.16.427-.249.551-.427.8-.409,1.121-.943.925-1.494-.445.036-.8.356-1.174.463-.3.178-.3.427-.658.569-.463.267-.889.463-1.352.712a4.183,4.183,0,0,1-1.619.587c-.231.2-.765.5-1.121.267.071-.534.551-.658.765-1.032.391-.249.8-1.121,1.245-1.3.338-.249.427-.783.872-.943.142-.48.676-.569.765-1.1-.2-.125-.071-.551-.427-.516-.32-.089-.267.178-.427.249a4.112,4.112,0,0,1-.427.356c-.071.178-.32.178-.338.427-.178.071-.374.142-.427.338-.587.427-1.21,1.512-1.761,1.975a4.709,4.709,0,0,0-.889,1.281,1.344,1.344,0,0,0-.053.783c-.018.285.285.267.338.5.374-.089.836,0,1.281-.071.036-.018.213-.16.249-.178.178-.053.338.107.427-.089.463-.2,1.032-.285,1.459-.516.018-.107.569-.374.6-.249C168.974,20.184,169.739,20.238,169.971,19.971Zm1.53-8.13c.285.142.889.3,1.121,0a3.408,3.408,0,0,0-.267-1.281C171.483,10.4,171.483,11.112,171.5,11.841ZM182,19.028c.018-.071.3-.178.463-.178.267-.018.463-.356.374-1.192a2.314,2.314,0,0,0-1.121.48c-.125.053-.374.267-.516.32a2.559,2.559,0,0,1-.445.391,1.806,1.806,0,0,1-.64.32,7.39,7.39,0,0,1-1.975.872c-.2.053-.2.142-.427.16-.142.125-.427,0-.6.071-.2-.018-.374.409-.516.178.178-.107.089-.48.338-.516a2.852,2.852,0,0,0,.356-.6,5.642,5.642,0,0,0,1.032-1.672c.231-.053.178-.391.427-.427-.018-.338.374-.267.338-.6a1.01,1.01,0,0,0,.427-1.281c-.427-.231-1.156.125-1.459.267a13.539,13.539,0,0,1-1.459.854c-.089.053-.178.2-.267.249a4.205,4.205,0,0,1-.676.427c-.16.089-.231.231-.427.178-.089.213-.338.285-.427.516-.231-.071-.125.16-.285.16-.125-.036-.213.338-.267.089h.089c0-.089.125-.125,0-.178.213-.356.516-1.921.213-2.206-.427-.071-.623-.107-.747.2-.089.213-.409,1.708-.48,2.01a21.915,21.915,0,0,1-1.21,2.117,2.435,2.435,0,0,1-.516.676c-.142.267-.374.427-.338.854.231.32.338.036.783.089.2-.125.338-.3.516-.427.267-.053.231-.409.516-.427.374-.267.5-.729.889-.978a3.031,3.031,0,0,1,.534-.534,13.053,13.053,0,0,1,2.793-1.886c-.213.391-.765,1.441-.943,1.69a.843.843,0,0,1-.178.178c-.018.018.018.142,0,.16-.071.107-.2.178-.249.267a2.924,2.924,0,0,0-.178.338c-.036.071-.142.036-.16.089-.071.107,0,.178-.089.249-.036.018.018.142,0,.178a1.854,1.854,0,0,0-.267,1.014c.391.409,1.05.2,1.548.178.694-.427,1.512-.48,2.17-.943.32-.249.48-.178.783-.445.48-.213.551-.356.854-.463A7.362,7.362,0,0,0,182,19.028Zm6.173.943c.142-.16.427-.249.551-.427.8-.409,1.121-.943.925-1.494-.445.036-.8.356-1.174.463-.3.178-.3.427-.658.569-.463.267-.889.463-1.352.712a4.183,4.183,0,0,1-1.619.587c-.231.2-.765.5-1.121.267.071-.534.551-.658.765-1.032.391-.249.8-1.121,1.245-1.3.338-.249.427-.783.872-.943.142-.48.676-.569.765-1.1-.2-.125-.071-.551-.427-.516-.32-.089-.267.178-.427.249a4.113,4.113,0,0,1-.427.356c-.071.178-.32.178-.338.427-.178.071-.374.142-.427.338-.587.427-1.21,1.512-1.761,1.975a4.709,4.709,0,0,0-.89,1.281,1.345,1.345,0,0,0-.053.783c-.018.285.285.267.338.5.374-.089.836,0,1.281-.071.036-.018.213-.16.249-.178.178-.053.338.107.427-.089.463-.2,1.032-.285,1.459-.516.018-.107.569-.374.6-.249C187.173,20.184,187.938,20.238,188.169,19.971Zm1.53-8.13c.285.142.889.3,1.121,0a3.408,3.408,0,0,0-.267-1.281C189.682,10.4,189.682,11.112,189.7,11.841Zm1.726,5.924a4.115,4.115,0,0,0-.587,1.067c-.053.107-.018.231-.089.338-.036.071-.213.107-.249.178a6.214,6.214,0,0,0-.267.6,3.514,3.514,0,0,0,.178,1.619,4.648,4.648,0,0,0,1.886.089,9.481,9.481,0,0,0,2.046-1.281c.213-.231.142-.391.356-.427-.053-.16.391-.409.5-.516a5.256,5.256,0,0,0,1.032-1.53c0-.018.036-.053.32-.16.267-.107.089-.018.374-.125.142-.053.213-.071.249-.089a1.953,1.953,0,0,0,.427-.747,1.284,1.284,0,0,0-.729.036c-.249.089-.018.018-.267.071-.142.036-.231,0-.249-.036a3.647,3.647,0,0,0-.213-.925c.018-.5-.587-.729-.872-.943a7.151,7.151,0,0,0-1.352.338,7.27,7.27,0,0,1-.694.783c-.463.142-.676.516-1.192.587a4.43,4.43,0,0,0-.427.338A3.982,3.982,0,0,1,191.425,17.765Zm3.344-1.654a3.311,3.311,0,0,1,.6.071c.16.213.053.694.089,1.032a3.413,3.413,0,0,1-1.548.249c.036-.16-.071-.3-.089-.16-.231-.178.2-.427.249-.6a.8.8,0,0,0,.6-.338C194.645,16.217,194.752,16.217,194.769,16.111Zm-2.135,1.708c.285.071.445.285.676.427.231,0,.48-.036.6.071a2.994,2.994,0,0,0,1.21-.231c0,.285-.142.285-.267.5a2.717,2.717,0,0,0-.587.516,5.3,5.3,0,0,0-.516.587c-.338.053-.5.356-.765.516-.107.053-.107.018-.178.089a3.468,3.468,0,0,1-.854.427h-.872c-.071-.445.178-.569.178-.943.338-.374.587-.925.943-1.37.089-.125.125-.32.338-.338C192.51,17.925,192.617,17.925,192.635,17.818Zm16.954,1.21c.018-.071.3-.178.463-.178.267-.018.463-.356.374-1.192a2.314,2.314,0,0,0-1.121.48c-.125.053-.374.267-.516.32a2.559,2.559,0,0,1-.445.391,1.806,1.806,0,0,1-.64.32,7.39,7.39,0,0,1-1.975.872c-.2.053-.2.142-.427.16-.142.125-.427,0-.6.071-.2-.018-.374.409-.516.178.178-.107.089-.48.338-.516a2.852,2.852,0,0,0,.356-.6,5.642,5.642,0,0,0,1.032-1.672c.231-.053.178-.391.427-.427-.018-.338.374-.267.338-.6a1.01,1.01,0,0,0,.427-1.281c-.427-.231-1.156.125-1.459.267a13.539,13.539,0,0,1-1.459.854c-.089.053-.178.2-.267.249a4.2,4.2,0,0,1-.676.427c-.16.089-.231.231-.427.178-.089.213-.338.285-.427.516-.231-.071-.125.16-.285.16-.125-.036-.213.338-.267.089h.089c0-.089.125-.125,0-.178.213-.356.516-1.921.213-2.206-.427-.071-.623-.107-.747.2-.089.213-.409,1.708-.48,2.01a21.915,21.915,0,0,1-1.21,2.117,2.435,2.435,0,0,1-.516.676c-.142.267-.374.427-.338.854.231.32.338.036.783.089.2-.125.338-.3.516-.427.267-.053.231-.409.516-.427.374-.267.5-.729.889-.978a3.031,3.031,0,0,1,.534-.534,13.053,13.053,0,0,1,2.793-1.886c-.213.391-.765,1.441-.943,1.69a.843.843,0,0,1-.178.178c-.018.018.018.142,0,.16-.071.107-.2.178-.249.267a2.924,2.924,0,0,0-.178.338c-.036.071-.142.036-.16.089-.071.107,0,.178-.089.249-.036.018.018.142,0,.178a1.854,1.854,0,0,0-.267,1.014c.391.409,1.05.2,1.548.178.694-.427,1.512-.48,2.17-.943.32-.249.48-.178.783-.445.48-.213.551-.356.854-.463A7.362,7.362,0,0,0,209.588,19.028Z" transform="translate(127.543 9.576)" fill="#9f7f8e"/>
  <line id="線_23" data-name="線 23" x2="106.738" transform="translate(132.986 93.131)" fill="none" stroke="#f2e9a7" stroke-width="5"/>
  <g id="グループ_60" data-name="グループ 60" transform="translate(0 0)">
    <g id="グループ_56" data-name="グループ 56" clip-path="url(#clip-path)">
      <path id="パス_77" data-name="パス 77" d="M54.266,40.228a1.413,1.413,0,0,1,1.049-2.3,11.137,11.137,0,0,1,2.1-.34A14.55,14.55,0,0,1,63,39.131c.685.362,1.415.653,2.062,1.072a23.371,23.371,0,0,1,5.144,4.3C71.5,46,72.84,47.449,74.04,49.012c1.056,1.375,1.9,2.906,2.886,4.337a44.874,44.874,0,0,1,3.315,6.311,12.142,12.142,0,0,1,.675,1.791c.566,1.936,1.4,3.775,2.031,5.686q.913,2.749,1.608,5.559a43.972,43.972,0,0,0,2.153,5.747,32.4,32.4,0,0,1,2.39,7.014,41.955,41.955,0,0,1,.515,4.783,20.165,20.165,0,0,1-.57,4.538,11.877,11.877,0,0,1-1.993,4.909q-.392.539-.782,1.08c-.056.078-.152.161-.152.242-.007.845-.64.766-1.212.947-1.362.43-2.819.712-3.893,1.774-.425.42-1.008.563-1.459.94a11.159,11.159,0,0,0-1.358,1.337,3.466,3.466,0,0,1-1.713.971,2.249,2.249,0,0,0-1.93,2.078,13.284,13.284,0,0,1-.233,1.6c-.033.193-.106.425.062.551a12.508,12.508,0,0,0,2.549,2.014,33.564,33.564,0,0,1,5.908,2.967,6.552,6.552,0,0,0,2.482,1.324c.376.068.547.431.577.85.133,1.815.263,3.63.448,5.44a17.673,17.673,0,0,0,.7,2.758,25.512,25.512,0,0,1,.837,3.912,5.93,5.93,0,0,1,.015,1.1c-.03.371-.257.4-.522.2a1.392,1.392,0,0,1-.428-.748c-.32-1.092-.625-2.188-.927-3.285-.324-1.175-.658-2.348-.954-3.531a13.735,13.735,0,0,1-.279-3.294c0-.465-.041-.929-.054-1.391a1.306,1.306,0,0,0-.8-1.211c-1-.554-1.936-1.2-2.888-1.834a19.516,19.516,0,0,0-3.665-1.746,7.28,7.28,0,0,1-3.066-2.021c-.323-.385-.593-.293-.762.224-.619,1.9-1.093,3.837-1.622,5.76a48.179,48.179,0,0,0-1.166,7.088,4.673,4.673,0,0,1-.3,1.118c-.142.369-.336.316-.534.032a1.776,1.776,0,0,1-.166-1.238c.13-1.716.364-3.42.563-5.129.118-1.01.566-1.927.736-2.922.166-.973.6-1.882.855-2.822a16.532,16.532,0,0,0,.981-4.284.565.565,0,0,1,.109-.378c.382-.357.243-.449-.182-.623a3.5,3.5,0,0,0-1.462-.282,9.289,9.289,0,0,1-3.19-.54,1.747,1.747,0,0,1-.8-.648,6.958,6.958,0,0,0-.868-1.158c-.12-.1-.253-.2-.42-.137-.193.077-.214.258-.214.439,0,.077-.02.172.015.23.823,1.334-.032,2.37-.649,3.409-.636,1.071-1.059,2.242-1.666,3.323a.491.491,0,0,0,.16.713c.109.073.252.146.182.317a.288.288,0,0,1-.289.161c-.582-.007-.857.38-1.081.83-.4.816-.8,1.635-1.205,2.45-.423.852-.2,1.334.74,1.492a3.979,3.979,0,0,0,1.331.039c1.043-.187,1.582.426,2.052,1.177a17.086,17.086,0,0,0,2.566,3.061,3.971,3.971,0,0,1,1.434,2.8c0,.192.024.412-.23.472a.413.413,0,0,1-.478-.254c-.153-.353-.459-.623-.528-1.023a.722.722,0,0,0-.219-.4,33.4,33.4,0,0,1-3.6-3.995c-.907-1.066-2.133-.933-3.339-.767-.316.044-.449.334-.582.6a33.69,33.69,0,0,0-1.207,3.265c-.126.334-.356.66-.19,1.056a.216.216,0,0,1-.1.252A3.142,3.142,0,0,0,58,128.269a5,5,0,0,1-.477,1.119,18.512,18.512,0,0,0-1.685,4.132,21.044,21.044,0,0,1-1.51,4,8.4,8.4,0,0,1-1.1,1.462c-.161.191-.337.37-.481.578-.36.519-.613.532-.938-.025a5.6,5.6,0,0,1-.781-1.676,12.1,12.1,0,0,0-.959-2.788c-.519-1.134-.7-2.381-1.261-3.486-.248-.485-.474-1.046-1.178-1.08a.186.186,0,0,1-.12-.338c.759-.5.2-1.029.039-1.529-.5-1.589-1.413-3-1.9-4.606-.265-.872-.9-1.1-1.636-.495-.688.562-1.46,1.021-2.135,1.6a13.217,13.217,0,0,0-2.544,2.756c-.186.283-.357.478-.727.46s-.5-.246-.588-.54a32.645,32.645,0,0,0-1.184-3.521,34.73,34.73,0,0,0-1.939-3.431,1.766,1.766,0,0,0-2.482-.619c-.685.393-.726.857-.114,1.334.22.172.218.377-.039.415-.543.08-.756.507-1.026.867a2.083,2.083,0,0,1-1.058.758,20.938,20.938,0,0,0-4.246,1.719,18.222,18.222,0,0,1-1.493,1.093,3.343,3.343,0,0,1-.5.291c-1.343.351-1.888,1.438-2.426,2.553a15.861,15.861,0,0,1-1.41,2.791c-.9,1.2-1.533,2.557-2.354,3.8-.587.886-1.079,1.835-1.725,2.679-.222.29-.508.74-.936.4-.365-.292-.18-.721.079-1.042a23.1,23.1,0,0,0,1.883-2.786c1.151-1.951,2.244-3.935,3.361-5.906a1.679,1.679,0,0,0,.27-1.539.371.371,0,0,1,.248-.515A2.362,2.362,0,0,0,22,126.389a.477.477,0,0,1,.252-.138c2.129-.5,3.671-1.918,5.179-3.362a12.277,12.277,0,0,1,2.136-1.674,3.4,3.4,0,0,0,1.5-1.639,3.649,3.649,0,0,1,.332-.61.744.744,0,0,1,.808-.334.654.654,0,0,1,.527.551c.045.163.038.391.279.369.2-.019.158-.236.194-.377a1.072,1.072,0,0,1,.379-.572c1.2-.99,2.2-2.175,3.326-3.241.941-.9,1.716-1.931,2.6-2.876.3-.322.376-.762.665-1.085.124-.138.032-.282-.1-.4a1.632,1.632,0,0,0-1.547-.386c-2.685.5-5.027,1.87-7.514,2.871a2.658,2.658,0,0,1-1.173.244,4.678,4.678,0,0,0-1.872.577,16.661,16.661,0,0,1-1.716.617,5.6,5.6,0,0,1,1.9-1.326c1.08-.522,2.238-.871,3.28-1.475.174-.1.46-.165.383-.435-.07-.246-.34-.215-.549-.212a4.285,4.285,0,0,0-.81.055c-.332.07-.6.082-.8-.265a.381.381,0,0,0-.5-.191c-.484.243-1.068.128-1.528.5-.351.287-.716.091-.7-.368.038-1.029-.1-2.051-.107-3.071a10.079,10.079,0,0,1,.971-3.975,1.222,1.222,0,0,0,.168-.49,23.552,23.552,0,0,1,.536-3.612,10.191,10.191,0,0,1,.83-2.4c.193-.527.23-.994-.43-1.226a.58.58,0,0,1-.3-.342c-.585-1.2-1.184-2.4-1.754-3.6-.158-.335-.346-.36-.645-.227a1.875,1.875,0,0,0-1.078,1.3c-.192.749-.3,1.519-.426,2.284-.037.234-.114.579.212.64.344.064.266-.267.312-.486.057-.273.479-.3.712-.055a.651.651,0,0,1,.124.657,32.238,32.238,0,0,0-.536,3.718c-.039.268-.122.727.146.792.323.078.411-.376.543-.637a7.793,7.793,0,0,0,.374-.909c.09-.255.262-.425.515-.345.271.085.113.328.071.5-.288,1.184-.631,2.363-.843,3.554-.4,2.258-1.075,4.485-.893,6.834.037.471-.23.979-.19,1.511.035.459.156.79.622.925.11.032.251.044.245.195-.007.177-.16.205-.3.215-.291.02-.616.067-.8-.211-.247-.367-.639-.634-.769-1.077-.158-.538-.535-.466-.931-.357-.413.114-.7.3-.6.817a4.628,4.628,0,0,0,1.965,3.287c.14.09.352.167.31.376s-.248.116-.391.146c-.343.072-.165.266-.085.433.047.1.153.209.03.309a.263.263,0,0,1-.327-.018c-.733-.64-1.8-.569-2.524-1.334a5.487,5.487,0,0,1-1.668-3.154,17.077,17.077,0,0,0-1.71-4.844,1.662,1.662,0,0,0-.389-.5,10.732,10.732,0,0,1-2.973-6.217c-.067-.38-.169-.755-.257-1.131-.022-.1-.055-.21-.16-.221-.138-.016-.2.111-.234.218a8.4,8.4,0,0,0-.4,1.274,26.18,26.18,0,0,0-.339,7.291,8.08,8.08,0,0,0,.528,2.256c.073.172.126.424.375.353.206-.059.175-.318.13-.458-.274-.832-.237-1.715-.449-2.557a11.968,11.968,0,0,1-.119-4.737c.272.108.185.287.19.417.041,1.027,0,2.062.121,3.079a27.489,27.489,0,0,0,.656,3.673c.122.475.474.914.621,1.419a.392.392,0,0,0,.405.278c.213-.008.3-.149.312-.348.008-.111,0-.261.156-.263a.273.273,0,0,1,.271.259c.032.321.037.645.051.942-.311.162-.3-.452-.57-.188-.2.192-.107.465-.047.718.044.185.265.442,0,.565s-.4-.144-.523-.347-.24-.442-.368-.659c-.08-.135-.187-.3-.361-.186s-.083.292,0,.417c.752,1.092,1.3,2.359,2.649,2.992a2.285,2.285,0,0,1-1.627-.5,9.627,9.627,0,0,1-2.5-3.494,3.418,3.418,0,0,0-1.438-1.381c-.371-.214-.659-.034-.589.37a12.868,12.868,0,0,0,1.026,3.723,2.813,2.813,0,0,0,.561.734c.275.27.706.483.427,1a.23.23,0,0,0,.073.206c.66.473,1.142,1.256,2.11,1.2.171-.01.468-.051.456.22-.015.327-.318.2-.506.189-1.969-.065-3.089-1.318-3.978-2.876-.153-.267-.242-.57-.372-.851-.062-.135-.113-.331-.3-.3s-.179.234-.167.381a2.936,2.936,0,0,0,.15,1.143,12.689,12.689,0,0,0,1.437,2.632,6.6,6.6,0,0,0,4.128,1.891c.568.085,1.132.2,1.781.311a1.017,1.017,0,0,1-.892.29,8.235,8.235,0,0,1-4.732-1.137,6.541,6.541,0,0,1-2.713-3.5c-.879-2.59-.51-5.247-.517-7.883a34.622,34.622,0,0,1,.561-5.43c.217-1.386.7-2.729,1-4.106.3-1.432,1.118-2.675,1.436-4.1.025-.113.083-.219.006-.349-.228-.054-.357.142-.452.268C10.475,96.271,8.625,97.924,7.289,100c-.521.812-1.219,1.51-1.738,2.323A30.346,30.346,0,0,0,2.136,108.7a22.052,22.052,0,0,0-1.193,4.041,5.66,5.66,0,0,0,.229,3.367c.049.1.112.224-.024.3-.1.057-.192-.012-.261-.077A1.089,1.089,0,0,1,.579,116a6.112,6.112,0,0,1-.529-3.164,19.105,19.105,0,0,1,2.4-7.053,20.076,20.076,0,0,1,2.3-3.533c.847-.909,1.465-2.035,2.269-3.006,1.355-1.637,2.649-3.326,4.006-4.962A26.03,26.03,0,0,0,14.174,89.7a1.077,1.077,0,0,0-.111-1.431c-.124-.119-.187-.308-.32-.41a5.625,5.625,0,0,1-1.5-2.758c-1.169-2.968-.752-6.07-.75-9.134a37.183,37.183,0,0,1,1.212-7.38,31.8,31.8,0,0,1,1.56-5.021c.07-.183.145-.389-.048-.531-.151-.111-.313,0-.416.1a14.851,14.851,0,0,0-2.013,2.218,18.4,18.4,0,0,1-1.462,1.925,30.513,30.513,0,0,0-3.944,6.328,13.281,13.281,0,0,0-.516,2.669,7.988,7.988,0,0,0-.039,2.888,3.978,3.978,0,0,1,.027.521c0,.094-.017.2-.131.235s-.179-.047-.222-.139a2.951,2.951,0,0,1-.327-.74,11.92,11.92,0,0,1,.628-6.15,18.391,18.391,0,0,1,3.215-4.926c1.393-1.723,2.973-3.289,4.387-4.99q1.515-1.823,2.981-3.695a6.152,6.152,0,0,0,.39-.771c.565-.991,1.148-1.972,1.708-2.966.909-1.612,1.865-3.2,2.688-4.857.709-1.427,1.819-2.578,2.552-3.995A8.543,8.543,0,0,1,25.092,45,9.094,9.094,0,0,0,26.3,43.306c.218-.385.47-.578.872-.483.9.211,1.435-.248,2.042-.833A18.056,18.056,0,0,1,33.7,38.667c.877-.433,1.545-1.241,2.523-1.506a31.356,31.356,0,0,1,3.317-1.191c1.789-.263,3.432-1.154,5.33-.994A10.225,10.225,0,0,1,49.7,36.59,2.5,2.5,0,0,1,50.945,38.1c.089.336.661.6,1.065.778.255.114.33-.208.41-.439A12.9,12.9,0,0,1,54.591,34.3c.407-.49,1.04-.536,1.527-.868.215-.147.568-.009.831.137.179.1.348.235.241.457-.1.207-.322.145-.462.062-.457-.271-.636-.2-.9.327-.321.631-1.05,1.012-1.3,1.748a26.467,26.467,0,0,1-1.221,2.688,6.676,6.676,0,0,0-.54,2.889,1.529,1.529,0,0,0,.153.673c.312.651.672.737,1.215.253a1.9,1.9,0,0,1,1.465-.41.692.692,0,0,1,.693.524c.087.366-.188.485-.422.672A15.319,15.319,0,0,0,53.784,45a1.4,1.4,0,0,1-2.367-.582,8.691,8.691,0,0,0-1.095-2.34,1.914,1.914,0,0,1-.084-.192c1.025-.393,1.305.446,1.738,1.03.1.129.139.4.357.259s.139-.388-.045-.538c-.349-.283-.37-.677-.483-1.072a10.36,10.36,0,0,1-.493-2.308c-.015-.283-.294-.332-.542-.309a.542.542,0,0,1-.588-.28A5.384,5.384,0,0,0,47.032,36.3a8.616,8.616,0,0,0-4.177-.129,2.7,2.7,0,0,0-.794.344c-.085.04-.185.1-.134.218s.152.1.25.1c.21,0,.558-.187.57.129.011.287-.376.274-.618.273-.546,0-1.12.218-1.626-.186a.394.394,0,0,0-.283-.037,6.955,6.955,0,0,0-3.329,1.09,9.556,9.556,0,0,1-1.938,1.091A31.819,31.819,0,0,0,31.8,41.116,24.9,24.9,0,0,0,26.5,46.1c-.213.236-.369.6-.766.2-.141-.142-.263.055-.381.151a13.664,13.664,0,0,0-2.187,2.9c-1.211,1.669-2.056,3.544-3.123,5.292-.161.264-.3.543-.445.816-.4.74-.374.814.432,1.034-.271.16-.25.672-.739.44-.13-.061-.191.034-.182.136a1,1,0,0,1-.416.795,16.454,16.454,0,0,0-3.384,5.749,24.42,24.42,0,0,0-1.732,6.057c-.074.623-.469,1.151-.575,1.8a24.655,24.655,0,0,0-.292,2.935,67.625,67.625,0,0,0-.149,7.9,10.019,10.019,0,0,0,1.276,4.17c.169.3.377.581.522.9.133.3.476.437.641.139.493-.889,1.333-1.674,1.019-2.855a4.046,4.046,0,0,0-.172-.552,8.242,8.242,0,0,1-.572-2.184,22.875,22.875,0,0,1,.007-6.947c.282-1.624.541-3.257.937-4.866.281-1.141.651-2.258.9-3.412a25.375,25.375,0,0,1,1.383-3.75q.9-2.3,1.836-4.58a17.024,17.024,0,0,1,1.228-2.105c.107-.182.284-.345.174-.578s-.318-.162-.51-.132c-.114.018-.258.04-.283-.115a.493.493,0,0,1,.186-.409c.476-.483.967-.951,1.436-1.44,1.086-1.131,1.864-2.516,2.945-3.643,1.006-1.048,1.42-2.519,2.579-3.444.692-.552,1.318-1.218,2.321-1.124.282.026.444-.14.617-.352a24.679,24.679,0,0,0,1.959-3.155,6.857,6.857,0,0,1,.848-1.236c.12-.129.219-.344.4-.244.239.132,0,.316-.063.432a35.5,35.5,0,0,1-2.16,3.573,10.217,10.217,0,0,0-.779,1.359.891.891,0,0,1-.473.481,2.194,2.194,0,0,0-.732.563c-.329.322-.563.811-1.184.625-.128-.038-.327.1-.375.3.084.219.435-.051.451.239.013.239-.2.357-.351.505a32.591,32.591,0,0,0-3.034,3.035,10.357,10.357,0,0,0-2.371,5.512c-.161,1.866-.534,3.713-.634,5.588-.039.735-.063,1.472-.077,2.208a1.551,1.551,0,0,1-.256,1.048c-.076.091-.147.207-.075.319.559.877.207,1.841.271,2.764.027.386-.011.776.018,1.161.015.2.069.478.348.447.247-.028.218-.288.211-.476a13.531,13.531,0,0,1,0-2.5c.151-1,.164-2.016.356-3.015.175-.914.013-1.858.175-2.782a21.129,21.129,0,0,1,.884-3.6c.337-.926.549-1.891.955-2.8A1.876,1.876,0,0,1,26.4,54.228c.129-.045.28-.1.378.03.118.155-.026.248-.133.324a1.367,1.367,0,0,0-.436.675,22.529,22.529,0,0,0-1.474,5.11,45.209,45.209,0,0,0-.519,4.672c-.008.273-.115.725.194.76s.379-.407.459-.708a48.3,48.3,0,0,1,2-6.058,3.769,3.769,0,0,1,.725-1.116c.1-.111.215-.271.384-.146.149.111.013.243-.038.361-.577,1.326-1.077,2.68-1.579,4.036-.452,1.222-.572,2.478-.9,3.7a6.4,6.4,0,0,1-.682,2.251.5.5,0,0,0-.063.279,3.441,3.441,0,0,1-.383,1.656,5.411,5.411,0,0,0-.25,1.707,21.133,21.133,0,0,0-.11,2.437c0,.178-.034.445.211.482s.291-.216.374-.385c.3-.609.421-1.281.7-1.905.631-1.421,1.568-2.668,2.241-4.065.272-.564.087-1.189.392-1.725.112-.2.124-.459.427-.484.372-.03.485-.26.467-.6a3.965,3.965,0,0,1,.468-1.661,9.622,9.622,0,0,0,.372-2.8c.012-.129.008-.29-.149-.346-.13-.047-.212.058-.286.149-.061.075-.118.177-.228.14a.24.24,0,0,1-.135-.292,9.914,9.914,0,0,1,.549-2.363c.15-.334.337-.418.554-.025.094.17.179.454.458.325.218-.1.2-.341.187-.565a35.811,35.811,0,0,0-.037-3.815c-.024-.146-.023-.36.166-.385.219-.03.269.188.31.355a11.063,11.063,0,0,1,.147,2.953,6.678,6.678,0,0,1-.453,2.432,1.1,1.1,0,0,0-.046.4,14.7,14.7,0,0,1-1.043,5.377,2.891,2.891,0,0,0-.265,2.184,2.887,2.887,0,0,0,.959-1.423,29.063,29.063,0,0,0,1.559-5.4A38.8,38.8,0,0,0,32,55.706c-.008-.3-.151-.766.184-.818.414-.064.38.448.447.74a8.574,8.574,0,0,1,.1,2.491,19.4,19.4,0,0,1-.657,4.457,40.127,40.127,0,0,1-1.369,4.048c-.136.32-.292.633-.414.958a1.719,1.719,0,0,0-.112.563c0,.189.027.428.224.5.241.087.319-.155.411-.319a22.339,22.339,0,0,0,2.433-6.075,17.2,17.2,0,0,0,.161-4.635c-.045-.87-.114-1.739-.171-2.609-.01-.157-.025-.346.173-.377.232-.037.365.156.415.337.154.56.263,1.133.414,1.694.056.207.008.571.282.563s.219-.371.246-.58a16.791,16.791,0,0,0,.017-2.96c-.01-.213-.056-.425-.054-.637,0-.228-.008-.5.316-.531s.324.233.394.461a16,16,0,0,1,.248,5.31c-.023.736-.1,1.47-.135,2.205a19.078,19.078,0,0,1-.968,5,31.9,31.9,0,0,1-1.419,3.413c-.809,1.736-1.573,3.5-2.375,5.238a4.31,4.31,0,0,0-.5,1.589c.507-.511.842-1.042,1.259-1.494a19.388,19.388,0,0,0,2.844-4.6,37.1,37.1,0,0,0,2.152-4.7c1.02-3,1.98-6.018,1.63-9.25a4.3,4.3,0,0,0-.573-2.218.615.615,0,0,1,.014-.851c.276-.2.6,0,.825.234a1.107,1.107,0,0,0,.847.422c.357,0,.444.3.419.581-.207,2.316.268,4.6.322,6.9a7.93,7.93,0,0,0,.508,2.315c.526,1.569,1.043,3.147,1.71,4.667A12.263,12.263,0,0,0,44.8,70.868a1.511,1.511,0,0,0,.689.518c.114.031.237.071.324-.035s.015-.215-.05-.314a18.476,18.476,0,0,1-2.3-6.637q-.435-2.155-.8-4.328a49.637,49.637,0,0,1-.693-7.332,1.466,1.466,0,0,1,.552-1.274.5.5,0,0,1,.649-.007c.21.175-.045.3-.12.434a2.664,2.664,0,0,0-.184,1.705c.191,1.535.214,3.091.551,4.609a2.006,2.006,0,0,0,.038.229c.066.189.051.488.341.453.241-.029.223-.3.221-.48-.017-1.708.184-3.408.2-5.109.013-1.236.507-2.391.431-3.623-.009-.148.036-.343.26-.288.173.043.195.209.213.373.186,1.674-.3,3.3-.366,4.945a35.1,35.1,0,0,0-.127,5.107c.087.841-.066,1.7.066,2.553.028.179-.029.459.232.458s.216-.278.23-.46c.117-1.507.184-3.02.354-4.522a50.457,50.457,0,0,1,.817-5.2,13.169,13.169,0,0,1,.256-1.544c.043-.125.013-.282.129-.375.163-.13.28-.428.488-.366.3.088.054.364.069.555.036.463.051.928.086,1.391.009.127.007.3.2.291.137-.007.181-.143.2-.255.071-.42.157-.84.188-1.264a12.3,12.3,0,0,1,.25-1.49c.048-.241.137-.476.425-.469.263.006.228.267.29.44a1.952,1.952,0,0,1,.055.8,11.072,11.072,0,0,0,.375,4.485.837.837,0,0,0,1.022.628c.374-.075.448.125.487.4.208,1.455.771,2.829.979,4.284a1.456,1.456,0,0,0,.181.427c.263.515.315.52.61.048.09-.144.185-.265.367-.2a.44.44,0,0,1,.288.46,4.892,4.892,0,0,0,.345,1.524.788.788,0,0,0,.535.571c1.076.284,2.008.912,3.061,1.244.176.055.392.214.536.027.125-.162-.094-.31-.166-.457-.984-2.016-1.956-4.034-2.8-6.117-.449-1.109-1.08-2.144-1.631-3.212a2,2,0,0,1-.278-.7c-.017-.166-.121-.371.076-.477s.386.035.49.2a17.114,17.114,0,0,1,1.11,1.833c1.922,4.08,3.758,8.2,6.078,12.083a1.34,1.34,0,0,1,.185.421c.3,1.593,1.093,3.016,1.529,4.559a13.19,13.19,0,0,1,.6,3.547,2.63,2.63,0,0,1-.635-1.046,12.976,12.976,0,0,1-.736-2.681,1.352,1.352,0,0,0-.839-1.047,18.9,18.9,0,0,1-2.936-1.817c-.3-.221-.7-.485-1,.1-.118.225-.345.034-.488-.087a11.257,11.257,0,0,1-3.28-4.611c-.164-.426-.408-.786-.955-.522-.175.085-.284-.023-.429-.058-.411-.1-.845-.235-1.088.313a.41.41,0,0,1-.537.229c-.257-.1-.287-.34-.246-.588a3.348,3.348,0,0,0,.059-1.549c-.038-.128-.032-.275-.184-.338-.12-.05-.373.059-.311-.209.036-.157.226-.11.355-.129a.282.282,0,0,1,.362.275,2.656,2.656,0,0,0,.052.518c.088.265.247.527.578.449.275-.064.372-.289.344-.587a7.719,7.719,0,0,0-1.446-3.857c-.077-.107-.179-.24-.332-.148-.113.068-.091.208-.053.32a1.28,1.28,0,0,1,.088.626c-.025.152.15.393-.116.436a.554.554,0,0,1-.564-.222c-.378-.539-.74-1.076-.09-1.873-.982.384-.836-.193-.872-.638-.041-.5-.11-1-.183-1.5-.018-.124-.038-.3-.2-.319s-.2.148-.244.271a6.374,6.374,0,0,0-.367,1.635c-.157,2.143-.326,4.287-.56,6.423-.118,1.078.142,2.121.128,3.185-.007.507-.15,1.038.242,1.508.151.181-.11.434-.09.667.1,1.184.2,2.362,1.259,3.172.415.316.792.682,1.177,1.035.1.095.328.142.246.34-.066.159-.241.056-.368.067a4.2,4.2,0,0,1-2.438-.8,16.594,16.594,0,0,1-3.512-2.726,10.576,10.576,0,0,1-2.3-4.063,29.335,29.335,0,0,1-.942-2.788c-.125-.478-.067-.966-.157-1.442-.039-.207-.048-.47-.318-.487s-.258.243-.313.421a47.285,47.285,0,0,1-4.166,9.5,17.762,17.762,0,0,1-3.828,4.635.668.668,0,0,1-.255.124,1.92,1.92,0,0,0-1.544,1.164c-.059.173-.236.452-.453.348-.249-.119-.174-.4-.037-.611,1.225-1.9,1.841-4.093,2.876-6.085.437-.84.622-1.787,1.095-2.618a1.206,1.206,0,0,0,.124-1.07,1.6,1.6,0,0,0-.6.866,3.054,3.054,0,0,1-1.036,1.5,3.006,3.006,0,0,0-.585.928c-.127.226-.285.5-.571.315-.27-.178-.143-.482-.03-.734.088-.195.589-.24.283-.552-.234-.239-.538-.005-.8.127a8.189,8.189,0,0,0-3.45,4.1,4.524,4.524,0,0,1-1.032,1.516,2.594,2.594,0,0,0-.644,1.762,4.816,4.816,0,0,0,.228,1.888,13.135,13.135,0,0,0,.868,2.553c-.077.048-.11.086-.137.082-.272-.037-.51-.429-.789-.171-.311.287.049.56.135.836.355,1.145.65,2.314,1.086,3.428.417,1.063.66,2.186,1.138,3.222.681,1.476,1.168,3.038,1.989,4.451.311.535.63,1.067.946,1.6.187.315.441.322.749.184s.535-.053.455.316a2.235,2.235,0,0,0,.48,1.685,6.825,6.825,0,0,0,1.754,1.757c.749.568,1.481,1.173,2.272,1.668a34.843,34.843,0,0,0,3.146,2.158,1.2,1.2,0,0,1,.349.205c1.222,1.272,2.9,1.719,4.409,2.473.626.312,1.357.319,1.922.773a.884.884,0,0,0,.681.073,8.07,8.07,0,0,0,3.1-1.03c.763-.455,1.593-.8,2.384-1.208,1.139-.591,2.11-1.438,3.187-2.121,1.046-.663,1.915-1.561,3-2.17a4.2,4.2,0,0,0,.525-.453,17.384,17.384,0,0,0,3.473-4.087,13.933,13.933,0,0,0,1-1.5.812.812,0,0,1,1.151-.333c.393.319.164.653-.007,1.025-.592,1.288-1.772,2.133-2.469,3.357-.278.488-.806.861-1,1.447A1.454,1.454,0,0,0,60,100.136a1.325,1.325,0,0,1-.105.909,16.428,16.428,0,0,0-.631,4.53c-.015.225-.065.522.256.56.349.042.4-.279.418-.517a16.556,16.556,0,0,1,.311-3.178c.3-1.109.229-2.391,1.233-3.232a2.539,2.539,0,0,0,.745-1.051,3.581,3.581,0,0,1,2.853-2.335c.2-.032.459-.152.578.1s-.116.389-.292.5a1.655,1.655,0,0,0-.628.8,18.7,18.7,0,0,0-1.531,4.551,30.147,30.147,0,0,0-.957,4.653c-.006.271-.01.543-.006.814,0,.224,0,.43-.271.51-.116.035-.241.123-.232.236.043.532-.259.576-.68.563-.272-.008-.294.194-.176.411A4.141,4.141,0,0,0,62.1,110.1c.245.2.417-.018.4-.269a15.312,15.312,0,0,1,1.194-5.59,20.8,20.8,0,0,1,1.818-4.265,7.85,7.85,0,0,1,1.1-1.9,1.842,1.842,0,0,1,.3-.275c.27-.162.6-.337.852-.074.228.237-.027.5-.155.732-.159.287-.34.563-.486.856-.087.174-.14.393.069.522a.451.451,0,0,0,.538-.1.845.845,0,0,0,.288-.423c.251-1.386,1.032-2.586,1.371-3.94a2.849,2.849,0,0,0,.063-1.923.723.723,0,0,1,.358-1.01c.232-.11-.1-.582-.042-.9a.241.241,0,0,0-.184-.267c-.24-.049-.325.153-.444.3a2.268,2.268,0,0,1-3.1.583,1.748,1.748,0,0,1-.69-1.106c-.128-.539-.322-1.252-.084-1.646a11.243,11.243,0,0,1,1.194-2.117,1.664,1.664,0,0,1,1.761-.228c.591.171.911.026.865-.588A7.771,7.771,0,0,1,69.8,83.4a5.037,5.037,0,0,0-.183-3.732c-.088-.2-.193-.386-.454-.387a.362.362,0,0,0-.38.364c-.138,1.365-1.045,2.443-1.385,3.735a10.673,10.673,0,0,0-.327,1.23c-.05.359-.225.368-.465.151a1.032,1.032,0,0,1-.4-.919c.027-.248.1-.545-.115-.719-.791-.64-.432-1.426-.243-2.138A11.062,11.062,0,0,1,66.9,78.723a1.086,1.086,0,0,1,.65-.453,1.517,1.517,0,0,0,.97-1.066,13.574,13.574,0,0,0,.665-3.519,6.946,6.946,0,0,0-.49-2.426c-.04-.113-.043-.307-.24-.255-.131.035-.114.183-.128.3-.149,1.227-.293,2.454-.455,3.679a1.878,1.878,0,0,1-.217.777,24.115,24.115,0,0,0-1.471,3.109c-.063.132-.085.339-.291.3-.235-.04-.2-.262-.2-.426a20.057,20.057,0,0,0-.841-4.9c-.535-2-1.169-3.972-1.759-5.957-.534-1.8-.979-3.622-1.62-5.378a42.282,42.282,0,0,0-2.364-5.869c-.278-.51-.559-1.019-.8-1.545-.129-.275-.145-.6.185-.76.367-.182.525.093.651.374a40.134,40.134,0,0,1,2.126,4.573c.855,2.809,2.155,5.473,2.692,8.386a13.688,13.688,0,0,0,.615,1.81c.45,1.34.649,2.754,1.172,4.073.08.2.094.538.406.46.25-.062.171-.35.155-.559-.061-.793.028-1.585.01-2.38a12.406,12.406,0,0,0-1.129-4.652c-.375-.873-.613-1.793-.958-2.678-.683-1.75-1.431-3.468-2.2-5.183-.666-1.491-1.546-2.861-2.263-4.321-.193-.393-.7-.561-.791-1.074a1.043,1.043,0,0,1,.885.315,5.358,5.358,0,0,1,1.03,1.4c.822,1.444,1.654,2.884,2.426,4.355.375.714.624,1.495.937,2.242.071.168.109.464.331.407.258-.066.185-.38.127-.556a14.745,14.745,0,0,0-.736-1.949c-.528-1.063-.858-2.2-1.3-3.293a4.512,4.512,0,0,1-.58-2.37c1.526,1.878,2.014,4.172,3.06,6.183a1.056,1.056,0,0,0,.1-.059c-.4-.819-.089-1.822-.671-2.593a.223.223,0,0,1,.017-.317.536.536,0,0,1,.651-.055,3.139,3.139,0,0,1,1.42,1.414,7.668,7.668,0,0,1,.894,2.133c.02.143.081.357.268.315.211-.048.118-.258.079-.394a11.25,11.25,0,0,0-.485-1.421c-.249-.57-.241-1.222-.5-1.82-.528-1.236-.724-2.6-1.359-3.8a8.542,8.542,0,0,0-2.254-3.058,14.867,14.867,0,0,0-1.337-1.114.46.46,0,0,1-.212-.268c-.138-.766-.8-1.015-1.341-1.387-.147-.1-.337-.182-.315-.378.038-.339.218-.633-.174-.958-.151-.125.23-.425.531-.4a2.1,2.1,0,0,1,1.213.594,4.1,4.1,0,0,1,1.22,1.459,1.061,1.061,0,0,0,.319.409c2.169,1.75,3.273,4.207,4.4,6.643.8,1.735,1.46,3.539,2.332,5.234.558,1.085,1.043,2.189,1.5,3.315.062.154.108.4.319.35.237-.061.17-.324.149-.5a4.17,4.17,0,0,0-.406-1.209c-.613-1.36-1.029-2.792-1.551-4.184-.455-1.213-1.023-2.383-1.551-3.568-.084-.189-.311-.394-.088-.561.269-.2.379.113.536.27a14,14,0,0,1,3.047,5.032.935.935,0,0,0,.238.394c1.206.963,1.627,2.417,2.249,3.719.648,1.357,1.24,2.744,1.881,4.107.167.354.526.571.669.945.046.121.129.287.29.209.136-.066.113-.251.065-.37-.171-.429-.3-.877-.458-1.3-.326-.856-.371-1.78-.72-2.625-.241-.586-.438-1.19-.656-1.785a3.423,3.423,0,0,1-.185-.488A40.148,40.148,0,0,0,73.516,56.7c-.343-1-.621-2.03-.954-3.038a6,6,0,0,0-1.3-2.555A19.886,19.886,0,0,1,68.91,47.6a31.724,31.724,0,0,0-3.042-3.632,2.435,2.435,0,0,1-.27-.3c-.1-.161-.231-.345-.049-.526a.413.413,0,0,1,.539-.027,6.979,6.979,0,0,1,1.832,1.574c1.255,1.6,2.389,3.279,3.527,4.959a55.46,55.46,0,0,1,3.77,6.112,13.205,13.205,0,0,1,1.33,3.578.64.64,0,0,0,.389.537,1.751,1.751,0,0,1,.7.507.512.512,0,0,0,.674.163c.245-.131.247-.36.221-.608a4.85,4.85,0,0,0-.5-1.665,39.2,39.2,0,0,0-2.374-4.642c-.837-1.229-1.579-2.536-2.5-3.69-1.2-1.506-2.4-3.019-3.675-4.477a29.106,29.106,0,0,0-3.988-3.615,25.7,25.7,0,0,0-3.911-2.162,12.021,12.021,0,0,0-5.005-1.07,3.812,3.812,0,0,0-1.428.235c-.6.19-.724.747-.882,1.379m-3.54,86.923a9.341,9.341,0,0,0,2.38-.284c1.4-.3,2.794-.627,4.176-1,.719-.195,1.5-2.233,1.126-2.867a1.275,1.275,0,0,1,.1-1.6,4.507,4.507,0,0,0,.518-.622c.674-1.284,1.323-2.581,1.982-3.874a.367.367,0,0,0,.011-.434c-.132-.163-.285-.078-.419-.007-.608.322-1.315.3-1.942.568-.194.083-.489.133-.609-.154-.13-.312.109-.485.341-.577a13.306,13.306,0,0,1,2-.766,2.314,2.314,0,0,0,1.968-1.492,5.236,5.236,0,0,1,.881-1.619.746.746,0,0,0-.15-1.2c-.664-.278-1.26-.673-1.894-1A2.247,2.247,0,0,1,60.035,109a.977.977,0,0,0-.447-.582,2.556,2.556,0,0,1-1.273-1.714,13.074,13.074,0,0,1-.106-1.5c-.187-1.122-.6-1.517-1.551-.986a19.965,19.965,0,0,1-3.443,1.657,6.9,6.9,0,0,1-2.364.707c-.508-.018-.649.055-.512.563a12.077,12.077,0,0,1-.091,3.869,1.023,1.023,0,0,1-.186.419c-.161.272-.341.372-.565.046-.287-.418-.467-.244-.564.13a1.616,1.616,0,0,1-.616,1.088,32.051,32.051,0,0,0-2.781,2.063,1.428,1.428,0,0,0-.734,1.507c.094.628.425,1.161.571,1.765.157.643.552.778,1.136.449a1.646,1.646,0,0,0,.585-.555.587.587,0,0,1,.523-.317,24.459,24.459,0,0,0,2.65-.282c.287-.017.644-.087.713.3s-.3.547-.584.6a12.324,12.324,0,0,1-1.859.373,2.728,2.728,0,0,0-1.635.572c-.678.479-.777.772-.431,1.54.207.459.4.926.641,1.368a.62.62,0,0,1-.162.911.577.577,0,0,0-.186.768c.414,1.046.9,2.057,1.4,3.065.114.231.272.493.564.4a7.65,7.65,0,0,1,2-.074M43.7,114.2c.876.06,1.92-.486,1.955-1.134.038-.7.414-.659.88-.633a1.211,1.211,0,0,0,1.2-.809,5.531,5.531,0,0,0-.107-3.752.4.4,0,0,0-.385-.3,3.118,3.118,0,0,0-1.2.142.768.768,0,0,1-.726.037.85.85,0,0,0-1.172.27c-.154.176-.288.459-.61.316a.575.575,0,0,1-.287-.744c.13-.562-.152-.779-.631-.978a29.958,29.958,0,0,1-5.338-3.023c-.19-.129-.379-.311-.631-.2s-.275.36-.29.594a3.054,3.054,0,0,0,1.046,2.886.4.4,0,0,0,.6-.031c.178-.155.279-.565.523-.435s.037.5.044.761a1.771,1.771,0,0,1-.069.516c-.115.409-.068.627.452.576.422-.041.648.264.527.6-.15.42-.038.514.441.473a3.821,3.821,0,0,0,2.459-.863.507.507,0,0,1,.693.008c.228.168.178.352.1.565a.626.626,0,0,0,.344.871.814.814,0,0,0,1.057-.141,3.5,3.5,0,0,0,.673-1.075c.069-.183.181-.366.427-.3a.39.39,0,0,1,.29.449,2.549,2.549,0,0,1-.141.853c-.276.6-.761,1.073-1.008,1.692-.039.1-.143.172-.233.109-.582-.4-1.26-.1-1.866-.265a1.342,1.342,0,0,0-1.644.639c-.859,1.186-1.91,2.23-2.8,3.393a19.6,19.6,0,0,1-2.835,2.9.793.793,0,0,0-.147,1.219,29.709,29.709,0,0,1,2.034,3.312,32.167,32.167,0,0,1,1.39,3.127c.136.341.366.57.69.229.914-.963,2.106-1.581,3.053-2.494.691-.667,1.643-1.135,1.817-2.235.023-.146.207-.176.343-.153.6.1.572-.187.477-.64a12.636,12.636,0,0,0-1.12-2.542c-.66-1.464-.719-3.116-1.514-4.525a.629.629,0,0,1-.025-.286c0-.2,0-.408.22-.494s.514-.11.649.092c.275.409.7.8.4,1.43M75.564,94.055l-.154-.083A33.114,33.114,0,0,0,76.595,90.8c.631-2.371,1.288-4.735,1.774-7.147a19.238,19.238,0,0,0,.142-6.641,30.172,30.172,0,0,0-1.059-4.456A22.673,22.673,0,0,0,75.465,67.5c-.091-.153-.127-.445-.371-.365s-.113.336-.084.513c.248,1.527.819,2.977,1.018,4.522a29.668,29.668,0,0,1,.367,3.169c0,.155-.037.342.089.442.381.3.324.712.353,1.114.032.444.071.889.135,1.329a24.879,24.879,0,0,1-.359,7.04,38.305,38.305,0,0,0-.6,3.8,3.183,3.183,0,0,1-.193.841c-.424,1.35-1.033,2.627-1.535,3.945a5.355,5.355,0,0,1-1.222,1.941,2.772,2.772,0,0,1,.235-.9,37.961,37.961,0,0,0,1.586-3.537c.432-1.228.552-2.549.888-3.816a14.654,14.654,0,0,0,.444-4.368c-.007-.171,0-.354-.238-.415a18.536,18.536,0,0,0-.546,2.246c-.429,1.467-.651,2.98-1.025,4.459-.249.985-.131,2.049-.686,2.975a24.239,24.239,0,0,0-1.662,3.384,4.543,4.543,0,0,1-.891,1.815c-.256.247-.236.763-.395,1.134a17.687,17.687,0,0,0-1.161,3.211,11.624,11.624,0,0,0-.473,3.665c.016.156,0,.329.186.388s.282-.08.383-.2a8.506,8.506,0,0,0,1.3-2.189,26.5,26.5,0,0,1,2.305-4.155c.082-.126.189-.306.354-.251.229.076.123.289.089.45-.066.31-.165.631.369.472.273-.081.276.109.285.3a1.465,1.465,0,0,1-.343.969c-.977,1.26-1.62,2.728-2.534,4.026-.089.126-.29.286-.121.454s.359-.007.514-.107a1.66,1.66,0,0,0,.3-.27c.892-.962,1.943-1.756,2.793-2.774A9.605,9.605,0,0,0,76.9,99.023c.193-.7-.078-1.4.136-2.075a.253.253,0,0,0-.136-.3.306.306,0,0,0-.375.067c-.244.247-.463.52-.708.767-.131.132-.294.373-.472.259-.222-.142.017-.349.091-.5a31.117,31.117,0,0,0,2.441-6.933,5.853,5.853,0,0,0,.071-1.9,30.5,30.5,0,0,1-2.388,5.642M18.808,87.794c-.158.2-.285.1-.407.064-.259-.071-.51-.088-.675.17a.775.775,0,0,0-.023.877,2.012,2.012,0,0,0,.192.217c.176.208.206.369-.12.458a1.788,1.788,0,0,0-1.232,1.477,15.829,15.829,0,0,0-.4,2.457c-.1.987-.169,1.962-.366,2.949a13.593,13.593,0,0,0,.367,5.01A11.722,11.722,0,0,0,17.4,104.83c.116.223.282.467.583.381.285-.081.221-.368.251-.593.262-1.936.45-3.882.875-5.8a36.242,36.242,0,0,0,.949-4.706.478.478,0,0,1,.361-.459,1.354,1.354,0,0,0,.855-1.758,3.922,3.922,0,0,1-.131-2.67,4.512,4.512,0,0,0-.243-3.109,4.745,4.745,0,0,1-.4-3,5.128,5.128,0,0,0,.414-1.474,1.512,1.512,0,0,1,1.034-1.641.406.406,0,0,0,.286-.452,3.848,3.848,0,0,0-.264-1.069c-.047-.131-.183-.287-.3-.148-.219.263-.6.445-.623.813a5.3,5.3,0,0,1-.578,1.75c-.659,1.527-1.3,3.06-1.823,4.641-.268.806-.92,1.583.162,2.252M80.575,68.55a.5.5,0,0,0-.145.549c.186,1.418.233,2.849.392,4.272.289,2.589.3,5.211.391,7.82a58.4,58.4,0,0,1-.461,6.777,16.448,16.448,0,0,1-1.585,6.62,4.821,4.821,0,0,0-.877,2.194,23.083,23.083,0,0,1-.557,3.84c-.025.163-.149.4.038.476.244.1.384-.153.464-.338a8.143,8.143,0,0,0,.679-1.849.8.8,0,0,1,.282-.554c.27-.207.407-.158.453.188a1.715,1.715,0,0,1-.175.842c-.054.144-.106.316.078.409s.294-.047.387-.168a2.561,2.561,0,0,0,.241-.395c.274-.533.549-1.065.811-1.6a38.939,38.939,0,0,0,2.048-5.234c.281-.885.43-1.81.716-2.686a6.445,6.445,0,0,0,.387-2.092c-.015-1.494.145-2.979.224-4.468a14.121,14.121,0,0,0,.01-3.307c-.3-1.626-.337-3.288-.772-4.9A43.186,43.186,0,0,0,82.5,70.081a6.437,6.437,0,0,0-1.014-2.21c0,.338-.019.529,0,.714.2,1.671.372,3.347.623,5.01.269,1.782.306,3.581.494,5.368.016.153-.042.337.134.406s.219-.1.283-.221.146-.249.312-.18c.129.054.127.193.113.3a8.515,8.515,0,0,0,.148,1.617,29.093,29.093,0,0,1-.309,5.845c-.37,2.579-1.625,4.788-2.643,7.1-.062.142-.151.317-.338.233-.2-.093-.078-.274-.026-.405A33.378,33.378,0,0,0,81.8,88.976a8.858,8.858,0,0,0,.313-2.35c-.161-4.044-.234-8.093-.632-12.125-.078-.789-.162-1.579-.239-2.366-.116-1.176-.424-2.334-.667-3.584M74.5,74.809a3.754,3.754,0,0,1-.145-1.523c-.1-1.7-.662-3.338-.716-5.047a.359.359,0,0,0-.051-.166c-.1-.173-.134-.49-.387-.427a.526.526,0,0,0-.289.529c.045.419-.132.852.1,1.259a.214.214,0,0,1-.115.335c-.194.048-.2-.143-.222-.265-.048-.305-.084-.613-.112-.92-.027-.289-.091-.582-.43-.593-.409-.014-.468-.266-.5-.571a10.214,10.214,0,0,0-.187-1.5,18.812,18.812,0,0,0-1.625-4.218c-.211-.379-.142-.846-.4-1.206-.067-.093-.14-.217-.267-.186-.149.036-.1.188-.1.295a2.4,2.4,0,0,0,.059.343c.264,1.4.543,2.807.786,4.216a8.293,8.293,0,0,0,.414,1.375,9.91,9.91,0,0,1,.714,2.376,20.327,20.327,0,0,0,.506,3.027,7.431,7.431,0,0,0,.957,2.7c.159.218.1.667.6.377.191-.111.237.136.249.286a6.2,6.2,0,0,0,.082,1.154,9.609,9.609,0,0,1,.26,3.052c-.045,1.007.086,2.015-.045,3.021-.021.162-.04.406.193.415s.212-.226.221-.4c0-.058-.009-.116,0-.174a24.324,24.324,0,0,0,.291-4.219c-.019-.173.076-.4.272-.383s.135.25.132.39c-.033,1.277.076,2.554-.081,3.834a20.363,20.363,0,0,0-.041,2.318c0,.093.007.2.154.212.272-.3.125-.706.237-1.048.655-2.009.559-4.128.881-6.186.226-1.443-.315-2.866-.464-4.3-.012-.118-.131-.233-.218-.334s-.151-.265-.316-.2-.11.224-.067.352.122.264-.029.366c-.3.206-.233.492-.2.785a1.3,1.3,0,0,1-.088.844m-18.853,54.71c-.205.036-.452.084-.7.121-1.395.211-2.62,1.009-4.051,1.133-.722.063-.96.577-.648,1.213a12.569,12.569,0,0,1,.922,2.981,10.18,10.18,0,0,0,1.133,2.841c.178.319.326.345.6.053a6.6,6.6,0,0,0,1.071-2.261c.767-1.835.958-3.876,2.038-5.593.2-.311.075-.521-.369-.489M85.891,87.795a3.105,3.105,0,0,0,0-.367c-.036-.219.081-.592-.155-.619-.3-.034-.16.356-.246.548a1.731,1.731,0,0,0-.147.56,26.974,26.974,0,0,1-1.4,5.678,28.434,28.434,0,0,1-2.078,4.713c-.514,1-.774,2.1-1.369,3.055a.362.362,0,0,0,.038.437.227.227,0,0,0,.317.015,4.689,4.689,0,0,0,1.947-2.073c.057-.134.01-.351.231-.334.2.014.287.176.308.367a2.414,2.414,0,0,0,.043.4.305.305,0,0,0,.3.227c.13,0,.258-.072.265-.184.035-.529.46-.835.689-1.251a25.871,25.871,0,0,0,1.111-3.411.783.783,0,0,0,0-.4c-.047-.25-.182-.424-.437-.216-.408.332-.446.046-.464-.26a8.457,8.457,0,0,1,.325-2.371,31.475,31.475,0,0,0,.72-4.512M32.961,102.74c0-.29-.016-.582.006-.871.014-.178-.014-.443.248-.455a.485.485,0,0,1,.549.414c.043.268.051.542.105.807a6.551,6.551,0,0,0,.137,1.205,3.186,3.186,0,0,1-.285,2.922c-.6.989-1.339,1.89-2,2.843-.145.209-.371.506-.083.72.266.2.571.019.775-.2a6.418,6.418,0,0,0,.765-.947,14.439,14.439,0,0,0,2.049-4.883,2.513,2.513,0,0,0-1.032-2.835,2.821,2.821,0,0,1-1.061-.761.439.439,0,0,0-.524-.154c-.2.073-.2.272-.218.442a10.627,10.627,0,0,1-.09,1.1,20.677,20.677,0,0,1-2.4,6.326,1.835,1.835,0,0,0-.279.754c-.019.185-.138.4.106.511a.488.488,0,0,0,.577-.16,6.54,6.54,0,0,0,1.147-1.3,12.15,12.15,0,0,0,1.5-5.476m55.663-13.4c-.019-.387-.027-.775-.058-1.162a19.274,19.274,0,0,0-1.1-5.266c-.05-.133-.051-.344-.271-.306-.138.024-.134.18-.131.291a36.231,36.231,0,0,0,.029,4.353A20.981,20.981,0,0,1,87.29,89.8a4.9,4.9,0,0,1-.735,3.11,1.328,1.328,0,0,0-.166,1.177,4.647,4.647,0,0,1-.43,3.724,2.264,2.264,0,0,0-.186.548c-.035.161-.119.373.1.462.2.082.327-.089.415-.237a10.453,10.453,0,0,0,1.1-2.3c.3-.972.066-2.132.971-2.9.035-.03.035-.109.041-.166a19.007,19.007,0,0,0,.226-3.879M54.794,64.287c-.2-.008-.363-.036-.451.135-.074.143.01.262.1.368a10.9,10.9,0,0,1,1.571,2.04.857.857,0,0,0,.2.206c.691.648,1.368,1.311,2.077,1.939a13.016,13.016,0,0,0,1.622,1.4.49.49,0,0,0,.633-.042c.205-.157.1-.308.065-.505a6.337,6.337,0,0,0-.9-1.74,6.6,6.6,0,0,0-1.171-1.85A7.86,7.86,0,0,0,55.985,64.8c-.407-.178-.816-.351-1.191-.512m-4.47,65.547a7.307,7.307,0,0,0,1.263-.163,40.423,40.423,0,0,1,4-.966,1.79,1.79,0,0,0,1.544-1.454c.036-.323-.023-.552-.436-.448a7.408,7.408,0,0,0-1.292.32,17.775,17.775,0,0,1-4.488,1.1,3.679,3.679,0,0,1-1.65.159c-.278-.074-.4.152-.348.446.14.788.5,1.045,1.41,1M15.945,78.455c.218,1.2-.041,2.467.364,3.67.087.257.011.724.354.693s.2-.465.217-.74c.042-.928-.147-1.843-.172-2.761a13.319,13.319,0,0,1,.21-4.216c.129-.44.265-.884.393-1.327.63-2.181.666-4.484,1.379-6.647.038-.114.073-.262-.054-.307-.2-.069-.219.136-.244.247a18.07,18.07,0,0,1-.682,1.821,18.962,18.962,0,0,0-1.245,5.049c-.092,1.5-.339,3-.521,4.519M13.637,97.588a2.128,2.128,0,0,0-1.027,1.55,23.652,23.652,0,0,0-1.185,8.221,2.748,2.748,0,0,0,.406,1.256c.134.225.341.43.608.345s.141-.366.147-.567a3.153,3.153,0,0,0-.049-.461,21.694,21.694,0,0,1,.607-7.82,12.43,12.43,0,0,0,.492-2.525M70.54,70.8c-.056.37-.082.73-.167,1.076a7.637,7.637,0,0,0-.111,3.908c.386,1.35.457,2.746.838,4.083a5.979,5.979,0,0,1,.254,2.347c-.042.365-.13.724-.175,1.089-.022.179-.088.453.177.472s.228-.26.248-.442a30.849,30.849,0,0,0,.106-3.477,58.4,58.4,0,0,0-.93-8.645c-.022-.143-.011-.314-.24-.413M21.457,83.608a4.343,4.343,0,0,0,.535,2.22c.4.619.4.619.942.151a.76.76,0,0,1,.3-.167c.979-.231.892-.594.608-1.244-.045-.1-.032-.234-.078-.339a8.874,8.874,0,0,0-.794-2.042c-.358-.466-.825-.482-1.086-.009a2.1,2.1,0,0,0-.428,1.43M18.535,76.3c.022.128-.1.5.272.535.357.032.343-.346.413-.6a.7.7,0,0,0,.024-.23,5.749,5.749,0,0,1,.641-2.9c.426-.869.166-1.789.322-2.674a.516.516,0,0,0-.488-.611c-.326-.032-.369.266-.431.516-.079.317-.1.642-.208.959a6.929,6.929,0,0,0-.566,2.7c.054.637-.85,1.281.015,1.895.046.032.006.185.006.4m11.487,30.3c.341-.3.326-.678.452-.986a15.265,15.265,0,0,0,1.1-5.591c.013-.814-.6-1.166-1.034-1.655a.22.22,0,0,0-.319,0,1.553,1.553,0,0,0-.279,1.261c.019.366.331.392.607.383.387-.012.426.167.312.474a1.279,1.279,0,0,0-.09.394,18.709,18.709,0,0,1-.748,4.8,1.31,1.31,0,0,0,0,.924m35,.543c.015-.245.032-.4.031-.554,0-.261.114-.642-.2-.713-.343-.078-.4.339-.537.575a1.079,1.079,0,0,0-.1.332c-.155.775-.316,1.549-.454,2.327a4.614,4.614,0,0,0-.042.808c0,.172.009.364.2.451a.446.446,0,0,0,.526-.142,2.086,2.086,0,0,0,.731-1.91c-.085-.415-.112-.841-.154-1.174M22.138,108.42a4.9,4.9,0,0,0,.305,1.923c.242.548.75.37,1.157.465.149.035.243-.066.3-.212a1.671,1.671,0,0,0-.531-1.726.992.992,0,0,1-.53-.943c0-.135-.021-.27-.031-.4-.019-.242-.065-.516-.355-.507s-.3.312-.31.536c-.017.288,0,.579,0,.868m39-2.567a6.289,6.289,0,0,0,.057.751c.037.193.048.5.321.464.224-.034.171-.317.147-.5a6.871,6.871,0,0,1,0-1.043c.052-2.123.908-4.064,1.369-6.093.035-.153.237-.363.014-.455-.238-.1-.38.149-.463.338-.124.281-.129.6-.247.889a21.893,21.893,0,0,0-1.2,5.652m-39-47.208c-.027-.24.052-.536-.281-.565-.285-.025-.377.221-.447.451a.618.618,0,0,0-.052.224,3.3,3.3,0,0,1-.632,1.876,2.658,2.658,0,0,0-.238.525c-.091.339-.336.8.073.981.368.158.7-.207.914-.55.031-.049.046-.107.077-.155.543-.863.387-1.871.585-2.786m.1,55.7c-.017-.077-.03-.153-.05-.228a19.421,19.421,0,0,1-.812-3.02.972.972,0,0,0-.232-.4c-.1-.142-.226-.3-.428-.2a.4.4,0,0,0-.176.459,9.334,9.334,0,0,0,.92,3.27.806.806,0,0,0,.336.389c.276.129.455.081.442-.272m-7.2-20.6c-.056-.216.052-.507-.227-.561-.26-.05-.318.231-.433.4a14.07,14.07,0,0,0-.906,2.382c-.11.25-.242.539.075.723s.527-.071.734-.282c.743-.76.529-1.782.756-2.663m56.211,14.046a.807.807,0,0,0,.232-.038,6.715,6.715,0,0,0,2.24-2.141.234.234,0,0,0-.009-.213.171.171,0,0,0-.258-.03c-.411.359-.992.488-1.352.859a1.58,1.58,0,0,1-1.2.567,4.333,4.333,0,0,0-.743.13.3.3,0,0,0-.264.2c-.039.135.046.22.157.275a2.528,2.528,0,0,0,1.2.394M65.985,104.6c-.01.168-.018.244-.019.322,0,.276-.132.641.31.673s.535-.284.52-.657a3.751,3.751,0,0,1,.145-1.256c.145-.478.268-.964.376-1.452.045-.2.07-.467-.195-.538a.45.45,0,0,0-.576.354,9.256,9.256,0,0,0-.561,2.553m4.108-16.883a.406.406,0,0,0,.005-.137c-.028-.236.1-.591-.2-.654-.237-.05-.3.3-.4.494-.316.553-.113,1.331-.752,1.753-.033.022-.015.145,0,.215.134.53.281,1.053-.211,1.5a.236.236,0,0,0,.027.363c.142.1.243-.012.347-.106a1.844,1.844,0,0,0,.454-1.334c.019-.191-.044-.453.131-.542.636-.324.534-.917.6-1.553m-48.4,6.491c-.039-.127.017-.277-.142-.308-.116-.022-.141.092-.193.174-.813,1.277-.836,2.8-1.282,4.186-.049.151-.056.392.156.448.237.062.255-.175.319-.329a33.765,33.765,0,0,0,.935-3.345c.083-.277.141-.561.207-.826m55.8,7.316c-.089.134-.156.228-.217.326a6.876,6.876,0,0,0-1.207,2.611c-.022.152-.059.33.116.412s.284-.07.389-.179a4.939,4.939,0,0,0,1.15-2.309,1.053,1.053,0,0,0-.231-.861m-4.4,7.309c.266-.044.363-.344.581-.5a10.393,10.393,0,0,0,1.528-1.567.372.372,0,0,0,.057-.525c-.191-.207-.346,0-.489.112a4.494,4.494,0,0,0-.339.316c-.493.489-.987.976-1.473,1.472a.518.518,0,0,0-.175.524c.038.126.144.173.309.162M21.28,64.512c-.258.159-.586.311-.709.612-.115.281-.454.6-.212.891a1.287,1.287,0,0,0,1.058.377.327.327,0,0,0,.3-.46,2.582,2.582,0,0,1-.16-1.079.291.291,0,0,0-.279-.341M85.85,80.483a20.013,20.013,0,0,0-.182,3.955c-.005.168-.049.464.213.449.217-.012.221-.3.223-.481a12.834,12.834,0,0,0-.255-3.923M21.284,66.747c-.681.747-.406,1.594-.386,2.4.005.217.081.467.337.469.335,0,.3-.308.3-.522a5.167,5.167,0,0,0-.253-2.346m34.47,36.808c-.179-.13-.328-.038-.465,0a22.838,22.838,0,0,0-2.7,1.4.2.2,0,0,0-.123.284.279.279,0,0,0,.406.1,10.144,10.144,0,0,0,2.886-1.78M20.523,74.986c0-.185.007-.244,0-.3-.023-.162.051-.408-.162-.443s-.222.221-.3.365a5.476,5.476,0,0,0-.441,2.13c-.014.11-.027.26.113.293.164.039.24-.1.281-.231a5.887,5.887,0,0,0,.514-1.814m2.629,14.737a1.872,1.872,0,0,0,.026.4c.1.346.28.719.678.637s.363-.476.258-.812a2.908,2.908,0,0,1-.089-.334c-.053-.284-.064-.633-.467-.6-.42.037-.409.388-.406.706m43.276-7.176c.131-.053.211-.059.227-.1a11.687,11.687,0,0,1,1.289-2.177.777.777,0,0,0,.116-.264c.042-.159.034-.32-.137-.4-.149-.069-.26.032-.349.138a4.986,4.986,0,0,0-.641,1.3,6.6,6.6,0,0,0-.505,1.5M79.1,67.132a9.479,9.479,0,0,0-.713-2.332c-.056-.147-.036-.43-.273-.351s-.221.354-.108.546a6.236,6.236,0,0,1,.689,2.19c.027.157-.01.425.22.4.25-.027.144-.307.184-.453M29.787,102.588a3.283,3.283,0,0,0,0-.345c-.012-.115-.043-.238-.2-.235a.2.2,0,0,0-.188.188,11.1,11.1,0,0,0-.3,2.226c0,.132.011.295.2.294.143,0,.172-.136.183-.252a14.933,14.933,0,0,0,.307-1.875m44.1-19.2c-.165.186-.236.233-.258.3a10.7,10.7,0,0,0-.243,2.227.213.213,0,0,0,.123.167c.137.031.217-.081.245-.191a7.25,7.25,0,0,0,.134-2.5m3.038-19.893a1.309,1.309,0,0,0,0-.289c-.046-.2-.039-.512-.291-.489-.273.025-.244.338-.251.564a.4.4,0,0,0,.038.167c.178.4.361.8.54,1.2.063.14.128.34.309.262.239-.1.071-.28.01-.434-.129-.323-.538-.543-.351-.976m-4.3,26.149c-.016.124-.094.3.1.321a.322.322,0,0,0,.336-.26c.089-.291.17-.586.239-.882.051-.218.051-.449-.234-.49s-.364.174-.387.4c-.032.3-.04.609-.058.914M21,77.7c.638-.268.6-.775.544-1.285-.013-.113-.057-.238-.192-.261-.177-.029-.236.119-.278.242A1.788,1.788,0,0,0,21,77.7M74.426,56.84c.017.547.3,1.026.6,1.032.169,0,.238-.082.232-.251-.013-.392-.462-1.172-.664-1.132s-.16.225-.169.351m4.936,45.3c-.018-.206-.124-.366-.366-.32a.7.7,0,0,0-.548.727c-.016.184.023.375.275.34.411-.057.577-.347.639-.747m0-32.044.13-.007c-.03-.593-.054-1.187-.095-1.779-.011-.161-.1-.324-.291-.289s-.122.2-.1.332q.176.872.351,1.743M17.926,77.607c-.035-.172.013-.5-.2-.465-.359.068-.325.461-.346.755-.011.156-.033.434.2.38.3-.069.339-.38.337-.67M24.066,105.2a1.975,1.975,0,0,0-.284,1.3.328.328,0,0,0,.12.175c.019.015.13-.029.135-.057a2.255,2.255,0,0,0,.029-1.417M79.355,88.766a9.841,9.841,0,0,0-.413,1.572c0,.113-.008.258.133.287s.179-.116.211-.222a3.527,3.527,0,0,0,.07-1.637M20.512,64.226a2.364,2.364,0,0,0-.181-.953c-.04-.148-.191-.2-.292-.016a.837.837,0,0,0,.473.969M85.3,100.464c-.011-.114-.023-.278-.2-.264-.3.024-.39.3-.468.521-.055.153.154.2.285.2.268-.006.342-.209.387-.456M77.179,65.88c.008.157-.012.34.2.355.194.013.264-.138.262-.3,0-.2-.064-.423-.293-.419-.2,0-.135.235-.169.369m1.579-3.342a1.016,1.016,0,0,0,.356,1.035,1.185,1.185,0,0,0-.356-1.035M75.92,81.677c.028.121-.037.324.138.326.207,0,.172-.211.172-.354,0-.127,0-.312-.175-.3s-.11.206-.135.326" transform="translate(-0.001 -29.485)" fill="#9f7f8e"/>
      <path id="パス_78" data-name="パス 78" d="M744.06,7.02a4.3,4.3,0,0,1-1.132,3.23,15.921,15.921,0,0,1-1.5,1.773,3.554,3.554,0,0,1-3.22,1.229c-.057-.01-.116-.013-.173-.02-1.918-.222-2.664.229-3.724,1.89a6.044,6.044,0,0,0-1.065,2.773c-.034.394-.265.673-.7.593a.841.841,0,0,1-.775-.8,5.762,5.762,0,0,1,.706-3.071c.251-.482.421-1.053.973-1.339.18-.093.1-.278.034-.416a.669.669,0,0,1,.247-.868,3.772,3.772,0,0,1,1.036-.74,2.168,2.168,0,0,0,1.011-.75,14.074,14.074,0,0,1,1.236-1.445c.458-.465.272-1.141.267-1.724,0-.39-.462-.421-.743-.563a3.521,3.521,0,0,0-1.827-.482.694.694,0,0,0-.735.575,8.778,8.778,0,0,1-.449,1.795,1.666,1.666,0,0,1-.855.9,9.612,9.612,0,0,0-2.417,1.354,1.886,1.886,0,0,1-1.99.2,4.152,4.152,0,0,1-2.286-2.364c-.835-2.187-.134-3.841,1.273-5.457A8.939,8.939,0,0,1,732.1.626c.686-.172,1.282-.642,2.044-.571C735.123.148,736.1-.1,737.1.049a7.111,7.111,0,0,1,3.7,1.909,15.025,15.025,0,0,1,2.723,3.065,3.419,3.419,0,0,1,.543,2m-2.591,1.2c0,.116-.007.232,0,.348.018.237-.184.583.08.687.3.118.347-.3.488-.47a2.969,2.969,0,0,0,.1-3.343A21.4,21.4,0,0,0,740.7,3.783a1.818,1.818,0,0,0-1.329-.711c-.229-.022-.549-.277-.679,0s.253.383.432.528a5.584,5.584,0,0,1,2.348,4.614M734.632,4.2a4.743,4.743,0,0,0-.647.091c-.2.057-.463.113-.446.376.018.288.3.273.5.262a6.2,6.2,0,0,1,3.247.632c.126.065.336.228.438-.026.066-.164-.08-.283-.222-.359a10.846,10.846,0,0,0-2.867-.975M731.09,8.378c.172-.023.351.007.426-.167.291-.675.725-1.273,1.047-1.929.184-.374-.11-.641-.416-.766-.368-.151-.495.163-.5.438a4.359,4.359,0,0,1-.774,1.966c-.164.293-.169.481.221.459m2.974-6.422a16.132,16.132,0,0,1,2.219-.185c.258-.007.58-.073.583-.357,0-.323-.328-.413-.607-.392a4.991,4.991,0,0,0-2.311.423c-.224.134-.722.031-.631.418.075.321.472.03.748.093m4.007,10.057c.239-.062.658.092.673-.288a.594.594,0,0,0-.571-.608c-.3-.008-.867.421-.8.625.11.342.435.227.7.271" transform="translate(-641.183 0)" fill="#9f7f8e"/>
      <path id="パス_79" data-name="パス 79" d="M430.181,392.141a4.43,4.43,0,0,1-.808,2.856,1.087,1.087,0,0,1-.886.475,2.5,2.5,0,0,0-1.2.375,2.173,2.173,0,0,1-2.452-.36,4.27,4.27,0,0,1-1.26-3.629c.009-.27,0-.541-.011-.811-.029-.5-.233-.619-.661-.345a1.082,1.082,0,0,0-.636,1.135.745.745,0,0,1-.325.85,1.067,1.067,0,0,0-.318,1.062c.043.472-.115.874-.583.911s-.691-.354-.75-.8a.957.957,0,0,1-.028-.23c.1-.849.025-1.577-.944-1.937-.446-.166-.483-.61-.332-1.043a3.451,3.451,0,0,0,.2-1.544c-.025-.218-.03-.468.28-.464.283,0,.618,0,.652.409a1.406,1.406,0,0,0,.106.676.809.809,0,0,0,.761.441c.521-.014,1.3-1.1,1.187-1.607a6.06,6.06,0,0,1-.36-1.279c0-.2-.115-.473.144-.567a.714.714,0,0,1,.764.121,1.334,1.334,0,0,1,.3.352,1.481,1.481,0,0,0,1.922.733,1.841,1.841,0,0,1,.973.032,2.919,2.919,0,0,0,1.034.1,2.58,2.58,0,0,1,2.566,1.619c.165.388.5.695.541,1.145s.085.885.128,1.328m-2.6-.1c0-.216,0-.294,0-.371,0-.572-.257-.925-.656-.915a.842.842,0,0,0-.752,1.038,3.539,3.539,0,0,0,.383,1.152.6.6,0,0,0,.66.259c.274-.025.238-.249.26-.44.033-.287.083-.573.105-.723" transform="translate(-370.155 -341.656)" fill="#9f7f8e"/>
      <path id="パス_80" data-name="パス 80" d="M237.324,438.687c.213-.634-.251-.973-.785-1.268-.2-.112-.428-.187-.62-.315a.476.476,0,0,1-.153-.622c.105-.266.312-.247.533-.176a.415.415,0,0,0,.11.035c.32,0,.674.462.9.159a1.779,1.779,0,0,0,.409-1.406c-.092-.456-.19-.911-.279-1.367-.049-.254-.081-.525.2-.666a.5.5,0,0,1,.627.151c.243.273.478.2.774.045a7.82,7.82,0,0,1,2.362-.929,3.184,3.184,0,0,1,3.729,2.377,3.123,3.123,0,0,1-.209,2.952c-.274.358-.315.866-.592,1.254a1.845,1.845,0,0,1-2.42.877c-.924-.271-1.818-.635-2.77-.828-.272-.055-.378-.013-.4.213-.044.409-.173.823.3,1.144.392.267.019.419-.192.5a1.116,1.116,0,0,1-1.363-.775,3.837,3.837,0,0,1-.158-1.356m3.829-2.174a1.833,1.833,0,0,0,.394,1.254c.193.255.485.333.672.026a2.4,2.4,0,0,0,.362-2.092.729.729,0,0,0-.669-.469c-.319-.056-.44.14-.54.4a1.725,1.725,0,0,0-.219.88" transform="translate(-208.283 -381.974)" fill="#9f7f8e"/>
      <path id="パス_81" data-name="パス 81" d="M753.629,188.765a3.443,3.443,0,0,1-.549,2.263,1.761,1.761,0,0,1-.332.4c-1.037.758-3.733.9-4.716-.394a3.542,3.542,0,0,1-.4-3.512.7.7,0,0,1,.215-.269,28.757,28.757,0,0,1,2.417-1.664c1.18-.569,1.892-.208,2.685.828a3.119,3.119,0,0,1,.677,2.352" transform="translate(-660.365 -163.751)" fill="#9f7f8e"/>
      <path id="パス_82" data-name="パス 82" d="M137.54,674.409c.035-.251-.1-.553.417-.549.449,0,.4-.374.2-.685-.068-.112-.2-.21-.116-.362a.214.214,0,0,1,.255-.084c.192.037.22.184.241.347a11.031,11.031,0,0,0,1.166,3.973c.06.109.1.227-.027.306a.229.229,0,0,1-.313-.066c-.3-.495-.84-.872-.783-1.552a.549.549,0,0,0-.518-.644c-.385-.063-.6-.26-.527-.683" transform="translate(-121.523 -594.435)" fill="#9f7f8e"/>
      <path id="パス_83" data-name="パス 83" d="M393.714,588.122c-.564.009-.6-.035-.591-1.2,0-.411-.038-.916.582-.946a1.5,1.5,0,0,1,1.266,1.166c.01.395-.733.977-1.257.985" transform="translate(-347.374 -517.78)" fill="#9f7f8e"/>
      <path id="パス_84" data-name="パス 84" d="M369.945,537.393c-.383-.013-.724.009-.705-.456.016-.4.187-.677.625-.664.416.013.827.192.833.627.006.476-.444.494-.752.493" transform="translate(-326.27 -473.865)" fill="#9f7f8e"/>
      <path id="パス_85" data-name="パス 85" d="M241.893,278.881c.049-1.323.547-2.563.69-3.869a8.1,8.1,0,0,1-.69,3.869" transform="translate(-213.743 -243.008)" fill="#9f7f8e"/>
      <path id="パス_86" data-name="パス 86" d="M422.762,268.389c-.021.113-.012.262-.18.241a.272.272,0,0,1-.267-.257.251.251,0,0,1,.246-.271c.19-.009.188.153.2.286" transform="translate(-373.169 -236.903)" fill="#9f7f8e"/>
      <path id="パス_87" data-name="パス 87" d="M626.122,352.8v-1.156c.357.428.187.795.181,1.149l-.181.007" transform="translate(-553.259 -310.724)" fill="#9f7f8e"/>
      <path id="パス_88" data-name="パス 88" d="M628.244,371.384a2.7,2.7,0,0,1,.077,1.571,3.605,3.605,0,0,1-.077-1.571" transform="translate(-555.094 -328.165)" fill="#9f7f8e"/>
    </g>
  </g>
</svg>
