<svg xmlns="http://www.w3.org/2000/svg" xmlns:xlink="http://www.w3.org/1999/xlink" width="141.21" height="405.037" viewBox="0 0 141.21 405.037">
  <defs>
    <clipPath id="clip-path">
      <rect id="長方形_99" data-name="長方形 99" width="141.21" height="405.037" transform="translate(0 0)" fill="none"/>
    </clipPath>
  </defs>
  <g id="グループ_70" data-name="グループ 70" transform="translate(0 0.001)">
    <g id="グループ_69" data-name="グループ 69" transform="translate(0 -0.001)" clip-path="url(#clip-path)">
      <path id="パス_106" data-name="パス 106" d="M47.447,268.984a.527.527,0,0,0-.623-.413c-.7.065-.757-.257-.679-.832a24.277,24.277,0,0,0,.029-4.343c-.019-.433-.188-.48-.57-.477-.705,0-1.411-.075-2.111-.12.069.322-.011.431-.345.447-.422.021-.239.368-.251.548a48.456,48.456,0,0,1-.911,4.908.657.657,0,0,1-.267.4,3.648,3.648,0,0,1,.144-2.036c.183-1.127.437-2.241.627-3.367a1.169,1.169,0,0,0-1.419-1.153c-.278.091-.2.34-.247.543a43.206,43.206,0,0,1-1.163,5.242,3.657,3.657,0,0,1-.643,1.374c-.281-.463.048-.773.141-1.073.578-1.863.855-3.791,1.3-5.681.13-.555-.042-.684-.5-.809a4.5,4.5,0,0,1-1.579-.443,21.758,21.758,0,0,1-2.15,8.449.986.986,0,0,1,.064-1.033,25.766,25.766,0,0,0,1.6-6.845,1.01,1.01,0,0,0-.707-1.2c-2.752-1.075-5.212-2.73-7.866-4-.028-.013-.058-.024-.084-.039a3.293,3.293,0,0,0-1.5-.449c-.852-.018-.526.824-.627,1.2-.648,2.426-1.628,4.728-2.466,7.082-.059.165-.031.385-.355.4a12.2,12.2,0,0,1,1.067-3.321,38.955,38.955,0,0,0,1.34-4.625,7.11,7.11,0,0,0-.064-1.647,30.824,30.824,0,0,1,1.249-6.718,147.221,147.221,0,0,1,5.093-15.486c1.458-4,2.773-8.062,4.305-12.036a103.839,103.839,0,0,1,7.055-15.186c1.275-2.181,2.739-4.248,3.926-6.484a10.55,10.55,0,0,0,.75-2.162c.615-2.2,1.2-4.4,1.678-6.632a75.716,75.716,0,0,1,1.933-7.723c.711-2.171,1.458-4.329,2.224-6.481a17.436,17.436,0,0,0,.617-2.3L53.626,175.6c.3.347.55-.084.8.059,0,.049.011.125-.016.146a1.486,1.486,0,0,1-.925.366c-.25,0-.538-.049-.64-.3-.128-.317.2-.4.385-.527a5.261,5.261,0,0,1,1.232-.813c1.211-.4,1.412-1.32,1.476-2.4.026-.441-.019-.568-.421-.293-.638.436-1.277.87-1.911,1.312a.891.891,0,0,0-.367.51c-.038.138.372.311-.021.392a.547.547,0,0,1-.574-.227c-.158-.219.01-.352.141-.468a.91.91,0,0,0,.287-1.132c-.2-.668.465-1.2.974-1.555.978-.681-.03-.955-.245-1.312-.313-.519-.683-.347-.985.123a6.076,6.076,0,0,1-.721.846c-.328.349-.606.694-.049,1.2-.95.032-.888-.454-.647-.887a8.567,8.567,0,0,1,1.123-1.581c.418-.461.287-.708-.106-1.1-2.409-2.4-5.029-4.56-7.649-6.72-.167-.138-.34-.27-.5-.416-1.054-.965-1.053-.966-2.473-.234a1.339,1.339,0,0,0,.19.16c.292.163.889.2.736.6-.185.487-.486-.155-.808-.14-.771.034-1.535.045-2.308.149s-1.686.491-2.288-.465c-.044-.07-.232-.074-.351-.069-1.967.084-3.727-.777-5.569-1.243-2.624-.663-5.1-1.828-7.786-2.312-.725-.131-.917-.449-.515-1.159a76.713,76.713,0,0,0,3.813-8.018,59.482,59.482,0,0,0,2.5-8.114c1.23-4.7,2.242-9.443,3.288-14.182.249-1.127.384-2.279.58-3.469.608.317.059.821.347,1.269.871-1.681,1.716-3.3,2.546-4.92.322-.63-.34-.593-.6-.805-.426-.35-.5.072-.623.337-.97,2.174-2.484,4.041-3.487,6.2-.108.231-.318.476-.573.346-.338-.172-.071-.445.047-.624,1.086-1.657,2.006-3.4,2.922-5.157.276-.53.118-1.188.6-1.621.019-.017.031-.078.021-.085a10.959,10.959,0,0,0-1.871-.7c-.331-.16-.449.061-.558.292-1.018,2.156-2.3,4.164-3.5,6.216-.108.184-.193.381-.306.561-.086.136-.233.249-.385.148a.313.313,0,0,1-.07-.421,15.694,15.694,0,0,1,.816-1.448,50.491,50.491,0,0,0,2.879-4.969c.25-.467.215-.665-.3-.872-1.6-.648-1.623-.689-2.537.772-.739,1.182-1.72,2.187-2.406,3.407a2.883,2.883,0,0,0-.355.858.375.375,0,0,1-.49.306c-.27-.116-.2-.366-.079-.554.59-.906,1.18-1.812,1.794-2.7.662-.96,1.35-1.9,2.058-2.893l-1.385-.489c-.129-.046-.234-.141-.171-.269a.361.361,0,0,1,.276-.183,3.189,3.189,0,0,1,1.077.255c.624.356.8-.178,1.1-.469.054-.052.1-.213.066-.241a6.442,6.442,0,0,0-1.556-.77c-.387-.2-.572.135-.747.364-1.457,1.914-2.927,3.82-4.333,5.772-.419.582-1.124,1-1.179,1.825a.26.26,0,0,1-.182.17c-.135.016-.218-.084-.247-.218-.091-.426.2-.685.414-.987,1.547-2.192,3.345-4.2,4.805-6.456.395-.611.393-.793-.366-.923a11.455,11.455,0,0,0-4.954.27c-.873.233-.9,1.1-1.259,1.7a3.946,3.946,0,0,1-.8,1.261A21.536,21.536,0,0,1,22.4,110.4c.845-1.3.844-1.3.223-2.811a10.388,10.388,0,0,0-2.269,3.283c-.414-.043-.081-.415-.362-.609-.319.854-1.263,1.4-1.049,2.48.034.172-.092.221-.207.2-.18-.029-.418-.09-.364-.327a3.211,3.211,0,0,1,.347-.946,34.72,34.72,0,0,1,3-4.443c.21-.25.261-.306-.027-.541a6.051,6.051,0,0,0-1.811-.709c-.24-.1-.315.243-.432.4a46.526,46.526,0,0,0-3.823,5.415.53.53,0,0,1-.543.32c.778-2.49,3.079-4.02,3.764-6.462-2.165-.626-1.669-.735-3.209,1.015-.634.72-1.275,1.434-1.88,2.178-.239.293-.546.532-.552,1.021a.638.638,0,0,1-.81.546c-.494-.2-.016-.49.09-.726a21.607,21.607,0,0,1,3.165-4.529c-1.378-.7-1.694-.6-2.634.577-1.217,1.519-2.485,3-3.735,4.488a.654.654,0,0,1-.814.256,71.927,71.927,0,0,0,4.639-5.617c-.309-.314-.444-.028-.624.109-.4.3-.719.253-.757-.281-.028-.383-.261-.348-.5-.4a18.208,18.208,0,0,1-3.237-.8c-.206-.083-.365-.142-.58.054-1.478,1.351-2.977,2.678-4.332,4.157a1.466,1.466,0,0,0-.556.909c-.039.478-.461.344-.962.338a42.231,42.231,0,0,1,5.647-5.723c-.768-.308-1.528-.615-2.29-.916-.193-.076-.493-.084-.367-.394.084-.208.215-.464.538-.407a4.178,4.178,0,0,0,3.64-.931C12.2,97.664,16.387,95.975,20.384,94a44.315,44.315,0,0,0,10.573-7.22c1.452-1.343,3.2-2.329,4.562-3.787.841-.9,1.729-1.761,2.545-2.684,2.194-2.484,4.811-4.522,7.153-6.846,1.353-1.343,2.479-2.909,3.869-4.225.807-.765,1.64-1.5,2.5-2.21.45-.369.382-.642-.095-.768a.772.772,0,0,1-.632-.795,34.958,34.958,0,0,1,.052-4.63,3.284,3.284,0,0,1,1.675-2.321,8.843,8.843,0,0,0,2.472-2.661c1.048-1.673,2.267-3.222,3.391-4.84.521-.751.7.472,1.137.114-1.729,1.687-2.266,3.921-3.1,6.015.676.307,1.034.13,1.275-.551a5.306,5.306,0,0,1,1.094-1.815c.125-.137.359-.228.2-.533-.247-.468-.268-.83.448-.507.283.128.277-.169.358-.3.529-.833,1.043-1.675,1.6-2.569-.729-.249-1.371-.8-2.207-.333-.126.071-.326.062-.341-.159a.347.347,0,0,1,.26-.345,2.956,2.956,0,0,1,1.716-.055,17.415,17.415,0,0,0,2.46.372,2.932,2.932,0,0,0-1.252-.786c-.151-.054-.285-.179-.206-.352a.427.427,0,0,1,.292-.159c1.186-.2,2.371-.4,3.561-.56.381-.051.716,0,.75-.553a.423.423,0,0,1,.676-.358c.386.213.164.311-.044.565-.3.361.159.329.352.338,1.517.072,3.007.358,4.509.545a23.7,23.7,0,0,1,3,.537,1.173,1.173,0,0,0,1.609-.754,4.718,4.718,0,0,1,1.141-1.785c.217-.2.264-.379-.022-.591-.561-.415-1.1-.861-1.686-1.324-.033,1.356.152,1.564,1.164,1.383-.118.471-.292.637-.881.564a12.028,12.028,0,0,1-2.461-.229,1.72,1.72,0,0,1-1.214-2.445,3.11,3.11,0,0,0-.368-2.632c-.273-.461-.557-.917-.849-1.4.57-.194.612.371,1.025.432a11.21,11.21,0,0,0-.082-3.174,5.542,5.542,0,0,1,.088-3.03,85.125,85.125,0,0,1,2.686-9.345,12.286,12.286,0,0,1,1.761-3.351,1.937,1.937,0,0,1,1.589-.858,6.643,6.643,0,0,0-2.165,2.851c.44.209.524-.448,1.021-.239-1.271,1.745-1.529,3.841-2.187,5.919a5.794,5.794,0,0,1,1.273-.177c.465.041.366-.41.439-.665a45.519,45.519,0,0,1,1.45-4.685,2.7,2.7,0,0,1,1.646-1.756c-1.823,2.241-2.1,4.825-2.914,7.262,1.184-.125,1.181-.125,1.671-1.928.615-2.265,1.527-4.439,2.056-6.73.047-.205.1-.454.386-.435a.66.66,0,0,1,.417.165c.276.308-.178.289-.238.462-.354,1.019-.743,2.026-1.081,3.05-.55,1.666-1.07,3.342-1.609,5.037.729.112,1.11-.09,1.3-.9.665-2.792,1.344-5.587,2.209-8.321a5.809,5.809,0,0,1,1.226-2.3c-.269,3.788-.378,7.375-1.884,10.8a1.228,1.228,0,0,0,1.272-.785A16.638,16.638,0,0,0,84.665,19a11.088,11.088,0,0,0-.585-2.607c-.069-.206-.215-.419.073-.549.252-.114.256.2.379.265a4.245,4.245,0,0,1,1.916,2.324,8.811,8.811,0,0,1,.11,5.629,27.328,27.328,0,0,1-1.49,3.745c.358.146.526.01.633-.254a18.132,18.132,0,0,0,1.789-5.912,13.067,13.067,0,0,0-.984-5.327c-.033-.086-.1-.16-.127-.247-.115-.346-.336-.679-.167-1.066.061-.14.171-.158.276-.04.3.34.9.181,1.023.941.3,1.82.89,3.591,1.264,5.4a15.746,15.746,0,0,1,.427,5.511c-.063.429-.071.814.532.84.52.022.869-.025.906-.711a13.245,13.245,0,0,0-1.1-6.5c-.512-1.086-.945-2.21-1.415-3.316a.862.862,0,0,1,.189-1.071c.956,2.747,2.554,5.216,2.821,8.148a10.137,10.137,0,0,1-.077,2.871c-.036.187-.184.461.123.551.354.1.387-.2.455-.438a9.661,9.661,0,0,0-.535-7.025,26.832,26.832,0,0,0-2.357-3.977c-.191-.27-.434-.53-.3-.9a.552.552,0,0,1,.561.3,20.225,20.225,0,0,1,2.966,5.214,9.767,9.767,0,0,1,.141,6.284c-.132.428-.22.632.366.722.512.078.739.507.631,1.063a1.113,1.113,0,0,0,.035.9c-.388.253-.37.646-.409,1.062,2.553-1.209,3.385-8.229,1.427-11.2.145.629.275,1.092.357,1.564.488,2.79-.175,5.45-.93,8.1-.073.256-.166.467-.473.479,1.154-3.964,1.575-7.924-.038-11.88a8.956,8.956,0,0,0-3-4.011c-.167-.122-.4-.3-.41-.462-.023-.364.442-.066.588-.385-1.242-.964-2.278-2.243-3.907-2.685a2.076,2.076,0,0,0-1.746.211,8.539,8.539,0,0,1-3.138,1.037c-.221.033-.429.1-.569-.145a7.977,7.977,0,0,1,3.71-1.681,4.874,4.874,0,0,0,2.271-1.532c1.561-1.433,3.207-2.8,4-4.9a2.28,2.28,0,0,0-.56-2.647c-.555-.56-1.46-.189-1.868.778-.49-.489-.046-.8.229-1.063A1.134,1.134,0,0,1,90.1.156,2.519,2.519,0,0,1,91.281,3.6,10.953,10.953,0,0,1,88.81,7.03a18.978,18.978,0,0,1-2.8,2.548c3.388,1.292,5.571,3.783,7.267,6.79a14.892,14.892,0,0,0,2.295,2.641,14.4,14.4,0,0,0-1.762-3.386,2.955,2.955,0,0,1,1.678,1.656c.873,1.617,1.087,3.477,1.857,5.126A11.407,11.407,0,0,1,98.26,27a5.61,5.61,0,0,1-1.106,3.657,1.023,1.023,0,0,1-1.231.495A4.394,4.394,0,0,0,97.747,27.3a8.572,8.572,0,0,0-.856-4.411c-.107.894-.132,1.786-.257,2.669a6.69,6.69,0,0,1-2.267,4.528c-.533.431-.737.772-.054,1.228-.714.6-2.285.009-2.095,1.641.33-.012.394-.382.636-.53.239.638.158.894-.544,1.736-.623.747-.559.923.418,1.13a3.35,3.35,0,0,0,2.317-.489,1.178,1.178,0,0,1,.34-.115c.04-.007.093.063.263.188C92,36.762,90.978,40.148,90.286,43.8c-.607-.229-.418-.813-.3-1.322a17.664,17.664,0,0,1,2.9-6.162c.088-.125.181-.247.3-.408-.474-.273-1.052-.184-1.472-.534-.186-.154-.414-.061-.594.092a3.326,3.326,0,0,1-2.949.652c-.2-.038-.417-.147-.569.125a.443.443,0,0,1-.289.186,4.859,4.859,0,0,1-2.231-1.608c-.015-.2-.009-.271-.219-.26-.489.024-.51-.349-.556-.686a5.108,5.108,0,0,0-2.14-3.228c-.672-.55-1.151-.45-1.755.3-.11-.242.2-.663-.325-.718-.352-.037-.349-.06-.764,1.143a1.188,1.188,0,0,1-.056-.783c.049-.334.059-.6-.376-.693-.412-.091-.549.106-.647.44a19.2,19.2,0,0,0-1.051,4.672,9.566,9.566,0,0,1-.241-1.7c-.454.567-.021,1.314-.385,2a6.669,6.669,0,0,1-.2-2.084c-.823,1-.793,2.457.088,4.247-.6.236-.637-.47-1.049-.6a5.168,5.168,0,0,0-.134,3.39c.138.886.332,1.763.445,2.652.049.387.225.475.562.589a11.543,11.543,0,0,1,2.623.8c.286.179.594.321.705.682.034.11.132.3.171.294,1.482-.276,2.148,1.442,3.643,1.4a20.749,20.749,0,0,0,3.915-.409,4.682,4.682,0,0,0,2.088-.91c.349-.291.669-.018,1.176.02a61.552,61.552,0,0,1-5.716,3.51c-.535.248-1.225.851-1.688-.2.828.15,3.366-.962,4.266-1.913-2.432.567-4.746.764-7.127-.477.367.532.865.651,1.069,1.091-.293.268-.522-.194-.836-.053.428.809,1.607.55,1.928,1.432-.544.328-.919-.092-1.348-.392-1.271-.888-1.6-.836-2.557.358-.919,1.143-.916,1.135.408,1.627.275.1.691.135.71.5.021.4-.443.219-.648.38-.142.112-.3.2-.525.337a37.393,37.393,0,0,1,4.29,1.795c1.061.6,2.459.6,3.176,1.878a9.559,9.559,0,0,1,1.518,3.7c.094.949-.549,1.489-1.076,2.054a1.878,1.878,0,0,0-.479,2.126,22.483,22.483,0,0,0,1.711,4.75,4.132,4.132,0,0,1,.3,3.148c-.21.808-.039,1.67-.275,2.486-.1.343.173.507.413.647a4.584,4.584,0,0,1,1.8,5.766,1.11,1.11,0,0,0,.159,1.1c.937,1.491,1.834,3.007,2.722,4.528A5.7,5.7,0,0,0,94.9,87.458c.56.343.759.682.479,1.342a19.238,19.238,0,0,0-1.138,5.046c-.034.258-.179.414.287.425.337.008.2.394-.027.554a1.545,1.545,0,0,0-.242,2.342c.622.59.519,1.353.544,2.083a3.366,3.366,0,0,1-.106,1.1c-.654,2.082.331,3.563,1.73,4.915.205.2.543.325.527.706a4.988,4.988,0,0,1-2.708-2.9c-.2-.517-.269-.976-1.007-1.19-.983-.285-1.571-2.579-.828-3.423-.431,1.149.3,1.527.824,1.981,0-.72.239-1.563-.051-2.137-.568-1.125.3-1.959.345-2.946.033-.766-.13-1.048-.76-1.277a95.766,95.766,0,0,0-9.557-2.956,16.418,16.418,0,0,1-6.634-2.9c-2.183-1.776-1.967-2.541-1.169-4.464a5.53,5.53,0,0,1,.312-.673c.288-.495.175-.7-.413-.748a24.024,24.024,0,0,1-5.364-.995c-2.984-.967-5.378-2.59-6.539-5.736a4.54,4.54,0,0,0-.814,1.621,100.581,100.581,0,0,1-6.741,11.837,53.2,53.2,0,0,0-4.891,10.16c-1.625,4.572-2.788,9.3-4.645,13.794a21.772,21.772,0,0,0-.694,3.057,3.244,3.244,0,0,1-.759,1.564c-.381-.283.208-.57-.166-.924-.616,1.394-1.756,2.437-2.176,3.907-.446,1.56-.874,3.124-1.471,4.649.334-2.341,1.061-4.591,1.593-6.9-1.451,2.133-2.048,4.686-3.4,6.869a62.989,62.989,0,0,1,2.494-6.578c-.75.425-.75,1.051-1.041,1.487-.337.505-.112,1.46-1.156,1.432-.089,0-.183.428-.288.651q-.839,1.777-1.684,3.551l-.3-.134,2.772-6.3c-1.118-.374-1.423-.309-2,.56a27.53,27.53,0,0,0-1.936,3.758,11.734,11.734,0,0,1-.674,1.089,3.455,3.455,0,0,1,.393-1.839q.889-1.682,1.753-3.376c.128-.252.4-.555-.135-.714-.342-.1-.642-.372-.918.161a29.43,29.43,0,0,1-2.247,4.044c-1.648,2.227-1.621,4.9-2.21,7.394a171.925,171.925,0,0,1-4.543,17.089,44.443,44.443,0,0,1-2.625,5.924,27.6,27.6,0,0,0-1.052,2.767c-.158.4-.137.675.476.8,1.693.335,3.28,1.085,4.949,1.487,1.855.446,3.587,1.32,5.53,1.472.709.056,1.393.338,2.141.4a4.948,4.948,0,0,0,3.563-1.5,47.3,47.3,0,0,1,7.463-4.784c1.3-.7,2.5-1.588,3.735-2.408a26.723,26.723,0,0,1,4.158-2.141,21.46,21.46,0,0,1,4.715-1.852c.521-.094.1-.469.046-.654a62.09,62.09,0,0,0-4.322-10.529,31.187,31.187,0,0,1-2.428-8.808,55.769,55.769,0,0,1,.312-17.612,18.783,18.783,0,0,1,1.638-5.583c.6-1.206,1.325-1.734,2.333-1.606-.125.623-.725.732-1.124.96a1.867,1.867,0,0,0-1.006,1.551,29.408,29.408,0,0,0,1.893,13.189,38.086,38.086,0,0,0,2.944,6.77l.025-.018c-.449.182-.621-.138-.772-.448-.283-.583-.57-1.166-.812-1.767a44.473,44.473,0,0,1-3.2-9.825,27.876,27.876,0,0,1-.5-6.535c-.379.2-.372.553-.432.832a54.018,54.018,0,0,0-.941,19.613,30.5,30.5,0,0,0,2.56,9.152,102.493,102.493,0,0,1,4.761,11.536c.087.247.092.513-.2.451-1.207-.255-1.9.373-2.578,1.252-1.078,1.391-2.227,2.732-3.416,4.029a.93.93,0,0,0-.071,1.4,35.116,35.116,0,0,1,4.224,7.381c.368.974.644,1.768,1.9,1.318.014,0,.058.076.088.118-.05.2-.237.152-.366.215-.249.121-.781,0-.69.394.079.343.11.949.71.932.3-.008.458.287.77.226.211-.041.55-.134.6.23.041.3-.293.353-.464.517-.232.222-.852.074-.742.528.131.541.03,1.368,1.054,1.3a1.2,1.2,0,0,1,1.147.785c-.236-.058-.352-.074-.459-.114-1.085-.407-1.142-.367-1.036.754.035.369.072.738.1,1.107.013.181-.064.434.125.512,1.353.552,1.793,1.779,2.157,3,1.458,4.906,1.037,9.848.18,14.789-.055.315-.086.631-.585.307a3.075,3.075,0,0,0-1.306-.392,5.2,5.2,0,0,0-3.887.778c-.262.2-.667.464-.865.062-.183-.372.344-.451.572-.581a7.357,7.357,0,0,1,5.106-.619c.41.074.567.069.589-.367a13.238,13.238,0,0,0,.1-3.67c-.056-.245-.121-.647.1-.673.867-.1.483-.727.519-1.139a18.553,18.553,0,0,0-.092-3.243c-.2-2.306-.353-4.632-1.587-6.686-.8-1.331-1.123-1.4-2.664-1.016a15.008,15.008,0,0,0-4.224,2.051.732.732,0,0,0-.364.488c-.8,3.052-2.037,5.96-2.946,8.974-1.413,4.69-2.286,9.509-3.3,14.293a89.827,89.827,0,0,0-1.683,12.857c-.376,5.876-.537,11.761-.765,17.644-.213,5.487-.4,10.974-.675,16.46-.269,5.4-.116,10.815-.049,16.223.019,1.54.036,1.539,1.466,1.126.03-.009.084.062.137.1a.884.884,0,0,1-.74.48c-.831.181-.955.7-.851,1.428a7.392,7.392,0,0,1,.09,1.752,2.634,2.634,0,0,0,1.553,3,66.277,66.277,0,0,0,9.4,4.115,58.113,58.113,0,0,1,8.2,3.133,42.653,42.653,0,0,0,10.275,3.9,55.932,55.932,0,0,1,5.915,1.567c.453.161.985.2,1.3.682a71.5,71.5,0,0,0-7.885-1.862c1.865.908,3.741,1.765,5.657,2.522a26.456,26.456,0,0,0,3.974,1.49c.595.132.652-.371.958-.472.58-.191.008.957.745.791a.28.28,0,0,1,.092.012,26.775,26.775,0,0,0,5.731.362c.689-.05,1.4.028,1.559-.906.029-.169.178-.215.339-.261a53.334,53.334,0,0,0,7.329-3.052c4.583-2.083,9.3-3.848,13.9-5.89.95-.422,1.916-.576,1.4-1.946a.216.216,0,0,1,.134-.3c.209-.066.27.107.319.246.071.2.1.416.17.619.072.219.073.537.459.406.3-.1.614-.2.495-.633a5.925,5.925,0,0,1-.175-.623,5.255,5.255,0,0,1-.2-2.455c.065-.212.1-.478.4-.341.158.072.381.179.259.488-.395,1,.123,1.92.315,2.865.073.357.269.211.463.063,1.348-1.029,1.442-1.6.491-3.066a5.707,5.707,0,0,1-.333-.557c-.485-.972-.532-1.341-.264-2.051.434.586.291,1.428.888,2,.093-.182.21-.3.193-.391-.354-1.822-.352-3.681-.578-5.514q-1.2-9.77-2.513-19.527c-.605-4.46-.955-8.952-1.735-13.39-.756-4.3-1.254-8.646-2-12.953-.759-4.365-1.866-8.663-2.329-13.09-.329-3.154-.921-6.284-1.254-9.445-.262-2.488-.54-4.976-.882-7.453-.541-3.917-1.184-7.821-1.707-11.74q-.741-5.556-1.94-11.026c-.349-1.6-.821-3.183-1.008-4.8-.449-3.884-2.1-7.4-3.188-11.09a.971.971,0,0,0-1.253-.731c-.84.156-1.7.283-2.547.406-2.362.341-4.665.991-7.044,1.259-1.469.165-2.948.179-4.417.389-1.095.157-2.113.562-3.224.7a34.3,34.3,0,0,0-5.407.63c-.626.179-.756-.2-.637-.732l-.017.029a35.685,35.685,0,0,0,8.04-.944c2.17-.523,4.434-.357,6.625-.759,2.066-.379,4.127-.786,6.193-1.163s4.173-.488,6.2-1.06c.415-.117.95.41,1.14-.065.113-.284-.261-.777-.443-1.164-1.081-2.294-1.2-4.841-1.9-7.233-.314-1.064-.574-2.145-.873-3.214-.068-.244-.077-.48-.452-.6-1.477-.461-1.869-1.293-1.488-2.827.066-.264.441-.586.088-.825a1.071,1.071,0,0,0-1.07.009,2.04,2.04,0,0,0-1.181,1.027c.1-1.258.783-1.607,2.874-1.488-.374-1.651-.649-3.313-1.137-4.91A75,75,0,0,1,98.08,118.4c-.082-.411-.12-.7-.709-.707-.658,0-.972-.582-1.145-1.17a8.308,8.308,0,0,1-.218-2.451c-.477.148-.271.74-.716.855a2.614,2.614,0,0,1,1.458-2.48.836.836,0,0,0,.427-.948,12.294,12.294,0,0,0-.314-1.725c-.1-.433-.295-.855-.007-1.32.091-.148-.186-.547.252-.5.331.037.233.361.248.6a10.546,10.546,0,0,0,1.025,4.795,3.556,3.556,0,0,1,.216,3.22A2.354,2.354,0,0,0,98.464,118c.756,4.44,1.956,8.779,3,13.155a2.531,2.531,0,0,0,.746,1.036c.612.7,1.2,1.414.329,2.329-.244.258-.067.55,0,.792.836,2.882,1.421,5.823,2.135,8.733a16.9,16.9,0,0,0,1.336,3.051c.274.58.248.8-.5.961-1.258.27-2.508-.1-3.778.153,1.2,1.821,1.348,4.015,2.127,6a30.2,30.2,0,0,1,1.448,5.814c.509,2.851,1.175,5.678,1.752,8.521.855,4.213,1.247,8.494,1.964,12.726.548,3.231,1.053,6.471,1.337,9.735.445,5.1,1.206,10.169,1.9,15.238.564,4.093,1.478,8.139,2.252,12.2.555,2.913,1,5.843,1.387,8.782.658,4.987,1.266,9.981,2.019,14.956.54,3.571.838,7.178,1.333,10.757.732,5.291,1.352,10.593,1.892,15.906a4.117,4.117,0,0,0,.755,2.53c.337.381-.236.8-.029,1.358.674,1.819,1.18,3.7,1.689,5.58a3.047,3.047,0,0,1-.015,2.28c-.4-2.606-1.438-5.017-2.1-7.535-.173-.663-.388-.706-.785-.233-.328.39-1.06.714-.328,1.4.053.049.484.695-.262.673-.426-.012-.214.228-.142.414.568,1.456,1.133,2.914,1.746,4.491.355-.5.082-.986.363-1.637.092,1.157.163,2.052.235,2.948.016.206.129.48-.189.52-.249.031-.353-.215-.435-.416-.673-1.657-1.348-3.314-2.01-4.976-.183-.459-.312-.939-.488-1.4-.085-.223-.05-.658-.5-.439-.317.155-.72.3-.564.809q.981,3.222,1.957,6.446a6.154,6.154,0,0,1,.4,2.87c-.879-3.083-2.145-6.033-2.91-9.216a1.466,1.466,0,0,0-.9,1.883c.7,2.679,1.337,5.378,2.154,8.027.067.216.182.485-.054.565-.333.113-.367-.252-.436-.463a74.688,74.688,0,0,1-2.179-7.944c-.151-.716-.365-.8-.918-.421a1.651,1.651,0,0,1-.421.191c-.806.265-.945.719-.667,1.54.8,2.361,1.293,4.817,2.17,7.157.035.093-.024.222-.155.363-1.317-2.606-1.918-5.456-2.8-8.274-.2.116-.324.193-.452.261-1.764.944-1.792.949-1.406,2.953.49,2.544,1.049,5.074,1.791,7.559a.8.8,0,0,1-.023.273c-.84-.5-2.077-5.436-2.428-9.646-1.061.412-2.107.846-3.173,1.22-.493.173-.5.425-.356.846.889,2.551,1.437,5.247,3.305,7.42-.71-.066-1.177-.571-1.736-1.687a31.643,31.643,0,0,1-2.008-5.374c-.182-.625-.362-.884-1.052-.533-1.129.574-2.3,1.071-3.467,1.566-.355.15-.465.327-.385.7a15.576,15.576,0,0,0,2.611,6.566,5.84,5.84,0,0,0,.514.518c.121.121.527-.28.421.189-.076.337-.425.362-.684.2a2.9,2.9,0,0,1-.677-.621,12.371,12.371,0,0,1-2.315-5.2c-.438-1.914-.386-1.928-2.226-1.312-.2.068-.4.164-.6.246-1.367.556-1.451.576-1.1,1.993a18.643,18.643,0,0,0,2.369,6.013c.331.5.665.921,1.447.658-.658.676-1.093.627-1.7-.136a10.309,10.309,0,0,1-1.469-2.67,19.742,19.742,0,0,1-1.335-4.708c-.058-.472-.161-.534-.612-.445-1.8.357-1.99.544-1.484,2.263a20.658,20.658,0,0,0,2,5.338,36.806,36.806,0,0,0-1.9-6.378c.579.033.676.352.791.677a139.129,139.129,0,0,1,4.079,15.385c1.227,5.353,2.4,10.717,3.647,16.066.958,4.117,2.014,8.211,2.934,12.337.092.41.161.844.747.407a.694.694,0,0,1,1.1.562,32.135,32.135,0,0,0,.971,6.671c.779,4.068,1.459,8.154,2.2,12.229a46.707,46.707,0,0,0,3.076,10.27.48.48,0,0,0,.285.272c-.264-1.387-.5-2.782-.8-4.16-.316-1.427-.282-2.886-.5-4.32-.079-.53.287-.671.662-.869-.478,2.653.267,5.173.691,7.717.294,1.763.645,3.521,1.075,5.256a48.5,48.5,0,0,0,2.114,5.735c.878,2.271,1.715,4.567,2.748,6.768a19.665,19.665,0,0,0,2.606,3.994,72.891,72.891,0,0,1,7.53,11.224,1.912,1.912,0,0,0,1.121,1.015,47.676,47.676,0,0,1,5.057,2.309c1.461.688,1.537.723,2.626-.432.324-.344.463-.146.6.137a6.124,6.124,0,0,1,.372,1.616,55.772,55.772,0,0,1,.772,5.594c.039.413-.006.736-.541.755a16.919,16.919,0,0,0-3.745.542,8.5,8.5,0,0,1,3.182-1.067c.619-.077.616-.24.554-.684-.284-2.044-.561-4.089-.859-6.276a1.824,1.824,0,0,1-2.222.668c-.385-.167-.44.23-.594.431-.684.888-1.317,1.854-2.689,1.584.381,1.618.36,1.56-1.25,2.136-1.406.5-2.853.861-4.5,1.321a43.7,43.7,0,0,1,3.712,2.436.688.688,0,0,0,1.04-.116,6.005,6.005,0,0,1,2.335-1.449A11.974,11.974,0,0,0,139.1,400.7c.3-.245.384-.141.531-.04.331.228.15.436-.108.541-1.3.532-2.192,1.706-3.544,2.17a4.248,4.248,0,0,0-1.908,1.275.87.87,0,0,1-1.3.167,48.221,48.221,0,0,0-6.247-3.8,29.371,29.371,0,0,0-3.706-1.881c-1.314-.414-2.1-1.728-3.863-1.77,1.952,1.455,3.792,2.649,5.442,4.072l-.14.191a15.245,15.245,0,0,1-1.574-1.03c-1.593-1.336-3.424-2.333-5.054-3.613a3.422,3.422,0,0,0-1.073-.516c-.5-.169-.76-.108-.959.436a1.462,1.462,0,0,1-1.626.956,10.283,10.283,0,0,1-4.529-1.72c-.15-.088-.318-.16-.27-.417.466-2.458.005-4.929.09-7.4a62.677,62.677,0,0,0-.222-8.906,1.314,1.314,0,0,0-.316-.894c-.012,1.641-.577,3.08-.723,4.606a3.344,3.344,0,0,1-.015-2.3,36.006,36.006,0,0,0,.548-4.219,12.153,12.153,0,0,0-1.949-7.41c-1.078-1.835-1.944-3.772-2.939-5.646-.083-.156-.161-.28,0-.388.227-.155.338.045.42.2.311.6.645,1.194.9,1.818.877,2.119,2.3,3.953,3.135,6.1a13.711,13.711,0,0,1,.985,3.614c.408-.056.368-.305.367-.511-.03-3.247.227-6.483.408-9.72.1-1.758-.907-3.12-1.377-4.691-.363,2.367-1.11,4.62-1.49,6.946-.141.866.515,1.508.991,2.223-.432.17-.546-.167-.716-.382a16.319,16.319,0,0,1-1.788-3.933c-2.361-5.443-4.383-11.013-6.245-16.643-1.132-3.424-2.074-6.911-3.412-10.267a6.852,6.852,0,0,0-.759-1.377c-.017-.025-.049-.039-.068-.063a1.383,1.383,0,0,1-.4-1.254.257.257,0,0,1,.364-.183c.466.222.907.55.9,1.087-.014.789.483,1.03,1.064,1.283.266.115.508.242.787.1a.215.215,0,0,0,.046-.38c-.327-.241-.077-.943-.725-.9-.213.013-.47.117-.565-.143s.208-.237.34-.33c.384-.269,0-.491-.063-.712-.094-.344-.188-.678-.725-.647-.83.048-1.668-.018-2.5-.052-.2-.008-.525-.008-.483-.295.059-.4.323-.064.5-.064h2.653a18.515,18.515,0,0,0-1.694-4.086,99.659,99.659,0,0,1-5.68-14.874c-.995-3.44-2.178-6.828-3.122-10.286a81.829,81.829,0,0,1-2.665-12.681,19.424,19.424,0,0,0-1.1-4.968,13.7,13.7,0,0,1-.529-2.717c-.03-.184-.158-.491.147-.549.39-.075.316.285.352.5a21.436,21.436,0,0,0,1.911,5.788,1.619,1.619,0,0,0,.752.9c-1.013.308-.852-.775-1.377-.838a101.746,101.746,0,0,0,3.25,15.462c1.356,4.815,2.947,9.552,4.413,14.328a73.527,73.527,0,0,0,3.986,9.568c.576,1.227,1.124,2.469,1.624,3.728.2.491.428.682.952.576a54.561,54.561,0,0,0,8.47-2.338c.607-.228.444-.562.354-.93-.654-2.666-1.351-5.321-1.976-7.994-1.144-4.889-2.248-9.788-3.368-14.683-.929-4.063-1.922-8.112-2.751-12.2-.33-1.628-1.36-2.822-2.047-4.226a25.678,25.678,0,0,1-1.722-5.356c-.163-.677-.391-.876-1.085-.832-2.162.136-2.218.209-1.622,2.35a35.131,35.131,0,0,0,1.48,5.053c.069.154.136.306-.074.365-.229.064-.331-.13-.405-.3a18.047,18.047,0,0,1-1.06-3.156c-.3-1.261-.622-2.517-.886-3.785-.071-.338-.221-.356-.493-.387-1.074-.121-2.147-.252-3.214-.42-.417-.066-.485.017-.394.421a16.926,16.926,0,0,0,3.277,6.876,3.59,3.59,0,0,0,1.437,1.049,1.448,1.448,0,0,1-1.709-.673,14.293,14.293,0,0,1-3.212-5.888c-.3-1.172-.511-2.042-2.081-2.354a30.753,30.753,0,0,1-5.49-2.181c-.279-.115-.561-.222-.9-.353a20.91,20.91,0,0,0,1.117,8.349c.257.694.487,1.508,1.511,1.595-.336.445-.648.408-1.019.086a4.911,4.911,0,0,1-1.247-2.343,21.682,21.682,0,0,1-.909-7.03,1.276,1.276,0,0,0-.845-1.33c-1.87-.809-3.686-1.767-5.6-2.435-2.006-.7-4.106-1.131-6.166-1.671-.331-.087-.5-.053-.432.408.533,3.816.673,7.7,2.033,11.368.077.208.114.37-.118.436-.254.071-.289-.164-.344-.333a31.723,31.723,0,0,1-1.466-6.495c-.2-1.859-.434-3.714-.669-5.7a9.292,9.292,0,0,0-2.43,2.793c-.56,1.044-.431,2.434.172,4.78.226-.156.434-.324.664-.455a.78.78,0,0,1,1.042.323c.246.428-.3.39-.538.509-1.062.538-1.286,1.24-.718,2.432.147.309.367.574.109.985a2.321,2.321,0,0,1-.691-1.537c-.043-.215,0-.508-.366-.558-.3-.041-.316.2-.463.337-5.012,4.6-8.851,10.165-12.919,15.549-2.909,3.848-5.571,7.866-8.37,11.79-1.5,2.11-2.876,4.309-4.182,6.545.075.064.112.122.16.134,1.317.317,1.308.31.514,1.351-.316.415-.8.741-.626,1.428.048.185-.3.508-.518.723a44.625,44.625,0,0,0-5.551,7.53,96.48,96.48,0,0,0-5.121,8.7c-1.23,2.447-2.665,4.821-3.326,7.527-.04.164-.105.364-.324.416-.147-.524-.155-.528.511-2.176.3-.744.663-1.464.957-2.21a7.406,7.406,0,0,0,.951-2.334,34.1,34.1,0,0,0-3.136,5.181,7.24,7.24,0,0,1-.552,1.151,1.947,1.947,0,0,0-.211,1.679c.973,3.472,1.9,6.955,2.844,10.436,1.456,5.4,2.963,10.778,4.3,16.208.627,2.543,1.525,5.022,2.346,7.515a5.793,5.793,0,0,0,1.623,2.708,6.553,6.553,0,0,0-1.626-.185c-1.014.135-1.367-.789-2.059-1.154a48.78,48.78,0,0,0-5.941-2.338,12.157,12.157,0,0,1-7.2-7.157,15.238,15.238,0,0,1-1.228-5.173c.348,1.244.632,2.51,1.056,3.728a12.869,12.869,0,0,0,5.06,6.992A16.535,16.535,0,0,0,20.8,382.4,41.308,41.308,0,0,1,26.36,384.6c-.784-1.523-1.293-2.853-2.568-3.782a31.369,31.369,0,0,1-6.4-6.217c-.093.127-.156.173-.154.217.02.476.265,1.09-.336,1.3-.585.208-1.062-.248-1.434-.658a13.265,13.265,0,0,1-2.532-5c-1.07-3.283-1.313-6.72-1.829-10.106-.139-.915-.33-1.823-.492-2.735-.1-.556-.525-1.175.33-1.557.089-.04.045-.4.044-.618a57.5,57.5,0,0,1,.668-9.245c.126-.8.174-1.7,1.393-1.485.331.057.3-.262.379-.423,3.146-6.131,6.58-12.112,9.634-18.291,1.26-2.55,2.454-5.134,3.729-7.676.509-1.015-.43-.913-.829-1.214-.6-.456-.564.2-.683.464-.722,1.6-1.322,3.244-1.919,4.908a2.761,2.761,0,0,1,.254-1.5c.457-1.248.934-2.489,1.42-3.726.1-.262.314-.518-.067-.693a.575.575,0,0,0-.783.24A25.41,25.41,0,0,0,20.6,323.12a5.6,5.6,0,0,0,.1,3.185,6.629,6.629,0,0,0,.3.832c-.637-.506-.637-.506-.947-2.271A4.115,4.115,0,0,0,19.2,326.5c-1.184,3.253-2.715,6.36-4.037,9.555-.238.575-.1,1.306-.639,1.736a3.444,3.444,0,0,0-.892,1.746,11.26,11.26,0,0,0-.662,2.505c-.036.294-.161.567.353.321.236-.113.145.169.072.267a.375.375,0,0,1-.492.141c-.289-.153-.305-.42-.268-.718a16.426,16.426,0,0,1,1.311-4.335c1.75-4.156,3.562-8.286,5.284-12.454a17.058,17.058,0,0,0,1.06-3.638,36.146,36.146,0,0,1,1.606-5.883c.077-.221.284-.5-.043-.639s-.246.262-.371.4c-.056.062-.137.2-.142.2-1.06-.663-.715.49-.822.741-1.994,4.688-3.864,9.427-5.831,14.128-1.607,3.84-3.362,7.627-4.625,11.6-.185.583-.311,1.185-.463,1.779a.891.891,0,0,1-.06.268c-.2.287.644.234.187.582a.251.251,0,0,1-.336-.044c-.24-.236-.159-.506-.1-.782a1.321,1.321,0,0,0-.226-1.378,22.991,22.991,0,0,0-1.742,3.425c-.963,2.145-2.092,4.208-3.015,6.375A6.9,6.9,0,0,1,1.4,356.023a.446.446,0,0,0-.262.525,8.946,8.946,0,0,0,2.52,5.521,38.75,38.75,0,0,0,2.321-9.056,2.27,2.27,0,0,1,.364,1.472c.251,4.786.316,9.6,1.517,14.277a25.257,25.257,0,0,0,2.989,7.843A9.155,9.155,0,0,0,13,378.879a44.4,44.4,0,0,0,7.149,4.423c.233.116.529.191.656.479-.141.235-.323.126-.473.052-2.206-1.095-4.512-2.011-6.374-3.707a20.578,20.578,0,0,1-2.649-2.138,18.947,18.947,0,0,1-3.083-6.36,56.7,56.7,0,0,1-2.141-14.815c-.01-.246-.035-.492-.067-.736-.006-.049-.072-.091-.122-.15-.473,1.734-.921,3.463-1.426,5.174-.149.5-.134,1.267-.768,1.36-.587.086-.9-.56-1.231-.994-1.16-1.5-1.412-3.323-1.8-5.1-.066-.3.136-.4.318-.484,1.718-.786,2.427-2.4,3.183-3.943,1.235-2.524,2.366-5.1,3.61-7.618.483-.977.381-2.244,1.493-2.927.3.063.111.5.377.637.038-.043.094-.079.111-.129,1.565-4.494,3.522-8.831,5.337-13.225,1.874-4.537,3.759-9.07,5.494-13.663.206-.546.4-1.1.633-1.633a.94.94,0,0,1,.824-.679c.006.757-.7,1.213-.813,2.055.4-.314.937.172,1.148-.361.237-.6.633-1.2.036-1.893a1.567,1.567,0,0,1-.513-1.561c.555.413.63,1.1,1.117,1.528.865-1.9,1.735-3.787,2.578-5.682a65.04,65.04,0,0,1,8.314-13.457,87.963,87.963,0,0,1,10.85-11.524,11.276,11.276,0,0,0,2.491-3.059,6.487,6.487,0,0,0,.356-2.911,53.359,53.359,0,0,0-.292-5.921c-.027-.323-.168-.683.151-.96.177,1.664,1.539,1.954,2.858,2.51-.078-.533-.024-1.228-.219-1.308-.9-.366-1.63-1.127-2.66-1.18M45.818,82.573a9.455,9.455,0,0,0-1.829,2.9c.618-.962,1.59-1.7,1.813-2.911a12.844,12.844,0,0,0,1.857-3.1c-.6,1.045-1.577,1.869-1.842,3.112M27.964,99.341c-.384.021-.479-.343-.686-.543s-.362-.207-.515.014c-.123.179-.465.324-.206.6a2.647,2.647,0,0,0,.666.475c.4.219.732.982,1.2.556.589-.532-.5-.664-.494-1.137.291-.049.442.171.613.334a.339.339,0,0,0,.549,0c.236-.248.008-.376-.149-.509a1.487,1.487,0,0,0-.379-.256c-.42-.169-.693-.983-1.129-.61-.337.288.55.592.526,1.074M23,315.346c-.788.8-.785,1.917-1.155,2.885-.066.172-.191.463.115.537s.291-.257.388-.425c.294-.509.281-1.18.821-1.6.214.474-.309.8-.186,1.229.213,0,.252-.158.325-.28.839-1.388.838-1.388-.332-2.371.5-.333.721.211,1.069.344.225.086.413.125.577-.076.1-.121.192-.312.012-.393-.445-.2-.681-.6-1.01-.915-.209-.2-.4-.178-.483.1-.093.311-.326.61-.143.964m6.849-214.5c-.251.007-.582-.234-.714.157a.741.741,0,0,0,.159.857c.2.181.532.4.4.667-.28.574.279.382.434.534.244.239.683.286.838.068.339-.477,1.009-.833.792-1.6a1.571,1.571,0,0,1-1.943-.718c.358-.093.631.188.965.218.272.024.635.36.76-.08.08-.281-.2-.506-.556-.6-.49-.129-.976-.328-.953-.994-.859.657-.859.657-.186,1.488m-2.823,7.015c.117-.669.736-.951,1.108-1.423.2-.25.444-.465.107-.76-.474-.415-.787-1.044-1.489-1.15-.05-.008-.2.2-.188.288.132.8-.345,1.183-1.006,1.453a6.959,6.959,0,0,1,.985,1.5c.111.365.338.087.517.058a.34.34,0,0,1-.088.4,13.225,13.225,0,0,1-2.013,2.147c-.157.122-.438.227-.3.488.114.213.384.137.593.15.48.029.788-.383,1.394-.633-.576.912-1.207,1.281-2.029.993-.642-.225-.957.043-1.326.545a14.526,14.526,0,0,1,2.715.166c1.41.354,2.417.077,2.992-1.322.009-.022,0-.051,0-.107-.616-.306-1.251-.61-1.873-.938-.169-.089-.468-.152-.335-.448.09-.2.32-.154.5-.124.73.125,1.459.263,2.188.392.173.03.394.111.441-.156.035-.2-.17-.213-.3-.281-.822-.427-1.977-.166-2.5-1.207-.01-.021-.055-.024-.085-.034M52.064,79.866a3.168,3.168,0,0,1-.737-.345c-.656-.543-.982-.2-1.313.386-.725,1.276-1.5,2.526-2.227,3.8-.524.914.589.672.83,1.079.252.427.5-.023.631-.275.579-1.084,1.142-2.178,1.714-3.266a2.73,2.73,0,0,1,1.126-1.4c-.68,1.308-1.357,2.617-2.042,3.923-.807,1.539-.81,1.538.6,2.5a1.1,1.1,0,0,0,.242.094c.8-1.765,1.6-3.522,2.409-5.27.169-.365.217-.618-.252-.767-.341-.109-.563-.481-.98-.461M40.846,81.921c.109.546-.038,1.3.925,1.162-.457.46.229.834.1,1.275-.06-.015-.148-.013-.164-.045-.31-.638-.648-.554-1.133-.14-.561.478-.081.647.179.905.218.216.426.444.662.64.415.346.846.679,1.268-.4a3.19,3.19,0,0,1-1.374,2.4c.024-.113.1-.3.064-.33-.744-.582-1.642-.932-2.34-1.6-.166-.158-.387.1-.51.279-.213.309.066.332.25.436a6.354,6.354,0,0,1,1.672,1.273,5.184,5.184,0,0,1-1.984-.877c-.34-.188-.574-.263-.9.038q-1.184,1.107-2.43,2.147c-.413.344-.279.511.107.7a7.045,7.045,0,0,1,2.51,1.529c.412.5.717.4,1.115.09-.3.928-1.158,1.594-1.23,2.636a98.722,98.722,0,0,0,7.438-11.527c-.706.126-.694.768-.921,1.214-.3.595-.9.5-1.386.724.538-.785,1.122-1.526,1.695-2.276.428-.56.378-1.006-.342-1.262a1.308,1.308,0,0,0-1.062-1.146c-.472-.108-.6.5-.856.818-.4.5-.648,1.164-1.369,1.345a6.821,6.821,0,0,1,1.473-1.977c.257-.323.323-.461-.146-.628a4.029,4.029,0,0,1-1.66-.751c-.162-.162-.273-.032-.379.082-1.146,1.245-2.286,2.5-3.441,3.732-.28.3-.131.387.121.621.539.5,1.28.141,1.781.474.926.617,1.086-.272,1.429-.672.477-.557-.3-.565-.477-.839-.087-.132-.417-.136-.3-.373.131-.266.363-.113.558-.02.335.159.574.636,1.052.331m.109,17.94c.074.495-.332.772-.539,1.127-.911,1.56-.921,1.545.7,2.248a.436.436,0,0,0,.667-.214c.677-1.134,1.414-2.234,2.085-3.372.783-1.327.754-1.318-.642-1.99-.486-.234-.695-.2-.975.315a4.556,4.556,0,0,1-1.324,1.916c-.148-.286.087-.438.207-.644.353-.611,1.03-1.3.93-1.84-.122-.662-1.216-.494-1.813-.859-.052-.032-.127-.027-.173-.063-.338-.272-.518-.117-.718.2-.491.783-1.061,1.518-1.52,2.318-.348.608-1.249,1.123-1.054,1.735s1.2.763,1.8,1.193c.491.354.731.311,1.042-.276.344-.648.52-1.477,1.335-1.795m62.528,236.22c.083.347.316.2.51.149q1.11-.315,2.215-.644c.221-.066.489-.317.628.028.118.29-.237.292-.4.4a20.219,20.219,0,0,0-3.105,2.119,26.045,26.045,0,0,0,3.865-.729c.445-.128.6-.266.47-.765-.394-1.488-.747-2.987-1.073-4.491-.13-.6-.426-.344-.723-.223a35.912,35.912,0,0,1-8.821,2.379c.256,1.284.4,1.405,1.451.863a19.5,19.5,0,0,1,2.793-.961,13.674,13.674,0,0,1,4.644-.654c.331.006.735.057.819.462.072.346-.228.57-.491.722-.584.337-1.191.634-1.788.947a5.065,5.065,0,0,1,1.933-1.515,1.854,1.854,0,0,0-1.211-.178,18.2,18.2,0,0,0-6.707,1.668c-.248.108-.837.042-.6.561.214.469.11,1.286.978,1.232a10.116,10.116,0,0,0,4.614-1.366M116.4,393.848a1.454,1.454,0,0,0,.636,2.091,6.7,6.7,0,0,0,2.291.826c-.974-.991-2.058-1.846-2.936-2.91a9,9,0,0,1-2.513-3.378.949.949,0,0,1,.168-1.033c.277-.33.546-.083.81.074-.759.7-.586,1.471.643,2.544a57.922,57.922,0,0,1,.918-6.262.473.473,0,0,0-.105-.423c-.549-.613-1.087-1.237-1.631-1.859-.082.076-.154.109-.164.155-.469,2.361-.948,4.721-1.383,7.088a1.613,1.613,0,0,0,.3,1.235,16.094,16.094,0,0,0,1.356,1.762c.5.514.9,1.44,1.543.147.013-.026.045-.041.064-.057M64.8,70.84a7.328,7.328,0,0,1-.4-1.687c0-.477-.374-.489-.714-.517-.415-.034-.447.262-.416.546.056.5-.4,1.306.743,1.211.195-.016.33.646.815.416-.267.8.388.574.733.636,2.756.5,5.595.17,8.337.845a.979.979,0,0,0,1.229-.673c.374-2.381.337-2.388-2.089-2.456-.238-.006-.486-.115-.69.021-.234.39.66.143.281.554-.247.268-.517.075-.718-.133-.634-.655-1.174-.59-1.8.1-.371.411-.668,1.165-1.487.661-.1-.064-.22.026-.314.126-.459.487-.925.746-1.443.051-.139-.187-.277,0-.369.107-.515.571-1.1.414-1.7.187M41.831,109.1c-.5,1.022-.984,2.055-1.52,3.059-.205.385-.27.62.154.9a32.828,32.828,0,0,1,3.435,2.6,15.445,15.445,0,0,1,.525-2.716,25.622,25.622,0,0,0,.976-6.014c.01-.39-.007-.63-.478-.4-.154-.984-1.131-1.121-1.721-1.654-.165-.149-.341-.033-.415.188-.065.2-.265.463,0,.567.725.283,1.247,1.075,2.163.874.069.492-.141.692-.627.59-.569-.119-1.134-.259-1.705-.365-.8-.15-.755.624-.948,1.013-.221.446.306.29.528.411a21.231,21.231,0,0,1,1.856,1.193c.193.132.407.3.247.6-.368.071-.424-.336-.668-.416-.58-.191-.979-1-1.757-.522-.081-.475-.442-.794-.672-.276a17.926,17.926,0,0,0-1.451,3.571,2.4,2.4,0,0,0,.451-.573c.55-.868.792-1.926,1.625-2.619M30.153,305.984a.4.4,0,0,1-.03.435q-2.339,4.207-4.682,8.413c-.123.22-.435.428-.043.654.351.2.441-.047.574-.332a115.111,115.111,0,0,1,6.614-12c3.5-5.638,6.948-11.314,10.665-16.817.662-.979,1.33-1.954,2.018-2.965-.3-.069-.376.083-.48.184a40.28,40.28,0,0,0-5.982,7.749c-2.384,3.787-4.724,7.6-6.8,11.576a11.21,11.21,0,0,1-1.88,3.13,1.777,1.777,0,0,1,.1-.354c2.226-4.193,4.469-8.377,7.029-12.381.683-1.068,1.372-2.132,2.058-3.2a2.074,2.074,0,0,0-.853.629c-1.656,2.152-3.313,4.3-4.939,6.479a105.33,105.33,0,0,0-9.373,14.867c-.692,1.346-.691,1.346.337,2.455a1.176,1.176,0,0,1,.113.147c.288.431.479.225.662-.095.521-.911,1.049-1.817,1.568-2.729q1.664-2.921,3.324-5.847M47.864,99.872c.252-.547.505-1.094.755-1.643.108-.238-.068-.325-.229-.417a9.8,9.8,0,0,1-.879-.511c-.653-.471-1.052-.5-1.364.415-.176.518-.185.749.278,1.017a2.378,2.378,0,0,1,.583.585c.179.219.536.5.117.74-.365.209-.33-.214-.474-.414-.221-.307-.508-.743-.9-.733-.33.009-.365.512-.507.8-.46.946-.9,1.9-1.345,2.855-.789,1.692-.776,1.676.769,2.722.368.249.482.247.632-.176a17.2,17.2,0,0,1,1.465-2.973,3.437,3.437,0,0,1-.311,1.326c-.313.76-.942,1.461-.8,2.331a13.412,13.412,0,0,1-.262,4.871c-.342,1.727-.768,3.437-1.17,5.151-.051.217-.048.357.223.428a11.333,11.333,0,0,0,1.425-3.869,31.732,31.732,0,0,1,.835-4.269A51.745,51.745,0,0,1,50.4,98.043c1.254-2.48,2.751-4.83,3.877-7.376,1.649-3.728,3.458-7.378,5.379-10.973.155-.29.359-.5-.087-.733s-.638-.13-.87.287c-2.345,4.211-4.623,8.458-6.721,12.8-.947,1.958-2.316,3.749-2.587,6-.838.334-.789,1.408-1.525,1.826M44.586,77.687a9.372,9.372,0,0,0-.9,1.036c-.116.176-.625.384-.227.631.367.228.662.84,1.1.649a1.864,1.864,0,0,0,1.11-1.27c.045-.462-.475-.95-1.1-1.025a.876.876,0,0,0-.39-.635.918.918,0,0,1-.2-1.146c.245-.346.643-.03.861.171.492.456.829.282,1.191-.147.235-.278.512-.52.771-.778a1.114,1.114,0,0,1-.421.788c-.626.649-.506,1.129.385,1.269.739.116.8-.636,1.006-1.092.154-.344-.13-1.072.489-.96.586.105-.008.712.12,1.125.271-.4.752-.53.847-1.124a2.059,2.059,0,0,1,.821-1.188c.9-.641.2-.777-.238-1.073-.323-.217-.485-.067-.685.156a3.1,3.1,0,0,1-.951.866c.1-.723,1.267-.969.854-1.919.081-.022.186-.088.241-.06.5.265.644-.173.877-.427,2.254-2.45,4.2-5.171,6.6-7.554-.15-.069-.295-.2-.417-.18-.631.1-1.187-.732-1.848-.145-.411-.744-1.232-.8-1.875-1.165-.234-.132-.179-.483.182-.641.247-.109.476.2.695-.006-.041-.311-.656-.567-.238-.849s.647.44,1.075.48c.439-1.112.888-2.225,1.313-3.348.062-.162.289-.463-.06-.528-.494-.092-1-.442-1.446.278a39.226,39.226,0,0,0-2.309,4.528,3.3,3.3,0,0,0,.2,3.287c.067.113.12.184.083.308-.165.564.116.449.4.249.218-.151.4-.329.59.021.207.384-.081.371-.323.452a1.958,1.958,0,0,0-.542.347,32.954,32.954,0,0,0-4.09,3.762c-1.223,1.35-2.519,2.626-3.824,3.9-1.138,1.11-2.105,2.4-3.148,3.6.051-.156.332-.064.63.172.547.432,1.269.776,1.853-.12a1.423,1.423,0,0,1,.942-.7m-8.732,23.741c.792.57,1.578,1.149,2.381,1.7.188.13.452.282.617-.065.142-.3-.031-.442-.278-.571-.381-.2-.74-.438-1.122-.635-.5-.261-.96-.725-1.613-.422.425-.667-.609-.652-.55-1.167.436-.234.91.565,1.381-.16,2.07-3.191,4.213-6.334,6.312-9.506.9-1.364,1.8-2.735,2.629-4.144.379-.645.988-1.2,1-2.027.01-.511-.242-1.2.755-1.015.229.042.365-.284.485-.5,1.085-2,2.279-3.926,3.534-5.823a3.672,3.672,0,0,0,.823-2.33.879.879,0,0,0-.56-.774c-.379-.15-.387.288-.513.506-.868,1.5-1.706,3.012-2.6,4.494-3.2,5.315-6.4,10.637-10.108,15.623-1.952,2.626-4.035,5.155-6.05,7.735-.3.386-.735.788-.783,1.219s.763.2.988.652c-.561.221-1.084-.553-1.56-.078-.41.408-.667.964-1.045,1.408a5.387,5.387,0,0,0-1.268,1.831c.668.153,1.274.278,1.873.431.77.2.731-.619,1.127-.89.118-.081.131-.188-.033-.352-.4-.4-.332-.672.2-.67.594,0,.805-.36,1.075-.729a14.662,14.662,0,0,0,1.382-1.946c.3-.586,1.5-.915.654-1.919-.082-.1.175-.258.317-.206a3.388,3.388,0,0,1,.544.33m56.641-8.066c.054.24.3.174.439.276.615.446.864.321.937-.466a19.841,19.841,0,0,1,.93-4.245c.19-.586.135-.861-.427-1.163a5.414,5.414,0,0,1-1.989-1.894c-.854-1.354-1.639-2.753-2.4-4.16-.3-.558-.549-.714-1-.019.124-.679.244-1.18-.208-1.732A15.708,15.708,0,0,1,86.1,75.826a1.932,1.932,0,0,0-.827-1.114c.136.525-.619.457-.417,1.043.818,2.37,1.548,4.771,2.4,7.126.7,1.939,1.553,3.825,2.312,5.745A2.7,2.7,0,0,0,90.4,89.8a7.912,7.912,0,0,1,2.1,2.44c.188.365.48.776-.025,1.144A5.568,5.568,0,0,0,90.76,90.8c-.067-.072-.181-.282-.27-.146-.545.83-.51-.105-.644-.242-.2-.207-.188-.571-.444-.792-1.728-1.488-3.419-3.022-5.181-4.469-1.788-1.469-3.621-2.884-5.311-4.468-.632-.593-1.209-1.23-2.2-1.136-.2.019-.515.012-.553-.38.279-.244.656.225.937-.122-.513-.55-1-1.141-1.555-1.648-.578-.525-1.046-1.222-1.855-1.436a35.185,35.185,0,0,0-6.8-1.381,1.418,1.418,0,0,1-1.145-.522c-.275-.383-.37-.632.26-.839A4,4,0,0,0,67.8,72.29c-1.032-.145-1.966-.286-2.9-.4-.171-.021-.491-.12-.441.244a3.237,3.237,0,0,1-.568,1.79c-.235.528-.114.74.632.723-.9.138-.769.562-.571,1.042a7.114,7.114,0,0,0,.687,1.411A10.008,10.008,0,0,0,71.2,81.247c1.883.363,3.786,1.188,5.762.31.231-.1.376.158.438.378.052.185.039.282-.2.4a3.192,3.192,0,0,0-.645,5.307,13.259,13.259,0,0,0,4.762,2.419c2.348.669,4.71,1.287,7.048,1.988,1.383.414,2.707,1.017,4.129,1.315M13.865,364.056a46.222,46.222,0,0,1,2.948,8.339,3.718,3.718,0,0,0,.45,1.291,25.107,25.107,0,0,0,4.08,4.524c.932.863,1.93,1.655,2.9,2.479-2.095-5.267-4.348-10.4-6.3-15.658a154.878,154.878,0,0,1-5.076-15.877,3.232,3.232,0,0,1,1.115,1.772c1.248,4.368,2.988,8.56,4.648,12.777,1.81,4.6,3.684,9.169,5.556,13.741.851,2.077,1.283,4.291,2.179,6.357a2.454,2.454,0,0,0,2.212,1.474c-.229-.536-.459-.976-.608-1.441-.945-2.955-1.823-5.933-2.817-8.871-1.732-5.119-3.538-10.214-5.3-15.323a48.256,48.256,0,0,1-1.9-10.239,37.112,37.112,0,0,0-1.067-4.2l-1.028,1.871c-.1-.078-.144-.1-.143-.111.067-1.071.925-1.948.757-3.08-.006-.039.065-.123.107-.129.879-.116,1.115-.925,1.472-1.5,3.406-5.482,6.823-10.959,10.025-16.565a26.415,26.415,0,0,0,2.582-5.111c.091-.291.241-.6-.166-.787-.894-.419-1.555-1.184-2.456-1.613-.47-.224-.643-.242-.856.256-.8,1.876-1.84,3.639-2.713,5.48-1.682,3.547-3.51,7.018-5.337,10.489-1.843,3.5-3.873,6.905-5.588,10.475a8.761,8.761,0,0,0-.468,1.395.326.326,0,0,0,.127.407c.188.092.283-.069.367-.191.223-.325.434-.659.649-.99a1.649,1.649,0,0,1-.42,1.164c-.2.215-.387.564-.748.418-.394-.159-.3-.568-.31-.9-.011-.295.283-.55.108-.949a3.92,3.92,0,0,0-.912,1.9,51.662,51.662,0,0,0-.581,7.654,9.152,9.152,0,0,0,.678,3.864,35.279,35.279,0,0,1,1.855,5.423,16.268,16.268,0,0,1-1.379-3.378c-.334-.817-.631-1.648-.945-2.474-.333,4.532,3.076,12.163,4.844,14.063a.887.887,0,0,0-.037-.628c-.455-1.7-1.142-3.326-1.693-4.995a7.88,7.88,0,0,1-.81-2.607m34.718-66.463c.1.256-.1.4-.221.569-1.67,2.488-3.355,4.965-5.007,7.465C40.6,309.8,38,314.081,35.534,318.433c-.319.562-.848,1.06-.832,1.794,2.868-4.736,6.078-9.232,9.257-13.748,3.02-4.289,6.079-8.554,9.394-12.621,2.36-2.9,4.849-5.685,7.275-8.526.155-.181.426-.32.385-.6-.146-1-.316-2.006-.474-3.008-.05-.321-.324-.519-.483-.255-.63,1.046-1.921,1.719-1.814,3.2.02.277.4.782-.092.846-.374.048-.118-.592-.4-.885a4.293,4.293,0,0,0-.49.514c-2.054,3.008-4.079,6.037-6.16,9.026a16.825,16.825,0,0,1-2.55,3.455,1.356,1.356,0,0,1,.37-.833q3.853-5.618,7.727-11.221c.714-1.037,1.472-2.057,1.064-3.453a12.132,12.132,0,0,1-.229-2.489c-.12-1.507-.3-3.01-.455-4.514-.033-.309-.084-.574-.475-.686-.82-.235-1.623-.532-2.482-.819a59.381,59.381,0,0,1,.758,10.717,17.517,17.517,0,0,1-.413-2.958c-.167-2.429-.38-4.852-.74-7.263-.126-.847-.728-.988-1.332-1.192-.282-.1-.476.157-.345.342s.249.112.054.412c-.331.507-1.008.946-.8,1.839.785-.448.68-1.636,1.712-1.656a.7.7,0,0,1-.333.663,3.485,3.485,0,0,0-1.329,3.733,1.654,1.654,0,0,1,.043.459,7.57,7.57,0,0,1-.372,2.636,8.155,8.155,0,0,1-.126-2.35c-.016-.295-.028-.785-.493-.386a24.24,24.24,0,0,0-3.485,3.154c-1.336,1.7-2.493,3.527-3.7,5.32-4.052,6.024-7.81,12.233-11.616,18.41a99.063,99.063,0,0,0-5.26,9.694.978.978,0,0,0,.324,1.412c.338.256.946.285,1.065.472a5.081,5.081,0,0,0,2.932,1.87,8.615,8.615,0,0,1,1.476.673c-.349.475-.608-.221-.924.009.067.148.233.34.191.452a37.645,37.645,0,0,1-3.027,5.914c.339.169.554-.351.811-.05.235.276-.011.547-.12.772a54.478,54.478,0,0,1-3.573,6.164,24.936,24.936,0,0,1-2.946,3.907,1.171,1.171,0,0,1,.3-.663c1.005-1.482,2.046-2.941,3-4.457a52.583,52.583,0,0,0,2.786-4.9c-.461-.075-.7-.014-.933.381-1.757,3.016-3.553,6.009-5.341,9.006a.58.58,0,0,0-.112.519c-.1.063-.244.1-.307.193-1.576,2.289-2.969,4.691-4.388,7.077-.076.128-.178.3-.147.422.32,1.286.665,2.566,1.069,4.1.218-.576.346-.883.451-1.2a68.9,68.9,0,0,1,2.882-7.014,80.082,80.082,0,0,1,5.489-9.537c1.231-1.921,2.351-3.917,3.749-5.73a4.285,4.285,0,0,1-.306.863c-.961,1.566-1.9,3.144-2.932,4.667a65.59,65.59,0,0,0-6.364,11.513c-.169.409-.522.759-.442,1.382.233-.342.427-.581.573-.847,1.428-2.6,3.217-4.973,4.741-7.514q2.81-4.684,5.983-9.135c.169-.236.5-.523.268-.8-.333-.392-.033-.607.1-.888l1.126-2.328-.213-.107-2.426,4.469c-.139-.8.543-1.226.332-1.849.128-.309.169-.77.4-.9.961-.549,1.062-1.646,1.656-2.419a.5.5,0,0,0,.054-.673c-.377-.414-.19-.49.236-.358.257.079.326-.077.408-.244.664-1.34,2.037-2.333,1.971-4.037,0-.114.151-.287.273-.345.957-.456,1.289-1.41,1.79-2.222,2.642-4.277,5.3-8.542,8.163-12.678a11.572,11.572,0,0,1,2.2-2.928m.24-97.61-.149-.039c-.318.551-.613,1.116-.959,1.649A83.037,83.037,0,0,0,41.9,211.712a153.261,153.261,0,0,0-6.449,15.972c-2.094,6.269-4.571,12.406-6.459,18.749-.769,2.585-1.244,5.229-1.819,7.854-.07.321-.189.625.222.885a21.493,21.493,0,0,0,3.774,2.319,17.079,17.079,0,0,1,2.962,1.527,23.742,23.742,0,0,0,11.121,3.443c.7.045.929-.135.934-.909.039-6.147-.2-12.3.155-18.443.223-3.919.316-7.847.472-11.77.233-5.866.244-11.74.673-17.6a98.365,98.365,0,0,1,.943-10.706c.185-1.007.265-2.033.393-3.051M42.718,159.3a3.22,3.22,0,0,0-.272-.236c-.172-.12-.612-.059-.409-.433.193-.354.488-.087.7.054a5.114,5.114,0,0,1,.722.58c2.875,2.758,6.139,5.079,8.923,7.941.955.982.967.954,2.106.2,1.54-1.021,2.851-2.382,4.569-3.13.559-.244.54-.5.342-.986a38.979,38.979,0,0,0-4.218-7.576A4.614,4.614,0,0,0,54.12,154.4c-.245-.166-.457-.125-.518-.6a1.561,1.561,0,0,0-2.658-1.118c-2.3,1.682-4.949,2.791-7.278,4.43a13.854,13.854,0,0,0-2.622,2,3.626,3.626,0,0,1,.727.087c.095.983.6.219.946.111m87.675,232.976A8.2,8.2,0,0,0,128.056,389c-.508-.35-.975-.029-1.362.251-.364.264-.072.614.062.912a35.26,35.26,0,0,0,2.775,5.02c.119.18.321.4.1.565-.235.181-.364-.115-.5-.257a1.372,1.372,0,0,1-.2-.308c-.869-1.6-1.857-3.139-2.575-4.82-.094-.22-.169-.605-.439-.316a5.212,5.212,0,0,0-1.175,2.482c-.1.446.7.586,1.051.908a9.484,9.484,0,0,0,.926.615,2.5,2.5,0,0,1,1.212,1.57c-.993-1.139-2.29-1.666-3.4-2.552-.555,1.539-1.076,2.988-1.6,4.437-.128.353-.164.618.278.82a45.4,45.4,0,0,1,4.7,2.377,3.506,3.506,0,0,0,2.78.224,10.283,10.283,0,0,0,2.741-1.1c.361-.207,1.111.168,1.07-.543a3.546,3.546,0,0,0-.584-1.247,1.391,1.391,0,0,0-.255-.268,13.485,13.485,0,0,1-2.423-3.714,2.5,2.5,0,0,0-1.343-1.427,2.535,2.535,0,0,1-1.392-1.167c-.083-.16-.468-.248-.169-.476.234-.178.329.142.486.267.448.358.766.91,1.574,1.03m-24.267-50.8c-.193.906-.368,1.815-.583,2.716-.284,1.191-.141,2.519-.616,3.589-.874,1.966.052,3.306,1.1,4.82,1.341-3.4,1.283-7,2.171-10.415.394.154.273.354.285.523a12.5,12.5,0,0,1-.376,2c-.263,2.924-.386,5.866-.813,8.765-.209,1.419.517,2.284,1.084,3.331.162-.917.236-1.826.34-2.731a22.084,22.084,0,0,1,.576-3.563c.087-.307.248-.617.594-.643.414-.031.426.351.527.64a4,4,0,0,1,.159,1.468c-.079,2.44.018,4.883-.141,7.323a2.576,2.576,0,0,0,.1,1.54c.557.948,1.151,1.875,1.778,2.89a11.47,11.47,0,0,1,.568-2.384,1.662,1.662,0,0,0,.151-1.186c-.643-3.045-1.335-6.082-1.868-9.146-.689-3.961-2.074-7.744-2.833-11.683-.106-.552-.481-.538-.82-.319a1.366,1.366,0,0,0-.674,1.037,20.336,20.336,0,0,1-.887,4.164,13.792,13.792,0,0,0,.179-2.733m6.393,23.992c.007,1.851-.626,3.657-.148,5.514a14.447,14.447,0,0,1,.169,6.079,5.561,5.561,0,0,1-1.167,3.09c1.163-3.772,1.1-6.486.632-8.215a2.542,2.542,0,0,0-.117.505,42.873,42.873,0,0,1-.442,5.454c-.17,1.345-.349,2.69-.607,4.02-.069.359-.081,1.151-.759.854-.578-.253-.415.085-.4.312.26,3.492.144,7,.105,10.485-.02,1.844.461,2.787,2.113,3.313a8.314,8.314,0,0,0,2.343.515c.658.013.853-.534,1.081-1,.144-.3-.088-.349-.309-.423-.279-.093-.634-.124-.6-.57s.387-.5.823-.553a14.647,14.647,0,0,1-1.554-1.657c-.261-.241-.288-1.07-.979-.378-.175.175-.251-.214-.332-.4a4.408,4.408,0,0,1-.011-2.2c.211-2.619.377-5.242.555-7.864.026-.387.1-.756-.373-1.025-.326-.184-.534-.766-.078-.89.768-.209.615-.741.644-1.213.228-3.693.3-7.391.408-11.088a3.657,3.657,0,0,0-1-2.656m11.868,26.973a5.231,5.231,0,0,1,1.051-2.419,1.3,1.3,0,0,0,.139-1.525q-1.873-4.237-3.7-8.493a13.168,13.168,0,0,0-3.616-5,61.214,61.214,0,0,1-1.074,9.223,2.365,2.365,0,0,0,1.08,2.509c.118-.347.2-.638.316-.916a7.651,7.651,0,0,1,1.923-3.326c.837-.687,1.479-.469,1.784.55a4.6,4.6,0,0,1,.183,1.558,35.853,35.853,0,0,1-.381,4.987c-.063.332-.189.7.2,1.013.675.534,1.3,1.134,2.095,1.841M79.511,75.489c-1.363.98-2.945.582-4.379.785.808.842,1.568,1.646,2.345,2.434.192.194.432.47.658.479.98.039,1.795.634,2.753.742a3.752,3.752,0,0,1,1.666.644,6.42,6.42,0,0,0,3.792,1.252c-.5-1.735-1.054-3.4-1.64-5.052-.392-1.106-.673-2.088-2.176-2.306a7.558,7.558,0,0,0-2.686-.3,20.62,20.62,0,0,1-5.622.376c-.221-.016-.486-.122-.716.192,1.974.446,4.02-.09,6,.749M44.687,282.523c-9.218,8.229-16.582,17.769-20.931,29.429a5.305,5.305,0,0,0,.632-.965,78.035,78.035,0,0,1,5.435-9.141,157.313,157.313,0,0,1,11.483-14.971c1.18-1.406,2.257-2.9,3.38-4.352M89.762,32.382a4.254,4.254,0,0,1-2.468-.721c-.274-.215-.575-.447.041-.7a1.863,1.863,0,0,0,1.27-1.922c-.024-.732-.282-.981-.953-.733-.279.1-.326.332-.391.576-.09.34-.168.706-.645.829.086-.461.4-.8.32-1.292a17.811,17.811,0,0,0-2.211.438.968.968,0,0,0-.72,1.329,12.324,12.324,0,0,0,2.062,4.286,1.8,1.8,0,0,0,1.587.929c.921-.03,1.839-.15,2.759-.227.527-.044.7-.339.584-.825a4.322,4.322,0,0,1-.107-1.935c.194-.867-.367-1.207-.886-1.628-.2-.162-.409-.224-.55.013s.161.268.271.386c.257.278.761.232.93.656-.436.32-.776-.219-1.159-.068-.072.278.357.246.267.612m28.7,355.246a35.419,35.419,0,0,1-1.6,4.115c-.691,1.287-.271,2.038.729,2.823,1.064.835,2.042,1.778,3.078,2.65.187.157.585.5.614-.125.094-2.061.148-4.123.221-6.185a.742.742,0,0,0-.212-.667c-.929-.839-1.84-1.7-2.826-2.611m-4.084-5.408c.037-.169.061-.278.085-.386.6-2.665.81-5.427,1.967-7.955.057-.124.1-.345.028-.426a9.555,9.555,0,0,1-1.64-4.51c-.112-.555-.4-.74-.933-.853,0,4-.135,7.935-.413,11.863a2.293,2.293,0,0,0,.906,2.267m-3.952-17.351c-.363,5.81-.983,11.607-.221,17.425a3.424,3.424,0,0,0,.409-1.212c.3-2.2.676-4.4.846-6.61.129-1.677.578-3.365.166-5.057-.371-1.522-.8-3.031-1.2-4.546M67.3,61.378c-.159.432-.274.938-.772.847-.405-.074-.277-.5-.272-.789.009-.488.286-1.189.064-1.407-.286-.281-.952-.175-1.456-.232-.246-.028-.545-.354-.721.03a1.257,1.257,0,0,0-.063.81c.125.428.468-.19.673.084-.192.309-.443.562-.83.419-.372-.137-.329-.528-.277-.809.13-.693-.259-.982-.816-1.005-.589-.024-.619.6-.625.946,0,.268-.655,1.149.475.9.037-.008.13.062.127.072-.356,1.04.624.711.954.8a35.529,35.529,0,0,0,6.3,1c.7.066,1.173.013,1.109-.912a7.132,7.132,0,0,1,.254-1.736c.059-.315.084-.524-.352-.547-1.381-.074-1.549.057-1.683,1.437-.007.071-.087.134-.136.206-.561-.418.075-1.229-.4-1.464a2.114,2.114,0,0,0-1.621-.057c-.658.3-.445,1.074-.524,1.795l.591-.392m39.429,218.209c.188.773.592.493.981.365,2.713-.891,5.066-2.528,7.654-3.679.312-.139.539-.376.357-.732-.2-.39-.488-.091-.7,0-1.6.653-3.186,1.347-4.79,1.991-4.293,1.725-8.514,3.612-12.685,5.608a3.167,3.167,0,0,0-1.607,1.191c.694.068,1.244-.668,1.53-.6a3.449,3.449,0,0,0,2.177-.489c.614-.225,1.555-.069,1.7-1.087.014-.094.2-.155.3-.016.309.455.614.088.881-.025,1.079-.458,2.128-.986,3.218-1.414a1.284,1.284,0,0,0,.987-1.112M60.494,57.851a7.183,7.183,0,0,0-1.971-.063c-.185.036-.366,0-.45.221-.486,1.257-1.149,2.45-.97,3.9.066.537.242.717.718.78,2.3.3,4.6.579,6.883.949,1.486.24,3-.047,4.474.342.5.131.932.486,1.5.4.238-.038.422-.031.408-.346-.01-.249-.071-.422-.357-.434-.155-.006-.309-.025-.463-.038a30.307,30.307,0,0,1-9.835-2.075A8.617,8.617,0,0,1,58.947,60.4a.4.4,0,0,1-.043-.586c.156-.2.322-.1.468.038.36.348.419-.055.49-.232.227-.566.413-1.149.632-1.773m18.924,7.915c.607.327-1.026.933.323.951a20.283,20.283,0,0,1,3.953.386c.339.072.571.024.705-.374.159-.47-.24-.4-.428-.536-1.277-.918-2.532-1.827-2.409-3.687.027-.416-.466-.4-.772-.362-.241.031-.671-.276-.7.222-.012.214.128.429-.185.472s-.354-.223-.365-.43c-.03-.577-.534-.416-.762-.391-.5.057-.436.622-.514.953-.1.425.328.277.578.289.5.024.99.061,1.583.1-.408.477-.881.39-1.322.442-.5.059-1.062.315-1.122.769-.073.549.609.114.854.367.03.032.034.088.078.214a40.037,40.037,0,0,0-5.335.01c.812.165,1.779.026,2.394.427.572.373.835.434,1.268-.107.074.532-.475.769-.345,1.079,1.23.618,1.936-.164,2.522-.795M35.4,85.4c.625-.489,1.106.05,1.607.232.33.12.6.2.793-.141.1-.185.484-.343.208-.61a6.764,6.764,0,0,0-1.8-1.579.444.444,0,0,0-.58.076c-1.423,1.567-3.291,2.593-4.857,3.988-.282.252-.327.418-.026.65.216.166.375.414.716.479-.073-.772.443-.763,1-.774-.129.308-.649.106-.59.51a.684.684,0,0,0,.352.4,2.117,2.117,0,0,0,2.81-.42c.207-.186.41-.376.612-.566.447-.422,1.259-.85,1.253-1.266-.008-.611-1.027-.518-1.5-.98m81.149,299.538c.925-4.447,1.477-10.738,1.069-12.23a6.815,6.815,0,0,0-1.468,2.845,52.871,52.871,0,0,0-1.349,6.415c-.063.326-.234.653.035.967.536.626,1.071,1.252,1.713,2M56.526,66.427a1,1,0,0,1-.023.97,64.82,64.82,0,0,1-2.9,6.2c-.121.247-.428.581.092.728.32.091.682.3.925-.232,1.217-2.689,2.468-5.362,3.471-8.143.087-.24.01-.277-.1-.428-.44-.609-.89-.59-1.4.178a47.4,47.4,0,0,1-3.133,4.369,19.153,19.153,0,0,0-1.57,2.965c-.327.567.333.592.61.808.345.269.529.092.689-.243.719-1.5,1.465-2.995,2.174-4.5.412-.878.773-1.781,1.157-2.672m2.746,3.817a9.532,9.532,0,0,1-1.6,4.821,1.862,1.862,0,0,0-.117.253c-.218.537.258.66.551.789.562.248,1.052.767,1.755.571.051-.014.05-.172.1-.249a13.764,13.764,0,0,1,2.009-2.536,11.113,11.113,0,0,0,1.263-1.544c.113-.168.5-.63-.02-.735-.631-.128-1.257-.594-1.83-.467a1.863,1.863,0,0,1-2.111-.9M102.912,357.3l2.959,7.259c.217-2.569.485-5.057.712-7.549.1-1.065.444-2.264-.667-3.153-.458.955-.872,1.882-1.343,2.78-.33.629-.728,1.238-1.661.663M57.475,274.8c.266,2.819.52,5.512.8,8.438.4-.531.629-.819.841-1.12.426-.607,1.1-1.179,1.208-1.84a32.4,32.4,0,0,0,.174-4.151.4.4,0,0,0-.311-.4c-.863-.3-1.729-.59-2.708-.922m22.3-217.425a.579.579,0,0,0,.744-.052c.44-.378.805.085,1.116.245s-.052.442-.178.672c-.3.54-.528,1.115-.824,1.655-.337.613-.052.775.5.733A2.884,2.884,0,0,0,83.887,59c.074-.166.133-.386.268-.471.677-.423.244-.639-.137-.877A14.066,14.066,0,0,1,81.6,56.112a.337.337,0,0,1,.509-.1c.721.414,1.445.823,2.18,1.213.165.088.375.488.561.037.093-.226.321-.494-.029-.735a4.157,4.157,0,0,0-.957-.552c-1.046-.37-2.079-.775-3.124-1.146-.3-.106-.611-.5-.914-.217-.276.256-.127.713-.125,1.068,0,.515.592.468.935.674-.258.421-.764.541-.863,1.019m24.34,291.775,1.866-9.131a14.445,14.445,0,0,1-1.443.745,2.428,2.428,0,0,0-1.617,2.043c-.123.728-.331,1.443-.5,2.163a1.256,1.256,0,0,0-.013.818,25.576,25.576,0,0,0,1.708,3.362M33.726,113.56c.389-1.2-.484-1.3-1.094-1.555-.852-.363-1.76-.6-2.586-1.014-1.129-.562-1.16.532-1.48.993-.3.434.265.68.625.821a10.606,10.606,0,0,1,2.789,1.457c1.6,1.284,3.159.534,4.774.129a10.7,10.7,0,0,0-1.5-1.129c-.529-.349-1.069-.762-1.53.3m87.859,276.317a26.7,26.7,0,0,0,.313-6.459c-.035-.332-.081-.755-.418-.873-.425-.149-.76.18-1.016.488a10.115,10.115,0,0,0-1.711,3.353.951.951,0,0,0,.323,1.187c.815.7,1.586,1.451,2.508,2.3m-4.934-16.883c.3-.395,1.027-.455.924-1.082-.241-1.465-.609-2.915-.949-4.349-.581-2.448-1.566-4.8-2.391-7.19-.057-.164-.052-.419-.423-.4a22.848,22.848,0,0,1,.55,2.235c.213,1.461,0,2.971.469,4.407a1.5,1.5,0,0,1,.021.184,37.827,37.827,0,0,0,1.265,5.19c.232.685.367-.013.586-.023-.018.357-.035.692-.052,1.026M13.309,104.1a67.178,67.178,0,0,1,6.752,1.282c.637.184.863-.521,1.1-.941.216-.39-.285-.507-.517-.606a39.282,39.282,0,0,0-4.48-1.751c-.247-.072-.479-.165-.694.03-.673.612-1.34,1.232-2.158,1.986m21.515-8.044a1.067,1.067,0,0,1-1.058-.158c-.714-.407-1.1-.206-1.585.425-.612.788-1.221,1.378-.127,2.263.434.351.42,1.214,1.332,1.1.115-.121-.024-.382.134-.609.718-1.028,1.374-2.1,2.075-3.14.875-1.3.874-1.275-.373-2.11-.429-.287-.682-.315-1.062.121-1.133,1.3-1.158,1.277.475,1.9.073.028.118.128.188.209m50.3-78.69A15.871,15.871,0,0,1,82.855,28c.72-.087,1.436.512,1.847-.417a19.769,19.769,0,0,0,1.752-5.144,6.585,6.585,0,0,0-1.332-5.073M99.554,340.909c-.546,1.205-.214,2.369-.2,3.52a11.152,11.152,0,0,0,.72,4.432c.206.473.541.865.991.841.428-.022.106-.58.265-.86a.561.561,0,0,0,.066-.268c0-1.042.684-2.074.292-3.08-.611-1.567-1.411-3.061-2.131-4.585M6.818,102.182l.014.317a13.814,13.814,0,0,0,1.682.687c1.954.522,3.96,1.326,5.657-.6.227-.257.7-.3.7-.691-2.8-1.442-5.394-.088-8.055.285M56.258,82.749c-.254-.3-.529-.618-.795-.944-.468-.575-.786-.543-1.129.158-.634,1.3-1.356,2.552-2.02,3.835-.641,1.238-.629,1.244.494,2.087a1.754,1.754,0,0,1,.152.1c.35.328.491.21.737-.188a30.574,30.574,0,0,1,1.836-3.475,7.224,7.224,0,0,0,.725-1.577M46.533,85.7l-3.566,5.575c.68.279,1.249.508,1.814.745.3.127.479.215.686-.235a37.619,37.619,0,0,1,1.822-3.423c.392-.662.5-1.171-.2-1.69a1.043,1.043,0,0,1-.552-.972M12.255,364.93a23.926,23.926,0,0,0,2.913,9.643,2.984,2.984,0,0,0,.991.946c.528.339.591.2.717-.367a2.371,2.371,0,0,0-.534-2.039,22.56,22.56,0,0,1-2.706-4.814c-.452-1.126-.92-2.246-1.381-3.368M54.829,74.458l.466-.139c.028-.009.069-.037.082-.027,1,.793,1.182-.17,1.549-.729.068-.1.113-.222.187-.32.457-.611.306.257.532.222a4.053,4.053,0,0,0,.689-1.5,9.686,9.686,0,0,0,.73-3.4c-.026-.588-.458-.454-.756-.6-.261-.125-.431-.16-.577.173-.9,2.056-1.751,4.136-2.9,6.323M9.462,100.493c3.248.147,4.573-.13,5.2-1.043a.72.72,0,0,0-.7-.072c-.32.081-.469-.164-.473-.413s.216-.349.467-.316a7.13,7.13,0,0,1,1.274.178c1.11.359,1.868-.189,2.669-.9a5.1,5.1,0,0,1-1.618-.809c-.391-.439-.6-.241-.982-.124-2.169.678-3.835,2.174-5.838,3.5M48.407,277.613a.418.418,0,0,1,.038-.538c.65-.857,1.285-1.726,1.924-2.592a4.477,4.477,0,0,0,.032-2.4,6.916,6.916,0,0,0-2.246-.735c-.335.063-.263.313-.241.5.263,2.249.047,4.508.089,6.949a7.271,7.271,0,0,0,1.781-2.986l-1.376,1.793M21.793,104.556c-.255.291-.505.543-.715.826-.271.365.169.432.307.506a4.858,4.858,0,0,1,2.209,2.628c.209.514.024,1.091.359,1.577.208.3.308.515.652.109.455-.538.987-1.01,1.475-1.521.161-.169.4-.318.258-.625a3.3,3.3,0,0,0-1.895-1.882,3.85,3.85,0,0,1-1.65-.856,10.283,10.283,0,0,0-1-.761m23.69-12.088a4.781,4.781,0,0,1,1.461.682c.405.237.7.193.93-.281.572-1.159,1.191-2.294,1.784-3.443a.539.539,0,0,0-.189-.8,4.859,4.859,0,0,1-.818-.6c-.438-.432-.669-.33-.933.2-.7,1.4-1.453,2.767-2.235,4.242M30.86,90.677A8.347,8.347,0,0,0,29.15,89.4a.5.5,0,0,0-.667-.006,43.637,43.637,0,0,1-4.505,3.242c1.49.905,1.5.92,1.971.669,1.622-.86,3.238-1.732,4.912-2.628M89.512,80.137c.15-.776.3-1.308.347-1.849.153-1.837-1.318-3.79-2.924-3.923-.327-.027-.122-.244-.169-.377-.11-.31-.422-.6-.71-.5a.509.509,0,0,0-.2.839,9.394,9.394,0,0,1,.782,1.569,24.162,24.162,0,0,0,2.874,4.24m-65.4,290.382c-1.846-6.412-3.522-12.883-5.385-19.3.382,6.821,3.3,12.94,5.385,19.3m35.866-204.7a10.644,10.644,0,0,0-5.49,2.255c-.211.17-.99.162-.494.679.388.4.524,1.5,1.531.889,1.6-.974,3.189-1.969,4.8-2.932.253-.152.379-.247.249-.559-.106-.253-.184-.464-.591-.332M85.46,84.992c-.072-.677.365-1.122.555-1.646.086-.236.408-.517.067-.7-.219-.121-.539.064-.706.311a9.213,9.213,0,0,1-.484.787c-.153.183-.234.649-.576.418-.3-.2.114-.4.193-.606a5.341,5.341,0,0,1,.373-.637c.088-.155.241-.366.012-.473-.326-.153-.594-.628-1.035-.322-.393.273-.729,1.52-.5,1.728.815.752,1.777,1.318,2.567,2.113a21.023,21.023,0,0,0,2.98,2.493,14,14,0,0,0-1.391-3.444c-.546.324.224.723-.043,1.178a1.233,1.233,0,0,1-.442-1.5,1.924,1.924,0,0,0,.008-1.091c-.055-.158-.074-.394-.294-.424-.25-.035-.237.231-.347.361-.361.428-.2,1.18-.933,1.459M75.575,63.175c.043-1.054-.359-1.6-1.482-1.455-.276.035-.818.277-.839-.223-.019-.431.533-.274.838-.353a4.807,4.807,0,0,1,.822-.119c.245-.019.375-.089.418-.371.1-.632.112-1.062-.78-.906-.813.142-1.877-.175-2.426.243-.616.469-.38,1.611-.555,2.451-.1.493.035.724.516.728,1.17.011,2.34,0,3.489,0m56.6,330.5-.2.169c.544.95,1.053,1.923,1.64,2.846,1.109,1.745,2.726,1.636,3.713-.2.142-.265.1-.368-.138-.494-1.632-.858-3.316-1.6-5.011-2.318m-83.4-301.19c-.649,1.138-.649,1.138.357,1.817a1.238,1.238,0,0,1,.3.214c.542.7.836.356,1.115-.236q.834-1.772,1.7-3.527c.288-.58.467-1.035-.513-.8a.723.723,0,0,1-.653-.291c-.47-.483-.633-.175-.81.27-.428,1.071-.885,2.13-1.335,3.2-.33-.192.029-.424-.164-.652m-28.658,2.4c1.2-.863,2.574.62,3.762-.454a3.139,3.139,0,0,1-.99-.8.527.527,0,0,0-.725-.2c-1.761,1-3.641,1.775-5.365,2.878,2.12,1.763,1.666,1.482,3.085.446l-.228-.159c-.232-.163-.794-.093-.664-.47s.573-.111.865,0c.994.378,1.485.218,2.316-.81-.648-.239-1.37-.055-2.057-.433M50.711,270.453a1.663,1.663,0,0,0,1.217,1.76c.837.345,1.707.592,2.541.969A52.751,52.751,0,0,0,59.6,275.02c.233.078.621.5.766.049a.735.735,0,0,0-.492-1.015c-1.017-.351-2.088-.6-3.051-1.035-1.989-.9-4.2-1.251-6.113-2.566m77.728,118.085c-1.676-2.72-3.538-5.035-5.307-7.458-.163.211-.141.325-.081.44a56.5,56.5,0,0,1,2.92,6.846c.148.4.294.737.819.312a1.6,1.6,0,0,1,1.648-.139M61.726,170.695c-.044-.366-.083-.733-.132-1.1-.076-.572-.224-.831-.939-.58-1.406.493-2.5,1.546-3.9,2.029a.416.416,0,0,0-.128.748c.344.261.307,1.125,1.107.719A10.781,10.781,0,0,1,61.41,171.1c.286-.031.375-.151.316-.41m-30.362-62.7c.372.122.729.216,1.067.357.37.154.723.348,1.08.53,1.458.744,1.458.745,2.243-.7a.78.78,0,0,1,.089-.162c.562-.61.7-1.072-.38-1.132-.087,0-.167-.087-.256-.1-1.417-.236-2.987-1.025-3.787,1.024-.011.028-.018.057-.057.186m90.661,283.049c-.024.322-.03.5-.051.678a46.27,46.27,0,0,0-.164,5.6c0,.279.018.488.351.521s.284-.252.349-.434c.493-1.391.96-2.792,1.489-4.17a.559.559,0,0,0-.21-.772c-.554-.428-1.091-.876-1.764-1.42M109.9,350.175a2.037,2.037,0,0,0-.451,1.071c-.334,1.662-.379,3.368-.665,5.027-.243,1.413.519,2.262,1.171,3.249,0-3.06.448-6.11-.055-9.347M55.295,88.957C56.771,87.05,62.528,77.7,62.5,76.15c-1.167.571-1.062,2.012-1.972,2.878a11.79,11.79,0,0,0-1.851,3.184c-.586,1.122-1.116,2.274-1.682,3.406-.558,1.117-1.132,2.227-1.7,3.339m48.981,261.7a33.452,33.452,0,0,0-1.106,5.746c-.024.3.075.744.6.569.422-.142,2.108-3.394,1.915-3.794-.381-.793-.852-1.542-1.405-2.521m2.829,6.454a40.867,40.867,0,0,0-.451,9.232c.514-1.93.857-3.884,1.342-5.8a4.11,4.11,0,0,0-.891-3.429M84.9,66.017a30.077,30.077,0,0,1-.674-4.222c-.025-.6-.342-.688-.838-.644a1.932,1.932,0,0,0-1.224,2.4A4.562,4.562,0,0,0,84.9,66.017m-51.94,39.789c1.124.256,2.217.535,3.323.748.852.164.771-.72,1.109-1.119.378-.445-.213-.462-.4-.6-.72-.535-1.605-.84-2.147-1.689-.635.848-1.208,1.611-1.775,2.377a1.344,1.344,0,0,0-.114.282m-17,252.022A193.065,193.065,0,0,0,24.2,378.861c-2.506-7.1-5.635-13.966-8.239-21.033M33.849,115.633c.948.592,1.579,1.473,2.666,1.478a3.873,3.873,0,0,1,1.545.039c.8.31.837-.7,1.494-.918-.965-.42-1.5-1.435-2.586-1.269-.972.148-1.928.409-3.119.671m62.574,222.2,2.427,7.574a1.987,1.987,0,0,0,.119-.309,16.176,16.176,0,0,1-.116-2.947c.11-.812-1.057-1.655.069-2.413.029-.02-.074-.218-.1-.337-.243-1.289-1.373-1.2-2.4-1.568M76.539,54.446a.88.88,0,0,1-1.214-.355c-.463-.9-1.3-.678-2.025-.772-.582-.076-.371.468-.4.737s-.373.7.223.817a42.492,42.492,0,0,0,5.3.716c-.7-1.083-1.2-2.266-2.769-1.935.275.422.294.439.888.791M64.08,51.207c-1.957-.587-1.956-.587-2.966.982-.235.365-.5.712-.713,1.088a.709.709,0,0,0,.607,1.025c.142.016.259-.244.439.047.338.544.566.194.762-.165a20.4,20.4,0,0,1,1.87-2.977M62.171,68.069c.262-.036.526.094.662-.114.185-.282-.158-.333-.275-.485-.071-.092-.192-.262-.166-.293.587-.7-.229-.465-.414-.576a3.669,3.669,0,0,0-.8-.223c-.243-.075-.469-.192-.471-.5,0-.21.148-.326.306-.43a.421.421,0,0,1,.631.154,1.571,1.571,0,0,0,1.131.548c.509.078.368-.395.47-.635.136-.32-.049-.432-.365-.427a5.075,5.075,0,0,1-.738-.058c-2.124-.277-2.113-.276-2.5,1.772-.121.641.027.974.743,1.009a17.665,17.665,0,0,1,1.78.255m-5.037,10.99c-1.011-.651-1.011-.651-1.579.467-.139.274-.285.544-.422.819-.092.185-.242.351,0,.563.48.413.934.857,1.4,1.288a3.3,3.3,0,0,0,.267-.358c.317-.563.623-1.132.934-1.7.936-1.7.937-1.7-.982-2.024-.027,0-.058.017-.091.027-.013.384.578.467.47.915M46.6,111.273c1.738-4.577,2.878-9.354,4.673-13.912A45.549,45.549,0,0,0,46.6,111.273m-3.436,6.061c.928-.945.88-.9.036-1.781-.43-.45-1.046-.325-1.438-.686-1.014-.933-1.2-.973-2.559-.324,0,.159.146.167.241.234.664.475,1.532.7,1.622,1.786.054.644,1.217.8,1.674.3.168-.183.284-.513.694-.373.018.3-.445.43-.27.843M19.818,98.154A29.026,29.026,0,0,0,23.36,99.9c.8.321.983-.5,1.29-.863s-.323-.459-.569-.586c-.626-.323-1.325-.516-1.925-.877a1.525,1.525,0,0,0-2.337.576m82.715,258.2c.318-1.966.868-3.857,1.3-6.032-.479.665-.8,1.136-1.149,1.589a.842.842,0,0,1-.965.375c-.379-.125-.464-.468-.487-.821-.016-.246-.017-.493-.02-.74-.009-.634-.008-.634-.82-.67l2.144,6.3M34.312,93.224a6.581,6.581,0,0,1-1.245-.926c-.6-.717-1.03-.445-1.509.1-.4.454-.827.884-1.242,1.325.522.3,1.027.638,1.571.89.282.13.587.558.887.293a20.27,20.27,0,0,0,1.537-1.681m67.92,253.446a11.087,11.087,0,0,0-.542,3.075c-.043.708-.39,1.84.168,2.038.752.267,1.1-.828,1.55-1.412.2-.266.577-.453.29-.937-.512-.863-.946-1.773-1.466-2.764M62.96,70.694c-.23-.609.032-1.449-.315-1.916-.365-.49-1.262-.175-1.915-.336-.357-.088-.894-.385-1.1-.042a1.613,1.613,0,0,0,.114,1.424,3.421,3.421,0,0,0,.348.649c.144.192.364.421.615.222.768-.609,1.441.161,2.253,0M21.632,96.657a.98.98,0,0,0,.2.174c1.034.482,2.077.945,3.1,1.441.581.281.633-.329.929-.515.417-.263.1-.562-.065-.777a2.7,2.7,0,0,0-4.169-.322M55.813,66.368l-.138-.151a7.259,7.259,0,0,0-1.134.843c-1.43,1.56-2.831,3.148-4.224,4.742-.148.169-.659.4-.14.679.305.165.609.571,1.06-.031a28.811,28.811,0,0,1,1.7-2.372c1.054-1.149,1.928-2.465,2.877-3.71m-17.027,41.4c-1.914-.757-1.958-.746-2.659.6-.746,1.438-.735,1.417.71,2.2.68.368.923-.321.805-.5-.315-.481.066-.668.219-.933.26-.449.578-.864.924-1.37m33-34.9c.267.435.834.1.791.589-.065.747.434.686.9.7.74.016,1.481.045,2.221.033a11.821,11.821,0,0,0,3.683-.5c-2.5-.221-4.957-.776-7.594-.816m3.385-8.137c.646,0,1.294-.025,1.938.009.407.021.527-.129.549-.515.025-.43-.167-.514-.539-.518-1.684-.018-3.368-.053-5.052-.086-.323-.006-.611-.037-.621.44s.263.46.592.485c1.043.08,2.086.157,3.133.186m-1.19-22.056c.093-.651.17-1.289.278-1.922a5.492,5.492,0,0,0,.039-2.837c-.128-.367-.442-.991.491-.8.292.06.186-.248.231-.391.325-1.05-.638-1.781-.655-2.759a47.59,47.59,0,0,0-.851,7.836c0,.384-.024.747.466.873M56.672,170.541c.028-.013.056-.026.084-.038,1.482-.6,2.767-1.586,4.289-2.129.513-.183-.074-.682-.108-1.042s-.287-.315-.537-.163q-2.006,1.221-4.017,2.434c-.313.188-.191.415-.08.631.074.144.093.393.369.308M80.139,29.033c.679-.14,1.036-.4,1.175-1.015.267-1.172.692-2.312.907-3.491a10.041,10.041,0,0,0,.226-3.776l-2.308,8.282m-22.924,28.8c-.752-.209-1.128-.033-1.315.661-.2.737-.547,1.432-.815,2.151-.475,1.276-.464,1.256.84,1.647.434.13.582-.02.572-.39a10.452,10.452,0,0,1,.717-4.069M32.333,95.3l-1.724-.813a1.586,1.586,0,0,0-1.893.711.305.305,0,0,0,.215.425c.485.082.643.507.94.789,1.017.963,1.032.963,1.846-.18.211-.3.531-.524.615-.933M85.095,68.333c-.912.194-.929.2-.723,1.079.039.168,0,.224-.1.276a.781.781,0,0,0-.256,1.115c.366.446.955-.013,1.454.056.433.059.435-.277.533-.583.433-1.356-.306-2.387-.906-3.471-.073.517-.713,1.02,0,1.529m25.274,293.416c-.217,2.439,1.207,4.355,1.446,6.547.673-2.39.491-4.592-1.446-6.547m5.653,30.431.23.067c.515-1.285,1.047-2.563,1.54-3.856.469-1.229.384-1.4-.907-2.178a37.024,37.024,0,0,0-.862,5.967M60.911,274.4c-.155.793.124,1.167.9,1.425a23.257,23.257,0,0,1,2.681.813,18.4,18.4,0,0,0,3.117.872,30.746,30.746,0,0,0-6.7-3.111M77.6,70.154c.048-.954-.153-1.089-1.258-.967-.492.054-.6.322-.6.741,0,.7-.419,1.443.228,2.068a.271.271,0,0,0,.178.032,2.652,2.652,0,0,0,1.422-.318c.435-.293,0-.667.031-1,.017-.183,0-.368,0-.553m-48.883,35.7c.343-.458.528-.731.739-.98,1.043-1.232,1.046-1.231-.417-1.826a1.588,1.588,0,0,1-.26-.088c-.6-.384-.954-.173-1.358.376-.456.62-.1.892.29,1.245.295.268.572.557.839.853a1.532,1.532,0,0,1,.166.421m14.541-10.3c-.014-.059-.008-.151-.043-.171-.694-.391-1.391-.779-2.1-1.146-.053-.027-.207.091-.285.17-1.075,1.1-1,1.441.443,1.948.175.062.35.123.523.191a1.113,1.113,0,0,0,1.46-.992M23.3,100.465a33.62,33.62,0,0,1-3.159-1.479c-.92-.544-1.384-.135-1.918.548,1.3.492,2.558.906,3.757,1.444.666.3,1.035.2,1.32-.514M76.777,56.005c-1.147-.2-2.276-.388-3.4-.611-.675-.134-.664.341-.759.759-.12.529.219.56.587.559a7.681,7.681,0,0,1,2.107.29c.864.243,1.371.016,1.462-1m24.207,286.71c1-.8,2.324-1.186,2.22-2.793a3.4,3.4,0,0,0-1.385.392c-.578.258-1.59,0-1.7.534s.521,1.188.865,1.867M80.449,70.545c-.033-1.158-.139-1.214-1.759-1.218-.914,0-.492.669-.541,1.053-.075.588-.078,1.221.8,1.219,1.314,0,1.524-.154,1.5-1.054m32.33,319.563a1.418,1.418,0,0,0,.364-.852c.331-1.814.62-3.638,1.023-5.436.182-.81-.132-1.256-.8-1.8l-.587,8.085M36.539,91.585c-.814.713-.185,1.007.242,1.3.186.126.381.713.683.212.229-.378.9-.788.265-1.334a15.294,15.294,0,0,0-3.323-1.777c-.193-.1-.545-.026-.444.359a3.549,3.549,0,0,0,2.576,1.243m-8.633,1.073c1.947.952,1.947.951,3.342-.441a1.531,1.531,0,0,0,.265-.253c.121-.2.589-.3.284-.64a.678.678,0,0,0-.9-.194c-.943.505-1.9.977-2.993,1.529M69.034,54.52a16.754,16.754,0,0,1-1.589-.585c-.548-.268-.854-.091-1.063.421-.1.256-.2.516-.328.761-.181.347-.156.521.286.631,1.426.355,1.455.362,2.319-.8.089-.12.2-.226.375-.423M52.675,75.426c-.526.9-1.019,1.82-1.58,2.692-.307.477-.133.587.289.827.571.326.805.18,1.018-.365a8.054,8.054,0,0,1,.623-1.235c.427-.7.589-1.353-.35-1.919M107.862,337.75c-.086-.017-.187-.071-.256-.044a20.645,20.645,0,0,1-5.162.991,5.205,5.205,0,0,0-2.54,1.623,70.4,70.4,0,0,0,7.958-2.57M74.633,57.814a6.047,6.047,0,0,0-2.09.837c-.179.128-.395.229-.308.5.093.288.359.186.554.187a12.62,12.62,0,0,1,1.761-.019c1,.147,1.282-.427,1.454-1.216.046-.213.183-.41-.1-.547-.27-.13-.438-.03-.629.192-.261.3-.359.793-.953.887l.314-.816M95.378,27.668c1.477-2.546,1.106-7.314-.713-8.818a13.5,13.5,0,0,1,.713,8.818M64.641,52.528c.338.427.753-.039,1.11.125.038.018.168-.067.185-.124.039-.134-.045-.22-.177-.27a1.8,1.8,0,0,0-2.492.946c-.176.326-.368.643-.551.966-.117.207-.366.486-.069.632s.642.44,1.036.248a4.858,4.858,0,0,0,.957-2.522M53.76,76.674a12.075,12.075,0,0,1-.991,1.986c-.589.79.087.916.495,1.193.665.452.64-.21.814-.533.116-.215.19-.457.323-.66.576-.875.522-1.565-.641-1.986m-16.275,36.92c-.263-.5.529-.972.026-1.261-.659-.38-1.311-.8-2.011-1.119-.357-.164-.665-.363-.871.186-.158.42-.36.753.269,1.023a20.853,20.853,0,0,0,2.586,1.171M62.874,73.63a14.875,14.875,0,0,0-2.4,2.815c-.2.319-.447.552.067.878.471.3.575-.01.77-.27a11.319,11.319,0,0,1,1.355-1.744c.618-.548.517-1.042.206-1.68M61.9,61.519a2.143,2.143,0,0,1,.052-1.994c.316-.771-.494-.785-.817-1.111-.238-.24-.429-.042-.581.194-.895,1.383-.745,1.94.727,2.647.131.063.266.114.62.264m34.56,53.347a5.479,5.479,0,0,0,.367,1.923.667.667,0,0,0,.829.417c.358-.122.113-.417.095-.635-.062-.736-.1-1.477-.218-2.205-.072-.449.1-1.279-.373-1.252-.566.031-.642.842-.724,1.414a2.413,2.413,0,0,0,.025.339M39.252,112c.149-.021.174-.139.225-.254.437-.987.883-1.971,1.327-2.955.113-.251.176-.479-.2-.555-.3-.06-.579-.195-.763.233-.377.877-.814,1.729-1.2,2.6-.143.323.3.964.612.929M75.317,50.841a.4.4,0,0,0,.418-.338c.1-.472-.307-.336-.546-.375-1.392-.233-2.783-.467-4.178-.682-.2-.03-.474-.194-.561.217-.083.39.107.485.415.53l4.451.648M30.515,109.4a.318.318,0,0,0-.326.239c-.039.183.14.248.279.312a30.458,30.458,0,0,1,3.15,1.771c.154.1.411.358.483-.03.063-.335.584-.794.194-.963-1.214-.527-2.5-.892-3.781-1.329M45.721,96.5a.762.762,0,0,0-.251-.144c-.515-.2-1.024-.406-1.535-.613-.105-.043-.227-.173-.317-.027a3.715,3.715,0,0,0-.605,1.123c-.088.461.5.314.726.527a1.311,1.311,0,0,0,.335.146A1.119,1.119,0,0,0,45.721,96.5M29.429,93.977c-.5-.224-.934-.448-1.391-.615a4.738,4.738,0,0,0-.814-.131,1.132,1.132,0,0,0-1.12.447c-.215.455.434.476.7.634,1.534.925,1.546.9,2.629-.335M60.948,279.57c.441-.686.811-1.219,1.139-1.777.72-1.225.7-1.206-.606-1.666-.438-.154-.548-.093-.539.359.019.972.006,1.944.006,3.084M69.575,54.086c-.107-.475.371-1.14-.16-1.345a11.848,11.848,0,0,0-2.519-.47c-.278-.041-.46.1-.46.43,0,.44.236.417.547.324.1-.032.31-.036.33.009.431.951,1.434.7,2.262,1.052M42.2,92.472c-.126.172-.393.541-.667.9-.164.218-.145.366.11.505.536.292,1.058.611,1.59.911.223.126.45.239.581-.13.092-.259.474-.473.093-.786-.566-.464-1.13-.93-1.707-1.405m66.466,243.805c-.33-1.209-.482-2.588-.716-3.952a4.219,4.219,0,0,0-.22-.8.335.335,0,0,0-.53-.173c-.161.089-.342.2-.257.427.584,1.535.773,3.172,1.245,4.735.052.171.1.394.362.292.177-.068.154-.242.116-.533M75.368,35.084l1.022-4.856a3.851,3.851,0,0,0-1.022,4.856m-49.488,69.78c-.079-.107-.117-.209-.189-.246q-1.354-.7-2.718-1.378c-.139-.07-.235.027-.312.125-.1.13-.018.229.079.308a11.783,11.783,0,0,1,1.605,1.653.782.782,0,0,0,1.02.169,2.627,2.627,0,0,0,.514-.632M85.987,27.785c.464-.3,1.216.315,1.421-.5a9.725,9.725,0,0,0,.32-3.7,31,31,0,0,1-1.742,4.2M67.542,73.064a12,12,0,0,0,3.12.782c.2.027.643.4.654-.227.007-.4.055-.8-.586-.727a1.631,1.631,0,0,1-1.078-.114c-.759-.611-1.354-.333-2.11.286m-40.6,29.281c.045-.22-.129-.23-.265-.292A11.457,11.457,0,0,1,25.1,101.3c-.59-.388-.8.13-1.027.4-.406.492.26.408.42.558a6.065,6.065,0,0,0,1.074.7,1.186,1.186,0,0,0,1.378-.614M88.314,22.236a18.181,18.181,0,0,1-.46,4.963c-.055.187-.173.47.206.451.269-.013.681.156.7-.347a13.332,13.332,0,0,0-.444-5.067M99.4,338.035a5.563,5.563,0,0,0,5.521-1.61l-5.521,1.61M61.107,55.816c-.633.144-1.259.828-1.621.461-.328-.332.5-.7.732-1.11.094-.165.319-.358,0-.528-.239-.125-.455-.176-.6.146q-.463,1.058-.945,2.107c-.13.284-.032.36.257.408a1.728,1.728,0,0,0,2.178-1.483m10.887-2.077c-.041-.042-.12-.087-.117-.125.1-1.079-.8-.592-1.226-.717s-.458.357-.5.7c-.076.6.181.853.764.882a5.758,5.758,0,0,1,1,.165c.359.083.431-.111.44-.4.01-.319.139-.65-.011-.929-.3.045-.07.387-.349.416m19.07-24.584c.028-.324.3-.6-.107-.7-.331-.083-.291.217-.351.412a2.944,2.944,0,0,1-.31.859c-.224.314-.008.261.15.444.534.622,1.284-.122,1.8.434-.1-.506.549-.974-.009-1.409-.331-.258-.7-.717-1.174-.037m-13.806,30v-.013a1.267,1.267,0,0,1,.366,0c.87.276,1.022-.384,1.084-.935.088-.779-.622-.246-.911-.446a.809.809,0,0,0-.351-.1,1.11,1.11,0,0,0-1.193,1.256c.054.648.619.078.913.231.024.013.06,0,.091,0m.225-7.328c-.142.7,0,1.1.75,1.211a12.251,12.251,0,0,1,1.526.127,3.922,3.922,0,0,0,2.086.4,40.91,40.91,0,0,0-4.361-1.737M25.017,100.72c.688.317,1.329.6,1.96.909a.466.466,0,0,0,.651-.14c.111-.148.264-.374.118-.5A5.532,5.532,0,0,0,26.14,99.8c-.472-.163-.754.5-1.123.924M39.7,106.134a6.742,6.742,0,0,0-1.322-.65c-.294-.154-.462-.118-.682.17-.687.9-.646,1.066.465,1.357a4.823,4.823,0,0,0,.537.128,1.173,1.173,0,0,0,1-1.005M17.667,99.992c0,.12-.024.205,0,.228,1.231,1.017,2.795,1.325,4.205,1.961.228.1.326-.117.384-.29.085-.252-.124-.3-.291-.371-1.391-.617-2.848-1.041-4.3-1.529M49.253,97c.138-.659.75-1.215.5-1.579a3.144,3.144,0,0,0-1.569-1.072c-.354-.119-.414.172-.53.37-.137.233-.137.335.216.367.263.024.2.523.515.622-.249.769.53.774.866,1.292M32.9,324.63a27.557,27.557,0,0,0,2.735-3.557c-.319-.041-.65-.587-.93-.109A14.068,14.068,0,0,0,32.9,324.63m43.032-258.3a.452.452,0,0,0-.426-.458,26.914,26.914,0,0,1-3.7-.68,2.484,2.484,0,0,0-.82.084c-.165.024-.288.11-.282.3s.15.246.313.259c.458.038.915.092,1.374.105,1.188.036,2.337.461,3.543.391M65.805,68.841c-.293.187-.906-.335-.858.454.034.555.055,1.169.723,1.328.5.119,1.128-.618,1.133-1.218.007-.846-.682-.341-1-.563M32.489,89.875c-.77-.519-1.473-1.009-2.194-1.472a.652.652,0,0,0-.956.261c-.255.426.267.374.439.509.384.3.835.518,1.221.818a.938.938,0,0,0,1.49-.116m85.422,280.6-.276.107c.757,1.687.438,3.79,2.281,5.056l-2.005-5.163M58.6,64.49c-.124-.031-.307-.089-.4.057-.115.181.021.353.126.5.227.321.659.5.706.94.016.154.233.575-.329.249-.443-.256-.321.384-.454.614-.251.436.178.515.413.628.287.138.449-.031.5-.337.084-.48.17-.961.291-1.433.27-1.055.228-1.129-.855-1.22m19.6-4.8c-.663-.036-1.184-.077-1.706-.089a.578.578,0,0,0-.652.614c0,.235-.211.673.173.7a5.137,5.137,0,0,0,1.738-.2c.392-.117.232-.643.447-1.021m-19.34,89.124c-2.181.257-2.363,1.958-2.825,3.433l2.825-3.433M73.007,41.7c.166-2.507.555-5,.8-7.507a22.237,22.237,0,0,0-.8,7.507m-2.15,14.789c.42-.051.95.4,1.243-.242.138-.3.364-.827-.005-1a2.9,2.9,0,0,0-1.768-.318c-.358.095-.325.845-.252,1.391.432-.231.493-.718.891-.819.38.394-.247.595-.109.984M85.634,71.731c-.589.049-1.2-.077-1.452.166-.32.3.044.856.161,1.29.07.26-.152.386-.2.58-.085.371.171.81.389.842.424.064.356-.388.344-.68a5.287,5.287,0,0,1,.754-2.2M50.7,276.825a6.07,6.07,0,0,0-2.6,3.149c.882-.475,1.412-1.347,2.19-1.89a.9.9,0,0,0,.411-1.259M55.018,56.909c.678.279,1.19.36,1.3-.594a3.7,3.7,0,0,1,.356-.949c.307-.736.621-1.468.933-2.2l-.152-.068-2.433,3.814M113.246,361.6c-.838,1.735-.725,3.2.284,4.085a16.121,16.121,0,0,0-.284-4.085M89.426,28.154c-.743.327-.357,1.1-.56,1.615-.184.468.482.362.6.668.663-.4.644-1.109.77-1.739.143-.713-.481-.319-.81-.544M82.782,69.832c-.451-.1-.753-.144-1.035-.243-.572-.2-.888-.106-.8.586a2.792,2.792,0,0,1,.011.642c-.049.478.133.484.578.471,1-.03.73-.942,1.244-1.455m18.982,64.54a13.239,13.239,0,0,0-.857-3c-.815,1.69-.554,2.642.857,3m.266,210.508c.145-.654.239-1.093.34-1.53.107-.463.221-.924.351-1.465-1.771,1-1.771,1-.69,2.995M38.917,118.564c1.359.567,1.63-.665,2.282-1.339a1.7,1.7,0,0,0-2.282,1.339M65.7,53.948c-.139-.19.335-.692-.3-.688a5.4,5.4,0,0,0-1.169,1.826c.02.205.19.206.324.259.862.338,1.254-.124,1.15-1.4m13.458,2.691c-.119-.819-.844-.5-1.279-.545-.547-.055-.394.713-.789.922.451.459,1.071.223,1.6.367.554.15.314-.437.466-.744m6.262,3.728c.554-.6.775-1.3,1.364-1.729.225-.163.1-.456.007-.689a.565.565,0,0,0-.594-.345c-.248-.005-.44.069-.46.337a14.7,14.7,0,0,0-.317,2.427m-9.453,6.979a8.724,8.724,0,0,0-3.335-.128c-.182.018-.271.336-.22.561.085.371.335.122.517.11,1.009-.066,1.974-.439,3.038-.544m-9.506-9.334c-.713-.109-1.2.355-1.776.537a.368.368,0,0,0-.222.455c.04.1.247.12.378.179.754.337,1.277-.111,1.8-.535.158-.127.43-.218.335-.479s-.375-.118-.519-.156m10.329,3.837c-.309.144-.9-.444-.9.327a.926.926,0,0,0,.9,1.057c.754.064.757-.449.808-.911.084-.763-.549-.293-.813-.473M53.033,58.865c-1.555.7-1.806,1.972-1.678,3.415a29,29,0,0,1,1.678-3.415M25.261,94.171c-.187.073-.328.09-.4.169s-.058.221.056.314c.644.522,1.289,1.041,1.926,1.571.232.193.387.1.536-.1.087-.115.277-.262.114-.382-.737-.546-1.5-1.062-2.229-1.575M13.3,100.836q.9.244,1.8.488a.672.672,0,0,0,.8-.457c.186-.382-.261-.446-.451-.547-.824-.441-1.429.278-2.15.516M69.411,68.313a1.512,1.512,0,0,1,1.62-.322c.653.128.93-.118.86-.773-1.739-.159-2.316.071-2.48,1.095m-34.734,42c-1.328-1.287-3.3-1.968-3.966-1.459l3.966,1.459M74.845,40.352l-.206.043c-.111.782-.226,1.563-.33,2.346-.048.36.05.572.491.566.416-.006.524-.145.449-.541-.151-.8-.271-1.609-.4-2.414M44.939,282.778c1.009-.842,2.118-1.61,2.5-2.973a7.128,7.128,0,0,0-2.5,2.973m61.635,56.141a4.071,4.071,0,0,0-2.884,1.422c-.068.072-.058.239-.043.357.006.045.156.126.192.106a7.52,7.52,0,0,0,2.736-1.885m-70.9-235.61a8.42,8.42,0,0,0,1.984,1.26c.3.157.356-.13.46-.3s.155-.375-.066-.47c-.711-.3-1.353-.9-2.379-.493M65.957,68.285c.271-.078.6-.158.917-.266a.538.538,0,0,0,.334-.682c-.088-.362-.384-.154-.6-.116a8.214,8.214,0,0,0-.808.17c-.29.082-.805-.108-.769.416.033.478.522.387.926.478m16.553.155v.007c-.307,0-.616.009-.923,0-.251-.01-.427.061-.442.338-.014.252.166.278.362.306.363.053.721.163,1.085.182.475.026,1.062-.255,1.071-.6.015-.565-.586-.067-.879-.229-.071-.039-.181-.006-.274-.006M23.287,109.815A8.153,8.153,0,0,0,21.94,112.2c1.967-1.042,1.994-1.086,1.346-2.382m-2.882-6.7c-.821-1.451-2.19-1.651-3.268-2.3a8.533,8.533,0,0,0,3.268,2.3M72.726,37.394l1.162-5.815a13.149,13.149,0,0,0-1.162,5.815M73,44.814c-.035,1.346,1.1,2.066,2.636,1.686A8.839,8.839,0,0,1,73,44.814m6.771,14.269c.845.178,1.043-.478,1.157-.945.093-.378-.4-.162-.638-.206-.674-.125-1.056.143-1.093.842-.029.565.43.216.574.309M41.11,103.89c-.047-.058-.086-.146-.152-.181-.462-.241-.931-.47-1.4-.706-.24-.122-.37.037-.411.214-.2.882.747.654,1.066,1.056.168.212.584.461.767-.105a2.782,2.782,0,0,1,.127-.278m12.663,68.577c.528-.352,1.077-.688,1.588-1.074.2-.148-.018-.329-.123-.469-.129-.172-.251-.348-.52-.184a3.313,3.313,0,0,0-1.183,1.376c-.093.179-.055.369.239.35M20.867,321.828c.323-.746.623-1.5.975-2.235.219-.454-.242-.414-.386-.573-.2-.223-.309-.005-.329.19a7.772,7.772,0,0,0-.26,2.618m47.1-272.753,0,.019c-.246-.012-.492-.034-.739-.032-.156,0-.315.042-.314.249a.247.247,0,0,0,.219.254c.762.118,1.524.237,2.289.332a.4.4,0,0,0,.42-.4c.025-.228-.223-.248-.4-.269-.49-.055-.98-.1-1.47-.154M47.273,94.041c-.038-.083-.053-.2-.11-.226q-.9-.439-1.823-.847a.261.261,0,0,0-.235.1c-.084.156,0,.291.131.391.433.337.856.69,1.307,1,.489.338.5-.209.73-.417m10.276,71.8c.774-.065,1.434-.447,2.177-.471.319-.01.586-.043.406-.458-.113-.262-.174-.642-.633-.377a7.92,7.92,0,0,0-1.949,1.306m9.016-99.306c.359-.105,1.055.226,1.1-.27.043-.524-.679-.374-1.082-.484-.119-.032-.239-.057-.357-.092a.562.562,0,0,0-.733.5c-.084.455.355.265.582.315a3.085,3.085,0,0,0,.494.028M94.158,100.6c.057-1.046.518-2.118-.363-3.2a5.349,5.349,0,0,0,.363,3.2M82.737,83.245a9.84,9.84,0,0,1,.624-1.138c.224-.311.205-.45-.147-.614s-.523-.1-.577.279a.91.91,0,0,1-.787.757,1.409,1.409,0,0,0,.887.716M38.225,104.81c.448.208.892.444,1.358.618.2.075.465.253.674-.028.036-.049.1-.122.085-.158-.261-.658-1.027-.56-1.466-.97-.239-.224-.377.029-.5.205a2.844,2.844,0,0,0-.155.333M109.6,342.691l.245-.077-.816-4.2-.286.051a21.8,21.8,0,0,0,.856,4.224m.32,19.288c.279-1.447-.683-2.348-1.274-3.394a10.637,10.637,0,0,0,1.274,3.394M45.107,81.244c.424-.588.778-1.084,1.139-1.573.1-.129.189-.253.09-.409-.063-.1-.158-.205-.3-.143-.556.248-.786.827-1.207,1.218-.286.266.058.534.275.908M81.6,54.734a12.964,12.964,0,0,0,2.558.832c-.79-1.224-1.04-1.309-2.558-.832M34.647,98.111l.224.156,2.215-3.219-.231-.157a17.264,17.264,0,0,0-2.209,3.22M75.528,45.883c.274-1.048-.69-1.245-1.2-2-.024,1.117.2,1.807,1.2,2M64,49.658a3.679,3.679,0,0,0,1.9.869c.267.039.5.01.521-.338.023-.31-.187-.343-.411-.363-.67-.058-1.34-.112-2.009-.168m3.264,19.989c.164.246-.113.812.4.764.451-.042.69-.484.756-.944.073-.5-.323-.416-.609-.461-.519-.082-.52.28-.549.64M25.613,103.921l.153-.289-2.02-1.182a.361.361,0,0,0-.5.086c-.111.129-.028.236.09.293.755.367,1.514.728,2.271,1.091m81.321,247.16c-.041.937-1.214,1.833-.113,2.931a10.854,10.854,0,0,0,.113-2.931M73.2,50.96l-.089.222c.621.053.966.489,1.382.831a.8.8,0,0,0,.47.147,1.775,1.775,0,0,0,.244-.676c.032-.287-.251-.2-.4-.232-.533-.111-1.072-.2-1.608-.291M64.515,65.5c-.643-.271-.793,0-.857.382-.094.567.4.423.664.512.548.182.769-.253.783-.627.02-.536-.509-.226-.59-.268M37.678,113.6a.555.555,0,0,0,.53.5c.64.028.491-.607.618-.934.156-.4-.4-.5-.594-.484-.5.044-.241.643-.554.916m6.687-12.827-.208-.087q-.751,1.418-1.5,2.835c-.077.145-.143.3.023.4.15.089.281.022.359-.155.439-1,.885-2,1.329-2.993M41.7,106.822c.067-.379-.176-.412-.383-.4-.64.024-.679.628-.866,1.025-.173.367.316.356.46.363.715.036.454-.739.789-.984M30.185,97.98A4.856,4.856,0,0,0,28.8,96.9c-.069-.028-.244.15-.34.259a.2.2,0,0,0,.067.313c.436.285.868.58,1.322.834.234.131.322-.05.341-.323m48.3-18.248c.785.638,1.367,1.113,1.95,1.584.113.091.239.238.379.066.121-.149.181-.359-.016-.479a4.526,4.526,0,0,0-2.313-1.171m-28.461,8.39a.367.367,0,0,0,.236-.552,9.406,9.406,0,0,0-1.39-1.066c-.224-.142-.363.1-.265.283a4.2,4.2,0,0,0,1.419,1.335M74.2,30.614l1.313-4.342A10.5,10.5,0,0,0,74.2,30.614m-34.757,77.3a12,12,0,0,0-1.622,2.985c1.132-1.374,1.547-2.134,1.622-2.985M86.488,67.894a4.538,4.538,0,0,0-1.071-2.723,5.361,5.361,0,0,0,1.071,2.723M39.383,85.361a2.358,2.358,0,0,0,2.141,1.3,4.6,4.6,0,0,0-2.141-1.3M83.173,28.74c-.684.166-1.122.283-1.564.376-.332.07-.506.287-.421.583.1.344.353.038.536.044.615.023.965-.371,1.45-1M65.778,73.7a3.244,3.244,0,0,0,2.321.469c-.721-.187-1.268-1.14-2.321-.469M35.005,93.026c.325.667.914.814,1.39,1.1.131.078.282.176.4,0,.1-.147.026-.279-.087-.4a2.207,2.207,0,0,0-1.7-.7M79.156,55.5c.143-1.355.076-1.438-1.168-1.4a5.77,5.77,0,0,0,1.168,1.4m-10.7.622c.466.015.941.238,1.061-.041a1.758,1.758,0,0,0-.083-1.55l-.978,1.591M45.925,95.987l.065-.12c-.447-.4-.9-.8-1.339-1.206-.212-.2-.352-.164-.51.074-.171.257-.186.434.132.563.553.225,1.1.458,1.653.688M78.26,68.64a4.863,4.863,0,0,0,1.95.354c.208.035.369-.058.371-.288,0-.186-.14-.255-.31-.253a4.075,4.075,0,0,0-2.012.187m1.86-9.148c-.387.186-1.028-.4-1.168.447-.048.294,0,.41.33.483.76.166.726-.42.837-.93m-.083,1.86c.329.519.772.3,1.079.467.665.353.9.1.87-.6l-1.949.131M101.277,338.8c-1.1-.4-1.77-.047-1.7.974l1.7-.974M40.543,116.349a4.676,4.676,0,0,0-2.419-1.579,7.359,7.359,0,0,0,2.419,1.579m-.555-32c.215-.391.808-.47.911-.99.038-.192-.233-.533-.352-.443a4.768,4.768,0,0,0-.958,1.024c-.069.094.131.322.4.41m8.419,1.714a4.465,4.465,0,0,0-1.148-1.179.187.187,0,0,0-.3.1c-.112.51.407.6.632.888a2.087,2.087,0,0,0,.478.418c.149.1.287.071.334-.228M25.566,99.505c-.058-.277-.25-.441-.4-.371a2.611,2.611,0,0,0-.983,1.037c-.062.1.177.278.324.233.493-.15.71-.622,1.056-.9m6.215,15.4c-.184-.536-.6-.626-.94-.764-.361-.146-.487.207-.558.444-.1.331.217.3.406.314.346.022.694.006,1.093.006m6.579,2.814c-.188-.377-.532-.173-.794-.209s-.528.069-.489.384c.052.422.5.467.771.493.363.035.319-.44.513-.668m33.238-66c.2,0,.426.137.509-.112s-.129-.3-.313-.342a3.193,3.193,0,0,0-1.416-.186c-.052.011-.122.2-.107.212.391.331.919.237,1.327.428m-2.275-1.271a4.552,4.552,0,0,0-2.426-.278,4.517,4.517,0,0,0,2.426.278m14.866,4.107c.522.628.719,1.274,1.4,1.508-.24-.61-.289-1.381-1.4-1.508m13.743,58.962.253,2.643.26-.032a3.934,3.934,0,0,0-.512-2.611M16.883,99.081c.876.554,1.21-.217,1.7-.506.036-.021.038-.178,0-.233a.231.231,0,0,0-.323-.061c-.437.251-.872.506-1.377.8m35.852-9.645c-.475-.394-.844-.7-1.216-1.007-.125-.1-.261-.171-.4-.022a.212.212,0,0,0,0,.324c.405.394.772.877,1.621.7M54.6,75.691c-.221,0-.384.039-.335.247a1.219,1.219,0,0,0,.887.831c.169.06.286-.265.258-.393-.1-.436-.522-.523-.809-.685m32.789-3.619c-.533.281-.92.5-.814,1.011.03.144.435.366.5.32.413-.3.3-.765.315-1.331m-1.254.489c.227-.44.846-.637.735-1.277-.023-.131-.155-.247-.264-.183-.506.3-.505.855-.636,1.342,0,.018.083.06.165.118M74.076,57.5c0-.058,0-.116.005-.174l-1.546-.189c.021.356.26.58.063.937l1.478-.574M17.931,102.144a2.472,2.472,0,0,0-1.349-1,.34.34,0,0,0-.439.232c-.07.209.133.238.264.282.451.152.906.291,1.524.488m14.176-.912a9.018,9.018,0,0,1,.871-1.091c-.419.021-.867-.434-1.147-.045-.226.315.168.7.276,1.135m49.367-33.31a1.014,1.014,0,0,0,.693.057c.293-.025.618.068.844-.2a.188.188,0,0,0-.1-.3,1.178,1.178,0,0,0-1.052-.046c-.161.1-.388.191-.388.481M34.314,91.853l.139-.119c-.252-.3-.494-.6-.761-.885-.215-.229-.44-.174-.621.06-.257.334.039.415.254.514.326.151.659.287.989.43M85.837,60.911c.46-.579,1.22-.978,1.212-2.014a5.225,5.225,0,0,0-1.212,2.014M81.868,72.472c.28.01.628.01.69-.289.058-.279-.271-.316-.471-.255-.35.107-.99-.212-1.012.348-.033.831.614-.285.794.2m-11.689-3.2c-.438-.129-.809-.429-1.077.074-.094.176-.277.575-.037.648.536.162.717-.392,1.114-.722M33.956,116.63l.067-.136c-.318-.258-.632-.522-.956-.772-.205-.158-.341,0-.46.141-.178.214-.054.332.154.4.4.127.8.246,1.2.368m80.077,248.759c.107.663-.411,1.421.362,2.062a5.238,5.238,0,0,0-.362-2.062M78.558,47.042c-.907.71-1.209,1.182-1.226,1.871a6.755,6.755,0,0,0,1.226-1.871M36.386,102.789c-.5-.778-.869-.963-1.181,0Zm32.38-37.3a2.415,2.415,0,0,0,1.427.142c.031-.008.058-.22.033-.233a2.376,2.376,0,0,0-1.3-.073c-.019,0-.037.037-.155.164" transform="translate(-0.516 0)" fill="#9f7f8e"/>
      <path id="パス_107" data-name="パス 107" d="M250.46,53.5c-.435,1.36-1.26,2.536-1.808,3.844-.254.606-.662,1.335-.215,1.826.59.648.106,1-.112,1.44a12.894,12.894,0,0,0-.934,6.982,11.141,11.141,0,0,0,.79,3.51,3.254,3.254,0,0,0,2.339,2.028c1.037.253,2.07.518,3.088.876a17.7,17.7,0,0,1-3.444-.455,5.516,5.516,0,0,0,3.714,1.506c-.008.4-.3.281-.473.277a5.113,5.113,0,0,1-3.856-1.532c-1.1-1.2-2.667-1.837-3.665-3.2a3.25,3.25,0,0,1-.562-3.442,1.746,1.746,0,0,1,.827-.835c-.532,1.177-1.106,2.174-.4,3.278a11.762,11.762,0,0,0,2.224,2.341,15.534,15.534,0,0,1-1.053-7.2,10.676,10.676,0,0,1,1.068-4.282,1.385,1.385,0,0,0-.053-1.545c-.445,1.177-.894,2.226-1.241,3.308-.771,2.4-1.894,4.706-2.041,7.287-.09,1.593.014,3.1,1.408,4.193.078.061.078.219.123.357-1.056-.345-1.269-.7-2.173-3.25a33.958,33.958,0,0,1-.9-4.027c-.333,2.6-.886,5.224.67,7.636a4.7,4.7,0,0,0,3.934,2.251,28.849,28.849,0,0,0,4.737-.514c-4.848,2.118-9.386.875-10.057-4.361a18.679,18.679,0,0,1,.743-7.284c.339-1.265.281-2.57.541-3.847,1.254-6.154,3.627-11.71,8.281-16.107.494-.467.968-.956,1.46-1.425a6.847,6.847,0,0,1,.567-.432.668.668,0,0,1-.236.96,16.318,16.318,0,0,0-3.993,4.127,28.618,28.618,0,0,0-3.2,5.213,40.96,40.96,0,0,0-2.623,8.841c-.009.054.033.117.074.251.51-.291.365-.868.577-1.257,1.43-2.619,3.051-5.119,4.59-7.669a81.682,81.682,0,0,1,4.781-7.227,33.672,33.672,0,0,1,6.815-6.756c.122-.09.275-.228.4-.212.365.048.736-.633.924-.214s-.512.245-.724.463c-1.318,1.359-3.157,2.135-4.233,3.768.6.438,1,.218,1.424-.3a27.564,27.564,0,0,1,4.97-4.555,2.336,2.336,0,0,1,2.352-.324,15.055,15.055,0,0,1,4.432,2.248,1.71,1.71,0,0,1,.766,1.393c-1.319-1.051-2.393-2.346-4.124-2.618a2.029,2.029,0,0,1-.667-.307,2.39,2.39,0,0,0-2.806.176,31.1,31.1,0,0,0-5.484,5.193,1.442,1.442,0,0,0-.163.426l-.334.527c-1.11.84-1.9,2-2.914,2.936a14.218,14.218,0,0,0-2.885,3.287,1.2,1.2,0,0,0-1.044.577c-.706,1.426-1.751,2.681-2.175,4.25-.07.258-.294.5.106.692A26.7,26.7,0,0,1,250.46,53.5M244.2,69.456a48.273,48.273,0,0,1,2.187-7.659c.623-1.954,1.652-3.778,1.824-5.876.014-.175.178-.352-.07-.456-.213-.089-.224.1-.291.243-1.164,2.451-2.681,4.721-3.692,7.252-.87,2.18-.427,4.33.042,6.495m13.157-25.443a7.122,7.122,0,0,0-1.756,1.274c-.167.206-.209.372-.03.556.239.247.377.034.5-.144a9.555,9.555,0,0,0,1.289-1.686M253.638,48.3a5.874,5.874,0,0,0,1.862-2.132,5.339,5.339,0,0,0-1.862,2.132" transform="translate(-191.744 -29.78)" fill="#9f7f8e"/>
      <path id="パス_108" data-name="パス 108" d="M284.243,69.025l.334-.526a1.932,1.932,0,0,1,1.077-.308c-.027.413-.9.643-.262,1.156-.185.158-.345.387-.558.461a3,3,0,0,0-1.705,1.97,60.159,60.159,0,0,0-3.952,16.04,18.748,18.748,0,0,0,.257,5.9,1.615,1.615,0,0,0,.491,1.151,46.672,46.672,0,0,1,.191-4.733,57.334,57.334,0,0,1,2.9-11.545,60.378,60.378,0,0,1,3.225-7.975c.3-.568.654-1.113.909-1.7.2-.458.605-.309.768-.407A63.394,63.394,0,0,0,280.8,88.475a27.438,27.438,0,0,0-.366,7.025,4.006,4.006,0,0,0,1.7,2.757c-1.415-5.214-.114-10.109,1.128-15.013a62.612,62.612,0,0,1,4.013-11.224c.377-.805.868-1.556,1.264-2.353a.742.742,0,0,1,.93-.453c-2.4,3.312-3.575,7.159-4.874,10.947a54.474,54.474,0,0,0-2.141,8.338c-.526,3.02-.9,6.052-.055,9.092.172.621.637,1.089.779,1.74a9.993,9.993,0,0,0-1.957-1.277c.067.69.707.9,1.018,1.438-.86-.019-1.138-.646-1.453-1.169a.977.977,0,0,0-.751-.562,4.193,4.193,0,0,1-3.4-3.275c-.97-3.174-.555-6.351.205-9.48.707-2.908,2.2-5.547,3.134-8.37a31.061,31.061,0,0,1,4.268-7.611m-2.529,4.932c-.314.128-.389.4-.5.642a64.565,64.565,0,0,0-3.9,10.283,18.439,18.439,0,0,0-.5,8.59,4.608,4.608,0,0,0,2.619,3.689c.248.1.53.387.761.191.3-.259,0-.587-.132-.828a12.113,12.113,0,0,1-1.4-6.535,46.5,46.5,0,0,1,1.237-9.05c.569-2.326,1.208-4.634,1.824-6.982" transform="translate(-218.477 -53.958)" fill="#9f7f8e"/>
      <path id="パス_109" data-name="パス 109" d="M294.079,605.839c.339.049.393-.494.843-.344-.163.414-.522.836-.07,1.318a3.237,3.237,0,0,0,1.222.8,12.741,12.741,0,0,0,5.315.409,22.247,22.247,0,0,0,6.49-.916c.229-.081.607-.064.488.281-.466,1.346-.21,2.728-.281,4.091-.119,2.286.147,4.573.009,6.863a1.161,1.161,0,0,1-.683,1.09c-1.141.611-2.255,1.274-3.37,1.932a2.607,2.607,0,0,1-2.144.091c-1.578-.385-3.223-.524-4.8-.952a13.071,13.071,0,0,1-3.577-1.174c-.884-.542-.926-.731-.186-1.451.147-.142.063-.277.055-.422-.213-3.927.2-7.844.188-11.768,0-.316-.135-.7.238-.924a.287.287,0,0,1,.247.059c.356.3-.084.551-.055.832a.775.775,0,0,0,.071.182m.058.888a1.248,1.248,0,0,0-.156.83c-.021,1.3-.021,2.6-.057,3.9-.066,2.425-.407,4.84.118,7.277.13.6.472.491.7.567.963.322,1.952.568,2.94.808s2,.4,2.974.676c.816.234,1.757-.442,2.495.392.128.145.45-.058.665-.2,1.008-.649,2.074-1.2,3.093-1.835a1.39,1.39,0,0,0,.753-1.385c0-1.324-.041-2.648-.054-3.971-.018-1.808-.015-3.616-.055-5.423-.005-.222.229-.714-.48-.554a36.224,36.224,0,0,1-8.462.779,5.473,5.473,0,0,1-4.472-1.86" transform="translate(-231.729 -478.593)" fill="#9f7f8e"/>
      <path id="パス_110" data-name="パス 110" d="M286.13,600.8a.849.849,0,0,1,.43.977c-.31,2.48-.614,4.963-.82,7.454a47.46,47.46,0,0,0,.417,6.731c.029.49.1.978.128,1.468.067,1.168.209,1.423,1.414,1.342,3-.2,5.532,1.138,8.068,2.387a10.854,10.854,0,0,1,3.074,2.29,26.3,26.3,0,0,0,2.489,1.857,11.544,11.544,0,0,1,.989,1.177l.017-.029c-.281-.035-.6.239-.842-.108-.7-.977-1.823-1.456-2.649-2.271a20.425,20.425,0,0,0-7.978-4.489c-1.1-.383-1.321-.257-1.509.857-.66,3.906-1.885,7.674-2.805,11.517a10.228,10.228,0,0,1-1.225,3.233,5.36,5.36,0,0,1,.383-1.517c1.06-4.593,2.5-9.1,3.236-13.765.089-.563-.159-.786-.665-.616a3.993,3.993,0,0,1-1.911-.157.49.49,0,0,1-.438-.513c-.219-2.832-.579-5.66-.634-8.495-.06-3.132.886-6.2.856-9.348Z" transform="translate(-225.779 -475.451)" fill="#9f7f8e"/>
      <path id="パス_111" data-name="パス 111" d="M334.457,86.3c1.527-3.366,2.772-6.866,5.908-9.152-.569.966-1.48,1.661-2.066,2.643a33.908,33.908,0,0,0-4.907,14.722,22.3,22.3,0,0,0-.033,4.814,5,5,0,0,0,1.27,2.922c-.529-.111-.529-.111-1.251-1.193a9.027,9.027,0,0,0,1.412,5.2,1.766,1.766,0,0,1-.943-.995,12.8,12.8,0,0,1-1.062-5.784,56.73,56.73,0,0,1,2.094-16.31,35.033,35.033,0,0,1,3.153-7.19c.186-.349.115-.808.5-1.065.186-.126.285-.475.592-.248s.157.412-.035.681a25.476,25.476,0,0,0-3.51,6.993c-.42,1.3-.749,2.638-1.119,3.958" transform="translate(-263.351 -59.031)" fill="#9f7f8e"/>
      <path id="パス_112" data-name="パス 112" d="M315.876,100.1c-.558.2-.749-.138-.949-.439a7.715,7.715,0,0,1-1.039-4.163,44.018,44.018,0,0,1,1.079-9.92,67.751,67.751,0,0,1,3.543-12.145,31.921,31.921,0,0,1,1.881-3.5c.161-.292.449-.387.89-.434-2.108,2.684-3.082,5.806-4.029,8.9a59.623,59.623,0,0,0-2.94,16.713,16.081,16.081,0,0,0,.417,3.21,3.121,3.121,0,0,0,1.147,1.782" transform="translate(-248.393 -54.998)" fill="#9f7f8e"/>
      <path id="パス_113" data-name="パス 113" d="M323.4,111.915c-.744-.024-1.064-.592-1.332-1.157a11.994,11.994,0,0,1-.895-5.436,41.129,41.129,0,0,1,2.416-13.411c.944-2.635,2.1-5.171,3.107-7.775.212-.55.271-.55,1.03-.229a7.859,7.859,0,0,0-1.916,3.418,54.4,54.4,0,0,0-2.725,7.272,37.292,37.292,0,0,0-1.308,13.66,5.356,5.356,0,0,0,1.623,3.658" transform="translate(-254.165 -66.23)" fill="#9f7f8e"/>
      <path id="パス_114" data-name="パス 114" d="M346.646,1354.761c-.82.744-1.213.744-1.805.052a9.344,9.344,0,0,1-1.716-3.955c-.369-1.46-.564-2.964-.86-4.444a2.47,2.47,0,0,1,.281-1.62c.2,1.231.359,2.28.531,3.327a21.483,21.483,0,0,0,1.664,5.753c.45.952.877,1.185,1.9.887" transform="translate(-270.83 -1064.248)" fill="#9f7f8e"/>
      <path id="パス_115" data-name="パス 115" d="M321.863,1334.6c.174,1.493.279,3,.541,4.475a27.759,27.759,0,0,0,1.4,5.548c.121.3.091.766.635.783.287.009.113.209.042.314-.141.208-.32.308-.521.066a4.342,4.342,0,0,1-.789-1.463,38.567,38.567,0,0,1-1.667-8.62,1.324,1.324,0,0,1,.364-1.1" transform="translate(-254.424 -1056.179)" fill="#9f7f8e"/>
      <path id="パス_116" data-name="パス 116" d="M392.62,478.523a2.179,2.179,0,0,1-1.091-.532,3.649,3.649,0,0,1-1.023-2.749c-.116-1.005.957-1.493,1.923-.939a3.6,3.6,0,0,1,1.633,2.762,1.437,1.437,0,0,1-1.442,1.457m-1.418-2.435a1.824,1.824,0,0,0,1.1,1.843.838.838,0,0,0,1.139-.291c.505-.7.075-1.323-.224-1.945-.026-.054-.084-.092-.112-.145-.285-.545-.764-1.129-1.306-.964-.509.155-.541.936-.6,1.5" transform="translate(-309.033 -375.172)" fill="#9f7f8e"/>
      <path id="パス_117" data-name="パス 117" d="M426.534,645.339a7.174,7.174,0,0,1,.059-.923.991.991,0,0,1,.782-.806.814.814,0,0,1,1.037.366,4.565,4.565,0,0,1,.744,3.07c-.1.515-.238,1-.807,1.112a1.265,1.265,0,0,1-1.264-.62,3.363,3.363,0,0,1-.552-2.2m.467-.232a4.068,4.068,0,0,0,.351,1.943.909.909,0,0,0,.946.609c.345-.059.4-.493.481-.828a3.469,3.469,0,0,0-.293-1.887c-.19-.609-.715-.643-1.179-.64-.654,0-.082.541-.306.8" transform="translate(-337.55 -509.304)" fill="#9f7f8e"/>
      <path id="パス_118" data-name="パス 118" d="M408.084,560.774a2.881,2.881,0,0,1,.248-1.544c.222-.67.657-.656,1.13-.26a4.844,4.844,0,0,1,.9,4.3.984.984,0,0,1-.863.608,1.158,1.158,0,0,1-1.089-.858,5.618,5.618,0,0,1-.33-2.25m.549.873a1.558,1.558,0,0,0,.195,1.113c.152.27.249.67.7.641.405-.026.444-.383.557-.654.455-1.093-.092-2.03-.5-2.982-.1-.245-.214-.573-.581-.44a.635.635,0,0,0-.372.681c.009.562,0,1.124,0,1.64" transform="translate(-322.921 -442.142)" fill="#9f7f8e"/>
      <path id="パス_119" data-name="パス 119" d="M134.471,1249.381c.289-1.331.615-2.655.857-3.995a54.2,54.2,0,0,0,.491-5.62c.015-.2-.143-.5.185-.5.29,0,.236.337.229.522a30.527,30.527,0,0,1-.835,7.161,5.145,5.145,0,0,1-.927,2.434" transform="translate(-106.418 -980.733)" fill="#9f7f8e"/>
      <path id="パス_120" data-name="パス 120" d="M156.463,1261.563c.381-1.09.772-2.176,1.142-3.269a33.98,33.98,0,0,0,1.252-5.788c.024-.153.039-.307.067-.459.036-.2.133-.386.358-.311.17.057.1.248.082.4a29.893,29.893,0,0,1-2.162,8.4c-.161.371-.122.858-.739,1.026" transform="translate(-123.822 -990.589)" fill="#9f7f8e"/>
      <path id="パス_121" data-name="パス 121" d="M146.618,1257.579a76.64,76.64,0,0,0,2.6-10.16,25.2,25.2,0,0,1-2.6,10.16" transform="translate(-116.031 -987.187)" fill="#9f7f8e"/>
      <path id="パス_122" data-name="パス 122" d="M123.627,1242.873c.8-3.221,1.659-6.427,2.483-9.641.248.925-1.639,8.3-2.483,9.641" transform="translate(-97.836 -975.96)" fill="#9f7f8e"/>
      <path id="パス_123" data-name="パス 123" d="M97.557,545.113c-1.37.158-1.805,1.058-2.329,1.84-.806,1.2-1.575,2.434-2.372,3.645-.1.151-.174.488-.459.272-.206-.156.016-.324.108-.47,1.081-1.726,2.147-3.461,3.252-5.171.389-.6.94-.691,1.8-.116" transform="translate(-73.055 -431.088)" fill="#9f7f8e"/>
      <path id="パス_124" data-name="パス 124" d="M289.72,223.108c1.728-.841,7.394-1.1,8.841-.409-2.985-.513-5.881.559-8.841.409" transform="translate(-229.28 -175.927)" fill="#9f7f8e"/>
      <path id="パス_125" data-name="パス 125" d="M5.6,493.922A5.66,5.66,0,0,1,3.781,495a5.46,5.46,0,0,0-3.045,2.459c-.1.192-.214.3-.406.293-.109,0-.279-.059-.31-.137-.086-.213.13-.314.243-.448a12.8,12.8,0,0,1,2.569-2.236,4.068,4.068,0,0,0,1.012-.78,1.107,1.107,0,0,1,1.751-.227" transform="translate(0 -390.624)" fill="#9f7f8e"/>
      <path id="パス_126" data-name="パス 126" d="M24.138,505.421a4.273,4.273,0,0,1,1.7-1.961c.878-.653,1.321-1.8,2.458-2.152.164-.051.3-.253.6,0-1.534,1.45-3.327,2.575-4.76,4.113" transform="translate(-19.102 -396.628)" fill="#9f7f8e"/>
      <path id="パス_127" data-name="パス 127" d="M209.842,1268.061a8.743,8.743,0,0,1,.157-4.767,23.8,23.8,0,0,1-.157,4.767" transform="translate(-165.857 -999.75)" fill="#9f7f8e"/>
      <path id="パス_128" data-name="パス 128" d="M393.9,177.966c-.026-.364.113-.607.456-.57.488.053.137.33.1.521-.012.059.014.136-.015.179-.177.254.395.777-.159.78-.365,0-.209-.632-.381-.91" transform="translate(-311.72 -140.385)" fill="#9f7f8e"/>
      <path id="パス_129" data-name="パス 129" d="M269.95,844.357a3.052,3.052,0,0,1-3.046-3.02,20.7,20.7,0,0,1,.351-4.6c.168-1.034.279-2.078.445-3.112.033-.2.037-.562.415-.47.414.1.143.362.108.58a48.65,48.65,0,0,0-.845,6.682c-.038,1.665.392,2.988,2.161,3.526a.482.482,0,0,1,.411.411" transform="translate(-211.204 -659.336)" fill="#9f7f8e"/>
      <path id="パス_130" data-name="パス 130" d="M249.266,898.452c1.6-2.647,7.607-7.572,8.9-7.392-2.909,1.632-5.169,4.09-7.475,6.5-.379.4-.71.912-1.421.893" transform="translate(-197.265 -705.166)" fill="#9f7f8e"/>
      <path id="パス_131" data-name="パス 131" d="M251.815,887.356c-.046.552-.475.789-.8.995a14.607,14.607,0,0,0-4.778,5.506.981.981,0,0,0-.186.686.35.35,0,0,1-.363.433c-.371-.05-.259-.37-.184-.587a4.277,4.277,0,0,1,.4-.829,18.464,18.464,0,0,1,3.627-4.729c.689-.581,1.213-1.353,2.285-1.475" transform="translate(-194.227 -702.239)" fill="#9f7f8e"/>
      <path id="パス_132" data-name="パス 132" d="M187.83,420.691a6.742,6.742,0,0,1-1.971,3.092,8.945,8.945,0,0,1,1.971-3.092" transform="translate(-147.086 -332.928)" fill="#9f7f8e"/>
      <path id="パス_133" data-name="パス 133" d="M140.782,192.214c-2.547.183-4.5-1.145-6.354-2.719-1.382-1.176-2.732-2.392-4.1-3.589-.159-.139-.32-.376-.545-.194a.364.364,0,0,0,.048.587c2.752,2.095,4.893,5.081,8.308,6.212a8.974,8.974,0,0,0,2.957.426c2.819-.037,5.35.6,7.238,3,.112.142.232.466.491.276s.194-.455.005-.7a7.524,7.524,0,0,0-3.318-2.542,10.6,10.6,0,0,0-4.732-.753" transform="translate(-102.607 -146.917)" fill="#9f7f8e"/>
      <path id="パス_134" data-name="パス 134" d="M93.325,143.821c-.877-.133-1.864-.355-2.862-.418-1.65-.1-1.994.486-1.34,1.955a21.093,21.093,0,0,1,1.076,3c.274,1,.3,1.953,1.542,2.515.862.391.974,1.5.376,2.479a4.169,4.169,0,0,1-4.332,1.483,1.455,1.455,0,0,1-.91-2.1,3.3,3.3,0,0,1,1.031-1.759c2.451-1.455,1.273-3.125.559-4.921-.494-1.244-1.993-2.3-.984-3.935a12.048,12.048,0,0,1,.743-1.078c1.851-2.369,2.129-2.366,3.427.3a2.193,2.193,0,0,0,1.906,1.286c.5.067,1.347-.221,1.27.662-.073.84-.881.406-1.5.526" transform="translate(-68.64 -110.245)" fill="#9f7f8e"/>
    </g>
  </g>
</svg>
