<svg xmlns="http://www.w3.org/2000/svg" width="146" height="147" viewBox="0 0 146 147">
  <g id="グループ_82" data-name="グループ 82" transform="translate(-1127 -1289)">
    <path id="パス_233" data-name="パス 233" d="M71.5,0A71.5,71.5,0,1,1,0,71.5,71.5,71.5,0,0,1,71.5,0Z" transform="translate(1127 1293)" fill="#f9f29b"/>
    <path id="パス_231" data-name="パス 231" d="M44.211,22.992a2.753,2.753,0,0,1-1.992-.8l-.234-.7A52.209,52.209,0,0,0,47.82,9.141a2.242,2.242,0,0,0-1.758-.469l-1.852.938-.937-.586-.234-.7a7.975,7.975,0,0,1,2.344-1.055h1.148a4.087,4.087,0,0,1,2.813,1.406l.117.117V10.43a84.281,84.281,0,0,1-5.25,10.828l.234.234H46.3a2.485,2.485,0,0,1,1.641-.586,1.59,1.59,0,0,1,.469,1.172,2.705,2.705,0,0,1-2.109.914Zm11.766.047-1.266-.562-.586-1.148v-2.18l.117-.117V17.766A25.583,25.583,0,0,1,57.688,7.2l1.031-.117.586.469.117.563.914.586a4.811,4.811,0,0,1,.68,2.063v2.3l-.117.117V14.32a18.237,18.237,0,0,1-3.68,8.156Zm.094-1.711a10.414,10.414,0,0,0,1.969-3.094,16.611,16.611,0,0,0,1.477-5.3v-2.3l-.328-.68-.82-.352a25.3,25.3,0,0,0-2.391,7.008v1.148l-.234.8v1.852l-.117.563.352.469Zm12.141,1.664a2.753,2.753,0,0,1-1.992-.8l-.234-.7A52.209,52.209,0,0,0,71.82,9.141a2.242,2.242,0,0,0-1.758-.469l-1.852.938-.937-.586-.234-.7a7.975,7.975,0,0,1,2.344-1.055h1.148a4.087,4.087,0,0,1,2.813,1.406l.117.117V10.43a84.281,84.281,0,0,1-5.25,10.828l.234.234H70.3a2.485,2.485,0,0,1,1.641-.586,1.59,1.59,0,0,1,.469,1.172,2.705,2.705,0,0,1-2.109.914Zm12,0a2.753,2.753,0,0,1-1.992-.8l-.234-.7A52.209,52.209,0,0,0,83.82,9.141a2.242,2.242,0,0,0-1.758-.469l-1.852.938-.937-.586-.234-.7a7.975,7.975,0,0,1,2.344-1.055h1.148a4.087,4.087,0,0,1,2.813,1.406l.117.117V10.43a84.281,84.281,0,0,1-5.25,10.828l.234.234H82.3a2.485,2.485,0,0,1,1.641-.586,1.59,1.59,0,0,1,.469,1.172,2.705,2.705,0,0,1-2.109.914Zm17.234.531-.408-.093-.093-.891.2-1.818-.093-.13V19.07l.111-.872a2.015,2.015,0,0,0-1.447-.334,3.414,3.414,0,0,1-1.967.594,2.145,2.145,0,0,0-1.41-.223l-1.744.334-.724-.5-.074-.2a3.2,3.2,0,0,1,1.447-.594h1.577l.705-.241.705-3.674-.946-.52q.148.724-.278,1l-.278.056-.909-.8-.093-.779.093-.111V9.719l.13-.13V6.639l.241-.241h.983l.39.891-.241,1.336,1.095.278,3.859-.687h1.243l.854-.111.724.2.167.612-.111.111H99.839l-.816.278L98.8,10.424v1.726l.464.2.074.427-.649.557v1.429l-.13,1.132.278.816h1.132l1.021-.2h1.132l.983-.13.482.278.074.538-.241.241h-1.206l-1.336.223-1.039-.111-1.113.371-.278.649v2.765l.111.3-.111.353.111.334-.3,1Zm-.334-6.754.167-.148V14.766l.111-1.206-.687-.445-1.058.39-.612,3.117.353.334h1.6Zm-2.635-4.564.816-.13.315.223h1.317l.427-.13.148-.445V9.774L96.462,9.5l-3.024.575-.2.2v2l.872.037ZM23.859,50.781a1.212,1.212,0,0,1-.68-1.289l.914-.8,1.055-.469a15.5,15.5,0,0,0,1.969-4.641l-1.055-.352-1.852,1.641-.7.117-.8-.7v-.7a15.642,15.642,0,0,0,4.172-5.672L27,36.742l-1.383-.234q-1.289.469-2.555.82a1.329,1.329,0,0,1-.586-1.383,6.869,6.869,0,0,1,3.352-.82,4.277,4.277,0,0,1,2.32.938,2.171,2.171,0,0,1,.469,1.734q-.914,2.086-1.969,4.055a2.987,2.987,0,0,1,1.852.938l.234.328v1.289a14.182,14.182,0,0,1-3.023,5.555l-.914.82Zm13.578.464-.687-.39-.3-1.058.093-.074V48.5l-.111-.111V45.753l.111-.111V43.359l.111-.093V42.042l.111-.111V40.558l.223-1.707-.724-1.132.8-.39.148-.445-.093-.3.111-.111h1l1.095.687q2.245-.445,4.509-.687l.8.39,1.076,4.9v1.262l.093.111V45.2l.111.111v1.225l.111.111v1.169l.093.687-.093.111v1.521l-.538.52-1.039-.594-.093-.2.334-1.28V47.015l-.353-2.134h-.779l-.093.111H42.132l-.093.111H40.8l-2.3.334-.371-.148-.334.353v2.468a8.641,8.641,0,0,0,.538,2.431.879.879,0,0,1-.334.705Zm6.9-7.626.13-.891-.353-1.243H43.3l-3.284.668H38.532l-.52.408L37.9,44.027l.779.39,1.818-.334h1.113l.13-.093h1.726Zm-.649-3.414.223-1-.594-1.447-.557-.13-4.286.779-.278,1V40.8l.334.334H39.7A36.579,36.579,0,0,0,43.69,40.205ZM59.963,51l-1.095-1v-.408l.111-.111V47.516l-.093-.26.093-.074V45.419l.13-1.15-1.169-.13-2.616.315L54.619,43.4l.223-.909-.13-.13V39.834l.111-.779-.093-.575a2.619,2.619,0,0,1,1.188-.278h1.429l.093-.093h1.243a1.511,1.511,0,0,0,.3-1.225l-.538-2.134a.846.846,0,0,1,.742-.148l.742.631.538,2.746L61.8,38.2h2.468l.724.2a4.389,4.389,0,0,1,.835,1.911v1.076a12.762,12.762,0,0,0-.538,1.985l-1.354.315H62.561l-.111.111H60.761l-.427.538V49.52l.111,1.076ZM58.942,42.9l.278-.854-.13-.13V39.426l-.315-.3H57.588l-1.336.464-.26.427v2.616l.148.464,1,.111Zm5.028-.482.464-2.134-.482-.891-.167-.167H62.653l-1.521-.2-.557.241-.26.965.13.13v2.134l.334.278h1.206l.111-.093H63.21Zm19.5,8.313-1.132-.705-.074-.26a2.082,2.082,0,0,0,1.206-1.15l.241-1.15V46.068L83.342,43.6l.148-.612-.148-.111V41.114l-.241-.909-1.262-.241-.482.093-.111-.093H78.462a20.476,20.476,0,0,1-4.23-.724l-.3.371V41.3l.093.111v1.15l-.148.334h-.427l-.816-.8V40.984l.111-.093V39.648l-.111-.557.111-.649-.427-2.468a1.094,1.094,0,0,1,.872-.148l.649.631.315,1.614a10.666,10.666,0,0,0,3.191.724h1.169l.093.13h4.453l1.484.724.186.538-.093.093v1.243l.111.111v3.117l.223.928v2.653l-.649,2.134ZM76.718,49.52l-.928-.8-.111-.705.353-1.688V45.011l.093-.111V43.786l.13-.13V42.562a1.059,1.059,0,0,1,.816-.13l.854.2.538-.111,2.468.649.315,1.113V47.5l-.557,1.429-.167.167H79.445ZM79.612,48l.26-1.169a2.307,2.307,0,0,0-1.781-.557l-.742.408-.148,1,.167.5,1.354.093Zm.111-2.746L80,44.361l-.575-.705-1.187-.093-.687.26L77.4,45.029l.687.408H79.52Zm14.918,4.713-1.317-.742a1.571,1.571,0,0,1-.482-1.15l.575-.835a10.594,10.594,0,0,1,3.878-1.521l.093-.093V43.359l-.278-1.132-.3-.111L95.5,42.6H94.456l-.575-.575v-.278a28.289,28.289,0,0,1,3.136-.761l.093-.093V39.574l-.2-.854-.835-.093a20.364,20.364,0,0,0-2.932.761l-.575-.575V38.35a8.332,8.332,0,0,1,2.171-.668h1.132l1.039-.186.111-.093v-.946l.742-.093a.973.973,0,0,1,.575,1.132,1.887,1.887,0,0,0,1.317.278l.946-.093.482.186.186.668-.575.278H99.651l-.093-.093H98.52a2.775,2.775,0,0,0-.278,1.225l.278.946.371.093a13.272,13.272,0,0,0,2.746-.464l.482.464v.39a2.311,2.311,0,0,1-1.039.464H99.744l-.093.093h-.946l-.186.186v1.521l.186,1.039-.093.093v1.039a11.277,11.277,0,0,1,4.453,2.375l.093.371.278.093.093.278-.093.482-.854.093-.278-.39-.39-.186A16.337,16.337,0,0,0,99.28,46.94H98.52a7.83,7.83,0,0,1-1.41,2.468,3.234,3.234,0,0,1-1.521.557Zm1.429-1.317a2.431,2.431,0,0,0,.835-1.614h-.371l-2.171,1.039-.186.668.854.371Zm21.69,1.614a4.17,4.17,0,0,1-3.34-1.54,4.659,4.659,0,0,1-.724-2.6,13.051,13.051,0,0,1,3.006-5.9h-.353a56.1,56.1,0,0,1-5.548,1.021,1.026,1.026,0,0,1-.594-.928l.148-.241h1.28q3.6-.835,7.311-1.317l.538.278.241.649a12.148,12.148,0,0,0-4.008,4.527,5.739,5.739,0,0,0-.761,2v1.058l.575,1.169a2.429,2.429,0,0,0,1.763.482l.445-.093.779.594v.427A.819.819,0,0,1,117.761,50.262Zm6.587-8.628a1.439,1.439,0,0,1-.5-.779V39.166l-.557-2.987q.148-.334.631-.241l.557.371a12.094,12.094,0,0,1,.538,2.1v2.709l-.167.427Zm-3.006-.186-.408-.353-.482-1.855V38.127l-.464-2.06a.722.722,0,0,1,.761-.223l.687.445.3,1.651V38.98l.464,2.134-.241.334ZM30.937,79.431l-.687-.482V78.6q1.54-2.746,3.154-5.789H31.9l-.965.111-.928-.631-.093-.8.223-.52V69.875l.111-.111V68.372l.093-.631-.093-.148v-2a10.23,10.23,0,0,1-.557-2.449l.946-.315,1.577.575,4.268-.668.909.482.315,2.319V66.7l.13.13V68l.353,1.392v1.354l.093.39-.408,1.021-.816.3H35.575l-.668.538v.445a12.324,12.324,0,0,0,1.6,2.69,4.571,4.571,0,0,0,2.969,1.058l1.67-.557.353.167.167.52-.482.557-1.855.315a5.359,5.359,0,0,1-4.472-2.282L34,75.089l-2.431,4.249ZM36.392,71.4l.557-1.076a1.575,1.575,0,0,0-1.614-.427l-.093.093h-2.3l-.965-.13a2.276,2.276,0,0,0-.464,1.688l.334.315h1.763Zm-.111-2.579a1.4,1.4,0,0,0,.26-1.206l-.13-.445-2.022-.111-2.635.575-.148.761.445.557,1.54.093.816-.093,1.113.093Zm-.074-2.876.13-.668-.371-1.28h-.928l-1.113.334H32.439l-.8.39-.13.538.13,1.095h1.651l.557-.223H36ZM54.557,79.394,53.981,79v-.482a5.658,5.658,0,0,0,1.336-2.82l-.724-.186-2.876.724H50.141l-.575-.482V75.33l.742-.167.482.111,4.49-1V73.6a8.494,8.494,0,0,0-2.412-1.132l-.148-.594A9.8,9.8,0,0,0,55.466,70.1l.278-.687-1.521-.167-2.319.334-.687-.39-.074-.371a13.756,13.756,0,0,1,2.245-.408h2.468A1.931,1.931,0,0,1,57.3,69l.111.538A9.052,9.052,0,0,1,55.633,71.4l-.408.148-.2.575,1.707,1.6h.724a7.365,7.365,0,0,1,2.319-.594q.464.074.39.575a25.7,25.7,0,0,1-3.191,1.41,13.714,13.714,0,0,1-1.633,3.971A.868.868,0,0,1,54.557,79.394ZM47.9,70.9l-.427-.464V68.91l.668-3.507.241-.074,1.5.52.186-.649-.687-2.857a.925.925,0,0,1,.8-.111l.5.482.52,2.709,1.039.148,1.855-.557v-.538l-.557-3.006.482-.167.687.594.612,2.895.835.167,1.113-.408q.5-1.781.816-3.433l.408-.056.594.965-.5,2.319.39.39h1.8l.705.408.2.557v1.262l-.631,2.208-.649.186-.278-.148v-.649l.39-2.431-.186-.557-1.262-.13-8.294,1.317h-1.6l-.538,1.132v1.688l-.093.612.074.39L48.4,70.9Zm21.82,8.294-.742-.557v-.315A16.315,16.315,0,0,0,71.85,73.9a9.762,9.762,0,0,1-2.561-3.377,17.22,17.22,0,0,1,3.266-.983H73.8l.093-.093h1.54l.371.315v.278A29.124,29.124,0,0,0,73.39,74.31a17.224,17.224,0,0,0,4.1,3.247l.854.464v.186l-.056.056h-.946a19.381,19.381,0,0,1-4.657-3.136A19.871,19.871,0,0,1,69.9,79.189Zm3.043-6.476a4.052,4.052,0,0,0,.854-2.3l-.649-.241-2.041.687v.705l1.466,1.429Zm-5.9-.983-.557-.557-.111-.891.111-.093V67.76l.39-1.373.668-.111a1.36,1.36,0,0,0,1.392.464l.872-.408.26-.649a7.375,7.375,0,0,1-1.651-2.932,13.516,13.516,0,0,1,4.62-1.707l1.354.39.056.241-.019.019H73.037l-3.154,1.15v1l1.15,2.208.909.111,1-.3v-.928a3.5,3.5,0,0,1-.816-1.633l.5-.148.557.26,1.206,2.227.983.26v-.816l-.111-.39.835-2.282.724-.093.371.3v.5l-.909,2.171a3.019,3.019,0,0,0,1.985.538l.3-.13.445.13.334-.111.427.26.093.687a38.036,38.036,0,0,1-1.893,4.527l-.52.13-.482-.3v-.334l1.392-3.934a2.868,2.868,0,0,0-1.837-.371l-.074.074H74.6l-.111.13H73.39a54.566,54.566,0,0,0-5.622,1.243l-.334.631v2.041l.223.965A.689.689,0,0,1,66.858,71.73ZM86.8,78.8l-.445-.353V77.093a13.12,13.12,0,0,0,.724-3.859V70.784l-.705-.26-2.189,3.3h-.52l-.445-.353v-.315a38.277,38.277,0,0,0,3.785-7.014l-.13-.334a.975.975,0,0,1,1-.278l.575.278.093.427L87.7,68.428l.575,3.414-.111.093v2.746l-.668,4.008Zm9.964-.223-.315-.241-.093-.649.334-.427V75.052l-.13-.13V70.58l-.223-.946-.241-.241h-3.47l-.13.111H91.165l-.705-.872a3.055,3.055,0,0,1,1.243-.2l.111.111h4.268l.148-1.466-.353-1.113a.842.842,0,0,1,.965-.2,3.459,3.459,0,0,1,.705,2.431h1.429l1.132.3.074.408-.612.3-.557-.167-1.187.334-.148,1.058.13.167v1.837l.13.909-.167.482.167.13V76.2l.093.13v1.354l-.408.779ZM93.41,74.05l-2.227-1.893v-.241H92.3l2.375,1.93v.093l-.13.111ZM110.963,79l-1.095-1v-.408l.111-.111V75.516l-.093-.26.093-.074V73.419l.13-1.15-1.169-.13-2.616.315-.705-1.058.223-.909-.13-.13V67.834l.111-.779-.093-.575a2.619,2.619,0,0,1,1.188-.278h1.429l.093-.093h1.243a1.511,1.511,0,0,0,.3-1.225l-.538-2.134a.846.846,0,0,1,.742-.148l.742.631.538,2.746,1.336.223h2.468l.724.2a4.389,4.389,0,0,1,.835,1.911v1.076a12.762,12.762,0,0,0-.538,1.985l-1.354.315h-1.373l-.111.111h-1.688l-.427.538V77.52l.111,1.076ZM109.942,70.9l.278-.854-.13-.13V67.426l-.315-.3h-1.187l-1.336.464-.26.427v2.616l.148.464,1,.111Zm5.028-.482.464-2.134-.482-.891-.167-.167h-1.132l-1.521-.2-.557.241-.26.965.13.13v2.134l.334.278h1.206l.111-.093h1.113Z" transform="translate(1128 1315)" fill="#b198a4"/>
    <g id="パス_234" data-name="パス 234" transform="translate(1130 1289)" fill="none">
      <path d="M71.5,0A71.5,71.5,0,1,1,0,71.5,71.5,71.5,0,0,1,71.5,0Z" stroke="none"/>
      <path d="M 71.5 0.8000030517578125 C 61.9552001953125 0.8000030517578125 52.69634246826172 2.669174194335938 43.98062133789062 6.355636596679688 C 39.79152679443359 8.127471923828125 35.75107574462891 10.32054138183594 31.97151184082031 12.87397766113281 C 28.22765350341797 15.40327453613281 24.70706939697266 18.30803680419922 21.50754547119141 21.50754547119141 C 18.30803680419922 24.70706939697266 15.40327453613281 28.22765350341797 12.87397766113281 31.97151184082031 C 10.32054138183594 35.75107574462891 8.127471923828125 39.79152679443359 6.355636596679688 43.98062133789062 C 2.669174194335938 52.69634246826172 0.8000030517578125 61.9552001953125 0.8000030517578125 71.5 C 0.8000030517578125 81.0447998046875 2.669174194335938 90.30364990234375 6.355636596679688 99.01937866210938 C 8.127471923828125 103.2084732055664 10.32054138183594 107.2489318847656 12.87397766113281 111.0284881591797 C 15.40327453613281 114.772346496582 18.30803680419922 118.2929229736328 21.50754547119141 121.4924545288086 C 24.70706939697266 124.6919631958008 28.22765350341797 127.5967254638672 31.97151184082031 130.1260223388672 C 35.75107574462891 132.6794586181641 39.79152679443359 134.8725280761719 43.98062133789062 136.6443634033203 C 52.69634246826172 140.330810546875 61.9552001953125 142.1999969482422 71.5 142.1999969482422 C 81.0447998046875 142.1999969482422 90.30364990234375 140.330810546875 99.01937866210938 136.6443634033203 C 103.2084732055664 134.8725280761719 107.2489318847656 132.6794586181641 111.0284881591797 130.1260223388672 C 114.772346496582 127.5967254638672 118.2929229736328 124.6919631958008 121.4924545288086 121.4924545288086 C 124.6919631958008 118.2929229736328 127.5967254638672 114.772346496582 130.1260223388672 111.0284881591797 C 132.6794586181641 107.2489318847656 134.8725280761719 103.2084732055664 136.6443634033203 99.01937866210938 C 140.330810546875 90.30364990234375 142.1999969482422 81.0447998046875 142.1999969482422 71.5 C 142.1999969482422 61.9552001953125 140.330810546875 52.69634246826172 136.6443634033203 43.98062133789062 C 134.8725280761719 39.79152679443359 132.6794586181641 35.75107574462891 130.1260223388672 31.97151184082031 C 127.5967254638672 28.22765350341797 124.6919631958008 24.70706939697266 121.4924545288086 21.50754547119141 C 118.2929229736328 18.30803680419922 114.772346496582 15.40327453613281 111.0284881591797 12.87397766113281 C 107.2489318847656 10.32054138183594 103.2084732055664 8.127471923828125 99.01937866210938 6.355636596679688 C 90.30364990234375 2.669174194335938 81.0447998046875 0.8000030517578125 71.5 0.8000030517578125 M 71.5 0 C 110.9883651733398 0 143 32.01163482666016 143 71.5 C 143 110.9883651733398 110.9883651733398 143 71.5 143 C 32.01163482666016 143 0 110.9883651733398 0 71.5 C 0 32.01163482666016 32.01163482666016 0 71.5 0 Z" stroke="none" fill="#c9b6bf"/>
    </g>
  </g>
</svg>
