<svg xmlns="http://www.w3.org/2000/svg" width="147.456" height="55.272" viewBox="0 0 147.456 55.272">
  <path id="パス_245" data-name="パス 245" d="M21.576,10.8a1.817,1.817,0,0,1-1.056.5V22.128q-.024.168-.6.432a2.561,2.561,0,0,1-1.056.264h-.288V21.24H2.856l-.216-.7H18.576V16.008H3.792l-.192-.7H18.576V10.92H3.312l-.216-.7h7.9V.864l2.808.288q-.072.552-.864.672v8.4h5.4l1.032-1.152Zm-.288-7.392q-.216.456-.936.384a33.394,33.394,0,0,1-2.34,2.82,21.572,21.572,0,0,1-2.388,2.244l-.312-.24Q16.08,7.368,16.956,5.6T18.48,2.16ZM3.48,2.352A9.317,9.317,0,0,1,6.864,4.728a4,4,0,0,1,1.08,2.448,1.453,1.453,0,0,1-.288.936.887.887,0,0,1-.72.36,1.312,1.312,0,0,1-.84-.336A8.208,8.208,0,0,0,5.088,5.328,18.631,18.631,0,0,0,3.216,2.52Zm40.968,1.44a1.467,1.467,0,0,1-.984.5v17.64q-.024.144-.624.408a2.765,2.765,0,0,1-1.1.264h-.312v-2.04H30.7v1.44q0,.216-.5.48a2.343,2.343,0,0,1-1.1.264h-.36V2.28l2.16.96h10.3l1.056-1.2Zm-3.024.144H30.7V11.4H41.424ZM30.7,19.872H41.424V12.1H30.7ZM63.384,9.408a12.494,12.494,0,0,0,3.492,2.268,22.1,22.1,0,0,0,4.452,1.5l-.024.264A2.026,2.026,0,0,0,69.84,15.1a17.787,17.787,0,0,1-4.188-2.388,11.5,11.5,0,0,1-2.964-3.3H57.72a21.37,21.37,0,0,1-3.768,3.42,21,21,0,0,1-4.944,2.6l-.216-.288a20.412,20.412,0,0,0,6.672-5.736H49.176l-.216-.7h7.008A20.864,20.864,0,0,0,57.48,6.144l-5.52.6a.845.845,0,0,1-.6.528l-1.152-2.28q1.632,0,4.416-.072A27.259,27.259,0,0,0,56.76.744L59.544,1.8a.886.886,0,0,1-.936.36A22.545,22.545,0,0,1,55.7,4.9q2.064-.048,4.368-.12t4.752-.168A16.842,16.842,0,0,0,61.7,2.376l.216-.264a13.364,13.364,0,0,1,3.66,1.14,6.375,6.375,0,0,1,2.076,1.536A2.441,2.441,0,0,1,68.3,6.264a.946.946,0,0,1-.228.66.785.785,0,0,1-.612.252,1.511,1.511,0,0,1-.576-.144,7.939,7.939,0,0,0-1.512-1.9q-1.92.288-7.248.936l2.136.744a.632.632,0,0,1-.348.324,1.323,1.323,0,0,1-.612.084q-.384.624-1.032,1.488h9.36l1.224-1.44Q70.3,8.3,71.112,9.024q-.1.384-.624.384ZM51.84,16.368A25.912,25.912,0,0,0,56.292,13.7a20.919,20.919,0,0,0,3.684-3.48l2.232,1.416a.6.6,0,0,1-.5.216q-.072,0-.408-.048a23.719,23.719,0,0,1-4.236,2.88,28.212,28.212,0,0,1-4.98,2.088Zm1.128,2.688A24.507,24.507,0,0,0,62.976,12.84l2.256,1.44a.575.575,0,0,1-.5.24,2.051,2.051,0,0,1-.48-.072,26.522,26.522,0,0,1-11.088,5.04ZM51.792,22.44a36.516,36.516,0,0,0,8.136-2.472,18.406,18.406,0,0,0,6.12-4.56l2.3,1.488a.493.493,0,0,1-.456.24,3.5,3.5,0,0,1-.552-.1,20.523,20.523,0,0,1-6.816,4.092,36.773,36.773,0,0,1-8.64,1.764ZM84.816,6.6a1.485,1.485,0,0,1-1.008.432q-.144,6.7-.54,10.056t-1.236,4.32a3.657,3.657,0,0,1-2.808,1.1,1.829,1.829,0,0,0-.408-1.392,4.438,4.438,0,0,0-2.136-.768l.024-.408q2.352.24,2.952.24a1.713,1.713,0,0,0,.516-.06.989.989,0,0,0,.372-.252q.624-.576.936-3.768t.456-9.36H78.792a36.314,36.314,0,0,1-1.44,9.084A16.452,16.452,0,0,1,72.96,22.9l-.384-.336a19.422,19.422,0,0,0,3.24-7.068,44.021,44.021,0,0,0,1.056-8.748h-3.5l-.192-.7H76.9q.024-.888.024-2.592V.912l2.856.288a.729.729,0,0,1-.24.432,1.269,1.269,0,0,1-.624.24q0,.7-.024,1.056,0,1.536-.072,3.12h2.856l1.1-1.176Zm10.1-1.152a1.649,1.649,0,0,1-1.056.528v15.36q-.048.168-.612.444a2.4,2.4,0,0,1-1.044.276H91.92V19.9H87.912v1.8q0,.216-.48.456a2.382,2.382,0,0,1-1.08.24h-.336V3.984l1.992.936h3.648L92.688,3.7ZM87.912,19.2H91.92V5.592H87.912Zm15.672,3.384a3.946,3.946,0,0,1-3.36-1.392,5.491,5.491,0,0,1-1.1-3.264V4.272l2.856.312a.652.652,0,0,1-.216.42,1.267,1.267,0,0,1-.672.252L101.064,17.9a2.361,2.361,0,0,0,2.52,2.664q3.984-.048,8.928-3.648v.672Q108,22.536,103.584,22.584Zm14.9-.192q-.144.144-.7.036a2.7,2.7,0,0,1-1.056-.468l-.288-.216A88.219,88.219,0,0,0,119.136,8.28h-3.552l-.192-.7h3.816q.24-1.848.408-3.792l2.808.432a.717.717,0,0,1-.24.408,1.433,1.433,0,0,1-.72.24q-.144,1.368-.312,2.712h1.992l1.08-1.7.36.348q.336.324.78.78t.828.888a.607.607,0,0,1-.2.288.578.578,0,0,1-.348.1h-4.584A140.587,140.587,0,0,1,118.488,22.392Zm12.432.1h-2.928q-3.672,0-4.92-1.872t.912-5.04l.48.288q-1.3,2.64-.144,3.7t5.5.816l2.136-.192A5.626,5.626,0,0,0,130.92,22.488Zm-.48-10.272a13.643,13.643,0,0,0-2.652-.516,23.6,23.6,0,0,0-3.828-.06l-.072-.456a13.535,13.535,0,0,1,3.864-1.092,7.587,7.587,0,0,1,2.5.228,1.787,1.787,0,0,1,1,.5.919.919,0,0,1,.156.84.8.8,0,0,1-.348.444A.9.9,0,0,1,130.44,12.216ZM1.92,55.008l-.408-.48A21.26,21.26,0,0,0,9.864,46.44a47.328,47.328,0,0,0-5.832-5.376l.312-.288a31.242,31.242,0,0,1,6.336,4.152A30.18,30.18,0,0,0,13.1,37.56l2.856.312a.652.652,0,0,1-.216.42,1.267,1.267,0,0,1-.672.252,32.506,32.506,0,0,1-3,7.656,30.044,30.044,0,0,1,3.144,3.432,3.424,3.424,0,0,1,.72,1.584,1.154,1.154,0,0,1-.36.936.757.757,0,0,1-.66.12,1.677,1.677,0,0,1-.732-.5q-1.008-1.416-3.12-3.936A17.91,17.91,0,0,1,1.92,55.008Zm23.9-13.992a15.523,15.523,0,0,0-5.976-2.088l.072-.432a16.993,16.993,0,0,1,2.808-.264,6.781,6.781,0,0,1,1.884.228,6.393,6.393,0,0,1,1.5.66q.912.48.912,1.056a1.065,1.065,0,0,1-.168.528.7.7,0,0,1-.648.384A1.233,1.233,0,0,1,25.824,41.016Zm-6,11.928q9.072-2.04,14.112-12l.528.432Q30.7,51.624,21.432,54.624a.97.97,0,0,1-.432.864Zm18.288,2.28-.264-.312Q40.32,51.36,40.32,43.728v-6.36l2.856.312a.652.652,0,0,1-.216.42,1.267,1.267,0,0,1-.672.252L42.264,43.7Q42.216,52.272,38.112,55.224ZM50.64,54.96A.835.835,0,0,1,50,54.6a2.048,2.048,0,0,1-.324-1.008q0-1.824-.432-5.772a67.976,67.976,0,0,0-2.064-9.972l.48-.264a32.64,32.64,0,0,1,3.264,8.868,38.661,38.661,0,0,1,.792,6.108,3.875,3.875,0,0,1-.216,1.824A.877.877,0,0,1,50.64,54.96Zm-.1-17.424a.68.68,0,0,1-.456-.312q-.216-.288-.48-.7-.312-.456-.732-.984a7.355,7.355,0,0,0-1.092-1.08l.288-.336a13.331,13.331,0,0,1,1.44.732,4.762,4.762,0,0,1,1.032.8,2.537,2.537,0,0,1,.5.66,1.026,1.026,0,0,1,.1.612.576.576,0,0,1-.168.444A.61.61,0,0,1,50.544,37.536Zm1.944-.96a.56.56,0,0,1-.444-.3q-.2-.3-.492-.708a7.9,7.9,0,0,0-.72-.864,11.544,11.544,0,0,0-1.152-1.032l.264-.312a9.3,9.3,0,0,1,1.452.624,4.907,4.907,0,0,1,1,.7,2.8,2.8,0,0,1,.564.7,1.221,1.221,0,0,1,.156.672.511.511,0,0,1-.624.528ZM56.16,47.784l-.312-2.664H66.816Q66,46.848,64.68,46.872l-7.848.024a1.267,1.267,0,0,1-.252.672A.652.652,0,0,1,56.16,47.784ZM79.9,48.72l-.36.168a41.332,41.332,0,0,1-2.736-6.84H70.728l-.192-.7h6.048q-.528-1.632-1.1-3.576l2.832-.432a.9.9,0,0,1-.132.48,1.254,1.254,0,0,1-.612.408q.5,1.68.984,3.12h2.52l1.272-1.7q.024.024.42.348t.924.78q.528.456.984.888a.553.553,0,0,1-.228.288.8.8,0,0,1-.42.1H78.792a37.684,37.684,0,0,0,2.184,5.28q.1.192-.24.648A2.684,2.684,0,0,1,79.9,48.72Zm2.9,6.288H77.76q-3.672,0-5.04-1.824t-.024-4.9h.576q-.672,2.5.648,3.672T79.1,52.9l4.728-.192A5.626,5.626,0,0,0,82.8,55.008Zm8.3.576q-.144.144-.7.036a2.7,2.7,0,0,1-1.056-.468l-.288-.216q2.88-10.008,4.8-17.784l2.808.48a.664.664,0,0,1-.24.4,1.536,1.536,0,0,1-.72.228q-1.128,3.84-2.424,8.832a5.709,5.709,0,0,1,3.6-2.256q2.256.1,2.208,2.976L99,51.744q-.1,2.016,1.536,2.112,1.584,0,3.84-3.456l.192.576q-2.208,4.7-4.224,4.608a3.036,3.036,0,0,1-2.64-1.2,3.933,3.933,0,0,1-.624-2.64l.1-3.648q.144-1.968-.864-1.92A5.435,5.435,0,0,0,93,48.12Q92.112,51.576,91.1,55.584Zm25.92-1.152q4.992-1.512,4.992-7.56a10.151,10.151,0,0,0-1.416-5.688,4.018,4.018,0,0,0-1.68-1.38,5.876,5.876,0,0,0-2.568-.54A5.591,5.591,0,0,0,113.58,40a5.5,5.5,0,0,0-2.028,1.884A10.661,10.661,0,0,0,110.064,48a10.62,10.62,0,0,0,.54,3.18q.492,1.428,1.476,1.428,1.464,0,2.22-2.844a41.154,41.154,0,0,0,.852-9.036l2.856.312q-.048.552-.888.672a39.155,39.155,0,0,1-.768,7.032,8.14,8.14,0,0,1-1.62,3.684,3.2,3.2,0,0,1-2.556,1.044,3.055,3.055,0,0,1-2.664-1.68,7.68,7.68,0,0,1-1.272-4.464,9.28,9.28,0,0,1,1.176-4.74,8.366,8.366,0,0,1,3.024-3.108,7.427,7.427,0,0,1,3.792-1.08,8.759,8.759,0,0,1,4.224.972,6.682,6.682,0,0,1,2.784,2.844,9.476,9.476,0,0,1,.984,4.464q0,6.768-7.1,8.328ZM146.568,34.92q1.512,1.128,2.4,1.848-.1.384-.648.384h-9.072v2.76h5.112l1.3-1.56q1.488,1.128,2.328,1.9-.1.384-.648.384H129.384l-.192-.72H137.3v-2.76h-9.432l-.216-.7H137.3v-2.64l2.808.264q-.072.552-.864.648v1.728h6Zm.456,8.448a1.464,1.464,0,0,1-.912.456v5.664q-.024.12-.612.324a3.187,3.187,0,0,1-1.02.2h-.288V48.408h-11.9a11.221,11.221,0,0,1-1.308,4.26,8.834,8.834,0,0,1-3.492,3.348l-.264-.288a9.538,9.538,0,0,0,2.592-4.164,18.283,18.283,0,0,0,.672-5.148V41.928l2.208.912h11.28l.96-1.056Zm-14.64,3.048q0,.864-.048,1.32h5.016V43.512h-4.968Zm6.84,1.32h4.968V43.512h-4.968Z" transform="translate(-1.512 -0.744)" fill="#9f7f8e"/>
</svg>
