<svg xmlns="http://www.w3.org/2000/svg" width="513" height="194" viewBox="0 0 513 194">
  <g id="グループ_52" data-name="グループ 52" transform="translate(-5060 539)">
    <rect id="長方形_95" data-name="長方形 95" width="513" height="194" transform="translate(5060 -539)" fill="#b497a5" opacity="0.8"/>
    <path id="パス_74" data-name="パス 74" d="M160.02,39.24q8.32-3.2,8.32-10.28,0-4.8-2-7.2a5.809,5.809,0,0,0-1.88-1.44l-3.16-.8a19.59,19.59,0,0,0-2.24-.12,9.05,9.05,0,0,0-2.72.44q.04,3,.24,5.66a32.077,32.077,0,0,0,.88,5.38,26.5,26.5,0,0,0,1.88-4.16,24.535,24.535,0,0,0,1.12-5.24l4.52.8a1.628,1.628,0,0,1-.5.74,1.743,1.743,0,0,1-.94.42,32.591,32.591,0,0,1-2.4,5.28,16.818,16.818,0,0,1-3.08,4.16q.24.68.28.8a1.167,1.167,0,0,1-.18,1,3.526,3.526,0,0,1-.94,1.06,1.824,1.824,0,0,1-1.04.46.6.6,0,0,1-.6-.44l-.32-.88q-.12.12-.96.82a6.718,6.718,0,0,1-1.86,1.1,3.894,3.894,0,0,1-1.94.28,4.718,4.718,0,0,1-3.46-2.4,8.965,8.965,0,0,1-1.1-5.2q.48-6.08,4.56-8.64a19.553,19.553,0,0,1,2.68-1.36V17.76q0-1.48.08-5.08h-6.28l-.32-1.16h6.68l.4-5.32,4.72.56a1.378,1.378,0,0,1-.46.72,2.32,2.32,0,0,1-1.1.4l-.28,3.64h8.24l2.12-2.84q.24.24,1,.84l2.88,2.52a1.023,1.023,0,0,1-1.08.64H156.54q-.12,1.96-.2,5.8a17.143,17.143,0,0,1,3.44-.36q6.56,0,9.62,2.68t2.94,8.2q-.72,8.76-11.68,10.72ZM152.22,35a2.455,2.455,0,0,0,1.24-.32,11.2,11.2,0,0,0,1.4-1,36.448,36.448,0,0,1-1.12-4.96q-.36-2.4-.42-3.7t-.1-3.7a4.213,4.213,0,0,0-.76.52q-3.64,2.72-3.64,7.96a7.005,7.005,0,0,0,.92,3.66A2.79,2.79,0,0,0,152.22,35Zm28-10.84q.96-2.4,1.78-5.06t1.82-6.5h-4.64l-.32-1.16h5.28q1-3.72,1.56-6.04l4.72,1.08a1.146,1.146,0,0,1-.52.64,2.078,2.078,0,0,1-1.16.12l-1.2,4.2h2.72l1.04-1.88q.16.16,1.16.96a7.253,7.253,0,0,1,1.44,1.44.715.715,0,0,1-.72.64h-6q-.76,2.68-1.28,4.5t-.88,3.14l-1.04,3.72q-.08.2-.94.48a5.242,5.242,0,0,1-1.62.28Q180.38,24.72,180.22,24.16Zm22.04-7.92a28.17,28.17,0,0,0-2.68-2.78,14.853,14.853,0,0,0-3.4-2.22l.12-.72a14.7,14.7,0,0,1,4.82.92,7.747,7.747,0,0,1,2.78,2.08,2.479,2.479,0,0,1,.88,1.68,1.333,1.333,0,0,1-.32.92,1.442,1.442,0,0,1-1.12.68A1.4,1.4,0,0,1,202.26,16.24ZM190.7,37.68A7.163,7.163,0,0,1,186,36.1a4.7,4.7,0,0,1-1.7-3.66,3.7,3.7,0,0,1,1.04-2.6,6.835,6.835,0,0,1,2.8-1.74,11.609,11.609,0,0,1,3.88-.62,12.992,12.992,0,0,1,1.64.16V17.12l4.76.56q-.08.92-1.48,1.2v9.48q.4.12,1.58.46t2.26.76q1.08.42,2.28,1.02a1.619,1.619,0,0,1,.68.72,2.293,2.293,0,0,1,.24,1.04,1.787,1.787,0,0,1-.32,1.08,1.11,1.11,0,0,1-.96.44,2.669,2.669,0,0,1-1.4-.48l-1.6-1q-.28-.16-1.1-.66a15.9,15.9,0,0,0-1.7-.9v2.08Q196.9,37.6,190.7,37.68Zm0-1.76a2.616,2.616,0,0,0,2.96-2.96V29.68a12.1,12.1,0,0,0-1.52-.28,10.013,10.013,0,0,0-4.48.68,2.41,2.41,0,0,0-1.6,2.24,3.164,3.164,0,0,0,1.3,2.56A5.181,5.181,0,0,0,190.7,35.92Zm26.16,1.4q-.24.24-1.16.06a4.5,4.5,0,0,1-1.76-.78l-.48-.36a147.03,147.03,0,0,0,4.48-22.44h-5.92l-.32-1.16h6.36q.4-3.08.68-6.32l4.68.72a1.2,1.2,0,0,1-.4.68,2.389,2.389,0,0,1-1.2.4q-.24,2.28-.52,4.52h3.32l1.8-2.84.6.58q.56.54,1.3,1.3t1.38,1.48a1.012,1.012,0,0,1-.34.48.964.964,0,0,1-.58.16h-7.64A234.312,234.312,0,0,1,216.86,37.32Zm20.72.16H232.7q-6.12,0-8.2-3.12t1.52-8.4l.8.48q-2.16,4.4-.24,6.16t9.16,1.36l3.56-.32A9.377,9.377,0,0,0,237.58,37.48Zm-.8-17.12a22.738,22.738,0,0,0-4.42-.86,39.342,39.342,0,0,0-6.38-.1l-.12-.76a22.558,22.558,0,0,1,6.44-1.82,12.645,12.645,0,0,1,4.16.38,2.979,2.979,0,0,1,1.66.84,1.532,1.532,0,0,1,.26,1.4,1.341,1.341,0,0,1-.58.74A1.506,1.506,0,0,1,236.78,20.36Zm22.88,17.12a5.46,5.46,0,0,1-4.14-1.9,6.911,6.911,0,0,1-1.58-4.7,5.634,5.634,0,0,1,1.08-3.48,6.923,6.923,0,0,1,2.7-2.18,7.617,7.617,0,0,1,3.18-.74q.32,0,1.6.16V14.92h-8.64l-.32-1.16h8.96V6.16l4.76.52q-.08.92-1.48,1.12v5.96h1.8l1.32-2.84,1.2,1.32,1.12,1.28a7.231,7.231,0,0,0,.64.76.906.906,0,0,1-.92.64h-5.16l-.04,10.52a26.774,26.774,0,0,1,5.32,2.44,1.877,1.877,0,0,1,.68.76,2.13,2.13,0,0,1,.24.96,1.308,1.308,0,0,1-.28.86,1.025,1.025,0,0,1-.84.34,3.335,3.335,0,0,1-1.56-.52,20.258,20.258,0,0,0-3.56-2.24v4.04a5.114,5.114,0,0,1-1.5,4.02A6.851,6.851,0,0,1,259.66,37.48Zm-10.28-2.32a1.218,1.218,0,0,1-.8.44q-.88,0-1.6-2a30.717,30.717,0,0,1-.92-8.88,155.066,155.066,0,0,1,1.2-17.44l4.64.8a1.068,1.068,0,0,1-.44.7,2.445,2.445,0,0,1-1.16.34,127.564,127.564,0,0,0-1.2,14.52q0,1.96.2,4.24l.04-.04a.361.361,0,0,0,.32.24q.48,0,1.56-1.08l.6.48q-1.68,1.84-1.68,5.76A2.781,2.781,0,0,1,249.38,35.16Zm10.28.4a2.592,2.592,0,0,0,2.1-.88,3.882,3.882,0,0,0,.74-2.56V26.84l-1.52-.28a5.638,5.638,0,0,0-3.64.96,3.679,3.679,0,0,0-1.56,3.24,5.209,5.209,0,0,0,1.08,3.64A3.651,3.651,0,0,0,259.66,35.56Zm33.08,1.76-.32-.8q7.84-2.4,7.84-8.8a7.183,7.183,0,0,0-1.84-4.68,6.787,6.787,0,0,0-5.52-2.2,10.8,10.8,0,0,0-2.12.2V32.8q-.12,4.12-4.76,4.04a7.792,7.792,0,0,1-4.96-1.76,5.34,5.34,0,0,1-1.92-4.48q.08-4.56,4.68-7.92a17.39,17.39,0,0,1,3.68-2.12V13.48h-6.84l-.32-1.16h7.16V6.04l4.76.56a1.087,1.087,0,0,1-.36.7,2.111,2.111,0,0,1-1.12.42v4.6h2.32l1.8-2.2a16.536,16.536,0,0,1,1.6,1.24q.88.76,1.64,1.48a.922.922,0,0,1-.38.48,1.327,1.327,0,0,1-.7.16h-6.28v6.16a14.227,14.227,0,0,1,2.12-.08q5.6-.32,8.28,2.12a8.1,8.1,0,0,1,2.76,6.04Q304.02,35.96,292.74,37.32Zm-6.72-1.76q1.52-.08,1.48-1.8V22.2a8.984,8.984,0,0,0-2.12,1.76,9.763,9.763,0,0,0-2.72,6.64Q282.74,35.4,286.02,35.56Zm15.56-20.64a34.707,34.707,0,0,0-1.18-3.66,9.609,9.609,0,0,0-3.26-3.7l.32-.56a14.564,14.564,0,0,1,5.1,2.48,5.213,5.213,0,0,1,2.16,3.34,2.3,2.3,0,0,1-.82,2.44A1.9,1.9,0,0,1,301.58,14.92Zm14.68,22.4-.16-.96q14.24-2.72,14.4-10.72a8.53,8.53,0,0,0-1.2-4.32,4.506,4.506,0,0,0-3.92-2.24q-5.44,0-12,3.72a2.067,2.067,0,0,1-.2,1.2,1.359,1.359,0,0,1-.64.52l-1.36-4.68a49.907,49.907,0,0,1,14.2-2.2,9.8,9.8,0,0,1,6.48,2.32,7.465,7.465,0,0,1,2.64,5.68Q334.58,35.96,316.26,37.32Zm12.68-24.6a30.267,30.267,0,0,0-5.66-1.3,55.013,55.013,0,0,0-8.14-.54l-.08-.88a28.378,28.378,0,0,1,8.28-1.74,17.635,17.635,0,0,1,5.4.7,3.611,3.611,0,0,1,1.98,1.12,1.667,1.667,0,0,1,.22,1.64,1.493,1.493,0,0,1-.72.84A1.993,1.993,0,0,1,328.94,12.72Zm17.32,23.64-.32-.96q16.08.16,16.04-6.56.08-3.6-2.06-4.92a7.514,7.514,0,0,0-4.54-1.16,13.357,13.357,0,0,0-7.68,3.4q-.4.96-.84,1.92-.28.2-1.14-.22a4.364,4.364,0,0,1-1.5-1.22l-.36-.48q3.08-6.24,5.48-12.36h-7.96l-.32-1.16h8.76q1.16-3,2.16-6l4.64.92a1.436,1.436,0,0,1-.44.68,2.193,2.193,0,0,1-1.2.36q-.76,1.96-1.64,4.04h7.84L363.3,9.8q.04.04.7.58t1.54,1.3q.88.76,1.64,1.48a.922.922,0,0,1-.38.48,1.327,1.327,0,0,1-.7.16H352.9q-1.96,4.76-4.24,10.08a12.508,12.508,0,0,1,6.4-2.88,12.036,12.036,0,0,1,7.48,1.16q3.64,1.8,3.4,6.68Q365.38,38.68,346.26,36.36ZM99.58,68.08q0,.24-.88.6a4.525,4.525,0,0,1-1.72.36H96.5V58.16l3.4,1.44h22.52l1.6-1.68,3.4,2.6a1.842,1.842,0,0,1-.6.44,2.393,2.393,0,0,1-.88.24v6.56q-.04.2-.98.54a4.97,4.97,0,0,1-1.66.34h-.52V67.2H99.58Zm5.6-7.28h-5.6V66h5.6Zm8.76,0h-5.68V66h5.68Zm8.84,0h-5.76V66h5.76Zm-3.16,27.08V86.4H102.74v1.04q0,.28-.88.68a4.222,4.222,0,0,1-1.76.4h-.52V68.76l3.4,1.48h16.28l1.64-1.72,3.44,2.6a2.714,2.714,0,0,1-1.52.76v15q-.04.24-1,.62a4.67,4.67,0,0,1-1.68.38Zm0-16.48H102.74v3.8h16.88Zm0,8.8V76.36H102.74V80.2Zm-16.88,5h16.88V81.32H102.74Zm-9.32,8.32a42.23,42.23,0,0,0,7.3-2.76,31.806,31.806,0,0,0,5.86-3.48l3.92,2.8a1.365,1.365,0,0,1-1,.32,4.236,4.236,0,0,1-1.08-.16,37.981,37.981,0,0,1-6.7,2.36,58.4,58.4,0,0,1-8.06,1.56Zm20.12-5.32a45.853,45.853,0,0,1,8.26,1.06,14.287,14.287,0,0,1,4.46,1.7q1.32.92,1.32,1.84a1.2,1.2,0,0,1-.54,1,2.189,2.189,0,0,1-1.34.4,2.6,2.6,0,0,1-1.64-.56,25.186,25.186,0,0,0-4.44-2.62,33.329,33.329,0,0,0-6.2-2.18Zm25.04,5.12-.16-.96q14.24-2.72,14.4-10.72a8.53,8.53,0,0,0-1.2-4.32,4.506,4.506,0,0,0-3.92-2.24q-5.44,0-12,3.72a2.067,2.067,0,0,1-.2,1.2,1.36,1.36,0,0,1-.64.52l-1.36-4.68a49.907,49.907,0,0,1,14.2-2.2,9.8,9.8,0,0,1,6.48,2.32,7.465,7.465,0,0,1,2.64,5.68Q156.9,91.96,138.58,93.32Zm12.68-24.6a30.266,30.266,0,0,0-5.66-1.3,55.014,55.014,0,0,0-8.14-.54l-.08-.88a28.378,28.378,0,0,1,8.28-1.74,17.635,17.635,0,0,1,5.4.7,3.611,3.611,0,0,1,1.98,1.12,1.667,1.667,0,0,1,.22,1.64,1.493,1.493,0,0,1-.72.84A1.993,1.993,0,0,1,151.26,68.72Zm14.28-11.04a10.818,10.818,0,0,1,5.04,1.74,3.443,3.443,0,0,1,1.64,2.62,1.666,1.666,0,0,1-.46,1.2,1.515,1.515,0,0,1-1.14.48,2.169,2.169,0,0,1-1.16-.32,9.632,9.632,0,0,0-1.72-2.86A17.007,17.007,0,0,0,165.18,58Zm34.24,17.64a.8.8,0,0,1-.64.28,2.055,2.055,0,0,1-.64-.12,52.032,52.032,0,0,1-6.4,3.8q2.92,8.48,8.04,11.72l-.08.4a3.267,3.267,0,0,0-1.56.98,4.912,4.912,0,0,0-1.04,1.9,20.936,20.936,0,0,1-5.8-9.54,72.5,72.5,0,0,1-2.6-15.14l-3.36.4V92.88q0,.24-.74.58a4.134,4.134,0,0,1-1.74.34h-.44V70.28q-2.2.16-4.44.24v1.76a55.963,55.963,0,0,1-.54,8.06,24.728,24.728,0,0,1-2.34,7.36,19.084,19.084,0,0,1-5.28,6.46l-.56-.52a22.673,22.673,0,0,0,4.54-9.44,56.215,56.215,0,0,0,1.14-11.96V60.52l3.88,1.6q4.24-.88,8.46-2.12a69.277,69.277,0,0,0,6.82-2.32l3.48,3.12a1.335,1.335,0,0,1-.88.24,4.482,4.482,0,0,1-1.32-.24q-3.52.76-8.24,1.44t-9.16,1v6.4q4.48-.72,9.14-1.94a57.3,57.3,0,0,0,7.42-2.38l3.36,3.16a1.263,1.263,0,0,1-.84.24,3.672,3.672,0,0,1-1.32-.28q-2.88.56-6.24,1.04a54.426,54.426,0,0,0,1.88,8.72,45.475,45.475,0,0,0,4.44-5.32ZM174.14,64.68q-4.44,13.16-5.24,16.08a13.188,13.188,0,0,0-.6,3.56,4.979,4.979,0,0,0,.22,1.42q.22.74.26.9a20.783,20.783,0,0,1,.54,2.3,12.1,12.1,0,0,1,.14,2.38,3.628,3.628,0,0,1-.72,2.14,2.153,2.153,0,0,1-1.76.78,1.216,1.216,0,0,1-1-.52,3.022,3.022,0,0,1-.52-1.48,28.613,28.613,0,0,0,.36-4.28,11.048,11.048,0,0,0-.24-2.52,2.177,2.177,0,0,0-.64-1.28,2.241,2.241,0,0,0-.82-.4,8.591,8.591,0,0,0-1.14-.2v-.84h1.76a.951.951,0,0,0,.58-.14,2.265,2.265,0,0,0,.46-.7q.56-1.08,2.1-4.62t5.54-12.78Zm-11.4,1.92a9.7,9.7,0,0,1,4.62,1.62,3.24,3.24,0,0,1,1.5,2.46,1.708,1.708,0,0,1-.44,1.2,1.453,1.453,0,0,1-1.12.48,2.289,2.289,0,0,1-1.2-.4,7.257,7.257,0,0,0-1.4-2.66,13.3,13.3,0,0,0-2.32-2.34Zm52.84-.84a5.851,5.851,0,0,1-1.06,2.26,2.061,2.061,0,0,1-1.62.7,2.014,2.014,0,0,1-1.92-1.16,7.449,7.449,0,0,1,3.04-5.26,10.624,10.624,0,0,1,6.56-1.98q4.4,0,6.78,1.9a6.189,6.189,0,0,1,2.38,5.1,7.084,7.084,0,0,1-1.36,4.22,15.121,15.121,0,0,1-4.4,3.78,13.7,13.7,0,0,0-2.92,2.18,3.67,3.67,0,0,0-.84,2.3l-.2,2.84H218.5a30.307,30.307,0,0,1-.32-4.08,3.821,3.821,0,0,1,.74-2.3,14.786,14.786,0,0,1,2.82-2.62,14.18,14.18,0,0,0,3.18-3.14,5.873,5.873,0,0,0,1.02-3.38,4.48,4.48,0,0,0-1.7-3.88,7.466,7.466,0,0,0-4.5-1.24,9.966,9.966,0,0,0-1.66.12,8.328,8.328,0,0,0-1.54.44Zm3.72,20.48a2.63,2.63,0,0,1,2.68,2.64,2.506,2.506,0,0,1-.76,1.84,2.6,2.6,0,0,1-1.92.76,2.554,2.554,0,0,1-1.88-.76,2.506,2.506,0,0,1-.76-1.84,2.573,2.573,0,0,1,.76-1.86A2.52,2.52,0,0,1,219.3,86.24Zm36.36-27.36q-.28.8-1.52.76a58.29,58.29,0,0,1-3.88,8.4l1.68.64q-.2.56-1.16.68v23.8q-.08.24-.94.64a4.09,4.09,0,0,1-1.74.4h-.56V72.36a37.178,37.178,0,0,1-4.76,5.48l-.56-.4a51.6,51.6,0,0,0,4.96-9.08,66.785,66.785,0,0,0,3.72-11Zm20.72,9.72q2.28,1.92,3.48,3.16-.16.64-1,.64H252.98l-.32-1.16h6.76V64.96H254.5l-.32-1.16h5.24V57.6l4.4.44a1.126,1.126,0,0,1-.36.68,1.943,1.943,0,0,1-.88.36V63.8h6.24V57.6l4.44.44a1.126,1.126,0,0,1-.36.68,2.058,2.058,0,0,1-.96.36V63.8h1.44l1.84-2.64a45.372,45.372,0,0,1,3.52,3.16q-.12.64-1.08.64h-5.72v6.28h2.56Zm-13.8-3.64v6.28h6.24V64.96Zm14.4,12.16a2.943,2.943,0,0,1-1.68.84V92.88q-.08.24-1.02.62a4.592,4.592,0,0,1-1.7.38h-.48v-2.2H259.98v1.4q0,.28-.86.68a4.175,4.175,0,0,1-1.78.4h-.52V74.72l3.4,1.52H271.7l1.68-1.88Zm-4.88.24H259.98v5.72H272.1ZM259.98,90.48H272.1V84.24H259.98Zm29.4,3.32-.48-.8q13.12-3.52,13.12-15.2a31.5,31.5,0,0,0-.88-7.92q-.88-3.36-3.6-3.44-4.96.08-8.4,13.4.08,1.72.2,3.44-3.24,1.88-3.24.68a102.718,102.718,0,0,1,.6-21.72l4.68,1.04a1.4,1.4,0,0,1-.46.64,1.969,1.969,0,0,1-1.14.32,92.564,92.564,0,0,0-.68,11.88q3.04-11.76,8.44-11.76a7.166,7.166,0,0,1,6.28,2.88q2.2,2.96,2.04,10.56Q305.7,91.48,289.38,93.8Zm36.56-.16a9.622,9.622,0,0,1-5.72-1.86Q317.86,90,317.78,88a4.394,4.394,0,0,1,1.76-3.52,7.207,7.207,0,0,1,4.48-1.28q3.88.08,7.72,6.56l.24-.32a9.766,9.766,0,0,0,2.12-6.24,7.817,7.817,0,0,0-1.48-4.64,4.832,4.832,0,0,0-3.96-2.16,17.291,17.291,0,0,0-10.28,3.52l-1.96,1.76a2.219,2.219,0,0,1-2.12-.14q-1.32-.62.08-1.86l14.92-13.6H317.22l-.36-1.24h12.68l2.2-1.96,3.44,3.2a1.318,1.318,0,0,1-.64.4,4.273,4.273,0,0,1-1.16.12l-10.64,9.48a15.455,15.455,0,0,1,5.92-1.32,10.012,10.012,0,0,1,6.48,2.32,8.069,8.069,0,0,1,2.8,6.12,8.715,8.715,0,0,1-3.72,7.78A14.141,14.141,0,0,1,325.94,93.64Zm.16-1.48a7.961,7.961,0,0,0,3.36-.68q-2.36-6.76-5.44-6.76a4.1,4.1,0,0,0-2.68.82,3,3,0,0,0-1,2.46,3.745,3.745,0,0,0,1.52,2.74A6.5,6.5,0,0,0,326.1,92.16Zm20.32-34.48a10.818,10.818,0,0,1,5.04,1.74,3.443,3.443,0,0,1,1.64,2.62,1.666,1.666,0,0,1-.46,1.2,1.515,1.515,0,0,1-1.14.48,2.169,2.169,0,0,1-1.16-.32,9.632,9.632,0,0,0-1.72-2.86A17.007,17.007,0,0,0,346.06,58Zm34.24,17.64a.8.8,0,0,1-.64.28,2.055,2.055,0,0,1-.64-.12,52.032,52.032,0,0,1-6.4,3.8q2.92,8.48,8.04,11.72l-.08.4a3.267,3.267,0,0,0-1.56.98,4.912,4.912,0,0,0-1.04,1.9,20.936,20.936,0,0,1-5.8-9.54,72.5,72.5,0,0,1-2.6-15.14l-3.36.4V92.88q0,.24-.74.58a4.134,4.134,0,0,1-1.74.34h-.44V70.28q-2.2.16-4.44.24v1.76a55.961,55.961,0,0,1-.54,8.06,24.727,24.727,0,0,1-2.34,7.36,19.084,19.084,0,0,1-5.28,6.46l-.56-.52a22.674,22.674,0,0,0,4.54-9.44,56.216,56.216,0,0,0,1.14-11.96V60.52l3.88,1.6q4.24-.88,8.46-2.12a69.28,69.28,0,0,0,6.82-2.32l3.48,3.12a1.335,1.335,0,0,1-.88.24,4.482,4.482,0,0,1-1.32-.24q-3.52.76-8.24,1.44t-9.16,1v6.4q4.48-.72,9.14-1.94a57.3,57.3,0,0,0,7.42-2.38l3.36,3.16a1.263,1.263,0,0,1-.84.24,3.672,3.672,0,0,1-1.32-.28q-2.88.56-6.24,1.04a54.426,54.426,0,0,0,1.88,8.72,45.478,45.478,0,0,0,4.44-5.32ZM355.02,64.68q-4.44,13.16-5.24,16.08a13.189,13.189,0,0,0-.6,3.56,4.979,4.979,0,0,0,.22,1.42q.22.74.26.9a20.794,20.794,0,0,1,.54,2.3,12.1,12.1,0,0,1,.14,2.38,3.628,3.628,0,0,1-.72,2.14,2.153,2.153,0,0,1-1.76.78,1.216,1.216,0,0,1-1-.52,3.021,3.021,0,0,1-.52-1.48,28.612,28.612,0,0,0,.36-4.28,11.047,11.047,0,0,0-.24-2.52,2.177,2.177,0,0,0-.64-1.28,2.241,2.241,0,0,0-.82-.4,8.591,8.591,0,0,0-1.14-.2v-.84h1.76a.951.951,0,0,0,.58-.14,2.266,2.266,0,0,0,.46-.7q.56-1.08,2.1-4.62t5.54-12.78Zm-11.4,1.92a9.7,9.7,0,0,1,4.62,1.62,3.24,3.24,0,0,1,1.5,2.46,1.708,1.708,0,0,1-.44,1.2,1.452,1.452,0,0,1-1.12.48,2.289,2.289,0,0,1-1.2-.4,7.258,7.258,0,0,0-1.4-2.66,13.3,13.3,0,0,0-2.32-2.34Zm52.84-.84a5.851,5.851,0,0,1-1.06,2.26,2.061,2.061,0,0,1-1.62.7,2.014,2.014,0,0,1-1.92-1.16,7.449,7.449,0,0,1,3.04-5.26,10.624,10.624,0,0,1,6.56-1.98q4.4,0,6.78,1.9a6.189,6.189,0,0,1,2.38,5.1,7.084,7.084,0,0,1-1.36,4.22,15.121,15.121,0,0,1-4.4,3.78,13.7,13.7,0,0,0-2.92,2.18,3.669,3.669,0,0,0-.84,2.3l-.2,2.84h-1.52a30.3,30.3,0,0,1-.32-4.08,3.821,3.821,0,0,1,.74-2.3,14.787,14.787,0,0,1,2.82-2.62,14.18,14.18,0,0,0,3.18-3.14,5.872,5.872,0,0,0,1.02-3.38,4.48,4.48,0,0,0-1.7-3.88,7.466,7.466,0,0,0-4.5-1.24,9.966,9.966,0,0,0-1.66.12,8.328,8.328,0,0,0-1.54.44Zm3.72,20.48a2.63,2.63,0,0,1,2.68,2.64,2.506,2.506,0,0,1-.76,1.84,2.6,2.6,0,0,1-1.92.76,2.554,2.554,0,0,1-1.88-.76,2.506,2.506,0,0,1-.76-1.84,2.573,2.573,0,0,1,.76-1.86A2.52,2.52,0,0,1,400.18,86.24Z" transform="translate(5060 -477)" fill="#fff"/>
    <line id="線_19" data-name="線 19" x2="501" transform="translate(5065.5 -532.5)" fill="none" stroke="#fff" stroke-width="0.8"/>
    <line id="線_20" data-name="線 20" x2="501" transform="translate(5065.5 -351.5)" fill="none" stroke="#fff" stroke-width="0.8"/>
    <path id="パス_73" data-name="パス 73" d="M196.974,17.824c.216-.018.432-.018.432.162.126.054.45-.09.432.09a6.958,6.958,0,0,0,3.294-.612c.252.036.288-.162.432-.252.27.036.324-.126.5-.18a2.426,2.426,0,0,1,.954-.5,15.187,15.187,0,0,1,1.476-1.566,2.751,2.751,0,0,1,.594-1.026,2.736,2.736,0,0,1,.522-1.3,15.231,15.231,0,0,0,.27-2.52,2.037,2.037,0,0,1-.27-.864,5.1,5.1,0,0,1-.774-.864,2.529,2.529,0,0,1-.774-.342H202.68c-.126.018-.144.144-.252.18a9.23,9.23,0,0,0-2.952,1.89c-.234.018-.144.378-.432.36-.108.144-.216.288-.342.432a3.265,3.265,0,0,0-.432.432c-.216.054-.18.378-.432.432a4.371,4.371,0,0,1-.774.864c0,.252-.2.306-.342.432-.126.414-.45.63-.612,1.026-.18.108-.2.378-.342.522a16.8,16.8,0,0,0-1.206,2.07,2.362,2.362,0,0,0-.432.774c-.216.45-.4.846-.612,1.224a5.336,5.336,0,0,0-.684,1.206.855.855,0,0,0-.27.522c-.09.18-.324.234-.342.5a3.061,3.061,0,0,0-.684,2c0,.126-.018.288.162.252.144.27.4-.072.612,0a1.75,1.75,0,0,1,.342-.522c.072-.5.558-.576.522-1.206.126-.162.45-.126.432-.432.126-.018.072-.2.09-.342.162-.018.288-.054.342-.18.072-.54.594-.666.684-1.206.252.054.234-.27.27-.342.036-.108.288-.27.342-.342.072-.09.18-.18.252-.27.252-.378.54-.72.792-1.116C196.578,17.41,196.776,17.608,196.974,17.824Zm-.09-1.044c-.09-.414.36-.288.36-.612.162-.144.4-.234.432-.5.378-.234.558-.648.864-.954.27-.306.7-.522.864-.954.324-.234.738-.432.774-1.044-.036-.2-.27-.18-.342-.342-.486.108-.684.486-.954.774-.45.108-.5.594-.864.792-.162.414-.558.594-.774.936-.09.2-.288.306-.432.432a1.646,1.646,0,0,1-.432.36,11.055,11.055,0,0,1-.612,1.116,1.241,1.241,0,0,0-.432.432c-.2.09-.144.432-.432.432.108-.324.378-.486.342-.954a4.932,4.932,0,0,0,.774-1.206,4.854,4.854,0,0,1,.864-1.044,3.959,3.959,0,0,1,.954-1.548c.738-1.242,2.07-1.908,2.934-3.024.378-.054.54-.342.864-.432A2.794,2.794,0,0,1,202.428,9a.356.356,0,0,1,.252-.252,2.132,2.132,0,0,0,.954,0,2.349,2.349,0,0,0,.774.342c.162.288.666.828.684,1.3.018.108.144.5-.162.522.072.144.234.216.162.5-.126.378-.144.882-.432,1.134a6.449,6.449,0,0,1-1.638,2.844,13.014,13.014,0,0,1-1.728,1.134,14.465,14.465,0,0,1-2.16.684C198.252,17.194,197.334,17.23,196.884,16.78Zm15.678,2.592a5.948,5.948,0,0,1-2.61,1.422,2.607,2.607,0,0,1-1.458-.18c-.09-.432.252-.432.342-.684a6.3,6.3,0,0,0,.774-1.134c.054-.072.18-.144.252-.252.054-.09.018-.342.18-.342,0-.36-.342-.54-.27-.954-.144-.234-.2-.558-.342-.774-.072-.468-.018-1.026-.432-1.134-.4-.126-.324.216-.414.324-.144.126-.72.486-.738.684a11.442,11.442,0,0,0-1.44,1.638c-.234.18-.72.81-.99,1.044-.018-.018.63.45.63.45.5-.144,2-2.286,2.52-2.412a2.92,2.92,0,0,1,.27,1.134,20.585,20.585,0,0,0-1.3,1.728,2.983,2.983,0,0,0-.18.936c.162.2.288.522.522.522.09.018.054.072.09.09a.981.981,0,0,0,.432.09,7.668,7.668,0,0,0,1.638.09,9.609,9.609,0,0,0,3.024-1.638,7.1,7.1,0,0,0,.648-.63s-.234-.7-.234-.684S212.832,19.138,212.562,19.372Zm3.276-1.476a4.164,4.164,0,0,0-.594,1.08c-.054.108-.018.234-.09.342-.036.072-.216.108-.252.18a6.29,6.29,0,0,0-.27.612,3.556,3.556,0,0,0,.18,1.638,4.7,4.7,0,0,0,1.908.09,9.594,9.594,0,0,0,2.07-1.3c.216-.234.144-.4.36-.432-.054-.162.4-.414.5-.522A5.319,5.319,0,0,0,220.7,18.04c0-.018.036-.054.324-.162.27-.108.09-.018.378-.126.144-.054.216-.072.252-.09a1.976,1.976,0,0,0,.432-.756,1.3,1.3,0,0,0-.738.036c-.252.09-.018.018-.27.072-.144.036-.234,0-.252-.036a3.69,3.69,0,0,0-.216-.936c.018-.5-.594-.738-.882-.954a7.237,7.237,0,0,0-1.368.342,7.357,7.357,0,0,1-.7.792c-.468.144-.684.522-1.206.594a4.479,4.479,0,0,0-.432.342A4.028,4.028,0,0,1,215.838,17.9Zm3.384-1.674a3.35,3.35,0,0,1,.612.072c.162.216.054.7.09,1.044a3.453,3.453,0,0,1-1.566.252c.036-.162-.072-.306-.09-.162-.234-.18.2-.432.252-.612a.812.812,0,0,0,.612-.342C219.1,16.33,219.2,16.33,219.222,16.222Zm-2.16,1.728c.288.072.45.288.684.432.234,0,.486-.036.612.072a3.029,3.029,0,0,0,1.224-.234c0,.288-.144.288-.27.5a2.749,2.749,0,0,0-.594.522,5.361,5.361,0,0,0-.522.594c-.342.054-.5.36-.774.522-.108.054-.108.018-.18.09a3.51,3.51,0,0,1-.864.432H215.5c-.072-.45.18-.576.18-.954.342-.378.594-.936.954-1.386.09-.126.126-.324.342-.342C216.936,18.058,217.044,18.058,217.062,17.95Zm14.472-8.5a.5.5,0,0,0-.468.5.714.714,0,0,0,.612.7.88.88,0,0,0,.432-.7A.63.63,0,0,0,231.534,9.454Zm-2.106,4.482c-.558.846-1.854,1.314-2.5,1.872-.864.252-.45.378-1.26.648a1.783,1.783,0,0,1-.7.216,2.793,2.793,0,0,0-.63-.09c-.414,0-.558.2-.558.522,0,.36.2.594.7.594a4.309,4.309,0,0,0,1.35-.288c1.134-.27.918-.576,1.872-1.044.288-.054.54-.486.828-.486a.458.458,0,0,1,.126.036,4.218,4.218,0,0,1-.432,1.3,3.587,3.587,0,0,0-.432,1.386c-.252.162-.342.486-.522.7-.684.09-.846.72-1.476.864a3.441,3.441,0,0,1-1.386.936c-.378.486-.954.828-1.368,1.3-.342,0-.27.36-.594.36-.036,0-.63.684-.7.774-.45.5-1.062,1.044-1.476,1.458a12.769,12.769,0,0,0-1.818,2.592,19.672,19.672,0,0,0-1.026,2.07v.2c0,.09-.126.216-.18.324a1.834,1.834,0,0,1-.252.612c0,.5-.108.9-.108,1.386a2.946,2.946,0,0,0,.612,1.458h.954c.234-.234.666-.252.774-.594a.336.336,0,0,0,.36-.342c.27-.018.7-.468.7-.468,0-.036-.018-.09-.018-.126,0-.18.342-.162.342-.27s.054-.054.09-.09a8.249,8.249,0,0,1,.954-1.134c.144-.162.234-.342.432-.432a2.49,2.49,0,0,1,.954-1.3.958.958,0,0,1,.432-.684c.09-.414.36-.54.36-.7,0-.018-.018-.036-.018-.072a12.019,12.019,0,0,1,1.026-1.3c.072-.45.414-.63.432-1.134.342-.036.594-.648.7-1.026a3.12,3.12,0,0,0,.522-1.3.108.108,0,0,0,.072.018c.234,0,.4-.864.7-1.152.162-.252.216-.648.522-.774v-.522c.234-.018.252-.252.342-.432.252,0,.108-.4.252-.5h.09c.432,0,.522-.36.774-.522.5,0,.594-.378,1.044-.432.144-.342.558-.414.774-.7.63-.072.864-.72,1.638-.774v.018c0,.018,0,.036.018.036.126,0,.594-.486.684-.54v0h0l.342-.612v-.036a.287.287,0,0,0-.234-.252,3.644,3.644,0,0,0-.468.18,2.349,2.349,0,0,1-.774.342c-.126.414-1.386.7-1.818,1.206-.342.036-.45.306-.774.36a2.242,2.242,0,0,1-.612.432c-.036,0-.054-.018-.072-.09,0-.4.234-.558.342-.864a14.194,14.194,0,0,0,.522-1.818,1.075,1.075,0,0,0,.27-.666.808.808,0,0,0-.018-.2C229.932,14.134,229.878,13.936,229.428,13.936Zm-2.592,6.48c0,.234-.288.288-.342.432-.09.2-.09.63-.36.774v.072c0,.162-.18.126-.18.288a.108.108,0,0,0,.018.072c-.108.216-.09.342-.27.522-.144.144-.594,1.728-1.026,1.818,0,.036.018.054.018.09a8.956,8.956,0,0,1-.882,1.368c-.126.18-.162.378-.27.522-.162.27-.216.342-.594.954a17.141,17.141,0,0,1-1.638,2.25,25.8,25.8,0,0,1-2.25,2.592c-.378,0-.576.486-.882.486a.29.29,0,0,1-.162-.054c-.036,0-.054.018-.072.018a3.419,3.419,0,0,1-.288-.72,3.763,3.763,0,0,1,.27-1.458A.132.132,0,0,0,218,30.3v-.144c0-.234.2-.252.288-.576a.988.988,0,0,1,.072-.432c.054-.09.144-.072.18-.18.072-.162-.018-.4.18-.522a.136.136,0,0,1-.018-.072c0-.126.2-.054.2-.18a.2.2,0,0,0-.018-.09c.036-.108.162-.126.18-.252a6.751,6.751,0,0,1,1.386-2.07c.18-.072.18-.288.342-.432.054-.054.18-.036.18-.126a1.015,1.015,0,0,0-.018-.126v-.018c.468-.378,1.008-1.044,1.566-1.458.018-.036.036-.18.108-.18.018,0,.072.018.108.018s.522-.45.738-.63a7.759,7.759,0,0,1,1.368-1.026c.18-.09.234-.432.612-.432h.09c.234-.432.792-.54,1.026-.954Zm14.094-1.278a3.071,3.071,0,0,0-.684.234,4.314,4.314,0,0,0-.684.378,7.035,7.035,0,0,1-3.132,1.206h-.18a2.567,2.567,0,0,1-.954-.414c.414-.144.63-.468,1.044-.612.108-.234.36-.306.522-.5s.342-.576.594-.7c.054-.63.72-1.4.72-2.106.144-.162.108-.468.18-.594.036-.072.072-.036.072-.18a.788.788,0,0,0-.252-.774c-.594-.018-.846.306-1.476.252a3.919,3.919,0,0,1-1.3.792c-.252.414-.738.63-.936,1.116-.252.09-.342.36-.432.612-.216.09-.5.954-.558,1.134,0,.054-.072.09-.072.09a2.773,2.773,0,0,0,.072,1.224c-.036.324.108.81.522.864a4.673,4.673,0,0,0,2.862.666,8.5,8.5,0,0,0,4.014-1.944A3.653,3.653,0,0,0,240.93,19.138ZM237.4,16.114c.072,0,.072.108.09.162a1.62,1.62,0,0,1-.36.864,10.671,10.671,0,0,1-1.566,2.2,3.737,3.737,0,0,1-.522.342,1.58,1.58,0,0,1-.7.18,6.342,6.342,0,0,1,1.152-2.538c.486-.216.774-.756,1.3-1.044C236.934,16.2,237.168,16.276,237.4,16.114Zm15.012,2.448c-.54.2-.918.7-1.4.954a11.349,11.349,0,0,0-1.566.738c-.612.144-1.026.612-1.638.756-.234.126-.594.144-.864.252a8.092,8.092,0,0,1-2.682.342,1.665,1.665,0,0,1-1.116-.864c-.252-.864.18-.954.36-1.656.126-.126.216-.288.432-.342.072-.486.594-.5.684-.936.162-.144.36-.234.36-.522.288.144.27-.2.342-.27.108-.09.288-.126.342-.252.216.072.324-.108.432-.18.072-.018.2.036.252,0,.054-.018,0-.252.18-.162s.18.09.09-.09a1.168,1.168,0,0,1,1.3.09,1.625,1.625,0,0,1,.162.5c.036.486-.288.666-.342.954a3.461,3.461,0,0,0,0,.432c.54.45.972-.036,1.206-.252.054-.126-.09-.45.09-.432a7.461,7.461,0,0,0-.774-2.16c-1.962-.342-3.186.774-4.158,1.728a17.348,17.348,0,0,0-1.368,1.638c-.072.36-.378.864-.414,1.224a11.041,11.041,0,0,0,.054,1.116c.234.09.288.36.342.612a2.317,2.317,0,0,1,.864.522,12.619,12.619,0,0,0,2.07.09,4.1,4.1,0,0,1,1.566-.234c.018-.18.378-.018.432-.162,0-.2.36-.036.5-.09.252-.252.7-.288.99-.486.27.018.252-.27.612-.162.054-.252.342-.27.522-.324.018,0,.126-.18.162-.2.27-.126.576-.288.828-.432a2.8,2.8,0,0,0,1.512-1.152C253.008,18.382,252.72,18.382,252.414,18.562Zm7.92,1.314c-.252.036-.576-.018-.666.18a5.274,5.274,0,0,0-.522.09c-.162.072-.27.2-.414.27-.018,0-.486.234-.5.252a2.384,2.384,0,0,1-.99.4,3.8,3.8,0,0,1-2,.09c-.018-.018,0-.072-.072-.09a1.732,1.732,0,0,1-.522-.342c-.306-.666-.018-1.224.09-1.908.216-.126.216-.414.342-.594.108-.18.36-.288.342-.522.468-.288.432-.81.864-1.116.2-.54.666-.792.864-1.3.126-.054.45.09.432-.09.306-.36.738.036.954,0a2.227,2.227,0,0,0,.522-.18.615.615,0,0,0,.5,0c.594-.18.63.108,1.224-.162a2.5,2.5,0,0,0,.864.072c.486-.18.828-.036,1.206-.252.558.054.882-.108,1.386-.09-.018.018.36-.036.81-.072.216-.27-.09-.414-.306-.522-2,.162-4.122.252-6.12.432-.18-.054-.576.09-.612-.09.288-.99,1.044-1.494,1.476-2.34-.2-.162.09-.774-.27-.774-.594-.072-.558.468-.864.684-.324.468-.594.954-.954,1.386-.18.252-.558.54-.684.7-.054.072-.036.18-.09.252a.616.616,0,0,1-.342.252c-.864.09-1.692.216-2.592.27-.126.18-.522.108-.684.252-.162.162-.648,0-.612.342.18.594.918.324,1.476.27.4-.054.828-.144,1.026-.18.27-.036.576-.054.7.09a19.218,19.218,0,0,0-1.224,2.16c-.252.234-.378,1.026-.594,1.476a3.306,3.306,0,0,0-.18,1.368c.09.612.558.936.774,1.3.234.072.5.09.612.27a5.275,5.275,0,0,1,1.548.09,1.5,1.5,0,0,1,.522-.18c.378-.09.09.036.36-.036.162-.036.486-.144.594-.18.216-.054.234-.126.342-.162a1.708,1.708,0,0,1,.378-.162,4.9,4.9,0,0,0,.774-.45c.288-.144.486-.378.918-.576C260.262,20.254,260.6,20.092,260.334,19.876Zm22.716.036a4.54,4.54,0,0,0,.342-1.134,13.168,13.168,0,0,0-.162-1.89.262.262,0,0,1-.18-.27.246.246,0,0,1-.252-.162c.054-.612-.522-.576-.522-1.134-.36-.054-.5-.36-.774-.522a5.178,5.178,0,0,0-1.206-.864c-.036,0-.054-.144-.09-.162-.072-.036-.2.036-.27,0-.018-.018-.036-.162-.072-.18-.2-.108-.522-.162-.612-.432a8.644,8.644,0,0,1-1.728-.684A12.576,12.576,0,0,1,275.8,11.7a4.125,4.125,0,0,1-.774-.27c-.144-.126-.432-.036-.432-.252a12.115,12.115,0,0,0,1.89-.522c.936-.108,1.872-.288,2.862-.432a15.271,15.271,0,0,1,3.8-.252c.126,0,.324-.036.342.072.144,0,.072-.216.27-.162.522.36,1.44.342,1.638,1.026-.036.216-.306.162-.27.432-.2.036-.36.09-.432.27-.216,0-.216.234-.342.342-.2.036-.4.054-.342.342,0,.252.486.216.612.09a7.286,7.286,0,0,0,.774-.522c.072-.054.108-.126.162-.162.072-.054.2-.036.27-.09.108-.108.126-.36.342-.342-.072-.27.09-.324.09-.522.072-.306-.126-.342-.09-.612-.216-.18-.432-.594-.612-.684-.054-.036-.18.018-.252,0-.036-.018-.126-.162-.18-.18-.162-.036-.468-.054-.684-.09a6.874,6.874,0,0,0-.774-.072c-.36-.018-.756.09-1.134.072-.2,0-.324-.09-.5-.072a7.382,7.382,0,0,1-1.386.072,8.534,8.534,0,0,1-2.25.36c-.738.342-2.016.18-2.682.594-.99.09-1.71.486-2.682.612a1.382,1.382,0,0,0-.162.864c.144.054.252.144.342.162.216.09.306.036.522.09.036.018.216.162.252.18.342.108.72.162.954.252.054.018.2.162.252.18.2.072.432.108.612.162.432.162.72.288,1.116.432.216.09.378.288.7.18.2.288.648.324.864.612h.594c.108.27.36.4.522.594a.674.674,0,0,0,.522.09,2.964,2.964,0,0,0,1.116.864c.108.378.486.5.612.864.252.252.378.594.612.864a4.557,4.557,0,0,1,.072,1.98.914.914,0,0,0-.252.612,3.517,3.517,0,0,0-.684.684,23.035,23.035,0,0,1-2.16,1.224,4.362,4.362,0,0,0-1.134.252,12.845,12.845,0,0,0-1.458,0,3.456,3.456,0,0,1-.432,0,7.67,7.67,0,0,1-1.476-.18c-.054,0-.072-.072-.09-.072a2.078,2.078,0,0,1-.594-.18,4.869,4.869,0,0,0-1.224-.342c-.54-.432-1.332-.63-1.458-1.476-.018-.252.162-.288.252-.432.2-.018.054-.414.342-.342.252-.036.5.126.792.18.27.036.612.234.684-.18-.018-.342-.378-.324-.684-.342-.216-.162-.738-.036-.954-.18a2.527,2.527,0,0,0-1.206.7,2.538,2.538,0,0,0,.252,1.548,5.825,5.825,0,0,1,.522.612,5.015,5.015,0,0,1,1.116.684,6.64,6.64,0,0,1,1.638.522,9.688,9.688,0,0,0,7-.774c.09-.2.432-.162.522-.36.108-.018.378-.378.432-.252C282.672,20.668,283.05,20.416,283.05,19.912Zm10.6-.036c-.252.036-.576-.018-.666.18a5.277,5.277,0,0,0-.522.09c-.162.072-.27.2-.414.27-.018,0-.486.234-.5.252a2.384,2.384,0,0,1-.99.4,3.8,3.8,0,0,1-2,.09c-.018-.018,0-.072-.072-.09a1.733,1.733,0,0,1-.522-.342c-.306-.666-.018-1.224.09-1.908.216-.126.216-.414.342-.594.108-.18.36-.288.342-.522.468-.288.432-.81.864-1.116.2-.54.666-.792.864-1.3.126-.054.45.09.432-.09.306-.36.738.036.954,0a2.227,2.227,0,0,0,.522-.18.615.615,0,0,0,.5,0c.594-.18.63.108,1.224-.162a2.5,2.5,0,0,0,.864.072c.486-.18.828-.036,1.206-.252.558.054.882-.108,1.386-.09-.018.018.36-.036.81-.072.216-.27-.09-.414-.306-.522-2,.162-4.122.252-6.12.432-.18-.054-.576.09-.612-.09.288-.99,1.044-1.494,1.476-2.34-.2-.162.09-.774-.27-.774-.594-.072-.558.468-.864.684-.324.468-.594.954-.954,1.386-.18.252-.558.54-.684.7-.054.072-.036.18-.09.252a.616.616,0,0,1-.342.252c-.864.09-1.692.216-2.592.27-.126.18-.522.108-.684.252-.162.162-.648,0-.612.342.18.594.918.324,1.476.27.4-.054.828-.144,1.026-.18.27-.036.576-.054.7.09a19.218,19.218,0,0,0-1.224,2.16c-.252.234-.378,1.026-.594,1.476a3.306,3.306,0,0,0-.18,1.368c.09.612.558.936.774,1.3.234.072.5.09.612.27a5.275,5.275,0,0,1,1.548.09,1.5,1.5,0,0,1,.522-.18c.378-.09.09.036.36-.036.162-.036.486-.144.594-.18.216-.054.234-.126.342-.162a1.709,1.709,0,0,1,.378-.162,4.9,4.9,0,0,0,.774-.45c.288-.144.486-.378.918-.576C293.58,20.254,293.922,20.092,293.652,19.876Zm2.3-1.98a4.164,4.164,0,0,0-.594,1.08c-.054.108-.018.234-.09.342-.036.072-.216.108-.252.18a6.286,6.286,0,0,0-.27.612,3.555,3.555,0,0,0,.18,1.638,4.7,4.7,0,0,0,1.908.09,9.593,9.593,0,0,0,2.07-1.3c.216-.234.144-.4.36-.432-.054-.162.4-.414.5-.522a5.318,5.318,0,0,0,1.044-1.548c0-.018.036-.054.324-.162.27-.108.09-.018.378-.126.144-.054.216-.072.252-.09a1.976,1.976,0,0,0,.432-.756,1.3,1.3,0,0,0-.738.036c-.252.09-.018.018-.27.072-.144.036-.234,0-.252-.036a3.689,3.689,0,0,0-.216-.936c.018-.5-.594-.738-.882-.954a7.238,7.238,0,0,0-1.368.342,7.355,7.355,0,0,1-.7.792c-.468.144-.684.522-1.206.594a4.477,4.477,0,0,0-.432.342A4.027,4.027,0,0,1,295.956,17.9Zm3.384-1.674a3.35,3.35,0,0,1,.612.072c.162.216.054.7.09,1.044a3.454,3.454,0,0,1-1.566.252c.036-.162-.072-.306-.09-.162-.234-.18.2-.432.252-.612a.812.812,0,0,0,.612-.342C299.214,16.33,299.322,16.33,299.34,16.222Zm-2.16,1.728c.288.072.45.288.684.432.234,0,.486-.036.612.072a3.029,3.029,0,0,0,1.224-.234c0,.288-.144.288-.27.5a2.749,2.749,0,0,0-.594.522,5.361,5.361,0,0,0-.522.594c-.342.054-.5.36-.774.522-.108.054-.108.018-.18.09a3.509,3.509,0,0,1-.864.432h-.882c-.072-.45.18-.576.18-.954.342-.378.594-.936.954-1.386.09-.126.126-.324.342-.342C297.054,18.058,297.162,18.058,297.18,17.95Zm13.95,1.422a5.948,5.948,0,0,1-2.61,1.422,2.607,2.607,0,0,1-1.458-.18c-.09-.432.252-.432.342-.684a6.3,6.3,0,0,0,.774-1.134c.054-.072.18-.144.252-.252.054-.09.018-.342.18-.342,0-.36-.342-.54-.27-.954-.144-.234-.2-.558-.342-.774-.072-.468-.018-1.026-.432-1.134-.4-.126-.324.216-.414.324-.144.126-.72.486-.738.684a11.439,11.439,0,0,0-1.44,1.638c-.234.18-.72.81-.99,1.044-.018-.018.63.45.63.45.5-.144,2-2.286,2.52-2.412a2.92,2.92,0,0,1,.27,1.134,20.582,20.582,0,0,0-1.3,1.728,2.984,2.984,0,0,0-.18.936c.162.2.288.522.522.522.09.018.054.072.09.09a.981.981,0,0,0,.432.09,7.668,7.668,0,0,0,1.638.09,9.61,9.61,0,0,0,3.024-1.638,7.107,7.107,0,0,0,.648-.63s-.234-.7-.234-.684S311.4,19.138,311.13,19.372Zm1.548,2.16a3.932,3.932,0,0,0,1.728.18c.108-.036.162-.126.342-.09a5.247,5.247,0,0,1,.684-.252c.18-.072.54-.252.612-.27.09,0,.036-.054.09-.072.216-.108.486-.162.684-.27.216-.108.378-.414.684-.342-.054.2-.036.468-.252.522-.144.108,0,.5-.252.522,0,.252-.234.288-.27.5-.378.918-.792,1.8-1.206,2.682a6.618,6.618,0,0,1-1.044.612c-.108.054-.234.018-.342.09-.072.036-.09.2-.162.252-.108.054-.27.036-.36.09-.054.036-.18.126-.252.162-.18.108-.342.234-.522.36a16.44,16.44,0,0,1-1.548,1.026c-.27.45-.792.7-1.044,1.044-.2.27-.4.45-.594.684-.432.27-.486.9-1.044,1.044-.054.252-.18.45-.252.684a1.308,1.308,0,0,0-.612.7c-.144.306-.468.45-.522.864-.432.468-.594,1.224-1.026,1.728a8.519,8.519,0,0,1-.36,1.206,4.331,4.331,0,0,0,.36,1.98,2.983,2.983,0,0,0,1.89-.09c.306-.2.468-.558.954-.594a1.565,1.565,0,0,1,.252-.522c.576-.234.846-.774,1.3-1.116a2.4,2.4,0,0,0,.18-.612c.288-.036.378-.252.612-.342-.018-.54.5-.54.5-1.044.288.054.27-.306.36-.432,0,0,.072-.072.072-.09a1.237,1.237,0,0,0,.27-.432c.414-.666.828-1.35,1.206-2.07.252-.27.252-.792.612-.954.126-.414.378-.7.5-1.116a3.745,3.745,0,0,0,.522-1.116c.306-.252.342-.774.612-1.044.63-.342,1.278-.738,1.98-1.044.72-.288,1.44-.72,2.16-1.026.036-.18.468,0,.522-.162a4.668,4.668,0,0,1,1.206-.432,10.752,10.752,0,0,1,1.818-.432c.45-.072.846-.2.774-.774-.432-.342-.7.108-1.386,0a3.558,3.558,0,0,1-1.206.342,33.087,33.087,0,0,0-3.546,1.422,4.651,4.651,0,0,0-.864.378c-.216.054-.54.432-.774.18-.126-.4.288-.234.27-.522.072-.18.162-.342.252-.522.162-.4.234-.864.612-1.044-.072-.306.144-.36.072-.684.378-.09.468-.468.522-.864.612-.5.864-1.386,1.476-1.908.468-.648,1.152-1.08,1.386-1.98-.216-.072-.108-.486-.432-.432-.432-.072-.4.288-.612.432a1.247,1.247,0,0,0-.522.612,11.876,11.876,0,0,1-1.3,1.368,2.184,2.184,0,0,1-.252.18,7.072,7.072,0,0,0-.7.432c-.072.072-.18.108-.252.18a1.977,1.977,0,0,0-.252.162.978.978,0,0,1-.522.27,6.73,6.73,0,0,1-1.908.774.569.569,0,0,1-.684.09c-.018-.468.378-.54.522-.864.216-.252.684-.882.9-1.134.378-.576,1.044-.846,1.3-1.548a5.207,5.207,0,0,0-.342-.522.94.94,0,0,0-.774.18c-.036,0-.054.144-.09.162-.072.036-.2.252-.27.288s-.162.216-.342.18a1.1,1.1,0,0,1-.342.522c-.036.018-.144-.036-.18,0-.018.018-.036.126-.072.162a.712.712,0,0,1-.27.18c.018.2-.45.81-.558.9-.126.108-.324.738-.45.828C312.786,20.416,312.408,20.92,312.678,21.532Zm2.07,4.5c.072,0,.072.108.09.18a5.445,5.445,0,0,0-.7,1.368c-.36.306-.414.918-.774,1.224a3.074,3.074,0,0,1-.522,1.026c-.18.324-.324.648-.522.954-.18.306-.414.576-.594.864-.2.306-.27.684-.612.864a5.527,5.527,0,0,1-.774,1.206c-.144.18-.378.342-.522.522-.09.108-.126.468-.432.522-.2.45-.774.54-.954,1.026-.54.09-.774.5-1.458.432-.36-.468-.2-1.152-.09-1.8a9.992,9.992,0,0,1,.864-1.818,16.236,16.236,0,0,0,.954-1.638c.18-.054.234-.234.342-.36.108-.108.288-.162.342-.342.216-.216.324-.54.612-.684a13.847,13.847,0,0,1,2.07-1.908,9.239,9.239,0,0,1,1.548-1.026,4.633,4.633,0,0,1,.792-.522C314.586,26.158,314.622,26.05,314.748,26.032Z" transform="translate(5060 -517)" fill="#fff"/>
  </g>
</svg>
