<svg xmlns="http://www.w3.org/2000/svg" width="218.48" height="67.029" viewBox="0 0 218.48 67.029">
  <g id="グループ_64" data-name="グループ 64" transform="translate(-735.8 -84.799)">
    <path id="パス_94" data-name="パス 94" d="M164,24.68l-.96-.64A23.935,23.935,0,0,0,169.6,10.4H148.88l-.36-1.24h21.32l2.2-1.96L175,10.4a1.593,1.593,0,0,1-.48.4,2.652,2.652,0,0,1-1,.12A24.681,24.681,0,0,1,164,24.68Zm-15.76,13-.44-.52q9.32-6.64,9.4-20.08v-2.6l4.76.52a1.087,1.087,0,0,1-.36.7,2.111,2.111,0,0,1-1.12.42l-.04.92Q160.56,31.64,148.24,37.68Zm41.68-24.32q-3.08-2.2-9.96-3.48l.12-.72a28.321,28.321,0,0,1,4.68-.44,11.3,11.3,0,0,1,3.14.38,10.655,10.655,0,0,1,2.5,1.1q1.52.8,1.52,1.76a1.775,1.775,0,0,1-.28.88,1.165,1.165,0,0,1-1.08.64A2.055,2.055,0,0,1,189.92,13.36Zm-10,19.88q15.12-3.4,23.52-20l.88.72q-6.28,17.08-21.72,22.08a1.616,1.616,0,0,1-.72,1.44Zm33.6,3.92-.48-.8q12.04-7.04,12.8-21.44h-9.16a37.3,37.3,0,0,1-7.12,9.12l-.8-.6a53.626,53.626,0,0,0,7.92-17.68l5,.84a1.6,1.6,0,0,1-.46.62,2.037,2.037,0,0,1-1.14.38,54.4,54.4,0,0,1-2.76,6.16H230.2l2.12-2.84q.04.04.7.58t1.54,1.3q.88.76,1.64,1.48a.922.922,0,0,1-.38.48,1.327,1.327,0,0,1-.7.16h-5.88Q228.48,31.84,213.52,37.16ZM241.2,24.64l-.52-4.44h18.28q-1.36,2.88-3.56,2.92l-13.08.04a2.111,2.111,0,0,1-.42,1.12A1.087,1.087,0,0,1,241.2,24.64Zm24.76,13.72V6.16l4.76.52a1.087,1.087,0,0,1-.36.7,2.111,2.111,0,0,1-1.12.42v9.56a35.406,35.406,0,0,1,8.44,2,24.535,24.535,0,0,1,5.44,3,4.741,4.741,0,0,1,1.72,1.82,1.333,1.333,0,0,1-.2,1.5,1.3,1.3,0,0,1-1,.44,3,3,0,0,1-1.4-.44,43.883,43.883,0,0,0-5.52-3.64,72.922,72.922,0,0,0-7.48-3.64l-.04,19.28Q265.96,39.56,265.96,38.36ZM300.36,3.4a1.211,1.211,0,0,1-.6.48,1.86,1.86,0,0,1-.96.08,46.331,46.331,0,0,1-5.28,5.8,5.116,5.116,0,0,1,1.26,1.42,2.823,2.823,0,0,1,.42,1.38,1.73,1.73,0,0,1-.38,1.14,1.213,1.213,0,0,1-.98.46,2.109,2.109,0,0,1-1.16-.44,9.055,9.055,0,0,0-1.38-2.88,13.312,13.312,0,0,0-2.26-2.6l.4-.32a13.657,13.657,0,0,1,3.16,1.24,84.031,84.031,0,0,0,3.6-7.84ZM316.4,9.44v7.12h3.76l1.96-2.52q2.36,1.84,3.64,3.04-.16.64-1.04.64H305.6l-.32-1.16h7.92V9.44h-8.44l-.32-1.12h8.76V1.6l4.48.44a1.126,1.126,0,0,1-.36.68,2,2,0,0,1-.92.36V8.32h4.48l2-2.6a45.412,45.412,0,0,1,3.72,3.12q-.16.6-1.08.6ZM299.88,14.4a11.64,11.64,0,0,1,3.92,3.02,5.093,5.093,0,0,1,1.24,3.02,2.182,2.182,0,0,1-.42,1.38,1.29,1.29,0,0,1-1.06.54,1.814,1.814,0,0,1-1.24-.56,12.465,12.465,0,0,0-.64-2.64l-3.12.8V37.28q0,.24-.74.6a3.937,3.937,0,0,1-1.74.36h-.48V20.68l-4.28.96a1.408,1.408,0,0,1-1,.84l-1.36-3.32,3.88-.2q1.84-2.8,3.84-6.26t3.4-6.18l4.04,2q-.4.72-1.64.56-1.52,2.12-3.8,4.8t-4.56,5l7.24-.56a22.414,22.414,0,0,0-1.96-3.68Zm25.16,9a2.255,2.255,0,0,1-1.52.72V36.8q0,.08-.38.3a4.064,4.064,0,0,1-.98.38,4.951,4.951,0,0,1-1.28.16h-.52V35.12H309.8v2.04q0,.24-.72.56a4.439,4.439,0,0,1-1.8.32h-.52V21.28l3.52,1.44h9.96l1.52-1.8Zm-24.52.4a11.86,11.86,0,0,1,3.42,3.16,5.559,5.559,0,0,1,1.1,3.04,2.574,2.574,0,0,1-.44,1.56,1.3,1.3,0,0,1-1.08.6,1.876,1.876,0,0,1-1.32-.64,12.827,12.827,0,0,0-.64-3.78A20.322,20.322,0,0,0,300,24Zm9.28,10.16h10.56V23.88H309.8Zm-21.36.84a28.14,28.14,0,0,0,1.76-4.94A46.961,46.961,0,0,0,291.36,24l3.96.96a1.322,1.322,0,0,1-1.44.88A30.122,30.122,0,0,1,291.84,31a19.713,19.713,0,0,1-2.72,4.12Zm62-10.8a26.118,26.118,0,0,0,7,5.9,34.469,34.469,0,0,0,8.84,3.82l-.08.44a3.118,3.118,0,0,0-1.66.88,4.067,4.067,0,0,0-1.06,1.84,30.414,30.414,0,0,1-8.12-5.24A26.565,26.565,0,0,1,349.4,24h-.36V37.2q0,.16-.36.42a3.225,3.225,0,0,1-.96.44,4.732,4.732,0,0,1-1.36.18h-.56V25.92a33.143,33.143,0,0,1-7.2,6.38,45.638,45.638,0,0,1-9.4,4.74l-.4-.56a41.208,41.208,0,0,0,8.1-5.56A35.7,35.7,0,0,0,343.08,24H329.72l-.36-1.2H345.8V18h-8.12v1.16q0,.28-.88.66a4.5,4.5,0,0,1-1.8.38h-.48V2.24l3.36,1.52h19.2L358.64,2l3.48,2.64a2.643,2.643,0,0,1-1.48.72V18.68q-.04.24-1,.66a4.363,4.363,0,0,1-1.72.42h-.48V18h-8.4v4.8h10.6l2.2-2.72q2.64,1.96,4.08,3.28-.16.64-1.04.64ZM345.8,4.92h-8.12V10.2h8.12Zm11.64,0h-8.4V10.2h8.4ZM337.68,16.88h8.12V11.4h-8.12Zm11.36,0h8.4V11.4h-8.4Z" transform="translate(588 113)" fill="#9f7f8e"/>
    <path id="パス_95" data-name="パス 95" d="M200,24.718c0-.036.144-.054.162-.09.144-.288-.072-.522.18-.684a1.34,1.34,0,0,0,.252-.792c.252-.126.234-.522.432-.684a7.28,7.28,0,0,1,.522-1.638,4.47,4.47,0,0,1,1.332-.81c.162-.18.45-.216.594-.432.252-.126.612-.144.7-.432.558-.18.81-.684,1.3-.954a5.3,5.3,0,0,1,.684-1.476,17.187,17.187,0,0,0,.18-2.43,1.372,1.372,0,0,0-.27-.774c-.018-.018.018-.144,0-.18-.09-.144-.216-.27-.342-.432a1.163,1.163,0,0,1-.162-.342c-.018-.018-.162-.054-.18-.09a5.848,5.848,0,0,1-.684-.936.589.589,0,0,1-.36-.18c-.072-.072-.18-.108-.252-.18s-.18-.09-.252-.162-.09-.036-.18-.09c-.162-.108-.27-.342-.432-.432-.2-.108-.45-.036-.612-.252-.324-.09-.4-.414-.774-.432a11.935,11.935,0,0,0-1.638.072,4.18,4.18,0,0,1-1.638.522,5.06,5.06,0,0,1-1.206.612,3.025,3.025,0,0,1-1.134.774c-.108.234-.342.342-.522.522a4,4,0,0,1-.594.5c-.216.54-.81.792-.954,1.4-.45.27-.558.81-.9,1.206a4.549,4.549,0,0,0-.486,1.3c-.018.09-.054.936-.162.954a6.271,6.271,0,0,1,.072,1.566.76.76,0,0,1,.18.522c.27.306.522.63.774.954a1.551,1.551,0,0,1,.7.432,23.225,23.225,0,0,0,2.322.342c.018,0,.072-.09.18-.09-.018,0,.036.072.09.09.036.018.108,0,.162,0a7.789,7.789,0,0,0,2.124-.072c.144-.036.252-.036.36-.072a1.108,1.108,0,0,1,.864-.09c-.09.828-.486,1.35-.612,2.16-.216.234-.2.72-.342,1.044-.108.306-.36.936.162.936A6.093,6.093,0,0,0,200,24.718Zm1.674-13.878c.378-.018-.288.54-.432.612a1.929,1.929,0,0,1-.252.684c.4.27.576-.036.756-.252.072-.2.288-.234.36-.432.234-.018.2-.324.342-.432a1.888,1.888,0,0,1,1.206.594c.342.234.63.522.954.792.414.81,1.314,2.2.954,3.546a3.749,3.749,0,0,1-.36.954,5.408,5.408,0,0,1-1.116,1.476,2.554,2.554,0,0,0-.522.18c-.144.072-.216.27-.342.342-.09.054-.18.036-.252.09-.072.036-.144.144-.18.162a2.157,2.157,0,0,0-.468.378c-.288,0-.324.252-.684.18-.126-.468.018-1.134-.18-1.566a1.652,1.652,0,0,0-.864-1.044c-.018-.162-.234-.162-.252-.342-.054-.144-.414.018-.432-.162-.324.108-.81.054-.864.432a.485.485,0,0,1,.09.342c.108-.018.234-.018.252.09.324-.09.252.216.522.162.09.036.018.2.09.27.036.054.216.036.252.09.09.108.036.414.252.414a.728.728,0,0,0,.18.522v.612c-.054.144.108.5-.09.522,0,.252-.306.216-.522.252-.018.2-.378.09-.432.252a21.716,21.716,0,0,1-3.078.072c-.666-.054-1.278-.306-1.89-.342-.252-.18-.522-.342-.774-.522-.072-.234-.252-.324-.36-.522a5.95,5.95,0,0,1-.072-1.908,14.846,14.846,0,0,1,1.8-3.294,18.415,18.415,0,0,1,2.34-2.25,7.1,7.1,0,0,0,1.3-.612c.432-.18.918-.288,1.386-.522C200.79,10.678,201.384,10.606,201.672,10.84Zm16.7,8.64a6.857,6.857,0,0,1-2.394,1.224,1.508,1.508,0,0,1-.936-.18c.144-.738,1.3-1.656,1.746-2.106s.864-.972,1.3-1.458c.09-.162.162-.216.162-.36.018-.09.054-.036.09-.072.126-.2.2-.828-.162-.864-.126-.252-.432.018-.522.072a1,1,0,0,1-.432.432c-.144.126-.342.18-.342.432-.27.09-.36.342-.522.522a14.286,14.286,0,0,0-1.926,2.268,5.081,5.081,0,0,0-1.116.7c-.414.234-.828.414-1.224.684-.738.144-1.44.738-2.322.432-.144-.774.45-.882.558-1.422a9.607,9.607,0,0,0,1.224-1.566c.2-.18.522-.432.576-.756.414-.378.936-.63.864-1.458-.2-.126-.288-.36-.684-.27-.27-.036-.252.216-.342.342-.036.216-.954.972-.918,1.242A32.653,32.653,0,0,0,209,20.164c-.126.324-.162.72-.27,1.044.216.27.234.756.612.864a1.657,1.657,0,0,0,.954.09c.126-.018.288.018.432,0,.72-.126,1.422-.558,2.07-.7a2.351,2.351,0,0,1,1.116-.684c.144.27.252.558.522.684.4,0,.81.18,1.206.18a2.479,2.479,0,0,1,.7-.162,8.609,8.609,0,0,0,2.034-1.062c.054.018,1.188-.738,1.188-.738a5.767,5.767,0,0,0-.306-.774C219.2,18.94,218.646,19.264,218.376,19.48Zm9.972-.342a3.071,3.071,0,0,0-.684.234,4.314,4.314,0,0,0-.684.378,7.035,7.035,0,0,1-3.132,1.206h-.18a2.567,2.567,0,0,1-.954-.414c.414-.144.63-.468,1.044-.612.108-.234.36-.306.522-.5s.342-.576.594-.7c.054-.63.72-1.4.72-2.106.144-.162.108-.468.18-.594.036-.072.072-.036.072-.18a.788.788,0,0,0-.252-.774c-.594-.018-.846.306-1.476.252a3.919,3.919,0,0,1-1.3.792c-.252.414-.738.63-.936,1.116-.252.09-.342.36-.432.612-.216.09-.5.954-.558,1.134,0,.054-.072.09-.072.09a2.773,2.773,0,0,0,.072,1.224c-.036.324.108.81.522.864a4.673,4.673,0,0,0,2.862.666,8.5,8.5,0,0,0,4.014-1.944A3.653,3.653,0,0,0,228.348,19.138Zm-3.528-3.024c.072,0,.072.108.09.162a1.62,1.62,0,0,1-.36.864,10.671,10.671,0,0,1-1.566,2.2,3.737,3.737,0,0,1-.522.342,1.58,1.58,0,0,1-.7.18,6.342,6.342,0,0,1,1.152-2.538c.486-.216.774-.756,1.3-1.044C224.352,16.2,224.586,16.276,224.82,16.114Zm4.086,4.428c.018-.162.288-.054.342-.18.162-.036.162-.234.432-.162a1.042,1.042,0,0,0,0,.738,2.209,2.209,0,0,1,.864.612c.378.018.7.234,1.044.252a14.431,14.431,0,0,0,3.114-.5,4.571,4.571,0,0,1,1.206-.414c.27-.072.324-.126.522-.18a5.825,5.825,0,0,0,.594-.234.8.8,0,0,0,.27-.09,6.73,6.73,0,0,1,.648-.45,1.041,1.041,0,0,1,.252-.09c.054,0,.216-.144.27-.162.18-.072.45-.378.648-.45.126.108.054-.36.054-.738a28.439,28.439,0,0,1-2.574,1.26c-.756.2-1.566.414-2.322.594-.36-.126-.666.252-.864,0,.072-.378.36-.558.594-.774a10.721,10.721,0,0,1,1.062-1.98c.036-.018-.018-.126,0-.162a10.984,10.984,0,0,0,.612-.972c.108-.216.342-.468.252-.774a3.588,3.588,0,0,1-.342-.432,3.033,3.033,0,0,0-1.206.594c-.414.252-.792.558-1.224.81-.81.414-1.836,1.332-2.592,1.818a13.644,13.644,0,0,1-2.178,1.4,4.314,4.314,0,0,1,.036.846C228.42,20.794,228.69,20.668,228.906,20.542Zm2.844.054c-.756.09-1.026-.378-1.458-.738a24.524,24.524,0,0,0,2.286-1.728c.648-.144.738-.81,1.368-.972.018-.108.144-.126.162-.252.144-.036.162.072.18.18-.162.018-.2.144-.18.342-.216.09-.288.7-.522.792a4.827,4.827,0,0,1-1.134,1.692A1.2,1.2,0,0,1,231.75,20.6Zm14.8-.72c-.252.036-.576-.018-.666.18a5.275,5.275,0,0,0-.522.09c-.162.072-.27.2-.414.27-.018,0-.486.234-.5.252a2.384,2.384,0,0,1-.99.4,3.8,3.8,0,0,1-2,.09c-.018-.018,0-.072-.072-.09a1.732,1.732,0,0,1-.522-.342c-.306-.666-.018-1.224.09-1.908.216-.126.216-.414.342-.594.108-.18.36-.288.342-.522.468-.288.432-.81.864-1.116.2-.54.666-.792.864-1.3.126-.054.45.09.432-.09.306-.36.738.036.954,0a2.227,2.227,0,0,0,.522-.18.615.615,0,0,0,.5,0c.594-.18.63.108,1.224-.162a2.5,2.5,0,0,0,.864.072c.486-.18.828-.036,1.206-.252.558.054.882-.108,1.386-.09-.018.018.36-.036.81-.072.216-.27-.09-.414-.306-.522-2,.162-4.122.252-6.12.432-.18-.054-.576.09-.612-.09.288-.99,1.044-1.494,1.476-2.34-.2-.162.09-.774-.27-.774-.594-.072-.558.468-.864.684-.324.468-.594.954-.954,1.386-.18.252-.558.54-.684.7-.054.072-.036.18-.09.252a.616.616,0,0,1-.342.252c-.864.09-1.692.216-2.592.27-.126.18-.522.108-.684.252-.162.162-.648,0-.612.342.18.594.918.324,1.476.27.4-.054.828-.144,1.026-.18.27-.036.576-.054.7.09a19.218,19.218,0,0,0-1.224,2.16c-.252.234-.378,1.026-.594,1.476a3.306,3.306,0,0,0-.18,1.368c.09.612.558.936.774,1.3.234.072.5.09.612.27a5.275,5.275,0,0,1,1.548.09,1.5,1.5,0,0,1,.522-.18c.378-.09.09.036.36-.036.162-.036.486-.144.594-.18.216-.054.234-.126.342-.162a1.709,1.709,0,0,1,.378-.162,4.9,4.9,0,0,0,.774-.45c.288-.144.486-.378.918-.576C246.474,20.254,246.816,20.092,246.546,19.876Zm6.048.252c.144-.162.432-.252.558-.432.81-.414,1.134-.954.936-1.512-.45.036-.81.36-1.188.468-.306.18-.306.432-.666.576-.468.27-.9.468-1.368.72a4.232,4.232,0,0,1-1.638.594c-.234.2-.774.5-1.134.27.072-.54.558-.666.774-1.044.4-.252.81-1.134,1.26-1.314.342-.252.432-.792.882-.954.144-.486.684-.576.774-1.116-.2-.126-.072-.558-.432-.522-.324-.09-.27.18-.432.252a4.162,4.162,0,0,1-.432.36c-.072.18-.324.18-.342.432-.18.072-.378.144-.432.342-.594.432-1.224,1.53-1.782,2a4.764,4.764,0,0,0-.9,1.3,1.36,1.36,0,0,0-.054.792c-.018.288.288.27.342.5.378-.09.846,0,1.3-.072.036-.018.216-.162.252-.18.18-.054.342.108.432-.09.468-.2,1.044-.288,1.476-.522.018-.108.576-.378.612-.252C251.586,20.344,252.36,20.4,252.594,20.128Zm1.548-8.226c.288.144.9.306,1.134,0a3.448,3.448,0,0,0-.27-1.3C254.124,10.444,254.124,11.164,254.142,11.9Zm1.746,5.994a4.164,4.164,0,0,0-.594,1.08c-.054.108-.018.234-.09.342-.036.072-.216.108-.252.18a6.29,6.29,0,0,0-.27.612,3.556,3.556,0,0,0,.18,1.638,4.7,4.7,0,0,0,1.908.09,9.593,9.593,0,0,0,2.07-1.3c.216-.234.144-.4.36-.432-.054-.162.4-.414.5-.522a5.318,5.318,0,0,0,1.044-1.548c0-.018.036-.054.324-.162.27-.108.09-.018.378-.126.144-.054.216-.072.252-.09a1.976,1.976,0,0,0,.432-.756,1.3,1.3,0,0,0-.738.036c-.252.09-.018.018-.27.072-.144.036-.234,0-.252-.036a3.689,3.689,0,0,0-.216-.936c.018-.5-.594-.738-.882-.954a7.238,7.238,0,0,0-1.368.342,7.355,7.355,0,0,1-.7.792c-.468.144-.684.522-1.206.594a4.477,4.477,0,0,0-.432.342A4.027,4.027,0,0,1,255.888,17.9Zm3.384-1.674a3.35,3.35,0,0,1,.612.072c.162.216.054.7.09,1.044a3.454,3.454,0,0,1-1.566.252c.036-.162-.072-.306-.09-.162-.234-.18.2-.432.252-.612a.812.812,0,0,0,.612-.342C259.146,16.33,259.254,16.33,259.272,16.222Zm-2.16,1.728c.288.072.45.288.684.432.234,0,.486-.036.612.072a3.029,3.029,0,0,0,1.224-.234c0,.288-.144.288-.27.5a2.749,2.749,0,0,0-.594.522,5.361,5.361,0,0,0-.522.594c-.342.054-.5.36-.774.522-.108.054-.108.018-.18.09a3.509,3.509,0,0,1-.864.432h-.882c-.072-.45.18-.576.18-.954.342-.378.594-.936.954-1.386.09-.126.126-.324.342-.342C256.986,18.058,257.094,18.058,257.112,17.95Zm17.154,1.224c.018-.072.306-.18.468-.18.27-.018.468-.36.378-1.206a2.341,2.341,0,0,0-1.134.486c-.126.054-.378.27-.522.324a2.59,2.59,0,0,1-.45.4,1.827,1.827,0,0,1-.648.324,7.477,7.477,0,0,1-2,.882c-.2.054-.2.144-.432.162-.144.126-.432,0-.612.072-.2-.018-.378.414-.522.18.18-.108.09-.486.342-.522a2.885,2.885,0,0,0,.36-.612,5.71,5.71,0,0,0,1.044-1.692c.234-.054.18-.4.432-.432-.018-.342.378-.27.342-.612a1.022,1.022,0,0,0,.432-1.3c-.432-.234-1.17.126-1.476.27a13.7,13.7,0,0,1-1.476.864c-.09.054-.18.2-.27.252a4.254,4.254,0,0,1-.684.432c-.162.09-.234.234-.432.18-.09.216-.342.288-.432.522-.234-.072-.126.162-.288.162-.126-.036-.216.342-.27.09h.09c0-.09.126-.126,0-.18.216-.36.522-1.944.216-2.232-.432-.072-.63-.108-.756.2-.09.216-.414,1.728-.486,2.034a22.178,22.178,0,0,1-1.224,2.142,2.464,2.464,0,0,1-.522.684c-.144.27-.378.432-.342.864.234.324.342.036.792.09.2-.126.342-.306.522-.432.27-.054.234-.414.522-.432.378-.27.5-.738.9-.99a3.066,3.066,0,0,1,.54-.54,13.208,13.208,0,0,1,2.826-1.908c-.216.4-.774,1.458-.954,1.71a.853.853,0,0,1-.18.18c-.018.018.018.144,0,.162-.072.108-.2.18-.252.27a2.961,2.961,0,0,0-.18.342c-.036.072-.144.036-.162.09-.072.108,0,.18-.09.252-.036.018.018.144,0,.18a1.875,1.875,0,0,0-.27,1.026c.4.414,1.062.2,1.566.18.7-.432,1.53-.486,2.2-.954.324-.252.486-.18.792-.45.486-.216.558-.36.864-.468A7.449,7.449,0,0,0,274.266,19.174Zm11.376,0c.018-.072.306-.18.468-.18.27-.018.468-.36.378-1.206a2.341,2.341,0,0,0-1.134.486c-.126.054-.378.27-.522.324a2.591,2.591,0,0,1-.45.4,1.828,1.828,0,0,1-.648.324,7.477,7.477,0,0,1-2,.882c-.2.054-.2.144-.432.162-.144.126-.432,0-.612.072-.2-.018-.378.414-.522.18.18-.108.09-.486.342-.522a2.885,2.885,0,0,0,.36-.612,5.71,5.71,0,0,0,1.044-1.692c.234-.054.18-.4.432-.432-.018-.342.378-.27.342-.612a1.022,1.022,0,0,0,.432-1.3c-.432-.234-1.17.126-1.476.27a13.7,13.7,0,0,1-1.476.864c-.09.054-.18.2-.27.252a4.254,4.254,0,0,1-.684.432c-.162.09-.234.234-.432.18-.09.216-.342.288-.432.522-.234-.072-.126.162-.288.162-.126-.036-.216.342-.27.09h.09c0-.09.126-.126,0-.18.216-.36.522-1.944.216-2.232-.432-.072-.63-.108-.756.2-.09.216-.414,1.728-.486,2.034a22.178,22.178,0,0,1-1.224,2.142,2.464,2.464,0,0,1-.522.684c-.144.27-.378.432-.342.864.234.324.342.036.792.09.2-.126.342-.306.522-.432.27-.054.234-.414.522-.432.378-.27.5-.738.9-.99a3.066,3.066,0,0,1,.54-.54,13.208,13.208,0,0,1,2.826-1.908c-.216.4-.774,1.458-.954,1.71a.853.853,0,0,1-.18.18c-.018.018.018.144,0,.162-.072.108-.2.18-.252.27a2.961,2.961,0,0,0-.18.342c-.036.072-.144.036-.162.09-.072.108,0,.18-.09.252-.036.018.018.144,0,.18a1.875,1.875,0,0,0-.27,1.026c.4.414,1.062.2,1.566.18.7-.432,1.53-.486,2.2-.954.324-.252.486-.18.792-.45.486-.216.558-.36.864-.468A7.449,7.449,0,0,0,285.642,19.174Zm12.222-.828c-.414.234-.72.486-1.08.684a2.447,2.447,0,0,0-.72.522c-.522.234-1.026.45-1.548.684-.27.126-.594.216-.864.342-.27.144-.486.072-.774.162a2.434,2.434,0,0,0-.522.072c-.054-.162-.522.054-.432-.252-.126-.342.216-.4.342-.522a1.528,1.528,0,0,1,.522-.432,1.824,1.824,0,0,1,.594-.684c.018-.486.486-.5.432-1.044-.126-.144-.126-.432-.342-.522-1.008-.09-1.026.81-1.728,1.044,0,.36-.252.486-.432.684-.036.4-.27.594-.342.954-.27-.036-.234.234-.432.252a.674.674,0,0,1-.522.09c.018.27-.36.27-.522.36-.09.054-.144.108-.252.162-.108.072-.252.018-.252.18-.486.018-.954.468-1.476.162a7.817,7.817,0,0,1,.522-1.548c.252-.036.27-.306.432-.432s.216-.36.432-.432a9.947,9.947,0,0,0,.774-.954c.576-.2.9-.666,1.386-.954.288-.054.432-.288.684-.432a5.074,5.074,0,0,0,.864-.342c.558.09.864-.306,1.3-.09-.018.4-.576.594-.252,1.044.126-.018.324.036.342-.09,0-.126.216-.072.18-.252.252-.072.36-.27.5-.432.216-.72-.054-1.35-.684-1.476-.774.108-1.278.5-2.07.612-.18.306-.612.36-.954.522-.288.162-.414.486-.864.5a2.241,2.241,0,0,1-.774.7c-.468.5-1.044.918-1.476,1.458-.252.27-.414.63-.684.864a2.125,2.125,0,0,1-.432.954,1.65,1.65,0,0,0,.432,1.728.469.469,0,0,1,.432.09,3.528,3.528,0,0,0,1.116-.252c.27-.18.738-.27.864-.36a4.283,4.283,0,0,1,.864-.432c.2-.036.27-.288.522-.252.234-.036.09.324.252.342.018.216.342.126.36.342.144.054.5-.09.5.09.594-.108,1.026-.072,1.656-.144.252-.36.81-.27,1.116-.576.216.018.252-.072.432-.18.162-.09.36-.09.522-.162.306-.162.54-.4.846-.558s.234-.288.54-.432c.288-.144.63-.594.936-.756C298.08,18.976,297.864,18.346,297.864,18.346Zm5.742,1.782c.144-.162.432-.252.558-.432.81-.414,1.134-.954.936-1.512-.45.036-.81.36-1.188.468-.306.18-.306.432-.666.576-.468.27-.9.468-1.368.72a4.232,4.232,0,0,1-1.638.594c-.234.2-.774.5-1.134.27.072-.54.558-.666.774-1.044.4-.252.81-1.134,1.26-1.314.342-.252.432-.792.882-.954.144-.486.684-.576.774-1.116-.2-.126-.072-.558-.432-.522-.324-.09-.27.18-.432.252a4.165,4.165,0,0,1-.432.36c-.072.18-.324.18-.342.432-.18.072-.378.144-.432.342-.594.432-1.224,1.53-1.782,2a4.764,4.764,0,0,0-.9,1.3,1.36,1.36,0,0,0-.054.792c-.018.288.288.27.342.5.378-.09.846,0,1.3-.072.036-.018.216-.162.252-.18.18-.054.342.108.432-.09.468-.2,1.044-.288,1.476-.522.018-.108.576-.378.612-.252C302.6,20.344,303.372,20.4,303.606,20.128Zm1.548-8.226c.288.144.9.306,1.134,0a3.448,3.448,0,0,0-.27-1.3C305.136,10.444,305.136,11.164,305.154,11.9Zm7.416,7.47a5.948,5.948,0,0,1-2.61,1.422,2.607,2.607,0,0,1-1.458-.18c-.09-.432.252-.432.342-.684a6.3,6.3,0,0,0,.774-1.134c.054-.072.18-.144.252-.252.054-.09.018-.342.18-.342,0-.36-.342-.54-.27-.954-.144-.234-.2-.558-.342-.774-.072-.468-.018-1.026-.432-1.134-.4-.126-.324.216-.414.324-.144.126-.72.486-.738.684a11.439,11.439,0,0,0-1.44,1.638c-.234.18-.72.81-.99,1.044-.018-.018.63.45.63.45.5-.144,2-2.286,2.52-2.412a2.92,2.92,0,0,1,.27,1.134,20.582,20.582,0,0,0-1.3,1.728,2.984,2.984,0,0,0-.18.936c.162.2.288.522.522.522.09.018.054.072.09.09a.981.981,0,0,0,.432.09,7.668,7.668,0,0,0,1.638.09,9.61,9.61,0,0,0,3.024-1.638,7.107,7.107,0,0,0,.648-.63s-.234-.7-.234-.684S312.84,19.138,312.57,19.372Zm9.864-.234a3.071,3.071,0,0,0-.684.234,4.314,4.314,0,0,0-.684.378,7.036,7.036,0,0,1-3.132,1.206h-.18a2.567,2.567,0,0,1-.954-.414c.414-.144.63-.468,1.044-.612.108-.234.36-.306.522-.5s.342-.576.594-.7c.054-.63.72-1.4.72-2.106.144-.162.108-.468.18-.594.036-.072.072-.036.072-.18a.788.788,0,0,0-.252-.774c-.594-.018-.846.306-1.476.252a3.92,3.92,0,0,1-1.3.792c-.252.414-.738.63-.936,1.116-.252.09-.342.36-.432.612-.216.09-.5.954-.558,1.134,0,.054-.072.09-.072.09a2.773,2.773,0,0,0,.072,1.224c-.036.324.108.81.522.864a4.673,4.673,0,0,0,2.862.666,8.5,8.5,0,0,0,4.014-1.944A3.652,3.652,0,0,0,322.434,19.138Zm-3.528-3.024c.072,0,.072.108.09.162a1.62,1.62,0,0,1-.36.864,10.671,10.671,0,0,1-1.566,2.2,3.736,3.736,0,0,1-.522.342,1.58,1.58,0,0,1-.7.18A6.342,6.342,0,0,1,317,17.32c.486-.216.774-.756,1.3-1.044C318.438,16.2,318.672,16.276,318.906,16.114Z" transform="translate(588 75)" fill="#9f7f8e"/>
  </g>
</svg>
