<svg xmlns="http://www.w3.org/2000/svg" xmlns:xlink="http://www.w3.org/1999/xlink" width="229.531" height="229.5" viewBox="0 0 229.531 229.5">
  <defs>
    <clipPath id="clip-path">
      <rect id="長方形_84" data-name="長方形 84" width="229.531" height="229.5" fill="none"/>
    </clipPath>
  </defs>
  <g id="グループ_66" data-name="グループ 66" transform="translate(-1266 -792)">
    <g id="グループ_65" data-name="グループ 65" transform="translate(-4 -3408)">
      <g id="グループ_49" data-name="グループ 49" transform="translate(1270 4200)">
        <g id="グループ_48" data-name="グループ 48" clip-path="url(#clip-path)">
          <path id="パス_71" data-name="パス 71" d="M114.78,114.751,71.794,221.145A114.751,114.751,0,0,1,8.386,71.765C26.31,27.4,66.932,0,114.78,0Z" transform="translate(0 0)" fill="#e1eff4"/>
          <path id="パス_72" data-name="パス 72" d="M179.575,114.751V0a114.749,114.749,0,1,1,0,229.5,109.431,109.431,0,0,1-42.986-8.355Z" transform="translate(-64.795 0)" fill="#faf5cf"/>
        </g>
      </g>
      <g id="楕円形_5" data-name="楕円形 5" transform="translate(1270 4200)" fill="none" stroke="#c9b6bf" stroke-width="1">
        <circle cx="114.5" cy="114.5" r="114.5" stroke="none"/>
        <circle cx="114.5" cy="114.5" r="114" fill="none"/>
      </g>
    </g>
    <path id="パス_97" data-name="パス 97" d="M16.445,12.8a11.264,11.264,0,0,1,3.33-.48,7.331,7.331,0,0,1,5.2,1.83,6.588,6.588,0,0,1,1.965,5.07A7.387,7.387,0,0,1,26,22.985a6.446,6.446,0,0,1-2.685,2.535,8.7,8.7,0,0,1-4.05.9,6.688,6.688,0,0,1-4.08-1.155,5.464,5.464,0,0,1-2.04-3.4,1.607,1.607,0,0,1,1.56-1.05,1.367,1.367,0,0,1,1.1.435,4.22,4.22,0,0,1,.675,1.635l.54,1.98a7.1,7.1,0,0,0,2.07.3,4.589,4.589,0,0,0,3.675-1.515,6.157,6.157,0,0,0,1.3-4.155,5.466,5.466,0,0,0-1.38-3.99,5.046,5.046,0,0,0-3.78-1.41,11.42,11.42,0,0,0-3.15.42l-.84-.24.69-10.26h10.74V6.59h-9.48ZM30,4.01h13.35V5.63L35.585,26h-2.52l-.3-.3,8.76-19.11H30Zm21.96,22.8-.9-.72L66.395,4.01l.9.69Zm-.27-22.5a3.763,3.763,0,0,1,2.25.735,5.084,5.084,0,0,1,1.65,2.265,10.143,10.143,0,0,1,.63,3.84,10.049,10.049,0,0,1-.63,3.81,4.978,4.978,0,0,1-1.65,2.25,3.816,3.816,0,0,1-2.25.72,3.883,3.883,0,0,1-2.265-.72,4.928,4.928,0,0,1-1.665-2.25,10.049,10.049,0,0,1-.63-3.81,10.143,10.143,0,0,1,.63-3.84A5.032,5.032,0,0,1,49.43,5.045,3.829,3.829,0,0,1,51.695,4.31Zm-2.31,6.84q0,5.82,2.31,5.82,2.25,0,2.25-5.82A11.6,11.6,0,0,0,53.33,6.6,1.852,1.852,0,0,0,51.695,5.33,1.9,1.9,0,0,0,50.015,6.6,11.348,11.348,0,0,0,49.385,11.15Zm16.89,1.56a3.816,3.816,0,0,1,2.25.72,4.978,4.978,0,0,1,1.65,2.25,10.143,10.143,0,0,1,.63,3.84,10.049,10.049,0,0,1-.63,3.81,4.978,4.978,0,0,1-1.65,2.25,3.816,3.816,0,0,1-2.25.72,3.883,3.883,0,0,1-2.265-.72,4.928,4.928,0,0,1-1.665-2.25,10.049,10.049,0,0,1-.63-3.81,10.143,10.143,0,0,1,.63-3.84,4.928,4.928,0,0,1,1.665-2.25A3.883,3.883,0,0,1,66.275,12.71Zm-2.31,6.81q0,5.82,2.31,5.82,2.28,0,2.28-5.82t-2.28-5.82Q63.965,13.7,63.965,19.52Z" transform="translate(1397 891)" fill="#9f7f8e"/>
    <path id="パス_99" data-name="パス 99" d="M27.815,17.24v1.92h-3.48V26h-2.64V19.16h-8.91V17.57l9.72-13.89h1.83V17.24Zm-13.38,0h7.26V6.77ZM33.785,6.95a3.633,3.633,0,0,1-.69,1.515,1.5,1.5,0,0,1-1.17.465A1.537,1.537,0,0,1,30.4,7.79a4.684,4.684,0,0,1,2.1-3.15,7.33,7.33,0,0,1,4.05-1.08,6.637,6.637,0,0,1,4.53,1.47,4.927,4.927,0,0,1,1.68,3.9,5.011,5.011,0,0,1-1.215,3.33A7.123,7.123,0,0,1,38.1,14.39a6.727,6.727,0,0,1,4.005,1.995,5.531,5.531,0,0,1,1.335,3.8,5.7,5.7,0,0,1-.93,3.21,6.358,6.358,0,0,1-2.6,2.22,8.639,8.639,0,0,1-3.825.81A7.3,7.3,0,0,1,31.9,25.3a5.131,5.131,0,0,1-2.1-3.435,1.711,1.711,0,0,1,1.59-1.05,1.331,1.331,0,0,1,1.11.495,4.673,4.673,0,0,1,.69,1.665l.54,1.95a7.087,7.087,0,0,0,1.89.24,4.785,4.785,0,0,0,3.63-1.38,5.074,5.074,0,0,0,1.32-3.66,4.98,4.98,0,0,0-1.305-3.66,5.105,5.105,0,0,0-3.795-1.32H33.9V13.67h1.29a4.95,4.95,0,0,0,3.51-1.2,4.4,4.4,0,0,0,1.29-3.39A4.314,4.314,0,0,0,38.93,5.945,4.013,4.013,0,0,0,35.915,4.85a6.555,6.555,0,0,0-1.59.18Zm18.18,19.86-.9-.72L66.395,4.01l.9.69Zm-.27-22.5a3.763,3.763,0,0,1,2.25.735,5.084,5.084,0,0,1,1.65,2.265,10.143,10.143,0,0,1,.63,3.84,10.049,10.049,0,0,1-.63,3.81,4.978,4.978,0,0,1-1.65,2.25,3.816,3.816,0,0,1-2.25.72,3.883,3.883,0,0,1-2.265-.72,4.928,4.928,0,0,1-1.665-2.25,10.049,10.049,0,0,1-.63-3.81,10.143,10.143,0,0,1,.63-3.84A5.032,5.032,0,0,1,49.43,5.045,3.829,3.829,0,0,1,51.695,4.31Zm-2.31,6.84q0,5.82,2.31,5.82,2.25,0,2.25-5.82A11.6,11.6,0,0,0,53.33,6.6,1.852,1.852,0,0,0,51.695,5.33,1.9,1.9,0,0,0,50.015,6.6,11.348,11.348,0,0,0,49.385,11.15Zm16.89,1.56a3.816,3.816,0,0,1,2.25.72,4.978,4.978,0,0,1,1.65,2.25,10.143,10.143,0,0,1,.63,3.84,10.049,10.049,0,0,1-.63,3.81,4.978,4.978,0,0,1-1.65,2.25,3.816,3.816,0,0,1-2.25.72,3.883,3.883,0,0,1-2.265-.72,4.928,4.928,0,0,1-1.665-2.25,10.049,10.049,0,0,1-.63-3.81,10.143,10.143,0,0,1,.63-3.84,4.928,4.928,0,0,1,1.665-2.25A3.883,3.883,0,0,1,66.275,12.71Zm-2.31,6.81q0,5.82,2.31,5.82,2.28,0,2.28-5.82t-2.28-5.82Q63.965,13.7,63.965,19.52Z" transform="translate(1283 859)" fill="#9f7f8e"/>
    <path id="パス_96" data-name="パス 96" d="M13.26,6.54q0,.12-.44.3a2.262,2.262,0,0,1-.86.18h-.24V1.58l1.7.72H24.68l.8-.84,1.7,1.3a.921.921,0,0,1-.3.22,1.2,1.2,0,0,1-.44.12V6.38q-.02.1-.49.27a2.485,2.485,0,0,1-.83.17h-.26V6.1H13.26Zm2.8-3.64h-2.8V5.5h2.8Zm4.38,0H17.6V5.5h2.84Zm4.42,0H21.98V5.5h2.88ZM23.28,16.44V15.7H14.84v.52q0,.14-.44.34a2.111,2.111,0,0,1-.88.2h-.26V6.88l1.7.74H23.1l.82-.86,1.72,1.3a1.357,1.357,0,0,1-.76.38v7.5q-.02.12-.5.31a2.335,2.335,0,0,1-.84.19Zm0-8.24H14.84v1.9h8.44Zm0,4.4V10.68H14.84V12.6Zm-8.44,2.5h8.44V13.16H14.84Zm-4.66,4.16a21.115,21.115,0,0,0,3.65-1.38,15.9,15.9,0,0,0,2.93-1.74l1.96,1.4a.682.682,0,0,1-.5.16,2.118,2.118,0,0,1-.54-.08,18.99,18.99,0,0,1-3.35,1.18,29.2,29.2,0,0,1-4.03.78ZM20.24,16.6a22.926,22.926,0,0,1,4.13.53,7.144,7.144,0,0,1,2.23.85q.66.46.66.92a.6.6,0,0,1-.27.5,1.1,1.1,0,0,1-.67.2,1.3,1.3,0,0,1-.82-.28,12.593,12.593,0,0,0-2.22-1.31,16.664,16.664,0,0,0-3.1-1.09Zm12.52,2.56-.08-.48q7.12-1.36,7.2-5.36a4.265,4.265,0,0,0-.6-2.16,2.253,2.253,0,0,0-1.96-1.12,12.361,12.361,0,0,0-6,1.86,1.033,1.033,0,0,1-.1.6.68.68,0,0,1-.32.26l-.68-2.34a24.954,24.954,0,0,1,7.1-1.1,4.9,4.9,0,0,1,3.24,1.16,3.733,3.733,0,0,1,1.32,2.84Q41.92,18.48,32.76,19.16ZM39.1,6.86a15.133,15.133,0,0,0-2.83-.65,27.506,27.506,0,0,0-4.07-.27l-.04-.44a14.189,14.189,0,0,1,4.14-.87,8.818,8.818,0,0,1,2.7.35,1.806,1.806,0,0,1,.99.56.833.833,0,0,1,.11.82.746.746,0,0,1-.36.42A1,1,0,0,1,39.1,6.86Zm7.14-5.52a5.409,5.409,0,0,1,2.52.87,1.721,1.721,0,0,1,.82,1.31.833.833,0,0,1-.23.6.758.758,0,0,1-.57.24,1.085,1.085,0,0,1-.58-.16,4.816,4.816,0,0,0-.86-1.43A8.5,8.5,0,0,0,46.06,1.5Zm17.12,8.82a.4.4,0,0,1-.32.14,1.027,1.027,0,0,1-.32-.06,26.015,26.015,0,0,1-3.2,1.9q1.46,4.24,4.02,5.86l-.04.2a1.634,1.634,0,0,0-.78.49,2.456,2.456,0,0,0-.52.95,10.468,10.468,0,0,1-2.9-4.77A36.25,36.25,0,0,1,58,7.3l-1.68.2V18.94q0,.12-.37.29a2.067,2.067,0,0,1-.87.17h-.22V7.64q-1.1.08-2.22.12v.88a27.982,27.982,0,0,1-.27,4.03,12.364,12.364,0,0,1-1.17,3.68,9.542,9.542,0,0,1-2.64,3.23l-.28-.26a11.337,11.337,0,0,0,2.27-4.72,28.107,28.107,0,0,0,.57-5.98V2.76l1.94.8q2.12-.44,4.23-1.06A34.639,34.639,0,0,0,60.7,1.34L62.44,2.9a.667.667,0,0,1-.44.12,2.241,2.241,0,0,1-.66-.12q-1.76.38-4.12.72t-4.58.5v3.2q2.24-.36,4.57-.97a28.65,28.65,0,0,0,3.71-1.19L62.6,6.74a.631.631,0,0,1-.42.12,1.836,1.836,0,0,1-.66-.14q-1.44.28-3.12.52a27.214,27.214,0,0,0,.94,4.36,22.738,22.738,0,0,0,2.22-2.66ZM50.54,4.84q-2.22,6.58-2.62,8.04a6.594,6.594,0,0,0-.3,1.78,2.49,2.49,0,0,0,.11.71q.11.37.13.45a10.393,10.393,0,0,1,.27,1.15,6.048,6.048,0,0,1,.07,1.19,1.814,1.814,0,0,1-.36,1.07,1.077,1.077,0,0,1-.88.39.608.608,0,0,1-.5-.26,1.511,1.511,0,0,1-.26-.74,14.307,14.307,0,0,0,.18-2.14,5.523,5.523,0,0,0-.12-1.26,1.088,1.088,0,0,0-.32-.64,1.121,1.121,0,0,0-.41-.2,4.3,4.3,0,0,0-.57-.1v-.42h.88a.475.475,0,0,0,.29-.07,1.133,1.133,0,0,0,.23-.35q.28-.54,1.05-2.31t2.77-6.39Zm-5.7.96a4.851,4.851,0,0,1,2.31.81,1.62,1.62,0,0,1,.75,1.23.854.854,0,0,1-.22.6.726.726,0,0,1-.56.24,1.145,1.145,0,0,1-.6-.2,3.629,3.629,0,0,0-.7-1.33,6.652,6.652,0,0,0-1.16-1.17Z" transform="translate(1400 928)" fill="#9f7f8e"/>
    <path id="パス_98" data-name="パス 98" d="M16.58,1.94q-.14.4-.76.38a29.145,29.145,0,0,1-1.94,4.2l.84.32q-.1.28-.58.34v11.9q-.04.12-.47.32a2.045,2.045,0,0,1-.87.2h-.28V8.68a18.589,18.589,0,0,1-2.38,2.74l-.28-.2a25.8,25.8,0,0,0,2.48-4.54,33.393,33.393,0,0,0,1.86-5.5ZM26.94,6.8q1.14.96,1.74,1.58-.08.32-.5.32H15.24l-.16-.58h3.38V4.98H16l-.16-.58h2.62V1.3l2.2.22a.563.563,0,0,1-.18.34.971.971,0,0,1-.44.18V4.4h3.12V1.3l2.22.22a.563.563,0,0,1-.18.34,1.029,1.029,0,0,1-.48.18V4.4h.72l.92-1.32a22.686,22.686,0,0,1,1.76,1.58q-.06.32-.54.32H24.72V8.12H26Zm-6.9-1.82V8.12h3.12V4.98Zm7.2,6.08a1.472,1.472,0,0,1-.84.42v7.46q-.04.12-.51.31a2.3,2.3,0,0,1-.85.19H24.8v-1.1H18.74v.7q0,.14-.43.34a2.088,2.088,0,0,1-.89.2h-.26V9.86l1.7.76H24.6l.84-.94Zm-2.44.12H18.74v2.86H24.8Zm-6.06,6.56H24.8V14.62H18.74Zm14.7,1.66L33.2,19q6.56-1.76,6.56-7.6a15.752,15.752,0,0,0-.44-3.96q-.44-1.68-1.8-1.72-2.48.04-4.2,6.7.04.86.1,1.72-1.62.94-1.62.34a51.359,51.359,0,0,1,.3-10.86l2.34.52a.7.7,0,0,1-.23.32.984.984,0,0,1-.57.16,46.284,46.284,0,0,0-.34,5.94q1.52-5.88,4.22-5.88a3.583,3.583,0,0,1,3.14,1.44q1.1,1.48,1.02,5.28Q41.6,18.24,33.44,19.4Zm18.28-.08a4.811,4.811,0,0,1-2.86-.93,2.583,2.583,0,0,1-1.22-1.89,2.2,2.2,0,0,1,.88-1.76,3.6,3.6,0,0,1,2.24-.64q1.94.04,3.86,3.28l.12-.16A4.883,4.883,0,0,0,55.8,14.1a3.909,3.909,0,0,0-.74-2.32,2.416,2.416,0,0,0-1.98-1.08,8.645,8.645,0,0,0-5.14,1.76l-.98.88a1.11,1.11,0,0,1-1.06-.07q-.66-.31.04-.93l7.46-6.8H47.36l-.18-.62h6.34l1.1-.98,1.72,1.6a.659.659,0,0,1-.32.2,2.136,2.136,0,0,1-.58.06l-5.32,4.74a7.728,7.728,0,0,1,2.96-.66,5.006,5.006,0,0,1,3.24,1.16,4.034,4.034,0,0,1,1.4,3.06,4.357,4.357,0,0,1-1.86,3.89A7.07,7.07,0,0,1,51.72,19.32Zm.08-.74a3.98,3.98,0,0,0,1.68-.34q-1.18-3.38-2.72-3.38a2.049,2.049,0,0,0-1.34.41,1.5,1.5,0,0,0-.5,1.23,1.872,1.872,0,0,0,.76,1.37A3.25,3.25,0,0,0,51.8,18.58ZM61.96,1.34a5.409,5.409,0,0,1,2.52.87,1.721,1.721,0,0,1,.82,1.31.833.833,0,0,1-.23.6.758.758,0,0,1-.57.24,1.085,1.085,0,0,1-.58-.16,4.816,4.816,0,0,0-.86-1.43A8.5,8.5,0,0,0,61.78,1.5Zm17.12,8.82a.4.4,0,0,1-.32.14,1.028,1.028,0,0,1-.32-.06,26.016,26.016,0,0,1-3.2,1.9Q76.7,16.38,79.26,18l-.04.2a1.634,1.634,0,0,0-.78.49,2.456,2.456,0,0,0-.52.95,10.468,10.468,0,0,1-2.9-4.77,36.251,36.251,0,0,1-1.3-7.57l-1.68.2V18.94q0,.12-.37.29a2.067,2.067,0,0,1-.87.17h-.22V7.64q-1.1.08-2.22.12v.88a27.982,27.982,0,0,1-.27,4.03,12.364,12.364,0,0,1-1.17,3.68,9.542,9.542,0,0,1-2.64,3.23L64,19.32a11.337,11.337,0,0,0,2.27-4.72,28.108,28.108,0,0,0,.57-5.98V2.76l1.94.8q2.12-.44,4.23-1.06a34.64,34.64,0,0,0,3.41-1.16L78.16,2.9a.667.667,0,0,1-.44.12,2.241,2.241,0,0,1-.66-.12q-1.76.38-4.12.72t-4.58.5v3.2q2.24-.36,4.57-.97a28.65,28.65,0,0,0,3.71-1.19l1.68,1.58a.631.631,0,0,1-.42.12,1.836,1.836,0,0,1-.66-.14q-1.44.28-3.12.52a27.214,27.214,0,0,0,.94,4.36,22.738,22.738,0,0,0,2.22-2.66ZM66.26,4.84q-2.22,6.58-2.62,8.04a6.594,6.594,0,0,0-.3,1.78,2.49,2.49,0,0,0,.11.71q.11.37.13.45a10.393,10.393,0,0,1,.27,1.15,6.048,6.048,0,0,1,.07,1.19,1.814,1.814,0,0,1-.36,1.07,1.077,1.077,0,0,1-.88.39.608.608,0,0,1-.5-.26,1.511,1.511,0,0,1-.26-.74,14.307,14.307,0,0,0,.18-2.14,5.523,5.523,0,0,0-.12-1.26,1.088,1.088,0,0,0-.32-.64,1.121,1.121,0,0,0-.41-.2,4.3,4.3,0,0,0-.57-.1v-.42h.88a.475.475,0,0,0,.29-.07,1.133,1.133,0,0,0,.23-.35q.28-.54,1.05-2.31T65.9,4.74Zm-5.7.96a4.851,4.851,0,0,1,2.31.81,1.62,1.62,0,0,1,.75,1.23.854.854,0,0,1-.22.6.726.726,0,0,1-.56.24,1.145,1.145,0,0,1-.6-.2,3.629,3.629,0,0,0-.7-1.33,6.652,6.652,0,0,0-1.16-1.17Z" transform="translate(1281 899)" fill="#9f7f8e"/>
  </g>
</svg>
