<svg xmlns="http://www.w3.org/2000/svg" width="71" height="25.82" viewBox="0 0 71 25.82">
  <g id="グループ_67" data-name="グループ 67" transform="translate(-1025 -759.18)">
    <path id="パス_100" data-name="パス 100" d="M7.3,1.94q-.14.4-.76.38A29.145,29.145,0,0,1,4.6,6.52l.84.32q-.1.28-.58.34v11.9q-.04.12-.47.32a2.045,2.045,0,0,1-.87.2H3.24V8.68A18.589,18.589,0,0,1,.86,11.42l-.28-.2A25.8,25.8,0,0,0,3.06,6.68a33.393,33.393,0,0,0,1.86-5.5ZM17.66,6.8q1.14.96,1.74,1.58-.08.32-.5.32H5.96L5.8,8.12H9.18V4.98H6.72L6.56,4.4H9.18V1.3l2.2.22a.563.563,0,0,1-.18.34.971.971,0,0,1-.44.18V4.4h3.12V1.3l2.22.22a.563.563,0,0,1-.18.34,1.029,1.029,0,0,1-.48.18V4.4h.72l.92-1.32a22.686,22.686,0,0,1,1.76,1.58q-.06.32-.54.32H15.44V8.12h1.28Zm-6.9-1.82V8.12h3.12V4.98Zm7.2,6.08a1.472,1.472,0,0,1-.84.42v7.46q-.04.12-.51.31a2.3,2.3,0,0,1-.85.19h-.24v-1.1H9.46v.7q0,.14-.43.34a2.088,2.088,0,0,1-.89.2H7.88V9.86l1.7.76h5.74l.84-.94Zm-2.44.12H9.46v2.86h6.06ZM9.46,17.74h6.06V14.62H9.46Zm14.7,1.66-.24-.4q6.56-1.76,6.56-7.6a15.752,15.752,0,0,0-.44-3.96q-.44-1.68-1.8-1.72-2.48.04-4.2,6.7.04.86.1,1.72-1.62.94-1.62.34a51.359,51.359,0,0,1,.3-10.86l2.34.52a.7.7,0,0,1-.23.32.984.984,0,0,1-.57.16,46.284,46.284,0,0,0-.34,5.94q1.52-5.88,4.22-5.88a3.583,3.583,0,0,1,3.14,1.44q1.1,1.48,1.02,5.28Q32.32,18.24,24.16,19.4Zm18.28-.08a4.811,4.811,0,0,1-2.86-.93,2.583,2.583,0,0,1-1.22-1.89,2.2,2.2,0,0,1,.88-1.76,3.6,3.6,0,0,1,2.24-.64q1.94.04,3.86,3.28l.12-.16a4.883,4.883,0,0,0,1.06-3.12,3.909,3.909,0,0,0-.74-2.32A2.416,2.416,0,0,0,43.8,10.7a8.645,8.645,0,0,0-5.14,1.76l-.98.88a1.11,1.11,0,0,1-1.06-.07q-.66-.31.04-.93l7.46-6.8H38.08l-.18-.62h6.34l1.1-.98,1.72,1.6a.659.659,0,0,1-.32.2,2.136,2.136,0,0,1-.58.06l-5.32,4.74a7.728,7.728,0,0,1,2.96-.66,5.006,5.006,0,0,1,3.24,1.16,4.034,4.034,0,0,1,1.4,3.06,4.357,4.357,0,0,1-1.86,3.89A7.07,7.07,0,0,1,42.44,19.32Zm.08-.74a3.98,3.98,0,0,0,1.68-.34q-1.18-3.38-2.72-3.38a2.049,2.049,0,0,0-1.34.41,1.5,1.5,0,0,0-.5,1.23,1.872,1.872,0,0,0,.76,1.37A3.25,3.25,0,0,0,42.52,18.58ZM52.68,1.34a5.409,5.409,0,0,1,2.52.87,1.721,1.721,0,0,1,.82,1.31.833.833,0,0,1-.23.6.758.758,0,0,1-.57.24,1.085,1.085,0,0,1-.58-.16,4.816,4.816,0,0,0-.86-1.43A8.5,8.5,0,0,0,52.5,1.5ZM69.8,10.16a.4.4,0,0,1-.32.14,1.028,1.028,0,0,1-.32-.06,26.016,26.016,0,0,1-3.2,1.9q1.46,4.24,4.02,5.86l-.04.2a1.634,1.634,0,0,0-.78.49,2.456,2.456,0,0,0-.52.95,10.468,10.468,0,0,1-2.9-4.77,36.251,36.251,0,0,1-1.3-7.57l-1.68.2V18.94q0,.12-.37.29a2.067,2.067,0,0,1-.87.17H61.3V7.64q-1.1.08-2.22.12v.88a27.982,27.982,0,0,1-.27,4.03,12.364,12.364,0,0,1-1.17,3.68A9.542,9.542,0,0,1,55,19.58l-.28-.26a11.337,11.337,0,0,0,2.27-4.72,28.107,28.107,0,0,0,.57-5.98V2.76l1.94.8q2.12-.44,4.23-1.06a34.64,34.64,0,0,0,3.41-1.16L68.88,2.9a.667.667,0,0,1-.44.12,2.241,2.241,0,0,1-.66-.12q-1.76.38-4.12.72t-4.58.5v3.2q2.24-.36,4.57-.97a28.65,28.65,0,0,0,3.71-1.19l1.68,1.58a.631.631,0,0,1-.42.12,1.836,1.836,0,0,1-.66-.14q-1.44.28-3.12.52a27.214,27.214,0,0,0,.94,4.36A22.738,22.738,0,0,0,68,8.94ZM56.98,4.84q-2.22,6.58-2.62,8.04a6.594,6.594,0,0,0-.3,1.78,2.49,2.49,0,0,0,.11.71q.11.37.13.45a10.393,10.393,0,0,1,.27,1.15,6.048,6.048,0,0,1,.07,1.19,1.814,1.814,0,0,1-.36,1.07,1.077,1.077,0,0,1-.88.39.608.608,0,0,1-.5-.26,1.511,1.511,0,0,1-.26-.74,14.307,14.307,0,0,0,.18-2.14,5.523,5.523,0,0,0-.12-1.26,1.088,1.088,0,0,0-.32-.64,1.121,1.121,0,0,0-.41-.2,4.3,4.3,0,0,0-.57-.1v-.42h.88a.475.475,0,0,0,.29-.07,1.133,1.133,0,0,0,.23-.35q.28-.54,1.05-2.31t2.77-6.39Zm-5.7.96a4.851,4.851,0,0,1,2.31.81,1.62,1.62,0,0,1,.75,1.23.854.854,0,0,1-.22.6.726.726,0,0,1-.56.24,1.145,1.145,0,0,1-.6-.2,3.629,3.629,0,0,0-.7-1.33A6.652,6.652,0,0,0,51.1,5.98Z" transform="translate(1025 758)" fill="#9f7f8e"/>
    <path id="パス_101" data-name="パス 101" d="M0,0H71" transform="translate(1025 784)" fill="none" stroke="#e1eff4" stroke-width="2"/>
  </g>
</svg>
