<svg xmlns="http://www.w3.org/2000/svg" xmlns:xlink="http://www.w3.org/1999/xlink" width="341.298" height="111.768" viewBox="0 0 341.298 111.768">
  <defs>
    <clipPath id="clip-path">
      <rect id="長方形_98" data-name="長方形 98" width="104.116" height="111.768" fill="none"/>
    </clipPath>
  </defs>
  <g id="グループ_79" data-name="グループ 79" transform="translate(-1128.942 -215.268)">
    <path id="パス_229" data-name="パス 229" d="M14.6,2.88q-.28.8-1.52.76a58.29,58.29,0,0,1-3.88,8.4l1.68.64q-.2.56-1.16.68v23.8q-.08.24-.94.64a4.09,4.09,0,0,1-1.74.4H6.48V16.36a37.178,37.178,0,0,1-4.76,5.48l-.56-.4a51.6,51.6,0,0,0,4.96-9.08,66.786,66.786,0,0,0,3.72-11ZM35.32,12.6q2.28,1.92,3.48,3.16-.16.64-1,.64H11.92l-.32-1.16h6.76V8.96H13.44L13.12,7.8h5.24V1.6l4.4.44a1.126,1.126,0,0,1-.36.68,1.943,1.943,0,0,1-.88.36V7.8h6.24V1.6l4.44.44a1.126,1.126,0,0,1-.36.68,2.058,2.058,0,0,1-.96.36V7.8h1.44l1.84-2.64a45.373,45.373,0,0,1,3.52,3.16q-.12.64-1.08.64H30.88v6.28h2.56ZM21.52,8.96v6.28h6.24V8.96Zm14.4,12.16a2.943,2.943,0,0,1-1.68.84V36.88q-.08.24-1.02.62a4.592,4.592,0,0,1-1.7.38h-.48v-2.2H18.92v1.4q0,.28-.86.68a4.175,4.175,0,0,1-1.78.4h-.52V18.72l3.4,1.52H30.64l1.68-1.88Zm-4.88.24H18.92v5.72H31.04ZM18.92,34.48H31.04V28.24H18.92Zm29.4,3.32-.48-.8q13.12-3.52,13.12-15.2a31.5,31.5,0,0,0-.88-7.92q-.88-3.36-3.6-3.44-4.96.08-8.4,13.4.08,1.72.2,3.44-3.24,1.88-3.24.68a102.718,102.718,0,0,1,.6-21.72l4.68,1.04a1.4,1.4,0,0,1-.46.64,1.969,1.969,0,0,1-1.14.32,92.567,92.567,0,0,0-.68,11.88Q51.08,8.36,56.48,8.36a7.166,7.166,0,0,1,6.28,2.88q2.2,2.96,2.04,10.56Q64.64,35.48,48.32,37.8Zm36.56-.16a9.622,9.622,0,0,1-5.72-1.86Q76.8,34,76.72,32a4.394,4.394,0,0,1,1.76-3.52,7.207,7.207,0,0,1,4.48-1.28q3.88.08,7.72,6.56l.24-.32a9.766,9.766,0,0,0,2.12-6.24,7.817,7.817,0,0,0-1.48-4.64A4.832,4.832,0,0,0,87.6,20.4a17.291,17.291,0,0,0-10.28,3.52l-1.96,1.76a2.219,2.219,0,0,1-2.12-.14q-1.32-.62.08-1.86l14.92-13.6H76.16L75.8,8.84H88.48l2.2-1.96,3.44,3.2a1.318,1.318,0,0,1-.64.4,4.273,4.273,0,0,1-1.16.12L81.68,20.08a15.455,15.455,0,0,1,5.92-1.32,10.012,10.012,0,0,1,6.48,2.32,8.069,8.069,0,0,1,2.8,6.12,8.714,8.714,0,0,1-3.72,7.78A14.141,14.141,0,0,1,84.88,37.64Zm.16-1.48a7.961,7.961,0,0,0,3.36-.68q-2.36-6.76-5.44-6.76a4.1,4.1,0,0,0-2.68.82,3,3,0,0,0-1,2.46,3.745,3.745,0,0,0,1.52,2.74A6.5,6.5,0,0,0,85.04,36.16ZM105.36,1.68a10.818,10.818,0,0,1,5.04,1.74,3.443,3.443,0,0,1,1.64,2.62,1.666,1.666,0,0,1-.46,1.2,1.515,1.515,0,0,1-1.14.48,2.169,2.169,0,0,1-1.16-.32,9.633,9.633,0,0,0-1.72-2.86A17.008,17.008,0,0,0,105,2ZM139.6,19.32a.8.8,0,0,1-.64.28,2.055,2.055,0,0,1-.64-.12,52.031,52.031,0,0,1-6.4,3.8q2.92,8.48,8.04,11.72l-.08.4a3.267,3.267,0,0,0-1.56.98,4.912,4.912,0,0,0-1.04,1.9,20.936,20.936,0,0,1-5.8-9.54,72.5,72.5,0,0,1-2.6-15.14l-3.36.4V36.88q0,.24-.74.58a4.134,4.134,0,0,1-1.74.34h-.44V14.28q-2.2.16-4.44.24v1.76a55.963,55.963,0,0,1-.54,8.06,24.727,24.727,0,0,1-2.34,7.36A19.084,19.084,0,0,1,110,38.16l-.56-.52a22.673,22.673,0,0,0,4.54-9.44,56.215,56.215,0,0,0,1.14-11.96V4.52L119,6.12q4.24-.88,8.46-2.12a69.28,69.28,0,0,0,6.82-2.32l3.48,3.12a1.335,1.335,0,0,1-.88.24,4.482,4.482,0,0,1-1.32-.24q-3.52.76-8.24,1.44t-9.16,1v6.4q4.48-.72,9.14-1.94a57.3,57.3,0,0,0,7.42-2.38l3.36,3.16a1.263,1.263,0,0,1-.84.24,3.672,3.672,0,0,1-1.32-.28q-2.88.56-6.24,1.04a54.428,54.428,0,0,0,1.88,8.72A45.476,45.476,0,0,0,136,16.88ZM113.96,8.68q-4.44,13.16-5.24,16.08a13.188,13.188,0,0,0-.6,3.56,4.979,4.979,0,0,0,.22,1.42q.22.74.26.9a20.787,20.787,0,0,1,.54,2.3,12.1,12.1,0,0,1,.14,2.38,3.628,3.628,0,0,1-.72,2.14,2.153,2.153,0,0,1-1.76.78,1.216,1.216,0,0,1-1-.52,3.021,3.021,0,0,1-.52-1.48,28.614,28.614,0,0,0,.36-4.28,11.047,11.047,0,0,0-.24-2.52,2.176,2.176,0,0,0-.64-1.28,2.241,2.241,0,0,0-.82-.4,8.591,8.591,0,0,0-1.14-.2v-.84h1.76a.951.951,0,0,0,.58-.14,2.266,2.266,0,0,0,.46-.7q.56-1.08,2.1-4.62t5.54-12.78Zm-11.4,1.92a9.7,9.7,0,0,1,4.62,1.62,3.24,3.24,0,0,1,1.5,2.46,1.708,1.708,0,0,1-.44,1.2,1.453,1.453,0,0,1-1.12.48,2.289,2.289,0,0,1-1.2-.4,7.257,7.257,0,0,0-1.4-2.66,13.3,13.3,0,0,0-2.32-2.34ZM159,35.72q8.32-2.52,8.32-12.6,0-5.92-2.36-9.48a6.7,6.7,0,0,0-2.8-2.3,9.793,9.793,0,0,0-4.28-.9,9.318,9.318,0,0,0-4.62,1.22,9.161,9.161,0,0,0-3.38,3.14A17.768,17.768,0,0,0,147.4,25a17.7,17.7,0,0,0,.9,5.3q.82,2.38,2.46,2.38,2.44,0,3.7-4.74t1.42-15.06l4.76.52q-.08.92-1.48,1.12a65.255,65.255,0,0,1-1.28,11.72q-1,4.32-2.7,6.14a5.34,5.34,0,0,1-4.26,1.74q-2.44.16-4.44-2.8a12.8,12.8,0,0,1-2.12-7.44,15.467,15.467,0,0,1,1.96-7.9,13.943,13.943,0,0,1,5.04-5.18A12.378,12.378,0,0,1,157.68,9a14.6,14.6,0,0,1,7.04,1.62,11.136,11.136,0,0,1,4.64,4.74A15.793,15.793,0,0,1,171,22.8q0,11.28-11.84,13.88ZM208.24,3.2q2.52,1.88,4,3.08-.16.64-1.08.64H196.04v4.6h8.52l2.16-2.6q2.48,1.88,3.88,3.16-.16.64-1.08.64H179.6l-.32-1.2H192.8V6.92H177.08l-.36-1.16H192.8V1.36l4.68.44q-.12.92-1.44,1.08V5.76h10ZM209,17.28a2.44,2.44,0,0,1-1.52.76v9.44q-.04.2-1.02.54a5.312,5.312,0,0,1-1.7.34h-.48V25.68H184.44a18.7,18.7,0,0,1-2.18,7.1,14.723,14.723,0,0,1-5.82,5.58l-.44-.48a15.9,15.9,0,0,0,4.32-6.94,30.471,30.471,0,0,0,1.12-8.58V14.88l3.68,1.52h18.8l1.6-1.76Zm-24.4,5.08q0,1.44-.08,2.2h8.36V17.52H184.6Zm11.4,2.2h8.28V17.52H196Z" transform="translate(1258 264.037)" fill="#9f7f8e"/>
    <path id="パス_230" data-name="パス 230" d="M13,19.372a5.246,5.246,0,0,0-1.116.522c-.378.18-.774.306-1.134.522a7.265,7.265,0,0,0-1.638.432h-1.3c-.108-.18-.486-.09-.522-.342-.288-.036-.378-.252-.594-.36-.144-.45-.612-.936-.612-1.548a3.518,3.518,0,0,1,.18-.774c.036-.072.162-.072.162-.18.018-.108.252-.18.27-.252a13.765,13.765,0,0,1,2.07-.09,12.027,12.027,0,0,0,2.754-1.026,4.316,4.316,0,0,1,.7-.7,8.175,8.175,0,0,1,.684-.684c.162-.432.54-.828.774-1.386a7.764,7.764,0,0,0,.27-.774,6.462,6.462,0,0,0,.252-.864,3.72,3.72,0,0,0-.522-2.43A2.348,2.348,0,0,0,12.474,9c-.18.072-.288.234-.594.18-.468.36-1.008.612-1.476.954a10.875,10.875,0,0,0-1.3,1.116,4.431,4.431,0,0,0-.864.774c-.576.5-.972,1.152-1.548,1.638-.18.378-.54.576-.792.882-.036.054-.036.2-.072.252a.217.217,0,0,0-.09.09,1.392,1.392,0,0,0-.432.684c-.324.108-.36.342-.522.522a4.764,4.764,0,0,1-.522.522c-.216.468-.648.738-.864,1.206-.432.306-.7.792-1.206,1.026a4.083,4.083,0,0,1-.612.882,1.162,1.162,0,0,0-.162.342c-.018.018-.162.054-.18.072-.072.126-.126.306-.162.36a1.5,1.5,0,0,0-.27.342c-.108.18-.162.306-.252.432a1.483,1.483,0,0,0-.432,1.386,1.1,1.1,0,0,0,1.116-.432c.036-.036-.018-.144,0-.18.054-.108.288-.27.342-.342a2.458,2.458,0,0,0,.36-.612c.342-.234.468-.666.774-.954.234-.36.648-.54.684-1.116.342-.09.378-.486.7-.594.108-.126.054-.414.162-.522.576-.594,1.332-1.188,1.818-1.728.054-.072.018-.2.09-.27.054-.054.2-.018.252-.09a9.157,9.157,0,0,0,.612-.846c.252-.288.72-.378.864-.792.072-.324-.378-.144-.27-.522.126-.072.126-.288.27-.342.216.036.072-.324.342-.252.54-.684,1.242-1.17,1.818-1.818a3.585,3.585,0,0,0,.594-.432c.36-.144.594-.432.954-.594a4.52,4.52,0,0,1,1.206-.36c-.018.162.108.18.18.27a2.076,2.076,0,0,1,.432,1.638c-.18.45-.36.9-.522,1.386a6,6,0,0,0-.684,1.206c-.27.054-.234.414-.522.432-.144.162-.2.432-.432.522a3.819,3.819,0,0,0-.774.5c-.432.054-.666.324-1.044.45a7.658,7.658,0,0,1-2.16.162c-.558-.054-.81.2-1.206.18-.018.162-.252.216-.342.342-.072.09-.036.162-.09.252-.036.09-.144.126-.18.18-.054.144-.018.414-.072.594-.018.036-.162.144-.18.18-.234.738.4,1.152.342,1.728a3.8,3.8,0,0,0,2.25,1.818c.4.054.756-.126,1.206,0a14.866,14.866,0,0,0,3.2-1.044,10.264,10.264,0,0,0,1.026-.612C13.212,20.038,13.158,19.138,13,19.372Zm8.766-.234a3.071,3.071,0,0,0-.684.234,4.314,4.314,0,0,0-.684.378,7.035,7.035,0,0,1-3.132,1.206h-.18a2.567,2.567,0,0,1-.954-.414c.414-.144.63-.468,1.044-.612.108-.234.36-.306.522-.5s.342-.576.594-.7c.054-.63.72-1.4.72-2.106.144-.162.108-.468.18-.594.036-.072.072-.036.072-.18a.788.788,0,0,0-.252-.774c-.594-.018-.846.306-1.476.252a3.919,3.919,0,0,1-1.3.792c-.252.414-.738.63-.936,1.116-.252.09-.342.36-.432.612-.216.09-.5.954-.558,1.134,0,.054-.072.09-.072.09a2.773,2.773,0,0,0,.072,1.224c-.036.324.108.81.522.864a4.673,4.673,0,0,0,2.862.666,8.5,8.5,0,0,0,4.014-1.944A3.654,3.654,0,0,0,21.762,19.138Zm-3.528-3.024c.072,0,.072.108.09.162a1.62,1.62,0,0,1-.36.864,10.671,10.671,0,0,1-1.566,2.2,3.736,3.736,0,0,1-.522.342,1.58,1.58,0,0,1-.7.18,6.342,6.342,0,0,1,1.152-2.538c.486-.216.774-.756,1.3-1.044C17.766,16.2,18,16.276,18.234,16.114Zm15.084,3.06c.018-.072.306-.18.468-.18.27-.018.468-.36.378-1.206a2.341,2.341,0,0,0-1.134.486c-.126.054-.378.27-.522.324a2.59,2.59,0,0,1-.45.4,1.827,1.827,0,0,1-.648.324,7.477,7.477,0,0,1-2,.882c-.2.054-.2.144-.432.162-.144.126-.432,0-.612.072-.2-.018-.378.414-.522.18.18-.108.09-.486.342-.522a2.885,2.885,0,0,0,.36-.612,5.71,5.71,0,0,0,1.044-1.692c.234-.054.18-.4.432-.432-.018-.342.378-.27.342-.612a1.022,1.022,0,0,0,.432-1.3c-.432-.234-1.17.126-1.476.27a13.7,13.7,0,0,1-1.476.864c-.09.054-.18.2-.27.252a4.255,4.255,0,0,1-.684.432c-.162.09-.234.234-.432.18-.09.216-.342.288-.432.522-.234-.072-.126.162-.288.162-.126-.036-.216.342-.27.09h.09c0-.09.126-.126,0-.18.216-.36.522-1.944.216-2.232-.432-.072-.63-.108-.756.2-.09.216-.414,1.728-.486,2.034a22.175,22.175,0,0,1-1.224,2.142,2.464,2.464,0,0,1-.522.684c-.144.27-.378.432-.342.864.234.324.342.036.792.09.2-.126.342-.306.522-.432.27-.054.234-.414.522-.432.378-.27.5-.738.9-.99a3.066,3.066,0,0,1,.54-.54,13.208,13.208,0,0,1,2.826-1.908c-.216.4-.774,1.458-.954,1.71a.853.853,0,0,1-.18.18c-.018.018.018.144,0,.162-.072.108-.2.18-.252.27a2.962,2.962,0,0,0-.18.342c-.036.072-.144.036-.162.09-.072.108,0,.18-.09.252-.036.018.018.144,0,.18a1.875,1.875,0,0,0-.27,1.026c.4.414,1.062.2,1.566.18.7-.432,1.53-.486,2.2-.954.324-.252.486-.18.792-.45.486-.216.558-.36.864-.468A7.449,7.449,0,0,0,33.318,19.174Zm8.244.7c-.252.036-.576-.018-.666.18a5.276,5.276,0,0,0-.522.09c-.162.072-.27.2-.414.27-.018,0-.486.234-.5.252a2.384,2.384,0,0,1-.99.4,3.8,3.8,0,0,1-2,.09c-.018-.018,0-.072-.072-.09a1.733,1.733,0,0,1-.522-.342c-.306-.666-.018-1.224.09-1.908.216-.126.216-.414.342-.594.108-.18.36-.288.342-.522.468-.288.432-.81.864-1.116.2-.54.666-.792.864-1.3.126-.054.45.09.432-.09.306-.36.738.036.954,0a2.227,2.227,0,0,0,.522-.18.615.615,0,0,0,.5,0c.594-.18.63.108,1.224-.162a2.5,2.5,0,0,0,.864.072c.486-.18.828-.036,1.206-.252.558.054.882-.108,1.386-.09-.018.018.36-.036.81-.072.216-.27-.09-.414-.306-.522-2,.162-4.122.252-6.12.432-.18-.054-.576.09-.612-.09.288-.99,1.044-1.494,1.476-2.34-.2-.162.09-.774-.27-.774-.594-.072-.558.468-.864.684-.324.468-.594.954-.954,1.386-.18.252-.558.54-.684.7-.054.072-.036.18-.09.252a.616.616,0,0,1-.342.252c-.864.09-1.692.216-2.592.27-.126.18-.522.108-.684.252-.162.162-.648,0-.612.342.18.594.918.324,1.476.27.4-.054.828-.144,1.026-.18.27-.036.576-.054.7.09A19.217,19.217,0,0,0,35.6,17.7c-.252.234-.378,1.026-.594,1.476a3.306,3.306,0,0,0-.18,1.368c.09.612.558.936.774,1.3.234.072.5.09.612.27a5.275,5.275,0,0,1,1.548.09,1.5,1.5,0,0,1,.522-.18c.378-.09.09.036.36-.036.162-.036.486-.144.594-.18.216-.054.234-.126.342-.162a1.709,1.709,0,0,1,.378-.162,4.9,4.9,0,0,0,.774-.45c.288-.144.486-.378.918-.576C41.49,20.254,41.832,20.092,41.562,19.876Zm17.982-9.612c-.126.144-.072.342-.27.432a4.662,4.662,0,0,0-2.358.936c-.09.054-.2.036-.27.09-.18.144-.342.4-.5.522a3.294,3.294,0,0,0-1.386,1.206.819.819,0,0,1-.522.342.651.651,0,0,1-.432.522.619.619,0,0,1-.342.522c-.468.486-.684,1.206-1.206,1.638v.072c0,.468-.45.846-.45,1.044,0,.036.018.09.018.144,0,.072-.18.27-.18.324v.108c0,.108-.162.054-.18.126a10.612,10.612,0,0,0-.432,2.592c.054.162.18.252.18.486v.108a9.784,9.784,0,0,0,.864.864c.594.054.936.342,1.548.36a2.207,2.207,0,0,0,1.224-.27h.2a1.528,1.528,0,0,0,1.008-.252,9.263,9.263,0,0,0,1.638-.522c.09-.036.108-.18.27-.18.072,0,.162.018.252.018a.2.2,0,0,0,.09-.018c.27-.468.99-.5,1.368-.864a6.687,6.687,0,0,1,1.566-.774c.162-.324.5-.378.684-.522-.144.072.522-.36.522-.486a.516.516,0,0,1,.2-.108h.054c.144,0,.054-.252.18-.27a.447.447,0,0,0,.144.018c.288,0,.27-.324.54-.36.234-.108.306-.4.612-.432.054-.324.342-.468.522-.684.18-.234.324-.468.522-.7a9.341,9.341,0,0,0,.45-2.52,5.543,5.543,0,0,0-.072-.918c-.144-.216-.36-.36-.36-.7v-.072a1.046,1.046,0,0,1-.342-.7v-.09c-.252-.108-.36-.378-.522-.594-.306-.378-.612-.7-.936-1.044-.684-.036-1.242-.162-1.944-.162-.126,0-.4-.018-.4.054v.018A2.4,2.4,0,0,0,59.544,10.264Zm2.934.252a1.3,1.3,0,0,1,.774.18c0,.684-.45.81-.45,1.152,0,.072,0,.162.108.162.144,0,0-.288.144-.288.774,0,.522-.27.936-.27a7.392,7.392,0,0,1,1.044,3.042c-.18.5-.468,1.746-.72,1.746-.018,0-.036-.018-.054-.018v.09c0,.144-.036.234-.18.252-.234.108-.252.432-.432.594a1.759,1.759,0,0,0-.774.612,11.051,11.051,0,0,0-1.728,1.206c-.18.126-.432.216-.522.432-.522.018-.756.36-1.116.522a1.953,1.953,0,0,0-.954.612,10.985,10.985,0,0,0-1.638.594,9.983,9.983,0,0,1-3.24.7,1.972,1.972,0,0,1-.918-.27c-.162-.054-.288-.018-.432-.09-.072-.036-.072-.162-.2-.162h-.054c-.09-.432-.342-.684-.342-1.224a.765.765,0,0,1,.252-.594c0-.036-.018-.09-.018-.126,0-.234.108-.36.108-.612v-.126c.216-.072.18-.36.252-.522a3.144,3.144,0,0,0,.7-1.386v-.072a1.4,1.4,0,0,0,.594-.954c.378-.126.486-.5.7-.792.252-.216.576-.4.684-.774.432-.054.432-.54.864-.594.054-.414.558-.36.612-.792a2.118,2.118,0,0,0,1.026-.5c.072-.036.036-.18.126-.18h.108a2.793,2.793,0,0,0,1.278-.684c.774,0,1.1-.378,1.818-.432a1.4,1.4,0,0,0,.594-.342A9.4,9.4,0,0,1,62.478,10.516Zm18.288,6.138a43.816,43.816,0,0,1-4.554,2.016.194.194,0,0,1-.126-.054,9.371,9.371,0,0,0,.252-1.89v-.18l-.09-.162c0-.216.09-.414.09-.63v-.072a.353.353,0,0,1-.09-.342c-.36-.4-.63-.792-1.206-.792-.63,0-3.816,1.854-3.978,2.34a14.21,14.21,0,0,0-2.754,2.34,21.344,21.344,0,0,1-1.566,1.548c-.252.7-2.88,3.69-2.664,4.248a3.53,3.53,0,0,0-.792,1.548c-.234.036-.2.378-.432.432l.018.162c0,.2-.18.324-.18.522-.216.108-.054.486-.252.612a7.782,7.782,0,0,1-.45,1.386c.018.414-.108,1.224.18,1.548h.072c1.008,0,2.9-3.168,3.384-3.978.216-.378.54-.666.774-1.026a.256.256,0,0,1,.18-.27,19.82,19.82,0,0,1,2.16-3.024c-.018-.252.234-.324.162-.594.4-.126,1.728-2.214,2.16-2.682a6.522,6.522,0,0,0,.954,1.548,3.37,3.37,0,0,0,.954.09h.612c.054-.2.5-.054.54-.27a2.4,2.4,0,0,1,.5-.18,16.98,16.98,0,0,1,1.6-.918A1.448,1.448,0,0,1,77,19.5c.036-.108,3.024-1.512,3.276-1.62.018,0,1.116-1.188,1.08-1.188ZM74.61,15.43a1.9,1.9,0,0,1,.7.162,2.547,2.547,0,0,1,.216,1.1,4.932,4.932,0,0,1-.792,2.7c-.144.054-.468.144-.45.342-.54,0-1.062.306-1.53.306-.63,0-.756-.72-1.17-.99a1.178,1.178,0,0,1,.306-.594,6.983,6.983,0,0,0,.846-1.728,2.251,2.251,0,0,0,.666-.7c.414.018.522-.4.954-.342.036-.09.144-.144.162-.252Zm-3.888,2.5c.09-.018.108,0,.108.054a5.134,5.134,0,0,1-.882,1.584c-.072.306-.414.432-.432.774-.828.612-1.314,1.8-1.98,2.592v.18h-.18c-.108.162-.072.36-.18.522a.346.346,0,0,0-.252.342c-.342.54-.792,1.008-1.116,1.548-.234-.018-.108.252-.18.36l-.18.072c-.144.234-.378.558-.5.792v.162c-.342.27-.414.792-.792,1.044a1.137,1.137,0,0,1-.5.684c-.108.252-.216.54-.522.612a.26.26,0,0,0,.036-.126c0-.108-.126-.2-.126-.324,0-.036.054-.054.09-.072.054-.18.252-.162.162-.432a2.368,2.368,0,0,0,.27-1.044c.2-.234.252-.594.522-.774V26.05c.324-.288.36-.738.684-1.026.036-.5.486-.684.612-1.134.108-.144,1.35-1.944,1.368-1.98.342-.108.558-.828.864-.864,0-.288.306-.288.36-.522.18-.072.108-.414.342-.432.36-.216.486-.666.864-.864.216-.342.666-.45.774-.864.252,0,.342-.2.522-.342A.43.43,0,0,0,70.722,17.932Zm14.544,2.2c.144-.162.432-.252.558-.432.81-.414,1.134-.954.936-1.512-.45.036-.81.36-1.188.468-.306.18-.306.432-.666.576-.468.27-.9.468-1.368.72a4.232,4.232,0,0,1-1.638.594c-.234.2-.774.5-1.134.27.072-.54.558-.666.774-1.044.4-.252.81-1.134,1.26-1.314.342-.252.432-.792.882-.954.144-.486.684-.576.774-1.116-.2-.126-.072-.558-.432-.522-.324-.09-.27.18-.432.252a4.163,4.163,0,0,1-.432.36c-.072.18-.324.18-.342.432-.18.072-.378.144-.432.342-.594.432-1.224,1.53-1.782,2a4.764,4.764,0,0,0-.9,1.3,1.36,1.36,0,0,0-.054.792c-.018.288.288.27.342.5.378-.09.846,0,1.3-.072.036-.018.216-.162.252-.18.18-.054.342.108.432-.09.468-.2,1.044-.288,1.476-.522.018-.108.576-.378.612-.252C84.258,20.344,85.032,20.4,85.266,20.128ZM86.814,11.9c.288.144.9.306,1.134,0a3.448,3.448,0,0,0-.27-1.3C86.8,10.444,86.8,11.164,86.814,11.9Zm10.62,7.272c.018-.072.306-.18.468-.18.27-.018.468-.36.378-1.206a2.341,2.341,0,0,0-1.134.486c-.126.054-.378.27-.522.324a2.59,2.59,0,0,1-.45.4,1.827,1.827,0,0,1-.648.324,7.477,7.477,0,0,1-2,.882c-.2.054-.2.144-.432.162-.144.126-.432,0-.612.072-.2-.018-.378.414-.522.18.18-.108.09-.486.342-.522a2.885,2.885,0,0,0,.36-.612,5.71,5.71,0,0,0,1.044-1.692c.234-.054.18-.4.432-.432-.018-.342.378-.27.342-.612a1.022,1.022,0,0,0,.432-1.3c-.432-.234-1.17.126-1.476.27a13.7,13.7,0,0,1-1.476.864c-.09.054-.18.2-.27.252a4.255,4.255,0,0,1-.684.432c-.162.09-.234.234-.432.18-.09.216-.342.288-.432.522-.234-.072-.126.162-.288.162-.126-.036-.216.342-.27.09h.09c0-.09.126-.126,0-.18.216-.36.522-1.944.216-2.232-.432-.072-.63-.108-.756.2-.09.216-.414,1.728-.486,2.034a22.173,22.173,0,0,1-1.224,2.142,2.464,2.464,0,0,1-.522.684c-.144.27-.378.432-.342.864.234.324.342.036.792.09.2-.126.342-.306.522-.432.27-.054.234-.414.522-.432.378-.27.5-.738.9-.99a3.066,3.066,0,0,1,.54-.54,13.208,13.208,0,0,1,2.826-1.908c-.216.4-.774,1.458-.954,1.71a.854.854,0,0,1-.18.18c-.018.018.018.144,0,.162-.072.108-.2.18-.252.27a2.961,2.961,0,0,0-.18.342c-.036.072-.144.036-.162.09-.072.108,0,.18-.09.252-.036.018.018.144,0,.18a1.875,1.875,0,0,0-.27,1.026c.4.414,1.062.2,1.566.18.7-.432,1.53-.486,2.2-.954.324-.252.486-.18.792-.45.486-.216.558-.36.864-.468A7.449,7.449,0,0,0,97.434,19.174Zm6.246.954c.144-.162.432-.252.558-.432.81-.414,1.134-.954.936-1.512-.45.036-.81.36-1.188.468-.306.18-.306.432-.666.576-.468.27-.9.468-1.368.72a4.232,4.232,0,0,1-1.638.594c-.234.2-.774.5-1.134.27.072-.54.558-.666.774-1.044.4-.252.81-1.134,1.26-1.314.342-.252.432-.792.882-.954.144-.486.684-.576.774-1.116-.2-.126-.072-.558-.432-.522-.324-.09-.27.18-.432.252a4.163,4.163,0,0,1-.432.36c-.072.18-.324.18-.342.432-.18.072-.378.144-.432.342-.594.432-1.224,1.53-1.782,2a4.764,4.764,0,0,0-.9,1.3,1.36,1.36,0,0,0-.054.792c-.018.288.288.27.342.5.378-.09.846,0,1.3-.072.036-.018.216-.162.252-.18.18-.054.342.108.432-.09.468-.2,1.044-.288,1.476-.522.018-.108.576-.378.612-.252C102.672,20.344,103.446,20.4,103.68,20.128Zm1.548-8.226c.288.144.9.306,1.134,0a3.448,3.448,0,0,0-.27-1.3C105.21,10.444,105.21,11.164,105.228,11.9Zm1.746,5.994a4.164,4.164,0,0,0-.594,1.08c-.054.108-.018.234-.09.342-.036.072-.216.108-.252.18a6.288,6.288,0,0,0-.27.612,3.556,3.556,0,0,0,.18,1.638,4.7,4.7,0,0,0,1.908.09,9.593,9.593,0,0,0,2.07-1.3c.216-.234.144-.4.36-.432-.054-.162.4-.414.5-.522a5.319,5.319,0,0,0,1.044-1.548c0-.018.036-.054.324-.162.27-.108.09-.018.378-.126.144-.054.216-.072.252-.09a1.976,1.976,0,0,0,.432-.756,1.3,1.3,0,0,0-.738.036c-.252.09-.018.018-.27.072-.144.036-.234,0-.252-.036a3.689,3.689,0,0,0-.216-.936c.018-.5-.594-.738-.882-.954a7.237,7.237,0,0,0-1.368.342,7.357,7.357,0,0,1-.7.792c-.468.144-.684.522-1.206.594a4.478,4.478,0,0,0-.432.342A4.028,4.028,0,0,1,106.974,17.9Zm3.384-1.674a3.35,3.35,0,0,1,.612.072c.162.216.054.7.09,1.044a3.453,3.453,0,0,1-1.566.252c.036-.162-.072-.306-.09-.162-.234-.18.2-.432.252-.612a.812.812,0,0,0,.612-.342C110.232,16.33,110.34,16.33,110.358,16.222ZM108.2,17.95c.288.072.45.288.684.432.234,0,.486-.036.612.072a3.029,3.029,0,0,0,1.224-.234c0,.288-.144.288-.27.5a2.749,2.749,0,0,0-.594.522,5.362,5.362,0,0,0-.522.594c-.342.054-.5.36-.774.522-.108.054-.108.018-.18.09a3.51,3.51,0,0,1-.864.432h-.882c-.072-.45.18-.576.18-.954.342-.378.594-.936.954-1.386.09-.126.126-.324.342-.342C108.072,18.058,108.18,18.058,108.2,17.95Zm17.154,1.224c.018-.072.306-.18.468-.18.27-.018.468-.36.378-1.206a2.341,2.341,0,0,0-1.134.486c-.126.054-.378.27-.522.324a2.59,2.59,0,0,1-.45.4,1.827,1.827,0,0,1-.648.324,7.477,7.477,0,0,1-2,.882c-.2.054-.2.144-.432.162-.144.126-.432,0-.612.072-.2-.018-.378.414-.522.18.18-.108.09-.486.342-.522a2.885,2.885,0,0,0,.36-.612,5.71,5.71,0,0,0,1.044-1.692c.234-.054.18-.4.432-.432-.018-.342.378-.27.342-.612a1.022,1.022,0,0,0,.432-1.3c-.432-.234-1.17.126-1.476.27a13.7,13.7,0,0,1-1.476.864c-.09.054-.18.2-.27.252a4.255,4.255,0,0,1-.684.432c-.162.09-.234.234-.432.18-.09.216-.342.288-.432.522-.234-.072-.126.162-.288.162-.126-.036-.216.342-.27.09h.09c0-.09.126-.126,0-.18.216-.36.522-1.944.216-2.232-.432-.072-.63-.108-.756.2-.09.216-.414,1.728-.486,2.034a22.173,22.173,0,0,1-1.224,2.142,2.464,2.464,0,0,1-.522.684c-.144.27-.378.432-.342.864.234.324.342.036.792.09.2-.126.342-.306.522-.432.27-.054.234-.414.522-.432.378-.27.5-.738.9-.99a3.066,3.066,0,0,1,.54-.54,13.208,13.208,0,0,1,2.826-1.908c-.216.4-.774,1.458-.954,1.71a.854.854,0,0,1-.18.18c-.018.018.018.144,0,.162-.072.108-.2.18-.252.27a2.961,2.961,0,0,0-.18.342c-.036.072-.144.036-.162.09-.072.108,0,.18-.09.252-.036.018.018.144,0,.18a1.875,1.875,0,0,0-.27,1.026c.4.414,1.062.2,1.566.18.7-.432,1.53-.486,2.2-.954.324-.252.486-.18.792-.45.486-.216.558-.36.864-.468A7.449,7.449,0,0,0,125.352,19.174Z" transform="translate(1258 225.037)" fill="#9f7f8e"/>
    <line id="線_26" data-name="線 26" x2="108" transform="translate(1263.5 309.5)" fill="none" stroke="#e1eff4" stroke-width="5"/>
    <g id="グループ_78" data-name="グループ 78" transform="translate(1128.942 215.268)">
      <g id="グループ_56" data-name="グループ 56" clip-path="url(#clip-path)">
        <path id="パス_77" data-name="パス 77" d="M54.907,40.309a1.429,1.429,0,0,1,1.061-2.328,11.269,11.269,0,0,1,2.121-.344,14.722,14.722,0,0,1,5.66,1.561c.693.367,1.432.661,2.087,1.084a23.648,23.648,0,0,1,5.2,4.349c1.3,1.513,2.66,2.983,3.874,4.564,1.068,1.391,1.927,2.941,2.92,4.388a45.4,45.4,0,0,1,3.354,6.385,12.285,12.285,0,0,1,.683,1.812c.573,1.959,1.413,3.82,2.055,5.753q.924,2.781,1.627,5.625a44.489,44.489,0,0,0,2.178,5.814,32.788,32.788,0,0,1,2.419,7.1,42.453,42.453,0,0,1,.521,4.84A20.4,20.4,0,0,1,90.1,95.5a12.017,12.017,0,0,1-2.017,4.967q-.4.546-.791,1.093c-.057.079-.154.163-.154.245-.007.855-.647.775-1.226.958-1.378.435-2.852.72-3.939,1.795-.43.425-1.02.569-1.477.951a11.291,11.291,0,0,0-1.374,1.353,3.507,3.507,0,0,1-1.734.982,2.276,2.276,0,0,0-1.953,2.1,13.44,13.44,0,0,1-.236,1.621c-.034.2-.108.43.063.558a12.656,12.656,0,0,0,2.579,2.038,33.96,33.96,0,0,1,5.978,3,6.63,6.63,0,0,0,2.512,1.34c.38.069.553.436.584.86.134,1.836.266,3.673.453,5.5a17.882,17.882,0,0,0,.708,2.791,25.814,25.814,0,0,1,.847,3.958,6,6,0,0,1,.015,1.116c-.03.375-.26.408-.529.2a1.409,1.409,0,0,1-.433-.756c-.324-1.1-.632-2.214-.938-3.324-.328-1.189-.666-2.376-.966-3.573a13.9,13.9,0,0,1-.282-3.333c0-.471-.042-.94-.055-1.408a1.321,1.321,0,0,0-.813-1.226c-1.009-.561-1.959-1.219-2.922-1.856a19.746,19.746,0,0,0-3.709-1.767,7.365,7.365,0,0,1-3.1-2.045c-.326-.39-.6-.3-.771.227-.627,1.92-1.106,3.882-1.642,5.828a48.749,48.749,0,0,0-1.18,7.172,4.728,4.728,0,0,1-.3,1.131c-.144.374-.34.32-.54.033a1.8,1.8,0,0,1-.168-1.253c.132-1.736.368-3.461.569-5.19.119-1.022.573-1.949.744-2.957.168-.984.61-1.9.865-2.855a16.728,16.728,0,0,0,.992-4.335.571.571,0,0,1,.11-.382c.387-.361.246-.454-.184-.63a3.542,3.542,0,0,0-1.479-.286,9.4,9.4,0,0,1-3.228-.546,1.767,1.767,0,0,1-.807-.656,7.041,7.041,0,0,0-.878-1.172c-.122-.1-.256-.206-.425-.139-.2.078-.217.261-.216.444,0,.078-.02.174.016.232.833,1.35-.033,2.4-.657,3.449-.643,1.084-1.072,2.268-1.686,3.363a.5.5,0,0,0,.162.722c.11.074.255.148.184.321a.292.292,0,0,1-.292.163c-.589-.007-.868.384-1.094.84-.409.825-.81,1.655-1.22,2.479-.428.862-.207,1.35.748,1.51a4.026,4.026,0,0,0,1.347.039c1.055-.189,1.6.432,2.076,1.191a17.287,17.287,0,0,0,2.6,3.1,4.018,4.018,0,0,1,1.451,2.834c0,.194.024.417-.233.477a.418.418,0,0,1-.484-.257c-.155-.357-.464-.63-.535-1.035a.73.73,0,0,0-.222-.4,33.8,33.8,0,0,1-3.645-4.042c-.917-1.079-2.159-.944-3.379-.776-.32.044-.454.338-.589.609a34.088,34.088,0,0,0-1.222,3.3c-.127.338-.36.668-.192,1.068a.219.219,0,0,1-.1.255,3.18,3.18,0,0,0-1,1.869,5.06,5.06,0,0,1-.483,1.132,18.73,18.73,0,0,0-1.705,4.18,21.293,21.293,0,0,1-1.527,4.045,8.5,8.5,0,0,1-1.116,1.479c-.163.194-.341.375-.487.585-.365.525-.62.538-.949-.025a5.67,5.67,0,0,1-.79-1.7,12.247,12.247,0,0,0-.971-2.821c-.525-1.147-.706-2.409-1.276-3.527-.251-.491-.479-1.059-1.192-1.093a.188.188,0,0,1-.121-.342c.768-.509.2-1.041.04-1.547-.5-1.607-1.429-3.04-1.921-4.66-.268-.882-.908-1.111-1.656-.5-.7.568-1.477,1.033-2.16,1.615A13.373,13.373,0,0,0,39.794,129c-.188.287-.361.483-.736.466s-.5-.249-.6-.546a33.03,33.03,0,0,0-1.2-3.562,35.143,35.143,0,0,0-1.962-3.472,1.787,1.787,0,0,0-2.511-.626c-.693.4-.735.867-.115,1.35.223.174.221.382-.039.42-.55.081-.765.513-1.038.877a2.108,2.108,0,0,1-1.07.767,21.187,21.187,0,0,0-4.3,1.739,18.439,18.439,0,0,1-1.511,1.106,3.383,3.383,0,0,1-.5.295c-1.358.355-1.911,1.455-2.455,2.583a16.048,16.048,0,0,1-1.427,2.824c-.914,1.211-1.551,2.587-2.382,3.841-.594.9-1.092,1.856-1.746,2.711-.225.293-.514.749-.947.4-.37-.3-.182-.73.079-1.054a23.374,23.374,0,0,0,1.9-2.819c1.164-1.974,2.27-3.982,3.4-5.976a1.7,1.7,0,0,0,.273-1.557.375.375,0,0,1,.251-.521,2.39,2.39,0,0,0,1.092-.762.483.483,0,0,1,.255-.139c2.154-.506,3.714-1.941,5.24-3.4a12.422,12.422,0,0,1,2.162-1.694,3.436,3.436,0,0,0,1.517-1.658,3.692,3.692,0,0,1,.336-.617.752.752,0,0,1,.817-.338.662.662,0,0,1,.533.558c.046.165.038.4.282.373.207-.019.16-.239.2-.382a1.085,1.085,0,0,1,.383-.578c1.212-1,2.231-2.2,3.365-3.279.952-.906,1.736-1.954,2.626-2.91.3-.326.381-.771.673-1.1.125-.14.033-.285-.1-.406a1.651,1.651,0,0,0-1.565-.391c-2.716.506-5.087,1.893-7.6,2.9a2.69,2.69,0,0,1-1.186.247,4.733,4.733,0,0,0-1.894.584,16.855,16.855,0,0,1-1.736.624,5.665,5.665,0,0,1,1.918-1.341c1.093-.528,2.264-.882,3.319-1.492.176-.1.466-.167.387-.44-.071-.249-.344-.218-.556-.214a4.334,4.334,0,0,0-.82.056c-.336.071-.611.083-.806-.268a.385.385,0,0,0-.506-.193c-.49.246-1.081.13-1.546.509-.356.29-.724.092-.707-.372.039-1.041-.1-2.075-.108-3.108A10.2,10.2,0,0,1,28.123,105a1.236,1.236,0,0,0,.17-.5,23.831,23.831,0,0,1,.542-3.654,10.312,10.312,0,0,1,.84-2.431c.195-.534.232-1.006-.435-1.24a.587.587,0,0,1-.3-.346c-.592-1.215-1.2-2.424-1.775-3.646-.16-.339-.35-.364-.652-.23a1.9,1.9,0,0,0-1.09,1.315c-.194.758-.308,1.537-.431,2.311-.038.236-.115.586.214.647.348.065.269-.27.315-.492.058-.276.485-.3.72-.056a.658.658,0,0,1,.125.665,32.618,32.618,0,0,0-.542,3.762c-.04.271-.123.736.147.8.327.079.416-.38.549-.644a7.885,7.885,0,0,0,.379-.919c.091-.258.265-.43.521-.349.274.086.114.332.072.5-.291,1.2-.638,2.391-.853,3.6-.408,2.285-1.088,4.538-.9,6.915.037.477-.233.99-.192,1.529.036.464.157.8.63.936.111.032.254.044.248.2-.007.179-.162.208-.3.217-.294.02-.623.068-.813-.213-.25-.371-.646-.642-.778-1.09-.16-.544-.541-.471-.942-.361-.418.115-.705.3-.607.827a4.683,4.683,0,0,0,1.988,3.326c.142.091.356.169.313.38s-.251.118-.4.148c-.347.073-.167.269-.086.439.048.1.154.211.031.312a.266.266,0,0,1-.331-.018c-.741-.647-1.824-.576-2.554-1.349a5.552,5.552,0,0,1-1.688-3.191,17.279,17.279,0,0,0-1.731-4.9,1.682,1.682,0,0,0-.393-.51,10.859,10.859,0,0,1-3.008-6.291c-.068-.385-.171-.764-.26-1.145-.023-.1-.055-.212-.162-.224-.14-.016-.2.112-.237.221a8.5,8.5,0,0,0-.4,1.289,26.49,26.49,0,0,0-.343,7.377,8.175,8.175,0,0,0,.535,2.282c.074.174.127.429.38.357.209-.059.178-.322.131-.463-.277-.842-.24-1.735-.454-2.587a12.109,12.109,0,0,1-.121-4.793c.275.11.187.291.192.422.041,1.039,0,2.086.122,3.115a27.814,27.814,0,0,0,.664,3.717c.123.481.48.925.628,1.436a.4.4,0,0,0,.41.281c.216-.008.3-.151.315-.352.008-.112,0-.264.157-.267a.276.276,0,0,1,.274.262c.033.325.037.652.052.953-.315.164-.3-.458-.577-.191-.2.195-.108.471-.047.727.045.187.268.447,0,.572s-.41-.146-.529-.351-.243-.447-.372-.667c-.081-.137-.19-.3-.365-.189s-.084.3,0,.422c.761,1.105,1.317,2.387,2.681,3.028a2.312,2.312,0,0,1-1.647-.506,9.741,9.741,0,0,1-2.526-3.535,3.458,3.458,0,0,0-1.455-1.4c-.375-.216-.667-.035-.6.374a13.02,13.02,0,0,0,1.039,3.767,2.847,2.847,0,0,0,.568.743c.278.273.714.489.432,1.013a.233.233,0,0,0,.073.208c.668.478,1.155,1.271,2.135,1.213.173-.01.474-.051.462.223-.015.331-.322.2-.512.191-1.992-.066-3.125-1.334-4.025-2.91-.154-.271-.245-.577-.377-.862-.063-.136-.114-.335-.308-.3s-.181.237-.168.385a2.971,2.971,0,0,0,.152,1.156,12.839,12.839,0,0,0,1.454,2.663,6.678,6.678,0,0,0,4.177,1.914c.574.086,1.145.2,1.8.314a1.029,1.029,0,0,1-.9.294,8.332,8.332,0,0,1-4.787-1.15,6.618,6.618,0,0,1-2.745-3.542c-.889-2.621-.516-5.309-.523-7.977a35.03,35.03,0,0,1,.568-5.494c.219-1.4.711-2.761,1.008-4.155.308-1.449,1.131-2.707,1.453-4.145.025-.114.084-.222.006-.353-.23-.055-.362.143-.458.271-1.495,1.984-3.367,3.656-4.719,5.761-.527.821-1.234,1.528-1.758,2.35a30.7,30.7,0,0,0-3.455,6.45,22.312,22.312,0,0,0-1.207,4.089,5.727,5.727,0,0,0,.232,3.406c.05.1.114.227-.025.308-.1.057-.194-.012-.264-.078a1.1,1.1,0,0,1-.312-.344,6.185,6.185,0,0,1-.535-3.2,19.331,19.331,0,0,1,2.424-7.136A20.314,20.314,0,0,1,4.8,103.061c.857-.92,1.482-2.059,2.3-3.042C8.47,98.363,9.779,96.654,11.152,95a26.337,26.337,0,0,0,3.19-4.629,1.09,1.09,0,0,0-.113-1.448c-.125-.121-.189-.312-.324-.415a5.691,5.691,0,0,1-1.513-2.791c-1.183-3-.761-6.142-.759-9.242a37.622,37.622,0,0,1,1.227-7.467,32.176,32.176,0,0,1,1.579-5.08c.071-.185.147-.393-.049-.538-.153-.113-.316,0-.421.106a15.026,15.026,0,0,0-2.037,2.244,18.618,18.618,0,0,1-1.479,1.948,30.873,30.873,0,0,0-3.99,6.4,13.438,13.438,0,0,0-.522,2.7A8.083,8.083,0,0,0,5.9,79.711a4.025,4.025,0,0,1,.027.527c0,.1-.017.207-.133.238s-.181-.047-.225-.14a2.985,2.985,0,0,1-.331-.748,12.061,12.061,0,0,1,.635-6.223A18.608,18.608,0,0,1,9.128,68.38c1.409-1.743,3.008-3.328,4.439-5.049q1.533-1.844,3.016-3.738a6.224,6.224,0,0,0,.395-.78c.572-1,1.162-2,1.729-3,.919-1.631,1.887-3.239,2.719-4.914.718-1.444,1.841-2.609,2.582-4.042a8.644,8.644,0,0,1,1.381-1.722,9.2,9.2,0,0,0,1.224-1.709c.221-.39.475-.585.882-.489.906.214,1.452-.251,2.067-.843A18.269,18.269,0,0,1,34.1,38.729c.887-.438,1.564-1.256,2.553-1.524A31.727,31.727,0,0,1,40.005,36c1.81-.266,3.473-1.168,5.393-1.006a10.346,10.346,0,0,1,4.891,1.633,2.526,2.526,0,0,1,1.257,1.526c.091.34.669.6,1.077.787.258.115.334-.211.415-.444a13.05,13.05,0,0,1,2.2-4.187c.412-.5,1.052-.542,1.546-.879.218-.148.575-.009.841.138.181.1.353.238.244.463-.1.21-.326.147-.467.063-.462-.274-.644-.2-.914.331-.325.639-1.063,1.024-1.312,1.769a26.779,26.779,0,0,1-1.235,2.72,6.755,6.755,0,0,0-.546,2.923,1.547,1.547,0,0,0,.155.681c.316.658.68.745,1.23.256a1.917,1.917,0,0,1,1.483-.415.7.7,0,0,1,.7.531c.088.371-.19.491-.427.68a15.5,15.5,0,0,0-2.113,1.564,1.42,1.42,0,0,1-2.395-.589,8.793,8.793,0,0,0-1.108-2.368,1.935,1.935,0,0,1-.085-.195c1.037-.4,1.321.451,1.759,1.043.1.131.14.408.361.262s.141-.393-.046-.544c-.353-.286-.374-.685-.488-1.084a10.482,10.482,0,0,1-.5-2.335c-.015-.286-.3-.336-.548-.313a.548.548,0,0,1-.6-.283,5.448,5.448,0,0,0-3.189-2.395,8.718,8.718,0,0,0-4.226-.131,2.735,2.735,0,0,0-.8.348c-.086.041-.187.1-.136.221s.154.1.253.1c.212,0,.565-.189.577.13.011.29-.381.277-.626.276-.553,0-1.133.221-1.646-.188a.4.4,0,0,0-.286-.038,7.037,7.037,0,0,0-3.369,1.1,9.669,9.669,0,0,1-1.961,1.1,32.2,32.2,0,0,0-3.189,1.951,25.2,25.2,0,0,0-5.363,5.044c-.215.238-.373.605-.775.2-.143-.144-.266.056-.386.153a13.826,13.826,0,0,0-2.213,2.938c-1.225,1.689-2.08,3.586-3.16,5.355-.163.267-.3.55-.45.826-.406.748-.378.823.437,1.046-.275.162-.253.68-.748.446-.131-.062-.193.035-.184.138a1.012,1.012,0,0,1-.421.8,16.648,16.648,0,0,0-3.424,5.817A24.709,24.709,0,0,0,13.737,70.1c-.075.631-.474,1.165-.581,1.826a24.947,24.947,0,0,0-.3,2.97,68.424,68.424,0,0,0-.151,7.995A10.137,10.137,0,0,0,14,87.111c.171.307.382.588.528.914.134.3.481.442.648.141.5-.9,1.349-1.694,1.031-2.888a4.094,4.094,0,0,0-.174-.559,8.339,8.339,0,0,1-.578-2.21,23.146,23.146,0,0,1,.007-7.029c.286-1.643.547-3.3.948-4.924.284-1.155.659-2.285.914-3.452a25.675,25.675,0,0,1,1.4-3.794q.912-2.323,1.858-4.634a17.225,17.225,0,0,1,1.243-2.13c.108-.184.287-.349.177-.585s-.322-.164-.516-.134c-.115.018-.261.04-.286-.116a.5.5,0,0,1,.188-.414c.482-.488.978-.962,1.453-1.457,1.1-1.144,1.886-2.546,2.98-3.686,1.018-1.06,1.437-2.549,2.609-3.484.7-.559,1.334-1.232,2.348-1.137.285.027.449-.141.624-.356a24.971,24.971,0,0,0,1.982-3.192,6.938,6.938,0,0,1,.858-1.25c.122-.131.222-.348.406-.247.242.133,0,.32-.064.437A35.922,35.922,0,0,1,32.4,44.538a10.337,10.337,0,0,0-.788,1.376.9.9,0,0,1-.479.486,2.22,2.22,0,0,0-.741.569c-.333.325-.57.821-1.2.632-.129-.039-.331.1-.38.3.085.222.441-.052.457.242.013.242-.2.361-.355.511a32.977,32.977,0,0,0-3.07,3.07,10.479,10.479,0,0,0-2.4,5.577c-.163,1.888-.54,3.756-.641,5.654-.04.744-.064,1.489-.078,2.234a1.569,1.569,0,0,1-.259,1.06c-.077.092-.148.209-.076.323.565.887.209,1.863.274,2.8.027.39-.011.785.018,1.175.015.205.07.484.352.452.25-.028.22-.291.214-.481a13.691,13.691,0,0,1,0-2.528c.153-1.014.166-2.04.36-3.05.177-.925.013-1.88.177-2.815a21.378,21.378,0,0,1,.894-3.645c.341-.937.555-1.914.966-2.829a1.9,1.9,0,0,1,1.068-1.175c.131-.046.283-.1.382.031.12.157-.026.251-.135.328a1.383,1.383,0,0,0-.442.683,22.8,22.8,0,0,0-1.491,5.17,45.745,45.745,0,0,0-.525,4.727c-.008.276-.117.733.2.769s.384-.412.464-.716a48.872,48.872,0,0,1,2.022-6.129,3.814,3.814,0,0,1,.734-1.129c.1-.113.218-.274.389-.147.151.112.014.246-.039.365-.584,1.341-1.09,2.711-1.6,4.083-.458,1.237-.579,2.508-.911,3.746a6.476,6.476,0,0,1-.69,2.278.511.511,0,0,0-.064.282,3.481,3.481,0,0,1-.388,1.675,5.475,5.475,0,0,0-.253,1.727,21.383,21.383,0,0,0-.111,2.466c0,.18-.034.45.214.488s.294-.219.378-.39c.3-.616.426-1.3.706-1.928.639-1.438,1.586-2.7,2.268-4.113.275-.571.088-1.2.4-1.746.114-.2.125-.465.432-.49.376-.031.491-.263.473-.608a4.012,4.012,0,0,1,.474-1.681,9.736,9.736,0,0,0,.376-2.837c.012-.131.008-.294-.151-.35-.132-.047-.215.059-.289.151-.061.076-.12.179-.231.141a.243.243,0,0,1-.136-.3,10.032,10.032,0,0,1,.556-2.391c.152-.338.341-.423.56-.025.095.172.181.459.463.329.221-.1.2-.345.189-.572a36.232,36.232,0,0,0-.037-3.86c-.024-.148-.023-.364.168-.39.222-.03.272.19.314.359a11.193,11.193,0,0,1,.149,2.988,6.757,6.757,0,0,1-.458,2.461,1.114,1.114,0,0,0-.046.406,14.869,14.869,0,0,1-1.055,5.44,2.925,2.925,0,0,0-.268,2.21,2.921,2.921,0,0,0,.97-1.44,29.406,29.406,0,0,0,1.577-5.46,39.255,39.255,0,0,0,.128-5.113c-.008-.3-.153-.775.186-.828.419-.065.385.453.452.749a8.675,8.675,0,0,1,.1,2.52,19.63,19.63,0,0,1-.665,4.51,40.6,40.6,0,0,1-1.386,4.1c-.138.324-.3.64-.419.97a1.74,1.74,0,0,0-.113.57c0,.191.027.434.226.505.244.088.323-.157.416-.323a22.6,22.6,0,0,0,2.462-6.147,17.406,17.406,0,0,0,.163-4.689c-.046-.881-.116-1.76-.173-2.64-.01-.159-.025-.35.175-.382.235-.037.369.158.42.341.156.567.266,1.146.419,1.714.057.209.008.578.285.57s.221-.376.249-.587a16.99,16.99,0,0,0,.017-2.995c-.01-.215-.057-.43-.055-.644,0-.231-.008-.508.32-.537s.328.235.4.466a16.186,16.186,0,0,1,.251,5.373c-.023.745-.1,1.487-.137,2.231a19.3,19.3,0,0,1-.98,5.063,32.277,32.277,0,0,1-1.436,3.453c-.818,1.757-1.591,3.538-2.4,5.3a4.361,4.361,0,0,0-.5,1.608c.513-.517.852-1.054,1.274-1.512a19.617,19.617,0,0,0,2.878-4.651,37.54,37.54,0,0,0,2.178-4.753c1.032-3.033,2-6.089,1.649-9.359a4.353,4.353,0,0,0-.58-2.244.623.623,0,0,1,.014-.861c.28-.207.609,0,.835.237a1.12,1.12,0,0,0,.857.427c.361,0,.449.3.424.587-.21,2.343.271,4.652.326,6.981a8.024,8.024,0,0,0,.514,2.343c.532,1.588,1.055,3.184,1.73,4.722a12.408,12.408,0,0,0,2.592,3.156,1.529,1.529,0,0,0,.7.524c.115.032.24.072.328-.035s.015-.218-.05-.318a18.7,18.7,0,0,1-2.325-6.716q-.44-2.181-.807-4.379a50.223,50.223,0,0,1-.7-7.418,1.483,1.483,0,0,1,.559-1.289.5.5,0,0,1,.657-.007c.212.177-.045.3-.121.439a2.7,2.7,0,0,0-.186,1.725c.194,1.553.217,3.127.558,4.663a2.031,2.031,0,0,0,.038.232c.067.191.052.493.345.459.244-.029.226-.3.224-.486-.017-1.728.186-3.448.2-5.17.014-1.251.513-2.419.436-3.665-.009-.15.037-.347.264-.291.175.043.2.212.215.377.188,1.694-.3,3.338-.37,5a35.513,35.513,0,0,0-.129,5.167c.088.851-.067,1.724.067,2.583.028.181-.029.465.235.463s.218-.281.232-.465c.119-1.525.186-3.056.358-4.575a51.052,51.052,0,0,1,.827-5.264,13.324,13.324,0,0,1,.259-1.562c.044-.127.013-.285.131-.38.164-.132.283-.433.494-.37.3.089.055.368.07.562.036.469.052.939.087,1.408.01.128.007.3.2.294.138-.007.183-.144.2-.258.072-.425.159-.85.19-1.279a12.451,12.451,0,0,1,.253-1.507c.048-.244.138-.481.43-.474.266.006.231.27.293.446a1.975,1.975,0,0,1,.055.81,11.2,11.2,0,0,0,.38,4.538.846.846,0,0,0,1.035.636c.378-.076.453.127.492.4.21,1.472.78,2.862.991,4.334a1.473,1.473,0,0,0,.183.432c.267.521.318.526.618.048.091-.146.187-.268.371-.2a.445.445,0,0,1,.292.466,4.95,4.95,0,0,0,.349,1.542.8.8,0,0,0,.541.577c1.088.287,2.032.923,3.1,1.258.178.056.4.217.543.028.126-.163-.1-.314-.168-.463-1-2.039-1.979-4.082-2.833-6.189-.455-1.122-1.093-2.169-1.65-3.25a2.026,2.026,0,0,1-.281-.706c-.018-.168-.122-.375.077-.482s.39.035.5.2a17.316,17.316,0,0,1,1.123,1.855c1.944,4.128,3.8,8.3,6.15,12.225a1.356,1.356,0,0,1,.187.426c.3,1.611,1.106,3.052,1.547,4.613a13.346,13.346,0,0,1,.608,3.589,2.661,2.661,0,0,1-.642-1.058,13.129,13.129,0,0,1-.745-2.712,1.368,1.368,0,0,0-.849-1.06,19.126,19.126,0,0,1-2.971-1.838c-.3-.224-.7-.491-1.015.1-.119.228-.349.035-.494-.088a11.39,11.39,0,0,1-3.319-4.665c-.166-.431-.413-.795-.966-.528-.178.086-.288-.024-.434-.059-.416-.1-.855-.238-1.1.317a.415.415,0,0,1-.544.232c-.26-.1-.29-.344-.249-.595a3.387,3.387,0,0,0,.059-1.568c-.039-.129-.032-.278-.186-.342-.122-.051-.377.06-.315-.212.036-.158.229-.112.359-.13a.285.285,0,0,1,.366.278,2.688,2.688,0,0,0,.053.524c.089.268.25.533.585.455.278-.065.376-.292.348-.594a7.811,7.811,0,0,0-1.463-3.9c-.078-.108-.181-.243-.336-.149-.114.069-.092.211-.054.323a1.3,1.3,0,0,1,.089.633c-.025.154.152.4-.118.441a.561.561,0,0,1-.571-.224c-.382-.546-.748-1.089-.091-1.9-.994.388-.845-.2-.882-.646-.041-.507-.111-1.013-.186-1.516-.018-.125-.039-.3-.206-.323s-.2.15-.247.275a6.449,6.449,0,0,0-.371,1.655c-.158,2.169-.33,4.337-.567,6.5-.12,1.091.144,2.146.13,3.223-.007.513-.152,1.051.245,1.526.153.183-.111.439-.091.675.1,1.2.2,2.39,1.274,3.21.42.32.8.69,1.191,1.048.1.1.332.143.249.344-.067.161-.244.056-.372.067a4.251,4.251,0,0,1-2.467-.8,16.79,16.79,0,0,1-3.553-2.758,10.7,10.7,0,0,1-2.325-4.111,29.682,29.682,0,0,1-.953-2.821c-.127-.484-.068-.977-.159-1.459-.04-.209-.049-.475-.322-.493s-.261.246-.316.426a47.844,47.844,0,0,1-4.215,9.61,17.972,17.972,0,0,1-3.874,4.69.676.676,0,0,1-.258.125,1.943,1.943,0,0,0-1.563,1.178c-.06.175-.239.457-.458.352-.252-.121-.176-.4-.037-.618,1.24-1.925,1.862-4.141,2.91-6.157.442-.85.629-1.808,1.108-2.649a1.22,1.22,0,0,0,.125-1.083,1.616,1.616,0,0,0-.605.876,3.09,3.09,0,0,1-1.048,1.518,3.042,3.042,0,0,0-.592.939c-.129.228-.288.51-.578.319-.273-.18-.145-.487-.03-.743.089-.2.6-.243.286-.559-.237-.241-.544-.005-.807.128a8.285,8.285,0,0,0-3.491,4.144A4.577,4.577,0,0,1,25,75.739a2.625,2.625,0,0,0-.652,1.783,4.873,4.873,0,0,0,.23,1.91,13.291,13.291,0,0,0,.878,2.583c-.078.048-.111.087-.138.083-.275-.037-.516-.434-.8-.173-.315.291.05.567.137.846.36,1.159.657,2.342,1.1,3.468.422,1.076.667,2.212,1.151,3.26.689,1.493,1.182,3.074,2.012,4.5.315.542.637,1.079.957,1.618.189.318.446.326.758.186s.542-.053.46.319a2.262,2.262,0,0,0,.485,1.7,6.905,6.905,0,0,0,1.775,1.777c.757.574,1.5,1.187,2.3,1.688a35.255,35.255,0,0,0,3.184,2.183,1.211,1.211,0,0,1,.353.208c1.237,1.287,2.932,1.739,4.462,2.5.633.316,1.374.323,1.944.782a.9.9,0,0,0,.689.074A8.166,8.166,0,0,0,49.421,106c.772-.46,1.612-.806,2.412-1.222,1.152-.6,2.135-1.455,3.224-2.146,1.058-.671,1.937-1.58,3.033-2.2a4.246,4.246,0,0,0,.531-.458,17.59,17.59,0,0,0,3.514-4.136,14.1,14.1,0,0,0,1.008-1.513A.821.821,0,0,1,64.308,94c.4.323.166.661-.007,1.037-.6,1.3-1.793,2.159-2.5,3.4-.281.493-.816.871-1.017,1.464a1.471,1.471,0,0,0-.073,1.031,1.341,1.341,0,0,1-.106.919,16.622,16.622,0,0,0-.638,4.583c-.015.228-.066.528.259.567.353.042.406-.282.423-.523a16.751,16.751,0,0,1,.315-3.216c.305-1.122.231-2.42,1.248-3.27a2.569,2.569,0,0,0,.753-1.063,3.623,3.623,0,0,1,2.887-2.363c.2-.032.465-.154.585.1s-.117.394-.3.5a1.674,1.674,0,0,0-.636.808,18.921,18.921,0,0,0-1.55,4.6,30.5,30.5,0,0,0-.969,4.708c-.006.275-.011.55-.006.824,0,.226,0,.435-.275.516-.117.035-.244.125-.234.239.044.538-.262.582-.688.569-.275-.008-.3.2-.178.416a4.19,4.19,0,0,0,1.227,1.163c.248.2.422-.018.406-.272-.123-2,.623-3.819,1.208-5.656a21.043,21.043,0,0,1,1.84-4.315A7.942,7.942,0,0,1,67.4,98.84a1.864,1.864,0,0,1,.3-.278c.273-.164.606-.341.862-.075.231.24-.028.507-.157.741-.161.29-.344.57-.492.867-.088.176-.141.4.07.528a.456.456,0,0,0,.545-.1.855.855,0,0,0,.291-.428c.254-1.4,1.044-2.617,1.387-3.987a2.883,2.883,0,0,0,.064-1.945.732.732,0,0,1,.362-1.022c.235-.111-.1-.589-.043-.914a.244.244,0,0,0-.187-.27c-.243-.05-.329.155-.45.307a2.294,2.294,0,0,1-3.135.589,1.768,1.768,0,0,1-.7-1.119c-.13-.545-.326-1.266-.085-1.665a11.376,11.376,0,0,1,1.208-2.142,1.683,1.683,0,0,1,1.782-.23c.6.173.922.026.875-.6a7.862,7.862,0,0,1,.729-3.111,5.1,5.1,0,0,0-.185-3.776c-.089-.2-.2-.39-.459-.392a.366.366,0,0,0-.385.368c-.14,1.381-1.057,2.472-1.4,3.779a10.8,10.8,0,0,0-.331,1.245c-.051.363-.227.373-.471.153a1.044,1.044,0,0,1-.4-.93c.028-.25.1-.551-.116-.728-.8-.648-.437-1.443-.246-2.163a11.193,11.193,0,0,1,1.061-2.288,1.1,1.1,0,0,1,.657-.458,1.534,1.534,0,0,0,.982-1.078,13.734,13.734,0,0,0,.673-3.561,7.028,7.028,0,0,0-.5-2.455c-.04-.115-.043-.311-.243-.258-.132.035-.115.186-.129.3-.151,1.241-.3,2.483-.46,3.723a1.9,1.9,0,0,1-.22.786,24.4,24.4,0,0,0-1.488,3.146c-.064.134-.086.343-.294.308-.238-.04-.2-.265-.2-.431a20.294,20.294,0,0,0-.851-4.957c-.542-2.023-1.183-4.019-1.78-6.027-.54-1.816-.991-3.665-1.639-5.441a42.782,42.782,0,0,0-2.391-5.938c-.281-.516-.566-1.031-.814-1.563-.13-.278-.147-.6.187-.769.371-.185.531.094.659.378a40.609,40.609,0,0,1,2.151,4.627c.865,2.842,2.181,5.537,2.724,8.485a13.85,13.85,0,0,0,.623,1.832c.456,1.356.656,2.786,1.185,4.121.081.2.095.544.41.465.253-.063.173-.354.157-.566-.062-.8.028-1.6.01-2.408a12.553,12.553,0,0,0-1.142-4.707c-.38-.883-.62-1.814-.969-2.71-.691-1.771-1.448-3.509-2.223-5.244-.674-1.509-1.565-2.9-2.29-4.372-.2-.4-.709-.568-.8-1.087a1.055,1.055,0,0,1,.9.318,5.422,5.422,0,0,1,1.043,1.414c.832,1.461,1.673,2.918,2.455,4.406.38.723.631,1.512.948,2.268.072.17.11.47.335.412.261-.067.187-.384.128-.563a14.92,14.92,0,0,0-.744-1.972c-.534-1.075-.868-2.224-1.311-3.332a4.565,4.565,0,0,1-.586-2.4c1.544,1.9,2.038,4.221,3.1,6.256a1.071,1.071,0,0,0,.1-.06c-.4-.829-.09-1.843-.678-2.624a.225.225,0,0,1,.018-.32.542.542,0,0,1,.659-.056,3.176,3.176,0,0,1,1.437,1.431,7.759,7.759,0,0,1,.9,2.158c.02.145.081.361.271.319.213-.048.12-.261.08-.4a11.385,11.385,0,0,0-.49-1.438c-.252-.576-.244-1.237-.5-1.842C67.2,56.128,67,54.75,66.357,53.537a8.643,8.643,0,0,0-2.28-3.094,15.044,15.044,0,0,0-1.353-1.127.465.465,0,0,1-.214-.271c-.14-.775-.814-1.027-1.357-1.4-.149-.1-.341-.185-.318-.382.039-.343.221-.64-.176-.969-.153-.127.232-.43.537-.409a2.129,2.129,0,0,1,1.228.6,4.147,4.147,0,0,1,1.235,1.476,1.074,1.074,0,0,0,.323.413c2.194,1.77,3.312,4.256,4.448,6.721.809,1.756,1.477,3.58,2.36,5.3.565,1.1,1.055,2.215,1.513,3.354.062.156.11.409.322.354.24-.062.173-.327.151-.51a4.219,4.219,0,0,0-.411-1.223c-.62-1.376-1.041-2.825-1.57-4.234-.46-1.227-1.036-2.411-1.57-3.61-.085-.191-.315-.4-.089-.567.273-.2.383.114.542.273a14.168,14.168,0,0,1,3.083,5.091.946.946,0,0,0,.241.4c1.22.975,1.646,2.445,2.275,3.763.656,1.373,1.255,2.777,1.9,4.156.169.358.533.577.677.956.047.123.131.29.293.212.138-.067.114-.254.066-.374-.173-.434-.3-.888-.463-1.32-.33-.866-.376-1.8-.728-2.657-.244-.593-.443-1.2-.664-1.806a3.461,3.461,0,0,1-.187-.494,40.622,40.622,0,0,0-1.788-5.178c-.347-1.016-.629-2.054-.966-3.074a6.069,6.069,0,0,0-1.314-2.585,20.121,20.121,0,0,1-2.381-3.549,32.1,32.1,0,0,0-3.078-3.675,2.464,2.464,0,0,1-.274-.3c-.1-.163-.233-.349-.05-.532a.418.418,0,0,1,.546-.027,7.062,7.062,0,0,1,1.854,1.593c1.27,1.617,2.418,3.318,3.568,5.017a56.117,56.117,0,0,1,3.814,6.184,13.361,13.361,0,0,1,1.346,3.62.648.648,0,0,0,.394.544,1.772,1.772,0,0,1,.705.513.518.518,0,0,0,.682.165c.248-.132.25-.365.223-.615a4.907,4.907,0,0,0-.5-1.684,39.658,39.658,0,0,0-2.4-4.7c-.847-1.244-1.6-2.566-2.53-3.734C72.8,48.608,71.587,47.077,70.3,45.6a29.45,29.45,0,0,0-4.035-3.657,26,26,0,0,0-3.957-2.187,12.164,12.164,0,0,0-5.064-1.083,3.857,3.857,0,0,0-1.445.238c-.607.192-.733.755-.893,1.395m-3.582,87.95a9.452,9.452,0,0,0,2.408-.287c1.418-.3,2.827-.634,4.225-1.013.727-.2,1.521-2.26,1.139-2.9a1.29,1.29,0,0,1,.105-1.622,4.561,4.561,0,0,0,.524-.629c.682-1.3,1.339-2.612,2.005-3.92a.371.371,0,0,0,.011-.439c-.134-.164-.288-.079-.424-.007-.615.325-1.33.3-1.964.575-.2.084-.495.135-.616-.155-.132-.316.11-.491.345-.584a13.463,13.463,0,0,1,2.026-.775,2.342,2.342,0,0,0,1.991-1.509,5.3,5.3,0,0,1,.891-1.638.755.755,0,0,0-.152-1.213c-.672-.282-1.274-.681-1.917-1.008a2.274,2.274,0,0,1-1.18-1.242.988.988,0,0,0-.453-.589A2.586,2.586,0,0,1,59,107.569a13.228,13.228,0,0,1-.107-1.519c-.19-1.136-.606-1.535-1.569-1a20.2,20.2,0,0,1-3.484,1.677,6.98,6.98,0,0,1-2.391.715c-.514-.018-.657.055-.518.57.355,1.319-.025,2.612-.092,3.915a1.036,1.036,0,0,1-.188.424c-.163.275-.345.377-.571.046-.29-.423-.473-.247-.571.131a1.635,1.635,0,0,1-.623,1.1,32.433,32.433,0,0,0-2.814,2.088,1.445,1.445,0,0,0-.743,1.524c.095.636.43,1.175.578,1.785.158.651.558.788,1.149.454a1.666,1.666,0,0,0,.592-.561.594.594,0,0,1,.529-.321,24.746,24.746,0,0,0,2.681-.285c.29-.018.651-.088.722.306s-.3.553-.591.605a12.469,12.469,0,0,1-1.881.377,2.761,2.761,0,0,0-1.655.578c-.686.485-.786.781-.436,1.558.21.465.407.936.649,1.384a.627.627,0,0,1-.164.922.583.583,0,0,0-.188.777c.419,1.058.914,2.081,1.415,3.1.115.234.275.5.571.408a7.741,7.741,0,0,1,2.021-.075m-7.113-13.1c.886.061,1.942-.492,1.978-1.148.039-.712.419-.667.891-.64a1.225,1.225,0,0,0,1.211-.819,5.6,5.6,0,0,0-.108-3.8.4.4,0,0,0-.39-.3,3.154,3.154,0,0,0-1.217.143.778.778,0,0,1-.735.037.86.86,0,0,0-1.185.274c-.156.179-.291.464-.617.32a.582.582,0,0,1-.29-.752c.131-.568-.154-.788-.639-.989a30.313,30.313,0,0,1-5.4-3.058c-.192-.131-.383-.315-.638-.2s-.278.364-.294.6a3.09,3.09,0,0,0,1.058,2.92.4.4,0,0,0,.61-.032c.18-.157.282-.572.53-.44s.038.5.045.77a1.792,1.792,0,0,1-.07.522c-.116.414-.069.635.457.583.427-.042.656.267.534.608-.152.425-.039.52.447.478a3.866,3.866,0,0,0,2.488-.873.513.513,0,0,1,.7.009c.231.17.181.357.106.572a.634.634,0,0,0,.348.881.823.823,0,0,0,1.069-.143,3.542,3.542,0,0,0,.681-1.088c.07-.185.183-.37.432-.307a.394.394,0,0,1,.293.454,2.579,2.579,0,0,1-.143.863c-.279.6-.77,1.086-1.02,1.712-.039.1-.144.174-.235.111-.589-.408-1.275-.1-1.889-.268a1.358,1.358,0,0,0-1.664.647c-.869,1.2-1.932,2.257-2.837,3.433a19.828,19.828,0,0,1-2.869,2.931A.8.8,0,0,0,35.7,120.4a30.062,30.062,0,0,1,2.058,3.351,32.548,32.548,0,0,1,1.407,3.164c.138.345.37.577.7.232.925-.974,2.131-1.6,3.089-2.524.7-.675,1.662-1.149,1.838-2.261.023-.147.209-.178.347-.154.6.1.578-.19.482-.648a12.785,12.785,0,0,0-1.133-2.572c-.668-1.481-.727-3.153-1.532-4.578a.636.636,0,0,1-.025-.29c0-.2,0-.413.222-.5s.52-.111.657.093c.278.414.713.808.4,1.447M76.457,94.772l-.156-.084a33.5,33.5,0,0,0,1.2-3.211c.639-2.4,1.3-4.791,1.8-7.231a19.465,19.465,0,0,0,.144-6.719,30.529,30.529,0,0,0-1.072-4.509,22.942,22.942,0,0,0-2.01-5.119c-.092-.155-.129-.45-.375-.369s-.114.34-.085.519c.251,1.545.829,3.012,1.03,4.576a30.019,30.019,0,0,1,.371,3.207c0,.157-.038.347.09.447.385.3.328.721.357,1.127.032.449.071.9.136,1.345a25.173,25.173,0,0,1-.363,7.124,38.757,38.757,0,0,0-.609,3.849,3.221,3.221,0,0,1-.2.851c-.429,1.366-1.045,2.658-1.553,3.992a5.418,5.418,0,0,1-1.237,1.964,2.805,2.805,0,0,1,.237-.908,38.409,38.409,0,0,0,1.6-3.579c.437-1.243.559-2.579.9-3.861a14.827,14.827,0,0,0,.449-4.419c-.007-.173,0-.358-.241-.42a18.754,18.754,0,0,0-.553,2.272c-.434,1.485-.658,3.015-1.037,4.511-.252,1-.133,2.074-.694,3.01a24.525,24.525,0,0,0-1.681,3.424,4.6,4.6,0,0,1-.9,1.837c-.259.25-.238.772-.4,1.147a17.9,17.9,0,0,0-1.175,3.249,11.761,11.761,0,0,0-.478,3.709c.016.158,0,.333.189.393s.285-.081.387-.2a8.606,8.606,0,0,0,1.314-2.214,26.811,26.811,0,0,1,2.332-4.2c.083-.127.192-.31.358-.254.232.077.125.292.09.456-.067.314-.166.638.374.478.276-.082.279.11.288.3a1.482,1.482,0,0,1-.347.981c-.988,1.275-1.639,2.76-2.564,4.074-.09.127-.293.29-.122.459s.364-.007.52-.108a1.679,1.679,0,0,0,.3-.274c.9-.974,1.966-1.776,2.826-2.807A9.718,9.718,0,0,0,77.812,99.8c.195-.712-.078-1.413.138-2.1a.256.256,0,0,0-.138-.3.31.31,0,0,0-.38.068c-.247.25-.469.526-.716.776-.132.134-.3.378-.477.262-.224-.144.017-.353.093-.5A31.485,31.485,0,0,0,78.8,90.987a5.922,5.922,0,0,0,.072-1.923,30.857,30.857,0,0,1-2.416,5.709M19.031,88.438c-.159.2-.289.1-.412.065-.262-.072-.516-.089-.683.173a.784.784,0,0,0-.023.888,2.037,2.037,0,0,0,.195.22c.178.21.208.373-.121.463a1.809,1.809,0,0,0-1.246,1.495,16.016,16.016,0,0,0-.409,2.486c-.1,1-.171,1.985-.37,2.983a13.753,13.753,0,0,0,.371,5.069,11.86,11.86,0,0,0,1.277,3.395c.117.225.285.472.589.385.288-.082.223-.373.254-.6.266-1.959.456-3.928.885-5.864a36.671,36.671,0,0,0,.96-4.762.484.484,0,0,1,.365-.464,1.37,1.37,0,0,0,.865-1.779,3.968,3.968,0,0,1-.133-2.7,4.566,4.566,0,0,0-.246-3.146,4.8,4.8,0,0,1-.408-3.035,5.188,5.188,0,0,0,.419-1.492,1.53,1.53,0,0,1,1.046-1.661.411.411,0,0,0,.29-.457,3.893,3.893,0,0,0-.268-1.081c-.047-.132-.185-.29-.3-.149-.221.266-.606.451-.631.823a5.358,5.358,0,0,1-.584,1.771c-.667,1.545-1.313,3.1-1.845,4.7-.271.815-.931,1.6.164,2.278m62.5-19.472a.508.508,0,0,0-.146.555c.188,1.435.236,2.883.4,4.323.292,2.62.305,5.273.4,7.913a59.093,59.093,0,0,1-.467,6.857,16.643,16.643,0,0,1-1.6,6.7,4.878,4.878,0,0,0-.888,2.22,23.357,23.357,0,0,1-.564,3.885c-.025.165-.151.406.038.482.247.1.389-.154.469-.342a8.24,8.24,0,0,0,.687-1.871.814.814,0,0,1,.285-.561c.273-.209.412-.16.459.19a1.735,1.735,0,0,1-.177.852c-.054.146-.107.319.079.414s.3-.047.392-.17a2.592,2.592,0,0,0,.244-.4c.277-.539.556-1.078.82-1.623a39.4,39.4,0,0,0,2.072-5.3c.284-.9.435-1.832.725-2.718a6.521,6.521,0,0,0,.391-2.117c-.015-1.511.147-3.014.226-4.521a14.289,14.289,0,0,0,.01-3.346c-.3-1.646-.341-3.327-.781-4.956a43.7,43.7,0,0,0-1.119-4.919,6.513,6.513,0,0,0-1.026-2.236c0,.342-.019.535,0,.723.2,1.691.376,3.386.63,5.069.272,1.8.309,3.623.5,5.431.016.155-.042.341.136.411s.221-.106.286-.223.147-.252.315-.182c.131.054.128.2.114.308a8.616,8.616,0,0,0,.149,1.636,29.437,29.437,0,0,1-.313,5.914c-.374,2.61-1.644,4.844-2.674,7.186-.063.143-.153.321-.342.235-.207-.094-.079-.278-.027-.41a33.773,33.773,0,0,0,1.544-4.743,8.962,8.962,0,0,0,.317-2.378c-.163-4.092-.236-8.189-.64-12.269-.079-.8-.164-1.6-.242-2.394-.117-1.19-.429-2.361-.675-3.626M75.378,75.3a3.8,3.8,0,0,1-.146-1.541c-.1-1.721-.67-3.377-.725-5.107a.363.363,0,0,0-.051-.168c-.1-.175-.135-.5-.392-.432a.532.532,0,0,0-.293.535c.046.424-.133.862.1,1.274a.216.216,0,0,1-.116.339c-.2.049-.205-.144-.225-.268-.049-.309-.085-.62-.113-.931-.027-.292-.093-.589-.435-.6-.414-.014-.474-.269-.51-.578a10.335,10.335,0,0,0-.189-1.513,19.034,19.034,0,0,0-1.644-4.268c-.213-.383-.144-.856-.4-1.22-.067-.095-.141-.22-.27-.188-.15.037-.106.19-.1.3a2.422,2.422,0,0,0,.059.347c.268,1.421.549,2.841.8,4.266a8.392,8.392,0,0,0,.418,1.391,10.027,10.027,0,0,1,.723,2.4,20.568,20.568,0,0,0,.512,3.062,7.518,7.518,0,0,0,.968,2.734c.161.221.1.675.611.381.194-.112.24.137.252.289a6.27,6.27,0,0,0,.083,1.167,9.722,9.722,0,0,1,.263,3.088c-.046,1.018.087,2.039-.046,3.057-.021.164-.041.411.2.42s.215-.228.223-.4c0-.059-.009-.118-.005-.176a24.612,24.612,0,0,0,.294-4.269c-.019-.175.077-.4.276-.387s.137.253.133.395c-.034,1.292.077,2.585-.082,3.879a20.6,20.6,0,0,0-.041,2.345c0,.094.007.2.155.214.275-.307.127-.714.24-1.06.663-2.033.565-4.176.891-6.26.229-1.46-.319-2.9-.469-4.355-.012-.12-.133-.236-.221-.338s-.153-.269-.32-.2-.112.226-.068.356.124.267-.029.37c-.308.208-.236.5-.2.795a1.319,1.319,0,0,1-.089.854M56.3,130.655c-.208.036-.458.085-.709.123-1.411.214-2.65,1.021-4.1,1.147-.73.063-.972.584-.656,1.227a12.717,12.717,0,0,1,.933,3.016,10.3,10.3,0,0,0,1.147,2.875c.18.323.33.349.611.054a6.673,6.673,0,0,0,1.084-2.288c.776-1.857.969-3.921,2.062-5.659.2-.315.076-.527-.374-.494m30.6-42.218a3.142,3.142,0,0,0,0-.371c-.037-.222.082-.6-.156-.627-.305-.035-.162.361-.249.554a1.752,1.752,0,0,0-.148.566,27.293,27.293,0,0,1-1.419,5.745,28.771,28.771,0,0,1-2.1,4.769c-.52,1.012-.783,2.125-1.385,3.091a.366.366,0,0,0,.038.442.23.23,0,0,0,.321.015,4.744,4.744,0,0,0,1.97-2.1c.058-.135.01-.355.234-.338.2.014.29.178.312.371a2.442,2.442,0,0,0,.044.406.309.309,0,0,0,.308.23c.132,0,.261-.073.268-.186.035-.536.466-.845.7-1.266a26.178,26.178,0,0,0,1.124-3.451.792.792,0,0,0,0-.407c-.048-.253-.184-.429-.442-.219-.413.336-.451.047-.47-.263a8.557,8.557,0,0,1,.329-2.4,31.848,31.848,0,0,0,.729-4.565M33.35,103.56c0-.294-.017-.589.006-.881.014-.18-.014-.449.251-.46a.491.491,0,0,1,.556.418c.044.271.051.548.107.816a6.628,6.628,0,0,0,.139,1.219,3.224,3.224,0,0,1-.288,2.956c-.6,1-1.355,1.913-2.024,2.876-.146.211-.376.512-.084.728.269.2.578.019.784-.2a6.494,6.494,0,0,0,.774-.959,14.609,14.609,0,0,0,2.073-4.94,2.542,2.542,0,0,0-1.044-2.869,2.854,2.854,0,0,1-1.073-.77.445.445,0,0,0-.53-.156c-.2.074-.2.275-.221.447a10.754,10.754,0,0,1-.091,1.112,20.921,20.921,0,0,1-2.424,6.4,1.857,1.857,0,0,0-.282.763c-.019.187-.139.4.108.517a.494.494,0,0,0,.584-.162,6.618,6.618,0,0,0,1.161-1.315,12.293,12.293,0,0,0,1.518-5.54M89.671,90c-.019-.392-.027-.785-.058-1.175A19.5,19.5,0,0,0,88.5,83.5c-.05-.134-.051-.348-.274-.31-.14.024-.136.182-.132.294a36.66,36.66,0,0,0,.03,4.4,21.229,21.229,0,0,1,.2,2.578,4.957,4.957,0,0,1-.744,3.146,1.343,1.343,0,0,0-.168,1.191,4.7,4.7,0,0,1-.435,3.769,2.291,2.291,0,0,0-.188.554c-.035.162-.12.377.1.467.2.083.331-.09.42-.24a10.577,10.577,0,0,0,1.112-2.323c.3-.984.067-2.157.983-2.937.036-.031.036-.11.041-.168A19.232,19.232,0,0,0,89.671,90M55.441,64.652c-.2-.008-.367-.037-.457.136-.075.144.01.265.1.372a11.025,11.025,0,0,1,1.59,2.064.868.868,0,0,0,.206.208c.7.656,1.384,1.327,2.1,1.962a13.169,13.169,0,0,0,1.642,1.421.5.5,0,0,0,.641-.043c.208-.158.1-.312.066-.511a6.412,6.412,0,0,0-.911-1.761,6.677,6.677,0,0,0-1.185-1.872,7.953,7.953,0,0,0-2.587-1.459c-.412-.18-.826-.355-1.205-.518m-4.523,66.321a7.391,7.391,0,0,0,1.278-.165,40.9,40.9,0,0,1,4.044-.977A1.811,1.811,0,0,0,57.8,128.36c.036-.327-.024-.559-.441-.454a7.5,7.5,0,0,0-1.307.324,17.985,17.985,0,0,1-4.541,1.116,3.722,3.722,0,0,1-1.67.161c-.281-.075-.4.154-.352.451.141.8.5,1.058,1.427,1.015M16.134,78.988c.221,1.219-.042,2.5.369,3.714.088.26.011.732.359.7s.207-.47.22-.749c.043-.939-.149-1.865-.174-2.794a13.476,13.476,0,0,1,.213-4.266c.131-.445.269-.895.4-1.343.637-2.207.673-4.537,1.4-6.725.038-.115.073-.265-.055-.311-.2-.07-.221.138-.247.25a18.284,18.284,0,0,1-.69,1.842,19.186,19.186,0,0,0-1.26,5.108c-.093,1.521-.343,3.033-.527,4.573M13.8,98.347a2.153,2.153,0,0,0-1.039,1.569,23.931,23.931,0,0,0-1.2,8.318,2.781,2.781,0,0,0,.411,1.271c.136.228.345.435.615.349s.143-.37.148-.573a3.19,3.19,0,0,0-.05-.466A21.951,21.951,0,0,1,13.3,100.9a12.577,12.577,0,0,0,.5-2.555M71.374,71.239c-.056.375-.083.739-.169,1.089a7.727,7.727,0,0,0-.112,3.955c.39,1.366.462,2.779.848,4.131a6.05,6.05,0,0,1,.257,2.375c-.043.369-.132.733-.177,1.1-.022.181-.089.458.179.478s.231-.263.251-.447a31.214,31.214,0,0,0,.108-3.518,59.091,59.091,0,0,0-.941-8.747c-.022-.144-.011-.318-.243-.418M21.711,84.2a4.394,4.394,0,0,0,.541,2.246c.406.626.4.626.953.153a.769.769,0,0,1,.305-.169c.991-.234.9-.6.615-1.259-.046-.106-.033-.237-.079-.343a8.979,8.979,0,0,0-.8-2.066c-.362-.472-.834-.488-1.1-.009a2.13,2.13,0,0,0-.433,1.447m-2.956-7.4c.022.13-.1.508.275.542.361.032.347-.351.418-.6a.712.712,0,0,0,.024-.233,5.817,5.817,0,0,1,.649-2.934c.431-.88.168-1.811.326-2.706a.522.522,0,0,0-.494-.618c-.33-.033-.373.269-.436.522-.08.321-.1.65-.21.97a7.011,7.011,0,0,0-.573,2.732c.055.644-.86,1.3.016,1.917.046.033.006.187.006.409m11.623,30.661c.345-.3.33-.686.457-1a15.446,15.446,0,0,0,1.109-5.657c.013-.824-.6-1.179-1.047-1.674a.223.223,0,0,0-.322,0,1.572,1.572,0,0,0-.282,1.276c.019.37.335.4.615.387.391-.013.431.169.316.48a1.294,1.294,0,0,0-.091.4,18.931,18.931,0,0,1-.757,4.856,1.325,1.325,0,0,0,0,.935m35.41.549c.015-.248.033-.4.031-.56,0-.264.115-.649-.2-.722-.347-.079-.4.343-.543.582a1.091,1.091,0,0,0-.1.336c-.157.784-.32,1.567-.459,2.355a4.67,4.67,0,0,0-.043.818c0,.174.009.368.2.456a.451.451,0,0,0,.532-.143,2.11,2.11,0,0,0,.74-1.932c-.086-.42-.113-.851-.156-1.188M22.4,109.307a4.954,4.954,0,0,0,.309,1.946c.245.554.759.375,1.17.47.15.035.246-.067.3-.215a1.691,1.691,0,0,0-.537-1.746,1,1,0,0,1-.536-.955c0-.136-.021-.273-.031-.409-.019-.245-.066-.522-.359-.513s-.3.315-.314.543c-.017.292,0,.586,0,.879m39.462-2.6a6.364,6.364,0,0,0,.058.76c.037.2.049.511.325.469.227-.034.173-.321.149-.508a6.952,6.952,0,0,1,0-1.055c.053-2.148.918-4.112,1.385-6.165.035-.155.24-.367.015-.461-.241-.1-.385.151-.469.342-.125.284-.13.6-.25.9a22.151,22.151,0,0,0-1.212,5.719M22.405,58.944c-.027-.242.052-.542-.284-.572-.288-.026-.382.224-.453.456a.625.625,0,0,0-.053.227,3.338,3.338,0,0,1-.639,1.9,2.689,2.689,0,0,0-.241.532c-.092.343-.34.814.074.992.372.16.707-.209.925-.556.031-.049.047-.108.078-.157.549-.874.392-1.893.592-2.819m.1,56.354c-.017-.078-.03-.155-.05-.231a19.65,19.65,0,0,1-.821-3.055.984.984,0,0,0-.235-.4c-.1-.144-.228-.3-.433-.2a.406.406,0,0,0-.178.464,9.444,9.444,0,0,0,.931,3.308.816.816,0,0,0,.34.393c.279.13.46.081.447-.275M15.226,94.459c-.057-.219.053-.513-.23-.568-.263-.051-.322.234-.438.406a14.236,14.236,0,0,0-.917,2.41c-.111.253-.245.545.076.732s.534-.071.743-.286c.752-.769.535-1.8.765-2.694M72.1,108.671a.816.816,0,0,0,.235-.039,6.8,6.8,0,0,0,2.267-2.166.237.237,0,0,0-.009-.215.173.173,0,0,0-.261-.031c-.416.363-1,.494-1.368.869a1.6,1.6,0,0,1-1.214.574,4.384,4.384,0,0,0-.751.131.3.3,0,0,0-.267.2c-.039.136.046.223.159.278a2.558,2.558,0,0,0,1.211.4m-5.336-3.228c-.01.17-.018.247-.019.325,0,.279-.133.649.314.681s.542-.288.526-.664a3.8,3.8,0,0,1,.147-1.271c.147-.484.272-.975.38-1.469.045-.2.07-.473-.2-.544a.455.455,0,0,0-.583.359,9.366,9.366,0,0,0-.568,2.583M70.921,88.36a.412.412,0,0,0,.005-.139c-.028-.239.1-.6-.2-.662-.24-.051-.3.306-.409.5-.32.56-.114,1.347-.761,1.773-.033.022-.015.146,0,.217.136.536.284,1.065-.213,1.521a.238.238,0,0,0,.028.367c.144.1.246-.013.351-.107a1.866,1.866,0,0,0,.46-1.35c.019-.194-.045-.458.133-.549.644-.328.541-.928.6-1.572M21.949,94.928c-.039-.128.017-.28-.144-.311-.117-.023-.142.093-.195.176-.822,1.293-.846,2.83-1.3,4.236-.049.153-.056.4.158.453.24.063.258-.177.322-.333a34.164,34.164,0,0,0,.946-3.385c.084-.28.143-.568.209-.835m56.463,7.4c-.09.135-.158.231-.22.329a6.957,6.957,0,0,0-1.222,2.642c-.022.154-.06.334.118.417s.288-.071.393-.181a5,5,0,0,0,1.164-2.337,1.066,1.066,0,0,0-.234-.871m-4.447,7.4c.27-.044.368-.348.588-.5a10.514,10.514,0,0,0,1.546-1.585.376.376,0,0,0,.058-.531c-.193-.209-.35,0-.495.114a4.548,4.548,0,0,0-.343.32c-.5.5-1,.988-1.49,1.49a.524.524,0,0,0-.177.53c.038.127.146.175.313.164M21.532,64.88c-.261.16-.593.315-.718.619-.117.284-.459.611-.214.9a1.3,1.3,0,0,0,1.07.381.331.331,0,0,0,.307-.466,2.612,2.612,0,0,1-.162-1.092.3.3,0,0,0-.283-.345M86.865,81.04a20.249,20.249,0,0,0-.184,4c-.005.17-.05.47.216.455.22-.012.224-.3.226-.486a12.985,12.985,0,0,0-.258-3.97m-65.329-13.9c-.689.756-.411,1.613-.39,2.427.006.219.082.472.341.474.339,0,.308-.312.3-.528a5.228,5.228,0,0,0-.256-2.374m34.877,37.243c-.181-.132-.332-.038-.47,0-1.023.256-1.773,1.041-2.735,1.419a.2.2,0,0,0-.125.288.282.282,0,0,0,.41.1,10.264,10.264,0,0,0,2.92-1.8M20.766,75.478c0-.187.007-.247,0-.3-.023-.164.051-.413-.164-.448s-.225.224-.307.369a5.541,5.541,0,0,0-.446,2.155c-.014.111-.028.263.115.3.166.04.243-.105.284-.233a5.957,5.957,0,0,0,.52-1.835m2.66,14.912a1.894,1.894,0,0,0,.026.407c.1.35.283.728.686.644s.367-.481.261-.822a2.942,2.942,0,0,1-.09-.338c-.054-.287-.065-.641-.473-.605-.425.037-.414.393-.41.714m43.787-7.261c.132-.053.213-.06.23-.1a11.825,11.825,0,0,1,1.3-2.2.786.786,0,0,0,.117-.268c.043-.161.034-.324-.139-.4-.151-.07-.263.032-.353.139a5.045,5.045,0,0,0-.648,1.311,6.679,6.679,0,0,0-.511,1.52m12.823-15.6a9.59,9.59,0,0,0-.722-2.359c-.057-.149-.037-.435-.276-.355s-.224.358-.109.552a6.309,6.309,0,0,1,.7,2.216c.027.159-.01.43.223.4.253-.028.146-.311.187-.459m-49.9,35.876a3.322,3.322,0,0,0,0-.349c-.012-.117-.044-.24-.2-.238a.2.2,0,0,0-.19.19,11.227,11.227,0,0,0-.3,2.252c0,.134.011.3.2.3.145,0,.174-.137.185-.255a15.109,15.109,0,0,0,.31-1.9M74.757,83.977c-.167.188-.239.235-.262.3a10.826,10.826,0,0,0-.246,2.254.215.215,0,0,0,.124.169c.139.032.219-.081.247-.193a7.335,7.335,0,0,0,.135-2.529M77.83,63.849a1.325,1.325,0,0,0,0-.292c-.047-.2-.04-.518-.295-.495-.276.025-.247.342-.254.57a.4.4,0,0,0,.039.169c.18.4.365.806.546,1.209.064.142.129.344.313.265.242-.1.072-.284.01-.439-.13-.326-.545-.55-.355-.987M73.479,90.307c-.016.125-.1.3.105.325a.326.326,0,0,0,.34-.263c.09-.295.172-.593.242-.892.052-.221.051-.455-.237-.5s-.368.176-.392.4c-.032.307-.041.617-.059.925M21.251,78.222c.646-.271.607-.785.55-1.3-.013-.115-.058-.241-.195-.264-.179-.03-.239.12-.282.245a1.809,1.809,0,0,0-.074,1.319m54.055-21.1c.017.553.3,1.038.608,1.044.171,0,.241-.083.235-.254-.013-.4-.467-1.186-.672-1.146s-.162.228-.17.355M80.3,102.953c-.018-.208-.126-.371-.37-.324a.708.708,0,0,0-.555.735c-.016.186.023.38.278.344.416-.058.584-.351.647-.756m0-32.423.131-.007c-.03-.6-.055-1.2-.1-1.8-.011-.162-.1-.328-.294-.292s-.123.2-.1.336q.178.882.356,1.764m-62.163,7.6c-.035-.174.013-.511-.2-.471-.364.069-.329.466-.35.764-.011.158-.033.439.206.384.3-.07.343-.385.341-.678m6.214,27.921a2,2,0,0,0-.287,1.315.332.332,0,0,0,.122.177c.019.016.132-.03.137-.058a2.281,2.281,0,0,0,.029-1.433m55.942-16.63a9.959,9.959,0,0,0-.418,1.59c0,.115-.008.262.134.291s.181-.118.213-.224a3.569,3.569,0,0,0,.071-1.657M20.755,64.591a2.392,2.392,0,0,0-.183-.964c-.04-.15-.193-.207-.3-.016a.847.847,0,0,0,.479.981m65.553,36.666c-.011-.116-.024-.281-.206-.267-.3.024-.395.308-.474.527-.056.155.156.2.288.2.271-.006.346-.211.391-.461M78.091,66.264c.008.159-.012.344.2.359.2.013.267-.14.265-.308,0-.2-.065-.428-.3-.424-.2,0-.136.238-.171.374m1.6-3.382a1.028,1.028,0,0,0,.36,1.047,1.2,1.2,0,0,0-.36-1.047M76.817,82.248c.028.122-.038.328.139.329.209,0,.174-.214.174-.358,0-.129,0-.315-.177-.3s-.112.208-.136.33" transform="translate(-0.001 -29.439)" fill="#9f7f8e"/>
        <path id="パス_78" data-name="パス 78" d="M744.278,7.1a4.348,4.348,0,0,1-1.145,3.268,16.1,16.1,0,0,1-1.513,1.794,3.6,3.6,0,0,1-3.258,1.243c-.058-.01-.117-.013-.175-.02-1.941-.225-2.7.231-3.768,1.913a6.114,6.114,0,0,0-1.078,2.806c-.034.4-.269.68-.707.6a.851.851,0,0,1-.784-.814,5.831,5.831,0,0,1,.714-3.107c.254-.488.426-1.066.985-1.355.182-.094.1-.281.034-.421a.677.677,0,0,1,.25-.879,3.815,3.815,0,0,1,1.048-.748,2.194,2.194,0,0,0,1.023-.759,14.228,14.228,0,0,1,1.251-1.462c.464-.47.275-1.155.27-1.744,0-.4-.467-.426-.751-.569a3.563,3.563,0,0,0-1.848-.488.7.7,0,0,0-.743.582,8.873,8.873,0,0,1-.454,1.816,1.686,1.686,0,0,1-.865.911,9.725,9.725,0,0,0-2.446,1.37,1.908,1.908,0,0,1-2.014.2,4.2,4.2,0,0,1-2.313-2.392c-.845-2.213-.135-3.886,1.288-5.521a9.045,9.045,0,0,1,4.9-2.689c.694-.175,1.3-.65,2.069-.577.994.093,1.985-.157,2.989-.007a7.2,7.2,0,0,1,3.742,1.931,15.2,15.2,0,0,1,2.756,3.1,3.459,3.459,0,0,1,.549,2.021m-2.621,1.211c0,.117-.007.235,0,.352.018.24-.186.589.081.7.3.12.351-.3.493-.476a3,3,0,0,0,.1-3.382,21.655,21.655,0,0,0-1.453-1.675,1.839,1.839,0,0,0-1.344-.719c-.232-.022-.556-.281-.687,0s.256.387.437.534a5.65,5.65,0,0,1,2.375,4.668m-6.917-4.063a4.8,4.8,0,0,0-.655.092c-.2.058-.469.114-.452.381.019.292.3.276.5.265a6.272,6.272,0,0,1,3.286.639c.128.066.34.231.443-.026.067-.166-.081-.286-.225-.364a10.973,10.973,0,0,0-2.9-.987m-3.584,4.226c.174-.024.355.007.431-.169.295-.683.734-1.288,1.06-1.951.186-.378-.112-.648-.421-.775-.372-.153-.5.164-.511.443a4.412,4.412,0,0,1-.784,1.989c-.166.3-.171.486.224.464m3.009-6.5a16.325,16.325,0,0,1,2.245-.187c.261-.007.587-.074.589-.361,0-.327-.332-.418-.614-.4a5.05,5.05,0,0,0-2.339.428c-.227.136-.73.031-.638.423.076.325.477.03.756.094m4.055,10.175c.242-.063.666.093.681-.292a.6.6,0,0,0-.578-.615c-.3-.009-.877.426-.811.632.111.346.44.23.708.274" transform="translate(-640.185 0)" fill="#9f7f8e"/>
        <path id="パス_79" data-name="パス 79" d="M430.314,392.206a4.482,4.482,0,0,1-.818,2.889,1.1,1.1,0,0,1-.9.481,2.527,2.527,0,0,0-1.218.379,2.2,2.2,0,0,1-2.481-.365,4.32,4.32,0,0,1-1.275-3.672c.009-.273,0-.548-.011-.821-.029-.5-.236-.627-.669-.349a1.1,1.1,0,0,0-.644,1.148.753.753,0,0,1-.329.86,1.079,1.079,0,0,0-.322,1.074c.043.478-.116.884-.59.922s-.7-.358-.759-.814a.966.966,0,0,1-.028-.233c.1-.86.026-1.6-.955-1.96-.451-.168-.488-.617-.336-1.056a3.491,3.491,0,0,0,.2-1.562c-.025-.22-.03-.473.283-.47.286,0,.625,0,.66.414a1.421,1.421,0,0,0,.107.684.819.819,0,0,0,.77.446c.527-.015,1.319-1.116,1.2-1.625a6.134,6.134,0,0,1-.364-1.294c0-.2-.117-.479.146-.573a.722.722,0,0,1,.773.122,1.349,1.349,0,0,1,.3.356,1.5,1.5,0,0,0,1.945.742,1.862,1.862,0,0,1,.985.033,2.953,2.953,0,0,0,1.046.1,2.611,2.611,0,0,1,2.6,1.639c.166.393.507.7.547,1.158s.086.9.13,1.344m-2.632-.1c0-.219,0-.3,0-.375,0-.578-.26-.936-.664-.926a.852.852,0,0,0-.761,1.05,3.579,3.579,0,0,0,.387,1.166.608.608,0,0,0,.668.262c.278-.025.241-.252.263-.445.033-.291.084-.579.106-.732" transform="translate(-369.578 -341.124)" fill="#9f7f8e"/>
        <path id="パス_80" data-name="パス 80" d="M237.343,438.762c.215-.642-.254-.985-.794-1.283-.205-.113-.433-.189-.627-.319a.482.482,0,0,1-.155-.63c.106-.27.316-.25.539-.178a.418.418,0,0,0,.112.035c.324,0,.682.468.911.161a1.8,1.8,0,0,0,.414-1.422c-.093-.461-.193-.921-.282-1.383-.05-.257-.081-.532.2-.673a.5.5,0,0,1,.635.152c.245.276.484.2.783.045a7.913,7.913,0,0,1,2.39-.94,3.221,3.221,0,0,1,3.773,2.4,3.16,3.16,0,0,1-.212,2.987c-.277.363-.319.876-.6,1.268a1.866,1.866,0,0,1-2.449.887c-.935-.274-1.839-.643-2.8-.837-.275-.056-.383-.013-.407.215-.044.414-.175.833.3,1.157.4.27.02.424-.194.507a1.129,1.129,0,0,1-1.379-.784,3.883,3.883,0,0,1-.16-1.372m3.874-2.2a1.855,1.855,0,0,0,.4,1.269c.2.258.491.337.68.026a2.428,2.428,0,0,0,.366-2.116.737.737,0,0,0-.677-.474c-.322-.057-.445.142-.547.405a1.746,1.746,0,0,0-.221.891" transform="translate(-207.959 -381.38)" fill="#9f7f8e"/>
        <path id="パス_81" data-name="パス 81" d="M753.7,188.806a3.484,3.484,0,0,1-.555,2.29,1.781,1.781,0,0,1-.336.4c-1.049.767-3.777.913-4.772-.4a3.584,3.584,0,0,1-.4-3.553.7.7,0,0,1,.217-.272,29.114,29.114,0,0,1,2.445-1.684c1.194-.575,1.915-.21,2.716.838a3.156,3.156,0,0,1,.685,2.38" transform="translate(-659.337 -163.496)" fill="#9f7f8e"/>
        <path id="パス_82" data-name="パス 82" d="M137.54,674.429c.035-.254-.1-.56.422-.556.454,0,.4-.378.207-.693-.069-.113-.2-.213-.117-.366a.216.216,0,0,1,.258-.085c.194.037.222.187.244.351a11.163,11.163,0,0,0,1.18,4.02c.061.11.1.23-.027.309a.231.231,0,0,1-.317-.067c-.307-.5-.85-.882-.792-1.57a.555.555,0,0,0-.524-.652c-.389-.064-.6-.263-.534-.691" transform="translate(-121.333 -593.509)" fill="#9f7f8e"/>
        <path id="パス_83" data-name="パス 83" d="M393.721,588.148c-.571.009-.606-.035-.6-1.219,0-.416-.039-.926.589-.958a1.514,1.514,0,0,1,1.281,1.179c.01.4-.742.988-1.272,1" transform="translate(-346.833 -516.974)" fill="#9f7f8e"/>
        <path id="パス_84" data-name="パス 84" d="M369.953,537.406c-.388-.014-.732.009-.713-.462.016-.4.189-.685.632-.672.421.013.837.194.843.635.006.481-.449.5-.761.5" transform="translate(-325.762 -473.128)" fill="#9f7f8e"/>
        <path id="パス_85" data-name="パス 85" d="M241.893,278.927c.05-1.339.554-2.594.7-3.915a8.192,8.192,0,0,1-.7,3.915" transform="translate(-213.411 -242.63)" fill="#9f7f8e"/>
        <path id="パス_86" data-name="パス 86" d="M422.767,268.393c-.022.114-.012.265-.182.244a.275.275,0,0,1-.27-.26.254.254,0,0,1,.249-.274c.193-.009.19.155.2.289" transform="translate(-372.588 -236.535)" fill="#9f7f8e"/>
        <path id="パス_87" data-name="パス 87" d="M626.122,352.816v-1.17c.361.433.19.8.183,1.162l-.183.007" transform="translate(-552.398 -310.241)" fill="#9f7f8e"/>
        <path id="パス_88" data-name="パス 88" d="M628.245,371.384a2.732,2.732,0,0,1,.078,1.589,3.647,3.647,0,0,1-.078-1.589" transform="translate(-554.23 -327.655)" fill="#9f7f8e"/>
      </g>
    </g>
  </g>
</svg>
