<svg xmlns="http://www.w3.org/2000/svg" width="326.67" height="93.548" viewBox="0 0 326.67 93.548">
  <path id="パス_105" data-name="パス 105" d="M179.06,18a3.028,3.028,0,0,1-1.76.84V36.88q-.04.28-1,.72a4.268,4.268,0,0,1-1.76.44h-.48V35.4h-26.2l-.36-1.16h26.56V26.68H149.42l-.32-1.16h24.96V18.2H148.62l-.36-1.16h13.16V1.44l4.68.48q-.12.92-1.44,1.12v14h9l1.72-1.92Zm-.48-12.32q-.36.76-1.56.64a55.657,55.657,0,0,1-3.9,4.7,35.955,35.955,0,0,1-3.98,3.74l-.52-.4q1.28-2.08,2.74-5.02T173.9,3.6ZM148.9,3.92a15.528,15.528,0,0,1,5.64,3.96,6.661,6.661,0,0,1,1.8,4.08,2.421,2.421,0,0,1-.48,1.56,1.478,1.478,0,0,1-1.2.6,2.186,2.186,0,0,1-1.4-.56,13.681,13.681,0,0,0-1.68-4.68,31.052,31.052,0,0,0-3.12-4.68Zm68.28,2.4a2.445,2.445,0,0,1-1.64.84v29.4q-.04.24-1.04.68a4.608,4.608,0,0,1-1.84.44h-.52v-3.4H194.26v2.4q0,.36-.84.8a3.9,3.9,0,0,1-1.84.44h-.6V3.8l3.6,1.6h17.16l1.76-2Zm-5.04.24H194.26V19h17.88ZM194.26,33.12h17.88V20.16H194.26Zm46.96,2.6q8.32-2.52,8.32-12.6,0-5.92-2.36-9.48a6.7,6.7,0,0,0-2.8-2.3,9.793,9.793,0,0,0-4.28-.9,9.318,9.318,0,0,0-4.62,1.22,9.161,9.161,0,0,0-3.38,3.14A17.768,17.768,0,0,0,229.62,25a17.7,17.7,0,0,0,.9,5.3q.82,2.38,2.46,2.38,2.44,0,3.7-4.74t1.42-15.06l4.76.52q-.08.92-1.48,1.12a65.255,65.255,0,0,1-1.28,11.72q-1,4.32-2.7,6.14a5.34,5.34,0,0,1-4.26,1.74q-2.44.16-4.44-2.8a12.8,12.8,0,0,1-2.12-7.44,15.467,15.467,0,0,1,1.96-7.9,13.943,13.943,0,0,1,5.04-5.18A12.378,12.378,0,0,1,239.9,9a14.6,14.6,0,0,1,7.04,1.62,11.136,11.136,0,0,1,4.64,4.74,15.793,15.793,0,0,1,1.64,7.44q0,11.28-11.84,13.88ZM294.46,23.2a.926.926,0,0,1-.76.44,5.366,5.366,0,0,1-.76-.16,41.725,41.725,0,0,1-5.88,3.84,17.713,17.713,0,0,0,8.8,5.72l-.04.44a2.848,2.848,0,0,0-1.5,1.02,4.931,4.931,0,0,0-.9,1.94,19.381,19.381,0,0,1-5.88-5.12,21.373,21.373,0,0,1-3.4-8.04v10.8a6.06,6.06,0,0,1-.3,2.06,2.647,2.647,0,0,1-1.22,1.36,6.67,6.67,0,0,1-2.72.7,3.287,3.287,0,0,0-.72-2.08,5.328,5.328,0,0,0-2.92-1.08v-.56q3.32.24,4,.24a.931.931,0,0,0,.66-.18.8.8,0,0,0,.18-.58V28.24l-1.92,1.56q-2.96,2.52-6.08,4.92a1.347,1.347,0,0,1-.64,1.12l-2.48-3.16q2.6-1.04,11.08-5.12l.04.08V19.72h-9.2l-.32-1.2h9.52V14.24h-7.44l-.32-1.2h7.76V9.16h-8.64l-.32-1.12h12.28a65.663,65.663,0,0,0,2.36-6.76l4.44,1.32q-.28.8-1.48.76-2,2.36-4.32,4.68h3.8l1.96-2.4q2.28,1.76,3.52,2.92-.16.6-1,.6h-9.56v3.88h4.12l1.92-2.36q2.24,1.76,3.52,2.92-.16.64-1.04.64h-8.52v4.28h5.68l1.92-2.48a46.69,46.69,0,0,1,3.6,3.04q-.16.64-1.04.64H284.14v1.32a17.661,17.661,0,0,0,2.4,5.56q1.2-1.4,2.38-3.06t1.82-2.78ZM267.1,16.52a10.969,10.969,0,0,1,3.8,2.7,4.437,4.437,0,0,1,1.2,2.74,1.872,1.872,0,0,1-.4,1.24,1.249,1.249,0,0,1-1,.48,1.814,1.814,0,0,1-1.24-.56,16.4,16.4,0,0,0-2.36-5.68V37.12q0,.28-.8.66a3.783,3.783,0,0,1-1.64.38h-.64V20.72a30.984,30.984,0,0,1-5.6,8.28l-.56-.52q4.04-6.28,5.76-16.44h-5.04l-.32-1.16h5.76V1.36l4.52.48a1.243,1.243,0,0,1-.4.76,2.115,2.115,0,0,1-1.04.4v7.88h.96L269.9,8.4q2.16,1.84,3.32,3-.16.64-1.04.64H267.1Zm8.64-15.04a8.95,8.95,0,0,1,3.86,2.14,3.8,3.8,0,0,1,1.22,2.54,1.914,1.914,0,0,1-.44,1.28,1.4,1.4,0,0,1-1.12.52,2.076,2.076,0,0,1-1.32-.52,8.644,8.644,0,0,0-.86-2.92,13.985,13.985,0,0,0-1.74-2.8ZM273.7,21.16a9.254,9.254,0,0,1,3.92,2.04,3.543,3.543,0,0,1,1.24,2.44,1.838,1.838,0,0,1-.44,1.26,1.384,1.384,0,0,1-1.08.5,1.966,1.966,0,0,1-1.24-.48,7.477,7.477,0,0,0-.94-2.84,11.943,11.943,0,0,0-1.9-2.64Zm57.08-5.08q2.76,2.08,4.28,3.44-.12.64-1.04.64H318.54V33.68a5.548,5.548,0,0,1-.4,2.28,3.152,3.152,0,0,1-1.62,1.46,10.907,10.907,0,0,1-3.62.78,5.417,5.417,0,0,0-.44-1.4,2.314,2.314,0,0,0-.84-.92,12.283,12.283,0,0,0-4.76-1.28v-.64q6.08.44,7.2.44a1.322,1.322,0,0,0,.88-.22.967.967,0,0,0,.24-.74V20.16H298.82L298.46,19h16.72V12.32l2.72.28a43.364,43.364,0,0,0,3.9-3.12q2.02-1.8,3.54-3.44H302.86l-.32-1.16H325.9l2.16-2.04,3.6,3.2a2.7,2.7,0,0,1-1.72.48q-2.4,1.68-5.26,3.36a49.023,49.023,0,0,1-5.58,2.84l.8.08q-.12.84-1.36,1V19h9.92Zm23.64,21.4a5.46,5.46,0,0,1-4.14-1.9,6.911,6.911,0,0,1-1.58-4.7,5.634,5.634,0,0,1,1.08-3.48,6.923,6.923,0,0,1,2.7-2.18,7.617,7.617,0,0,1,3.18-.74q.32,0,1.6.16V14.92h-8.64l-.32-1.16h8.96V6.16l4.76.52q-.08.92-1.48,1.12v5.96h1.8l1.32-2.84,1.2,1.32,1.12,1.28a7.231,7.231,0,0,0,.64.76.906.906,0,0,1-.92.64h-5.16l-.04,10.52a26.774,26.774,0,0,1,5.32,2.44,1.877,1.877,0,0,1,.68.76,2.13,2.13,0,0,1,.24.96,1.308,1.308,0,0,1-.28.86,1.025,1.025,0,0,1-.84.34,3.335,3.335,0,0,1-1.56-.52,20.258,20.258,0,0,0-3.56-2.24v4.04A5.114,5.114,0,0,1,359,36.1,6.851,6.851,0,0,1,354.42,37.48Zm-10.28-2.32a1.218,1.218,0,0,1-.8.44q-.88,0-1.6-2a30.716,30.716,0,0,1-.92-8.88,155.062,155.062,0,0,1,1.2-17.44l4.64.8a1.068,1.068,0,0,1-.44.7,2.445,2.445,0,0,1-1.16.34,127.567,127.567,0,0,0-1.2,14.52q0,1.96.2,4.24l.04-.04a.361.361,0,0,0,.32.24q.48,0,1.56-1.08l.6.48q-1.68,1.84-1.68,5.76A2.781,2.781,0,0,1,344.14,35.16Zm10.28.4a2.592,2.592,0,0,0,2.1-.88,3.882,3.882,0,0,0,.74-2.56V26.84l-1.52-.28a5.638,5.638,0,0,0-3.64.96,3.679,3.679,0,0,0-1.56,3.24,5.209,5.209,0,0,0,1.08,3.64A3.651,3.651,0,0,0,354.42,35.56ZM110,92.68h-9.68q-6.12,0-8.4-3.04t-.04-8.16h.96q-1.12,4.16,1.08,6.12t9.92,1.56l7.88-.32A9.377,9.377,0,0,0,110,92.68ZM98.88,72.76l-.36-.72q3.8-3.2,4.72-4-.96-.2-2-.36a38.443,38.443,0,0,0-9.6-.32l.04-.88a70.618,70.618,0,0,1,9.64-1.5,20.8,20.8,0,0,1,6.6.46,3.132,3.132,0,0,1,2.02,1.12,2.213,2.213,0,0,1,.22,1.64,1.57,1.57,0,0,1-.52.84,1.328,1.328,0,0,1-1.04.16Q105.24,68.12,98.88,72.76Zm24.76,19.6-.32-.96q16.08.16,16.04-6.56.08-3.6-2.06-4.92a7.514,7.514,0,0,0-4.54-1.16,13.357,13.357,0,0,0-7.68,3.4q-.4.96-.84,1.92-.28.2-1.14-.22a4.364,4.364,0,0,1-1.5-1.22l-.36-.48q3.08-6.24,5.48-12.36h-7.96l-.32-1.16h8.76q1.16-3,2.16-6l4.64.92a1.436,1.436,0,0,1-.44.68,2.192,2.192,0,0,1-1.2.36q-.76,1.96-1.64,4.04h7.84l2.12-2.84q.04.04.7.58t1.54,1.3q.88.76,1.64,1.48a.922.922,0,0,1-.38.48,1.327,1.327,0,0,1-.7.16h-13.2q-1.96,4.76-4.24,10.08a12.508,12.508,0,0,1,6.4-2.88,12.036,12.036,0,0,1,7.48,1.16q3.64,1.8,3.4,6.68Q142.76,94.68,123.64,92.36Zm31.52.08-.32-.92q16.08.2,16.04-7,.08-3.84-2.06-5.26a6.973,6.973,0,0,0-4.54-1.22,14.683,14.683,0,0,0-8.48,3.92l-.04,1.16q-3.28,1.88-3.24.68l.36-12.84,4.76.52a1.291,1.291,0,0,1-.4.7,2.111,2.111,0,0,1-1.12.42l-.28,7.92q4.2-3.84,8.12-4.28a11.458,11.458,0,0,1,7.48,1.22q3.64,1.9,3.4,7.06Q174.28,94.92,155.16,92.44Zm13-24.2a30.266,30.266,0,0,0-5.66-1.3,55.013,55.013,0,0,0-8.14-.54l-.08-.88a28.378,28.378,0,0,1,8.28-1.74,17.636,17.636,0,0,1,5.4.7,3.611,3.611,0,0,1,1.98,1.12,1.667,1.667,0,0,1,.22,1.64,1.493,1.493,0,0,1-.72.84A1.993,1.993,0,0,1,168.16,68.24Zm29.12,23.48q8.32-2.52,8.32-12.6,0-5.92-2.36-9.48a6.7,6.7,0,0,0-2.8-2.3,9.793,9.793,0,0,0-4.28-.9,9.318,9.318,0,0,0-4.62,1.22,9.161,9.161,0,0,0-3.38,3.14A17.768,17.768,0,0,0,185.68,81a17.7,17.7,0,0,0,.9,5.3q.82,2.38,2.46,2.38,2.44,0,3.7-4.74t1.42-15.06l4.76.52q-.08.92-1.48,1.12a65.255,65.255,0,0,1-1.28,11.72q-1,4.32-2.7,6.14a5.34,5.34,0,0,1-4.26,1.74q-2.44.16-4.44-2.8a12.8,12.8,0,0,1-2.12-7.44,15.467,15.467,0,0,1,1.96-7.9,13.943,13.943,0,0,1,5.04-5.18,12.378,12.378,0,0,1,6.32-1.8A14.6,14.6,0,0,1,203,66.62a11.136,11.136,0,0,1,4.64,4.74,15.793,15.793,0,0,1,1.64,7.44q0,11.28-11.84,13.88Zm19.2-1.28,1.64-.52V62.96l4.76.52q-.08.92-1.48,1.12l-.04,24.36q9.08-3.04,18.44-14.2l.96.48q-8.88,14.12-21.84,17.92.12.64-.68,1.28Zm38.64,4.24q-.72-3.16-2.6-3.48v-.56q2.72.28,3.28.28.88.04.96-.4V69.48H245.72l-.32-1.16h11.36V61.68l4.76.52a1.087,1.087,0,0,1-.36.7,2.111,2.111,0,0,1-1.12.42v5h5.16l2.12-2.84q.04.04.7.58t1.54,1.3q.88.76,1.64,1.48a.921.921,0,0,1-.38.48,1.327,1.327,0,0,1-.7.16H260.04V90.44a3.3,3.3,0,0,1-1.34,2.88A6.876,6.876,0,0,1,255.12,94.68ZM247,93.64l-.44-.44a66.292,66.292,0,0,0,1.88-16.92V74.32l4.76.52a1.087,1.087,0,0,1-.36.7,2.111,2.111,0,0,1-1.12.42l-.04.28Q251.64,87.44,247,93.64Zm21.04-1.04a1.437,1.437,0,0,1-1.06-.42,2.118,2.118,0,0,1-.54-1.22q0-2.2-.48-6.78t-1.44-9.5l.8-.16a23,23,0,0,1,3.44,8.12,38.1,38.1,0,0,1,1.08,7.08,3.5,3.5,0,0,1-.36,2.2A1.531,1.531,0,0,1,268.04,92.6Zm-.48-28.72a4.029,4.029,0,1,1,2.86-1.18A4.019,4.019,0,0,1,267.56,63.88Zm0-1.48a2.527,2.527,0,1,0-1.82-.74A2.6,2.6,0,0,0,267.56,62.4Zm8.72,18.24-.52-4.44h18.28q-1.36,2.88-3.56,2.92l-13.08.04a2.112,2.112,0,0,1-.42,1.12A1.087,1.087,0,0,1,276.28,80.64Zm24.76,13.72V62.16l4.76.52a1.087,1.087,0,0,1-.36.7,2.111,2.111,0,0,1-1.12.42v9.56a35.406,35.406,0,0,1,8.44,2,24.535,24.535,0,0,1,5.44,3,4.741,4.741,0,0,1,1.72,1.82,1.333,1.333,0,0,1-.2,1.5,1.3,1.3,0,0,1-1,.44,3,3,0,0,1-1.4-.44,43.883,43.883,0,0,0-5.52-3.64,72.921,72.921,0,0,0-7.48-3.64l-.04,19.28Q301.04,95.56,301.04,94.36Zm36.4-.6a3.677,3.677,0,0,0-.18-1.4,2.172,2.172,0,0,0-.74-1.04,22.118,22.118,0,0,0-3.72-1.52l.04-.68q2.76.36,3.96.44t1.76.08a3.289,3.289,0,0,0,1-.12,1.985,1.985,0,0,0,.68-.4q.8-.76,1.6-5.36a22.806,22.806,0,0,0,.08-8.28q-.72-3.64-7.28-3.16A158.07,158.07,0,0,1,330.2,93.4q-.28.2-1.16-.1a4.488,4.488,0,0,1-1.64-1.02l-.4-.44a111.187,111.187,0,0,0,4.4-19.24,26.845,26.845,0,0,0-4.64,1.16L326,71.88q1.96-.24,5.6-.64.52-3.8.88-7.96l4.68.72a1.2,1.2,0,0,1-.4.68,2.389,2.389,0,0,1-1.2.4q-.32,2.96-.72,5.84,7.48-.84,9.56,2.72,2.16,3.68,1.1,10.06t-2.62,8.14a5.729,5.729,0,0,1-2.28,1.46A9.637,9.637,0,0,1,337.44,93.76Zm12.48-16.6a23.817,23.817,0,0,0-1.08-4.2,19.759,19.759,0,0,0-2.32-4.58,16.2,16.2,0,0,0-3.84-3.98l.28-.44a18.686,18.686,0,0,1,7.52,4.74,9.8,9.8,0,0,1,2.62,5.16,4.4,4.4,0,0,1-.72,3.5Q351.4,78.44,349.92,77.16ZM363.2,92.44l-.32-.92q16.08.2,16.04-7,.08-3.84-2.06-5.26a6.973,6.973,0,0,0-4.54-1.22,14.684,14.684,0,0,0-8.48,3.92l-.04,1.16q-3.28,1.88-3.24.68l.36-12.84,4.76.52a1.291,1.291,0,0,1-.4.7,2.111,2.111,0,0,1-1.12.42l-.28,7.92q4.2-3.84,8.12-4.28a11.458,11.458,0,0,1,7.48,1.22q3.64,1.9,3.4,7.06Q382.32,94.92,363.2,92.44Zm13-24.2a30.266,30.266,0,0,0-5.66-1.3,55.013,55.013,0,0,0-8.14-.54l-.08-.88a28.378,28.378,0,0,1,8.28-1.74,17.636,17.636,0,0,1,5.4.7,3.611,3.611,0,0,1,1.98,1.12,1.667,1.667,0,0,1,.22,1.64,1.493,1.493,0,0,1-.72.84A1.993,1.993,0,0,1,376.2,68.24ZM407.64,57.4q0,4.76,4.64,8.8,5.16,4.48,5.16,9,0,4.36-3.36,9.76h-1.04q1.08-2.28,1.8-4.3a12.131,12.131,0,0,0,.72-4.1,9.383,9.383,0,0,0-.96-4.22,9.48,9.48,0,0,0-2.62-3.26,8.883,8.883,0,0,0-3.74-1.76V87.4a6.359,6.359,0,0,1-1.02,3.56,6.8,6.8,0,0,1-2.7,2.4,7.94,7.94,0,0,1-3.6.84,4.436,4.436,0,0,1-2.6-.78,2.507,2.507,0,0,1-1.12-2.18,4.151,4.151,0,0,1,1.04-2.64,7.84,7.84,0,0,1,2.66-2.08,7.223,7.223,0,0,1,3.22-.8,7.024,7.024,0,0,1,1.38.14,4.067,4.067,0,0,1,1.14.38V57.4Z" transform="translate(-90.77 -1.28)" fill="#fff"/>
</svg>
