<svg xmlns="http://www.w3.org/2000/svg" viewBox="0 0 884.24 949.22"><defs><style>.cls-1{fill:#9f7f8e;}</style></defs><g id="レイヤー_2" data-name="レイヤー 2"><g id="レイヤー_1-2" data-name="レイヤー 1"><path class="cls-1" d="M466.31,92.31c-5.61-9.66-1-18.88,9-19.76,6.07-.54,11.57-3.5,18-2.92,16.88,1.52,33,5.3,48.06,13.26,5.89,3.11,12.16,5.61,17.73,9.21,16.22,10.49,31.51,22.18,44.2,36.93,11,12.86,22.59,25.34,32.9,38.77,9.07,11.81,16.37,25,24.8,37.26,11.67,17,19.73,35.78,28.49,54.23a105.26,105.26,0,0,1,5.8,15.39c4.87,16.64,12,32.44,17.45,48.86q7.86,23.63,13.82,47.77c4.24,17.15,11.94,33.05,18.5,49.39,7.89,19.63,17.19,38.83,20.54,60.27a361.73,361.73,0,0,1,4.43,41.1c.54,13.34-2.5,26.1-4.9,39-2.84,15.22-7.94,29.54-17.13,42.19q-3.36,4.62-6.71,9.28c-.49.67-1.31,1.38-1.31,2.08-.07,7.26-5.5,6.58-10.42,8.13-11.7,3.7-24.22,6.12-33.45,15.25-3.65,3.61-8.66,4.83-12.54,8.07a94.59,94.59,0,0,0-11.67,11.5c-3.71,4.34-9.5,6.89-14.73,8.34-9.63,2.67-16.09,8.09-16.58,17.85a114.45,114.45,0,0,1-2,13.77c-.29,1.65-.92,3.65.53,4.73,7.42,5.56,12.54,13.3,21.9,17.31,17.36,7.42,35,14.68,50.77,25.49,6.63,4.54,12.9,9.85,21.33,11.38,3.23.59,4.7,3.7,5,7.3,1.14,15.6,2.27,31.2,3.85,46.75.83,8.13,3.9,15.83,6,23.7,3,11.08,6,22.17,7.2,33.62a51.66,51.66,0,0,1,.13,9.47c-.26,3.19-2.22,3.47-4.49,1.69-2.06-1.61-3-4.05-3.68-6.43-2.75-9.38-5.37-18.8-8-28.23-2.79-10.1-5.66-20.18-8.2-30.34-2.32-9.27-2.35-18.81-2.39-28.31,0-4-.36-8-.47-11.95-.15-5.24-2.56-8-6.91-10.41-8.56-4.76-16.63-10.35-24.82-15.76-9.7-6.41-20.66-10.74-31.49-15-10.07-4-19.28-8.92-26.35-17.37-2.77-3.31-5.09-2.52-6.54,1.93-5.33,16.3-9.39,33-14,49.49-5.5,20-7.55,40.47-10,60.91a40,40,0,0,1-2.57,9.61c-1.22,3.17-2.89,2.71-4.59.28-2.3-3.31-1.71-7-1.43-10.65,1.12-14.74,3.13-29.39,4.83-44.07,1-8.68,4.87-16.56,6.33-25.11,1.42-8.36,5.18-16.18,7.35-24.25,3.24-12.11,8.44-23.92,8.42-36.82a4.85,4.85,0,0,1,.94-3.25c3.28-3.06,2.09-3.85-1.56-5.35a30,30,0,0,0-12.56-2.42c-9.43.25-18.53-1.69-27.42-4.64-2.93-1-4.95-3.15-6.85-5.57-2.57-3.26-4.21-7.22-7.46-10-1-.87-2.18-1.75-3.61-1.18-1.66.66-1.84,2.22-1.84,3.77,0,.67-.17,1.48.14,2,7.07,11.46-.28,20.36-5.58,29.29-5.47,9.2-9.1,19.26-14.32,28.56-1.26,2.24-1.06,4.5,1.37,6.13.94.62,2.17,1.25,1.57,2.72a2.49,2.49,0,0,1-2.48,1.39c-5-.06-7.37,3.26-9.29,7.13-3.48,7-6.88,14-10.36,21.06-3.64,7.32-1.75,11.46,6.35,12.82a34.15,34.15,0,0,0,11.44.33c9-1.6,13.6,3.67,17.64,10.12,6.14,9.79,13.87,18.26,22,26.3,6.85,6.74,12.14,14,12.32,24.07,0,1.65.2,3.54-2,4.05a3.55,3.55,0,0,1-4.11-2.18c-1.31-3-3.94-5.35-4.53-8.79a6.26,6.26,0,0,0-1.89-3.42c-11.84-10.08-21-22.58-31-34.32-7.79-9.17-18.33-8-28.69-6.6-2.72.38-3.86,2.88-5,5.17-4.48,9-6.86,18.73-10.37,28.06-1.08,2.87-3.06,5.67-1.63,9.07a1.86,1.86,0,0,1-.87,2.16c-5.27,4-6.79,9.91-8.46,15.88a42.86,42.86,0,0,1-4.1,9.61A159.3,159.3,0,0,0,479.78,894c-3.38,11.92-7.31,23.46-13,34.36-2.39,4.59-6.09,8.55-9.48,12.56-1.38,1.64-2.89,3.18-4.13,5-3.1,4.46-5.27,4.57-8.06-.21-2.68-4.58-5.76-9.35-6.71-14.41-1.6-8.47-4.76-16.33-8.25-24-4.46-9.75-6-20.47-10.84-30-2.13-4.17-4.07-9-10.12-9.28-1.56-.07-2.44-2-1-2.9,6.52-4.33,1.68-8.84.33-13.14-4.27-13.65-12.13-25.82-16.31-39.58-2.27-7.49-7.71-9.44-14.06-4.25-5.91,4.83-12.55,8.77-18.34,13.72-8.2,7-15.9,14.59-21.86,23.68-1.6,2.43-3.07,4.1-6.25,3.95s-4.26-2.11-5.06-4.63c-3.18-10.16-5.82-20.46-10.17-30.26-4.61-10.39-11-19.77-16.66-29.48-4.71-8-13.92-9.57-21.33-5.32-5.88,3.38-6.24,7.36-1,11.47,1.9,1.47,1.88,3.24-.33,3.56-4.67.69-6.5,4.35-8.82,7.45a17.83,17.83,0,0,1-9.09,6.51c-12.45,4.18-25.1,7.92-36.49,14.77-4.57,2.75-7.94,7.08-12.83,9.39-1.49.71-2.74,2.1-4.28,2.51-11.54,3-16.23,12.35-20.85,21.93-3.89,8.07-6.68,16.78-12.12,24-7.76,10.28-13.17,22-20.23,32.61-5.05,7.62-9.27,15.77-14.82,23-1.91,2.5-4.37,6.36-8,3.43-3.14-2.51-1.55-6.2.67-9a199.5,199.5,0,0,0,16.18-23.95c9.89-16.76,19.28-33.82,28.88-50.75,2.34-4.13,4.32-8.26,2.32-13.22a3.19,3.19,0,0,1,2.13-4.42,20.26,20.26,0,0,0,9.27-6.48,4.13,4.13,0,0,1,2.17-1.18c18.3-4.3,31.54-16.48,44.5-28.89a105.25,105.25,0,0,1,18.36-14.39c5.43-3.29,10.42-7.69,12.88-14.08a31.11,31.11,0,0,1,2.86-5.25c1.6-2.56,4.08-3.31,6.94-2.87,2.67.41,3.87,2.36,4.53,4.74.39,1.4.32,3.36,2.4,3.17,1.76-.16,1.36-2,1.66-3.24a9.23,9.23,0,0,1,3.26-4.92c10.29-8.5,18.94-18.69,28.58-27.85,8.09-7.69,14.74-16.59,22.3-24.71,2.58-2.77,3.23-6.55,5.72-9.33,1.06-1.18.27-2.42-.84-3.44-3.85-3.54-7.95-4.32-13.29-3.32-23.07,4.29-43.2,16.07-64.57,24.67a22.8,22.8,0,0,1-10.08,2.09c-5.82-.3-10.82,3-16.08,5-4.86,1.86-9.61,4-14.75,5.3,4.51-5.22,10.25-8.47,16.29-11.39,9.28-4.48,19.23-7.49,28.19-12.67,1.49-.87,4-1.42,3.29-3.74-.61-2.12-2.93-1.85-4.72-1.82a35.94,35.94,0,0,0-7,.47c-2.85.6-5.18.7-6.84-2.28a3.26,3.26,0,0,0-4.3-1.64c-4.16,2.08-9.18,1.1-13.13,4.32-3,2.47-6.15.78-6-3.16.32-8.84-.89-17.62-.93-26.39-.05-11.9,3.68-23.22,8.35-34.16.58-1.37,1.52-2.84,1.44-4.2-.67-10.66,3.65-20.57,4.6-31,.64-7,4.63-13.78,7.14-20.64,1.65-4.54,2-8.55-3.7-10.54-1.33-.46-1.95-1.7-2.55-2.94-5-10.32-10.17-20.58-15.07-31-1.36-2.88-3-3.09-5.54-1.95a16.11,16.11,0,0,0-9.26,11.16c-1.65,6.44-2.62,13.06-3.67,19.63-.32,2-1,5,1.82,5.5,3,.55,2.29-2.29,2.68-4.18.49-2.34,4.12-2.54,6.12-.47,1.59,1.64,1.57,3.73,1.06,5.64-2.81,10.47-3,21.31-4.6,31.95-.34,2.31-1.05,6.25,1.25,6.81,2.77.67,3.53-3.23,4.66-5.47a68.19,68.19,0,0,0,3.22-7.81c.77-2.2,2.25-3.65,4.43-3s1,2.82.61,4.29c-2.47,10.17-5.42,20.31-7.25,30.54-3.46,19.4-9.24,38.54-7.67,58.73.31,4.05-2,8.41-1.63,13,.3,3.94,1.33,6.79,5.35,8,.94.27,2.15.37,2.1,1.67-.06,1.52-1.37,1.77-2.55,1.85-2.49.17-5.29.58-6.9-1.81-2.12-3.15-5.49-5.45-6.61-9.26-1.36-4.62-4.59-4-8-3.06s-6,2.59-5.16,7c2.16,11.53,6.58,21.61,16.89,28.25,1.2.77,3,1.43,2.66,3.23s-2.13,1-3.36,1.25c-2.95.63-1.42,2.29-.73,3.73.4.85,1.31,1.79.26,2.65a2.27,2.27,0,0,1-2.82-.16c-6.29-5.5-15.49-4.89-21.69-11.46-7.46-7.91-13.09-16.34-14.33-27.1-1.74-15-8.78-28.11-14.7-41.62a14.35,14.35,0,0,0-3.34-4.33c-15.3-14.58-22-33.23-25.55-53.42-.57-3.27-1.45-6.49-2.2-9.72-.19-.82-.47-1.81-1.37-1.91-1.19-.13-1.71,1-2,1.88-1.21,3.62-2.8,7.21-3.41,10.94-3.39,20.76-5.37,41.63-2.91,62.65.77,6.6,1.9,13.19,4.54,19.39.63,1.47,1.08,3.64,3.22,3,1.78-.51,1.51-2.74,1.12-3.94-2.36-7.15-2-14.73-3.86-22-3.36-13.39-3.08-26.89-1-40.71,2.33.94,1.58,2.48,1.63,3.59.35,8.82,0,17.72,1,26.46a235.43,235.43,0,0,0,5.64,31.56c1,4.09,4.07,7.86,5.34,12.2a3.36,3.36,0,0,0,3.48,2.39c1.83-.07,2.54-1.28,2.67-3,.08-1,0-2.24,1.34-2.26A2.34,2.34,0,0,1,144,704c.28,2.76.32,5.54.44,8.09-2.67,1.4-2.57-3.88-4.9-1.61-1.69,1.65-.92,4-.4,6.17.38,1.59,2.27,3.79,0,4.85s-3.48-1.24-4.49-3-2.07-3.8-3.16-5.66c-.69-1.16-1.62-2.57-3.11-1.6s-.71,2.5,0,3.58c6.46,9.38,11.19,20.27,22.77,25.71-4.65.85-10.43-1.55-14-4.3-10.2-7.89-15.81-19-21.45-30-2.78-5.45-7.32-9-12.36-11.87-3.19-1.84-5.67-.3-5.06,3.18,1.89,10.93,3.7,21.92,8.82,32a24.1,24.1,0,0,0,4.82,6.31c2.36,2.32,6.06,4.15,3.66,8.6a2,2,0,0,0,.63,1.77c5.67,4.06,9.81,10.79,18.13,10.29,1.47-.08,4-.43,3.92,1.9-.12,2.81-2.73,1.67-4.35,1.62-16.92-.56-26.54-11.33-34.19-24.72-1.31-2.29-2.07-4.9-3.2-7.31-.53-1.16-1-2.85-2.61-2.59s-1.54,2-1.44,3.27c.28,3.32-.21,7.16,1.29,9.82,4.23,7.48,6.31,16.06,12.35,22.62,9.63,10.43,22.08,14.24,35.47,16.25,4.88.73,9.73,1.69,15.31,2.67-2.47,2.81-5.28,2.46-7.67,2.5-14.37.23-28.37-1.84-40.66-9.77a56.25,56.25,0,0,1-23.31-30.08c-7.55-22.26-4.38-45.09-4.45-67.75,0-15.69,2.41-31.22,4.83-46.65,1.86-11.92,6-23.45,8.56-35.29,2.61-12.3,9.6-23,12.33-35.2.22-1,.71-1.88,0-3-2-.46-3.07,1.22-3.89,2.31C90,573.91,74.11,588.11,62.63,606c-4.48,7-10.48,13-14.93,20-11.16,17.49-22.5,34.83-29.35,54.78C14.42,692.18,9.8,703.41,8.1,715.44c-1.36,9.69-2.55,19.56,2,28.93.43.88,1,1.93-.21,2.62-.83.48-1.64-.11-2.24-.66-1-.91-2.22-1.78-2.65-2.93C1.69,734.66-1.09,726,.43,716.22,3.76,694.75,9.8,674.16,21,655.61c6.21-10.27,11.29-21.25,19.77-30.35,7.28-7.82,12.59-17.49,19.5-25.84,11.65-14.07,22.77-28.58,34.43-42.64,10.21-12.31,19.69-25.07,27.09-39.31,2.26-4.34,3-8.44-1-12.3-1.06-1-1.61-2.64-2.75-3.52-7.83-6-9.54-15.29-12.85-23.7-10-25.51-6.47-52.17-6.45-78.5,0-21.68,6.13-42.38,10.42-63.42,3-14.93,8-29,13.41-43.14.6-1.57,1.25-3.34-.42-4.57-1.29-.95-2.68,0-3.58.9-5.92,6.24-12.85,11.88-17.29,19.06-3.71,6-8.24,11.24-12.56,16.54A261.81,261.81,0,0,0,54.88,379.2c-3.35,7.12-2.62,15.36-4.43,22.93-2,8.3-1.37,16.53-.34,24.82a33.53,33.53,0,0,1,.23,4.48c0,.81-.14,1.75-1.12,2s-1.54-.4-1.91-1.19c-1-2.11-2.49-4.15-2.82-6.36-2.69-18-1.23-35.47,5.4-52.85,6.22-16.32,17-29.21,27.62-42.33,12-14.81,25.55-28.27,37.7-42.89q13-15.66,25.62-31.75c1.49-1.91,2.12-4.47,3.35-6.62,4.85-8.52,9.86-17,14.68-25.49,7.81-13.85,16-27.51,23.09-41.74,6.1-12.26,15.64-22.15,21.93-34.32,2.69-5.19,7.44-10,11.73-14.63A77.65,77.65,0,0,0,226,118.77c1.88-3.31,4-5,7.5-4.15,7.69,1.81,12.33-2.14,17.55-7.16C262.6,96.33,275,86.11,289.57,78.9c7.53-3.72,13.28-10.67,21.68-12.94,9.82-2.67,18.73-8.8,28.5-10.24,15.37-2.26,29.49-9.92,45.8-8.54a87.93,87.93,0,0,1,41.54,13.87c5,3.26,9,6.56,10.68,13,.77,2.89,5.68,5.14,9.15,6.69,2.19,1,2.84-1.79,3.52-3.78,4.42-12.78,9.89-25,18.66-35.55,3.5-4.21,8.94-4.6,13.13-7.46,1.84-1.26,4.88-.08,7.14,1.17,1.53.85,3,2,2.07,3.93s-2.77,1.25-4,.54c-3.92-2.34-5.47-1.7-7.76,2.81-2.76,5.42-9,8.69-11.15,15-2.69,8.05-6.92,15.43-10.49,23.1-3.67,7.89-4.66,16.25-4.64,24.82a13.2,13.2,0,0,0,1.32,5.78c2.69,5.59,5.78,6.33,10.45,2.18,3.68-3.29,8.08-3.81,12.59-3.53,2.68.17,5.21,1.4,5.95,4.51s-1.61,4.16-3.62,5.77c-5.81,4.64-12.77,7.54-17.95,13.28-6.06,6.74-18.3,4-20.33-5-1.74-7.65-5.79-13.64-9.41-20.1a15.49,15.49,0,0,1-.72-1.66c8.81-3.38,11.21,3.84,14.94,8.86.82,1.11,1.19,3.46,3.07,2.23s1.19-3.34-.39-4.62c-3-2.43-3.18-5.82-4.15-9.21-1.87-6.55-3.88-13-4.24-19.83-.12-2.44-2.52-2.86-4.65-2.66s-4-.41-5.06-2.41c-5.8-11.1-16.06-16-27.08-20.34-11.95-4.67-23.91-2.32-35.89-1.11-2.35.24-4.57,1.89-6.82,3-.73.34-1.59.84-1.15,1.87s1.31.84,2.15.82c1.8,0,4.79-1.6,4.89,1.11.1,2.47-3.23,2.35-5.31,2.35-4.69,0-9.62,1.87-14-1.6a3.38,3.38,0,0,0-2.43-.32C335.7,66.49,325.67,67.15,317,74c-4.82,3.81-10.84,6.71-16.66,9.37-9.69,4.45-18,11.08-27.08,16.58-18.19,11-31.53,27.31-45.55,42.83-1.83,2-3.17,5.14-6.58,1.7-1.22-1.22-2.26.48-3.28,1.3-8.35,6.77-12.67,16.52-18.79,25-10.41,14.34-17.67,30.45-26.84,45.47-1.39,2.27-2.56,4.67-3.83,7-3.44,6.36-3.21,7,3.72,8.89-2.34,1.37-2.15,5.77-6.35,3.78-1.12-.53-1.65.3-1.57,1.17.27,3.08-1.72,4.95-3.58,6.83-13.83,14-22,31.37-29.08,49.4-6.64,16.88-12.73,33.86-14.88,52-.63,5.35-4,9.89-4.94,15.5a213.44,213.44,0,0,0-2.51,25.22c-.92,22.62-3,45.22-1.28,67.9a85.94,85.94,0,0,0,11,35.83c1.45,2.61,3.24,5,4.48,7.77,1.14,2.55,4.09,3.75,5.51,1.19,4.23-7.63,11.45-14.38,8.75-24.53a34.75,34.75,0,0,0-1.48-4.74,70.89,70.89,0,0,1-4.91-18.77c-2.64-19.93-3.38-39.95.06-59.7,2.42-13.95,4.64-28,8.05-41.82,2.41-9.8,5.59-19.4,7.76-29.31,2.41-11.08,7.69-21.56,11.88-32.23q7.75-19.72,15.78-39.35c2.66-6.51,7-12.07,10.56-18.09.91-1.57,2.44-3,1.5-5s-2.74-1.4-4.39-1.14c-1,.15-2.21.34-2.42-1a4.22,4.22,0,0,1,1.59-3.51c4.09-4.15,8.31-8.17,12.34-12.38,9.34-9.71,16-21.62,25.31-31.3,8.65-9,12.2-21.65,22.16-29.59,5.95-4.75,11.33-10.47,19.95-9.66,2.42.23,3.81-1.2,5.3-3,6.78-8.33,11.43-17.95,16.83-27.11,2.2-3.72,4.32-7.43,7.29-10.62,1-1.11,1.89-3,3.45-2.09,2.05,1.13,0,2.72-.54,3.71-6,10.33-11.33,21.08-18.56,30.7-2.68,3.56-4.58,7.72-6.69,11.68-1,1.83-2,3.37-4.07,4.13-2.56,1-4.37,3-6.29,4.84-2.82,2.76-4.83,7-10.17,5.37-1.1-.33-2.81.84-3.22,2.55.72,1.88,3.74-.44,3.88,2.06.11,2-1.73,3.07-3,4.34-8.79,8.61-18.58,16.45-26.07,26.07-10.75,13.79-18.81,29.15-20.38,47.36-1.39,16-4.59,31.91-5.45,48q-.49,9.48-.66,19c-.06,3.2,0,6.34-2.2,9-.65.78-1.26,1.77-.64,2.74,4.8,7.53,1.78,15.82,2.33,23.75.23,3.32-.1,6.67.15,10,.13,1.74.6,4.11,3,3.84,2.13-.24,1.87-2.47,1.81-4.09-.25-7.16-1.08-14.38,0-21.46,1.3-8.61,1.41-17.33,3.06-25.91,1.5-7.85.11-16,1.5-23.9,1.84-10.5,3.94-20.93,7.59-31,2.89-8,4.72-16.25,8.21-24,2-4.44,4.25-8.29,9.07-10,1.11-.39,2.41-.84,3.25.26,1,1.33-.22,2.13-1.14,2.79-2,1.44-2.93,3.67-3.75,5.8-5.5,14.26-10.62,28.56-12.67,43.91-1.78,13.36-4.07,26.64-4.46,40.15-.07,2.34-1,6.22,1.67,6.53s3.26-3.5,3.94-6.08a415.6,415.6,0,0,1,17.17-52.06,32.59,32.59,0,0,1,6.23-9.59c.88-1,1.85-2.32,3.3-1.25,1.29.95.12,2.09-.32,3.1-5,11.4-9.26,23-13.57,34.68-3.89,10.51-4.92,21.3-7.74,31.82-1.74,6.47-1.73,13.56-5.86,19.34a4.29,4.29,0,0,0-.55,2.4,29.56,29.56,0,0,1-3.29,14.23c-2.18,4.21-1.47,9.74-2.15,14.67-1,6.89-.8,13.95-1,20.94,0,1.53-.29,3.82,1.81,4.14s2.5-1.86,3.22-3.31c2.57-5.24,3.61-11,6-16.37,5.43-12.22,13.47-22.93,19.26-34.94,2.34-4.84.75-10.21,3.37-14.82,1-1.7,1.07-3.95,3.67-4.16,3.19-.26,4.16-2.23,4-5.16-.27-5.19,2.22-9.75,4-14.28,3.14-7.87,2.44-16,3.19-24.09.11-1.11.07-2.5-1.28-3-1.12-.4-1.83.5-2.46,1.28s-1,1.53-1.95,1.2a2,2,0,0,1-1.16-2.5c1.23-6.85,1.82-13.87,4.72-20.31,1.29-2.87,2.89-3.59,4.76-.21.8,1.45,1.53,3.9,3.93,2.79,1.87-.87,1.71-2.93,1.6-4.86-.58-10.92,1.44-21.86-.31-32.78-.2-1.25-.19-3.09,1.42-3.31,1.89-.26,2.31,1.62,2.67,3,2.08,8.37,1.46,16.89,1.27,25.38-.16,7.17-1.12,14.19-3.89,20.9a9.38,9.38,0,0,0-.4,3.45,126.28,126.28,0,0,1-9,46.2c-2.19,5.53-4.92,11.77-2.27,18.77a24.76,24.76,0,0,0,8.23-12.23c4.68-15.39,11.71-30.08,13.4-46.37,1.5-14.46,1.47-28.93,1.08-43.42-.06-2.55-1.29-6.58,1.58-7,3.56-.56,3.27,3.85,3.84,6.35,1.61,7.06,1.29,14.35.82,21.41-.87,12.85-1.76,25.54-5.65,38.3-3.58,11.74-6.95,23.48-11.77,34.78-1.17,2.76-2.5,5.44-3.55,8.24a14.93,14.93,0,0,0-1,4.84c0,1.62.23,3.68,1.92,4.29,2.08.75,2.75-1.33,3.54-2.74,9.25-16.49,16.81-33.75,20.91-52.2,2.89-13,2.07-26.51,1.38-39.83-.39-7.48-1-14.94-1.47-22.42-.09-1.34-.22-3,1.48-3.24,2-.31,3.14,1.35,3.56,2.9,1.33,4.81,2.26,9.74,3.56,14.56.48,1.77.07,4.91,2.43,4.84s1.87-3.19,2.11-5c1.11-8.46.53-17,.14-25.44-.08-1.82-.48-3.65-.46-5.47s-.07-4.31,2.71-4.56,2.79,2,3.39,4c4.61,15,2.61,30.37,2.13,45.63-.2,6.32-.83,12.63-1.16,18.95a164.11,164.11,0,0,1-8.33,43,273.61,273.61,0,0,1-12.19,29.33c-6.95,14.92-13.52,30-20.41,45-1.85,4-3.86,8-4.28,13.66,4.35-4.4,7.23-9,10.82-12.84,10.65-11.54,17.43-25.6,24.44-39.5,6.68-13.24,13.71-26.31,18.49-40.37,8.77-25.76,17-51.71,14-79.48-.7-6.44-.73-13.3-4.93-19.06-1.55-2.14-2.23-5.57.12-7.32s5.18,0,7.09,2,4.08,3.65,7.29,3.62,3.81,2.55,3.59,5c-1.78,19.9,2.31,39.51,2.78,59.29.16,6.93,2.24,13.56,4.36,19.9,4.53,13.48,9,27,14.7,40.1,4.83,11,14.23,18.24,22,26.8,1.66,1.83,3.36,3.75,5.92,4.45,1,.27,2,.62,2.78-.29s.13-1.85-.43-2.71c-11.31-17.36-15.73-37.18-19.74-57q-3.74-18.52-6.86-37.19a426,426,0,0,1-5.95-63c-.08-4.56,1.23-8.17,4.74-10.94a4.29,4.29,0,0,1,5.58-.06c1.81,1.51-.38,2.59-1,3.73-2.64,4.67-2.2,9.74-1.59,14.65,1.65,13.19,1.84,26.56,4.74,39.6a18,18,0,0,0,.32,2c.57,1.62.44,4.19,2.94,3.9,2.07-.25,1.91-2.57,1.9-4.13-.14-14.67,1.58-29.28,1.74-43.9.11-10.63,4.35-20.55,3.7-31.13-.08-1.28.31-3,2.24-2.48,1.49.37,1.67,1.8,1.83,3.21,1.6,14.39-2.56,28.35-3.14,42.49-.61,14.58-2.63,29.17-1.1,43.88.75,7.23-.57,14.64.57,21.94.24,1.54-.25,3.95,2,3.93s1.85-2.38,2-3.95c1-13,1.58-26,3-38.85a433.3,433.3,0,0,1,7-44.71c1-4.37.71-9,2.2-13.27.37-1.07.11-2.42,1.11-3.22,1.4-1.12,2.41-3.68,4.19-3.14,2.54.76.47,3.12.6,4.77.3,4,.44,8,.73,11.95.08,1.09.06,2.59,1.74,2.5,1.18-.06,1.55-1.22,1.71-2.19.62-3.61,1.35-7.22,1.62-10.86a105.84,105.84,0,0,1,2.15-12.8c.41-2.08,1.18-4.09,3.66-4,2.26.05,2,2.3,2.49,3.78.8,2.26.62,4.52.47,6.88-.81,13-1.24,26,3.22,38.54,1.5,4.22,4.46,6.27,8.79,5.4,3.21-.64,3.85,1.08,4.18,3.4,1.79,12.5,6.62,24.31,8.41,36.81a12.76,12.76,0,0,0,1.56,3.67c2.26,4.42,2.7,4.46,5.25.41.77-1.24,1.59-2.28,3.15-1.73a3.77,3.77,0,0,1,2.47,4c0,4.61,1.61,8.8,3,13.09a6.78,6.78,0,0,0,4.59,4.91c9.25,2.43,17.26,7.84,26.31,10.68,1.51.48,3.37,1.85,4.61.24,1.07-1.39-.81-2.67-1.43-3.93-8.45-17.32-16.8-34.67-24.05-52.56-3.86-9.53-9.28-18.42-14-27.6-1-1.92-2.16-3.78-2.39-6-.15-1.42-1-3.18.65-4.09s3.32.3,4.21,1.71c3.3,5.18,6.94,10.23,9.54,15.75,16.51,35.07,32.3,70.49,52.23,103.83a11.77,11.77,0,0,1,1.59,3.62c2.53,13.69,9.39,25.92,13.14,39.18,2.7,9.56,5,19.26,5.16,30.48a22.62,22.62,0,0,1-5.46-9c-2.21-7.64-5.75-14.9-6.32-23-.31-4.39-3.88-7.38-7.21-9a163.17,163.17,0,0,1-25.24-15.61c-2.57-1.91-6-4.17-8.62.87-1,1.93-3,.29-4.2-.75A96.74,96.74,0,0,1,455.76,303c-1.41-3.65-3.5-6.75-8.2-4.48-1.51.73-2.45-.2-3.69-.5-3.53-.85-7.26-2-9.34,2.69a3.53,3.53,0,0,1-4.62,2c-2.21-.84-2.47-2.93-2.12-5.05.74-4.42,1.86-8.81.51-13.32-.33-1.1-.27-2.36-1.58-2.9-1-.43-3.2.5-2.68-1.8.31-1.35,1.94-1,3-1.11a2.42,2.42,0,0,1,3.11,2.37c.18,1.48,0,3.07.45,4.45.76,2.28,2.12,4.52,5,3.86,2.36-.55,3.19-2.48,2.95-5.05A66.39,66.39,0,0,0,426.14,251c-.66-.92-1.53-2.06-2.85-1.26-1,.58-.79,1.79-.46,2.74a11,11,0,0,1,.76,5.38c-.21,1.31,1.29,3.38-1,3.75a4.79,4.79,0,0,1-4.85-1.91c-3.24-4.63-6.35-9.24-.77-16.09-8.44,3.29-7.18-1.66-7.49-5.49-.35-4.31-1-8.6-1.58-12.88-.15-1.06-.33-2.55-1.75-2.74s-1.73,1.28-2.1,2.34a54.59,54.59,0,0,0-3.15,14.05c-1.35,18.42-2.8,36.84-4.81,55.19-1,9.26,1.22,18.23,1.1,27.37-.06,4.36-1.29,8.92,2.08,13,1.3,1.55-.94,3.73-.77,5.73.85,10.17,1.68,20.3,10.82,27.26,3.56,2.71,6.8,5.86,10.11,8.89.88.82,2.82,1.22,2.12,2.93-.57,1.37-2.08.48-3.17.57-8,.69-14.3-3.12-20.94-6.84-11.3-6.31-21-14.44-30.18-23.42-9.92-9.74-15-22.2-19.74-34.91a251.75,251.75,0,0,1-8.1-24c-1.08-4.11-.58-8.3-1.35-12.39-.34-1.78-.42-4-2.74-4.19s-2.22,2.09-2.68,3.62c-8.75,28.6-21.07,55.64-35.8,81.62A152.47,152.47,0,0,1,264,399.13a5.83,5.83,0,0,1-2.18,1.06c-5.73,1.61-11.07,3.55-13.27,10-.51,1.49-2,3.89-3.89,3-2.14-1-1.5-3.42-.32-5.25,10.53-16.35,15.82-35.17,24.72-52.29,3.75-7.22,5.34-15.36,9.41-22.5a10.36,10.36,0,0,0,1.06-9.19,13.7,13.7,0,0,0-5.14,7.44c-1.56,5.34-4.74,9.4-8.9,12.89-2.52,2.11-3.48,5.23-5,8-1.1,1.94-2.45,4.33-4.91,2.71s-1.23-4.14-.26-6.31c.76-1.67,5.07-2.06,2.44-4.74-2-2.05-4.63-.05-6.86,1.09-14.86,7.55-22.69,21-29.65,35.19-2.35,4.79-4.66,9.33-8.87,13s-4.94,9.8-5.54,15.14.37,10.81,2,16.22c2.2,7.45,3.78,15.08,7.46,21.94-.67.41-.95.73-1.18.7-2.33-.31-4.38-3.68-6.77-1.47-2.68,2.47.42,4.81,1.16,7.18,3,9.84,5.58,19.89,9.33,29.46,3.59,9.14,5.67,18.78,9.78,27.68,5.85,12.69,10,26.11,17.09,38.25,2.67,4.61,5.41,9.17,8.13,13.75,1.6,2.7,3.79,2.76,6.43,1.57s4.61-.45,3.91,2.72c-1.24,5.66,1.52,10.27,4.12,14.48,3.77,6.08,9.41,10.79,15.08,15.09,6.43,4.88,12.72,10.08,19.52,14.34,9.29,5.81,17.1,13.73,27,18.54a10.4,10.4,0,0,1,3,1.76c10.5,10.93,24.9,14.77,37.89,21.26,5.38,2.68,11.66,2.74,16.51,6.64,1.59,1.27,3.88.89,5.85.62a69.42,69.42,0,0,0,26.64-8.85c6.56-3.91,13.69-6.85,20.48-10.38,9.79-5.08,18.13-12.36,27.39-18.22,9-5.7,16.45-13.42,25.75-18.65,1.7-1,3-2.63,4.52-3.89C510,589.24,519.22,576.93,527.7,564c2.82-4.3,6.26-8.13,8.56-12.85,1.83-3.76,7.12-5.11,9.89-2.86,3.37,2.74,1.41,5.61-.06,8.81-5.09,11.07-15.23,18.33-21.21,28.84-2.39,4.19-6.93,7.4-8.64,12.44-1,2.87-1.76,5.67-.62,8.75,1,2.66,0,5.33-.91,7.81-4.48,12.61-4.57,25.82-5.42,38.92-.12,1.94-.56,4.49,2.2,4.82,3,.36,3.45-2.4,3.59-4.44.66-9.14.28-18.52,2.68-27.31,2.59-9.53,2-20.55,10.59-27.77a21.87,21.87,0,0,0,6.4-9c4.47-10.83,12.46-18.16,24.52-20.07,1.71-.27,3.94-1.3,5,.82s-1,3.34-2.51,4.26c-2.7,1.65-4.1,4-5.4,6.86-5.78,12.58-10.71,25.31-13.16,39.11-2.38,13.38-7.94,26.14-8.23,40,0,2.34-.09,4.67-.05,7,0,1.93,0,3.7-2.33,4.39-1,.3-2.07,1.06-2,2,.37,4.56-2.22,4.94-5.84,4.83-2.34-.07-2.53,1.66-1.51,3.53,2.39,4.43,6.7,6.89,10.42,9.88,2.11,1.7,3.58-.16,3.45-2.31-1.05-17,5.29-32.43,10.26-48,4-12.64,8.84-25.12,15.62-36.65,3.19-5.43,4.73-11.8,9.45-16.34A15.33,15.33,0,0,1,575,587c2.32-1.39,5.14-2.9,7.32-.63,2,2-.24,4.31-1.33,6.29-1.37,2.46-2.93,4.84-4.18,7.36-.75,1.5-1.2,3.37.59,4.48,1.6,1,3.38.27,4.63-.83a7.22,7.22,0,0,0,2.47-3.64c2.16-11.91,8.87-22.22,11.78-33.86,1.37-5.47,3-10.65.54-16.52-1-2.36-1.54-6.49,3.08-8.67,2-.94-.84-5-.37-7.77a2.06,2.06,0,0,0-1.58-2.29c-2.07-.43-2.8,1.31-3.82,2.61-7,8.8-18.06,10.75-26.63,5-3.51-2.36-5.09-6-5.93-9.5-1.1-4.63-2.76-10.76-.72-14.15,3.62-6,5.44-13.14,10.26-18.19,4.07-4.26,9.89-3.47,15.13-2,5.08,1.47,7.83.22,7.43-5.06-.72-9.57,3.33-17.86,6.19-26.42a43.27,43.27,0,0,0-1.57-32.07c-.75-1.74-1.66-3.31-3.9-3.33a3.11,3.11,0,0,0-3.27,3.13c-1.19,11.73-9,21-11.9,32.1-.93,3.51-2.3,6.92-2.82,10.57-.43,3.08-1.93,3.16-4,1.3-2.33-2.11-3.79-4.57-3.42-7.9.24-2.13.87-4.69-1-6.19-6.8-5.5-3.71-12.25-2.09-18.37,1.83-6.9,5.67-13.1,9-19.43,1.21-2.29,3.4-3,5.58-3.89a13,13,0,0,0,8.34-9.16c2.77-9.93,5.6-19.7,5.71-30.24.08-7.44-1.83-14.11-4.21-20.85-.34-1-.36-2.64-2.06-2.19-1.12.3-1,1.58-1.1,2.56-1.28,10.54-2.51,21.09-3.9,31.62-.31,2.28-.65,4.84-1.87,6.67-5.52,8.32-8.4,17.83-12.64,26.72-.54,1.14-.73,2.91-2.5,2.61-2-.34-1.7-2.25-1.72-3.66-.2-14.41-3.54-28.33-7.22-42.1-4.6-17.18-10-34.13-15.12-51.19-4.58-15.42-8.42-31.12-13.92-46.21-6.21-17-11.58-34.42-20.31-50.43-2.39-4.38-4.81-8.76-6.92-13.28-1.11-2.36-1.25-5.12,1.59-6.53,3.15-1.57,4.51.79,5.59,3.21,5.91,13.19,14,25.42,18.27,39.29,7.35,24.14,18.52,47,23.14,72.06,1,5.33,3.54,10.36,5.29,15.56,3.86,11.52,5.57,23.66,10.06,35,.69,1.73.81,4.62,3.49,3.95,2.14-.53,1.47-3,1.33-4.8-.52-6.82.24-13.63.09-20.46-.32-14.11-4.21-27.21-9.7-40-3.23-7.5-5.27-15.41-8.23-23-5.87-15-12.3-29.8-18.88-44.53-5.72-12.82-13.29-24.59-19.45-37.14-1.66-3.37-6-4.82-6.8-9.22,3.1-.44,5.43.75,7.6,2.7,3.79,3.4,6.39,7.68,8.86,12,7.06,12.41,14.21,24.78,20.85,37.42,3.22,6.14,5.35,12.85,8.05,19.27.61,1.44.94,4,2.85,3.49,2.22-.57,1.59-3.26,1.09-4.78-1.87-5.66-3.68-11.43-6.32-16.75-4.54-9.13-7.38-18.89-11.14-28.3-2.46-6.16-6-12.2-5-20.36C546.81,224.33,551,244,560,261.32a8.82,8.82,0,0,0,.82-.51c-3.41-7-.76-15.65-5.76-22.28a1.91,1.91,0,0,1,.15-2.72,4.59,4.59,0,0,1,5.59-.47c5.25,2.83,9.71,6.75,12.2,12.15,2.78,6,6.75,11.53,7.69,18.33.16,1.23.69,3.07,2.29,2.7,1.82-.41,1-2.21.69-3.38a97.12,97.12,0,0,0-4.17-12.21c-2.14-4.9-2.07-10.51-4.26-15.64-4.54-10.63-6.22-22.33-11.68-32.63-5.14-9.7-10.26-19.46-19.37-26.28-4-3-7.11-7-11.49-9.58a3.89,3.89,0,0,1-1.82-2.3c-1.19-6.58-6.91-8.72-11.52-11.91-1.27-.88-2.9-1.57-2.71-3.25.33-2.9,1.88-5.43-1.49-8.23-1.3-1.08,2-3.65,4.56-3.47,4.11.28,7.74,2.68,10.42,5.1,4,3.58,8.37,7.18,10.49,12.54a9,9,0,0,0,2.74,3.51c18.63,15,28.12,36.15,37.77,57.08,6.87,14.91,12.54,30.41,20,45,4.8,9.33,9,18.81,12.85,28.49.53,1.32.93,3.47,2.74,3,2-.53,1.46-2.79,1.28-4.34-.43-3.68-2-7.06-3.49-10.39-5.27-11.68-8.84-24-13.33-36-3.91-10.42-8.79-20.48-13.33-30.66-.72-1.62-2.67-3.38-.75-4.82,2.31-1.73,3.25,1,4.6,2.32,12.29,12.27,20,27.27,26.18,43.24a8,8,0,0,0,2.05,3.38c10.36,8.28,14,20.77,19.32,32,5.57,11.66,10.66,23.58,16.16,35.29,1.44,3.05,4.53,4.91,5.75,8.13.4,1,1.11,2.46,2.49,1.79,1.18-.56,1-2.15.57-3.17-1.48-3.69-2.54-7.54-3.94-11.21-2.8-7.36-3.19-15.3-6.19-22.56-2.07-5-3.76-10.23-5.63-15.35a29.25,29.25,0,0,1-1.59-4.19c-3-15.37-10.16-29.31-15.18-44-3-8.63-5.34-17.45-8.2-26.11-2.6-7.85-4.94-15.76-11.16-21.95-8.68-8.65-13.65-20-20.22-30.15C584.62,144,575,134.59,566,124.42a20,20,0,0,1-2.32-2.58c-.86-1.38-2-3-.43-4.52a3.57,3.57,0,0,1,4.64-.23c5.91,3.72,11.34,7.92,15.74,13.53,10.78,13.73,20.53,28.18,30.31,42.61,11.54,17.05,23.15,34.13,32.39,52.52,4.88,9.7,9.49,19.81,11.43,30.75.38,2.13,1.31,3.81,3.34,4.61a15,15,0,0,1,6,4.36c1.56,1.81,3.54,2.61,5.8,1.4,2.1-1.12,2.12-3.1,1.89-5.22a41.64,41.64,0,0,0-4.27-14.31c-6.7-13.35-12-27.48-20.41-39.89-7.19-10.56-13.56-21.79-21.48-31.71C618.29,162.8,608,149.8,597.05,137.27c-10.25-11.77-22.21-21.51-34.27-31.06-10-7.95-22.33-12.48-33.61-18.57-13.49-7.28-28.26-8.1-43-9.2-4.21-.31-8.31.77-12.27,2C468.74,82.1,467.67,86.88,466.31,92.31ZM435.89,839.25c5.77.4,13.07-.87,20.45-2.43,12.05-2.56,24-5.39,35.89-8.61,6.17-1.67,12.91-19.19,9.67-24.63-2.94-4.94-2.68-9.26.89-13.78,1.44-1.82,3.4-3.34,4.45-5.34,5.79-11,11.37-22.18,17-33.29.63-1.23,1.1-2.5.09-3.73-1.13-1.4-2.44-.67-3.6-.06-5.22,2.76-11.3,2.59-16.68,4.88-1.67.71-4.2,1.15-5.23-1.32-1.12-2.68.93-4.16,2.93-5,5.7-2.26,11.08-5.21,17.21-6.58,7.37-1.64,13.93-4.25,16.9-12.81a45,45,0,0,1,7.58-13.91c3.13-3.79,2.34-8.78-1.29-10.3-5.71-2.39-10.83-5.78-16.28-8.56-4.74-2.42-8.16-5.67-10-10.56-.79-2.1-1.77-3.93-3.84-5-6.06-3.11-9.15-8.37-10.94-14.72-1.21-4.29-.2-8.67-.91-12.91-1.61-9.64-5.14-13-13.33-8.47-9.54,5.33-19.08,10.79-29.58,14.24-6.73,2.22-12.95,6.33-20.31,6.08-4.37-.16-5.58.47-4.41,4.84,3,11.19-.21,22.18-.77,33.25a9,9,0,0,1-1.6,3.6c-1.39,2.33-2.93,3.19-4.86.39-2.46-3.6-4-2.1-4.84,1.11-.94,3.64-2.12,7.62-5.29,9.35-8.84,4.83-15.76,12.08-23.9,17.73-4.63,3.21-7.22,6.88-6.31,13,.8,5.4,3.65,10,4.91,15.16,1.34,5.53,4.74,6.69,9.76,3.86a14.08,14.08,0,0,0,5-4.77,5.06,5.06,0,0,1,4.5-2.73c7.72.37,15.14-2,22.77-2.41,2.46-.15,5.53-.75,6.13,2.59s-2.59,4.7-5,5.14c-5.38,1-10.81,3.12-16,3.21-5.71.09-9.79,1.89-14.06,4.91-5.82,4.12-6.67,6.63-3.7,13.23,1.78,4,3.46,8,5.51,11.76,1.71,3.16,1.55,5.68-1.39,7.83-2.43,1.77-2.65,3.95-1.6,6.6,3.56,9,7.77,17.68,12,26.34,1,2,2.33,4.24,4.84,3.47C423.86,838.31,429,839.4,435.89,839.25ZM375.48,728c7.53.51,16.5-4.18,16.8-9.75.33-6.05,3.56-5.67,7.57-5.44a10.4,10.4,0,0,0,10.28-7c3.2-10.83,3.41-21.61-.92-32.24-.6-1.49-1.6-2.69-3.31-2.58-3.46.2-7-.34-10.33,1.21-2.09,1-4.22,1.43-6.24.32-4.15-2.28-7.21-1-10.07,2.32-1.32,1.52-2.47,3.94-5.24,2.72s-3-3.89-2.47-6.39c1.12-4.83-1.3-6.7-5.42-8.41-16.33-6.77-31.29-16-45.87-26-1.63-1.11-3.25-2.67-5.42-1.71s-2.36,3.09-2.49,5.1c-.65,9.58.69,18.39,9,24.8,2.08,1.61,3.41,1.28,5.18-.27,1.53-1.33,2.4-4.85,4.5-3.73s.32,4.28.38,6.54a15.18,15.18,0,0,1-.6,4.43c-1,3.52-.58,5.39,3.89,4.95,3.62-.35,5.57,2.27,4.53,5.16-1.29,3.61-.33,4.42,3.79,4.06,7.71-.66,15.14-1.78,21.13-7.41,1.72-1.61,3.89-1.45,5.95.07s1.54,3,.91,4.86c-1.14,3.3-.34,6.07,2.95,7.48,3.14,1.35,6.28,2,9.08-1.21a30.18,30.18,0,0,0,5.79-9.24c.59-1.57,1.55-3.14,3.67-2.6a3.34,3.34,0,0,1,2.49,3.85c-.2,2.48-.21,5.16-1.21,7.33-2.37,5.12-6.54,9.22-8.66,14.54-.34.84-1.23,1.48-2,.94-5-3.47-10.83-.84-16-2.28-6.23-1.72-10.12-.05-14.13,5.49-7.38,10.19-16.41,19.17-24.1,29.16-7.17,9.31-15.52,17.3-24.36,24.89-3.68,3.15-4.19,6.35-1.26,10.47a255,255,0,0,1,17.47,28.46,274.15,274.15,0,0,1,11.95,26.88c1.17,2.93,3.14,4.9,5.93,2,7.85-8.27,18.1-13.58,26.23-21.43,5.94-5.74,14.12-9.76,15.61-19.21.2-1.25,1.78-1.51,3-1.31,5.12.89,4.91-1.61,4.1-5.5-1.68-8-6.37-14.62-9.62-21.85-5.67-12.58-6.18-26.78-13-38.88a5.38,5.38,0,0,1-.21-2.46c0-1.69,0-3.51,1.89-4.25s4.41-.94,5.58.79C374.43,719.19,378.12,722.54,375.48,728ZM649.32,554.86l-1.32-.71c3.45-9.08,7.7-17.94,10.18-27.27,5.43-20.37,11.07-40.68,15.25-61.41a165.64,165.64,0,0,0,1.22-57.07,258.64,258.64,0,0,0-9.11-38.29c-4.57-14.93-9-29.92-17.07-43.47-.78-1.32-1.09-3.83-3.18-3.14s-1,2.89-.72,4.41c2.13,13.12,7,25.58,8.74,38.86,1.17,9.07,3,18.05,3.15,27.23,0,1.34-.32,2.95.77,3.8,3.27,2.55,2.79,6.12,3,9.57.28,3.81.61,7.64,1.16,11.42,3,20.37-.31,40.49-3.08,60.5-1.51,10.9-4.76,21.58-5.18,32.69a27.21,27.21,0,0,1-1.65,7.23c-3.65,11.6-8.88,22.57-13.2,33.9a45.87,45.87,0,0,1-10.5,16.68,23.86,23.86,0,0,1,2-7.71c4.74-10.05,9.95-20,13.63-30.39s4.74-21.91,7.63-32.79a126.15,126.15,0,0,0,3.81-37.53c-.06-1.48,0-3-2-3.57-2.68,6.22-2.85,13-4.7,19.3-3.68,12.61-5.59,25.61-8.81,38.31-2.14,8.47-1.13,17.61-5.89,25.57a206.71,206.71,0,0,0-14.28,29.08c-2.19,5.41-3,11.12-7.66,15.59-2.2,2.13-2,6.56-3.39,9.74-3.87,9-7.89,17.93-10,27.6-2.26,10.39-5.17,20.68-4.07,31.5.14,1.33,0,2.82,1.61,3.33s2.42-.69,3.28-1.72a72.94,72.94,0,0,0,11.16-18.81c5.33-12.6,12.35-24.28,19.81-35.7.71-1.08,1.63-2.63,3-2.16,2,.65,1.06,2.48.77,3.87-.57,2.67-1.42,5.42,3.17,4.06,2.35-.7,2.37.93,2.45,2.54a12.58,12.58,0,0,1-3,8.32c-8.39,10.83-13.92,23.45-21.78,34.6-.76,1.08-2.49,2.46-1,3.9s3.09-.06,4.42-.92a14.19,14.19,0,0,0,2.58-2.32c7.67-8.27,16.7-15.09,24-23.84,8-9.59,13-20.18,16.23-32.09,1.66-6-.67-12,1.17-17.83a2.17,2.17,0,0,0-1.17-2.54,2.63,2.63,0,0,0-3.22.58c-2.1,2.12-4,4.46-6.08,6.59-1.13,1.13-2.53,3.2-4.06,2.22-1.9-1.22.15-3,.79-4.28a267.4,267.4,0,0,0,21-59.58,50.21,50.21,0,0,0,.61-16.33C665.86,523.93,656.47,538.9,649.32,554.86Zm-487.7-53.8c-1.36,1.71-2.45.84-3.5.55-2.22-.61-4.38-.75-5.8,1.47a6.68,6.68,0,0,0-.2,7.54,17,17,0,0,0,1.66,1.86c1.5,1.79,1.77,3.17-1,3.94-6.45,1.76-9,6.71-10.59,12.69a136,136,0,0,0-3.47,21.12c-.87,8.48-1.46,16.86-3.14,25.34-2.86,14.35.64,28.79,3.15,43,1.81,10.28,6.07,19.66,10.84,28.83,1,1.92,2.42,4,5,3.27,2.44-.69,1.89-3.16,2.16-5.09,2.25-16.63,3.87-33.36,7.52-49.8,3-13.42,7-26.66,8.15-40.44a4.09,4.09,0,0,1,3.1-3.94c6.31-2.35,9.94-9.21,7.35-15.11-3.34-7.64-3.17-15.33-1.13-23a38.77,38.77,0,0,0-2.09-26.71c-3.56-8.13-5.51-16.78-3.46-25.78,1-4.25,3.77-7.79,3.55-12.66-.29-6.31,2.15-11.77,8.89-14.11a3.49,3.49,0,0,0,2.46-3.88,33.21,33.21,0,0,0-2.27-9.18c-.41-1.13-1.58-2.47-2.57-1.27-1.88,2.26-5.14,3.83-5.35,7-.37,5.51-2.86,10.16-5,15-5.66,13.11-11.15,26.29-15.67,39.88C157.92,488.64,152.32,495.31,161.62,501.06ZM692.39,335.69c-2.06,2.1-1.41,3.48-1.25,4.72,1.6,12.18,2,24.48,3.37,36.71,2.48,22.25,2.59,44.78,3.36,67.2.66,19.52-2.37,38.84-4,58.23-1.61,19.6-4,39-13.62,56.89-3.16,5.89-7.62,12-7.54,18.85.15,11.36-3.09,22-4.78,33-.22,1.39-1.28,3.44.32,4.09,2.1.84,3.31-1.32,4-2.9,2.22-5.19,4.9-10.23,5.83-15.9a7,7,0,0,1,2.42-4.76c2.32-1.78,3.5-1.36,3.9,1.62.35,2.63-.63,4.89-1.51,7.23-.46,1.24-.9,2.72.67,3.52s2.53-.4,3.33-1.45a20.9,20.9,0,0,0,2.07-3.39c2.35-4.58,4.72-9.15,7-13.78a334.07,334.07,0,0,0,17.59-45c2.41-7.61,3.7-15.56,6.16-23.08,1.95-6,3.38-11.76,3.32-18-.12-12.84,1.25-25.6,1.92-38.4.5-9.48,1.82-19.05.09-28.42-2.58-14-2.9-28.25-6.64-42.09s-4.16-28.36-9.5-41.77c-2.39-6-3.31-12.77-8.71-19,0,2.91-.16,4.54,0,6.14,1.72,14.36,3.19,28.75,5.35,43.05,2.31,15.31,2.63,30.77,4.24,46.13.14,1.31-.35,2.89,1.16,3.48s1.88-.89,2.43-1.89,1.25-2.14,2.68-1.55c1.11.46,1.09,1.66,1,2.61-.61,4.74,1,9.25,1.27,13.9,1,16.84-.25,33.47-2.65,50.22-3.18,22.16-14,41.14-22.72,61-.53,1.22-1.3,2.73-2.9,2-1.76-.8-.67-2.36-.23-3.48,5.18-13.17,9.91-26.44,13.12-40.29,1.55-6.72,3-13.36,2.69-20.19-1.39-34.76-2-69.55-5.43-104.2-.67-6.78-1.4-13.56-2.06-20.33C697.13,356.38,694.47,346.43,692.39,335.69Zm-52.22,53.78c-2.1-4.65-1-8.92-1.25-13.08-.85-14.62-5.68-28.69-6.15-43.37a3.15,3.15,0,0,0-.44-1.43c-.89-1.48-1.14-4.21-3.32-3.67-1.51.37-2.68,2.76-2.49,4.55.39,3.59-1.13,7.32.82,10.81.63,1.13.39,2.54-1,2.88-1.67.41-1.74-1.22-1.91-2.27-.41-2.62-.72-5.27-1-7.91-.23-2.48-.79-5-3.69-5.1-3.52-.12-4-2.28-4.34-4.91-.51-4.29-.47-8.72-1.6-12.84-3.44-12.53-7.61-24.83-14-36.25-1.81-3.25-1.22-7.27-3.42-10.36-.57-.8-1.2-1.87-2.3-1.6-1.28.31-.9,1.61-.86,2.53a20,20,0,0,0,.5,2.95c2.27,12.07,4.66,24.12,6.75,36.23a71.78,71.78,0,0,0,3.56,11.81c2.36,6.65,5.43,13.08,6.14,20.42a173.32,173.32,0,0,0,4.34,26c2,7.87,3.17,16.29,8.23,23.22,1.36,1.88.88,5.74,5.18,3.24,1.65-1,2,1.16,2.14,2.45.26,3.31-.17,6.79.7,9.92,2.42,8.64,2.63,17.39,2.24,26.22-.39,8.65.73,17.32-.39,26-.18,1.39-.35,3.48,1.66,3.57s1.82-1.94,1.89-3.41c0-.5-.07-1,0-1.5.78-12.09,3.83-24,2.5-36.25-.16-1.49.65-3.42,2.34-3.29s1.16,2.15,1.13,3.35c-.29,11,.65,21.95-.69,32.95-.81,6.55-.31,13.27-.35,19.91,0,.8.06,1.71,1.32,1.82,2.33-2.6,1.07-6.07,2-9,5.63-17.26,4.8-35.47,7.57-53.16,1.94-12.4-2.71-24.63-4-37-.11-1-1.13-2-1.88-2.87s-1.3-2.28-2.72-1.7-1,1.92-.57,3,1.05,2.27-.25,3.14c-2.61,1.77-2,4.23-1.73,6.75C641.16,384.43,641.62,386.75,640.17,389.47Zm-162,470.14c-1.76.3-3.88.72-6,1-12,1.82-22.51,8.67-34.81,9.74-6.2.54-8.25,5-5.57,10.42,4,8.16,6.06,16.84,7.92,25.62s5.44,16.69,9.74,24.41c1.53,2.74,2.81,3,5.2.45,5.29-5.55,6.42-12.76,9.2-19.42,6.59-15.78,8.23-33.31,17.52-48.06C483,861.13,482,859.33,478.16,859.61ZM738.07,501.06a26,26,0,0,0,0-3.15c-.31-1.89.7-5.09-1.32-5.32-2.6-.3-1.38,3.06-2.12,4.7a14.94,14.94,0,0,0-1.26,4.81C732,519,726.17,534.81,721.3,550.89c-4.33,14.31-11.14,27.43-17.86,40.5-4.42,8.6-6.65,18.05-11.76,26.25a3.12,3.12,0,0,0,.32,3.76,2,2,0,0,0,2.73.13c7.1-4.51,13.33-9.85,16.73-17.82.49-1.14.08-3,2-2.87,1.68.12,2.47,1.51,2.64,3.15a20.7,20.7,0,0,0,.38,3.46,2.62,2.62,0,0,0,2.61,1.95c1.12,0,2.22-.62,2.28-1.58.3-4.55,3.95-7.18,5.92-10.76,5.06-9.17,5.86-19.7,9.55-29.3a6.65,6.65,0,0,0,0-3.46c-.41-2.15-1.56-3.64-3.75-1.86-3.51,2.86-3.83.4-4-2.23-.43-7,1.27-13.54,2.79-20.38C734.79,526.74,737.21,513.4,738.07,501.06ZM283.23,629.49c0-2.49-.14-5,0-7.48.12-1.53-.11-3.81,2.14-3.91s4.29.93,4.72,3.56c.37,2.29.43,4.65.9,6.93.71,3.42-.17,7,1.18,10.35,3.5,8.76,2.2,17.43-2.45,25.11-5.13,8.5-11.51,16.24-17.18,24.43-1.25,1.79-3.19,4.34-.72,6.18,2.29,1.7,4.91.16,6.67-1.72a55.61,55.61,0,0,0,6.57-8.14c8.12-13,14.62-26.68,17.6-42,2-10.28-.77-19.93-8.86-24.36-3.37-1.85-6.79-3.28-9.12-6.55a3.78,3.78,0,0,0-4.5-1.32c-1.69.63-1.73,2.34-1.87,3.8-.32,3.14-.14,6.38-.78,9.45A177.72,177.72,0,0,1,257,678.22a15.82,15.82,0,0,0-2.4,6.48c-.15,1.59-1.18,3.43.92,4.39,1.9.87,3.65,0,5-1.38,3.4-3.64,7.66-6.88,9.86-11.16C277.9,661.84,283.08,646.32,283.23,629.49ZM761.55,514.37c-.16-3.33-.23-6.66-.5-10-1.24-15.47-3.95-30.65-9.43-45.25-.43-1.14-.44-3-2.33-2.63-1.19.2-1.15,1.54-1.12,2.5.35,12.46-1.6,24.91.25,37.41a179.82,179.82,0,0,1,1.67,21.89c.23,9.39-.54,18.59-6.32,26.72a11.42,11.42,0,0,0-1.42,10.12c3.75,11.3,1.54,21.79-3.69,32a19.54,19.54,0,0,0-1.6,4.71c-.3,1.38-1,3.21.83,4s2.81-.77,3.57-2c3.76-6.28,7.25-12.6,9.45-19.73,2.57-8.36.57-18.32,8.35-24.94.3-.26.3-.94.35-1.43C760.7,536.62,762.73,525.59,761.55,514.37ZM470.84,299.06c-1.68-.07-3.11-.31-3.87,1.15-.64,1.23.08,2.25.84,3.17,4.71,5.68,10.17,10.77,13.5,17.53a7.52,7.52,0,0,0,1.75,1.77c5.93,5.57,11.76,11.26,17.84,16.66,4.6,4.07,8.67,8.75,14,12.07,2.06,1.3,3.65,1,5.44-.37s.84-2.65.56-4.34c-1-5.86-5.22-10-7.74-15-2.81-5.56-5.37-11.27-10.06-15.89-6.31-6.22-14.24-9-22-12.4C477.58,301.92,474.07,300.44,470.84,299.06ZM432.43,862.31a63.43,63.43,0,0,0,10.86-1.4c11.43-2.82,22.61-6.64,34.34-8.3,7.09-1,12.62-6.64,13.27-12.5.3-2.77-.2-4.74-3.75-3.85s-7.7,1.19-11.1,2.75c-12.28,5.65-25.51,7.2-38.56,9.48-4.66.81-9.17,2.69-14.18,1.36-2.39-.63-3.44,1.31-3,3.84C421.52,860.46,424.57,862.67,432.43,862.31ZM137,420.81c1.87,10.35-.36,21.19,3.13,31.53.74,2.22.09,6.22,3,6s1.76-4,1.87-6.36c.36-8-1.26-15.84-1.48-23.73-.34-12.06-1.72-24.21,1.8-36.23,1.11-3.78,2.29-7.6,3.38-11.4,5.41-18.75,5.72-38.54,11.85-57.12.33-1,.63-2.25-.46-2.64-1.68-.59-1.88,1.17-2.1,2.12-1.26,5.47-4,10.38-5.86,15.65-4.91,14.19-9.77,28.16-10.7,43.38C140.7,394.89,138.57,407.73,137,420.81ZM117.18,585.22c-6,3-7.29,8.19-8.82,13.32-6.9,23.05-11.62,46.4-10.18,70.64a23.52,23.52,0,0,0,3.49,10.8c1.15,1.93,2.93,3.7,5.22,3s1.22-3.15,1.27-4.87a28,28,0,0,0-.43-4c-2.76-22.75-.18-45.11,5.22-67.2C114.68,599.84,116.89,592.91,117.18,585.22ZM606.16,355c-.48,3.18-.71,6.28-1.44,9.25-2.74,11.15-4,22.74-1,33.58,3.32,11.61,3.93,23.6,7.2,35.09,1.9,6.64,3,13.3,2.18,20.17-.36,3.14-1.12,6.22-1.5,9.36-.19,1.54-.75,3.89,1.52,4.06s2-2.24,2.13-3.8c1.07-9.94,1-19.88.91-29.87-.12-25.07-4.17-49.66-8-74.29C608,357.32,608.12,355.85,606.16,355ZM184.38,465.09c.39,6.9.89,13.37,4.6,19.08,3.45,5.31,3.4,5.31,8.09,1.29a6.58,6.58,0,0,1,2.59-1.44c8.42-2,7.66-5.1,5.23-10.69-.4-.89-.28-2-.67-2.91-2.52-5.76-2.88-12.39-6.83-17.54-3.07-4-7.08-4.15-9.33-.08C185.93,456.65,183.42,460.63,184.38,465.09Zm-25.11-62.82c.19,1.1-.88,4.31,2.34,4.6,3.07.27,2.95-3,3.55-5.11a6,6,0,0,0,.2-2c-.54-8.83,1.71-17.16,5.51-24.92,3.66-7.47,1.43-15.37,2.77-23a4.43,4.43,0,0,0-4.19-5.24c-2.81-.28-3.17,2.28-3.71,4.43-.67,2.72-.88,5.52-1.78,8.24-2.5,7.55-5.54,15.28-4.87,23.2.46,5.47-7.31,11,.13,16.28C159.61,399.07,159.27,400.38,159.27,402.27ZM258,662.67c2.93-2.55,2.8-5.83,3.88-8.48a131,131,0,0,0,9.42-48c.11-7-5.11-10-8.89-14.22a1.9,1.9,0,0,0-2.74,0c-2.95,3.1-2.59,7.07-2.39,10.84.17,3.14,2.85,3.37,5.22,3.29,3.32-.11,3.66,1.43,2.68,4.07a11.12,11.12,0,0,0-.77,3.39A160.93,160.93,0,0,1,258,654.72,11.23,11.23,0,0,0,258,662.67Zm300.73,4.66c.12-2.1.27-3.43.26-4.76,0-2.24,1-5.51-1.71-6.12-2.94-.68-3.42,2.91-4.61,4.94a9.54,9.54,0,0,0-.86,2.85c-1.33,6.66-2.71,13.31-3.9,20a40.23,40.23,0,0,0-.36,6.95c0,1.47.08,3.12,1.69,3.87a3.82,3.82,0,0,0,4.52-1.22c4.29-4.59,7.69-9.52,6.29-16.41C559.3,673.86,559.07,670.19,558.71,667.33Zm-368.48,11c0,7.56,1.08,13,2.62,16.53,2.08,4.7,6.45,3.18,9.94,4,1.28.3,2.09-.56,2.57-1.82,1.62-4.3-.42-12.41-4.56-14.83-3.41-2-4.5-4.57-4.56-8.11,0-1.16-.18-2.31-.27-3.47-.16-2.08-.55-4.44-3-4.36s-2.55,2.68-2.67,4.61C190.12,673.32,190.23,675.81,190.23,678.3Zm335.14-22.06a53.24,53.24,0,0,0,.49,6.46c.32,1.66.41,4.34,2.76,4,1.93-.29,1.47-2.72,1.27-4.32a59.55,59.55,0,0,1,0-9c.45-18.24,7.8-34.92,11.76-52.36.3-1.32,2-3.11.13-3.91s-3.27,1.28-4,2.9c-1.06,2.42-1.1,5.12-2.12,7.64C529.38,623.24,527.37,639.74,525.37,656.24ZM190.28,250.58c-.23-2.06.44-4.61-2.41-4.86-2.45-.22-3.24,1.9-3.85,3.87a5.29,5.29,0,0,0-.44,1.93c.62,6.21-2.76,11-5.44,16.12a23.67,23.67,0,0,0-2,4.51c-.78,2.92-2.89,6.92.63,8.43,3.16,1.36,6-1.77,7.86-4.72.26-.42.39-.92.66-1.34C189.91,267.1,188.58,258.45,190.28,250.58Zm.88,478.6c-.14-.66-.26-1.32-.43-2-2.28-8.66-6.08-16.9-7-26-.12-1.19-1.22-2.33-2-3.4s-1.94-2.58-3.68-1.73c-1.56.76-1.72,2.42-1.51,3.94,1.33,9.72,3.13,19.33,7.9,28.09a6.91,6.91,0,0,0,2.89,3.34C189.73,732.62,191.27,732.21,191.16,729.18Zm-61.85-177c-.49-1.85.45-4.35-2-4.82-2.24-.43-2.74,2-3.72,3.45-4.18,6.22-4.85,13.77-7.79,20.47-.94,2.14-2.08,4.63.65,6.21s4.53-.61,6.31-2.43C129.19,568.55,127.35,559.78,129.31,552.2Zm483,120.7a6.85,6.85,0,0,0,2-.33c8.73-3.69,13.38-11.69,19.25-18.39a2,2,0,0,0-.08-1.83,1.46,1.46,0,0,0-2.21-.26c-3.54,3.08-8.53,4.19-11.62,7.38s-6,4.83-10.31,4.87a37.24,37.24,0,0,0-6.38,1.11,2.59,2.59,0,0,0-2.27,1.7c-.33,1.16.39,1.89,1.35,2.36C605.17,671.06,608.19,672.94,612.33,672.9ZM567,645.48c-.09,1.44-.15,2.1-.16,2.77,0,2.36-1.13,5.5,2.66,5.78s4.6-2.44,4.47-5.64a32.35,32.35,0,0,1,1.25-10.79c1.24-4.11,2.3-8.28,3.23-12.48.38-1.73.6-4-1.68-4.62a3.86,3.86,0,0,0-4.94,3C569.94,631.05,566.67,638.28,567,645.48Zm35.3-145.08a3.28,3.28,0,0,0,.05-1.17c-.25-2,.86-5.09-1.71-5.63-2-.43-2.53,2.6-3.47,4.25-2.72,4.75-1,11.43-6.46,15.06-.28.18-.13,1.24,0,1.84,1.15,4.55,2.41,9-1.81,12.92a2,2,0,0,0,.23,3.12c1.23.88,2.09-.11,3-.91,3.45-3.11,3.5-7.35,3.9-11.47.16-1.64-.38-3.89,1.13-4.66C602.65,511,601.77,505.87,602.31,500.4ZM186.4,556.18c-.33-1.09.14-2.38-1.22-2.64-1-.2-1.21.79-1.65,1.49-7,11-7.19,24-11,36-.42,1.3-.48,3.37,1.34,3.85,2,.54,2.19-1.5,2.74-2.83,3.83-9.26,5.19-19.21,8-28.75C185.33,560.89,185.84,558.45,186.4,556.18Zm479.53,62.87c-.77,1.14-1.34,2-1.86,2.79-4.4,7-9.15,13.94-10.38,22.44-.19,1.31-.51,2.84,1,3.54s2.45-.6,3.34-1.53c5.37-5.58,8-12.51,9.89-19.85C668.58,623.81,667.58,621.56,665.93,619.05Zm-37.77,62.8c2.29-.37,3.13-3,5-4.25,5.25-3.65,8.84-8.9,13.14-13.47,1.21-1.29,1.79-3.09.49-4.51-1.64-1.77-3,0-4.2,1a35.61,35.61,0,0,0-2.91,2.72c-4.24,4.2-8.49,8.39-12.66,12.65-1.18,1.2-2,2.69-1.5,4.5C625.83,681.54,626.74,682,628.16,681.85ZM182.86,301c-2.22,1.37-5,2.68-6.1,5.26-1,2.42-3.9,5.19-1.82,7.66s5.72,3.44,9.09,3.24a2.81,2.81,0,0,0,2.61-3.95,22.23,22.23,0,0,1-1.38-9.28A2.51,2.51,0,0,0,182.86,301ZM737.72,438.24c-2.63,11.71-1.21,22.89-1.56,34,0,1.45-.43,4,1.83,3.86,1.87-.1,1.9-2.57,1.92-4.13C740,460.87,741.11,449.73,737.72,438.24Zm-554.83-118c-5.85,6.42-3.49,13.7-3.31,20.62,0,1.86.69,4,2.9,4,2.88,0,2.62-2.65,2.59-4.49C185,333.7,186.14,326.89,182.89,320.2ZM479.1,636.5c-1.54-1.12-2.82-.33-4,0-8.68,2.17-15.06,8.83-23.23,12a1.73,1.73,0,0,0-1.06,2.44,2.4,2.4,0,0,0,3.49.83C462.86,647.26,472.15,643.88,479.1,636.5ZM176.35,391c0-1.59.06-2.1,0-2.58-.2-1.4.44-3.51-1.39-3.81s-1.91,1.9-2.61,3.13c-3.22,5.7-3,12.11-3.79,18.31-.12.94-.23,2.23,1,2.52,1.42.33,2.07-.9,2.42-2C173.72,401.11,176.54,395.9,176.35,391Zm22.59,126.64a15.73,15.73,0,0,0,.23,3.45c.84,3,2.4,6.18,5.82,5.48s3.12-4.09,2.22-7a24,24,0,0,1-.77-2.88c-.46-2.43-.55-5.44-4-5.14C198.82,511.89,198.91,514.91,198.94,517.64ZM570.81,456c1.13-.45,1.81-.51,2-.81a101.28,101.28,0,0,1,11.08-18.71,6.71,6.71,0,0,0,1-2.27c.37-1.37.29-2.75-1.18-3.43-1.28-.6-2.23.27-3,1.18-2.73,3.26-3.86,7.34-5.51,11.14A57.16,57.16,0,0,0,570.81,456ZM679.72,323.5c-.82-7.2-3.65-13.56-6.13-20-.48-1.27-.31-3.7-2.34-3s-1.9,3-.93,4.69c3.46,5.83,4.8,12.27,5.92,18.82.23,1.35-.08,3.65,1.89,3.44C680.29,327.16,679.37,324.76,679.72,323.5ZM256,628.19a26.73,26.73,0,0,0,0-3c-.1-1-.37-2-1.68-2a1.73,1.73,0,0,0-1.61,1.62c-1.21,6.33-2.67,12.63-2.57,19.13,0,1.13.09,2.53,1.68,2.52,1.23,0,1.48-1.16,1.57-2.17C253.83,638.86,256.13,633.73,256,628.19Zm378.93-165c-1.42,1.59-2,2-2.23,2.54-2.21,6.2-1.21,12.78-2.08,19.14a1.83,1.83,0,0,0,1,1.43c1.18.27,1.87-.69,2.1-1.64C635.39,478.05,635.63,471.38,634.89,463.18ZM661,292.24a11.36,11.36,0,0,0,0-2.48c-.4-1.69-.34-4.4-2.5-4.2-2.35.21-2.1,2.9-2.16,4.84a3.44,3.44,0,0,0,.33,1.43c1.53,3.43,3.1,6.85,4.64,10.27.54,1.21,1.1,2.92,2.65,2.25,2.06-.88.62-2.41.09-3.73C662.9,297.85,659.38,296,661,292.24ZM624,516.93c-.14,1.07-.81,2.56.89,2.76a2.76,2.76,0,0,0,2.89-2.23c.76-2.51,1.46-5,2-7.58.45-1.88.44-3.86-2-4.21s-3.12,1.49-3.32,3.41C624.26,511.69,624.19,514.31,624,516.93ZM180.47,414.3c5.49-2.31,5.16-6.66,4.67-11-.11-1-.49-2.05-1.65-2.24-1.52-.25-2,1-2.39,2.08C179.9,406.57,178.88,410.08,180.47,414.3ZM639.55,235.06c.14,4.7,2.57,8.82,5.16,8.87,1.45,0,2-.7,2-2.16-.11-3.36-4-10.06-5.71-9.73S639.62,234,639.55,235.06ZM682,624.33c-.16-1.76-1.07-3.14-3.15-2.74-3.3.63-4.44,3.23-4.71,6.24-.14,1.58.2,3.22,2.36,2.92C680,630.26,681.43,627.77,682,624.33ZM682,349l1.11-.06c-.26-5.1-.46-10.2-.81-15.29-.1-1.38-.85-2.78-2.5-2.48s-1,1.74-.82,2.85Q680.47,341.48,682,349ZM154,413.52c-.3-1.47.11-4.33-1.68-4-3.08.58-2.79,4-3,6.48-.1,1.34-.29,3.74,1.74,3.27C153.72,418.68,154,416,154,413.52ZM206.8,650.65c-1.88,3.54-3.15,7.15-2.44,11.17a2.9,2.9,0,0,0,1,1.5c.16.13,1.12-.26,1.16-.5C207.23,658.8,208.74,654.78,206.8,650.65ZM681.91,509.41c-1.18,5.32-3.42,9.13-3.56,13.51,0,1-.07,2.22,1.15,2.47s1.53-1,1.81-1.91C682.59,519.28,682.77,515,681.91,509.41ZM176.26,298.53c.4-3-.86-5.57-1.56-8.19-.34-1.27-1.63-1.75-2.51-.13C170.91,292.59,173,297.09,176.26,298.53ZM733,609.93c-.09-1-.2-2.39-1.74-2.26-2.58.2-3.35,2.61-4,4.47-.47,1.32,1.33,1.73,2.45,1.71C732,613.79,732.6,612.05,733,609.93ZM663.21,312.75c.07,1.34-.11,2.92,1.72,3.05,1.66.11,2.26-1.19,2.25-2.62,0-1.73-.55-3.64-2.52-3.61C663,309.6,663.5,311.6,663.21,312.75ZM676.77,284c-.7,4,.35,6.26,3.06,8.89C679.94,289.29,679.6,286.76,676.77,284ZM652.39,448.5c.24,1-.32,2.78,1.18,2.79,1.78,0,1.48-1.81,1.48-3s0-2.68-1.5-2.56S652.6,447.46,652.39,448.5Z"/><path class="cls-1" d="M884,60.32c1.3,11.83-3.85,20-9.72,27.76a135.88,135.88,0,0,1-12.85,15.23c-7.73,7.56-16.34,12.56-27.68,10.56-.49-.09-1-.11-1.49-.17-16.48-1.91-22.89,2-32,16.24-4.79,7.52-8.39,15-9.15,23.83-.29,3.39-2.28,5.78-6,5.1s-6.38-2.75-6.66-6.91c-.62-9.41,1.81-18.22,6.07-26.4,2.15-4.14,3.62-9,8.36-11.5,1.55-.8.85-2.39.29-3.58-1.45-3.14-.26-5.51,2.13-7.46,2.82-2.31,5.37-5.06,8.9-6.36a18.63,18.63,0,0,0,8.69-6.44A120.29,120.29,0,0,1,823.53,77.8c3.94-4,2.33-9.8,2.29-14.81,0-3.35-4-3.62-6.38-4.83-4.91-2.47-9.88-4.5-15.7-4.15-3.66.22-5.33,1.58-6.31,4.94C796,64,796.16,69.5,793.57,74.38c-1.77,3.36-3.76,6.46-7.34,7.73C778.61,84.82,772,89,765.46,93.74a16.19,16.19,0,0,1-17.1,1.68c-8.94-4.28-15.71-10-19.65-20.31-7.17-18.8-1.15-33,10.95-46.89,11.19-12.85,25.73-18.86,41.57-22.84,5.89-1.48,11-5.52,17.57-4.9,8.44.79,16.85-1.34,25.38-.06,12.57,1.87,22.5,8.19,31.79,16.4,8.9,7.86,16.92,16.35,23.4,26.34A29.3,29.3,0,0,1,884,60.32ZM861.77,70.6c0,1-.06,2,0,3,.16,2-1.57,5,.69,5.9,2.56,1,3-2.55,4.19-4,6.35-7.8,6.27-20.17.82-28.72C864,41.31,859,37.42,855.14,32.5a15.64,15.64,0,0,0-11.42-6.11c-2-.18-4.72-2.38-5.83,0s2.17,3.29,3.71,4.54C854.22,41.2,862.15,53.78,861.77,70.6ZM803,36.1a41.24,41.24,0,0,0-5.56.78c-1.69.49-4,1-3.83,3.23.15,2.48,2.53,2.35,4.27,2.25,9.77-.54,19.1.92,27.9,5.43,1.09.56,2.88,2,3.77-.22.57-1.41-.7-2.43-1.91-3.09C819.73,40.2,811.17,37.88,803,36.1ZM772.59,72c1.47-.2,3,.06,3.66-1.44,2.5-5.8,6.23-10.94,9-16.57,1.58-3.22-1-5.51-3.58-6.59-3.15-1.29-4.24,1.4-4.33,3.77-.24,6.47-3.67,11.58-6.66,16.89C769.27,70.56,769.23,72.18,772.59,72ZM798.14,16.8a140.26,140.26,0,0,1,19.06-1.59c2.22-.06,5-.62,5-3.07,0-2.77-2.82-3.55-5.21-3.37-6.74.52-13.73,0-19.86,3.64-1.93,1.15-6.21.27-5.43,3.6C792.36,18.76,795.77,16.26,798.14,16.8Zm34.44,86.42c2-.53,5.65.79,5.78-2.48a5.11,5.11,0,0,0-4.91-5.22c-2.56-.07-7.45,3.62-6.89,5.37C827.51,103.83,830.3,102.84,832.58,103.22Z"/><path class="cls-1" d="M515.82,433.83c0,8.86-1.3,17.26-7,24.54-2,2.57-4.45,4.08-7.61,4.08-3.85,0-7.09,1.47-10.35,3.22-6.82,3.67-15.26,2.07-21.07-3.1-9.52-8.46-11.23-19.39-10.83-31.18.08-2.32,0-4.66-.09-7-.25-4.28-2-5.32-5.68-3-3.42,2.19-6.33,5-5.47,9.75.55,3,.07,5.33-2.79,7.3-3,2.1-3,5.79-2.74,9.13.37,4.05-1,7.51-5,7.83s-5.94-3-6.45-6.91a8.48,8.48,0,0,1-.23-2c.88-7.3.21-13.55-8.12-16.65-3.83-1.42-4.14-5.24-2.85-9a29.47,29.47,0,0,0,1.7-13.26c-.21-1.87-.25-4,2.41-4,2.43,0,5.31,0,5.6,3.51.16,2-.22,3.94.91,5.82a7,7,0,0,0,6.54,3.78c4.47-.12,11.2-9.47,10.19-13.8-.86-3.73-3-7.09-3.09-11,0-1.7-1-4.07,1.24-4.87a6.13,6.13,0,0,1,6.57,1,11.4,11.4,0,0,1,2.59,3c3.54,7.35,9.68,7.88,16.51,6.3a15.73,15.73,0,0,1,8.37.28,24.87,24.87,0,0,0,8.88.87,22.16,22.16,0,0,1,22.05,13.92c1.42,3.33,4.31,6,4.65,9.83S515.44,430,515.82,433.83ZM493.46,433v-3.19c0-4.91-2.21-7.95-5.64-7.86-4.19.11-7.14,4.05-6.46,8.92a30.49,30.49,0,0,0,3.29,9.9c1.19,2.24,3.46,2.43,5.68,2.23s2-2.14,2.23-3.78C492.84,436.75,493.27,434.3,493.46,433Z"/><path class="cls-1" d="M249.55,487.34c1.83-5.45-2.16-8.37-6.75-10.89-1.74-1-3.68-1.61-5.32-2.71-1.92-1.28-2.13-3.28-1.32-5.35.91-2.29,2.69-2.12,4.58-1.51a3.45,3.45,0,0,0,.95.29c2.75,0,5.8,4,7.73,1.37,2.43-3.27,4.45-7.46,3.52-12.08-.79-3.92-1.64-7.82-2.4-11.75-.42-2.18-.69-4.51,1.72-5.72,2-1,3.88-.4,5.39,1.3,2.08,2.35,4.11,1.68,6.65.39,6.49-3.3,12.78-6.84,20.3-8,16.06-2.45,27.94,6.26,32,20.43,2.31,8,4.47,17.17-1.8,25.37-2.35,3.08-2.7,7.44-5.08,10.77-6,8.36-10.81,10.46-20.8,7.53-7.94-2.33-15.62-5.46-23.8-7.11-2.34-.47-3.25-.11-3.45,1.83-.38,3.52-1.49,7.07,2.56,9.83,3.37,2.29.17,3.6-1.65,4.31-4.46,1.73-9.77-1.37-11.71-6.66C249.62,495.49,249.54,491.81,249.55,487.34Zm32.9-18.68a15.77,15.77,0,0,0,3.39,10.77c1.66,2.2,4.17,2.87,5.78.23,3.34-5.5,5.33-11.39,3.1-18-1-2.85-3.22-3.58-5.74-4-2.74-.48-3.78,1.21-4.65,3.45C283.38,463.58,282,465.92,282.45,468.66Z"/><path class="cls-1" d="M801.43,215c.08,6.88-.28,13.62-4.72,19.45a15,15,0,0,1-2.85,3.4c-8.91,6.51-32.07,7.76-40.52-3.39-6.11-8.06-8.1-21.36-3.41-30.18a5.93,5.93,0,0,1,1.84-2.3c7.18-4.41,13.12-10.62,20.77-14.31,10.14-4.88,16.26-1.78,23.07,7.12C801,201.76,801.33,205.54,801.43,215Z"/><path class="cls-1" d="M137.64,687.23c.3-2.15-.84-4.75,3.59-4.72,3.86,0,3.39-3.21,1.76-5.88-.59-1-1.68-1.81-1-3.11a1.83,1.83,0,0,1,2.19-.72c1.65.31,1.89,1.58,2.07,3,1.58,11.89,4.14,23.51,10,34.14.52.93.84,2-.23,2.63a2,2,0,0,1-2.69-.58c-2.61-4.25-7.22-7.49-6.73-13.33.27-3.16-1.32-5-4.45-5.54C138.87,692.56,137,690.87,137.64,687.23Z"/><path class="cls-1" d="M398.21,604.46c-4.85.08-5.15-.3-5.08-10.35,0-3.53-.33-7.87,5-8.13,4.48-.23,10.78,5.79,10.88,10C409.09,599.39,402.71,604.39,398.21,604.46Z"/><path class="cls-1" d="M375.3,545.9c-3.29-.12-6.21.07-6.05-3.92.13-3.41,1.6-5.82,5.36-5.7,3.58.1,7.11,1.64,7.16,5.39C381.82,545.75,378,545.91,375.3,545.9Z"/><path class="cls-1" d="M241.89,308.26c.43-11.37,4.71-22,5.93-33.25C249.1,286.69,246.07,297.58,241.89,308.26Z"/><path class="cls-1" d="M426.16,270.56c-.19,1-.1,2.26-1.55,2.08a2.35,2.35,0,0,1-2.3-2.21,2.16,2.16,0,0,1,2.12-2.32C426.07,268,426,269.42,426.16,270.56Z"/><path class="cls-1" d="M626.12,361.58v-9.93c3.07,3.67,1.61,6.83,1.56,9.87Z"/><path class="cls-1" d="M628.59,371.38c1.25,5.4,2.15,9.41.67,13.5C627.91,381,628,377,628.59,371.38Z"/></g></g></svg>