<svg xmlns="http://www.w3.org/2000/svg" xmlns:xlink="http://www.w3.org/1999/xlink" width="187.107" height="106" viewBox="0 0 187.107 106">
  <defs>
    <clipPath id="clip-path">
      <rect id="長方形_105" data-name="長方形 105" width="187.107" height="106" fill="none"/>
    </clipPath>
  </defs>
  <g id="グループ_74" data-name="グループ 74" transform="translate(-4422 -120.5)">
    <path id="パス_225" data-name="パス 225" d="M3688.063,464.524l2.257-5.072v-6.976l-3.819-7.306-7.67-8.506-11.006-8.943-4.987-6.542-1.476-8.3,3.041-9.032,5.075-8.508,5.694-6.094,8.166-5.558,9.4-4.633,8.281-2.576h6.609l5.1-1.314h4.553l4.36-2,8.283-3.707,11.59-3.053,5.77-2.357,15.823-2.186h26.8l9.7,2.186,16,5.41,8.664,2.635,7.986,3.072,7.05,6.1,5.34,7.984,3.082,7.713-1.633,10.632-5.343,8.249-6.263,5.344-6.238,1.5,4,3.392,2.233,7.1-3.63,9.424-6.589,4.581-8.664,5.3-10.2,3.127-11.164,3.849-12.966,2.511-13.43,1.328-16.815-1.328-11.813-2.511-10.544-2.208-9.817-1.641h-17.84l-8.281,3.849Z" transform="translate(761 -240)" fill="#fff"/>
    <g id="グループ_73" data-name="グループ 73" transform="translate(4422 120.5)">
      <g id="グループ_71" data-name="グループ 71" clip-path="url(#clip-path)">
        <path id="パス_135" data-name="パス 135" d="M276.23,14.384c.065-.027.2.112.314.029a.636.636,0,0,0-.632-.25c-.037-.056.029-.083.052-.112-.192.028-.432.111-.385.306.22-.111.233-.028.478-.167.145.028.219.139.173.194" transform="translate(-122.556 -6.249)" fill="#202020"/>
        <path id="パス_136" data-name="パス 136" d="M236.379,2.974c-.063,0-.116,0-.1.022.067.007.1-.006.1-.022" transform="translate(-105.079 -1.323)" fill="#202020"/>
        <path id="パス_137" data-name="パス 137" d="M233.645,2.223l.087.023c-.031-.021-.064-.034-.087-.023" transform="translate(-103.91 -0.987)" fill="#202020"/>
        <path id="パス_138" data-name="パス 138" d="M251.678,6.178l-.217-.109c-.029.054.108.07.217.109" transform="translate(-111.831 -2.699)" fill="#202020"/>
        <path id="パス_139" data-name="パス 139" d="M272.677,13.633a.369.369,0,0,0,.136,0l-.119-.021Z" transform="translate(-121.268 -6.052)" fill="#202020"/>
        <path id="パス_140" data-name="パス 140" d="M258.732,7.657l.069.019a.473.473,0,0,0,.077-.056Z" transform="translate(-115.067 -3.389)" fill="#202020"/>
        <path id="パス_141" data-name="パス 141" d="M263.615,9.292a.216.216,0,0,1,.172-.062.232.232,0,0,0,0-.114c-.063-.025-.13.118-.174.177" transform="translate(-117.238 -4.053)" fill="#202020"/>
        <path id="パス_142" data-name="パス 142" d="M108.769,23.041a.175.175,0,0,0-.012-.025c-.009.022-.009.034.012.025" transform="translate(-48.365 -10.236)" fill="#202020"/>
        <path id="パス_143" data-name="パス 143" d="M102.567,24.4l.039-.028a.5.5,0,0,0-.031-.082Z" transform="translate(-45.615 -10.803)" fill="#202020"/>
        <path id="パス_144" data-name="パス 144" d="M228.741,1.263l.012,0c.075-.009.033-.011-.012,0" transform="translate(-101.729 -0.56)" fill="#202020"/>
        <path id="パス_145" data-name="パス 145" d="M182.912.652c.3.115-.451.217-.007.336-.046-.058.372-.275.007-.336" transform="translate(-81.279 -0.29)" fill="#202020"/>
        <path id="パス_146" data-name="パス 146" d="M217.283.346a.2.2,0,0,0,.06.073c0-.016-.014-.037-.06-.073" transform="translate(-96.633 -0.154)" fill="#202020"/>
        <path id="パス_147" data-name="パス 147" d="M212.693.409a.3.3,0,0,0-.172-.024.116.116,0,0,0,.026.021.152.152,0,0,1,.146,0" transform="translate(-94.515 -0.169)" fill="#202020"/>
        <path id="パス_148" data-name="パス 148" d="M208.214.3a.406.406,0,0,0,.047.032l.081-.007Z" transform="translate(-92.6 -0.132)" fill="#202020"/>
        <path id="パス_149" data-name="パス 149" d="M121.3,17.308a.437.437,0,0,1-.16-.086c.077.088-.253.268.16.086" transform="translate(-53.85 -7.659)" fill="#202020"/>
        <path id="パス_150" data-name="パス 150" d="M272.651,13.5a.1.1,0,0,1-.094.039l.083.019c.014-.019.023-.039.011-.058" transform="translate(-121.215 -6.005)" fill="#202020"/>
        <path id="パス_151" data-name="パス 151" d="M212.214,2.593l-.4-.051a3.269,3.269,0,0,0,.4.051" transform="translate(-94.2 -1.131)" fill="#202020"/>
        <path id="パス_152" data-name="パス 152" d="M209.439,2.45a.611.611,0,0,0-.224-.112.163.163,0,0,0-.048.039Z" transform="translate(-93.023 -1.04)" fill="#202020"/>
        <path id="パス_153" data-name="パス 153" d="M102.719,13.426l-.2.144c.078.249.033.564.646.471l.3-.318.175.056-.308.155c.229.021.294-.125.388-.249a.277.277,0,0,0,.217.049l.253-.395c.089.069-.074.258.194.192.119-.184-.264-.125-.015-.328.229.021.219.132.383-.058.059.046.033.1-.036.171.15-.16.474-.264.51-.434.247.043.608-.333.7-.1a1.289,1.289,0,0,1,.409-.42c-.186.414.643-.289.693.036.119-.349.779-.5,1.125-.83-.014.03-.041.09-.083.095a1.36,1.36,0,0,1,.506-.068c-.058-.211.287-.408.43-.612.371.073-.072.306.1.453-.086-.155.428-.368.272-.461.272.028.215-.021.4.1-.069-.266.186-.127.3-.356.37-.008.182.2.5-.02.2.008-.074.225-.074.225.356-.143.088-.254.118-.394.4-.229.255.058.439.1.244-.16.375-.418.576-.492.028.025.071.021.042.078.219-.267.828-.351,1.079-.676a.12.12,0,0,1,.062.029.446.446,0,0,1-.154-.241c.159-.069.25-.243.359-.143-.1.037-.088.091-.118.148l.147-.123c.221.117-.2.157-.152.289a3.606,3.606,0,0,1,.9-.552c.12.154-.562.3-.168.319l-.413.093c.4.155-.242.078.145.262.529-.154.529-.335,1.063-.472.079-.139-.094-.132-.014-.27.671-.436.746.24,1.2-.186.1-.167.069-.41.5-.428l-.058.247c.509-.157.183-.389.757-.44-.066.112-.371.205-.287.2.4.038.2-.2.463-.292l.117.159c.525-.216,1.069-.553,1.651-.795-.015.065-.1.157.059.162a6.516,6.516,0,0,1,1.164-.421c.409-.1.827-.154,1.209-.21l.231-.238c.066-.018.143.034.082.086.3-.025-.016-.1.1-.2.159-.059.242.027.153.1a4.542,4.542,0,0,1,1.931-.7l-.09.077c.431-.058.375-.459.8-.426l-.066.049a9.549,9.549,0,0,1,2.631-.55c.074-.259.926-.114.905-.446a4.138,4.138,0,0,0,1.181.057c.2-.032.244-.268.478-.36l.046.165.287-.253.22.157.217-.1c-.092.012-.209-.029-.206-.081A1.134,1.134,0,0,1,131,4.207l.806-.342c0,.072-.139.129-.24.2.41-.278.119.157.494-.1-.063-.025.008-.107.011-.143A2.4,2.4,0,0,0,133.1,3.69l-.043.128c.633-.087,1.311-.3,2.016-.43-.263-.007-.243-.219-.039-.277l.115.163c.113-.135-.229-.027.021-.213.268-.028.214.169.074.255l.308-.121c.029.049-.041.092-.048.163.111-.135.584.077.738-.151l.028.05c.7-.129,1.012-.25,1.584-.365-.014-.156.216-.164.367-.32a9.5,9.5,0,0,0,1.434-.031c.349-.125.086-.145.234-.258.047.137.557.056.306.192a10.812,10.812,0,0,0,1.544-.351c-.092-.047-.19-.059-.147-.114.138-.042.329.016.318.087l-.036.019c.85-.324,2.062.134,2.725-.236l-.038.018.709-.213c.336,0-.189.123.066.19.758-.3,1.238-.067,1.867-.278.533.378,1.766-.175,2.458.037l-.046-.1c.168-.111.214.039.343.051-.023-.075-.194-.073-.089-.135a9.89,9.89,0,0,1,2.266-.072c.769.038,1.543.1,2.3.122.553.009.3-.521,1.005-.307l-.194.19a8,8,0,0,1,1.7-.153,9.4,9.4,0,0,0,1.681-.044c-.066.041-.068.1-.174.093.23.138.853.023.86-.086.17.016.038.1.142.157.23.083.584-.159.705-.024.021.022-.066.042-.109.052.152-.062.7.029.562-.127.409.081.788-.054,1.112.044.22-.168.7.1.777-.146-.039.253.711.208.976.121-.09.07.222.094.115.192.3.017.569-.01.524-.143.527.338,1.11-.164,1.393.242.886-.073,1.707-.107,2.5-.11-.049.248-.876-.037-.863.228a7.9,7.9,0,0,1,1.947-.122c.19.048-.119.1-.188.139.76-.057,1.439.185,2.118.121,0,.023-.079.039-.149.05.132.008.3.073.3-.041l-.131.015c-.191-.19.558-.28.592-.364-.259.3.647.162.247.528.088-.011.2-.051.192-.129.126.038.16.087.021.157.476,0,.324-.145.749-.091-.008.054-.1.065-.148.124A1.243,1.243,0,0,1,173.5,2c-.026.031.01.078-.1.064a8.124,8.124,0,0,1,1.752.03c-.234.213.219.106.224.315.124-.008.248-.008.371-.007l-.13-.125c.315.059.618-.042.88.073l-.248.043.6.064-.323-.136c.337-.05.006-.265.419-.134-.089.006.316.058.462.207h0a.853.853,0,0,1,.566.013c.05.076-.087.218-.055.268.183-.144.749.082.976-.066a.149.149,0,0,0-.077.164l.154-.116c.139.07.157.095.118.177.436.1-.094-.284.41-.081-.043,0-.027.028-.117.034.515.15,1.032.089,1.5.242.1.229-.431-.024-.3.178.351.042.724.043,1.091.056a4.751,4.751,0,0,1,1.052.168l-.119-.051c.153-.267.467.257.833.2-.087,0-.143.135-.114.108a8.066,8.066,0,0,0,1.661.212l-.1.054a10.053,10.053,0,0,0,.982.3c.1-.054.267,0,.192-.134.791.633,1.774.143,2.465.736-.094-.026-.24,0-.166.021l.686.124c-.019-.139-.067-.1-.182-.237a.784.784,0,0,1,.475,0c-.324,0-.051.2.059.306-.011-.044.044-.073.044-.115.289.32.127-.232.564.053l-.043.057a1.946,1.946,0,0,1,.564.053c.039.165-.209.012-.254.126.273.069.611-.118.815.094-.127.007-.292-.039-.418-.033a.816.816,0,0,0,.452.293l-.018-.009.435.206-.1-.078c.448-.275.709.129,1.237.016-.513.1-.113.112-.2.263.1.078.264.179.2.209.255-.068.328.2.689.1,0,.055.229.071.139.187.292.039-.038-.109.006-.167.491-.064.93.548,1.62.509.558.082.714-.057,1.232.026.137.139-.2.14-.2.14a1.378,1.378,0,0,0,.716.25c-.066.027-.027.083.029.167.205.056.2-.14.438.027a.81.81,0,0,1-.273.136c.253.034.52.019.782.058.033.112-.2.084-.3.112.289.055.742.165.878.054l-.159-.111c.1.028.008.139-.076.139-.275.028-.323-.167-.318-.222l.187.027c-.073-.361-.72-.194-1.065-.333l.223-.168-.424.056c-.057-.083-.068-.223.117-.2-.215-.195-.25,0-.426-.195-.017-.027,0-.034.022-.034l-.269-.021c.064-.029.011-.169.152-.084-.4-.28-.77-.083-.882-.307h.042c-.64-.138-.113.14-.636.17l-.182-.505-.112.14c-.062-.028-.184-.083-.14-.14-.272.029.018.084-.152.142-.256-.263-.872-.2-.861-.475-.15.091.268.18-.091.17-.009-.3-.4-.062-.643-.27.13-.119.377.034.132-.175-.245.194-.537-.212-.792-.234-.068.19-.545-.068-.966-.119a7.5,7.5,0,0,0-1.082-.5l.02-.029c-.127.176-.5.028-.794-.011.043-.115.106-.147.273-.156l-.265-.074a.51.51,0,0,1-.349.028l.106-.128a4.7,4.7,0,0,1-1.184-.248c-.061.132.266.467-.242.448,0-.078.016-.21.15-.212a.4.4,0,0,1-.24-.023l.225-.081c-.195-.1-.135.08-.3.03.03-.106-.1-.1-.059-.183.046,0,.135.077.209.051a.96.96,0,0,1-.451-.275c0,.064-.036.143-.177.125-.359-.074-.091-.156-.285-.259-.1.054-.314-.075-.358.083-.1-.025-.105-.1-.135-.156-.2.028-.868-.178-.7.04l.045.022h-.032a12.977,12.977,0,0,1-1.851-.448l.013-.053a5.635,5.635,0,0,0-1.085-.089c-.106-.024-.23-.155-.171-.209a1.416,1.416,0,0,1-.7-.139c.3-.042-.078-.106.3-.013a1.179,1.179,0,0,0-.83-.136c.159-.115-.237-.221-.416-.21l.233.143a2.968,2.968,0,0,1-.531-.1l.127-.165c-.7-.35-1.4.144-1.893-.324-.217.093.385.159.184.278-.334-.084-.643-.407-.749-.426-.449-.183-.478.19-.952.036.052.076.082.26-.29.258-.334-.083-.374-.346-.152-.361.082.009.118.036.112.058.113,0,.262-.007.138-.1l-.054.057c-.158-.1-.626-.17-.5-.258-.267.017-.126.088.058.155a7.452,7.452,0,0,0-1.121-.245c.067.044.122.129.051.12-.651-.162-.309.088-.761.062-.241-.13.124-.227-.339-.2-.267-.1-.035-.18.082-.22a2.055,2.055,0,0,1-.992-.228l.224-.026a1.341,1.341,0,0,1-.349-.012l.107.146c-.124-.038-.232-.052-.223-.106-.142.069.073.229-.2.315-.162-.087-.525.008-.563-.172.527.124-.038-.182.418-.154a.81.81,0,0,1-.322-.042c-.017-.022.023-.034.058-.039-.493-.218-.259.168-.787.1.078-.089-.1-.2-.19-.19.213.028.083.176-.121.227-.331-.118-.375.012-.551-.018l.2.061c-.079.089-.248.056-.487.058-.012-.078.22-.026.139-.07-.28.14-.575-.25-.953-.179-.163-.087,0-.186-.143-.249-.424.081-.434-.171-.878-.1.113.14.138.11-.179.217l.721-.043-.475.159c.215.017.461-.051.588-.019-.228.092-.2.061-.11.178-.275-.219-.593.074-.92-.083l.039-.326c-.5-.182-.923.1-1.581-.025l.209.072c-.1.124-.411-.011-.63.027.028-.108-.1-.157-.191-.232.006.082-.486-.042-.561.173l-.287-.165c-.533-.1-.63.269-1.143.2.162-.108-.068-.2.282-.263-.172-.013-.326-.044-.333.032-.1-.076-.485.114-.637,0-.075.043-.1.156-.3.134-.02-.024,0-.054,0-.054,0,.05-.306.061-.142.187-.516-.352-1.483,0-1.935-.306-.378.029-.831.056-1.173.058.023-.032,0-.054.067-.042-.47-.111-.295.309-.828.185-.271-.183.286-.091.116-.161-.07-.362-.647.037-1.006-.18l.087-.019c-.275-.128-.674.124-1.124.089,0,0,.022-.032,0-.054a4.834,4.834,0,0,1-1.322.314c.133-.145.2-.081.112-.222-.194.027.06.229-.327.281-.127-.073-.408-.132-.448-.284l.366-.02c-.191-.192-.474.022-.667-.007l.023-.087c-.561.046-.562.264-1.165.268l.064.063c-.322.226-.279-.113-.6.058l-.107-.216a9.579,9.579,0,0,1-1.139.289,4.131,4.131,0,0,1,.945-.373,1.977,1.977,0,0,0-.84.151c.086-.024.193-.081.28-.05a1.835,1.835,0,0,1-1.028.286c.054-.427-1.123-.079-1.453-.364a14.706,14.706,0,0,1-2.39.155c.34.3-.257.031-.175.364-.2.038-.279.039-.3.02l.043.01L147.157.7h0l-.639-.15c-.157-.087.189-.091.163-.165-.453.011-.2-.128-.509-.193.072.116-.141.186-.4.161l.376.126c-.612.232-.571-.239-1.189-.008l.19-.123c-.32.083-1.2.1-1.489.427-.062-.031-.148-.113-.008-.157a15.545,15.545,0,0,1-2.31.432l.048-.09c-.142.043-.231.188-.423.129,0-.035.047-.09-.021-.086a1.214,1.214,0,0,1-.562.173l.151-.114c-.771-.007-1.127.38-1.75.521-.034-.238-.643-.25-.943-.231l0-.036a13.763,13.763,0,0,0-2.239.719,14.736,14.736,0,0,0-2.553.21c.132.021.018.19-.12.241-.2-.013-.488.263-.5.038l.068-.008c-.187-.185-.566-.069-.867,0l.012.3c-.876-.229-2.019.644-2.534.375-.172.117-.408.172-.578.288l-.027-.155a9.14,9.14,0,0,0-1.442.322l.1-.14c-.369.078-.35.55-.685.639l-.16-.2a5.157,5.157,0,0,0-1.895.536.142.142,0,0,1,.1-.146c-.3.082-1.192.185-.994.463-.066-.2-.656.172-.969.361l.009-.164a1.191,1.191,0,0,1-.608.5c-.1.008-.119-.094.018-.093-.339.016-.2.213-.61.247l.114-.137c-.329.084-.288.128-.432.29-.186.119-.627.144-.719.025a.425.425,0,0,1-.365.274c-.042-.043.018-.095.048-.12-.576.059-.741.443-1.158.422a.109.109,0,0,0-.091-.066,7.076,7.076,0,0,1,.742-.237c-.044-.136-.4-.038-.183-.322a2.589,2.589,0,0,1-1,.642.172.172,0,0,1-.06-.031l.029-.027a.439.439,0,0,0-.2.1,1.46,1.46,0,0,0-.291.057c-.078-.1-.415.079-.588.134.066.143-.167.2.085.245-.031,0,.027-.029.138-.075a.388.388,0,0,0,.068-.041l-.007.017.421-.16a.511.511,0,0,1-.446.22,3.531,3.531,0,0,1-.156.322c-.3-.123-.8-.075-.9-.179-.493.267-1.213.489-1.439.88-.135.088-.2-.019-.271-.042.075-.058.179-.09.21-.145-.27.175-.87.338-.867.554-.406.048.14-.257-.357-.032l.046-.087c-1.112.106-1.418,1.152-2.672,1.215.086-.007.128-.012.157.013a11.576,11.576,0,0,0-1.921.773,11.014,11.014,0,0,1-1.928.727c-.368.11-.35.247-.518.438l-.144-.117-.277.346c-.445.37-1.053.048-1.581.6l.132.062c-.24.091-.7.409-.72.274-.014.03-.024.142-.14.132l-.046-.075-.5.405c-.468.153-.087-.345-.736-.053-.224.144-.564.552-.447.561.1-.042.27-.068.317.007m16.452-6.413c-.027.048.15.018.272.024-.089.024-.2.062-.312.1-.042-.043-.032-.1.04-.127m-.441.278v0l-.173.071.172-.073m-1.161-.677-.007.023a.2.2,0,0,1,.019-.09c.107-.061.155-.046.181-.021-.053.021-.114.048-.193.088" transform="translate(-45.531 0)" fill="#b198a4"/>
        <path id="パス_154" data-name="パス 154" d="M129.474,12.248a.294.294,0,0,1-.043.027.593.593,0,0,0,.079.009l.024-.061-.061.024" transform="translate(-57.562 -5.436)" fill="#202020"/>
        <path id="パス_155" data-name="パス 155" d="M252.007,6.34a.091.091,0,0,1,.028.029c-.009-.009-.008-.014-.013-.022Z" transform="translate(-112.076 -2.82)" fill="#202020"/>
        <path id="パス_156" data-name="パス 156" d="M151.3,8.118l-.01-.038-.056.049Z" transform="translate(-67.258 -3.594)" fill="#202020"/>
        <path id="パス_157" data-name="パス 157" d="M262.2,10.072l.229.123a1.935,1.935,0,0,0-.229-.123" transform="translate(-116.608 -4.479)" fill="#202020"/>
        <path id="パス_158" data-name="パス 158" d="M264.557,10.844a.2.2,0,0,0,.046-.057l0,0Z" transform="translate(-117.657 -4.797)" fill="#202020"/>
        <path id="パス_159" data-name="パス 159" d="M225.643,3.366a.248.248,0,0,0-.054,0c-.127.015-.042.013.054,0" transform="translate(-100.298 -1.496)" fill="#202020"/>
        <path id="パス_160" data-name="パス 160" d="M237.332,4.313a1.483,1.483,0,0,1-.219.037c.113.032.2.051.219-.037" transform="translate(-105.452 -1.918)" fill="#202020"/>
        <path id="パス_161" data-name="パス 161" d="M212.58,2.64v0l-.045,0Z" transform="translate(-94.522 -1.172)" fill="#202020"/>
        <path id="パス_162" data-name="パス 162" d="M236.873,4.333a.906.906,0,0,0-.3-.055.6.6,0,0,0,.3.055" transform="translate(-105.212 -1.902)" fill="#202020"/>
        <path id="パス_163" data-name="パス 163" d="M274.829,14.43a.035.035,0,0,1,.016-.021l-.077-.007Z" transform="translate(-122.198 -6.405)" fill="#202020"/>
        <path id="パス_164" data-name="パス 164" d="M274.906,14.409l.076.007c-.032-.011-.061-.019-.076-.007" transform="translate(-122.26 -6.405)" fill="#202020"/>
        <path id="パス_165" data-name="パス 165" d="M275.2,14.44l-.16-.014c.051.018.112.044.16.014" transform="translate(-122.321 -6.416)" fill="#202020"/>
        <path id="パス_166" data-name="パス 166" d="M270.735,12.9c.122.056.276.223.463.25l.031-.037c-.109.052-.344-.262-.494-.213" transform="translate(-120.405 -5.735)" fill="#202020"/>
        <path id="パス_167" data-name="パス 167" d="M267.654,10.331c-.506-.361.077.16-.5-.047.147.054.289.123.433.188-.059-.084-.137-.2.069-.141" transform="translate(-118.811 -4.536)" fill="#202020"/>
        <path id="パス_168" data-name="パス 168" d="M264.594,9.389c.251.043.022-.084.045-.114-.17.009-.211.012-.045.114" transform="translate(-117.626 -4.125)" fill="#202020"/>
        <path id="パス_169" data-name="パス 169" d="M246.288,4.7l.053-.133c-.194-.024-.013.053-.053.133" transform="translate(-109.515 -2.03)" fill="#202020"/>
        <path id="パス_170" data-name="パス 170" d="M242.794,5.454l-.282-.007.169.119Z" transform="translate(-107.853 -2.423)" fill="#202020"/>
        <path id="パス_171" data-name="パス 171" d="M240.631,3.274l-.329,0,.242.011Z" transform="translate(-106.87 -1.454)" fill="#202020"/>
        <path id="パス_172" data-name="パス 172" d="M209.043.057l.053.176c.132-.029.167-.225-.053-.176" transform="translate(-92.968 -0.022)" fill="#202020"/>
        <path id="パス_173" data-name="パス 173" d="M194.947.312a.385.385,0,0,0-.432-.044,2.7,2.7,0,0,0,.432.044" transform="translate(-86.507 -0.098)" fill="#202020"/>
        <path id="パス_174" data-name="パス 174" d="M154.357,4.671l-.272.115.134-.022Z" transform="translate(-68.527 -2.077)" fill="#202020"/>
        <path id="パス_175" data-name="パス 175" d="M100.96,25.43l-.413.164.876-.006c.209-.03.1-.154-.464-.158" transform="translate(-44.717 -11.31)" fill="#202020"/>
        <path id="パス_176" data-name="パス 176" d="M93.417,25.232c.655-.18.813-.134,1.524-.323.566.006.984.107.886.17a7.546,7.546,0,0,0,1.184-.017,7.969,7.969,0,0,0-2.638-.139c-.209-.037-.006-.088.043-.123-.668.1-1.43.27-1,.432" transform="translate(-41.49 -11.029)" fill="#202020"/>
        <path id="パス_177" data-name="パス 177" d="M9.935,68.081c-.065.074-.14.172-.22.284Z" transform="translate(-4.321 -30.278)" fill="#202020"/>
        <path id="パス_178" data-name="パス 178" d="M14.493,124.633c-.194-.178-.283-.244-.3-.242.18.166.336.293.3.242" transform="translate(-6.31 -55.321)" fill="#202020"/>
        <path id="パス_179" data-name="パス 179" d="M22.01,131.7a1.367,1.367,0,0,0,.26.23l-.26-.23" transform="translate(-9.789 -58.571)" fill="#202020"/>
        <path id="パス_180" data-name="パス 180" d="M9.274,68.593c-.194.24-.365.5-.55.744.019.089.285-.38.55-.744" transform="translate(-3.88 -30.506)" fill="#202020"/>
        <path id="パス_181" data-name="パス 181" d="M81.7,26.338a4.682,4.682,0,0,0,.483-.12l-.457.087a.16.16,0,0,1-.026.033" transform="translate(-36.335 -11.66)" fill="#202020"/>
        <path id="パス_182" data-name="パス 182" d="M27.96,47.92l.215-.18a1.985,1.985,0,0,0,.132-.208Z" transform="translate(-12.435 -21.139)" fill="#202020"/>
        <path id="パス_183" data-name="パス 183" d="M44.847,36.852a1.72,1.72,0,0,1,.451-.376c-.011-.028-.057-.043-.156-.039-.234.124-.24.306-.3.415" transform="translate(-19.945 -16.204)" fill="#202020"/>
        <path id="パス_184" data-name="パス 184" d="M76.9,25.931l.321-.069Z" transform="translate(-34.201 -11.502)" fill="#202020"/>
        <path id="パス_185" data-name="パス 185" d="M16.973,58.648a.238.238,0,0,0-.114.041c.015.013.057,0,.114-.041" transform="translate(-7.498 -26.083)" fill="#202020"/>
        <path id="パス_186" data-name="パス 186" d="M298.839,22.324c.013-.007,0-.018.01-.026-.067-.012-.09-.01-.01.026" transform="translate(-132.881 -9.914)" fill="#202020"/>
        <path id="パス_187" data-name="パス 187" d="M275.885,15.46l.187.01a.175.175,0,0,0,.047-.083Z" transform="translate(-122.695 -6.843)" fill="#202020"/>
        <path id="パス_188" data-name="パス 188" d="M36.873,144.617l-.032-.034c-.216-.176-.1-.071.032.034" transform="translate(-16.331 -64.259)" fill="#202020"/>
        <path id="パス_189" data-name="パス 189" d="M172.029,185.121c-1.107-.228,1.829-.034.158-.323.153.073-1.545.122-.158.323" transform="translate(-76.263 -82.186)" fill="#202020"/>
        <path id="パス_190" data-name="パス 190" d="M80.791,26.475l-.467.07c.213-.026.357-.048.467-.07" transform="translate(-35.723 -11.774)" fill="#202020"/>
        <path id="パス_191" data-name="パス 191" d="M49.178,182.685a1,1,0,0,0,.176-.178c-.018,0-.062.039-.176.178" transform="translate(-21.871 -81.167)" fill="#202020"/>
        <path id="パス_192" data-name="パス 192" d="M44.873,152.63l.24.379c-.091-.154-.169-.275-.24-.379" transform="translate(-19.956 -67.88)" fill="#202020"/>
        <path id="パス_193" data-name="パス 193" d="M60.194,179.047a.9.9,0,0,0-.1.028,1.645,1.645,0,0,1-.31.175,2.93,2.93,0,0,0,.41-.2" transform="translate(-26.588 -79.628)" fill="#202020"/>
        <path id="パス_194" data-name="パス 194" d="M75.749,173.906l-.184,0-.3.068Z" transform="translate(-33.471 -77.342)" fill="#202020"/>
        <path id="パス_195" data-name="パス 195" d="M333.787,58.721c-.073.17-.459-1.2-.03.466a2.456,2.456,0,0,1,.03-.466" transform="translate(-148.344 -25.952)" fill="#202020"/>
        <path id="パス_196" data-name="パス 196" d="M81.447,26.278a.583.583,0,0,1-.282.109l.324-.056c.026-.027.029-.05-.042-.053" transform="translate(-36.097 -11.687)" fill="#202020"/>
        <path id="パス_197" data-name="パス 197" d="M59.088,176.717c.491-.227.968-.485,1.475-.676a15.624,15.624,0,0,0-1.475.676" transform="translate(-26.278 -78.291)" fill="#202020"/>
        <path id="パス_198" data-name="パス 198" d="M288.978,158.487a1.787,1.787,0,0,0-.3.191Z" transform="translate(-128.383 -70.484)" fill="#202020"/>
        <path id="パス_199" data-name="パス 199" d="M69.867,172.923c.29-.036.6-.069.906-.127a1.126,1.126,0,0,0,.172-.084c-.358.071-.723.118-1.078.21" transform="translate(-31.072 -76.811)" fill="#202020"/>
        <path id="パス_200" data-name="パス 200" d="M90.855,25.091a.73.73,0,0,0-.181-.01Z" transform="translate(-40.326 -11.154)" fill="#202020"/>
        <path id="パス_201" data-name="パス 201" d="M186.282,39.064c-.139-.424-.274-.85-.446-1.275l-.242-.651c-.085-.218-.189-.433-.281-.656-.384-.888-.714-1.872-1.2-2.939a2.137,2.137,0,0,1,.19.521,24.666,24.666,0,0,0-4.545-6.7c-.9-1.031-1.922-1.928-2.9-2.856l-1.538-1.294c-.495-.449-1.049-.812-1.557-1.23a7.541,7.541,0,0,0-2.244-1.238l-.191-.311-.714-.317-.735-.27a12.912,12.912,0,0,1-1.39-.717c-.434-.257-.877-.476-1.327-.728a14.976,14.976,0,0,0-1.458-.723,16.2,16.2,0,0,0-1.81-.583l.3.229c-.233-.088-.535-.2-.86-.308l-.983-.28c-.62-.179-1.1-.33-1-.37a1.9,1.9,0,0,1-.708-.13l-.008-.092c-.812-.13-1.618-.275-2.427-.391-1.866-.37.36-.295-2.394-.762-.449-.031-1.059-.042-1.579-.037a.138.138,0,0,0-.094-.054l-.066.057c-.607.009-1.042.042-.84.093a2.894,2.894,0,0,1,1.076.25l-.939-.048c-.192.242-.907.436,1.331.84.53,0,1.062-.008,1.589.039l.484.207c-.439-.063-.874-.152-1.315-.195a5.827,5.827,0,0,0,1.756.216,1.851,1.851,0,0,0,.629.243c.526-.006,1.042.058,1.568.084.16.14-.722.041.279.327.736.05-.63-.376.565-.181.714.279.466.336,1.349.484.1.1-.091.087-.436.016.776.158,2.022.532,2.441.571.7.4,2.528.88,2.35,1.107a15,15,0,0,1,2.021.666c-1.31-.332,2.413,1.255,1.947,1.377a10.716,10.716,0,0,1,2.1,1.052c.831.515,1.7,1.149,2.45,1.589a2.137,2.137,0,0,1-.388-.217,12.831,12.831,0,0,1,1.383,1.285c.118-.044.479.163.9.435.4.3.857.669,1.2.9.726.974-.706-.315-.57.091.038-.085.444.238.818.535s.68.6.6.4c.519.767.484.629.664,1.1.305-.056.627.577,1.2,1.089.7,1.132.005.423.95,1.523.15.314.034.211-.123.036s-.385-.4-.385-.4c.454.574.56.709.635.691s.073-.158.205-.059c1,1.455.312.769.544,1.327.333.436.6.838.852,1.213a10.27,10.27,0,0,1,.672,1.088c0,.069.06.215-.064.068a13.28,13.28,0,0,1,.988,2.106c.185.4.314.832.46,1.227s.27.772.406,1.086a.554.554,0,0,1,0,.184c.045-.237.138-.3.221-.271a4.076,4.076,0,0,1,.318,1.458,1.692,1.692,0,0,0-.214-.6l.193.674c-.067.65-.252-.922-.39-.89a16.752,16.752,0,0,1,.7,3.915c-.147.224-.27-2.417-.31-1.023-.009-.535-.087-1.063-.131-1.6-.117,1.253-.124-.96-.272.2a22.248,22.248,0,0,1,.319,4.4c.1.475.158-.152.255.325a6.391,6.391,0,0,1-.368,2.55,5.633,5.633,0,0,0-.442,1.924,4.055,4.055,0,0,1-.374,2.335l-.043-.57a7.977,7.977,0,0,0-.381,1.572,4.589,4.589,0,0,1-.587,1.585,7.851,7.851,0,0,1,.285-.863c.1-.3.175-.515.11-.375a3.571,3.571,0,0,0-.426,1.058,2.312,2.312,0,0,1-.252.876l-.267.118a24.69,24.69,0,0,1-3.648,5.907c.047-.138.267-.489-.14-.1a17.14,17.14,0,0,1-7.582,5.191c-.315.2-.653.34-.983.516-.244.079-.472.08-.219-.038-1.1.238-.026.119-.531.32-.114.032-.394.1-.552.131a2.451,2.451,0,0,1-.4.045c-.168,0-.119-.048.251-.143l-1.443.323-.76.165-.388.084-.049.011c-.017,0-.042,0-.013.018l.093.063.185.125,1.5,1.017.4.278c.122.093.222.188.334.282l.243.206a1.646,1.646,0,0,1,.194.174,7.522,7.522,0,0,1,1.981,3.257l-.2-.352c.291.741.471,1.156.672,1.56a3.242,3.242,0,0,1,.235.661,3.345,3.345,0,0,1,.13.925l-.061-.284a15.335,15.335,0,0,1-.257,5.358,10.886,10.886,0,0,1-1.981,4.282,5.8,5.8,0,0,1-1.093,1.648c-.539.651-1.092,1.242-1.059,1.433a16.539,16.539,0,0,1-1.462,1.161c-.389.268-.836.627-2.015,1.451-.63.439-.81.839-1.594,1.4l-.113-.13-1.007.844-.7.176c-.249.167-.5.328-.759.485.32-.163.7-.309.679-.24a12.158,12.158,0,0,1-3.156,1.461c-.969.55-1.967,1.054-2.966,1.56a2.71,2.71,0,0,1,.635-.408c-1.1.611-.183-.134-1.5.633.216-.056-.066.142-.085.189-.394.123-1.013.377-1.689.677-.687.273-1.431.589-2.061.87l.2-.209c-2.3.947-4.856,1.96-7.491,2.879.486-.122.687-.132.674-.063s-.242.21-.63.341l-.369-.071c-.469.267.837-.2-.155.264-1,.3-.732.018-.18-.22l-1.188.445c-.087-.029.187-.147.24-.235-.464.26-2.131.5-2.8.895l-.084-.033c-2.689.729-3.877,1.18-6.094,1.681-.007.162-.88.332-1.512.61-.41.082-.831.169-1.265.245l-1.34.2c-.915.142-1.868.3-2.855.5-1.379.326-.384.2-1,.4-.127-.124-2.112.2-1.1-.063l-2.791.471-3.276.5c.336.019.71,0,.524.072-.55.087-1.262.086-1.19.009l.144-.031c-.424.073-.865.146-1.319.191s-.922.069-1.395.093c-.946.048-1.915.073-2.861.1a38.959,38.959,0,0,0-5.058.178l.153-.02c-.943.068-1.887.106-2.832.16-1.3-.026.782-.107-.182-.2-.764.057-1.448.089-2.083.092-.635-.016-1.221-.046-1.79-.078-1.137-.074-2.208-.112-3.468-.13A26.6,26.6,0,0,0,91.6,107.8a40.628,40.628,0,0,1-4.971-.682l.135.122a4.475,4.475,0,0,1-1.292-.288c.058.087.714.2.289.191-5.72-.7-11.626-2.445-17.426-3.768-2.129-.468-1.309.239-3.959-.516l.8-.033c-4.352-.626-8.9-1.523-13.26-1.454a2.239,2.239,0,0,1,.692-.069,10.92,10.92,0,0,0-3.407.085c-.676.007-.16-.094-.579-.138-.928-.037-2.3.3-2.8.234-.056-.008.069-.036.209-.062-.347.053-.886.11-1.332.163-.549.077-.947.164-.651.195a17.341,17.341,0,0,0-2.306.386c-.727.144-1.4.329-2.046.443a16.1,16.1,0,0,1-1.675.525,2.666,2.666,0,0,0-1.218.511c.017-.132-.685.042-1.49.36-.4.167-.827.358-1.212.54a8.968,8.968,0,0,0-.931.527c.279-.223-.845.332-.528.057-1.061.545-1.963,1.171-1.721,1.165A9.483,9.483,0,0,0,29,107.492a13.171,13.171,0,0,0,.424-1.53,15.687,15.687,0,0,0,.23-4.811c.071.022.112.255.144.591a8.116,8.116,0,0,1,.039,1.2c.006.86-.129,1.684.02,1.634a14.164,14.164,0,0,0-.164-3.939,27.481,27.481,0,0,0-.892-3.765c-.207-.748.239.384.359.626a21.033,21.033,0,0,0-4.035-7.449,2.668,2.668,0,0,1,.4.408c-.323-.416-.723-.989-.778-.867.118.123.234.248.345.379.186.387-.185.013-.656-.416a9.363,9.363,0,0,0-1.073-.952c.412.221,0-.285-.381-.73s-.718-.852-.082-.488c-.252-.236-.6-.5-.595-.391-.348-.371-.433-.518,0-.217a9.256,9.256,0,0,0-1.172-.966,11.224,11.224,0,0,1-1.064-.877c.041-.037.309.173.483.242a22.972,22.972,0,0,1-2.482-1.917c.071.024.021-.062.178.056-1.822-1.48-3.321-2.32-5.27-4.037.757.31-.649-.634-.625-.883l-1.125-.871.369.446A29.917,29.917,0,0,1,9,75.744c.242.194.484.386.734.571-.581-.517-1.153-1.044-1.7-1.59.289.333.582.662.886.982-.983-.8-.1.293-1.23-.927a16.514,16.514,0,0,1-1.2-1.476l0,0a8.839,8.839,0,0,1-1.453-1.619c-.09-.232.3.014.238-.138a7.543,7.543,0,0,1-1.124-1.372c-.22-.3-.428-.617-.611-.9a7.349,7.349,0,0,0-.492-.654c.158.205.267.157.24.076l-.364-.378c-.232-.528-.252-.611-.131-.568-.71-1.565-.019.617-.763-1.3.072.144.053.069.215.363A17.068,17.068,0,0,1,.762,61.2c.079-.285.128.123.172.519s.135.775.164.453a20.425,20.425,0,0,1-.24-4.115,17.86,17.86,0,0,1,.685-4.036l-.144.471c-.214-.444.679-1.853,1.039-3.137-.094.315,0,.461,0,.367a45.185,45.185,0,0,1,2.775-5.814l-.118.328C5.709,45.355,6.677,43.9,7.4,43c.155-.312.582-.82.242-.574a22.674,22.674,0,0,0,1.765-1.942l1.65-1.9.8-.937c.279-.3.571-.579.86-.859a19.837,19.837,0,0,1,1.812-1.568c-.275.26-.61.67-.392.463.31-.326.646-.624.986-.918l1.012-.892c-.246.038-.321.167-.821.455a10.388,10.388,0,0,1,1.279-1.245c-.882.848.138.153.584-.127-.093.024.021-.122-.038-.125,1.277-.656.034-.345,1.684-1.368l-.043.115a13.57,13.57,0,0,1,1.714-1.334c.355-.05-.612.47-.578.606a20.711,20.711,0,0,1,2.571-1.822c-.369.287-.931.65-1.3.936a10.332,10.332,0,0,0,1.721-.924c.066-.036.133-.069.2-.1l.734-.363c-.165.078-.308.146-.438.209.375-.193.752-.381,1.126-.574l-.433.189a7.784,7.784,0,0,1,1.759-1.231,20.264,20.264,0,0,0,2.193-1.2c-1.511,1-.207.254-.258.466.443-.163,1.106-.426.943-.295.717-.521,1.369-.475,2.419-1.137.071.029.861-.349.729-.148,1.026-.469-.28.013-.218-.086A13.811,13.811,0,0,1,34.5,23.748c.539-.151,1.088-.345,1.666-.5a18.11,18.11,0,0,0,1.751-.572c.514-.169.921-.313,1.273-.445l.954-.31c.594-.2,1.171-.389,2.149-.641.681-.056-.508.309-.508.309,1.081-.175,1.9-.254,2.909-.48-.2.077.019.086.337.1.816-.12.519-.307,1.615-.324a7.793,7.793,0,0,1-.8.3c.957-.171,1.908-.32,2.91-.461.272.072-.6.193-.945.283l1.921-.232a6.189,6.189,0,0,0,1.343-.18l-.549-.031c.139.031-.028.122-.267.147a6.9,6.9,0,0,1-1.068.061.854.854,0,0,1-.39-.086l.715-.094a5.131,5.131,0,0,0-1.905.061l-1.238.189c-.413.058-.809.158-1.169.2l.57-.316-1.447.406c-.321-.014-.556-.11.149-.248-1.049.038-.9.215-1.807.219-.1,0-.059-.023.03-.045-.331.08-.657.182-.986.272.187-.089-.2-.125.423-.222a15.686,15.686,0,0,0-2.2.479,7.528,7.528,0,0,1-1.36.3l.144-.054c-2.43.752-.2.23-1.973.927-.447-.013-.906-.057-1.35-.043l-.185.243c-.249.079-.744.235-.674.14-.886.426.18.016-.32.3a15.076,15.076,0,0,0-2.134.693,3.67,3.67,0,0,1-1.453.444c-.369.292,1.152-.367-.057.228-.465-.113-1.43.608-2.508,1.015.254-.289,1.273-.695.177-.313-.512.544-2.061.9-2.892,1.426.028.1-.424.378-1.056.737A22.991,22.991,0,0,0,22.18,28.9a39.012,39.012,0,0,0-3.9,2.424l.016-.054c-.109.35-1.427,1.2-2.252,2-.043-.124.084-.293.526-.733l-.825.691a6.244,6.244,0,0,1-.908.92l.108-.289c-.273.232-.541.471-.812.718s-.516.531-.788.806c-.539.554-1.122,1.133-1.825,1.731.037.178,1.316-.741.021.694-.1,0-.247-.039.075-.434a5.8,5.8,0,0,1-.607.7l.433-.659c-.609.575-.219.4-.681.878-.071-.085-.393.309-.392.18a7.1,7.1,0,0,0,.572-.616,12.529,12.529,0,0,1-1.462,1.335c.091-.007.11.1-.254.514-.91,1.1-.413.29-.986.9-.159.318-.8.98-.682,1.1a1.58,1.58,0,0,1-.51.437L5.949,43.707c-.363.563-.6.969-.3.674l.117-.15-.062.1A44.1,44.1,0,0,0,2.1,50.84l-.049-.025A20.789,20.789,0,0,0,.883,54.881c-.114.409-.3.963-.335.77-.084.547-.126.852-.155,1.22s-.13.787-.207,1.585c-.014-.56-.041-.467-.051-.423a3.065,3.065,0,0,1,.087-.722A9.631,9.631,0,0,0,.1,60.629c-.169-.526-.115,1.108.053,1.787a8.989,8.989,0,0,1-.021-1.023c.038.386.079.746.145,1.092s.1.687.168,1.024C.354,63.4.278,63.291.2,63.18a11.629,11.629,0,0,0,1.283,3.887c.575,1.121,1.2,2.086,1.635,3.146.524.594-.765-1.419-.265-.9.65,1.185,1.3,2.465,1.557,2.81A5.892,5.892,0,0,0,5.62,73.467a10.615,10.615,0,0,1,1.336,1.308c-.115-.234-.166-.5.889.474.932.961,1,1.346.341.8-.239-.218-.333-.345-.308-.351-.323-.292-.747-.68-.421-.249l.17.078c.416.533,1.786,1.789,1.394,1.57.8.642.395.214-.139-.32,1.206,1.245,2.014,1.8,3.339,2.98-.194-.207-.345-.431-.129-.253,1.961,1.7.964.626,2.35,1.7.715.7-.429-.036,1,1,.795.729.068.279-.3.053A24.694,24.694,0,0,1,18.1,84.819l-.678-.5c.407.3.721.563,1.036.837l-.278-.413c.359.339.675.611.632.646.44.269-.147-.425.687.156.452.482,1.532,1.3,1.57,1.587-1.36-1.357-.15.049-1.017-.687.205.182.425.388.676.644.041.064-.076-.021-.181-.106,1.3,1.48.8.471,2.2,1.954-.245-.124.176.475.413.706-.548-.6-.132-.408.414.117.785,1.044.93,1.071,1.347,1.615l-.446-.641a7.059,7.059,0,0,1,1.173,1.413c-.019.107-.519-.649-.36-.363A15.844,15.844,0,0,1,27.066,95c.21.615-.138.132.05.665a5.879,5.879,0,0,1,.558,1.525c.048.21.1.422.17.676.057.259.137.56.263.947,0-.481-.014-.569.345.536a19.386,19.386,0,0,0-.8-2.576c.236.528.489,1.056.679,1.608l-.164-.6c-.073-.2-.144-.389-.212-.573l-.346-.923c.4.737.314.682.3.265.168,1.127.787,2.11.861,3.433l-.331.013c.039.48.071.931.128,1.375.017.445.086.887.093,1.348a10.015,10.015,0,0,1-.325,3.131l.219-.771a3.037,3.037,0,0,1-.155.988c-.146.421-.275.91-.428,1.284-.073-.109-.3.339-.5.62a4.253,4.253,0,0,1-.39.823c-.107.2-.228.4-.324.577a2.962,2.962,0,0,1-.408.239l-.106.1.24.216-.054.061-2.394,2.64,3.015-2.082.069-.048.226.2c.158-.218.3-.441.444-.666.762-.675,1.2-1.058,1.6-1.483a8.2,8.2,0,0,1,1.672-1.335c-.431.432.354,0-.693.8a5.149,5.149,0,0,0,1.019-.738,19.367,19.367,0,0,1,2.109-1.209,2.948,2.948,0,0,1,.934-.625c.053-.007.046.014.034.031.12-.1.979-.492.381-.36.508-.119,1.079-.336,1.712-.528l.962-.331,1-.31a19.644,19.644,0,0,1,1.945-.525,8.076,8.076,0,0,1,1.621-.229,37.555,37.555,0,0,1,4.45-.706c-.081.038,0,.054-.248.068a4.332,4.332,0,0,0,1.486-.213,4.215,4.215,0,0,1,1.685-.164c1.061.147-1.1.127-.436.175.293.344,2.494-.113,3.879.188l-.336.007c1.051.162,2.6-.006,4.325.215,0,0-.087.023-.016.053a33.008,33.008,0,0,1,5.116.423c-.539.052-.765-.053-.474.142.745.1-.18-.265,1.309-.053a7.411,7.411,0,0,1,1.635.6l-1.394-.249a15.108,15.108,0,0,0,2.529.509l-.11.066c2.133.4,2.208.2,4.49.706l-.222-.116c1.294.064,1.02.348,2.3.468l.329.3c.835.132,2.932.436,4.421.715-.873-.022-2.622-.321-3.713-.466a27.223,27.223,0,0,0,3.231.584,7.255,7.255,0,0,1-1.079-.193,27.853,27.853,0,0,1,4.012.593c-.186.174.872.43,2.127.676a24.2,24.2,0,0,1,3.277.737c.738.079,1.468.18,2.2.3l2.238.3,2.329.331c.8.108,1.627.162,2.488.231-1.193-.426,1.005.071.82-.285a7.919,7.919,0,0,1,1.173.1l-.167-.027.172.029h0c.8.147,1.609.22,2.415.327.572.122-.767.044-.7.123,1.759.1.732.173,1.895.31-.234-.131.619-.149,1.621-.063l-1.409-.213c2.462-.071,2.122.336,4.606.175l-.785.106c.637-.036,1.813-.017,2.984-.066a19.269,19.269,0,0,0,2.954-.326c.227.031.528.112-.031.158,1.524-.009,3.207-.243,4.805-.416,1.6-.154,3.1-.4,4.288-.449l-.219.109a8.5,8.5,0,0,1,1.678-.267c-.032.038-.216.108.046.083.3-.048,1.473-.353,2.222-.42l-.621.191a32.318,32.318,0,0,0,3.645-.646c1.046-.277,2.025-.572,3.238-.837.021.12.608.089,1.335,0s1.581-.279,2.154-.39l-.032.043a41.144,41.144,0,0,0,4.47-1.226c1.362-.461,2.706-.865,4.207-1.423.492-.088,1.141-.253,1.886-.465s1.589-.46,2.448-.78c1.724-.623,3.6-1.262,5.1-1.83-.469.144,0-.207.518-.444.713-.238,1.849-.94,1.827-.689l-.249.1a12.109,12.109,0,0,0,3.09-1.189l.058-.349a25.341,25.341,0,0,0,5.017-2.3c1.649-.928,3.071-1.885,3.894-2.218.6-.484,1.373-1.044,1.925-1.576l.064.149a24.27,24.27,0,0,0,2.106-1.766,18.975,18.975,0,0,0,2.094-2.349l-.25.5a4.653,4.653,0,0,0,.839-1.493,9.352,9.352,0,0,1,.65-1.473,4.366,4.366,0,0,0,.406-.252,15.651,15.651,0,0,0,1.444-3.721,13.428,13.428,0,0,0,.329-1.969,11,11,0,0,0-.046-1.98c.036.042.105.117.127.55a14.049,14.049,0,0,0-.237-2.839c-.052-.247-.1-.481-.153-.687s-.13-.379-.187-.517c-.114-.275-.2-.392-.247-.258.111-.05-.119-.707-.5-1.491a10.2,10.2,0,0,0-1.543-2.139l.269.074c-.492-.4-.716-.614-1.033-.826l-.376-.26a5.918,5.918,0,0,0-.533-.346c-.137-.112.028-.081.167.016-.026-.021-.053-.046-.078-.064l-.071-.048c-.026-.016-.058-.032-.022-.034a.672.672,0,0,0,.153-.072,2.74,2.74,0,0,1,.767-.2,2.074,2.074,0,0,0-.253.167l.21-.053.227-.063c.184-.052.313-.095.423-.137.217-.093.354-.188.685-.357.394-.147.98-.381,1.506-.561a4.8,4.8,0,0,1,1.092-.335,6.687,6.687,0,0,1,1.41-.973c.118-.012-.105.173-.226.254a13.156,13.156,0,0,0,1.264-.8c.349-.274.652-.528.937-.767.549-.508,1.027-.951,1.627-1.438.059.014.149-.037.253-.114a17.22,17.22,0,0,1-2.352,2c.084.119,1.262-.747.458.112.886-.8,2.181-2.317,3.133-3.347a1.013,1.013,0,0,1,.157-.111l-.082.122a6.734,6.734,0,0,0,.556-.7c.292-.343.476-.561.739-.905a9.606,9.606,0,0,0,1.363-1.956c-.164-.03.344-.82-.223-.132.068-.092-.054.125-.3.536-.052.094-.116.2-.145.27,0-.014.009-.031.014-.049-.263.39-.582.916-1.007,1.47a10.562,10.562,0,0,1,1.054-1.641c.105-.368.225-.763.3-.979.674-.729,1.618-2.378,1.815-2.584a29.422,29.422,0,0,0,1.116-3.4,11.571,11.571,0,0,0,.409-2.933,2.161,2.161,0,0,1,.279-.911c-.023.359-.1.778-.09.977.077-.618.188-1.531.24-2.331a4.639,4.639,0,0,0-.08-1.634c.108-1.558.195.881.155-1.267l.073.289a14.711,14.711,0,0,0-.8-5.549M178.5,63.6c.089-.137-.421.323-.79.558a11.961,11.961,0,0,0,.935-.843c.111-.032.07.084-.144.285m1.282-1.471,0,0,.455-.55-.453.552m2.9-2.1c0-.014.012-.043.016-.057a.537.537,0,0,1-.042.2,1.756,1.756,0,0,1-.43.562l.455-.705" transform="translate(0 -6.627)" fill="#b198a4"/>
        <path id="パス_202" data-name="パス 202" d="M329.382,94.791l.092-.174-.177.224c-.016.058-.032.118-.046.17l.131-.22" transform="translate(-146.429 -42.079)" fill="#202020"/>
        <path id="パス_203" data-name="パス 203" d="M10.112,68a.826.826,0,0,1,.093-.1.7.7,0,0,1-.054.046Z" transform="translate(-4.497 -30.201)" fill="#202020"/>
        <path id="パス_204" data-name="パス 204" d="M293.623,155.61l.025.031.192-.17Z" transform="translate(-130.584 -69.143)" fill="#202020"/>
        <path id="パス_205" data-name="パス 205" d="M30.936,47.332a.86.86,0,0,0,.2-.1.938.938,0,0,0-.2.1" transform="translate(-13.758 -21.008)" fill="#202020"/>
        <path id="パス_206" data-name="パス 206" d="M49.935,35.774A.243.243,0,0,0,50,35.668l-.01,0Z" transform="translate(-22.208 -15.863)" fill="#202020"/>
        <path id="パス_207" data-name="パス 207" d="M45.973,150.973l.135.165c.321.385.114.114-.135-.165" transform="translate(-20.446 -67.143)" fill="#202020"/>
        <path id="パス_208" data-name="パス 208" d="M11.677,120.081l.6.556c-.3-.335-.527-.605-.6-.556" transform="translate(-5.193 -53.401)" fill="#202020"/>
        <path id="パス_209" data-name="パス 209" d="M58.8,177.335s0,0,0,0l.162-.081Z" transform="translate(-26.148 -78.832)" fill="#202020"/>
        <path id="パス_210" data-name="パス 210" d="M13.576,121.944c-.3-.339-.556-.616-.813-.857a9.242,9.242,0,0,0,.813.857" transform="translate(-5.676 -53.851)" fill="#202020"/>
        <path id="パス_211" data-name="パス 211" d="M90.537,25.695c0-.01.011-.019.03-.026l-.288.023Z" transform="translate(-40.15 -11.416)" fill="#202020"/>
        <path id="パス_212" data-name="パス 212" d="M91.085,25.627a1.14,1.14,0,0,0-.287.023Z" transform="translate(-40.381 -11.397)" fill="#202020"/>
        <path id="パス_213" data-name="パス 213" d="M91.917,25.537l-.6.05a2.446,2.446,0,0,0,.6-.05" transform="translate(-40.61 -11.357)" fill="#202020"/>
        <path id="パス_214" data-name="パス 214" d="M77.5,26.937,77.424,27c.042-.018.067-.041.071-.068" transform="translate(-34.433 -11.98)" fill="#202020"/>
        <path id="パス_215" data-name="パス 215" d="M75.729,27.113l.059-.054c-.321.117-1.582.185-2.044.372.508-.088,1.285-.162,1.985-.318" transform="translate(-32.796 -12.034)" fill="#202020"/>
        <path id="パス_216" data-name="パス 216" d="M57.728,30.516c.572-.213,1.163-.375,1.742-.566-.323.047-.749.107.036-.177-2.247.587.49-.043-1.778.743" transform="translate(-25.674 -13.241)" fill="#202020"/>
        <path id="パス_217" data-name="パス 217" d="M47.928,34.923c.875-.455-.049-.074-.018-.127-.539.323-.668.4.018.127" transform="translate(-21.107 -15.431)" fill="#202020"/>
        <path id="パス_218" data-name="パス 218" d="M.614,88.908l-.12-.124c-.127.761.053.017.12.124" transform="translate(-0.2 -39.485)" fill="#202020"/>
        <path id="パス_219" data-name="パス 219" d="M1.979,101.583l.148.511c-.023-.241-.069-.476-.074-.718l-.184-.313Z" transform="translate(-0.831 -44.946)" fill="#202020"/>
        <path id="パス_220" data-name="パス 220" d="M3.3,110.829c.222.373.434.75.665,1.114-.171-.268-.323-.549-.486-.824Z" transform="translate(-1.469 -49.289)" fill="#202020"/>
        <path id="パス_221" data-name="パス 221" d="M72.624,174.711l-.26-.116c-.483.151-.535.366.26.116" transform="translate(-32.026 -77.648)" fill="#202020"/>
        <path id="パス_222" data-name="パス 222" d="M127.151,177.59c-.647-.155-1.281-.365-1.617-.415a5.178,5.178,0,0,0,1.617.415" transform="translate(-55.829 -78.796)" fill="#202020"/>
        <path id="パス_223" data-name="パス 223" d="M281.485,164.792l1.007-.514-.486.212Z" transform="translate(-125.186 -73.06)" fill="#202020"/>
      </g>
    </g>
    <path id="パス_226" data-name="パス 226" d="M5.054,14.978v.015l-.176-.674,1.2-1.67.7-.088.366.132L7.222,13a9.807,9.807,0,0,0-1.538,1.978Zm5.537-.806-.85-.6A2.894,2.894,0,0,1,9.1,12.355l.454-.059.571.337a1.927,1.927,0,0,1,.762,1.538ZM4.98,11.315l-.571-.542V9.938l.879-4.1h.22l.088.088H7.412l.571.088.205-.073.073.073H9.331l.249-.088.6.176L10.43,8.21l-.1.308.1.1V9.733l-.337,1.348-.571.146-.088-.073H7.471l-.088.088H6.4l-.088.073Zm4.263-1.23.132-.527-.6-.132-.469.1-.439-.1-.6.1-.937-.1-.615.337-.117.483.366.234h1l.088-.088h1.67ZM9.155,8.8V8.283L7.983,8.107H6.9l-1.113.176V8.8Zm.088-1.318.1-.337-.117-.352-.352-.117H6.2l-.264.5.293.278h1.6l.088.088h.967l.146.176Zm-4.424-2.5a1.926,1.926,0,0,1-1.3-.483L3.34,3.566l.1-.659L3.354,2.7l.088-.088V1.047l.5-.132.425.161h1.1L6.064,1l.088.073h4.1l.088.1h.894l.469.205.088.469-.527,2.725a.878.878,0,0,1-.645.132L10.5,4.621H8.628l-.088.073H6.445Zm.732-1.055.22-.234V2.629l-.293-.615-.4-.088-.513.205-.22,1,.234.82.85.1Zm1.9-.22.381-1.509a.959.959,0,0,0-.981-.366l-.264.234V3.435l.352.439h.381ZM10.4,3.64l.293-1.26-.542-.557H8.95a4,4,0,0,0-.4,1.787l.264.264H9.976ZM22.991,14.392l-.439-.527a11.959,11.959,0,0,0,2.314-5.1l-.22-.381-.381-.22H22.845A13.1,13.1,0,0,0,18.714,9.44l-.366-.308-.073-.527a9.368,9.368,0,0,1,3.97-1.348h1.875a2.238,2.238,0,0,1,1.421.674,2.624,2.624,0,0,1,.381,1.436A10.1,10.1,0,0,1,23.445,14.3ZM23.3,5.31l-.381-.381-.366-.6L20.515,2.614l.161-.308.586-.073,2.783,2.329v.366L23.9,5.31Zm14.129,8.818-.454-.308-.308-.835.088-.073V12.15a.706.706,0,0,1,.835-.22l.454.454a1.709,1.709,0,0,0,.146,1.055l-.527.688Zm-1.816-3.179v-.088l-.308-.22-.146-.981,1.436-1.9h.161l.674-.981,1.436-1.436h.161l.22-.835a2.47,2.47,0,0,0-1.2-.454H36.973a14.633,14.633,0,0,0-3.032.6l-.454-.293-.146-.615a20.307,20.307,0,0,1,2.417-.6h2.124a5.047,5.047,0,0,1,2.432.908,1.541,1.541,0,0,1,.22,1.055l-.674.908H39.7a5.21,5.21,0,0,1-1.289,1.523l-.22.073-.381.688h-.146a3.184,3.184,0,0,0-1.069,1.963l.234.073v.234l-.381.381Zm16.971,3.369-.527-.527v-.7l.161-.352V11.7l.088-.088V10.7a8.605,8.605,0,0,1,.41-2.021l.513-.22.059.059h1.3l.088.1h.908l1.23.41.073.439-.176.776v1.743l-.073.469.073.117V13.82l-.5.146-.542-.088-.894.352H53.153Zm-4.98-.791-.4-.205-.044-.059v-.835l.366-3.12-.454-.176A11.207,11.207,0,0,1,45.2,11.755l-.586-.425v-.352q2.007-3.018,3.721-6.123l.527-.146.439.19.073.527L48.3,7.1l.278.659V9.5l-.088.088v1.055l-.088.073V11.7l-.088.088V13.1l-.22.352Zm7.939-.469.176-.879-.19-.63-1.069-.19-1.113.439-.132.161V13.1a1.136,1.136,0,0,0,1.113.41Zm.1-2.563.073-1.025-.6-.308h-1.3a1.531,1.531,0,0,0-.425,1.318l.249.234h1.641ZM50.4,7.946,49.784,7.4v-.22l.249-.132h1.875a1.146,1.146,0,0,0,.205-.967L52,5.939h-.864l-.5-.542A8.159,8.159,0,0,1,52,4.929l.132-.132V3.171l-.146-.806a1.007,1.007,0,0,1,.776-.132l.366.293V4.621l.161.161h1.128l.352-.352V2.7l-.088-.1V1.823a.772.772,0,0,1,.63-.117l.293.146.161.293V4.3l.894.439.044.308a3.269,3.269,0,0,1-1.113.483l-.19,1,.146.176h1.04l.7-.176h1a.5.5,0,0,1,.205.527,1.777,1.777,0,0,1-1.128.366H55.746l-.1.1h-1.1l-1.89.322-.073-.059H51.5Zm4-1.2L54.6,5.72l-.659-.308-.718.293-.19.732.41.527h.615Zm13.484,7.1-.366-.747a2.131,2.131,0,0,0,.22-.967V10.729l.073-.073V6.35a11.481,11.481,0,0,0-.439-1.86l.293-.146.659.22a5.611,5.611,0,0,1,.527,2.007v.82l.073.22-.073.073v.894l.073.293-.073.073v.894l.073.22-.073.073v.894l-.073.073v1.934l-.22.747ZM64.4,10.583l-.527-.308L63.5,9.089V7.756l.6-3.56.439-.073.439.293.073.22-.439,2.08v.894l-.073.073V9.4a.975.975,0,0,1,.366.806l-.293.381ZM80.37,14.216l-1.494-.82-.073-.308a4.559,4.559,0,0,1,2.607-1.113h.967l.747-.22L83.5,10.48l-.381-.82-.894-.527H81.044a4.218,4.218,0,0,0-2.021,1.055l-.454.439H78.2l-.454-.747A17.025,17.025,0,0,0,81.19,5.705l.366-1.187a.912.912,0,0,0-.747-.161l-1.787.454-.6-.527v-.22A15.207,15.207,0,0,1,80.37,3.61h.894l1.113.454a.819.819,0,0,1,.308.82A25.746,25.746,0,0,1,80.59,8.313l.22.073h1.128a2.719,2.719,0,0,1,1.86.908l.674,1.187v.894l-.82,1.641a5.766,5.766,0,0,1-1.948,1.2H80.59l-.073-.073Zm1.567-.894.586-.674h-.747l-1.553.527-.088.293.234.146h.894Zm12.268,1.187-.381-.381v-.366a14.094,14.094,0,0,0,1.582-3.677V9.1a.966.966,0,0,0-.6-.6h-.835l-1.348.308-1.494,4.2-.381.073-.454-.454v-.293A13.734,13.734,0,0,1,91.2,9.484h-.146l-.908.454-.6-.454V9.03L91.73,7.99q.513-1.8.967-3.6l.454-.073.527.439v.308L93,7.536l.366.146.073-.073h1.274a2.452,2.452,0,0,1,1.436.82l.22.527v1.421a9.841,9.841,0,0,1-1.421,3.911A.829.829,0,0,1,94.206,14.509ZM101.4,9.631l-.454-.22A26.083,26.083,0,0,0,96.3,3.786l-.073-.6.6-.073a38.588,38.588,0,0,1,4.951,5.7l.073.6Zm9.529,4.5-.454-.308-.308-.835.088-.073V12.15a.706.706,0,0,1,.835-.22l.454.454a1.709,1.709,0,0,0,.146,1.055l-.527.688Zm-1.816-3.179v-.088l-.308-.22-.146-.981,1.436-1.9h.161l.674-.981,1.436-1.436h.161l.22-.835a2.47,2.47,0,0,0-1.2-.454h-1.069a14.633,14.633,0,0,0-3.032.6l-.454-.293-.146-.615a20.307,20.307,0,0,1,2.417-.6h2.124a5.047,5.047,0,0,1,2.432.908,1.541,1.541,0,0,1,.22,1.055l-.674.908H113.2a5.21,5.21,0,0,1-1.289,1.523l-.22.073-.381.688h-.146a3.184,3.184,0,0,0-1.069,1.963l.234.073v.234l-.381.381ZM4.5,34.249a3.015,3.015,0,0,1-1.421-.894,1.357,1.357,0,0,1-.366-.981,8.558,8.558,0,0,1,3.354-2.007,9.348,9.348,0,0,0,.454-1.641V27.306l-.308-.674L5.7,26.485l-.381.073L4.8,25.812l.439-.22h.894l1.128.894.22.967V29.02l-.146,1.04.073.073h.967l.073-.073h.894l.234.073a9.807,9.807,0,0,0,.659-2.754v-1.04a.613.613,0,0,1,.674-.308l.381.234.22.659-.747,3.369,1.421.439.146.747-.674.146-.967-.439-.22.073a23.849,23.849,0,0,0-.747,2.754l-.454.161-.513-.381v-.6l.586-2.241L8.6,30.88l-1.714.381a9.478,9.478,0,0,1-1.714,2.754Zm.073-.981.82-1.479h-.22L3.9,32.682v.366a.547.547,0,0,0,.6.308Zm17.014,2.168a3.67,3.67,0,0,1-1.494-1.494l-.073-.747a6.157,6.157,0,0,1,2.769-.967l.366-1.787v-.82l.073-.747-.073-.6.527-.146.513.366.088.073v.747l-.088.234.088.439L23.9,32.521a8.4,8.4,0,0,1,2.241,1.274l.073.454a.605.605,0,0,1-.674.293,4.064,4.064,0,0,0-1.714-1.04,16.29,16.29,0,0,1-.82,1.714l-.454.22Zm.527-.967a1.454,1.454,0,0,0,.439-1.04l-.366-.161-.967.454-.073.366a.917.917,0,0,0,.747.527Zm-3.735-2.314-.439-.454-.088-.894.82-3.135h-.22l-1.187.454-.6-.6v-.293l2.681-.967.527-1.567.454-.088.513.308.073.366-.22.747.22.073,1.274-.22.674.674-.234.293h-.732l-.088.073H20.691l-.527.234a13.71,13.71,0,0,0-1.187,3.5v.747h.146l.073.527A.917.917,0,0,1,18.377,32.154Zm8.95-4.028a21.222,21.222,0,0,1-2.9-1.948l-.073-.513.513-.073a13.245,13.245,0,0,0,3.369,1.86l.073.381A1.143,1.143,0,0,1,27.327,28.126ZM36.5,35.421a13.984,13.984,0,0,1-2.681-3.5v-.366a.707.707,0,0,1,.82-.234,29.569,29.569,0,0,0,2.534,3.735A.851.851,0,0,1,36.5,35.421Zm2.241-3.047-.439-.6.439-.381v-.366q-.513-1.2-1.04-2.388l-.381-.073q-2.388.674-4.775,1.187l-.659-.6v-.22l.293-.366h.747l4.028-.894v-.308a3.071,3.071,0,0,1-.894-1.787l.674-.22.22.293.366.146A6.44,6.44,0,0,0,38,27.438h.674a9.993,9.993,0,0,1,3.135-.674l.381.835-.454.293-.454-.073-2.461.6v.293a10.5,10.5,0,0,1,1.128,3.135A1.655,1.655,0,0,1,38.746,32.374Zm8.518,3.018-.527-.366-.073-.454q2.007-4.38,3.574-8.906l.659-.073.381.527q-1.348,2.813-2.461,5.786h.234L50.6,30.426l.747-.088a2.138,2.138,0,0,1,1.04.674,15.362,15.362,0,0,0,1.333,2.974l.293.073a4.756,4.756,0,0,0,2.08-2.08l.454-.073a.717.717,0,0,1,.22.82l-.967,1.26a2.875,2.875,0,0,1-2.007.967l-.82-.454A8.649,8.649,0,0,1,51.571,31.3l-.454-.073a11.4,11.4,0,0,0-3.193,3.413l-.366.674Zm16.238.044a3.913,3.913,0,0,1-1.274-2.549V30.1l.073-.073V28.9l.146-.513v-.981a.833.833,0,0,1,.674-.146l.527.454v.6l-.293.967v.747l-.088.073v1.729l-.073.308.073.073v.82l.234.981H63.8l.527-.073.22.513a1.885,1.885,0,0,0-.366.908Zm4.57-2.93a2.055,2.055,0,0,1-1.2-.366l-.146-.6a.912.912,0,0,1,.747-.161l1.2.161a3.265,3.265,0,0,0,.981,0l.22-.073.981.293.073.527-.527.22H68.893l-.293-.073Zm-1.729-3-.439-.439v-.381a22.193,22.193,0,0,1,4.116-1.128l.454.234.146.6a1.794,1.794,0,0,1-.894.366h-.747Q67.618,29.137,66.344,29.5Zm13.792,5.112A3.868,3.868,0,0,1,78.129,33.5a5.006,5.006,0,0,1-.894-2.388v-.82l-.073-.381.073-.073V28.492l.146-.747v-.894a.946.946,0,0,1,.747-.146L78.5,27l.073.454L78.2,29.547l.454.073a30,30,0,0,1,6.108-1.787l.454.293v.439a46.222,46.222,0,0,0-6.943,2.168l-.073.527a3.479,3.479,0,0,0,.894,1.934l.747.454h1.113a6.551,6.551,0,0,0,2.915-1.494l.22-.454.674-.073.308.234V32.3l-.308.527a7.58,7.58,0,0,1-3.647,1.787Zm13.938.293-.6-.674q2.227-1.479,4.38-3.047H98l.073-.22a8.864,8.864,0,0,1,2.607-1.479l.073.366A51.026,51.026,0,0,1,95.1,34.615h-.146l-.073.22-.073.073Zm.732-4.16-.82-.82a30.525,30.525,0,0,1-2.373-3.486.866.866,0,0,1,.894-.22q1.26,1.553,2.52,3.193l.234.439V30.6Zm14.187,4.5-.894-.439-.073-.234.146-1.04-.146-.732V29.972l-.073-.293.073-.073v-.82l.073-.073V25.079l-.073-.381a.615.615,0,0,1,.732-.22l.527.439v.674l-.073.073v2.227l-.073.073V29.3a4.167,4.167,0,0,0,1.406.234l.22-.073.674.146h.82l.732.146h1.04l.381.366v.22l-.308.308H112.48l-.073-.073h-.894l-.073-.073h-1.187l-.073-.073h-.967l-.146.146V32.2l.073.073v1.348l.146.439v.82ZM7.266,55.938a3.875,3.875,0,0,1-2.4-.981,1.008,1.008,0,0,1-.381-.967,17.6,17.6,0,0,1,2.4-3.149h.146v-.381A2.576,2.576,0,0,1,5.61,49.4a2.617,2.617,0,0,1-.527-1.348l-.747-.073-.073.073H2.988l-.381-.6a.646.646,0,0,1,.674-.22l.747.073.908-.22.146-.308V45.728l-.146-.82.6-.073.366.293.073.454L5.9,45.8l.073.088v.747l.454.073,1.348-.527.073-.22.381-.161h.908l.366.308v.381a29.777,29.777,0,0,1-3.3,1.187l-.073.088v.747l.747,1.04.82.454a4.067,4.067,0,0,1,2.622-1.348l.454.308v.22L8.76,50.313l-.073.22,1.2,1.128.22.82-.22.527-.454.146-.527-.439v-.454l.073-.381-.6-.747H7.939a10.532,10.532,0,0,0-2.4,3.3,2.973,2.973,0,0,0,1.948.674h.747a15.154,15.154,0,0,0,3.6-1.348l.366.146.161.527a10.991,10.991,0,0,1-3.984,1.509Zm17.19.117L24,55.615v-.234l.366-.366h.161l.747-1.948-.308-.688a2.023,2.023,0,0,0-1.348-.513l-.22.073-.22-.073-2.329.967a8.526,8.526,0,0,1-.82,2.4,2,2,0,0,1-1.2.381l-1.274-.527-.234-.527a8.39,8.39,0,0,1,2.4-2.329l.146-1.421-.073-.454.073-.073V49.155l-.146-.293-.22-.073a7.851,7.851,0,0,1-2.109.6l-.527-.527v-.234a17.122,17.122,0,0,1,2.71-.82l.073-.454-.22-.967.674-.234a.814.814,0,0,1,.6.688l-.088.22.161.454h.527a2.757,2.757,0,0,1,1.274-.308l.293.146.073.674-.6.308H21.219l-.293.146-.073.073v1.128l.073.073v.981l-.073.073v.82h.293a7.794,7.794,0,0,1,1.8-.674h1.128a3.58,3.58,0,0,1,1.655.747,2.4,2.4,0,0,1,.6,1.655A7.373,7.373,0,0,1,25.2,55.981Zm-5.332-1.421.308-.747H19.2l-.366.293-.088.454.308.073Zm7.808-3.97-.688-.308a13.387,13.387,0,0,0-1.714-1.948v-.454l.674-.22.454.293.293.527.6.454a3.116,3.116,0,0,1,.82,1.421Q27.3,50.737,26.931,50.664ZM42.2,56.7l-.278-.264v-.82l.132-.513L41.1,54.9a10.176,10.176,0,0,1-2.476.718H37.252l-.513-.469v-.19l2.109-4.028h-1.2l-.1.1H36.475l-.4-.688.1-.059h1.626L37.9,50.2h1.187l.088-.088h1.143l.674-.176.6.308.029.132a6.488,6.488,0,0,1-1.553.688l-1.875,3.633.747.132,2.49-.776.132-.6-.132-.483.645-.132.425.366.527,1.743v1.553A.917.917,0,0,1,42.2,56.7ZM33.97,55.146l-.688-.513V51.265l.088-.1V49.2h-.454l-2.007,3-.41.073-.425-.205L30,51.777l3.765-5.889.6-.146.4.205.059.425a2.055,2.055,0,0,0-.806,1.538l.278.264v1.318l.073.381-.073.088v4.233l.132.806Zm5.3-7.412-.088-.088h-1a1.833,1.833,0,0,1-1.465-.63l-.044-.22.5-.161L38.995,47H40.4l1.011-.161.527.366v.176a1.389,1.389,0,0,1-1.025.352Zm7.947,8.745a.973.973,0,0,1-.439-.967q1.626-2.358,3.4-4.658l.439-.439h.146l.747-1.26h-.366a12.739,12.739,0,0,0-4.072,1.406.819.819,0,0,1-.439-.879,11.674,11.674,0,0,1,3.691-1.333V48.2l-.366-.366v-.894l-.82-3.252.454-.146.586.439a14.322,14.322,0,0,1,.732,3.56l-.22.732.381.073.073-.073h1.465l.6.439v.22l-.146.308-.967,1.1h-.146q-.879,1.26-1.846,2.446H50.4l.513-.146.82.513a3.189,3.189,0,0,0,1.553,1.772h.659a13.876,13.876,0,0,0,2.593-1.333l.073-.22.659-.146.073.366-.586.894a6.189,6.189,0,0,1-3.032,1.479,3.16,3.16,0,0,1-1.919-1.04L51,53.74h-.308a12.666,12.666,0,0,0-2.8,2.373l-.22.439h-.308Zm19.724-.308a3.7,3.7,0,0,1-1.875-.82,4.076,4.076,0,0,1-1.348-3.3V50.781l-.088-.073V48.525l.088-.073V46.431a.8.8,0,0,1,.747-.234l.366.308v.527l-.073.073v1.729l-.073.073v1.641l.073.073v1.2l.073.073v.835A3.625,3.625,0,0,0,65.89,54.9a3.031,3.031,0,0,0,1.348.454l1.2-.527.073-.22.747-.146.308.22v.293A3.694,3.694,0,0,1,66.945,56.172Zm11.4-.41-1.04-.586a1.24,1.24,0,0,1-.381-.908l.454-.659a8.363,8.363,0,0,1,3.062-1.2l.073-.073V50.547l-.22-.894-.234-.088-1.04.381H78.2l-.454-.454v-.22a22.334,22.334,0,0,1,2.476-.6L80.3,48.6v-1.04l-.161-.674-.659-.073a16.077,16.077,0,0,0-2.314.6l-.454-.454v-.366a6.578,6.578,0,0,1,1.714-.527h.894l.82-.146.088-.073V45.1l.586-.073a.768.768,0,0,1,.454.894,1.49,1.49,0,0,0,1.04.22l.747-.073.381.146.146.527-.454.22H82.3l-.073-.073h-.82a2.191,2.191,0,0,0-.22.967l.22.747.293.073a10.478,10.478,0,0,0,2.168-.366l.381.366v.308a1.825,1.825,0,0,1-.82.366H82.377l-.073.073h-.747l-.146.146v1.2l.146.82-.073.073v.82A8.9,8.9,0,0,1,85,54.355l.073.293.22.073.073.22-.073.381-.674.073-.22-.308-.308-.146a12.9,12.9,0,0,0-2.08-1.567h-.6A6.182,6.182,0,0,1,80.3,55.322a2.553,2.553,0,0,1-1.2.439Zm1.128-1.04a1.919,1.919,0,0,0,.659-1.274h-.293l-1.714.82-.146.527.674.293Zm18.157,1.685-.747-.6v-.293l.22-.527v-.82l.073-.22-.073-.527H96.96a1.518,1.518,0,0,1-1.348.527,3.024,3.024,0,0,1-1.714-.894l-.293-.6v-.894l-.073-.22a6.28,6.28,0,0,1,1.04-1.8,1.744,1.744,0,0,1,1.26-.513l.981.293V47.6l-.6-.146a14.43,14.43,0,0,0-4.849,1.406l-.527-.439-.073-.454.073-.146a23.271,23.271,0,0,1,4.175-1.113h.908l.659-.234.073-.22-.22-1.04a.6.6,0,0,1,.674-.308l.527.527v.82a.818.818,0,0,0,.674.146l.747-.22.513.146.381-.073.439.308.073.366-.366.366h-.22l-.088-.073H98.82l-.366.073-.234-.073-.366.234-.073.073v.82l.073.293-.073.073v1.641l-.073.073v.747l.439,1.729v2.827l-.293.454-.146.22Zm-1.567-3.5v-.161a2.138,2.138,0,0,0,.513-1.187v-.747l-.586-.747h-.308a6.714,6.714,0,0,0-1.04,1.187L94.5,52.378l.513.527.674.146ZM108.408,56.1l-.674-.439-.073-.439v-.747l-.146-.747v-.967l-.293-.073a3.865,3.865,0,0,0-1.333,1.787l-.747.073a.747.747,0,0,1-.293-.747,11.529,11.529,0,0,1,2.593-2.52V49.712l-.293-.073a13.864,13.864,0,0,1-1.787.894l-.586-.366-.088-.454,2.681-1.187V47.339l-.073-.073v-.732l-.073-.381.659-.293.6.513v.308l-.073.073v1.04a5.683,5.683,0,0,0,.894.22l.146.439a1.335,1.335,0,0,1-.967.6l-.073.586.073.381-.073.366.293.073a10.9,10.9,0,0,1,4.307-2.007,1.942,1.942,0,0,1,1.421.6,3.821,3.821,0,0,1,.732,2.08,8.305,8.305,0,0,1-.586,2.227l.293.293,1.04,1.86-.22.439h-.22l-.454-.22-.894-1.626h-.22a2.224,2.224,0,0,1-1.934.806,2.409,2.409,0,0,1-1.406-.806l-.073-.454a3.919,3.919,0,0,1,1.479-1.26l.967-.146.82.146.293-.894V50.386l-.366-.82-.894-.22a19.209,19.209,0,0,0-4.16,2.3l-.146.22v1.04l.073.088V53.8l.439,2.007A.5.5,0,0,1,108.408,56.1Zm4.453-2.3.293-.586-.293-.146-.967.586-.073.293.527.161Zm9.119,2.622a2.153,2.153,0,0,1-1.45-.762l-.234-.454v-.762a8.957,8.957,0,0,1,1.685-2.285,3.81,3.81,0,0,1,1.289-.762h1.143l.835-3.809a1,1,0,0,1-.454-.981l.454-.088.234.088.22-.542.469-.073.454.234.146.6a7.477,7.477,0,0,1,3.662,1.6l.454,1a3.636,3.636,0,0,1-1.377,2.212l-.454.454h-.146l-.234.308-1.143.527-.381-.308v-.454a8.032,8.032,0,0,0,2.666-2.739v-.381a7.73,7.73,0,0,0-3.354-1.216,20.322,20.322,0,0,0-1.143,4.644,3.777,3.777,0,0,1,.85,1.6V54.9a7.967,7.967,0,0,1-2.9,1.523Zm.6-.835v-.146a7.208,7.208,0,0,1-1.289-.762v.527a1.808,1.808,0,0,0,1.216.454Zm.688-1.67.527-.161v-.22l-.527-.088-.146.469.073.073Zm.908-.615-.381-.073v.146h.308Z" transform="translate(4455 145.5)" fill="#b198a4"/>
  </g>
</svg>
