<svg xmlns="http://www.w3.org/2000/svg" width="119.821" height="69.042" viewBox="0 0 119.821 69.042">
  <g id="グループ_154" data-name="グループ 154" transform="translate(-11.09 -3730.56)">
    <g id="グループ_66" data-name="グループ 66" transform="translate(-1937.91 2045)">
      <path id="パス_216" data-name="パス 216" d="M2050.519,1752.308l-1.163-4.982,1.163-4.869,3.97-5.27,4.252-3.833,3.437-2.62,3.869-4.226,2.179-7.488-1.377-5.322-3.851-5.818-3.557-3.547-2.609-2.129-2.343-1.673-2.728-1.536-3.039-1.292-3.8-1.47-2.581-.764H2038.1l-2.231-.4-4.461-.329-3.828-1.767-5.739-2.535-5.073-1.459-7.488-1.567-7.952-.788H1993.4l-6.744.353-6.788,1.477-10.375,3.2-5.991,1.314-5.668,2.991-4.636,3.97-2.9,5.282-1.1,5.106,1.1,5.462,1.972,4.423,3.439,3.387,5.865,2.017-2.326,1.727-1.414,3.633v3.332l2.2,3.593,3.466,3.28,2.67,1.772,5.613,2.484,8.084,3.005,7.627,1.7,8.519,1.082h8.849l9.656-1.082,7.318-1.7,5.739-1.118,7.006-.75,5.384.75,4.218,1.118,3.4.843Z" transform="translate(0.402 0)" fill="#fff"/>
      <g id="グループ_53" data-name="グループ 53" transform="translate(1949 1685.56)">
        <path id="パス_127" data-name="パス 127" d="M1521.59,632.757c-.059-.025-.181.1-.285.026a.576.576,0,0,1,.574-.227c.033-.05-.026-.076-.047-.1.175.025.393.1.35.278-.2-.1-.212-.026-.435-.151C1521.615,632.605,1521.548,632.706,1521.59,632.757Z" transform="translate(-1497.348 -625.363)" fill="#202020"/>
        <path id="パス_128" data-name="パス 128" d="M1482.006,621.377c.057,0,.105,0,.094.02C1482.039,621.4,1482.011,621.392,1482.006,621.377Z" transform="translate(-1446.276 -619.876)" fill="#202020"/>
        <path id="パス_129" data-name="パス 129" d="M1479.455,620.625l-.079.021C1479.4,620.627,1479.434,620.615,1479.455,620.625Z" transform="translate(-1442.698 -619.502)" fill="#202020"/>
        <path id="パス_130" data-name="パス 130" d="M1497.188,624.57l.2-.1C1497.412,624.521,1497.287,624.535,1497.188,624.57Z" transform="translate(-1466.938 -621.409)" fill="#202020"/>
        <path id="パス_131" data-name="パス 131" d="M1518.532,632.034a.338.338,0,0,1-.124,0l.109-.019Z" transform="translate(-1492.651 -625.144)" fill="#202020"/>
        <path id="パス_132" data-name="パス 132" d="M1504.6,626.057l-.063.018a.41.41,0,0,1-.07-.05Z" transform="translate(-1476.746 -622.178)" fill="#202020"/>
        <path id="パス_133" data-name="パス 133" d="M1509.51,627.679a.2.2,0,0,0-.156-.057.21.21,0,0,1,0-.1C1509.409,627.5,1509.469,627.626,1509.51,627.679Z" transform="translate(-1483.388 -622.917)" fill="#202020"/>
        <path id="パス_134" data-name="パス 134" d="M1354.483,641.442a.161.161,0,0,1,.011-.023C1354.5,641.439,1354.5,641.45,1354.483,641.442Z" transform="translate(-1273.347 -629.804)" fill="#202020"/>
        <path id="パス_135" data-name="パス 135" d="M1348.335,642.794l-.036-.026a.5.5,0,0,1,.028-.075Z" transform="translate(-1264.982 -630.435)" fill="#202020"/>
        <path id="パス_136" data-name="パス 136" d="M1474.521,619.666l-.011,0C1474.443,619.661,1474.48,619.659,1474.521,619.666Z" transform="translate(-1436.028 -619.027)" fill="#202020"/>
        <path id="パス_137" data-name="パス 137" d="M1428.63,619.056c-.271.1.41.2.006.3C1428.677,619.309,1428.3,619.111,1428.63,619.056Z" transform="translate(-1373.89 -618.726)" fill="#202020"/>
        <path id="パス_138" data-name="パス 138" d="M1463.069,618.749a.183.183,0,0,1-.055.066C1463.016,618.8,1463.028,618.782,1463.069,618.749Z" transform="translate(-1420.501 -618.574)" fill="#202020"/>
        <path id="パス_139" data-name="パス 139" d="M1458.252,618.809a.265.265,0,0,1,.156-.022.1.1,0,0,1-.023.019A.139.139,0,0,0,1458.252,618.809Z" transform="translate(-1414.127 -618.591)" fill="#202020"/>
        <path id="パス_140" data-name="パス 140" d="M1454.062,618.7a.365.365,0,0,1-.042.029l-.074-.006Z" transform="translate(-1408.258 -618.55)" fill="#202020"/>
        <path id="パス_141" data-name="パス 141" d="M1366.814,635.7a.4.4,0,0,0,.145-.078C1366.89,635.705,1367.19,635.868,1366.814,635.7Z" transform="translate(-1290.221 -626.934)" fill="#202020"/>
        <path id="パス_142" data-name="パス 142" d="M1518.294,631.906a.086.086,0,0,0,.085.035l-.075.018C1518.291,631.941,1518.283,631.923,1518.294,631.906Z" transform="translate(-1492.456 -625.092)" fill="#202020"/>
        <path id="パス_143" data-name="パス 143" d="M1457.545,620.991l.364-.047A2.865,2.865,0,0,1,1457.545,620.991Z" transform="translate(-1413.339 -619.662)" fill="#202020"/>
        <path id="パス_144" data-name="パス 144" d="M1454.9,620.843a.558.558,0,0,1,.2-.1.143.143,0,0,1,.044.035Z" transform="translate(-1409.655 -619.561)" fill="#202020"/>
        <path id="パス_145" data-name="パス 145" d="M1435.1,630.605l.179.131c-.071.227-.03.513-.586.428l-.271-.289-.16.05.28.141c-.208.019-.267-.114-.352-.227a.252.252,0,0,1-.2.045l-.23-.359c-.081.064.067.234-.177.174-.109-.168.239-.114.014-.3-.208.019-.2.119-.348-.053-.053.042-.03.1.033.155-.136-.146-.431-.24-.463-.394-.225.039-.553-.3-.632-.093a1.177,1.177,0,0,0-.371-.382c.169.376-.584-.262-.63.032-.108-.317-.708-.456-1.023-.754.013.027.038.082.076.086a1.248,1.248,0,0,0-.46-.062c.053-.192-.26-.37-.391-.556-.338.067.066.278-.09.412.078-.141-.389-.334-.247-.419-.247.026-.2-.019-.363.089.063-.242-.169-.115-.275-.323-.337-.008-.165.183-.453-.018-.18.008.068.2.068.2-.324-.13-.081-.231-.107-.358-.365-.208-.232.053-.4.087-.221-.145-.341-.38-.523-.447-.025.023-.064.019-.038.071-.2-.243-.752-.319-.981-.615a.107.107,0,0,0-.056.027.405.405,0,0,0,.14-.219c-.144-.063-.227-.221-.326-.13.09.033.08.082.108.135l-.133-.112c-.2.106.186.142.138.263a3.26,3.26,0,0,0-.814-.5c-.109.14.511.273.152.29l.375.084c-.367.141.221.071-.132.238-.481-.14-.48-.3-.967-.429-.072-.126.085-.12.013-.246-.609-.4-.677.218-1.089-.169-.088-.152-.062-.373-.453-.389l.053.224c-.463-.143-.166-.354-.689-.4.06.1.338.187.261.184-.361.035-.182-.181-.421-.265l-.106.144c-.476-.2-.971-.5-1.5-.722.014.059.088.142-.054.147a5.937,5.937,0,0,0-1.058-.383c-.371-.089-.751-.14-1.1-.191l-.21-.216c-.06-.016-.129.031-.074.078-.276-.023.014-.094-.093-.186-.145-.053-.22.024-.14.094a4.125,4.125,0,0,0-1.755-.634l.082.07c-.392-.053-.341-.417-.728-.387l.06.045a8.671,8.671,0,0,0-2.391-.5c-.067-.236-.842-.1-.823-.4a3.783,3.783,0,0,1-1.073.051c-.181-.029-.222-.244-.434-.327l-.041.15-.261-.23-.2.143-.2-.088c.084.011.19-.026.188-.073a1.032,1.032,0,0,0-.834-.006l-.733-.311c0,.066.127.117.219.18-.372-.252-.108.142-.45-.089.058-.023-.007-.1-.009-.13a2.178,2.178,0,0,1-.942-.12l.039.117c-.575-.079-1.191-.274-1.832-.391.239-.007.221-.2.036-.251l-.1.147c-.1-.123.208-.025-.019-.193-.243-.026-.195.154-.067.232l-.281-.11c-.026.045.038.083.044.148-.1-.123-.531.069-.672-.137l-.025.045c-.639-.118-.919-.227-1.439-.332.013-.142-.2-.149-.334-.291a8.626,8.626,0,0,1-1.3-.028c-.317-.114-.078-.131-.214-.235-.042.125-.506.05-.278.175a9.836,9.836,0,0,1-1.4-.319c.084-.042.173-.054.134-.1-.126-.038-.3.015-.289.079l.032.018c-.773-.295-1.874.122-2.477-.214l.034.016-.644-.194c-.305,0,.172.112-.06.173-.689-.272-1.125-.061-1.7-.252-.483.343-1.6-.159-2.233.033l.041-.087c-.152-.1-.194.035-.311.046.021-.068.176-.067.081-.123a9.023,9.023,0,0,0-2.06-.066c-.7.034-1.4.092-2.089.111-.5.009-.275-.473-.914-.279l.177.173a7.275,7.275,0,0,0-1.541-.139,8.551,8.551,0,0,1-1.528-.04c.06.037.062.087.159.085-.209.125-.776.021-.781-.078-.155.015-.035.09-.129.142-.209.076-.531-.144-.641-.022-.019.02.06.038.1.047-.138-.056-.638.027-.51-.115-.372.074-.716-.049-1.011.04-.2-.152-.636.087-.706-.133.036.23-.646.189-.887.11.082.064-.2.086-.1.175-.268.016-.517-.009-.476-.13-.479.307-1.008-.149-1.266.219-.805-.067-1.551-.1-2.275-.1.045.225.8-.033.784.207a7.176,7.176,0,0,0-1.77-.111c-.172.043.109.091.171.126-.69-.052-1.308.169-1.925.11,0,.021.072.036.135.045-.12.007-.272.067-.271-.037l.119.014c.174-.173-.507-.254-.538-.331.236.271-.589.147-.224.48-.08-.01-.184-.046-.175-.118-.114.034-.145.079-.019.143-.432,0-.294-.132-.68-.082.008.049.088.059.135.113a1.131,1.131,0,0,0-.737-.065c.023.028-.01.071.088.059a7.38,7.38,0,0,0-1.593.027c.212.193-.2.1-.2.287-.113-.008-.225-.008-.337-.006l.118-.114c-.287.054-.562-.038-.8.067l.225.039-.543.058.294-.124c-.306-.045-.006-.241-.381-.122.081.005-.288.052-.42.188h0a.776.776,0,0,0-.514.012c-.045.069.079.2.05.244-.167-.131-.68.074-.887-.06a.136.136,0,0,1,.071.149l-.14-.105c-.126.064-.142.086-.107.16-.4.093.085-.258-.372-.073.039,0,.025.026.106.031-.468.136-.938.081-1.365.22-.094.208.392-.022.274.161-.319.038-.657.04-.992.05a4.332,4.332,0,0,0-.957.153l.109-.046c-.139-.242-.424.233-.756.18.079,0,.13.123.1.1a7.3,7.3,0,0,1-1.51.192l.093.049a9.128,9.128,0,0,1-.893.273c-.094-.049-.243,0-.175-.122-.718.575-1.612.13-2.24.669.085-.024.219,0,.151.019l-.623.112c.018-.126.061-.091.166-.215a.713.713,0,0,0-.431,0c.294,0,.046.182-.055.278.011-.04-.04-.067-.04-.1-.262.291-.115-.211-.512.048l.039.052a1.748,1.748,0,0,0-.512.048c-.036.15.19.011.231.115-.247.063-.555-.107-.74.086.115.007.266-.036.38-.03a.74.74,0,0,1-.41.266l.017-.009-.4.187.093-.071c-.406-.25-.643.117-1.124.015.466.093.1.1.179.239-.094.071-.24.162-.182.19-.231-.063-.3.186-.626.092,0,.051-.207.064-.127.17-.265.036.034-.1-.005-.152-.446-.058-.846.5-1.473.463-.507.075-.649-.052-1.12.023-.125.126.18.128.18.128a1.252,1.252,0,0,1-.651.227c.06.025.024.076-.027.152-.187.051-.181-.127-.4.025a.734.734,0,0,0,.247.124c-.23.031-.473.018-.711.053-.03.1.178.076.275.1-.263.05-.674.15-.8.049l.144-.1c-.094.025-.008.126.068.126.251.026.294-.151.29-.2l-.17.025c.066-.328.654-.177.968-.3l-.2-.152.385.051c.052-.076.062-.2-.106-.178.2-.177.227,0,.387-.177.016-.024,0-.031-.02-.031l.245-.019c-.058-.026-.01-.153-.139-.077.365-.254.7-.075.8-.279h-.037c.581-.126.1.128.577.155l.166-.459.1.128c.056-.025.167-.076.127-.127.247.027-.016.077.139.129.233-.239.792-.179.783-.432.136.083-.243.164.082.155.008-.277.362-.056.584-.246-.119-.107-.343.031-.12-.159.223.176.489-.192.72-.213.062.173.495-.062.878-.108a6.836,6.836,0,0,1,.983-.454l-.018-.027c.116.16.457.026.722-.01-.039-.1-.1-.133-.248-.141l.241-.068a.459.459,0,0,0,.316.026l-.1-.117a4.266,4.266,0,0,0,1.076-.226c.055.12-.242.424.219.408,0-.072-.014-.191-.136-.193a.365.365,0,0,0,.218-.021l-.2-.074c.177-.093.124.073.273.027-.027-.1.095-.095.054-.167-.041,0-.123.07-.19.046a.876.876,0,0,0,.41-.25c0,.058.032.13.161.114.326-.068.082-.142.259-.235.095.049.285-.068.325.076.095-.023.1-.094.123-.142.183.025.789-.161.636.036l-.041.02h.029a11.772,11.772,0,0,0,1.682-.407l-.011-.048a5.125,5.125,0,0,1,.986-.081c.1-.022.208-.141.155-.19a1.3,1.3,0,0,0,.64-.127c-.269-.039.071-.1-.271-.012a1.077,1.077,0,0,1,.754-.124c-.144-.1.216-.2.379-.191l-.212.13a2.719,2.719,0,0,0,.482-.088l-.115-.15c.634-.318,1.27.131,1.721-.295.2.085-.35.145-.168.253.3-.076.584-.37.681-.387.408-.166.435.173.865.033-.047.069-.075.236.263.235.3-.076.34-.314.137-.328-.075.008-.107.033-.1.052-.1,0-.238-.007-.126-.092l.05.052c.143-.087.569-.155.454-.235.242.016.115.08-.053.141a6.784,6.784,0,0,1,1.019-.223c-.061.04-.11.118-.046.109.591-.147.281.08.692.057.219-.119-.113-.206.308-.18.242-.092.032-.164-.075-.2a1.868,1.868,0,0,0,.9-.208l-.2-.024a1.22,1.22,0,0,0,.317-.011l-.1.133c.114-.035.211-.047.2-.1.129.063-.066.209.184.286.147-.079.477.008.511-.156-.478.113.035-.165-.38-.14a.738.738,0,0,0,.292-.038c.015-.02-.021-.031-.053-.036.449-.2.235.152.716.09-.072-.081.092-.182.173-.173-.194.026-.076.16.109.206.3-.107.341.011.5-.017l-.181.055c.072.081.225.051.443.053.011-.072-.2-.024-.127-.064.254.128.522-.228.866-.163.148-.079,0-.169.13-.227.385.073.395-.155.8-.091-.1.128-.126.1.162.2l-.656-.039.432.145c-.195.016-.419-.046-.535-.018.207.084.184.056.1.161.251-.2.539.068.837-.075l-.035-.3c.454-.165.839.094,1.437-.023l-.19.066c.09.113.374-.01.573.024-.025-.1.094-.142.174-.21-.005.075.442-.038.509.157l.261-.15c.484-.088.573.245,1.039.178-.147-.1.062-.184-.256-.239.156-.012.3-.04.3.029.088-.069.44.1.579,0,.068.039.094.142.27.122.018-.022,0-.049,0-.049,0,.046.278.055.129.17.469-.32,1.348,0,1.759-.278.343.027.756.051,1.066.052-.021-.029,0-.049-.061-.038.426-.1.268.281.753.169.246-.166-.26-.082-.105-.146.063-.329.588.034.914-.164l-.08-.018c.251-.117.613.113,1.022.081,0,0-.02-.029,0-.049a4.393,4.393,0,0,0,1.2.286c-.121-.132-.178-.073-.1-.2.176.024-.054.208.3.255.115-.067.37-.12.406-.258l-.332-.018c.173-.175.43.02.606-.006l-.021-.079c.509.041.511.24,1.059.243l-.059.058c.293.206.254-.1.548.053l.1-.2a8.741,8.741,0,0,0,1.035.263,3.738,3.738,0,0,0-.858-.339,1.793,1.793,0,0,1,.763.137c-.078-.022-.175-.074-.254-.045a1.666,1.666,0,0,0,.935.26c-.05-.388,1.021-.072,1.32-.331a13.371,13.371,0,0,0,2.173.141c-.308.276.234.028.16.331.182.034.253.036.273.018l-.039.009.042-.011h0l.581-.137c.142-.078-.172-.082-.148-.15.412.01.184-.116.462-.176-.066.106.128.169.365.146l-.342.115c.556.211.52-.217,1.081-.008l-.173-.112c.291.075,1.094.091,1.353.388.056-.028.135-.1.008-.143a14.1,14.1,0,0,0,2.1.393l-.043-.082c.129.039.209.171.384.118,0-.032-.043-.082.019-.078a1.1,1.1,0,0,0,.51.157l-.137-.1c.7-.006,1.024.346,1.59.473.031-.216.584-.227.858-.21l0-.033a12.512,12.512,0,0,1,2.035.654,13.377,13.377,0,0,1,2.319.191c-.12.019-.016.173.11.219.181-.012.443.239.457.035l-.062-.008c.169-.168.515-.063.788,0l-.011.271c.8-.208,1.836.586,2.3.341.156.106.37.156.525.262l.025-.141a8.325,8.325,0,0,1,1.311.293l-.1-.128c.336.071.318.5.622.581l.146-.185a4.7,4.7,0,0,1,1.721.487.127.127,0,0,0-.091-.133c.271.074,1.083.169.9.421.06-.181.6.156.881.328l-.009-.149a1.086,1.086,0,0,0,.553.454c.091.008.108-.086-.017-.085.308.014.185.193.555.224l-.1-.124c.3.077.261.116.393.264.169.109.57.131.653.023a.388.388,0,0,0,.332.249c.038-.039-.016-.086-.044-.11.524.054.674.4,1.053.384a.1.1,0,0,1,.083-.06,6.493,6.493,0,0,0-.674-.215c.04-.123.359-.035.167-.293a2.352,2.352,0,0,0,.906.583.158.158,0,0,0,.054-.028l-.027-.025a.4.4,0,0,1,.186.087,1.328,1.328,0,0,1,.265.052c.071-.089.377.072.534.122-.06.13.152.18-.078.223.028,0-.024-.026-.125-.068a.29.29,0,0,1-.062-.037l.007.016-.384-.145a.466.466,0,0,0,.406.2c.05.115.107.234.142.293.277-.113.723-.069.821-.163.448.242,1.1.444,1.308.8.123.08.182-.017.247-.038-.069-.052-.162-.082-.191-.132.246.159.79.307.788.5.369.044-.128-.233.324-.029l-.042-.079c1.011.1,1.289,1.047,2.429,1.1-.078-.007-.116-.011-.143.012a10.606,10.606,0,0,1,1.746.7,10.026,10.026,0,0,0,1.752.661c.334.1.319.225.471.4l.131-.106.251.315c.405.336.958.043,1.437.542l-.12.057c.218.083.637.371.654.249.014.027.022.129.127.12l.042-.068.454.368c.425.139.079-.313.669-.048.2.131.512.5.406.51C1435.3,630.561,1435.143,630.537,1435.1,630.605Zm-14.953-5.829c.025.043-.137.016-.246.022.081.022.179.056.283.094C1420.222,624.854,1420.213,624.8,1420.147,624.776Zm.4.252v0l.156.064Zm1.055-.616.007.021a.173.173,0,0,0-.018-.082c-.1-.056-.14-.041-.164-.019C1421.476,624.353,1421.531,624.377,1421.6,624.413Z" transform="translate(-1335.893 -618.403)" fill="#707070"/>
        <path id="パス_146" data-name="パス 146" d="M1375.218,630.649a.271.271,0,0,0,.039.025.641.641,0,0,1-.072.008l-.022-.055Z" transform="translate(-1301.45 -624.458)" fill="#202020"/>
        <path id="パス_147" data-name="パス 147" d="M1497.764,624.743a.094.094,0,0,0-.025.026c.008-.009.007-.013.012-.02Z" transform="translate(-1467.548 -621.543)" fill="#202020"/>
        <path id="パス_148" data-name="パス 148" d="M1396.965,626.518l.009-.035.051.044Z" transform="translate(-1330.972 -622.405)" fill="#202020"/>
        <path id="パス_149" data-name="パス 149" d="M1508.139,628.476l-.208.112A1.613,1.613,0,0,1,1508.139,628.476Z" transform="translate(-1481.505 -623.393)" fill="#202020"/>
        <path id="パス_150" data-name="パス 150" d="M1510.33,629.242a.171.171,0,0,1-.041-.051l0,0Z" transform="translate(-1484.572 -623.746)" fill="#202020"/>
        <path id="パス_151" data-name="パス 151" d="M1471.256,621.769a.262.262,0,0,1,.049,0C1471.421,621.783,1471.343,621.782,1471.256,621.769Z" transform="translate(-1431.715 -620.07)" fill="#202020"/>
        <path id="パス_152" data-name="パス 152" d="M1482.845,622.716a1.286,1.286,0,0,0,.2.033C1482.942,622.778,1482.861,622.795,1482.845,622.716Z" transform="translate(-1447.496 -620.539)" fill="#202020"/>
        <path id="パス_153" data-name="パス 153" d="M1458.268,621.042v0l.041,0Z" transform="translate(-1414.054 -619.708)" fill="#202020"/>
        <path id="パス_154" data-name="パス 154" d="M1482.305,622.731a.835.835,0,0,1,.272-.05A.542.542,0,0,1,1482.305,622.731Z" transform="translate(-1446.822 -620.522)" fill="#202020"/>
        <path id="パス_155" data-name="パス 155" d="M1520.514,632.83a.035.035,0,0,0-.015-.019l.07-.006Z" transform="translate(-1495.537 -625.537)" fill="#202020"/>
        <path id="パス_156" data-name="パス 156" d="M1520.707,632.811l-.07.007C1520.666,632.808,1520.692,632.8,1520.707,632.811Z" transform="translate(-1495.73 -625.537)" fill="#202020"/>
        <path id="パス_157" data-name="パス 157" d="M1520.775,632.842l.146-.012C1520.875,632.846,1520.819,632.87,1520.775,632.842Z" transform="translate(-1495.988 -625.549)" fill="#202020"/>
        <path id="パス_158" data-name="パス 158" d="M1516.915,631.3c-.111.05-.251.2-.42.227l-.028-.033C1516.566,631.543,1516.779,631.257,1516.915,631.3Z" transform="translate(-1490.202 -624.79)" fill="#202020"/>
        <path id="パス_159" data-name="パス 159" d="M1512.884,628.722c.46-.328-.07.146.456-.043-.134.049-.263.112-.393.171C1513,628.774,1513.072,628.671,1512.884,628.722Z" transform="translate(-1488.408 -623.455)" fill="#202020"/>
        <path id="パス_160" data-name="パス 160" d="M1510.328,627.781c-.228.039-.02-.077-.041-.1C1510.441,627.686,1510.479,627.689,1510.328,627.781Z" transform="translate(-1484.604 -622.997)" fill="#202020"/>
        <path id="パス_161" data-name="パス 161" d="M1492.029,623.093l-.049-.122C1492.157,622.95,1491.992,623.02,1492.029,623.093Z" transform="translate(-1459.787 -620.664)" fill="#202020"/>
        <path id="パス_162" data-name="パス 162" d="M1488.244,623.857l.256-.006-.153.108Z" transform="translate(-1454.859 -621.102)" fill="#202020"/>
        <path id="パス_163" data-name="パス 163" d="M1486.033,621.677l.3,0-.22.01Z" transform="translate(-1451.896 -620.022)" fill="#202020"/>
        <path id="パス_164" data-name="パス 164" d="M1454.919,618.459l-.048.16C1454.751,618.593,1454.719,618.415,1454.919,618.459Z" transform="translate(-1409.405 -618.427)" fill="#202020"/>
        <path id="パス_165" data-name="パス 165" d="M1440.247,618.708a.35.35,0,0,1,.393-.04A2.46,2.46,0,0,1,1440.247,618.708Z" transform="translate(-1389.919 -618.512)" fill="#202020"/>
        <path id="パス_166" data-name="パス 166" d="M1399.817,623.074l.247.1-.122-.02Z" transform="translate(-1335 -620.717)" fill="#202020"/>
        <path id="パス_167" data-name="パス 167" d="M1346.79,643.834l.375.149-.8-.006C1346.179,643.95,1346.277,643.836,1346.79,643.834Z" transform="translate(-1263.019 -631)" fill="#202020"/>
        <path id="パス_168" data-name="パス 168" d="M1342.29,643.6c-.595-.164-.739-.122-1.385-.293-.515.006-.895.1-.806.154a6.844,6.844,0,0,1-1.076-.016,7.256,7.256,0,0,1,2.4-.127c.189-.033.005-.08-.039-.112C1341.989,643.294,1342.681,643.449,1342.29,643.6Z" transform="translate(-1255.474 -630.687)" fill="#202020"/>
        <path id="パス_169" data-name="パス 169" d="M1255.446,686.484c.059.067.127.156.2.258Z" transform="translate(-1140.728 -661.888)" fill="#202020"/>
        <path id="パス_170" data-name="パス 170" d="M1259.924,743.014c.177-.161.257-.223.276-.22C1260.037,742.945,1259.894,743.06,1259.924,743.014Z" transform="translate(-1147.54 -697.849)" fill="#202020"/>
        <path id="パス_171" data-name="パス 171" d="M1267.979,750.1a1.24,1.24,0,0,1-.237.209Z" transform="translate(-1159.266 -702.512)" fill="#202020"/>
        <path id="パス_172" data-name="パス 172" d="M1254.456,687c.176.219.333.451.5.676C1254.938,687.753,1254.7,687.327,1254.456,687Z" transform="translate(-1139.538 -662.259)" fill="#202020"/>
        <path id="パス_173" data-name="パス 173" d="M1327.872,644.73a4.262,4.262,0,0,1-.439-.109l.415.079A.143.143,0,0,0,1327.872,644.73Z" transform="translate(-1237.072 -631.39)" fill="#202020"/>
        <path id="パス_174" data-name="パス 174" d="M1274.007,666.288l-.2-.164a1.791,1.791,0,0,1-.12-.189Z" transform="translate(-1168.296 -648.769)" fill="#202020"/>
        <path id="パス_175" data-name="パス 175" d="M1290.988,655.217a1.57,1.57,0,0,0-.41-.342c.01-.026.052-.039.142-.036C1290.932,654.952,1290.938,655.118,1290.988,655.217Z" transform="translate(-1193.8 -636.451)" fill="#202020"/>
        <path id="パス_176" data-name="パス 176" d="M1322.925,644.328l-.291-.062Z" transform="translate(-1230.43 -631.213)" fill="#202020"/>
        <path id="パス_177" data-name="パス 177" d="M1262.59,677.051a.212.212,0,0,1,.1.038C1262.68,677.1,1262.642,677.084,1262.59,677.051Z" transform="translate(-1151.381 -655.844)" fill="#202020"/>
        <path id="パス_178" data-name="パス 178" d="M1544.529,640.724c-.012-.006,0-.016-.009-.023C1544.581,640.69,1544.6,640.692,1544.529,640.724Z" transform="translate(-1525.307 -629.445)" fill="#202020"/>
        <path id="パス_179" data-name="パス 179" d="M1521.829,633.856l-.17.009a.158.158,0,0,1-.042-.076Z" transform="translate(-1497.224 -626.024)" fill="#202020"/>
        <path id="パス_180" data-name="パス 180" d="M1282.454,763.009l.029-.031C1282.679,762.817,1282.572,762.912,1282.454,763.009Z" transform="translate(-1181.303 -710.66)" fill="#202020"/>
        <path id="パス_181" data-name="パス 181" d="M1417.834,803.494c1.006-.207-1.662-.031-.144-.293C1417.551,803.268,1419.095,803.312,1417.834,803.494Z" transform="translate(-1359.318 -737.238)" fill="#202020"/>
        <path id="パス_182" data-name="パス 182" d="M1326.055,644.878l.424.064C1326.285,644.918,1326.155,644.9,1326.055,644.878Z" transform="translate(-1235.191 -631.517)" fill="#202020"/>
        <path id="パス_183" data-name="パス 183" d="M1295.069,801.072a.9.9,0,0,1-.16-.162C1294.926,800.91,1294.965,800.946,1295.069,801.072Z" transform="translate(-1200.066 -736.103)" fill="#202020"/>
        <path id="パス_184" data-name="パス 184" d="M1290.822,771.033l-.218.345C1290.686,771.238,1290.757,771.128,1290.822,771.033Z" transform="translate(-1193.646 -715.91)" fill="#202020"/>
        <path id="パス_185" data-name="パス 185" d="M1305.516,797.45a.817.817,0,0,1,.09.025,1.493,1.493,0,0,0,.282.159A2.781,2.781,0,0,1,1305.516,797.45Z" transform="translate(-1210.101 -734.39)" fill="#202020"/>
        <path id="パス_186" data-name="パス 186" d="M1320.992,792.309l.167,0,.277.062Z" transform="translate(-1228.347 -731.843)" fill="#202020"/>
        <path id="パス_187" data-name="パス 187" d="M1579.29,677.091c.066.155.417-1.087.027.424A2.292,2.292,0,0,0,1579.29,677.091Z" transform="translate(-1577.777 -655.719)" fill="#202020"/>
        <path id="パス_188" data-name="パス 188" d="M1326.949,644.681a.524.524,0,0,0,.256.1l-.295-.051C1326.888,644.7,1326.885,644.685,1326.949,644.681Z" transform="translate(-1236.223 -631.42)" fill="#202020"/>
        <path id="パス_189" data-name="パス 189" d="M1306.16,795.058c-.447-.206-.881-.441-1.34-.614A14.2,14.2,0,0,1,1306.16,795.058Z" transform="translate(-1210.053 -732.901)" fill="#202020"/>
        <path id="パス_190" data-name="パス 190" d="M1534.406,776.89a1.622,1.622,0,0,1,.276.174Z" transform="translate(-1510.31 -724.205)" fill="#202020"/>
        <path id="パス_191" data-name="パス 191" d="M1316.579,791.308c-.263-.033-.542-.063-.824-.115a1.038,1.038,0,0,1-.156-.076C1315.925,791.181,1316.257,791.224,1316.579,791.308Z" transform="translate(-1221.541 -731.253)" fill="#202020"/>
        <path id="パス_192" data-name="パス 192" d="M1336.406,643.493a.665.665,0,0,1,.165-.009Z" transform="translate(-1248.979 -630.826)" fill="#202020"/>
        <path id="パス_193" data-name="パス 193" d="M1246.26,648.515c.089-.267.176-.535.286-.8l.155-.41c.055-.137.121-.272.18-.413.245-.559.457-1.178.766-1.85a1.371,1.371,0,0,0-.122.328,15.531,15.531,0,0,1,2.911-4.218c.574-.649,1.231-1.214,1.857-1.8l.985-.815c.317-.282.672-.511,1-.774a4.862,4.862,0,0,1,1.437-.779l.122-.2.457-.2.471-.171a8.4,8.4,0,0,0,.89-.451c.278-.162.561-.3.849-.458a9.674,9.674,0,0,1,.933-.455,10.46,10.46,0,0,1,1.159-.367l-.193.145c.15-.056.343-.128.55-.194l.63-.176c.4-.113.7-.208.64-.232a1.241,1.241,0,0,0,.454-.083l0-.058c.52-.082,1.036-.173,1.554-.246,1.2-.233-.231-.186,1.533-.48.287-.019.678-.026,1.011-.023a.087.087,0,0,1,.06-.034l.042.036c.389.006.667.027.538.059a1.883,1.883,0,0,0-.689.158l.6-.03c.123.152.581.274-.852.529-.339,0-.68-.005-1.018.024l-.31.13c.281-.04.56-.1.842-.123a3.8,3.8,0,0,1-1.125.136,1.2,1.2,0,0,1-.4.153c-.337,0-.667.036-1,.053-.1.089.462.026-.179.206-.471.032.4-.237-.362-.114-.456.176-.3.212-.863.3-.065.063.058.055.279.01-.5.1-1.3.335-1.563.359-.445.253-1.619.554-1.505.7a9.679,9.679,0,0,0-1.295.419c.839-.209-1.545.79-1.247.867a6.908,6.908,0,0,0-1.347.662c-.532.324-1.086.723-1.569,1a1.411,1.411,0,0,0,.248-.137,8.192,8.192,0,0,0-.886.809c-.075-.028-.307.1-.579.274-.256.188-.549.421-.771.568-.465.613.452-.2.365.057-.025-.054-.285.15-.525.337s-.435.38-.386.249c-.333.483-.31.4-.426.69-.2-.035-.4.364-.766.686-.447.712,0,.266-.609.959-.1.2-.022.133.079.023s.246-.255.246-.255c-.291.361-.358.446-.407.435s-.046-.1-.131-.037c-.639.916-.2.484-.348.835-.213.275-.385.528-.546.764a6.323,6.323,0,0,0-.43.685c0,.043-.039.135.041.043a8.334,8.334,0,0,0-.633,1.326c-.119.255-.2.524-.295.773s-.173.486-.26.684a.35.35,0,0,0,0,.115c-.029-.149-.088-.187-.141-.171a2.538,2.538,0,0,0-.2.918,1.055,1.055,0,0,1,.137-.38l-.124.424c.043.409.161-.58.25-.561a10.381,10.381,0,0,0-.449,2.464c.094.141.172-1.522.2-.644.006-.337.055-.669.084-1.006.075.789.08-.6.175.124a13.8,13.8,0,0,0-.2,2.77c-.062.3-.1-.1-.163.2a3.967,3.967,0,0,0,.236,1.605,3.506,3.506,0,0,1,.283,1.212,2.512,2.512,0,0,0,.239,1.47l.028-.359a4.957,4.957,0,0,1,.245.99,2.844,2.844,0,0,0,.376,1,4.878,4.878,0,0,0-.182-.544c-.063-.188-.112-.324-.07-.236a2.222,2.222,0,0,1,.273.666,1.427,1.427,0,0,0,.161.551l.171.074a15.5,15.5,0,0,0,2.336,3.719c-.03-.087-.171-.308.09-.064a10.984,10.984,0,0,0,4.855,3.268c.2.124.419.215.63.325.157.05.3.05.14-.024.7.15.017.075.34.2.074.02.253.063.354.083a1.561,1.561,0,0,0,.255.028c.107,0,.076-.03-.16-.09l.923.2.487.1.248.052.031.007c.01,0,.026,0,.008.011l-.06.04-.119.079-.958.64-.255.175c-.078.059-.142.118-.213.177l-.156.13a1.1,1.1,0,0,0-.124.11,4.719,4.719,0,0,0-1.268,2.05l.125-.222c-.186.467-.3.727-.43.983a2.007,2.007,0,0,0-.151.416,2.075,2.075,0,0,0-.083.582l.039-.179a9.484,9.484,0,0,0,.165,3.373,6.8,6.8,0,0,0,1.269,2.7,3.641,3.641,0,0,0,.7,1.037c.345.41.7.782.678.9a10.6,10.6,0,0,0,.937.731c.249.169.535.395,1.29.913.4.276.519.528,1.021.88l.072-.082.645.531.45.111q.24.157.487.305c-.205-.1-.449-.195-.435-.151a7.85,7.85,0,0,0,2.021.92c.621.346,1.26.663,1.9.982a1.733,1.733,0,0,0-.406-.256c.707.384.117-.085.963.4-.138-.035.042.089.055.119.252.077.648.237,1.081.426.44.172.917.371,1.32.547l-.128-.132c1.47.6,3.11,1.234,4.8,1.812-.312-.077-.44-.083-.432-.039s.155.132.4.215l.237-.045c.3.168-.536-.123.1.166.642.188.469.011.116-.138l.761.28c.056-.018-.12-.092-.153-.148.3.164,1.365.317,1.79.563l.054-.021c1.722.459,2.483.743,3.9,1.058,0,.1.564.209.968.384.262.052.532.106.81.155l.858.129c.586.089,1.2.189,1.828.315.883.205.246.128.638.251.081-.078,1.352.124.7-.04l1.788.3,2.1.313c-.215.013-.455,0-.335.045.352.055.808.054.762.006l-.092-.02c.271.046.553.092.845.12s.59.043.893.059c.606.03,1.227.046,1.832.062a25.367,25.367,0,0,1,3.239.112l-.1-.013c.6.043,1.208.066,1.813.1.835-.016-.5-.067.117-.123.489.036.927.057,1.334.058s.782-.029,1.146-.049c.729-.047,1.414-.07,2.22-.082a17.4,17.4,0,0,1,2.87-.344,26.471,26.471,0,0,0,3.184-.429l-.087.077a2.9,2.9,0,0,0,.828-.181c-.037.055-.457.129-.185.12,3.663-.438,7.445-1.539,11.159-2.372,1.364-.294.838.15,2.535-.325l-.513-.021a56.053,56.053,0,0,1,8.492-.915,1.457,1.457,0,0,0-.443-.043,7.114,7.114,0,0,1,2.182.054c.433,0,.1-.059.371-.086.594-.024,1.473.188,1.791.147.036-.005-.044-.022-.134-.039.223.034.567.069.853.1.351.048.606.1.417.122a11.337,11.337,0,0,1,1.477.243c.465.091.9.207,1.31.279a10.48,10.48,0,0,0,1.073.331,1.719,1.719,0,0,1,.78.321c-.01-.083.439.026.954.227.256.1.53.225.776.34a5.708,5.708,0,0,1,.6.332c-.178-.141.541.209.338.036.68.343,1.257.738,1.1.733a6.1,6.1,0,0,1,1.232.752,8.079,8.079,0,0,1-.272-.963,9.7,9.7,0,0,1-.147-3.029c-.046.014-.072.161-.093.372a5.063,5.063,0,0,0-.025.756c0,.542.083,1.06-.013,1.029a8.757,8.757,0,0,1,.1-2.48,17.075,17.075,0,0,1,.571-2.37c.132-.471-.153.242-.23.394a13.173,13.173,0,0,1,2.584-4.69,1.7,1.7,0,0,0-.256.257c.207-.262.463-.623.5-.546-.076.078-.15.156-.221.238-.119.244.118.008.42-.262a6.02,6.02,0,0,1,.687-.6c-.264.139,0-.18.244-.459s.46-.536.052-.307c.161-.149.381-.316.381-.246.222-.234.277-.326,0-.136a5.892,5.892,0,0,1,.751-.608,7.063,7.063,0,0,0,.681-.552c-.026-.023-.2.109-.309.152a14.635,14.635,0,0,0,1.59-1.207c-.046.015-.014-.039-.114.035,1.167-.932,2.126-1.46,3.375-2.541-.485.2.416-.4.4-.556l.721-.548-.237.281a19.131,19.131,0,0,0,1.665-1.4c-.155.122-.311.243-.47.359.372-.325.738-.657,1.092-1-.185.209-.373.417-.567.618.629-.5.061.184.788-.584a10.451,10.451,0,0,0,.77-.929l0,0a5.6,5.6,0,0,0,.93-1.019c.058-.146-.189.009-.152-.086a4.779,4.779,0,0,0,.72-.864c.141-.19.274-.388.391-.564a4.677,4.677,0,0,1,.315-.411c-.1.129-.17.1-.154.048l.233-.238c.149-.332.161-.384.084-.358.455-.985.013.389.489-.815-.046.091-.034.043-.138.229a10.6,10.6,0,0,0,.946-3.544c-.051-.179-.082.077-.11.327s-.087.488-.1.285a12.692,12.692,0,0,0,.154-2.591,11.044,11.044,0,0,0-.439-2.541l.093.3c.137-.279-.435-1.166-.665-1.974.06.2,0,.29,0,.231a28.267,28.267,0,0,0-1.778-3.66l.076.207c-.392-.553-1.011-1.468-1.474-2.036-.1-.2-.373-.516-.155-.362a14.366,14.366,0,0,1-1.13-1.223l-1.057-1.2-.513-.59c-.179-.187-.366-.364-.551-.541a12.6,12.6,0,0,0-1.161-.987c.177.164.391.422.251.291-.2-.205-.414-.393-.631-.578l-.648-.561c.157.024.205.1.526.287a6.593,6.593,0,0,0-.819-.784c.565.534-.088.1-.374-.08.059.015-.014-.077.024-.079-.818-.412-.021-.218-1.078-.861l.027.072a8.651,8.651,0,0,0-1.1-.84c-.228-.031.391.3.37.382a13.2,13.2,0,0,0-1.647-1.147c.237.181.6.409.832.589a6.676,6.676,0,0,1-1.1-.582l-.127-.065-.47-.228.281.132c-.24-.121-.482-.24-.721-.361l.277.119a4.977,4.977,0,0,0-1.126-.775,13,13,0,0,1-1.4-.754c.968.629.132.16.165.293-.283-.1-.708-.268-.6-.185-.459-.329-.877-.3-1.549-.716-.045.018-.551-.22-.467-.093-.657-.3.179.008.139-.054a8.954,8.954,0,0,0-1.813-.641c-.345-.1-.7-.217-1.066-.318a11.767,11.767,0,0,1-1.122-.36c-.329-.106-.59-.2-.815-.28l-.611-.2c-.38-.124-.75-.245-1.376-.4-.436-.035.325.194.325.194-.693-.11-1.217-.16-1.863-.3.128.049-.012.054-.216.063-.523-.076-.332-.193-1.034-.2a5.085,5.085,0,0,0,.509.192c-.613-.108-1.222-.2-1.863-.29-.175.045.382.121.6.178L1333.7,637a4.022,4.022,0,0,1-.86-.114l.351-.019c-.089.019.019.077.171.093a4.452,4.452,0,0,0,.684.038.558.558,0,0,0,.25-.054l-.458-.059a3.339,3.339,0,0,1,1.22.038l.793.119c.265.037.519.1.749.125l-.365-.2.927.255c.206-.009.356-.069-.1-.156.672.024.576.135,1.157.138.065,0,.038-.014-.02-.028.212.051.421.115.631.171-.119-.056.127-.079-.271-.14a10.209,10.209,0,0,1,1.409.3,4.881,4.881,0,0,0,.871.192l-.092-.034c1.556.473.125.145,1.264.584.286-.009.58-.036.865-.028l.118.153c.16.05.477.148.432.088.567.268-.116.01.2.191a9.771,9.771,0,0,1,1.367.436,2.379,2.379,0,0,0,.93.28c.236.183-.738-.231.037.144.3-.071.916.383,1.605.639-.163-.182-.815-.438-.113-.2a13.776,13.776,0,0,0,1.852.9c-.018.063.271.238.676.464a14.715,14.715,0,0,1,1.356.8,25.1,25.1,0,0,1,2.5,1.526l-.01-.034c.069.22.914.757,1.442,1.258.028-.078-.054-.184-.337-.461l.528.435a3.951,3.951,0,0,0,.581.579l-.069-.182c.175.146.347.3.52.452s.331.334.5.507c.345.349.719.713,1.169,1.09-.023.111-.843-.467-.013.436.066,0,.158-.025-.048-.273a3.7,3.7,0,0,0,.389.442l-.277-.415c.39.362.14.249.436.553.045-.054.252.2.251.113a4.535,4.535,0,0,1-.366-.387,8.036,8.036,0,0,0,.936.84c-.059,0-.071.062.163.323.582.694.264.183.631.568.1.2.51.617.437.693a1.008,1.008,0,0,0,.327.275l.7.983c.233.354.386.61.19.424l-.075-.095.04.066a27.665,27.665,0,0,1,2.308,4.1l.031-.015a12.891,12.891,0,0,1,.75,2.56c.073.257.191.607.215.485.054.345.081.536.1.768s.083.5.132,1c.009-.352.026-.294.033-.266s.016.022-.055-.454a5.981,5.981,0,0,1,.076,2.088c.108-.331.073.7-.035,1.125a5.506,5.506,0,0,0,.014-.644c-.024.243-.051.469-.093.688s-.062.433-.107.645c.06-.067.109-.137.162-.208a7.233,7.233,0,0,1-.822,2.447c-.368.705-.766,1.313-1.047,1.98-.335.374.49-.893.17-.568-.416.746-.833,1.552-1,1.769a3.718,3.718,0,0,1-.777.847,6.763,6.763,0,0,0-.855.823c.073-.147.106-.314-.57.3-.6.6-.638.847-.218.5.153-.137.213-.217.2-.221.207-.184.479-.428.27-.157l-.109.049c-.266.335-1.144,1.126-.893.988-.51.4-.253.134.089-.2-.773.784-1.29,1.134-2.138,1.875.125-.13.221-.272.083-.159-1.255,1.072-.617.394-1.5,1.073-.458.442.274-.023-.641.631-.509.459-.044.175.191.033a15.777,15.777,0,0,0-1.89,1.61l.435-.314c-.261.187-.462.354-.664.527l.178-.26c-.23.213-.432.385-.4.407-.282.169.094-.268-.44.1-.289.3-.98.818-1,1,.871-.854.1.031.651-.432-.132.114-.272.244-.433.405-.026.041.048-.013.115-.066-.83.932-.514.3-1.41,1.23.157-.078-.113.3-.264.445.351-.38.084-.257-.265.074-.5.657-.595.675-.862,1.016l.285-.4a4.491,4.491,0,0,0-.751.889c.012.067.333-.409.231-.229a9.9,9.9,0,0,0-1.142,2.021c-.135.388.088.083-.032.419a3.648,3.648,0,0,0-.357.96c-.031.132-.062.266-.11.425a6.165,6.165,0,0,1-.168.6c0-.3.009-.358-.221.338a12.066,12.066,0,0,1,.509-1.622c-.151.332-.313.665-.435,1.012l.105-.379.136-.361.221-.581c-.256.464-.2.429-.194.167a18.585,18.585,0,0,0-.552,2.161l.212.008c-.025.3-.045.586-.082.866-.011.28-.055.559-.06.849a6.192,6.192,0,0,0,.208,1.971l-.14-.485a1.873,1.873,0,0,0,.1.622c.094.265.176.573.274.809.047-.069.195.213.319.391a2.61,2.61,0,0,0,.25.518c.068.128.146.254.208.363a1.873,1.873,0,0,0,.262.151l.067.065-.154.136.035.038,1.533,1.662-1.93-1.31-.044-.03-.145.128c-.1-.137-.194-.278-.284-.419-.488-.425-.768-.666-1.024-.934a5.235,5.235,0,0,0-1.072-.84c.276.272-.227,0,.444.506a3.285,3.285,0,0,1-.653-.465,12.469,12.469,0,0,0-1.35-.761,1.9,1.9,0,0,0-.6-.394c-.034,0-.03.009-.022.02-.077-.063-.627-.31-.243-.227-.325-.075-.692-.211-1.1-.332l-.615-.208-.64-.2a12.627,12.627,0,0,0-1.245-.33,5.233,5.233,0,0,0-1.038-.145,24.461,24.461,0,0,0-2.85-.444c.052.025,0,.034.159.043a2.827,2.827,0,0,1-.952-.134,2.734,2.734,0,0,0-1.079-.1c-.679.093.7.08.279.11-.187.216-1.6-.071-2.484.118l.215,0c-.672.1-1.661,0-2.77.136,0,0,.056.014.01.033a21.479,21.479,0,0,0-3.276.266c.345.033.49-.033.3.089-.477.066.115-.167-.839-.034a4.8,4.8,0,0,0-1.047.38l.893-.156a9.8,9.8,0,0,1-1.619.32l.071.042c-1.366.252-1.414.124-2.875.444l.142-.073c-.829.04-.654.219-1.473.294l-.211.188c-.534.083-1.877.274-2.831.45.559-.014,1.679-.2,2.377-.293a17.737,17.737,0,0,1-2.069.368,4.821,4.821,0,0,0,.691-.121,18.03,18.03,0,0,0-2.569.373c.119.109-.558.271-1.362.425a15.747,15.747,0,0,0-2.1.464c-.472.05-.94.114-1.411.187l-1.433.191-1.491.209c-.512.067-1.042.1-1.593.145.764-.268-.644.044-.525-.179a5.138,5.138,0,0,0-.751.062l.106-.017-.11.019h0c-.513.092-1.03.138-1.546.206-.367.077.491.028.447.078-1.126.061-.469.109-1.213.2.15-.082-.4-.094-1.038-.039l.9-.134c-1.576-.044-1.358.212-2.95.111l.5.067c-.408-.023-1.161-.011-1.911-.042a12.533,12.533,0,0,1-1.891-.205c-.145.019-.339.071.02.1-.976-.006-2.054-.153-3.077-.263s-1.988-.254-2.746-.283l.141.068a5.538,5.538,0,0,0-1.075-.168c.021.024.139.068-.029.052-.19-.03-.943-.222-1.423-.265l.4.12a21.013,21.013,0,0,1-2.334-.407c-.67-.174-1.3-.36-2.074-.527-.014.076-.389.056-.855,0s-1.012-.176-1.379-.245l.02.027a26.664,26.664,0,0,1-2.862-.772c-.873-.29-1.733-.544-2.694-.9-.315-.055-.731-.159-1.208-.293s-1.017-.289-1.568-.491c-1.1-.392-2.307-.795-3.265-1.152.3.091,0-.13-.332-.28-.456-.15-1.184-.591-1.17-.433l.159.061a7.83,7.83,0,0,1-1.979-.748l-.037-.22a16.323,16.323,0,0,1-3.213-1.449c-1.056-.584-1.967-1.186-2.494-1.4-.384-.3-.879-.657-1.232-.992l-.042.094a15.43,15.43,0,0,1-1.348-1.112,12.067,12.067,0,0,1-1.342-1.479l.16.316a2.927,2.927,0,0,1-.537-.94,5.84,5.84,0,0,0-.416-.927,2.729,2.729,0,0,1-.261-.159,9.744,9.744,0,0,1-.925-2.342,8.324,8.324,0,0,1-.211-1.24,6.8,6.8,0,0,1,.03-1.246c-.023.026-.068.074-.082.346a8.666,8.666,0,0,1,.152-1.787c.033-.156.062-.3.1-.432s.083-.239.12-.325c.073-.173.13-.247.158-.163-.071-.031.076-.445.32-.939a6.441,6.441,0,0,1,.989-1.347l-.172.047c.315-.25.459-.387.661-.52l.241-.164a3.693,3.693,0,0,1,.341-.218c.087-.071-.018-.051-.107.01.017-.013.034-.029.05-.04l.046-.03c.016-.01.037-.02.014-.021a.429.429,0,0,1-.1-.045,1.783,1.783,0,0,0-.491-.124,1.39,1.39,0,0,1,.162.1l-.135-.033-.145-.039c-.118-.033-.2-.06-.271-.086-.139-.058-.227-.118-.439-.224-.253-.093-.628-.24-.964-.354a3.107,3.107,0,0,0-.7-.211,4.282,4.282,0,0,0-.9-.612c-.076-.008.068.109.145.16a8.471,8.471,0,0,1-.81-.5c-.223-.172-.417-.332-.6-.483-.351-.32-.658-.6-1.042-.905-.038.009-.1-.023-.163-.072a11,11,0,0,0,1.507,1.258c-.054.075-.808-.47-.294.07-.567-.5-1.4-1.459-2.006-2.107a.638.638,0,0,0-.1-.07l.053.077a4.175,4.175,0,0,1-.357-.439c-.186-.216-.305-.353-.473-.57a6.082,6.082,0,0,1-.873-1.231c.105-.019-.22-.516.143-.083-.044-.058.035.079.189.337.033.059.074.129.093.17l-.009-.031c.168.245.373.577.645.926a6.652,6.652,0,0,0-.675-1.033c-.068-.231-.144-.48-.192-.617-.432-.459-1.036-1.5-1.162-1.627a18.243,18.243,0,0,1-.714-2.142,7.164,7.164,0,0,1-.261-1.847,1.34,1.34,0,0,0-.179-.573c.015.226.065.49.058.615-.049-.389-.121-.964-.153-1.468a2.875,2.875,0,0,1,.051-1.029c-.069-.981-.125.555-.1-.8l-.047.182A9.123,9.123,0,0,1,1246.26,648.515Zm4.986,15.448c-.057-.087.269.2.506.351a7.6,7.6,0,0,1-.6-.531C1251.082,663.764,1251.109,663.837,1251.246,663.963Zm-.821-.927h0l-.291-.346Zm-1.859-1.324-.01-.036a.324.324,0,0,0,.026.126,1.113,1.113,0,0,0,.276.354Z" transform="translate(-1245.732 -625.784)" fill="#707070"/>
        <path id="パス_194" data-name="パス 194" d="M1575.067,713.178l-.084-.158.161.2.042.155Z" transform="translate(-1571.292 -678.851)" fill="#202020"/>
        <path id="パス_195" data-name="パス 195" d="M1255.927,686.4a.789.789,0,0,0-.084-.087.6.6,0,0,0,.049.042Z" transform="translate(-1141.209 -661.76)" fill="#202020"/>
        <path id="パス_196" data-name="パス 196" d="M1539.551,774l-.023.028-.174-.154Z" transform="translate(-1517.677 -722.711)" fill="#202020"/>
        <path id="パス_197" data-name="パス 197" d="M1276.845,665.727a.8.8,0,0,1-.178-.086A.848.848,0,0,1,1276.845,665.727Z" transform="translate(-1172.636 -648.563)" fill="#202020"/>
        <path id="パス_198" data-name="パス 198" d="M1295.727,654.167a.229.229,0,0,1-.06-.1l.009,0Z" transform="translate(-1201.106 -636.071)" fill="#202020"/>
        <path id="パス_199" data-name="パス 199" d="M1291.977,769.376l-.123.15C1291.563,769.876,1291.75,769.63,1291.977,769.376Z" transform="translate(-1195.357 -714.847)" fill="#202020"/>
        <path id="パス_200" data-name="パス 200" d="M1257.956,738.484l-.548.505C1257.683,738.684,1257.887,738.439,1257.956,738.484Z" transform="translate(-1144.028 -695.143)" fill="#202020"/>
        <path id="パス_201" data-name="パス 201" d="M1304.673,795.731s0,0,0,0l-.147-.073Z" transform="translate(-1214.525 -733.503)" fill="#202020"/>
        <path id="パス_202" data-name="パス 202" d="M1258.494,740.269c.273-.308.505-.56.739-.779A8.452,8.452,0,0,1,1258.494,740.269Z" transform="translate(-1145.853 -695.838)" fill="#202020"/>
        <path id="パス_203" data-name="パス 203" d="M1336.038,644.1c0-.009-.01-.017-.027-.023l.262.022Z" transform="translate(-1248.533 -631.118)" fill="#202020"/>
        <path id="パス_204" data-name="パス 204" d="M1336.53,644.03a1.029,1.029,0,0,1,.26.021Z" transform="translate(-1249.235 -631.097)" fill="#202020"/>
        <path id="パス_205" data-name="パス 205" d="M1337.046,643.941l.548.045A2.249,2.249,0,0,1,1337.046,643.941Z" transform="translate(-1250.199 -631.053)" fill="#202020"/>
        <path id="パス_206" data-name="パス 206" d="M1323.156,645.34l.065.062C1323.182,645.385,1323.16,645.365,1323.156,645.34Z" transform="translate(-1230.926 -631.746)" fill="#202020"/>
        <path id="パス_207" data-name="パス 207" d="M1319.528,645.511l-.053-.049c.291.107,1.437.168,1.858.338C1320.87,645.72,1320.164,645.653,1319.528,645.511Z" transform="translate(-1227.612 -631.806)" fill="#202020"/>
        <path id="パス_208" data-name="パス 208" d="M1305.075,648.851c-.52-.194-1.057-.342-1.584-.515.293.043.681.1-.033-.161C1305.5,648.709,1303.013,648.137,1305.075,648.851Z" transform="translate(-1208.411 -633.15)" fill="#202020"/>
        <path id="パス_209" data-name="パス 209" d="M1293.533,653.305c-.8-.413.044-.067.016-.115C1294.04,653.484,1294.156,653.555,1293.533,653.305Z" transform="translate(-1198.089 -635.59)" fill="#202020"/>
        <path id="パス_210" data-name="パス 210" d="M1246.181,707.3l.11-.113C1246.406,707.879,1246.243,707.2,1246.181,707.3Z" transform="translate(-1126.737 -675.119)" fill="#202020"/>
        <path id="パス_211" data-name="パス 211" d="M1247.735,719.938l-.134.464c.021-.219.063-.432.067-.653l.168-.284Z" transform="translate(-1128.958 -683.057)" fill="#202020"/>
        <path id="パス_212" data-name="パス 212" d="M1249.638,729.233c-.2.338-.394.681-.6,1.012.156-.244.294-.5.442-.749Z" transform="translate(-1131.484 -689.318)" fill="#202020"/>
        <path id="パス_213" data-name="パス 213" d="M1317.744,793.1l.236-.105C1318.419,793.135,1318.467,793.331,1317.744,793.1Z" transform="translate(-1224.051 -732.184)" fill="#202020"/>
        <path id="パス_214" data-name="パス 214" d="M1371.265,795.956c.588-.141,1.164-.332,1.47-.377A4.726,4.726,0,0,1,1371.265,795.956Z" transform="translate(-1297.388 -733.463)" fill="#202020"/>
        <path id="パス_215" data-name="パス 215" d="M1528.132,783.148l-.915-.467.442.192Z" transform="translate(-1500.132 -727.074)" fill="#202020"/>
      </g>
    </g>
    <path id="パス_326" data-name="パス 326" d="M3.2,11.066l-.562-.4v-.422l.141-.539V8.266l.07-.059V6.7l-.105-.328H2.367A18.231,18.231,0,0,0,.926,8.746L.586,8.8l-.41-.293L.141,8.418Q1.406,6.25,2.871,4.035A1.382,1.382,0,0,1,3.879,3.6l.4.281.023.141A1.992,1.992,0,0,0,3.586,5.23l.129.867-.059.211.059.2-.07.375.07.082V9.227l-.059.07V10.9Zm5.566-.609a2.463,2.463,0,0,1-1.98-.785,4.379,4.379,0,0,1-.574-1.605l.082-.375-.082-.105V6.777l.07-.07V5.734l-.293-.586.27-.164a5.617,5.617,0,0,0,.281-1.266l.316-.047.328.164.105.375L7.125,4.8l.715.176.328-.105L8.5,3.051,8.895,3l.293.152.059.375-.223.984.387.141a1.421,1.421,0,0,1,1.078-.3l.27.152.059.422-.141.188v.668l-.07.07v.8a1.983,1.983,0,0,1-.352.961l-.387.117-.234-.105-.164-.434A4.091,4.091,0,0,0,9.938,5.43L9.48,5.148l-.68.164L8.191,7.82l-.047.012L7.57,7.375V7.023a2.678,2.678,0,0,0,.34-1.441l-.527-.094-.434.422V7.727A4.846,4.846,0,0,0,7.465,9.59a2.814,2.814,0,0,0,1.547.3l1.84-.574a1.733,1.733,0,0,1,.68-.914h.117l.246.2v.5l-.434.855A24.2,24.2,0,0,1,8.766,10.457Zm7.6.691a3.131,3.131,0,0,1-1.02-2.039V6.883l.059-.059v-.9l.117-.41V4.727a.667.667,0,0,1,.539-.117l.422.363v.48l-.234.773v.6l-.07.059V8.266l-.059.246.059.059v.656l.188.785H16.6l.422-.059.176.41a1.508,1.508,0,0,0-.293.727ZM20.018,8.8a1.644,1.644,0,0,1-.961-.293l-.117-.48a.729.729,0,0,1,.6-.129l.961.129a2.612,2.612,0,0,0,.785,0l.176-.059.785.234.059.422-.422.176H20.674l-.234-.059ZM18.635,6.4l-.352-.352v-.3a17.755,17.755,0,0,1,3.293-.9l.363.188.117.48a1.436,1.436,0,0,1-.715.293h-.6Q19.655,6.109,18.635,6.4ZM32.2,10.832a4.5,4.5,0,0,1-1.266-.727,3.027,3.027,0,0,1-.9-1.664v-.82l-.152-.141H28.634l-.48.059L27.7,7.246,27.579,6.8l.094-.082h1l.059.059h.949l.41-.141.375-2.086-.3-.07L29,4.727l-.457-.176-.223-.5.152-.211h.773l1.5-.246.738-2.262L31.8,1.27l.4.223.059.574-.5,1.254.445.164.07-.082h.82l.457.352v.2l-.223.223H31.8L31.47,4.3l-.5,2.191.152.152h.691l.68-.117h1.137l.258.3a2.468,2.468,0,0,1-1.523.457h-.738l-.691.188-.082.082v.879a2.355,2.355,0,0,0,.809,1.441,1.282,1.282,0,0,0,.961.246L33.8,9.391l.3-.422.316-.105.211.492a4.609,4.609,0,0,1-1.488,1.418l-.293.059Zm14.721.762-.434-.3V11.1a1.054,1.054,0,0,0,.293-.926l-.07-.551-.059-.633V7.387l-.457-.176A19.529,19.529,0,0,0,44.2,7.7a.8.8,0,0,1-.516-.539,27.212,27.212,0,0,1,2.871-.691l.094-.645L46.46,5.1l-.562-.07-1.957.48-.434-.562q.785-.293,1.828-.621l.176-.9-.539-.187-.375.152h-.656l-.492-.445V2.863q.832-.2,1.816-.352L45.347,2l-.059-.281.316-.105.492.246.141.445h.375l.539-.07.633.258v.3l-.211.176H46.73l-.3.141-.141.117v.879l.223.188h.844l.07-.07H48.64L49,4.41l.07.2-.059.094-.492.176-.574-.129-.422.152-.152.727.164.516h.352l.691-.07.34.234v.105a3.9,3.9,0,0,1-1.395.527l-.094.691.07.07v.9l.082.211-.094.457.094.07v1.031l.07.082v.715l-.246.363Zm-.609-1.957-.691.129a2.571,2.571,0,0,1-1.348-.527l-.117-.352A.425.425,0,0,1,44.6,8.77a10,10,0,0,0,1.418.457l.082.164Zm-4.816,1.2-.469-.41V8.629l-.059-.07V7.164L40.437,7l-1.84.492-.422-.246-.117-.3a6.678,6.678,0,0,1,1.348-.387l.75-.07.727-.223.141-.621V4.82l-.176-.293H40l-.293.094-.07.516.059.2L39.64,5.7l.059.223-.293.363-.516-.434-.059-.316V3.555L38.7,3.109a.874.874,0,0,1,.645-.094l.223.105.211.773.129.117h.773l.34-.27V2.254l.07-.07V1.492l.2-.094.691.258.059.539L41.82,3.836l1.23.434.047.176a1.818,1.818,0,0,1-1.207.223l-.129.141V5.863l.258.352h.48l.68-.07.352.176.059.316-.2.152H42.359l-.48.152-.117.117V8.113l.141.645V9.824l.07.07v.832A.6.6,0,0,1,41.491,10.832Zm13.291.586-.445-.316-.059-.293a16.226,16.226,0,0,0,.691-2.191l.551-.047.3.5-.715,2.285Zm4.77-.434a7.386,7.386,0,0,1-2.426-1.676L57.08,9l.422-.082a7.7,7.7,0,0,0,2.73,1.57v.387A.949.949,0,0,1,59.552,10.984Zm-7.57-2.039-.445-.328-.059-.223,1.828-.5V7.516l-.152-.6v-3.3l.34-.176a2.406,2.406,0,0,0,1.3.211l.434-.34V2.641l-.07-.082V1.422l.469-.105.422.246v.41l-.082.07V3.262l.738.176a1.2,1.2,0,0,0,.176-.891l-.059-.059V1.07l.563-.059.234.129.047.035v1.2l-.094.234.176.633.094.117h.82l.539-.07.375.246v.5l-.082.082v.738l-.07.234.07.492-.152.211v.82a.888.888,0,0,0,.809.164l.07-.047h.738l.3.246v.2L61.1,7.34h-.7l-.445.141h-1.1l-.973.223h-1.09A31.84,31.84,0,0,0,51.982,8.945Zm3.375-1.652.105-.668-.2-.586-.551-.07a1.93,1.93,0,0,1-.7.434l-.094.363.258.855h.3Zm1.676-.234.129-.129L57.068,6.8V6.039l-.141-.3h-.633a1.368,1.368,0,0,0-.164.926l.152.5H56.9Zm1.242-.141a1.331,1.331,0,0,0,.234-1.02l-.551-.176-.164.141v.949l.352.246ZM55.111,5.242a1.065,1.065,0,0,0,.164-.891l-.539-.094L54.08,4.5l-.176.891.41.094Zm1.781-.164.07-.738-.246-.375h-.574l-.187.867.293.363h.516ZM58.591,5l.07-.8a.7.7,0,0,0-.738-.293.955.955,0,0,0-.246,1.031l.609.27Zm6.963,6.012-.293-.246v-.41l.6-2.824-.234-.059-1.207.844-.48-.3-.059-.246q1.078-.773,2.1-1.43v-1.8l.6-.059a.541.541,0,0,1,.246.656l-.059.059v.9l.539.059.234-.117h1.02l.609.363.293,1.02a7.522,7.522,0,0,1-.832,3.234l-.609.059-.234-.48a7.139,7.139,0,0,0,.844-3.117l-.246-.422-.059-.059h-.785l-.715.3-.176.9v.715q-.3,1.2-.609,2.4Zm6.9-2.7A19.725,19.725,0,0,0,69.7,4.7l-.48-.48V3.93l.422-.117.949.832a20.891,20.891,0,0,1,2.461,3.363l-.176.234Zm-.234-3.07q-.844-1.137-1.746-2.332V2.664a.667.667,0,0,1,.539-.117,22.9,22.9,0,0,1,1.629,2.1l.059.363A.588.588,0,0,1,72.223,5.242Zm1.793-.176A19.311,19.311,0,0,0,72.34,2.605l-.246-.176-.059-.422.48-.117.422.234.188.363.176.059a4.524,4.524,0,0,1,1.137,2.52ZM8.977,29.184a.581.581,0,0,1-.3-.539A4.642,4.642,0,0,0,9.328,26.7V25.457a2.4,2.4,0,0,0-.715-1.418l-.41-.176a4.1,4.1,0,0,0-.7.949q-.773,1.242-1.488,2.531a2.151,2.151,0,0,0,.422.832.689.689,0,0,1-.715.293l-.41-.293-.059-.234-.176-.059-.352.176-.07.176a2.785,2.785,0,0,1-1.77.6l-.469-.246-.422-.762v-.832a7.275,7.275,0,0,1,1.781-2.367l1.242-.762.117-.773-.059-.527H4.723a12.3,12.3,0,0,1-2.133.645l-.469-.41V22.5q1.477-.469,2.953-.832l.059-.059V20.2a.559.559,0,0,1,.645-.176l.363.41v.363l-.129.527.422.059a7.235,7.235,0,0,1,1.594-.41L8.5,21.2l.117.41-.117.293.176.059v.422l-.176.7.773.539a3.115,3.115,0,0,1,.949,1.945v1.066A8.557,8.557,0,0,1,9.5,29.066Zm-5.32-1.242,1.418-1.125v-.41l-.059-.059V25.164l.059-.234-.234-.059-.715.645H4.008l-.293.41-.176.059a5.94,5.94,0,0,0-.773,1.723l.117.41h.469Zm2.355-2.133v-.117a3.808,3.808,0,0,0,.949-1.711l-.293-.059-.773.352-.059.059v.891l-.059.469ZM7.5,23.09a2.869,2.869,0,0,0,.352-1.125L7.5,21.848l-1.488.48-.117.938.363.129Zm12.366,5.59-.293-.6a1.7,1.7,0,0,0,.176-.773V26.184l.059-.059V22.68a9.185,9.185,0,0,0-.352-1.488l.234-.117.527.176a4.489,4.489,0,0,1,.422,1.605v.656l.059.176-.059.059v.715l.059.234-.059.059v.715l.059.176-.059.059v.715l-.059.059v1.547l-.176.6Zm-2.789-2.613-.422-.246-.293-.949V23.8l.48-2.848.352-.059.352.234.059.176-.352,1.664v.715l-.059.059v1.371a.78.78,0,0,1,.293.645l-.234.3Zm12,2.543-.832-.469a.992.992,0,0,1-.3-.727l.363-.527a6.691,6.691,0,0,1,2.449-.961l.059-.059v-1.43l-.176-.715-.187-.07-.832.3h-.656l-.363-.363v-.176a17.867,17.867,0,0,1,1.98-.48l.059-.059v-.832l-.129-.539-.527-.059a12.862,12.862,0,0,0-1.852.48l-.363-.363v-.293a5.262,5.262,0,0,1,1.371-.422h.715l.656-.117.07-.059v-.6l.469-.059a.615.615,0,0,1,.363.715,1.192,1.192,0,0,0,.832.176l.6-.059.3.117.117.422-.363.176h-.656l-.059-.059h-.656a1.753,1.753,0,0,0-.176.773l.176.6.234.059a8.382,8.382,0,0,0,1.734-.293l.3.293v.246a1.46,1.46,0,0,1-.656.293H32.3l-.059.059h-.6l-.117.117v.961l.117.656-.059.059v.656a7.122,7.122,0,0,1,2.813,1.5l.059.234.176.059.059.176-.059.3-.539.059-.176-.246-.246-.117A10.318,10.318,0,0,0,32.009,26.7h-.48a4.945,4.945,0,0,1-.891,1.559,2.043,2.043,0,0,1-.961.352Zm.9-.832a1.536,1.536,0,0,0,.527-1.02h-.234l-1.371.656-.117.422.539.234Zm15.366,1.348-.6-.48V28.41l.176-.422v-.656l.059-.176-.059-.422h-.117a1.214,1.214,0,0,1-1.078.422,2.419,2.419,0,0,1-1.371-.715l-.234-.48v-.715l-.059-.176a5.024,5.024,0,0,1,.832-1.441,1.4,1.4,0,0,1,1.008-.41l.785.234V22.082l-.48-.117a11.544,11.544,0,0,0-3.879,1.125l-.422-.352-.059-.363.059-.117a18.617,18.617,0,0,1,3.34-.891h.727l.527-.187L44.562,21l-.176-.832a.481.481,0,0,1,.539-.246l.422.422V21a.654.654,0,0,0,.539.117l.6-.176.41.117L47.2,21l.352.246.059.293-.293.293H47.14l-.07-.059H46.3L46,21.836l-.187-.059-.293.188-.059.059v.656l.059.234-.059.059v1.313l-.059.059v.6l.352,1.383v2.262l-.234.363-.117.176Zm-1.254-2.8V26.2a1.71,1.71,0,0,0,.41-.949v-.6l-.469-.6h-.246a5.371,5.371,0,0,0-.832.949l-.117.9.41.422.539.117ZM53.9,29.137a1.723,1.723,0,0,1-1.16-.609l-.187-.363v-.609A7.166,7.166,0,0,1,53.9,25.727a3.048,3.048,0,0,1,1.031-.609h.914l.668-3.047a.8.8,0,0,1-.363-.785l.363-.07.188.07.176-.434.375-.059.363.188.117.48a5.982,5.982,0,0,1,2.93,1.277l.363.8a2.909,2.909,0,0,1-1.1,1.77l-.363.363h-.117l-.187.246-.914.422-.3-.246v-.363a6.426,6.426,0,0,0,2.133-2.191v-.3a6.184,6.184,0,0,0-2.684-.973,16.257,16.257,0,0,0-.914,3.715,3.022,3.022,0,0,1,.68,1.277v.668a6.373,6.373,0,0,1-2.32,1.219Zm.48-.668v-.117a5.767,5.767,0,0,1-1.031-.609v.422a1.447,1.447,0,0,0,.973.363Zm.551-1.336L55.357,27v-.176l-.422-.07-.117.375.059.059Zm.727-.492-.3-.059V26.7H55.6Z" transform="translate(33.25 3748.579)" fill="#707070"/>
  </g>
</svg>
