<svg xmlns="http://www.w3.org/2000/svg" width="235.828" height="48.566" viewBox="0 0 235.828 48.566">
  <g id="グループ_116" data-name="グループ 116" transform="translate(2508.412 -4356.217)">
    <g id="グループ_115" data-name="グループ 115" transform="translate(-2552.5 377)">
      <line id="線_34" data-name="線 34" x1="33" y1="48" transform="translate(44.5 3979.5)" fill="none" stroke="#707070" stroke-width="1"/>
      <line id="線_35" data-name="線 35" y1="48" x2="32" transform="translate(247.5 3979.5)" fill="none" stroke="#707070" stroke-width="1"/>
      <path id="パス_302" data-name="パス 302" d="M26.958,5.446c0-.077-.011-.088-.088-.088-.055,0-.407.022-1.452.022H19.071c-1.045,0-1.4-.022-1.452-.022-.077,0-.088.011-.088.088v.572c0,.077.011.088.088.088.055,0,.407-.022,1.452-.022h6.347c1.045,0,1.4.022,1.452.022.077,0,.088-.011.088-.088ZM38.75,4.39c0-.077-.011-.088-.088-.088-.055,0-.418.022-1.485.022h-.385a13.811,13.811,0,0,0,1.364-1.98,1.187,1.187,0,0,1,.308-.374.188.188,0,0,0,.088-.132c0-.055-.055-.11-.121-.143a3.719,3.719,0,0,0-.6-.253,2.485,2.485,0,0,1-.264.671,11.031,11.031,0,0,1-1.529,2.211h-.6V2.883h.209c.814,0,1.056.022,1.122.022s.088-.011.088-.088V2.388c0-.077-.011-.088-.088-.088s-.308.022-1.122.022h-.209v-.3a2.47,2.47,0,0,1,.055-.77.455.455,0,0,0,.055-.209c0-.044-.044-.077-.132-.088a5.776,5.776,0,0,0-.671-.066,5.041,5.041,0,0,1,.077,1.177v.253H34.35c-.814,0-1.067-.022-1.111-.022-.077,0-.088.011-.088.088v.429c0,.077.011.088.088.088.044,0,.3-.022,1.111-.022h.462V4.324H34.24c-1.089,0-1.441-.022-1.507-.022s-.088.011-.088.088v.44c0,.077.011.088.088.088S33.151,4.9,34.24,4.9h1.243a13.545,13.545,0,0,1-2.959,2.035.938.938,0,0,1,.308.275c.066.1.11.132.154.132a.359.359,0,0,0,.165-.066L33.9,6.8v1.87c0,1.617-.022,1.925-.022,1.98,0,.088.011.1.088.1h.473c.077,0,.088-.011.088-.1v-.473H37.32v.4c0,.077.011.088.088.088h.473c.077,0,.088-.011.088-.088,0-.055-.022-.341-.022-1.969V7.525c0-1.067.022-1.353.022-1.419s-.011-.088-.088-.088-.385.022-1.166.022H34.966A10.48,10.48,0,0,0,36.275,4.9h.9c1.067,0,1.43.022,1.485.022.077,0,.088-.011.088-.088ZM37.32,9.626H34.526V8.317H37.32Zm0-1.837H34.526V6.59H37.32ZM31.875,4.544c-.132.055-.154.077-.11.154a6.824,6.824,0,0,1,.4.869c-.638.055-1.221.1-1.793.121.616-.8,1.232-1.716,1.848-2.7A2.092,2.092,0,0,1,32.59,2.5c.066-.055.1-.077.1-.143a.149.149,0,0,0-.1-.132A5.814,5.814,0,0,0,32,1.948a3.574,3.574,0,0,1-.319.726c-.275.473-.55.924-.836,1.375-.242-.286-.484-.561-.737-.814A18.4,18.4,0,0,0,31.138,1.6a.535.535,0,0,1,.2-.231.143.143,0,0,0,.088-.132c0-.044-.022-.088-.121-.143A4.873,4.873,0,0,0,30.72.837a2.509,2.509,0,0,1-.275.7A11.678,11.678,0,0,1,29.7,2.817c-.132-.143-.286-.275-.429-.418-.066-.066-.088-.055-.165.044l-.176.231c-.1.11-.11.121-.044.187a15.807,15.807,0,0,1,1.606,1.727c-.264.385-.528.759-.814,1.133h-.1a5.071,5.071,0,0,1-.715-.022c.033.253.055.44.088.605.011.077.055.132.11.132a.261.261,0,0,0,.132-.033,1.107,1.107,0,0,1,.418-.1c.352-.022.726-.044,1.122-.077V9.1c0,1.2-.022,1.54-.022,1.606s.011.077.088.077h.5c.077,0,.088,0,.088-.077,0-.055-.022-.407-.022-1.606V6.161l.968-.1c.044.132.077.275.121.418.022.088.044.1.187.044l.242-.088c.132-.044.143-.066.121-.154a9.168,9.168,0,0,0-.737-1.793c-.033-.066-.044-.066-.165-.022Zm-1.65,2.8c0-.044-.033-.088-.154-.121s-.319-.077-.572-.121a3.641,3.641,0,0,1-.033.671,6.8,6.8,0,0,1-.572,2.013,1.258,1.258,0,0,1,.363.187c.077.055.121.088.154.088s.066-.044.11-.154A9.286,9.286,0,0,0,30.049,7.9a1.38,1.38,0,0,1,.11-.407A.327.327,0,0,0,30.225,7.349Zm1.716-.121c-.132.044-.143.066-.11.143a10.117,10.117,0,0,1,.539,2.013c.011.1.033.11.187.055l.264-.088c.132-.044.132-.077.121-.165a11.281,11.281,0,0,0-.6-1.98c-.033-.077-.055-.077-.176-.044Zm10.142-5.39a6.345,6.345,0,0,1-.154,1.221,20.015,20.015,0,0,0-.451,3.751,9.763,9.763,0,0,0,.5,3.19.138.138,0,0,0,.121.11,2.666,2.666,0,0,0,.495-.11.094.094,0,0,0,.077-.1c0-.077-.022-.143-.022-.242a.655.655,0,0,1,.044-.275c.231-.649.462-1.188.7-1.749a.365.365,0,0,0,.055-.176.175.175,0,0,0-.055-.11,2.737,2.737,0,0,1-.264-.44c-.319.77-.55,1.243-.814,1.859a8.386,8.386,0,0,1-.165-1.892,18.033,18.033,0,0,1,.517-3.8,1.615,1.615,0,0,1,.22-.583.3.3,0,0,0,.077-.187c0-.066-.044-.11-.154-.176A4.057,4.057,0,0,0,42.083,1.838Zm2.409,5.577a1.811,1.811,0,0,0,.462,1.309,3.056,3.056,0,0,0,2.42.693A16.458,16.458,0,0,0,49.343,9.3c.143-.022.143-.033.143-.132,0-.154-.022-.385-.033-.517-.011-.11-.033-.121-.121-.11a16.457,16.457,0,0,1-2.167.154c-1.3,0-1.969-.374-2-1.21,0-.088-.022-.121-.077-.11Zm.385-3.531a13.941,13.941,0,0,1,2.3-.231c.627,0,1.342.011,1.771.055.1.011.121-.011.121-.1.011-.165.011-.341.011-.517,0-.088-.022-.1-.165-.11-.3-.033-.924-.055-1.562-.055a18.2,18.2,0,0,0-2.332.2c-.11.022-.132.055-.132.154C44.877,3.411,44.877,3.587,44.877,3.884ZM61.5,3.026c0-.11-.022-.121-.121-.121-1.221,0-2.3,0-3.52.033,0-.484,0-.693.022-.935a.644.644,0,0,1,.077-.3.41.41,0,0,0,.077-.2c0-.077-.077-.132-.2-.165A5.552,5.552,0,0,0,57,1.222a2.919,2.919,0,0,1,.11.737c.011.352.011.572.022,1.023-1.463.088-2.6.165-3.487.231a9.839,9.839,0,0,1-1.386.066,3.58,3.58,0,0,0,.176.7.129.129,0,0,0,.132.11c.088,0,.22-.077.484-.11,1.045-.132,2.53-.242,4.1-.33.011.517.011,1.012.022,1.551a1.389,1.389,0,0,0-1.034-.374,1.474,1.474,0,0,0-1.507,1.529A1.418,1.418,0,0,0,56.086,7.91a1.361,1.361,0,0,0,1.21-.627,3.384,3.384,0,0,1-2.4,2.772,1.637,1.637,0,0,1,.506.308.319.319,0,0,0,.2.088.577.577,0,0,0,.253-.1A3.643,3.643,0,0,0,58,6.953,4.693,4.693,0,0,0,57.868,5.8c-.011-.737-.011-1.5-.011-2.189,1.243-.044,2.321-.033,3.5,0,.11,0,.143-.011.143-.11ZM56.2,5.38a.919.919,0,0,1,.979.935.97.97,0,0,1-1,.968.87.87,0,0,1-.891-.946A.908.908,0,0,1,56.2,5.38ZM63.2,6.524a5.332,5.332,0,0,0,.572.693.146.146,0,0,0,.253-.022,3.411,3.411,0,0,1,.363-.4c.539-.506,1.342-1.265,1.991-1.881.187-.176.319-.275.473-.275a.9.9,0,0,1,.561.308c.8.671,1.628,1.375,2.453,1.991.748.561,1.694,1.188,2.332,1.584a.115.115,0,0,0,.187-.033,3.5,3.5,0,0,0,.319-.605c.022-.055,0-.1-.077-.143a22.681,22.681,0,0,1-2.42-1.518c-.9-.66-1.672-1.3-2.552-2a1.151,1.151,0,0,0-.814-.363,1.117,1.117,0,0,0-.814.407c-.737.671-1.43,1.276-1.98,1.738A2.789,2.789,0,0,1,63.2,6.524Zm6.336-3.4a4.749,4.749,0,0,1,1.276,1.408.088.088,0,0,0,.143.022l.319-.264A.079.079,0,0,0,71.3,4.17a5.338,5.338,0,0,0-1.243-1.331.085.085,0,0,0-.11-.011Zm.968-.737a5.254,5.254,0,0,1,1.265,1.375c.044.066.088.066.132.022l.3-.264c.055-.044.066-.077.033-.132A6.322,6.322,0,0,0,70.98,2.1c-.044-.033-.077-.022-.121.011Zm10.351.759c-1.727.913-2.684,2.189-2.684,3.74,0,2.222,2,3.014,3.861,3.179.121.011.154-.033.176-.154a3.291,3.291,0,0,0,.066-.528c0-.088-.033-.11-.176-.121-1.606-.132-3.2-.671-3.2-2.5A4.093,4.093,0,0,1,81.738,3.3a4.554,4.554,0,0,1,1.606-.33c.11-.011.143-.033.143-.132a3.128,3.128,0,0,0-.066-.55c-.022-.066-.077-.1-.187-.088-2.948.363-5.181.693-6.82.957a8.6,8.6,0,0,1-1.364.132,6.09,6.09,0,0,0,.308.781.186.186,0,0,0,.154.1.611.611,0,0,0,.209-.077,2.367,2.367,0,0,1,.66-.187c1.386-.286,2.816-.517,4.466-.781Zm10.769-.088a2.751,2.751,0,0,1,2.838,2.783c0,1.837-1.254,3.014-3.432,3.443a1.279,1.279,0,0,1,.429.407.218.218,0,0,0,.286.121c2.387-.6,3.5-2.046,3.5-3.839,0-2.1-1.463-3.542-3.927-3.542a4.69,4.69,0,0,0-3.3,1.221A4,4,0,0,0,86.743,6.5c0,1.6.781,2.5,1.606,2.5a1.834,1.834,0,0,0,1.617-1.133,12.28,12.28,0,0,0,1.452-4.807Zm-.979.044a11.68,11.68,0,0,1-1.287,4.3c-.319.561-.649.8-1.023.8-.4,0-.891-.517-.891-1.716A3.41,3.41,0,0,1,88.5,4.115,3.706,3.706,0,0,1,90.648,3.1Zm16.61.627c0-.088-.011-.1-.088-.1s-.407.022-1.452.022h-3.993q.3-.776.561-1.617a1.675,1.675,0,0,1,.2-.473c.055-.077.088-.11.088-.176s-.044-.1-.143-.132a5.944,5.944,0,0,0-.715-.132,4.11,4.11,0,0,1-.143.858c-.165.539-.363,1.111-.583,1.672H99.327c-1.045,0-1.4-.022-1.452-.022-.077,0-.088.011-.088.1v.5c0,.077.011.088.088.088.055,0,.407-.022,1.452-.022h1.4a19.655,19.655,0,0,1-.946,1.925,10.61,10.61,0,0,1-.715,1.056c-.066.077-.044.132.1.2l.341.143c.121.055.143.066.209-.022.143-.2.286-.418.407-.616a23.9,23.9,0,0,1,2.42,1.089A7.927,7.927,0,0,1,97.919,9.9a1.277,1.277,0,0,1,.319.451c.088.22.11.209.319.187A8.237,8.237,0,0,0,103.2,8.427a34.641,34.641,0,0,1,3.091,1.991c.077.055.1.055.209-.088l.253-.308c.088-.11.066-.143.022-.176-1.1-.737-2.112-1.375-3.113-1.925a8.169,8.169,0,0,0,1.6-3.63h.462c1.045,0,1.386.022,1.452.022s.088-.011.088-.088Zm-2.739.561a7.27,7.27,0,0,1-1.507,3.289,25.827,25.827,0,0,0-2.574-1.155,20.407,20.407,0,0,0,1.034-2.134Zm14.564,5.467c0-.077-.011-.088-.088-.088-.055,0-.429.022-1.54.022h-1.419V7.019h.825c1.023,0,1.353.022,1.408.022.077,0,.088-.011.088-.088V6.5c0-.077-.011-.088-.088-.088-.055,0-.385.022-1.408.022h-.825V4.093H117.2c1.012,0,1.353.022,1.408.022.077,0,.088-.011.088-.088V3.576c0-.077-.011-.088-.088-.088-.055,0-.4.022-1.408.022h-1.166V2.344a4.915,4.915,0,0,1,.077-1.133.817.817,0,0,0,.044-.2c0-.044-.055-.077-.132-.088A6.1,6.1,0,0,0,115.3.859a8.546,8.546,0,0,1,.088,1.507V3.51h-1.529c.132-.374.231-.726.308-1.034a.846.846,0,0,1,.132-.319.218.218,0,0,0,.066-.143c0-.044-.022-.077-.132-.121a3.905,3.905,0,0,0-.649-.176,4.212,4.212,0,0,1-.044.583,9.141,9.141,0,0,1-1.386,3.267,1.474,1.474,0,0,1,.44.176.305.305,0,0,0,.143.066c.044,0,.066-.044.132-.143a10.478,10.478,0,0,0,.781-1.573h1.738V6.436h-.836c-1.023,0-1.353-.022-1.419-.022s-.088.011-.088.088v.451c0,.077.011.088.088.088s.4-.022,1.419-.022h.836V9.692h-1.6c-1.122,0-1.485-.022-1.54-.022-.077,0-.088.011-.088.088v.462c0,.088.011.1.088.1.055,0,.418-.022,1.54-.022h3.663c1.111,0,1.485.022,1.54.022.077,0,.088-.011.088-.1Zm-8.5-1.012c0,1.3-.022,1.87-.022,1.925,0,.077.011.088.088.088h.517c.077,0,.088-.011.088-.088,0-.055-.022-.627-.022-1.936V2.344a4.222,4.222,0,0,1,.077-1.133.943.943,0,0,0,.044-.2c0-.044-.055-.077-.132-.088a4.544,4.544,0,0,0-.726-.055,7.336,7.336,0,0,1,.088,1.5Zm-.847-5.533c-.143-.044-.154-.033-.165.044a6.982,6.982,0,0,1-.462,2.167c-.055.132-.011.132.121.176l.275.1c.11.044.132.033.154-.022a8.094,8.094,0,0,0,.484-2.255c.011-.077,0-.088-.121-.121Zm1.936-.121c-.143.055-.154.066-.121.143a9.537,9.537,0,0,1,.4,1.518c.011.088.044.088.187.033l.242-.1c.121-.044.132-.066.11-.143a12.053,12.053,0,0,0-.44-1.507c-.022-.066-.066-.066-.154-.033Zm12.958.352c.121-.418.22-.869.352-1.32a1,1,0,0,1,.176-.429.3.3,0,0,0,.088-.176.129.129,0,0,0-.088-.121,4.4,4.4,0,0,0-.88-.253,4.42,4.42,0,0,1-.088,1.034c-.077.407-.165.8-.319,1.386a17.339,17.339,0,0,1-1.98.132,6.414,6.414,0,0,1-.693-.022c.033.22.066.451.088.605.022.1.044.11.176.11.748-.011,1.507-.055,2.222-.132a34.113,34.113,0,0,1-2.057,5.489.108.108,0,0,0,.044.143c.143.077.429.209.517.242s.121.033.165-.066a49.712,49.712,0,0,0,2.112-5.929,18.258,18.258,0,0,0,1.991-.451c.1-.022.121-.055.11-.165-.011-.132-.033-.319-.055-.451-.011-.077-.044-.1-.132-.077A13.275,13.275,0,0,1,124.627,3.444Zm.682,4.642a1.867,1.867,0,0,0,.539,1.485,3.447,3.447,0,0,0,2.42.6,10,10,0,0,0,1.441-.11c.088-.011.121-.033.121-.143a3.94,3.94,0,0,0-.044-.528c-.011-.088-.044-.088-.132-.077a11.8,11.8,0,0,1-1.628.143c-1.386,0-2-.33-2.079-1.32-.011-.088-.033-.11-.121-.11A3.458,3.458,0,0,0,125.309,8.086Zm.825-2.3a9.605,9.605,0,0,1,2.024-.242,8.8,8.8,0,0,1,1.408.121c.1.022.132-.011.143-.143a3.43,3.43,0,0,0-.011-.484c-.011-.066-.033-.1-.165-.121a11.04,11.04,0,0,0-1.364-.11,8.771,8.771,0,0,0-1.925.231c-.121.033-.143.066-.143.165C126.1,5.336,126.112,5.6,126.134,5.787Zm9.295-2.453a21.653,21.653,0,0,1-2.519.11A5.589,5.589,0,0,0,133,4a.131.131,0,0,0,.154.121c.693-.011,1.518-.055,2.178-.121-.2,1.221-.4,2.233-.649,3.234-.033.11-.066.242-.121.418a.872.872,0,0,0-.044.187c0,.066.044.11.143.154a2.439,2.439,0,0,0,.484.154c.088.011.121-.033.187-.132s.154-.231.253-.363a4.032,4.032,0,0,1,3.113-1.54c1.012,0,1.6.495,1.6,1.32a1.709,1.709,0,0,1-1.133,1.606,8.553,8.553,0,0,1-3.245.693,1.2,1.2,0,0,1,.374.484c.055.121.1.154.176.154a2.889,2.889,0,0,0,.539-.055,8.149,8.149,0,0,0,2.783-.77,2.274,2.274,0,0,0,1.309-2.09c0-1.045-.781-1.969-2.332-1.969A4.562,4.562,0,0,0,135.429,7c.253-1.023.44-1.98.6-3.069.869-.121,1.705-.264,2.574-.462.088-.022.11-.044.11-.132a3.285,3.285,0,0,0-.044-.473c-.011-.1-.044-.11-.143-.077a19.8,19.8,0,0,1-2.365.462c.066-.462.1-.737.176-1.166a.953.953,0,0,1,.143-.363.276.276,0,0,0,.066-.154c0-.066-.044-.11-.121-.143a3.207,3.207,0,0,0-.891-.187,2.855,2.855,0,0,1,.022.979C135.517,2.7,135.484,2.982,135.429,3.334Zm13.948-.275a2.751,2.751,0,0,1,2.838,2.783c0,1.837-1.254,3.014-3.432,3.443a1.279,1.279,0,0,1,.429.407.218.218,0,0,0,.286.121c2.387-.6,3.5-2.046,3.5-3.839,0-2.1-1.463-3.542-3.927-3.542a4.69,4.69,0,0,0-3.3,1.221A4,4,0,0,0,144.493,6.5c0,1.6.781,2.5,1.606,2.5a1.834,1.834,0,0,0,1.617-1.133,12.28,12.28,0,0,0,1.452-4.807ZM148.4,3.1a11.68,11.68,0,0,1-1.287,4.3c-.319.561-.649.8-1.023.8-.4,0-.891-.517-.891-1.716a3.41,3.41,0,0,1,1.056-2.376A3.706,3.706,0,0,1,148.4,3.1ZM19.9,17.827a1.111,1.111,0,1,0,1.111,1.111A1.108,1.108,0,0,0,19.9,17.827Zm0,.418a.693.693,0,1,1-.693.693A.69.69,0,0,1,19.9,18.245ZM11.36,24.251a1.476,1.476,0,0,1,.605.286.238.238,0,0,0,.341-.044,11.366,11.366,0,0,0,2.486-3.619,1.872,1.872,0,0,1,.385-.627c.1-.1.132-.22-.022-.308a4.3,4.3,0,0,0-.869-.363,3.483,3.483,0,0,1-.352,1.243A9.353,9.353,0,0,1,11.36,24.251Zm5.676-4.235a13.984,13.984,0,0,1,2.728,4.147c.044.1.077.121.176.066a3.828,3.828,0,0,0,.517-.341c.1-.066.1-.132.044-.231a14.55,14.55,0,0,0-2.75-3.949c-.088-.088-.132-.077-.231-.022S17.223,19.884,17.036,20.016Zm8.14-1.023h5.247a12.634,12.634,0,0,1-1.243,3.586A9.847,9.847,0,0,1,26.331,25.9a1.487,1.487,0,0,1,.616.253.241.241,0,0,0,.319-.033A10.637,10.637,0,0,0,29.884,22.9a14.963,14.963,0,0,0,1.287-3.421,1.275,1.275,0,0,1,.187-.517.193.193,0,0,0,.022-.3,2.883,2.883,0,0,0-.484-.429.216.216,0,0,0-.253-.011c-.088.066-.22.088-.682.088H26.045c-.594,0-1.111-.011-1.573-.033-.077,0-.11.022-.11.088.033.44.044.759.044,1.254v.924c0,.528-.022.924-.044,1.32,0,.1.033.121.143.121h.55c.121,0,.132-.033.132-.143-.011-.385-.011-.8-.011-1.3Zm15.763,3.322c.737,0,1.551,0,2.376.022.132.011.165-.011.165-.132a4.96,4.96,0,0,0,0-.572c0-.121-.033-.143-.165-.132-.836.022-1.65.033-2.409.033H37.529a20.091,20.091,0,0,1-2.431-.1,6.5,6.5,0,0,0,.11.836c.033.11.088.154.187.154a9,9,0,0,1,1.485-.11Zm8.261-3.7c-.682,0-1.166,0-1.7-.044a4.26,4.26,0,0,0,.066.7c.022.088.033.121.132.121.5-.033.968-.066,1.584-.066h3.311a13.828,13.828,0,0,1-2.09,2.948,14.222,14.222,0,0,1-4.048,2.981,1.882,1.882,0,0,1,.572.4c.088.1.154.088.275.022a16.818,16.818,0,0,0,3.927-3.069,20.1,20.1,0,0,1,3.036,2.794c.077.088.121.088.2.022a4.485,4.485,0,0,0,.4-.4c.088-.11.088-.143-.011-.231a22.53,22.53,0,0,0-3.157-2.761,19.983,19.983,0,0,0,1.628-2.365,1.453,1.453,0,0,1,.319-.407c.1-.088.121-.165.055-.253a2.913,2.913,0,0,0-.451-.451.188.188,0,0,0-.22-.033,1.15,1.15,0,0,1-.627.088Zm12.815,1.3H60.233c-.6,0-1.265-.011-2.046-.077,0,.209.033.55.044.682.011.11.044.165.143.154.583-.044,1.265-.077,1.881-.077h1.76v4.026c0,.407-.066.55-.3.638a4.022,4.022,0,0,1-1.364.2,1.474,1.474,0,0,1,.462.616.166.166,0,0,0,.187.132,3.57,3.57,0,0,0,1.265-.319,1.019,1.019,0,0,0,.55-1.012c0-.7-.033-1.43-.033-2.365V20.6h1.4c.7,0,1.562.011,2.277.044.11,0,.132-.044.132-.154.011-.154.011-.341.011-.5,0-.1-.033-.143-.132-.132-.649.033-1.463.055-2.255.055h-1.43v-.671a2.93,2.93,0,0,1,.11-1.144c.088-.143.066-.264-.088-.308a5.431,5.431,0,0,0-.913-.121,7.085,7.085,0,0,1,.121,1.518Zm-2.651,1.936a2.641,2.641,0,0,1-.253.8,6.514,6.514,0,0,1-1.3,1.8,1.867,1.867,0,0,1,.572.242c.132.077.2.044.3-.066a9.283,9.283,0,0,0,1.133-1.694,1.557,1.557,0,0,1,.3-.429c.132-.132.165-.2-.011-.308A3.516,3.516,0,0,0,59.364,21.853Zm5.093.473a8.144,8.144,0,0,1,1.584,2.2c.044.1.1.1.187.044a3.207,3.207,0,0,0,.418-.319c.088-.088.11-.132.044-.253a7.98,7.98,0,0,0-1.54-1.991c-.077-.066-.132-.088-.209-.033C64.787,22.084,64.633,22.194,64.457,22.326Zm1.507-5.269a1.111,1.111,0,1,0,1.111,1.111A1.108,1.108,0,0,0,65.964,17.057Zm0,.418a.693.693,0,1,1-.693.693A.69.69,0,0,1,65.964,17.475Zm4.763,3.355a6.978,6.978,0,0,1,.946,1.639c.033.088.077.132.176.088a2.4,2.4,0,0,0,.418-.2c.1-.066.1-.088.055-.2a6.234,6.234,0,0,0-.9-1.54c-.066-.077-.11-.1-.2-.055Q71.024,20.665,70.727,20.83Zm2.145-.517a6.538,6.538,0,0,1,.847,1.628c.044.1.077.132.154.1a4.178,4.178,0,0,0,.44-.209c.088-.044.11-.088.077-.176a6.739,6.739,0,0,0-.825-1.529.13.13,0,0,0-.187-.066C73.246,20.115,73.1,20.192,72.872,20.313Zm3.41-.077a3.942,3.942,0,0,1-.187.9,10.6,10.6,0,0,1-1.5,2.706,9.156,9.156,0,0,1-2.464,2.189,1.387,1.387,0,0,1,.572.275.185.185,0,0,0,.242-.011,8.9,8.9,0,0,0,2.222-2.09,13.136,13.136,0,0,0,1.617-2.838,1.574,1.574,0,0,1,.319-.528.155.155,0,0,0-.011-.264A2.924,2.924,0,0,0,76.282,20.236Zm8.679-1.254a4.593,4.593,0,0,1,.077-1.221c.055-.165.1-.286-.077-.33a4.54,4.54,0,0,0-.913-.143,9.305,9.305,0,0,1,.121,1.76v4.9c0,.671-.011,1.529-.044,2.233,0,.121.033.154.154.154a4.772,4.772,0,0,0,.561,0c.121,0,.154-.033.143-.143-.011-.715-.033-1.573-.033-2.244V21.391a12.2,12.2,0,0,1,3.2,1.474c.1.066.143.044.209-.044a3.52,3.52,0,0,0,.264-.539c.033-.077.011-.132-.077-.176a15.514,15.514,0,0,0-3.586-1.529Zm8.822-1.144a6.345,6.345,0,0,1-.154,1.221,20.015,20.015,0,0,0-.451,3.751,9.763,9.763,0,0,0,.5,3.19.138.138,0,0,0,.121.11,2.666,2.666,0,0,0,.495-.11.094.094,0,0,0,.077-.1c0-.077-.022-.143-.022-.242a.655.655,0,0,1,.044-.275c.231-.649.462-1.188.7-1.749a.365.365,0,0,0,.055-.176.175.175,0,0,0-.055-.11,2.737,2.737,0,0,1-.264-.44c-.319.77-.55,1.243-.814,1.859a8.387,8.387,0,0,1-.165-1.892,18.034,18.034,0,0,1,.517-3.8,1.615,1.615,0,0,1,.22-.583.3.3,0,0,0,.077-.187c0-.066-.044-.11-.154-.176A4.057,4.057,0,0,0,93.783,17.838Zm2.409,5.577a1.811,1.811,0,0,0,.462,1.309,3.056,3.056,0,0,0,2.42.693,16.458,16.458,0,0,0,1.969-.121c.143-.022.143-.033.143-.132,0-.154-.022-.385-.033-.517-.011-.11-.033-.121-.121-.11a16.457,16.457,0,0,1-2.167.154c-1.3,0-1.969-.374-2-1.21,0-.088-.022-.121-.077-.11Zm.385-3.531a13.941,13.941,0,0,1,2.3-.231c.627,0,1.342.011,1.771.055.1.011.121-.011.121-.1.011-.165.011-.341.011-.517,0-.088-.022-.1-.165-.11-.3-.033-.924-.055-1.562-.055a18.2,18.2,0,0,0-2.332.2c-.11.022-.132.055-.132.154C96.577,19.411,96.577,19.587,96.577,19.884ZM109.8,23.8a5.458,5.458,0,0,0-1.1-.132c-1.078,0-1.87.561-1.87,1.386,0,.913.869,1.342,1.705,1.342,1.419,0,1.98-.6,1.969-1.716a6.652,6.652,0,0,1,1.672,1.045c.066.055.121.066.176-.011a3.5,3.5,0,0,0,.264-.484c.033-.088.044-.121-.044-.176a9.574,9.574,0,0,0-2.079-1.1,18.547,18.547,0,0,1-.132-2.024,1.7,1.7,0,0,1,.044-.517.568.568,0,0,0,.066-.2c0-.066-.044-.11-.121-.132a3.476,3.476,0,0,0-.748-.143,3.419,3.419,0,0,1,.066.7C109.678,22.238,109.733,23.118,109.8,23.8Zm.011.66a1.493,1.493,0,0,1,.011.264c0,.561-.33,1.034-1.232,1.034-.726,0-1.133-.231-1.133-.737,0-.407.4-.748,1.276-.748A3.639,3.639,0,0,1,109.81,24.46Zm-2.343-5.2c.11-.385.231-.792.352-1.188a1,1,0,0,1,.154-.341.224.224,0,0,0,.088-.165.126.126,0,0,0-.1-.121,4.609,4.609,0,0,0-.858-.22,3.251,3.251,0,0,1-.088.858c-.1.462-.2.869-.33,1.287a14.138,14.138,0,0,1-1.5.088c-.231,0-.517-.011-.869-.044a3.423,3.423,0,0,0,.066.55c.022.11.033.121.132.132.253.022.418.022.583.022.473,0,.913-.033,1.386-.077a19.337,19.337,0,0,1-2.068,4.092c-.055.088-.055.132.011.187a2.54,2.54,0,0,0,.44.33c.066.044.121.055.176-.033a26.49,26.49,0,0,0,2.211-4.642c.649-.1,1.243-.2,1.837-.319.088-.011.11-.033.1-.132-.011-.143-.033-.341-.055-.473-.011-.066-.044-.088-.143-.066A15.09,15.09,0,0,1,107.467,19.257Zm2.849.594a7.407,7.407,0,0,1,2.244,1.122c.066.044.1.055.154-.022a2.863,2.863,0,0,0,.253-.44c.055-.088.055-.132-.022-.2a7.8,7.8,0,0,0-2.156-1.034c-.1-.033-.132-.022-.187.066C110.514,19.477,110.426,19.664,110.316,19.851Zm8.4,1.991c1.1-1.122,1.837-1.892,2.816-2.926a1.193,1.193,0,0,1,.517-.385.228.228,0,0,0,.165-.209.3.3,0,0,0-.077-.187,2.71,2.71,0,0,0-.473-.462.33.33,0,0,0-.2-.088.339.339,0,0,0-.154.077,1.148,1.148,0,0,1-.341.1c-.968.187-1.87.308-2.739.4a4.1,4.1,0,0,1-.968-.011,3.48,3.48,0,0,0,.264.759.2.2,0,0,0,.176.132.654.654,0,0,0,.209-.055,1.785,1.785,0,0,1,.385-.1c.979-.187,1.837-.352,2.75-.495-.847,1-1.507,1.7-2.145,2.4a29.953,29.953,0,0,1-2.486,2.453c-.077.066-.088.11-.044.165a5.073,5.073,0,0,0,.407.44c.077.077.132.066.22-.022a10.573,10.573,0,0,1,.968-.9A5.068,5.068,0,0,1,121,21.677a1.782,1.782,0,0,1,1.9,1.8,2.029,2.029,0,0,1-1.606,2,1.862,1.862,0,0,0-1.87-1.573,1.2,1.2,0,0,0-1.287,1.122c0,.7.594,1.3,1.914,1.3,2.332,0,3.63-1.188,3.63-2.827a2.336,2.336,0,0,0-2.563-2.409,4.294,4.294,0,0,0-2.365.781Zm1.9,3.8a3.991,3.991,0,0,1-.715.055c-.737,0-1.133-.308-1.133-.671,0-.341.319-.517.671-.517A1.276,1.276,0,0,1,120.623,25.637Zm8.129-3.256a2.289,2.289,0,0,0-.451,1.3c0,1.419,1.287,2.068,3.421,2.068a15.88,15.88,0,0,0,3.333-.286c.11-.022.154-.055.143-.143a5.534,5.534,0,0,0-.1-.572c-.022-.088-.055-.1-.154-.077a13.684,13.684,0,0,1-3.157.319c-1.8,0-2.816-.44-2.816-1.342a1.743,1.743,0,0,1,.3-.858c.044-.066.033-.11-.033-.143C129.082,22.557,128.906,22.458,128.752,22.381Zm.308-4.1c-.011.187-.022.418-.022.561,0,.11.033.143.1.154a11.474,11.474,0,0,0,2.233.2c.341,0,.825-.011,1.188-.044a14.417,14.417,0,0,0-1.892,1.1,1.234,1.234,0,0,1,.451.22.249.249,0,0,0,.308-.022,7.288,7.288,0,0,1,2.849-1.254c.11-.011.154-.044.154-.165a3.187,3.187,0,0,0-.033-.5c-.011-.077-.055-.11-.154-.1-.759.066-1.639.1-2.431.1A13.084,13.084,0,0,1,129.06,18.278Zm12.32-.891a4.041,4.041,0,0,1,.242,1.078,19.657,19.657,0,0,0,.583,2.816c-1.4.847-2.145,1.661-2.145,2.717,0,1.507,1.375,1.925,3.278,1.925a24.478,24.478,0,0,0,2.926-.154c.121-.011.165-.055.154-.154a4.787,4.787,0,0,0-.066-.572c-.022-.088-.055-.11-.154-.1a21.139,21.139,0,0,1-2.827.231c-1.661.011-2.585-.231-2.585-1.21,0-.77.517-1.342,1.628-1.991.748-.429,1.694-.88,2.5-1.254a4.179,4.179,0,0,1,.968-.352c.2-.022.22-.176.132-.308a4.668,4.668,0,0,0-.561-.616,1.784,1.784,0,0,1-.638.506c-.649.363-1.309.671-1.958.99a14.732,14.732,0,0,1-.429-2.222c-.033-.242-.055-.462-.066-.7,0-.176.055-.275.055-.385a.159.159,0,0,0-.132-.143A5.013,5.013,0,0,0,141.38,17.387Zm14.388,5.17c.8-.341,1.5-.594,2.332-.946a3.216,3.216,0,0,1,.6-.176c.11-.022.2-.088.11-.253a2.642,2.642,0,0,0-.539-.638,3.01,3.01,0,0,1-.836.561c-.55.264-1.177.55-1.716.792a1.272,1.272,0,0,0-1.386-1.287,2.384,2.384,0,0,0-1.375.473l-.011-.022a9.222,9.222,0,0,0,1.122-1.639c.88-.088,1.815-.209,2.684-.363.121-.022.143-.055.143-.132-.011-.176-.044-.33-.066-.484-.022-.066-.044-.066-.132-.044a20.77,20.77,0,0,1-2.321.363c.143-.33.242-.561.374-.836a1.021,1.021,0,0,1,.2-.308.136.136,0,0,0-.022-.242,3.556,3.556,0,0,0-.825-.242,1.648,1.648,0,0,1-.088.594,9.73,9.73,0,0,1-.4,1.1,22.017,22.017,0,0,1-2.552.011c.011.176.044.418.066.55.011.077.033.11.121.11.693.022,1.364.022,2.046-.022a12.078,12.078,0,0,1-2.552,3.058c-.066.066-.055.088-.022.154a3.572,3.572,0,0,0,.385.429c.055.055.1.055.165-.022.385-.407.649-.693,1.045-1.067a3.125,3.125,0,0,1,1.8-.891c.649-.011.9.286.924,1.034-1.826.891-2.431,1.639-2.431,2.563,0,1.177,1,1.573,2.541,1.573a21.736,21.736,0,0,0,2.717-.154c.044-.011.088-.055.088-.154a3.134,3.134,0,0,0-.066-.539.091.091,0,0,0-.121-.077,19.37,19.37,0,0,1-2.618.22c-1.276,0-1.881-.264-1.881-.913s.594-1.221,1.8-1.826c-.011.561-.011,1.1-.011,1.584,0,.077.033.132.1.132a3.011,3.011,0,0,0,.473-.044c.1-.011.121-.044.121-.132ZM48.452,36.159c0-1.881.022-2.486.022-2.541,0-.077-.011-.088-.088-.088s-.451.022-1.551.022H43.282c-1.089,0-1.474-.022-1.54-.022s-.088.011-.088.088.022.671.022,2.838v2.167c0,3.256-.022,3.85-.022,3.9,0,.077.011.088.088.088h.528c.088,0,.1-.011.1-.088v-.715h5.39v.682c0,.077.011.088.088.088h.539c.077,0,.088-.011.088-.088,0-.055-.022-.638-.022-3.894Zm-.693,5.027h-5.39V39.151h5.39Zm0-2.651h-5.39v-1.9h5.39Zm0-2.519h-5.39V34.179h5.39Zm12.98,3.212c0-.957.022-1.265.022-1.331s-.011-.088-.088-.088c-.055,0-.374.022-1.309.022H57.571c-.935,0-1.254-.022-1.32-.022s-.088.011-.088.088.022.374.022,1.485v1.111c0,1.793-.022,2.09-.022,2.145,0,.077.011.088.088.088h.484c.077,0,.088-.011.088-.088V42H60.09v.594c0,.066.011.077.088.077h.495c.077,0,.088-.011.088-.077s-.022-.352-.022-2.134Zm-.649,2.189H56.823V40.163H60.09Zm0-1.815H56.823V38.414H60.09ZM54.1,35.73h.165c.8,0,1.034.022,1.1.022s.088-.011.088-.088v-.473c0-.077-.011-.088-.088-.088s-.3.022-1.1.022H54.1v-.891a3.509,3.509,0,0,1,.055-.957.514.514,0,0,0,.066-.209c0-.044-.044-.088-.132-.1a5.943,5.943,0,0,0-.693-.066,7.29,7.29,0,0,1,.066,1.342v.88h-.385c-.792,0-1.034-.022-1.1-.022s-.088.011-.088.088v.473c0,.077.011.088.088.088s.308-.022,1.1-.022h.385v2.387c-.253.1-.5.187-.7.253a6.532,6.532,0,0,1-.968.264,5.974,5.974,0,0,0,.209.627c.033.077.077.1.121.1a.213.213,0,0,0,.143-.066,1.147,1.147,0,0,1,.407-.209c.264-.088.528-.187.792-.286v2.695c0,.385-.1.495-.407.495-.363,0-.638-.011-.913-.033a1.447,1.447,0,0,1,.22.473c.055.209.088.22.308.22.726,0,.946-.033,1.155-.2s.286-.352.286-.858c0-.418-.011-1.067-.011-1.672V38.535c.407-.176.792-.352,1.144-.517.209-.1.209-.11.209-.319,0-.165.011-.33.022-.451-.429.22-.913.429-1.375.627Zm2.618-.6a21.172,21.172,0,0,0,3.322-.847,3.68,3.68,0,0,1,.462-.154c.154-.022.22-.055.22-.132a.207.207,0,0,0-.066-.154,3.139,3.139,0,0,0-.429-.429,1.962,1.962,0,0,1-.671.374,20.718,20.718,0,0,1-2.838.77v-.506c0-.55.011-.627.055-.726a.469.469,0,0,0,.066-.2c0-.044-.055-.088-.154-.1-.209-.022-.44-.055-.682-.066a7.718,7.718,0,0,1,.055,1.122v1.925a.766.766,0,0,0,.616.825,7.155,7.155,0,0,0,1.947.121,5.164,5.164,0,0,0,2.244-.264c.286-.2.429-.451.506-1.089.022-.2.011-.209-.187-.286a1.273,1.273,0,0,1-.429-.242c-.033.649-.077.913-.33,1.078a4.425,4.425,0,0,1-1.76.2,8.381,8.381,0,0,1-1.562-.088.446.446,0,0,1-.385-.484Zm9.031-1.65a6.057,6.057,0,0,1,.088,1.661c-.055,1.551-.154,3.344-.154,4.906,0,1.617.671,2.211,1.914,2.211A6.122,6.122,0,0,0,71.783,40.4c.1-.088.132-.143.132-.209a.56.56,0,0,0-.044-.154,2.6,2.6,0,0,1-.187-.638,5.653,5.653,0,0,1-3.96,2.1c-.957,0-1.3-.374-1.3-1.606,0-1.518.066-3.025.165-4.686a6.269,6.269,0,0,1,.132-1.133.839.839,0,0,0,.088-.286c0-.077-.055-.132-.176-.165A4.37,4.37,0,0,0,65.744,33.475Zm13.772,6.369a6.957,6.957,0,0,0-1.155-.088c-1.276,0-2.024.627-2.024,1.342,0,.814.66,1.309,1.947,1.309,1.331,0,1.98-.484,1.969-1.716a8.108,8.108,0,0,1,2.508,1.4c.066.044.11.033.165-.033a1.477,1.477,0,0,0,.275-.473c.033-.1.011-.143-.044-.187a8.937,8.937,0,0,0-2.937-1.419c-.044-.66-.077-1.232-.077-1.914a20.127,20.127,0,0,0,2.431-.3c.077-.011.11-.044.11-.11,0-.187-.011-.4-.011-.528-.011-.055-.044-.077-.121-.055a18.393,18.393,0,0,1-2.431.319c-.011-.517-.011-1.089-.011-1.628a27.322,27.322,0,0,0,2.761-.319c.033,0,.077-.022.077-.11a4.123,4.123,0,0,0-.033-.484c-.011-.077-.033-.1-.121-.077a25.7,25.7,0,0,1-2.684.363c.011-.374.011-.616.033-.968a1.03,1.03,0,0,1,.132-.506.17.17,0,0,0-.1-.253,4.433,4.433,0,0,0-.869-.143,2.627,2.627,0,0,1,.1.726c0,.407.011.715.011,1.166a18.653,18.653,0,0,1-3.058-.088,3.907,3.907,0,0,0,.044.572c.011.077.033.1.1.11a20.963,20.963,0,0,0,2.915.055c0,.528.011,1.1.011,1.639a16.418,16.418,0,0,1-2.662-.077,4.661,4.661,0,0,0,.033.561c.011.1.033.132.121.132a21.417,21.417,0,0,0,2.53.033C79.461,38.733,79.483,39.217,79.516,39.844Zm.011.66a1.24,1.24,0,0,1-.2.891,1.505,1.505,0,0,1-1.122.341c-.8,0-1.232-.22-1.232-.682,0-.4.462-.693,1.386-.693A5.2,5.2,0,0,1,79.527,40.5Zm9.317-7.029a6.057,6.057,0,0,1,.088,1.661c-.055,1.551-.154,3.344-.154,4.906,0,1.617.671,2.211,1.914,2.211A6.122,6.122,0,0,0,94.883,40.4c.1-.088.132-.143.132-.209a.56.56,0,0,0-.044-.154,2.6,2.6,0,0,1-.187-.638,5.653,5.653,0,0,1-3.96,2.1c-.957,0-1.3-.374-1.3-1.606,0-1.518.066-3.025.165-4.686a6.269,6.269,0,0,1,.132-1.133.839.839,0,0,0,.088-.286c0-.077-.055-.132-.176-.165A4.37,4.37,0,0,0,88.844,33.475Zm14.322,7.48a7.867,7.867,0,0,1,2.068,1.133.078.078,0,0,0,.121-.022,2.637,2.637,0,0,0,.275-.5.071.071,0,0,0-.033-.11,9,9,0,0,0-2.453-1.144c-.066-.682-.132-1.584-.154-2.255a11.475,11.475,0,0,0,2.222-.407c.077-.022.088-.055.077-.132-.033-.143-.077-.3-.121-.429-.022-.066-.055-.077-.143-.044a8.543,8.543,0,0,1-2.046.385c-.011-.473-.011-.891.011-1.232a.812.812,0,0,1,.088-.4.275.275,0,0,0,.044-.143c0-.044-.055-.077-.121-.1a4.025,4.025,0,0,0-.792-.121,2.4,2.4,0,0,1,.088.715c.011.4.022.935.044,1.54.022.946.088,1.892.143,2.5a6.506,6.506,0,0,0-.891-.044c-.968,0-1.7.44-1.7,1.188,0,.627.528,1.122,1.672,1.122,1.045,0,1.606-.484,1.606-1.287Zm-.66.022c0,.6-.374.891-.968.891-.748,0-1.078-.242-1.078-.55,0-.385.44-.6,1.133-.6a5.551,5.551,0,0,1,.913.088ZM113.2,33.189a3.14,3.14,0,0,0-.176.6c-.011.1,0,.143.033.154a12.84,12.84,0,0,0,3,.825c.077.011.088-.033.121-.121a3.22,3.22,0,0,0,.132-.517c.011-.088-.022-.132-.11-.143A11.415,11.415,0,0,1,113.2,33.189Zm-1.914,3.476a5.176,5.176,0,0,0,.352.7c.055.088.132.176.209.176.11,0,.2-.077.352-.165a8.764,8.764,0,0,1,.99-.451,5.25,5.25,0,0,1,1.606-.385c.671,0,1.364.374,1.364,1.694a3.257,3.257,0,0,1-.627,2,5.859,5.859,0,0,1-2.343,1.793,1.4,1.4,0,0,1,.55.374c.077.1.154.121.374,0a6.386,6.386,0,0,0,1.947-1.551,3.916,3.916,0,0,0,.9-2.541c0-1.716-.946-2.464-2.035-2.464a7.674,7.674,0,0,0-2.387.528A5.161,5.161,0,0,1,111.284,36.665Zm14.784-1.034a4.742,4.742,0,0,1,1.375.935,1.975,1.975,0,0,1,.638,1.584,3.025,3.025,0,0,1-1.056,2.145l.143.132a3.236,3.236,0,0,0,1.353-2.552,2.94,2.94,0,0,0-.462-1.793,9.215,9.215,0,0,0-1.441-1.6,1.891,1.891,0,0,1-.605-1.265h-.33v6.831a1.22,1.22,0,0,0-.737-.22,1.776,1.776,0,0,0-1.793,1.628c0,.649.44.968,1.1.968a1.836,1.836,0,0,0,1.815-1.771Z" transform="translate(77 3981)" fill="#707070"/>
    </g>
  </g>
</svg>
