<svg xmlns="http://www.w3.org/2000/svg" viewBox="0 0 910.17 201.25"><defs><style>.cls-1{fill:#7f7f7f;}.cls-2{fill:#707070;}</style></defs><g id="レイヤー_2" data-name="レイヤー 2"><g id="レイヤー_1-2" data-name="レイヤー 1"><g id="線_34" data-name="線 34"><polygon class="cls-1" points="110.48 200.22 110.66 199.87 109.75 199.05 110.48 200.22"/><path class="cls-1" d="M105.14,189.65c-.81-.76-2-2.43-2.57-2.15l1.43,1.4c-.31.48.32,1.57,1,2.47l-.63-1.09c.22.25.4-.08.61.17.7,1.82,1.54,1.93,1.91,3.76l-.09-.07,1,1.09c.14.42-.15.38-.3.3a14.71,14.71,0,0,1,2.32,3.19c.17-1.59-2.41-2.95-2.23-4.53l.09.06C106.55,193,106.15,191,105.14,189.65Z"/><path class="cls-1" d="M107.45,195.53l-.07-.09S107.4,195.5,107.45,195.53Z"/><path class="cls-1" d="M76.07,135h-.16C76,135,76.1,135.1,76.07,135Z"/><path class="cls-1" d="M84.41,154.16a.3.3,0,0,0,0-.1C84.13,154,84.21,154.08,84.41,154.16Z"/><path class="cls-1" d="M21.84,35.54v-.45A.35.35,0,0,0,21.84,35.54Z"/><path class="cls-1" d="M8.63,10.88l0,0S8.63,10.87,8.63,10.88Z"/><path class="cls-1" d="M12.23,23.42l-.13.14C12.22,23.56,12.25,23.5,12.23,23.42Z"/><path class="cls-1" d="M7.6,15.66a5.38,5.38,0,0,0-.28-.7A1.25,1.25,0,0,0,7.6,15.66Z"/><path class="cls-1" d="M8.83,11.08a1.89,1.89,0,0,1-.2-.2A1.25,1.25,0,0,0,8.83,11.08Z"/><path class="cls-1" d="M18.42,35.53l-.25.54C18.3,36,18.36,35.75,18.42,35.53Z"/><path class="cls-1" d="M6.2,13.88a1.1,1.1,0,0,0-.08-.49A.62.62,0,0,0,6.2,13.88Z"/><path class="cls-1" d="M104.23,188.05a6.76,6.76,0,0,0,.49.76A2.62,2.62,0,0,0,104.23,188.05Z"/><path class="cls-1" d="M42.35,80.51a.52.52,0,0,0-.24-.05C42.24,80.61,42.31,80.59,42.35,80.51Z"/><path class="cls-1" d="M28.17,54.25l-.06-.08a.64.64,0,0,0,0,.14Z"/><path class="cls-1" d="M32.4,61.87l-.15-.06A.22.22,0,0,0,32.4,61.87Z"/><path class="cls-1" d="M24.59,48.7a1.45,1.45,0,0,0-.29-.19Z"/><path class="cls-1" d="M22,42.93c0,.33-.3.14-.58,0,.54,1.49,1.32,1.67,1.73,3.3L23,45.4a6.54,6.54,0,0,1,1.86,3.49l-.28-.19c.82.7.95,2.43,1.44,2.65,0-.46.3-.14.16-.79l1.57,2-.48.48.83,1.08c.07-.42.68,1.68,1.24,1.42.16.78-.58-.05-.94-.17.53.58.32.78,1,1.22l-.14.93,1.3,1.54c-.1-.06-.08.06-.17,0,.86.57.85,2.15,2.12,2.76,0,0-.07,0-.11,0,.69.34,1.15,1.85,1.34,2.4.58.84.68.11.91,0,1.27,2.66.86,1.82,2.63,3.67.08,1.64-1.84-1-1.38.9.42.06,1.29,1.08,2.11,2.3a34.75,34.75,0,0,1,1.54,4.76l.34-.34L41,77.13l-1.11-.62c.29.19,1,.89,1.51,1.33,1.29,1.54-.36,1.47,1,2.47a1.67,1.67,0,0,1-.06.2c.55.26,1,1.46,1.88,2.7L43.46,83l-.35-.9c-.27.73.85,1.35,1.26,2.19.65.77.85.11,1.25.48.15.33.55.71.54,1,.25.85-.57.42-.93.3.9.36,1,.63,2,2a.31.31,0,0,1-.53,0,1.28,1.28,0,0,0,.8.52l0,.66c.47,1.9,1.87,1.12,2.79,3.2-.57-.38,1,1.68,1,2.47-.46-.64-.59.75-1.13.5.67,1.69,1,.3,1.79,1.52l-.94-.17c1,1.09.51.12,1.41,1.27-.38-.24.13.66-.49,0,.83,1.69.66,1.23,1.37,2.72l.69-.22a1,1,0,0,1,.12,1c-.12-.19-.27-.52-.34-.44-.23.86.82.76.67,1.69.11-.27.29-.61.66,0-.49,0,.14,1.12,0,1.25.06-.52.83,1.23,1.29,1.08.09.86-.42,0-.65,0,.8.31,1.39,2.4,2,2.77,0,0,0,.08-.07.09.7.57,1.44,1.75,2.67,3l-.64-.3c.65,1.56,1.25.48,1.91,1.71-.65,0,1.14,2,.27,1.77a7.43,7.43,0,0,0,2,1.51c.09.86-1.43-.94-1.05.1l.83.9-.17.33c.23-.07.74.83.88.7-.25.34-.25.89-.53,1,.46.6.64,1.7,1.23,2.09l-.13.14c1,.3,1.21,1.93,2,1.9l-.12.6c.61,1,1.15.42,1.56.8a7.87,7.87,0,0,1,.75,1.3c-1.12-1.09-.14.93-.22,1.32a6.8,6.8,0,0,0,1.69,2.25c-.67-.44-.73.09-1.36-1-.3.94,1.07,1.61,1.66,2.91l-.3.15c1.16,1.67,1.69,1.45,2.61,1.95-.24.4-.43.28-1.07,0a43.45,43.45,0,0,0,2.37,4.4c0,.56-.33.36-.68,0,1,1.23,1.62,3.12,2.73,3.64-.44-.2.13.65.29,1.22.13-.07.35-.06.37,0a10.48,10.48,0,0,1,2.28,3.55l-.38-.26c1.13,2.34,2.77,2.74,3.65,5.48.11.52-.77-.17-.26.73.48.32.89-.09,1.38,1.14l-.46.15.85.56c.13-.6-.7-1.82.18-1.13.18,1.25.88.7,1.11,2.21a2.59,2.59,0,0,0-1-.59c.94,2.91,2.42,3.47,3.34,6.44,1.06,1.15,2,2.83,2.86,3.59a1.38,1.38,0,0,1-1.49-.08c.57,1.17,1.8,1.19,1.62,2.32.87.23,2.08,3,3,2.79-.14.14.66,1.23-.43.28,1.1,1.41.41,2.43.8,3.14.24.38.26-.74.77.17,0,.13,0,.2,0,.33l.38.25c0,.46-.61-.18-.84-.1.52,1.36,1.61,1.85,2.48,3.33l-.28-.18.81,1.55-.1-.06,1,1.09-.23.07c.22.26.38.25.62.64h-.32c.61.18,1.62,1.52,2,2.24l0,.2,1.43,1.4c.21,1-1.23-.82-.07.86l-.77-.17c.89,1.15.71,1.49,1.36,2.26,0-.54-.31-1.12.17-.8-.07,1.32,1,1.5,1.77,2.32-.27-.47-.44-.8-.93-1-.27-.52.18-.34,0-.66l-.69-.57.25-.4-1-1.09c.46-.15-.56-1.17.14-.93-.65-.77-.62-1.43-1.47-2-.06-.72.81.76.52.12A88.36,88.36,0,0,1,95.19,171l.38.25c-.38-.25-.79-.63-1.07-.82,0-.79-.85-3.39-1.94-3.88,0-.14.17,0,.26.05-.73-1.16-1.46-3.57-2.46-5.25-1.06-.36-1-2.8-2.24-3l.38.26c.06.72-1.09-.49-1.44-.61.33-.8.44-.28.67-1.15l.16.79.41-.41c-2.44-1.5-1.62-4.37-3.27-5.23.09.06.16,0,.25.06-.21-1.05-1.18-1.35-1.7-1.92.2-.21.61.18,1,.43-.67-1.69-2.78-4-3.34-5.95-.66-.44-.31.47-.91,0-.2-.59-.15-1.12.38-.54-.21-1.84-3.1-4.77-3.79-7.39-1-1-.78-.17-2-1.9.47.31.56-.88,1.19.22h.33c-1-1.88-2.21-4.41-3.48-5,.5-.35-.08-.4-.18-1.25-.21-.26-.06.07,0,.2-.82-.43-.54-1-.87-1.49l.19.13L71,126.38c0-.26-.13-.65,0-.79l-.37.21c-.39-.71.29-.6-.29-1.44l-.18.34c-.13-.66-1-1.36-.67-1.7.07-.06.09.07.21.26.09-1.19-1.43-2.19-1.76-3.43l-.45.61c-.77-1-.23-.72,0-.8-.39-.71-.28-1-.72-2-.41-.38-.35-.12-.61-.17l-.38-1,.67.44c-1.68-1-1.91-3.76-3.26-4.31-.13-.65.64.31.56-.08-.56-2-2.7-3.6-3-5.3-.86-2.61-2.76-5.11-3.9-7.91l-.14.14-.89-1.95c-.64-.31-1.16-1.67-2-2.24.16,0,.27-.27.46-.15A6.37,6.37,0,0,1,53,93l.28.19a22.76,22.76,0,0,0-3-5c-.36-.58-.06-.72,0-1a8.32,8.32,0,0,0-1.79-2.31,3.63,3.63,0,0,1-.09-.85l-.61-.18c-.17-.46.28-.27.2-.67-1.34-1.33-1.93-3.42-2.57-4.52l-.11.27c-.4-.38-.61-1.43-.11-1-1-2.34-2.41-2.94-3.93-6,.5-.81-1.67-2.58-1.11-3.46-.89-1.15-1-2.14-2-2.76.06-.07,0-.2.16,0,0-.66-1.1-2.2-2-3.36l.2-.2c-.77-.17-1.81-2.44-2.58-2.61,0-.2.35.12.54.25.14-.94-.86-1-1.21-1.94.16,0,.17-.34.36-.21-1-3.14-4.15-6.72-5.76-10.61-.54-1-.36.67-1-.69.05-.53.89.36.54-.55-.66-.44-.71-.7-1.13-1.54.26.06.3-.14.73.37,0-.59-1.51-1.79-1.59-3-.13.14-.32,0-.51-.11-1.22-1.15-1.28-3.45-1.6-3.44,0,0-.34-.45-.17,0-.27-.52-.59-1.3-.26-1.31a2.27,2.27,0,0,1-.88-.7l.42,0a7.74,7.74,0,0,1-.69-.57V36c-.06-.73-1.3-1.54-.7-1.83l.12.2-.33-1.24a2.87,2.87,0,0,1-1.27-1.41c.45-.61-.89-1.95-1.33-2.92l.23-.07c-.69-.57-1.58-2.52-1.5-2.13-.39-.71-.76-1.75-.38-1.5-.44-.51-1.1-1.74-1.61-1.85L15,21.81c-1.13-.29-1-2.47-1.82-2.11-.23-.72,0-.66-.08-1.19a6.59,6.59,0,0,1-1.77-2.64l.07-.07c-.44-1-1.44-1.85-2.2-3.15l.45-.6c-.46-.65-1-.56-1.24-1.29,0-.2.12-.07.24.09a5.75,5.75,0,0,1-.9-2.1C6.73,8,6.47,7.14,5.53,6.52c.11-1.06.86,1,1,.09A13.79,13.79,0,0,0,3.86,2.36c0-.2.23-.08.4-.08,0,0-3.17-2.37-3.42-1.47C.23.64-.25.32.14,1.83c.47.31,1.44,1.4,1.12,1.87l.46-.14c1.16,1.67-.78.62.4,2.75L2,5.79c.24.39.69.56.8,1.09-.05.2-.26-.06-.45-.18L3.89,8.16c-.21.21-.37.21-.75,0,.9,1.61.59-.75,1.5,1.33,0,.46-.33,0-.61-.17.14,1.11.81,1.55,1.55,2.38-.37.21-.66-.44-.48.48.11-.27.39-.54.75,0-.53-.09.05.57.27,1.21.07-.19.27-.25.46-.05s.2.58.44,1l0-.92c.9.82.67,1.69.93,2.54a.62.62,0,0,1-.33-.27A5.7,5.7,0,0,0,8.92,18.4l-.1-.06c1.42,1.73.31-.94,1.87,1.12.33.78-1.41.31,0,1.78-.11-1,1.37.68,2,1.57l-1.28-.61c.21.4.78,1,.82,1.22l.14-.14c.58-.41.6,1.31,1.35,1.81-1.31-.42-1.18-.56-2.1-.26a4.53,4.53,0,0,1,2.27,2.29l-1.21-.68c.77,1.75,2.79,3.2,4.07,4.28-.68-.11-.54.54-1.28.17l1,1.55-.77-.17c.9.37.92,1.29,1.56.8C17,33,17,33,16.82,32.69c.24-.07.82,0,1.24.81.13.66-.45-.18-.56.09.57.37.13.65.63,1.1l0-.66c.61.17.52.91,1,1.34-.52-.56-.64-.22-.75.16l0-.06c.25.38.81.76.73,1.16l-.74,0,.73.37c0,.26-.06.53-.37.21.65,2,1.17-.7,2,2-.23.08-.52-.11-.74-.83-.4.08-.51.35-.28,1.07l-.06,0A12.52,12.52,0,0,0,22,42.93Z"/><path class="cls-1" d="M19.68,39.42A9,9,0,0,0,18.8,38C18.76,38.15,19.35,39.64,19.68,39.42Z"/><path class="cls-1" d="M73.68,137.45a1.9,1.9,0,0,0-.19-.21Z"/><path class="cls-1" d="M76.72,142.66a.72.72,0,0,0,0-.35C76.59,142.37,76.54,142.49,76.72,142.66Z"/><path class="cls-1" d="M46.64,88.1l0,0Z"/><path class="cls-1" d="M62.84,118.3c.43.36.67.45.83.4A.87.87,0,0,0,62.84,118.3Z"/><path class="cls-1" d="M57.54,108c-.06,0-.12-.11-.18-.15C57.47,108,57.52,108,57.54,108Z"/><path class="cls-1" d="M45.5,86.67a10.37,10.37,0,0,1,1.14,1.43C46.3,87.72,46,86.78,45.5,86.67Z"/><polygon class="cls-1" points="80.84 148.78 80.27 148.4 80.78 148.85 80.84 148.78"/><path class="cls-1" d="M78,143.93c0-.26-.7-1-.72-.7A3.68,3.68,0,0,1,78,143.93Z"/><polygon class="cls-1" points="67.94 124.84 67.52 124.79 67.99 125.1 67.94 124.84"/></g><g id="線_34-2" data-name="線 34"><polygon class="cls-1" points="801.99 201.25 802.37 201.21 802.57 200.01 801.99 201.25"/><path class="cls-1" d="M807.93,191c.2-1.1,1-3,.41-3.33l-.4,2c-.57,0-1.14,1.11-1.53,2.17l.58-1.13c-.1.32.28.29.18.61-1.14,1.58-.77,2.34-2.11,3.65v-.11l-.39,1.39c-.28.35-.4.09-.41-.08a14.86,14.86,0,0,1-1.42,3.68c1.43-.73,1.16-3.62,2.59-4.34v.11C805.92,194,807.35,192.6,807.93,191Z"/><path class="cls-1" d="M804.27,196.16l0-.11S804.26,196.09,804.27,196.16Z"/><path class="cls-1" d="M838,136.85l-.09-.13C837.87,136.84,837.87,137,838,136.85Z"/><path class="cls-1" d="M826.41,154.3l.06-.08C826.36,154,826.37,154.09,826.41,154.3Z"/><path class="cls-1" d="M891.81,37.22l.38-.26A.35.35,0,0,0,891.81,37.22Z"/><path class="cls-1" d="M905.3,12.71l0,0S905.31,12.7,905.3,12.71Z"/><path class="cls-1" d="M896.74,22.56l-.18,0C896.62,22.62,896.68,22.62,896.74,22.56Z"/><path class="cls-1" d="M900.73,14.45a5.35,5.35,0,0,0,.44-.62A1.23,1.23,0,0,0,900.73,14.45Z"/><path class="cls-1" d="M905.24,13a2.8,2.8,0,0,1,.06-.28A1.09,1.09,0,0,0,905.24,13Z"/><path class="cls-1" d="M890,34.35l-.59.08C889.51,34.5,889.74,34.42,890,34.35Z"/><path class="cls-1" d="M901.46,12.3a1,1,0,0,0,.37-.33A.62.62,0,0,0,901.46,12.3Z"/><path class="cls-1" d="M808.78,189.39a5.93,5.93,0,0,0-.37.82A2.58,2.58,0,0,0,808.78,189.39Z"/><path class="cls-1" d="M865.27,78.91a.5.5,0,0,0-.09-.23C865.12,78.88,865.18,78.92,865.27,78.91Z"/><path class="cls-1" d="M879.58,52.72l0-.09-.13.07Z"/><path class="cls-1" d="M875.49,60.41a.83.83,0,0,0,0-.15C875.45,60.36,875.47,60.39,875.49,60.41Z"/><path class="cls-1" d="M882.27,46.69a1,1,0,0,0,0-.34Z"/><path class="cls-1" d="M885.72,41.39c-.29.17-.28-.17-.28-.51-1,1.27-.68,2-1.83,3.25l.58-.56A6.56,6.56,0,0,1,882.27,47v-.34c-.14,1.07-1.52,2.12-1.44,2.65.38-.26.28.18.76-.29l-.87,2.43-.66-.14-.45,1.29c.38-.17-1,1.48-.52,1.8-.57.57-.28-.51-.37-.87-.2.76-.48.69-.49,1.49l-.85.39-.58,1.92c0-.11-.1,0-.1-.13,0,1-1.34,1.88-1.16,3.28,0-.07,0-.06,0-.1.09.77-.93,2-1.29,2.43-.39.95.28.63.47.78-1.54,2.52-1.06,1.71-1.64,4.21-1.33,1-.18-2.08-1.51-.67.18.39-.2,1.67-.78,3a34.53,34.53,0,0,1-3.16,3.88l.48.1L867.38,76l-.08-1.27c0,.34-.2,1.32-.3,2-.59,1.92-1.43.49-1.53,2.18a1.15,1.15,0,0,1-.2,0c.08.61-.65,1.68-1.25,3l-.27-.74.57-.79c-.76.18-.68,1.45-1.15,2.26-.29,1,.37.76.27,1.31-.19.3-.29.85-.57,1-.58.67-.66-.26-.76-.62.18.95,0,1.14-.59,2.72a.33.33,0,0,1-.29-.45,1.32,1.32,0,0,0,0,1l-.57.33c-1.34,1.43.08,2.18-1.17,4.08,0-.68-.86,1.75-1.53,2.18.29-.74-1-.09-1-.68-1,1.49.28,1-.3,2.33l-.37-.88c-.39,1.4.19.5-.3,1.87,0-.45-.48.47-.28-.39-1,1.61-.67,1.21-1.53,2.63l.56.46a1,1,0,0,1-.76.63c.1-.21.29-.51.19-.52-.85.27-.2,1.09-1,1.48.29-.06.66-.09.37.53-.28-.4-.85.73-1,.69.47-.24-.58,1.36-.2,1.67-.67.54-.19-.39-.38-.54.18.84-1.25,2.47-1.25,3.15h-.12c-.1.9-.68,2.16-1.05,3.86l-.09-.7c-1,1.39.28,1.31-.39,2.53-.38-.54-1.06,2-1.34,1.19a7.4,7.4,0,0,0-.2,2.46c-.67.55,0-1.7-.66-.82l-.29,1.19-.38,0c.18.16-.29,1.08-.11,1.12-.42,0-.88.28-1.11.09-.25.71-1.08,1.47-1.08,2.18l-.19,0c.28,1-1,2.07-.49,2.73l-.57.22c-.48,1,.27,1.2.17,1.75a7.29,7.29,0,0,1-.67,1.34c.3-1.53-.85.39-1.23.53a6.93,6.93,0,0,0-1,2.64c0-.8-.47-.56.11-1.68-.95.25-.77,1.77-1.54,3l-.28-.17c-.77,1.88-.3,2.21-.21,3.25-.48,0-.48-.21-.57-.91a41.78,41.78,0,0,0-2.4,4.38c-.48.28-.48-.07-.35-.58-.47,1.53-1.74,3.05-1.57,4.27-.07-.48-.46.47-.86.91.13.07.24.26.19.31a10.7,10.7,0,0,1-1.73,3.85v-.46c-1.34,2.22-.78,3.82-2.6,6-.38.37-.28-.75-.75.18,0,.57.56.69-.21,1.77l-.37-.3v1c.57-.22,1.15-1.58,1-.46-1,.82-.1,1.11-1.24,2.13a2.71,2.71,0,0,0-.06-1.17c-1.93,2.37-1.6,3.92-3.58,6.31-.39,1.51-1.25,3.26-1.45,4.35a1.37,1.37,0,0,1-.75-1.29c-.67,1.11,0,2.16-1.06,2.62.28.86-1.35,3.36-.69,4.07-.19-.05-.67,1.22-.48-.22-.57,1.7-1.81,1.67-2.19,2.38-.19.41.76-.18.28.74-.1.09-.19.07-.29.17v.45c-.38.26-.18-.61-.37-.76-.86,1.19-.68,2.36-1.45,3.9v-.34l-.86,1.53v-.12l-.39,1.4-.19-.15c-.1.31,0,.45-.19.87l-.19-.27a5.92,5.92,0,0,1-.78,2.9l-.19.08-.39,2c-.77.75,0-1.47-.76.41l-.28-.74c-.48,1.38-.87,1.41-1.16,2.37.48-.24.77-.86.76-.29-1.14.67-.71,1.67-1,2.76a1.7,1.7,0,0,0,.31-1.31c.29-.51.38,0,.57-.34l.1-.89h.47l.39-1.4c.38.31.68-1.11.86-.38.29-1,.86-1.3.87-2.32.57-.45-.2,1.09.18.49a89.28,89.28,0,0,1,5.67-10.74v.45c0-.45.1-1,.1-1.34.67-.43,2.39-2.57,2.21-3.74.09-.1.09.13.09.24.58-1.24,2.2-3.17,3.06-4.92-.27-1.09,1.82-2.35,1.26-3.49v.45c-.57.45-.18-1.17-.28-1.53.86-.16.47.21,1.33-.07l-.57.57.57.12c-.08-2.86,2.77-3.74,2.59-5.59,0,.11.1.13.09.24.77-.75.49-1.72.69-2.47.28.06.18.61.18,1.06,1.05-1.48,1.83-4.5,3.17-6,0-.79-.57,0-.47-.78.38-.49.86-.73.66,0,1.43-1.18,2.31-5.2,4.13-7.21.29-1.41-.28-.74.49-2.74,0,.57,1,0,.46,1.12l.19.27c1.06-1.82,2.49-4.25,2.32-5.65.56.23.28-.28.95-.83.09-.31-.1,0-.19.08-.09-.93.57-1,.77-1.54v.22l.39-1.51c.19-.19.47-.46.66-.42l-.38-.2c.39-.72.67-.08,1.05-1l-.38,0c.48-.47.58-1.59,1.06-1.49.09,0,0,.11-.1.32,1.05-.58,1.06-2.39,1.92-3.34l-.76,0c.39-1.17.48-.59.67-.43.38-.72.66-.77,1.24-1.67.1-.55-.09-.36-.19-.61l.67-.88v.8c-.08-2,2.11-3.65,1.83-5.08.48-.46.09.7.38.42,1.34-1.54,1.54-4.22,2.78-5.44,1.72-2.14,2.79-5.1,4.51-7.57l-.19,0,1.15-1.81c-.09-.7.77-1.89.78-2.91.09.14.38.08.38.31a6.22,6.22,0,0,1,1.15-2.14V95a22.85,22.85,0,0,0,2.6-5.25c.29-.63.57-.46.86-.51a8.16,8.16,0,0,0,1-2.75,3.16,3.16,0,0,1,.67-.54l-.19-.61c.29-.4.38.08.67-.2.39-1.85,1.82-3.48,2.4-4.61l-.28,0c.09-.55.86-1.3.76-.64,1.43-2.08,1.16-3.61,2.89-6.55.94,0,1.25-2.81,2.29-2.81.48-1.38,1.24-2,1.25-3.15.1,0,.19-.07.1.13.57-.33,1.24-2.12,1.73-3.5l.28.06c-.28-.74,1.06-2.84.78-3.59.19-.07.09.37.09.6.86-.4.39-1.29,1-2.08.1.14.38,0,.38.2,2.1-2.52,3.37-7.15,5.76-10.62.58-1-.76.07,0-1.25.48-.24.18,1,.76.16,0-.79.19-1,.67-1.79.1.25.28.17.09.82.48-.36.68-2.25,1.63-3-.19,0-.19-.26-.18-.49.29-1.65,2.2-3,2-3.22,0,0,.19-.52-.09-.13.28-.51.76-1.2.95-.94a2.29,2.29,0,0,1,.1-1.11l.19.38a8.35,8.35,0,0,1,.1-.89l-.38.26c.57-.45.58-1.93,1.15-1.58l-.1.21.86-1a2.82,2.82,0,0,1,.49-1.83c.75,0,1.15-1.81,1.72-2.71l.19.15c.1-.89,1.25-2.69,1-2.41.39-.72,1.06-1.6,1-1.14.2-.65.87-1.87.68-2.36l1.14-.89c-.37-1.11,1.54-2.19.78-2.69.48-.58.57-.33,1-.71a6.57,6.57,0,0,1,1.25-2.92l.09,0c.58-.9.77-2.22,1.45-3.56l.75.05c.29-.74-.08-1.16.4-1.74.17-.11.13.06.07.25a5.3,5.3,0,0,1,1.26-1.9c.11-1.23.68-1.9.69-3,1-.48-.39,1.29.47.89a13.81,13.81,0,0,0,2.11-4.55c.19-.07.19.15.28.29s.26-3.95-.63-3.67c-.19-.61-.18-1.18-1.23,0,0,.57-.4,2-1,2l.38.31c-.77,1.88-.94-.32-2.1,1.83l.39-.38c-.2.42-.1.89-.49,1.27-.19.07-.09-.25-.09-.48L905,7.25c-.29-.06-.38-.2-.37-.65-.87,1.63.94.09-.3,2-.38.26-.19-.26-.19-.6-.86.72-.86,1.52-1.15,2.59-.38-.19,0-.79-.66-.14.28,0,.66,0,.37.66-.22-.5-.45.34-.87.88.2-.05.35.09.29.36s-.38.48-.57.9l.76-.52c-.2,1.2-1,1.48-1.63,2.16a.65.65,0,0,1,.05-.42,5.58,5.58,0,0,0-1.58,2.6v-.12c-.68,2.13,1-.25.08,2.18-.48.7-1-1-1.52.93.76-.64.18,1.52-.21,2.57l-.18-1.4c-.22.39-.38,1.18-.58,1.35l.19,0c.66.26-.76,1.21-.77,2.12-.37-1.33-.18-1.29-.93-1.91a4.62,4.62,0,0,1-.69,3.16l-.08-1.38c-1.05,1.59-1.17,4.07-1.37,5.74-.28-.63-.76-.16-.84-1L891.47,31l-.27-.73c.18.94-.58,1.46.17,1.74,0-.23-.09-.25.1-.55.19.15.47.67,0,1.48-.48.46-.09-.48-.37-.43,0,.69-.48.47-.58,1.14l.57-.34c.19.61-.48.93-.58,1.58.19-.75-.16-.66-.54-.54H890c-.19.41-.2,1.09-.58,1.24l-.37-.64.09.81c-.19.19-.48.24-.38-.19-1.33,1.64,1.23.6-.59,2.72-.19-.16-.18-.5.29-1.08-.28-.29-.56-.23-1,.35,0,0,0,0-.06,0A12.3,12.3,0,0,0,885.72,41.39Z"/><path class="cls-1" d="M887.39,37.52a8.26,8.26,0,0,0,.73-1.53C888,36.05,887,37.36,887.39,37.52Z"/><path class="cls-1" d="M834.58,136.2a2.76,2.76,0,0,0,.08-.27A2.76,2.76,0,0,0,834.58,136.2Z"/><path class="cls-1" d="M831.87,141.59a.71.71,0,0,0,.28-.21C832,141.32,831.92,141.34,831.87,141.59Z"/><path class="cls-1" d="M861.24,86.65v0Z"/><path class="cls-1" d="M844.74,116.67c-.07.56,0,.82.11.92A.88.88,0,0,0,844.74,116.67Z"/><path class="cls-1" d="M850.47,106.64a1,1,0,0,0,0-.24C850.44,106.57,850.45,106.62,850.47,106.64Z"/><path class="cls-1" d="M861.82,84.91a11.45,11.45,0,0,1-.58,1.74C861.38,86.16,862,85.41,861.82,84.91Z"/><polygon class="cls-1" points="828.98 148.38 828.98 147.69 828.88 148.36 828.98 148.38"/><path class="cls-1" d="M831.48,143.33c.19-.19.48-1.15.2-1A4.06,4.06,0,0,1,831.48,143.33Z"/><polygon class="cls-1" points="842.03 124.52 841.84 124.14 841.84 124.71 842.03 124.52"/></g><path class="cls-2" d="M193.27,31.14c0,.34,0,.39-.39.39s-1.81-.1-6.47-.1H158.14c-4.65,0-6.22.1-6.46.1s-.4-.05-.4-.39V28.59c0-.35.05-.39.4-.39s1.81.09,6.46.09h28.27c4.66,0,6.23-.09,6.47-.09s.39,0,.39.39Z"/><path class="cls-2" d="M216.16,24.23c.54-.2.59-.2.73.09a40.93,40.93,0,0,1,3.29,8c.1.39,0,.49-.54.69l-1.08.39c-.64.24-.73.2-.83-.2-.2-.63-.35-1.27-.54-1.86l-4.31.44V44.85c0,5.34.09,6.91.09,7.16s0,.34-.39.34h-2.2c-.34,0-.39,0-.39-.34s.09-1.82.09-7.16V32.07c-1.76.14-3.43.24-5,.34a5,5,0,0,0-1.87.44,1.11,1.11,0,0,1-.58.15c-.25,0-.44-.25-.49-.59-.15-.74-.25-1.57-.39-2.7a22,22,0,0,0,3.18.1h.44c1.27-1.66,2.45-3.33,3.63-5a71,71,0,0,0-7.16-7.7c-.29-.29-.24-.34.2-.83l.78-1c.35-.44.44-.49.74-.19.63.63,1.32,1.22,1.91,1.86a52.63,52.63,0,0,0,3.33-5.69A11.38,11.38,0,0,0,210,8.06a19.71,19.71,0,0,1,2.59,1.13c.44.24.54.44.54.63a.64.64,0,0,1-.39.59,2.4,2.4,0,0,0-.88,1,81.72,81.72,0,0,1-4.61,7.3c1.13,1.13,2.21,2.35,3.28,3.62,1.28-2,2.5-4,3.73-6.12A15.88,15.88,0,0,0,215.72,13a25.25,25.25,0,0,1,2.64,1.22.66.66,0,0,1,.45.59c0,.29-.15.39-.45.64a9.25,9.25,0,0,0-1.66,2.2c-2.75,4.36-5.49,8.43-8.23,12,2.54-.1,5.14-.3,8-.54a29.16,29.16,0,0,0-1.76-3.87c-.2-.35-.1-.45.49-.69ZM207.54,37.7a5.87,5.87,0,0,0-.49,1.81,41.46,41.46,0,0,1-2.36,9c-.19.49-.29.69-.49.69s-.34-.15-.68-.4a5.75,5.75,0,0,0-1.62-.83,30.12,30.12,0,0,0,2.55-9,15.79,15.79,0,0,0,.15-3c1.12.19,2.05.39,2.54.53s.69.35.69.54A1.49,1.49,0,0,1,207.54,37.7Zm8.91-1.47c.54-.15.64-.15.79.2a50.34,50.34,0,0,1,2.69,8.82c0,.39,0,.53-.54.73l-1.17.39c-.69.25-.79.2-.84-.24a45,45,0,0,0-2.4-9c-.14-.34-.09-.44.49-.64ZM245.8,25.84c0,.35-.05.4-.39.4s-1.86-.1-6.61-.1h-4A47.13,47.13,0,0,1,229,31.23h7.79c3.48,0,4.9-.09,5.19-.09s.39,0,.39.39-.09,1.56-.09,6.32v4.8c0,7.25.09,8.52.09,8.77s0,.39-.39.39h-2.11c-.34,0-.39-.05-.39-.39V49.66H227v2.1c0,.39-.05.44-.39.44h-2.11c-.34,0-.39-.05-.39-.44,0-.24.1-1.61.1-8.82V34.61l-3.34,2.11a1.54,1.54,0,0,1-.73.29c-.2,0-.39-.14-.69-.58a4.1,4.1,0,0,0-1.37-1.23,60.41,60.41,0,0,0,13.18-9.06h-5.54c-4.85,0-6.41.1-6.71.1s-.39,0-.39-.4v-2c0-.34,0-.39.39-.39s1.86.1,6.71.1h2.55V17.17H226.2c-3.62,0-4.75.1-4.94.1-.35,0-.4-.05-.4-.39V15c0-.35,0-.4.4-.4.19,0,1.32.1,4.94.1h2.06V13.55a22.8,22.8,0,0,0-.34-5.25,25.38,25.38,0,0,1,3,.3c.39.05.59.19.59.39a2,2,0,0,1-.25.93,10.93,10.93,0,0,0-.24,3.43v1.32h.93c3.62,0,4.7-.1,5-.1s.4,0,.4.4v1.91c0,.34-.05.39-.4.39s-1.37-.1-5-.1H231v6.42h2.69a49.25,49.25,0,0,0,6.81-9.85,11.07,11.07,0,0,0,1.18-3,16.5,16.5,0,0,1,2.69,1.13c.3.15.54.39.54.64a.84.84,0,0,1-.39.58,5.32,5.32,0,0,0-1.37,1.67,61.4,61.4,0,0,1-6.08,8.82h1.72c4.75,0,6.37-.1,6.61-.1s.39.05.39.39Zm-6.37,7.84H227V39h12.44Zm0,7.7H227v5.83h12.44Z"/><path class="cls-2" d="M263.89,13.84c.49.29.68.49.68.78a1.37,1.37,0,0,1-.34.84,7.08,7.08,0,0,0-1,2.59A80.43,80.43,0,0,0,261,35a37.3,37.3,0,0,0,.73,8.42c1.18-2.74,2.21-4.85,3.63-8.28a11.53,11.53,0,0,0,1.17,2,.8.8,0,0,1,.25.49,1.62,1.62,0,0,1-.25.79c-1.08,2.5-2.1,4.9-3.13,7.79a2.83,2.83,0,0,0-.2,1.22c0,.44.1.74.1,1.08a.42.42,0,0,1-.34.44,11.69,11.69,0,0,1-2.21.49.62.62,0,0,1-.54-.49c-1.37-3.28-2.2-9.41-2.2-14.21A88.82,88.82,0,0,1,260,18a28.41,28.41,0,0,0,.68-5.44A18.12,18.12,0,0,1,263.89,13.84ZM274,37.16c.24,0,.34.1.34.49.15,3.73,3.14,5.39,8.92,5.39a73.65,73.65,0,0,0,9.65-.68c.39,0,.49,0,.54.49s.15,1.61.15,2.3c0,.44,0,.49-.64.59a73.88,73.88,0,0,1-8.77.54c-5.49,0-8.62-.79-10.78-3.09a8.07,8.07,0,0,1-2.06-5.83Zm-.88-18.22c0-.45.09-.59.58-.69a81.06,81.06,0,0,1,10.39-.88c2.84,0,5.64.1,7,.24.64.05.73.1.73.49,0,.79,0,1.57-.05,2.31,0,.39-.09.49-.53.44-1.92-.2-5.1-.25-7.89-.25a61.61,61.61,0,0,0-10.24,1C273.1,20.31,273.1,19.52,273.15,18.94Z"/><path class="cls-2" d="M347.13,19.92c0,.44-.14.49-.63.49-5.25-.15-10.05-.2-15.58,0,0,3.08,0,6.46.05,9.75a20.94,20.94,0,0,1,.58,5.14c0,6.17-2.64,11.42-9.55,15.14a2.6,2.6,0,0,1-1.13.44,1.44,1.44,0,0,1-.88-.39,7.24,7.24,0,0,0-2.25-1.37c7-2.89,10.24-7.4,10.68-12.35A6.07,6.07,0,0,1,323,39.56c-3.38,0-6.47-2.25-6.47-6.91a6.57,6.57,0,0,1,6.71-6.81,6.19,6.19,0,0,1,4.61,1.67c-.05-2.4-.05-4.61-.1-6.91-7,.39-13.62.88-18.27,1.47-1.18.15-1.77.49-2.16.49a.58.58,0,0,1-.59-.49,16,16,0,0,1-.78-3.13,44.47,44.47,0,0,0,6.17-.3c4-.29,9-.64,15.53-1-.05-2-.05-3-.1-4.55a12.37,12.37,0,0,0-.49-3.29,25.83,25.83,0,0,1,3.73.54c.54.15.88.39.88.74a1.88,1.88,0,0,1-.34.88,2.79,2.79,0,0,0-.35,1.32c-.09,1.08-.09,2-.09,4.17,5.44-.15,10.24-.15,15.68-.15.44,0,.53.05.53.54ZM319.45,32.56a3.88,3.88,0,0,0,4,4.21,4.32,4.32,0,0,0,4.46-4.31,4.1,4.1,0,0,0-4.36-4.17A4,4,0,0,0,319.45,32.56Z"/><path class="cls-2" d="M361,31.09c2.45-2.06,5.53-4.76,8.81-7.75,1.47-1.42,2.5-1.81,3.63-1.81,1.52,0,2.3.54,3.63,1.62,3.92,3.13,7.35,6,11.36,8.92a103.2,103.2,0,0,0,10.78,6.76c.34.19.44.39.34.63a15.35,15.35,0,0,1-1.42,2.7.51.51,0,0,1-.83.15c-2.84-1.77-7.05-4.56-10.39-7.06-3.67-2.74-7.35-5.88-10.92-8.87a4,4,0,0,0-2.5-1.37c-.69,0-1.27.44-2.11,1.23-2.89,2.74-6.47,6.12-8.87,8.37a15.58,15.58,0,0,0-1.61,1.77.65.65,0,0,1-1.13.1,24.84,24.84,0,0,1-2.55-3.09A12.71,12.71,0,0,0,361,31.09Zm26.26-14.16a.37.37,0,0,1,.49.05,23.76,23.76,0,0,1,5.53,5.92.35.35,0,0,1-.09.54l-1.43,1.18a.39.39,0,0,1-.63-.1,21.12,21.12,0,0,0-5.69-6.27Zm4.06-3.19c.2-.15.35-.19.54-.05a28.17,28.17,0,0,1,5.59,5.74c.14.24.1.39-.15.58l-1.32,1.18c-.2.19-.39.19-.59-.1A23.24,23.24,0,0,0,389.72,15Z"/><path class="cls-2" d="M435.78,18.25c-7.35,1.18-13.72,2.2-19.9,3.48a10.69,10.69,0,0,0-2.94.83,2.58,2.58,0,0,1-.93.34.81.81,0,0,1-.68-.44A26.61,26.61,0,0,1,410,19,38.23,38.23,0,0,0,416,18.4c7.3-1.18,17.25-2.65,30.38-4.27.49-.05.73.1.83.4a13.56,13.56,0,0,1,.3,2.45c0,.44-.15.53-.64.58A20.35,20.35,0,0,0,439.74,19c-7.15,2.85-12.64,8.87-12.64,15.44,0,8.13,7.11,10.53,14.26,11.12.64,0,.79.15.79.54a14.4,14.4,0,0,1-.3,2.35c-.1.54-.24.73-.78.69-8.28-.74-17.2-4.27-17.2-14.16,0-6.91,4.26-12.6,12-16.66Z"/><path class="cls-2" d="M482.87,18c-.89,8.28-3.38,16.41-6.47,21.41-2.11,3.57-4.31,5-7.2,5-3.68,0-7.16-4-7.16-11.12a17.78,17.78,0,0,1,5.69-12.69,20.88,20.88,0,0,1,14.7-5.44c11,0,17.49,6.42,17.49,15.78,0,8-4.95,14.4-15.58,17.1a1,1,0,0,1-1.28-.54,5.67,5.67,0,0,0-1.91-1.81c9.7-1.91,15.29-7.16,15.29-15.34C496.44,23.1,490.8,18,483.8,18Zm-13,4.7a15.19,15.19,0,0,0-4.7,10.58c0,5.34,2.2,7.65,4,7.65s3.13-1.08,4.55-3.58a52.09,52.09,0,0,0,5.74-19.16A16.51,16.51,0,0,0,469.88,22.66Z"/><path class="cls-2" d="M553.42,23.15c0,.34,0,.39-.39.39s-1.81-.1-6.47-.1h-2c-1.28,6.37-3.53,11.76-7.11,16.17,4.46,2.45,9,5.29,13.87,8.58.19.14.29.29-.1.78L550,50.34c-.49.64-.58.64-.93.39a151.85,151.85,0,0,0-13.77-8.86c-4.8,4.7-11.46,7.93-20.67,9.4-.93.1-1,.15-1.42-.83a5.8,5.8,0,0,0-1.42-2c9.11-1,15.82-3.82,20.58-8.18a107.5,107.5,0,0,0-10.78-4.85c-.54.88-1.18,1.86-1.82,2.74-.29.39-.39.34-.93.1l-1.52-.64c-.63-.29-.73-.54-.44-.88a48.88,48.88,0,0,0,3.19-4.7,87,87,0,0,0,4.21-8.58H518.1c-4.66,0-6.22.1-6.47.1s-.39-.05-.39-.39V20.94c0-.39.05-.44.39-.44s1.81.1,6.47.1h7.4c1-2.5,1.86-5.05,2.59-7.45a17.81,17.81,0,0,0,.64-3.82,27.88,27.88,0,0,1,3.18.59c.45.15.64.34.64.59s-.14.44-.39.78a7.47,7.47,0,0,0-.88,2.11q-1.18,3.75-2.5,7.2h17.78c4.66,0,6.18-.1,6.47-.1s.39.05.39.44Zm-25.77.29a92.15,92.15,0,0,1-4.6,9.51,114.86,114.86,0,0,1,11.46,5.14,32.35,32.35,0,0,0,6.71-14.65Z"/><path class="cls-2" d="M565.73,19c.54.15.58.2.54.54a36.23,36.23,0,0,1-2.16,10.05c-.1.24-.2.29-.69.09l-1.22-.44c-.59-.19-.79-.19-.54-.78a31.44,31.44,0,0,0,2.06-9.65c0-.35.1-.39.73-.2Zm2.5-4.16a32,32,0,0,0-.4-6.66,20,20,0,0,1,3.24.24c.34.05.59.2.59.39a4,4,0,0,1-.2.88c-.2.54-.34,1.77-.34,5V43.24c0,5.83.09,8.38.09,8.62s0,.39-.39.39h-2.3c-.34,0-.39,0-.39-.39s.1-2.79.1-8.57Zm5.83,2.84c.39-.15.58-.15.68.15a52.57,52.57,0,0,1,2,6.71c.1.34,0,.44-.49.64l-1.08.44c-.63.24-.78.24-.83-.15a43,43,0,0,0-1.76-6.76c-.15-.34-.1-.39.54-.64Zm32,32.14c0,.39-.05.44-.39.44s-1.91-.1-6.86-.1H582.53c-5,0-6.61.1-6.86.1s-.39,0-.39-.44V47.79c0-.34.05-.39.39-.39s1.86.1,6.86.1h7.11V35.59h-3.73c-4.55,0-6,.1-6.32.1s-.39,0-.39-.39v-2c0-.34,0-.39.39-.39s1.77.1,6.32.1h3.73V22.56H581.9a47.19,47.19,0,0,1-3.48,7c-.3.44-.4.63-.59.63a1.32,1.32,0,0,1-.64-.29,6.42,6.42,0,0,0-2-.78,41,41,0,0,0,6.18-14.56A20,20,0,0,0,581.6,12a17.05,17.05,0,0,1,2.89.78c.49.2.59.34.59.54a1,1,0,0,1-.29.64,3.54,3.54,0,0,0-.59,1.42c-.34,1.37-.79,2.94-1.37,4.6h6.81V14.87a37.27,37.27,0,0,0-.4-6.71,26.83,26.83,0,0,1,3.24.29c.34.05.59.2.59.39a3.49,3.49,0,0,1-.2.88,21.88,21.88,0,0,0-.34,5V20h5.19c4.51,0,6-.09,6.27-.09s.39.05.39.39v2c0,.34,0,.39-.39.39s-1.76-.1-6.27-.1h-5.19V33h3.67c4.56,0,6-.1,6.27-.1s.4.05.4.39v2c0,.34,0,.39-.4.39s-1.71-.1-6.27-.1h-3.67V47.5h6.32c4.95,0,6.61-.1,6.86-.1s.39.05.39.39Z"/><path class="cls-2" d="M638.59,17.66c.39-.1.54,0,.59.34.09.59.19,1.43.24,2s0,.64-.49.74a81.51,81.51,0,0,1-8.87,2,223.65,223.65,0,0,1-9.4,26.41c-.2.44-.4.44-.74.29s-1.67-.74-2.3-1.08a.48.48,0,0,1-.2-.64,151.23,151.23,0,0,0,9.16-24.44c-3.18.34-6.56.53-9.89.58-.59,0-.69-.05-.79-.49-.1-.68-.24-1.71-.39-2.69a28,28,0,0,0,3.09.1,77.85,77.85,0,0,0,8.82-.59c.68-2.6,1.07-4.36,1.42-6.17a19.92,19.92,0,0,0,.39-4.61,20,20,0,0,1,3.92,1.13.58.58,0,0,1,.39.54,1.33,1.33,0,0,1-.39.78,4.52,4.52,0,0,0-.79,1.91c-.58,2-1,4-1.56,5.88A59.5,59.5,0,0,0,638.59,17.66ZM636.14,40.1c.39,0,.49.1.54.49.34,4.41,3.08,5.88,9.26,5.88a51.59,51.59,0,0,0,7.25-.64c.39,0,.54,0,.59.35a18.8,18.8,0,0,1,.19,2.35c0,.49-.15.59-.54.64a45.21,45.21,0,0,1-6.42.49c-5.29,0-8.57-.69-10.77-2.7-1.72-1.47-2.36-3.67-2.41-6.61A15.26,15.26,0,0,1,636.14,40.1Zm1.22-12.59c0-.44.1-.59.64-.74a39.44,39.44,0,0,1,8.57-1,48.26,48.26,0,0,1,6.08.49c.59.09.69.24.73.53a15,15,0,0,1,0,2.16c0,.59-.19.74-.63.64a38.51,38.51,0,0,0-6.28-.54,42.6,42.6,0,0,0-9,1.08C637.41,29.27,637.36,28.1,637.36,27.51Z"/><path class="cls-2" d="M679.5,14.18a12.73,12.73,0,0,0-.09-4.36,14.06,14.06,0,0,1,4,.84c.35.14.54.34.54.63a1.21,1.21,0,0,1-.29.69,4.18,4.18,0,0,0-.64,1.61c-.34,1.92-.49,3.14-.78,5.2a88,88,0,0,0,10.53-2.06c.44-.15.59-.1.64.34a14.51,14.51,0,0,1,.2,2.11c0,.39-.1.49-.49.59-3.88.88-7.6,1.52-11.47,2.06-.73,4.85-1.57,9.11-2.69,13.67a20.31,20.31,0,0,1,14.84-6.72c6.91,0,10.39,4.12,10.39,8.77,0,3.92-1.77,7-5.83,9.31-2.94,1.62-7.16,2.75-12.4,3.43a12.6,12.6,0,0,1-2.4.25c-.34,0-.54-.15-.78-.69a5.27,5.27,0,0,0-1.67-2.15c6.76-.44,10.58-1.33,14.46-3.09,3.33-1.57,5-3.92,5-7.15,0-3.68-2.6-5.88-7.1-5.88a18,18,0,0,0-13.87,6.86c-.44.58-.83,1.12-1.13,1.61s-.44.64-.83.59a10.44,10.44,0,0,1-2.15-.69c-.45-.19-.64-.39-.64-.68a4.21,4.21,0,0,1,.19-.83c.25-.79.4-1.38.54-1.87,1.13-4.46,2-9,2.89-14.4-2.94.29-6.61.49-9.7.54-.44,0-.58-.15-.68-.54a22.37,22.37,0,0,1-.39-2.5,96.77,96.77,0,0,0,11.22-.49C679.16,17.61,679.31,16.34,679.5,14.18Z"/><path class="cls-2" d="M740.12,18c-.89,8.28-3.38,16.41-6.47,21.41-2.11,3.57-4.31,5-7.2,5-3.68,0-7.16-4-7.16-11.12A17.78,17.78,0,0,1,725,20.6a20.88,20.88,0,0,1,14.7-5.44c11,0,17.49,6.42,17.49,15.78,0,8-4.95,14.4-15.58,17.1a1,1,0,0,1-1.28-.54,5.67,5.67,0,0,0-1.91-1.81c9.7-1.91,15.29-7.16,15.29-15.34,0-7.25-5.64-12.39-12.64-12.39Zm-13,4.7a15.19,15.19,0,0,0-4.7,10.58c0,5.34,2.2,7.65,4,7.65s3.13-1.08,4.55-3.58a52.09,52.09,0,0,0,5.74-19.16A16.51,16.51,0,0,0,727.13,22.66Z"/><path class="cls-2" d="M136.49,94.79a15.59,15.59,0,0,0,1.56-5.53,19,19,0,0,1,3.87,1.62c.69.39.54.93.1,1.37A8.2,8.2,0,0,0,140.31,95a50.61,50.61,0,0,1-11.08,16.12,1.05,1.05,0,0,1-1.51.2,6.66,6.66,0,0,0-2.7-1.28A41.77,41.77,0,0,0,136.49,94.79Zm16-5c.44-.25.64-.3,1,.1a64.76,64.76,0,0,1,12.25,17.59c.24.44.24.73-.2,1a16.36,16.36,0,0,1-2.3,1.52c-.44.25-.59.15-.79-.29A62.18,62.18,0,0,0,150.3,91.22C151.14,90.63,152,90,152.46,89.75ZM168,86.42a4.95,4.95,0,1,1-5-5A4.93,4.93,0,0,1,168,86.42Zm-8,0A3.09,3.09,0,1,0,163,83.33,3.08,3.08,0,0,0,160,86.42Z"/><path class="cls-2" d="M186.56,93.57c0,2.2,0,4.07.05,5.78,0,.49-.05.64-.58.64h-2.46c-.48,0-.63-.1-.63-.54.1-1.76.19-3.53.19-5.88V89.45c0-2.2,0-3.62-.19-5.58,0-.3.15-.39.49-.39,2.06.09,4.36.14,7,.14h17.45c2.05,0,2.64-.09,3-.39a1,1,0,0,1,1.13,0,12.6,12.6,0,0,1,2.16,1.91.86.86,0,0,1-.1,1.32,5.72,5.72,0,0,0-.83,2.31,66.67,66.67,0,0,1-5.74,15.23,47.16,47.16,0,0,1-11.66,14.36,1.08,1.08,0,0,1-1.42.15,6.66,6.66,0,0,0-2.74-1.13,43.77,43.77,0,0,0,12.69-14.8,56.13,56.13,0,0,0,5.53-16H186.56Z"/><path class="cls-2" d="M238.7,101.46a40,40,0,0,0-6.61.49c-.45,0-.69-.2-.84-.69a30.38,30.38,0,0,1-.49-3.72,89.93,89.93,0,0,0,10.83.44h15c3.38,0,7,0,10.73-.15.59,0,.74,0,.74.59a21.69,21.69,0,0,1,0,2.55c0,.54-.15.64-.74.59-3.67-.1-7.3-.1-10.58-.1Z"/><path class="cls-2" d="M307.79,85c1.66,0,2.2,0,2.79-.4a.86.86,0,0,1,1,.15,12.73,12.73,0,0,1,2,2c.29.39.2.73-.25,1.13a6.47,6.47,0,0,0-1.42,1.81,88,88,0,0,1-7.25,10.53,100.25,100.25,0,0,1,14.06,12.3c.45.39.45.54.05,1a19.49,19.49,0,0,1-1.76,1.76c-.34.3-.54.3-.88-.09a89.31,89.31,0,0,0-13.53-12.45,74.71,74.71,0,0,1-17.49,13.67c-.54.29-.83.34-1.22-.1a8.52,8.52,0,0,0-2.55-1.76,63.34,63.34,0,0,0,18-13.28,61.34,61.34,0,0,0,9.31-13.13H293.92c-2.74,0-4.85.15-7.05.29-.44,0-.49-.14-.59-.53A18.78,18.78,0,0,1,286,84.8c2.4.2,4.55.2,7.59.2Z"/><path class="cls-2" d="M342.14,101c.78.49.64.78.05,1.37a6.7,6.7,0,0,0-1.33,1.91,41.34,41.34,0,0,1-5,7.55c-.44.49-.74.63-1.33.29A8.36,8.36,0,0,0,332,111a29.09,29.09,0,0,0,5.78-8,11.92,11.92,0,0,0,1.13-3.58A15.56,15.56,0,0,1,342.14,101Zm8.52-13.43a31.06,31.06,0,0,0-.54-6.76,24.92,24.92,0,0,1,4.07.54c.69.2.79.74.39,1.37s-.49,2.21-.49,5.1v3h6.37c3.53,0,7.16-.1,10.05-.25.44,0,.58.15.58.59,0,.69,0,1.52,0,2.2,0,.49-.1.69-.59.69-3.19-.15-7-.2-10.14-.2h-6.23v8.53c0,4.16.15,7.4.15,10.53,0,2.11-.73,3.68-2.45,4.51a16,16,0,0,1-5.63,1.42.74.74,0,0,1-.84-.59,6.61,6.61,0,0,0-2.05-2.74,17.89,17.89,0,0,0,6.07-.88c1-.39,1.32-1,1.32-2.84V93.81h-7.84c-2.74,0-5.78.15-8.37.35-.44,0-.59-.2-.64-.69s-.2-2.11-.2-3c3.48.3,6.42.35,9.12.35h7.93Zm13,12.4c.34-.25.58-.15.93.15a35.79,35.79,0,0,1,6.86,8.86c.29.54.19.74-.2,1.13a14,14,0,0,1-1.86,1.42c-.39.25-.64.25-.83-.19a36.36,36.36,0,0,0-7.06-9.8C362.32,100.92,363,100.43,363.7,99.94Zm9.5-17A4.95,4.95,0,1,1,368.25,78,4.94,4.94,0,0,1,373.2,83Zm-8,0a3.09,3.09,0,1,0,3.08-3.09A3.07,3.07,0,0,0,365.17,83Z"/><path class="cls-2" d="M391.68,93.67c.39-.2.59-.1.88.24a27.89,27.89,0,0,1,4,6.86c.19.49.19.59-.25.88a10.17,10.17,0,0,1-1.86.89c-.44.19-.64,0-.78-.4a31,31,0,0,0-4.22-7.3C390.35,94.35,391.09,94,391.68,93.67Zm26.16,0a.68.68,0,0,1,.05,1.17,7.07,7.07,0,0,0-1.42,2.35,58.7,58.7,0,0,1-7.2,12.65,39.71,39.71,0,0,1-9.9,9.3.81.81,0,0,1-1.08,0,6.18,6.18,0,0,0-2.55-1.22,40.76,40.76,0,0,0,11-9.75,46.86,46.86,0,0,0,6.66-12,18,18,0,0,0,.84-4A12.85,12.85,0,0,1,417.84,93.72Zm-16.56-2.31a.59.59,0,0,1,.83.3,29.63,29.63,0,0,1,3.68,6.81c.15.39,0,.59-.34.78a17.3,17.3,0,0,1-2,.93c-.35.15-.49,0-.69-.44A29.35,29.35,0,0,0,399,92.54C400.06,92,400.69,91.66,401.28,91.41Z"/><path class="cls-2" d="M452.88,93.72a68.91,68.91,0,0,1,16,6.81c.39.19.49.44.34.78a15.81,15.81,0,0,1-1.17,2.4c-.3.39-.49.49-.93.2a54.58,54.58,0,0,0-14.26-6.57v11.37c0,3,.1,6.81.15,10,0,.49-.1.64-.64.64a20.85,20.85,0,0,1-2.5,0c-.54,0-.69-.15-.69-.68.15-3.14.2-7,.2-10V86.91a41.61,41.61,0,0,0-.54-7.84,20,20,0,0,1,4.07.63c.78.2.59.74.34,1.47s-.34,2.31-.34,5.44Z"/><path class="cls-2" d="M495.41,82.84c.49.29.69.49.69.78a1.33,1.33,0,0,1-.35.84,7.27,7.27,0,0,0-1,2.59,80.43,80.43,0,0,0-2.3,16.91,37.23,37.23,0,0,0,.74,8.42c1.17-2.74,2.2-4.85,3.62-8.28a11.54,11.54,0,0,0,1.18,2,.83.83,0,0,1,.24.49,1.72,1.72,0,0,1-.24.79c-1.08,2.5-2.11,4.9-3.14,7.79a2.84,2.84,0,0,0-.19,1.22c0,.44.09.74.09,1.08a.41.41,0,0,1-.34.44,11.76,11.76,0,0,1-2.2.49.6.6,0,0,1-.54-.49c-1.37-3.28-2.21-9.41-2.21-14.21a88.82,88.82,0,0,1,2-16.7,28.53,28.53,0,0,0,.69-5.44A18.29,18.29,0,0,1,495.41,82.84Zm10.14,23.32c.25,0,.35.1.35.49.14,3.73,3.13,5.39,8.91,5.39a73.81,73.81,0,0,0,9.66-.68c.39,0,.49,0,.53.49s.15,1.61.15,2.3c0,.44,0,.49-.64.59a73.88,73.88,0,0,1-8.77.54c-5.48,0-8.62-.79-10.77-3.09a8,8,0,0,1-2.06-5.83Zm-.88-18.22c0-.45.1-.59.59-.69a81.06,81.06,0,0,1,10.39-.88c2.84,0,5.63.1,7,.24.64,0,.74.1.74.49,0,.79,0,1.57-.05,2.31,0,.39-.1.49-.54.44-1.91-.2-5.09-.25-7.89-.25a61.71,61.71,0,0,0-10.24,1C504.62,89.31,504.62,88.52,504.67,87.94Z"/><path class="cls-2" d="M559.94,86.61c.44-.1.59,0,.64.3.1.58.2,1.47.24,2.1,0,.44,0,.54-.44.59-2.64.54-5.29,1-8.18,1.42a118.05,118.05,0,0,1-9.85,20.68c-.24.39-.49.34-.78.15a11.6,11.6,0,0,1-2-1.47c-.29-.25-.29-.45-.05-.84a85.75,85.75,0,0,0,9.21-18.22c-2.11.19-4.07.34-6.17.34-.74,0-1.47,0-2.6-.1-.44,0-.49-.1-.59-.59a16.18,16.18,0,0,1-.29-2.45c1.57.15,2.84.2,3.87.2a64.3,64.3,0,0,0,6.66-.39c.59-1.86,1-3.68,1.47-5.74a14.6,14.6,0,0,0,.4-3.82,21.09,21.09,0,0,1,3.82,1,.57.57,0,0,1,.44.54,1,1,0,0,1-.39.74,4.15,4.15,0,0,0-.69,1.52c-.54,1.76-1.08,3.57-1.57,5.29A68.22,68.22,0,0,0,559.94,86.61Zm3,11.86a15.63,15.63,0,0,0-.29-3.14A15.88,15.88,0,0,1,566,96c.34.1.54.29.54.59a2.52,2.52,0,0,1-.3.88,7.77,7.77,0,0,0-.19,2.3,81,81,0,0,0,.59,9,42.67,42.67,0,0,1,9.26,4.9c.39.24.34.39.19.78a15.27,15.27,0,0,1-1.17,2.16c-.25.34-.49.29-.79.05a29.76,29.76,0,0,0-7.44-4.66c0,5-2.45,7.65-8.78,7.65-3.72,0-7.59-1.92-7.59-6,0-3.68,3.53-6.18,8.33-6.18a24.54,24.54,0,0,1,4.9.59C563.23,105,563,101.11,562.93,98.47Zm-4.16,11.71c-3.92,0-5.69,1.52-5.69,3.33,0,2.25,1.82,3.28,5,3.28,4,0,5.49-2.1,5.49-4.6a6.59,6.59,0,0,0,0-1.18A16.24,16.24,0,0,0,558.77,110.18Zm8.33-22c.24-.39.39-.44.83-.29a34.41,34.41,0,0,1,9.6,4.6c.35.29.35.49.1.88a11.77,11.77,0,0,1-1.13,2c-.24.35-.39.3-.68.1a32.93,32.93,0,0,0-10-5C566.31,89.65,566.7,88.82,567.1,88.23Z"/><path class="cls-2" d="M603.41,99.5A19.11,19.11,0,0,1,613.94,96c7.06,0,11.42,4.36,11.42,10.73,0,7.3-5.79,12.59-16.17,12.59-5.88,0-8.53-2.64-8.53-5.78,0-2.55,2.26-5,5.73-5,4.41,0,7.4,2.84,8.33,7,4.22-1.37,7.16-4.12,7.16-8.92,0-5-3.82-8-8.48-8-4.85,0-9.7,2.49-13.47,5.53a47.55,47.55,0,0,0-4.31,4c-.4.39-.64.44-1,.1a22.24,22.24,0,0,1-1.82-2c-.19-.25-.14-.44.2-.74a133.72,133.72,0,0,0,11.07-10.92c2.84-3.09,5.78-6.22,9.56-10.68-4.07.63-7.89,1.37-12.25,2.2a8.45,8.45,0,0,0-1.72.44,2.82,2.82,0,0,1-.93.25.86.86,0,0,1-.78-.59,15.33,15.33,0,0,1-1.18-3.38,19,19,0,0,0,4.31,0c3.87-.39,7.89-.93,12.2-1.77a4.75,4.75,0,0,0,1.52-.44,1.59,1.59,0,0,1,.69-.34,1.49,1.49,0,0,1,.88.39,12.22,12.22,0,0,1,2.11,2.06,1.34,1.34,0,0,1,.34.83,1,1,0,0,1-.74.93,5.39,5.39,0,0,0-2.3,1.72c-4.36,4.6-7.64,8-12.54,13Zm3.08,11.71c-1.56,0-3,.78-3,2.3s1.77,3,5,3a18.4,18.4,0,0,0,3.19-.24C611.1,113.46,609.29,111.21,606.49,111.21Z"/><path class="cls-2" d="M650.1,102.93c.3.14.35.34.15.64a7.67,7.67,0,0,0-1.32,3.82c0,4,4.51,6,12.54,6a60.48,60.48,0,0,0,14.06-1.42c.44-.09.59,0,.69.35a24.46,24.46,0,0,1,.44,2.54c.05.4-.15.54-.64.64a70.31,70.31,0,0,1-14.84,1.27c-9.51,0-15.24-2.89-15.24-9.21a10.19,10.19,0,0,1,2-5.78C648.63,102.09,649.42,102.54,650.1,102.93ZM661.57,84.6c3.53,0,7.45-.14,10.83-.44.44,0,.63.1.68.44a14,14,0,0,1,.15,2.21c0,.54-.2.68-.69.73-4.11.59-8.62,2.84-12.69,5.59a1.12,1.12,0,0,1-1.37.1,5.39,5.39,0,0,0-2-1,63.41,63.41,0,0,1,8.43-4.9c-1.62.14-3.77.19-5.29.19a50.88,50.88,0,0,1-10-.88c-.29,0-.44-.19-.44-.68,0-.64,0-1.67.1-2.5A58.6,58.6,0,0,0,661.57,84.6Z"/><path class="cls-2" d="M708.22,80a.71.71,0,0,1,.59.64c0,.49-.25.93-.25,1.71.05,1.08.15,2.06.29,3.14a66.94,66.94,0,0,0,1.91,9.89c2.9-1.42,5.84-2.79,8.73-4.41a8,8,0,0,0,2.84-2.25,21.07,21.07,0,0,1,2.5,2.74c.39.59.29,1.28-.59,1.38a18.47,18.47,0,0,0-4.31,1.56c-3.58,1.67-7.79,3.68-11.12,5.59-4.95,2.89-7.26,5.44-7.26,8.87,0,4.36,4.12,5.44,11.52,5.39a94.26,94.26,0,0,0,12.59-1c.44,0,.59,0,.69.44a22.84,22.84,0,0,1,.29,2.55c.05.44-.15.63-.69.68a109,109,0,0,1-13,.69c-8.48,0-14.6-1.86-14.6-8.58,0-4.7,3.33-8.32,9.55-12.1a88.46,88.46,0,0,1-2.59-12.54,18.18,18.18,0,0,0-1.08-4.8A22,22,0,0,1,708.22,80Z"/><path class="cls-2" d="M768.29,110.77c0,.39-.1.54-.54.59a14.5,14.5,0,0,1-2.11.19c-.29,0-.44-.24-.44-.59,0-2.15,0-4.55,0-7-5.39,2.69-8,5.19-8,8.13s2.69,4.07,8.38,4.07a86.39,86.39,0,0,0,11.66-1,.41.41,0,0,1,.54.34,14.8,14.8,0,0,1,.29,2.4c0,.44-.2.64-.39.69a97.14,97.14,0,0,1-12.1.68c-6.86,0-11.32-1.76-11.32-7,0-4.12,2.69-7.45,10.83-11.42-.1-3.33-1.23-4.65-4.12-4.6-2.11,0-4.9,1.27-8,4-1.76,1.67-2.94,2.94-4.65,4.76-.29.34-.49.34-.73.09a14.84,14.84,0,0,1-1.72-1.91c-.15-.29-.2-.39.1-.68a54.07,54.07,0,0,0,11.37-13.62c-3,.19-6,.19-9.12.1-.39,0-.49-.15-.54-.49-.09-.59-.24-1.67-.29-2.45a100.63,100.63,0,0,0,11.37,0A45.22,45.22,0,0,0,760.5,81a7.47,7.47,0,0,0,.39-2.65,16.36,16.36,0,0,1,3.68,1.08.6.6,0,0,1,.09,1.08,4.57,4.57,0,0,0-.88,1.37c-.59,1.22-1,2.25-1.66,3.72A92.77,92.77,0,0,0,772.45,84c.4-.1.5-.1.59.19.1.69.25,1.37.3,2.16,0,.34-.1.49-.64.59-3.87.68-8,1.22-12,1.61a41,41,0,0,1-5,7.3l0,.1a10.6,10.6,0,0,1,6.12-2.11c3.63,0,5.78,1.91,6.17,5.74,2.41-1.08,5.2-2.36,7.65-3.53a13.49,13.49,0,0,0,3.72-2.5,11.56,11.56,0,0,1,2.4,2.84c.39.74,0,1-.49,1.13a14.27,14.27,0,0,0-2.69.78c-3.73,1.57-6.81,2.7-10.39,4.22Z"/><path class="cls-2" d="M290.25,171.73c0,14.51.09,17.1.09,17.35s0,.39-.39.39h-2.4c-.34,0-.39-.05-.39-.39v-3h-24v3.18c0,.35,0,.4-.44.4h-2.35c-.35,0-.39-.05-.39-.4s.09-2.89.09-17.39v-9.65c0-9.65-.09-12.35-.09-12.64s0-.4.39-.4,2,.1,6.86.1H283c4.9,0,6.62-.1,6.91-.1s.39.05.39.4-.09,2.94-.09,11.31ZM287.16,152h-24v8.18h24Zm0,10.92h-24v8.48h24Zm0,11.22h-24v9.07h24Z"/><path class="cls-2" d="M315.38,168.5c2.06-.88,4.22-1.81,6.13-2.79-.05.53-.1,1.27-.1,2,0,.94,0,1-.93,1.43-1.57.73-3.28,1.51-5.1,2.3v6.17c0,2.7.05,5.59.05,7.45,0,2.25-.34,3.13-1.27,3.82s-1.91.88-5.14.88c-1,0-1.13,0-1.38-1a6.09,6.09,0,0,0-1-2.1c1.23.09,2.45.14,4.07.14,1.37,0,1.81-.49,1.81-2.2v-12c-1.17.44-2.35.89-3.52,1.28a5.08,5.08,0,0,0-1.82.93,1,1,0,0,1-.63.29c-.2,0-.4-.1-.54-.44a24,24,0,0,1-.93-2.79,29.79,29.79,0,0,0,4.31-1.18c.93-.29,2-.68,3.13-1.12V158.94h-1.71c-3.53,0-4.61.1-4.9.1s-.39,0-.39-.39v-2.11c0-.34,0-.39.39-.39s1.37.1,4.9.1h1.71v-3.92a33,33,0,0,0-.29-6,25.91,25.91,0,0,1,3.09.3c.39,0,.58.24.58.44a2.23,2.23,0,0,1-.29.93c-.2.54-.25,1.42-.25,4.26v4h.74c3.58,0,4.61-.1,4.9-.1s.39,0,.39.39v2.11c0,.34-.05.39-.39.39s-1.32-.1-4.9-.1h-.74Zm11.67-9.36a2,2,0,0,0,1.71,2.16,38.23,38.23,0,0,0,7,.39c3.82,0,6.81-.2,7.84-.88s1.32-1.91,1.47-4.81a5.56,5.56,0,0,0,1.91,1.08c.88.35.93.39.83,1.28-.34,2.84-1,4-2.25,4.85-1.57,1-5.15,1.17-10,1.17-5.44,0-7.35-.1-8.67-.54a3.4,3.4,0,0,1-2.74-3.67v-8.58a33.6,33.6,0,0,0-.25-5c1.08.05,2.11.19,3,.29.44.05.68.25.68.44a2,2,0,0,1-.29.88c-.2.45-.24.79-.24,3.24v2.25a92.35,92.35,0,0,0,12.64-3.43,8.78,8.78,0,0,0,3-1.66,13.69,13.69,0,0,1,1.91,1.91.93.93,0,0,1,.29.68c0,.35-.29.49-1,.59a15.71,15.71,0,0,0-2.06.69,94.55,94.55,0,0,1-14.79,3.77ZM345,180c0,7.94.1,9.21.1,9.51s-.05.34-.4.34h-2.2c-.34,0-.39-.05-.39-.34v-2.65H327.54v2.84c0,.35-.05.4-.4.4H325c-.34,0-.39-.05-.39-.4s.09-1.56.09-9.55v-4.95c0-5-.09-6.32-.09-6.61s0-.4.39-.4,1.71.1,5.88.1h8c4.17,0,5.59-.1,5.83-.1s.4.05.4.4-.1,1.66-.1,5.92Zm-2.89-9.11H327.54v5.29h14.55Zm0,7.79H327.54v5.59h14.55Z"/><path class="cls-2" d="M371.24,149.59c.54.14.79.39.79.73a3.86,3.86,0,0,1-.39,1.27,26.94,26.94,0,0,0-.59,5c-.44,7.4-.74,14.11-.74,20.87,0,5.49,1.52,7.16,5.78,7.16,6.23,0,12.6-3.78,17.64-9.36a11.33,11.33,0,0,0,.84,2.84,2.69,2.69,0,0,1,.19.69c0,.29-.14.54-.59.93C389,184.72,382.51,188,375.51,188c-5.54,0-8.53-2.65-8.53-9.85,0-7,.44-14.94.69-21.85a27.26,27.26,0,0,0-.39-7.4A19.08,19.08,0,0,1,371.24,149.59Z"/><path class="cls-2" d="M428.33,169.48a93.51,93.51,0,0,1-11.27-.15c-.39,0-.49-.15-.54-.59a20.23,20.23,0,0,1-.15-2.5,72.83,72.83,0,0,0,11.86.35c0-2.4-.05-5-.05-7.3a94.54,94.54,0,0,1-13-.25c-.3,0-.39-.14-.44-.49a17,17,0,0,1-.2-2.55,83.61,83.61,0,0,0,13.62.4c0-2-.05-3.38-.05-5.2a11.49,11.49,0,0,0-.44-3.23,19.42,19.42,0,0,1,3.87.64.75.75,0,0,1,.44,1.12,4.56,4.56,0,0,0-.58,2.26c-.1,1.56-.1,2.64-.15,4.31a112.72,112.72,0,0,0,12-1.62c.4-.1.49,0,.54.34a18.11,18.11,0,0,1,.15,2.16c0,.39-.2.49-.34.49a120,120,0,0,1-12.3,1.42c0,2.4,0,4.95.05,7.25a80.52,80.52,0,0,0,10.83-1.42c.34-.1.49,0,.53.25,0,.58.05,1.52.05,2.35,0,.29-.14.44-.49.49a88,88,0,0,1-10.82,1.32c0,3,.14,5.59.34,8.53a39.68,39.68,0,0,1,13.08,6.32c.25.19.34.39.2.83a6.66,6.66,0,0,1-1.23,2.11c-.24.29-.44.34-.73.14A36.19,36.19,0,0,0,431.91,181c0,5.49-2.85,7.64-8.77,7.64-5.74,0-8.68-2.2-8.68-5.83,0-3.18,3.33-6,9-6a30.41,30.41,0,0,1,5.14.39C428.48,174.48,428.38,172.32,428.33,169.48Zm-4.85,10.09c-4.12,0-6.18,1.32-6.18,3.09,0,2.06,1.92,3,5.49,3,2.26,0,4.12-.49,5-1.52a5.51,5.51,0,0,0,.88-4A23.26,23.26,0,0,0,423.48,179.57Z"/><path class="cls-2" d="M474.14,149.59c.54.14.79.39.79.73a3.86,3.86,0,0,1-.39,1.27,26.94,26.94,0,0,0-.59,5c-.44,7.4-.74,14.11-.74,20.87,0,5.49,1.52,7.16,5.78,7.16,6.23,0,12.6-3.78,17.64-9.36a11.33,11.33,0,0,0,.84,2.84,2.69,2.69,0,0,1,.19.69c0,.29-.14.54-.59.93-5.14,4.95-11.66,8.23-18.66,8.23-5.54,0-8.53-2.65-8.53-9.85,0-7,.44-14.94.69-21.85a27.26,27.26,0,0,0-.39-7.4A19.08,19.08,0,0,1,474.14,149.59Z"/><path class="cls-2" d="M534,183.2c0,3.57-2.5,5.73-7.15,5.73-5.1,0-7.45-2.21-7.45-5,0-3.33,3.28-5.29,7.6-5.29a28.32,28.32,0,0,1,4,.2c-.24-2.7-.53-6.91-.63-11.13-.1-2.69-.15-5.09-.2-6.86a10.83,10.83,0,0,0-.39-3.18,17.82,17.82,0,0,1,3.53.54c.29.1.54.24.54.44a1.21,1.21,0,0,1-.2.64,3.67,3.67,0,0,0-.39,1.76c-.1,1.52-.1,3.38-.05,5.49a37.74,37.74,0,0,0,9.11-1.72c.39-.14.54-.09.64.2.2.59.39,1.27.54,1.91.05.34,0,.49-.34.59a51,51,0,0,1-9.9,1.81c.1,3,.39,7,.68,10a40,40,0,0,1,10.93,5.09c.25.15.25.29.15.49a11.88,11.88,0,0,1-1.23,2.21.35.35,0,0,1-.54.09,35,35,0,0,0-9.21-5ZM531,181.53a25.23,25.23,0,0,0-4.06-.39c-3.09,0-5.05,1-5.05,2.69,0,1.38,1.47,2.45,4.8,2.45,2.65,0,4.31-1.27,4.31-4Z"/><path class="cls-2" d="M575.72,161.83c4.61-1.47,7.35-2.35,10.63-2.35,4.85,0,9.07,3.33,9.07,11a17.46,17.46,0,0,1-4,11.32,28.52,28.52,0,0,1-8.67,6.9c-1,.54-1.32.45-1.67,0a6.2,6.2,0,0,0-2.45-1.66c4.8-2.26,8.09-4.8,10.44-8a14.51,14.51,0,0,0,2.79-8.92c0-5.87-3.09-7.54-6.07-7.54a23.58,23.58,0,0,0-7.16,1.71,40.8,40.8,0,0,0-4.41,2c-.68.4-1.08.74-1.57.74s-.68-.39-.93-.79a23.15,23.15,0,0,1-1.56-3.13A22.89,22.89,0,0,0,575.72,161.83ZM592,151.2a.49.49,0,0,1,.49.64,14,14,0,0,1-.59,2.3c-.15.39-.2.59-.54.54A57.15,57.15,0,0,1,578,151c-.14,0-.19-.25-.14-.69a13.65,13.65,0,0,1,.78-2.69A50.61,50.61,0,0,0,592,151.2Z"/><path class="cls-2" d="M636,180.89a8.18,8.18,0,0,1-8.08,7.89c-2.94,0-4.9-1.42-4.9-4.31,0-4.31,4.31-7.25,8-7.25a5.46,5.46,0,0,1,3.29,1V147.77h1.47a8.44,8.44,0,0,0,2.69,5.64,41.08,41.08,0,0,1,6.42,7.1c1.32,2.06,2.06,4.07,2.06,8,0,3.57-1.52,7.79-6,11.37l-.64-.59c3.63-3.43,4.71-7.06,4.71-9.56a8.76,8.76,0,0,0-2.85-7.05A21,21,0,0,0,636,158.5Z"/></g></g></svg>