<svg xmlns="http://www.w3.org/2000/svg" width="312.918" height="21.396" viewBox="0 0 312.918 21.396">
  <path id="パス_9" data-name="パス 9" d="M18.9-20.328a.22.22,0,0,0-.133-.206,12.471,12.471,0,0,0-1.44-.663,2.358,2.358,0,0,0-.62-.252c-.111,0-.177.16-.222.3a19.074,19.074,0,0,1-1.6,2.974.969.969,0,0,0-.177.412c0,.412,1.351.915,1.6.915.2,0,.31-.183.421-.343a21.685,21.685,0,0,0,1.329-2.334c.177-.343.266-.526.443-.572C18.63-20.122,18.9-20.145,18.9-20.328Zm-9.3,2.494a8.5,8.5,0,0,0-.82-1.784,15.309,15.309,0,0,0-.864-1.441c-.111-.137-.2-.3-.4-.3C7.221-21.358,6-20.74,6-20.4c0,.16.111.275.177.412A19.7,19.7,0,0,1,7.642-17.4c.133.275.2.48.487.48C8.373-16.92,9.591-17.4,9.591-17.835Zm2.858-13.589A29.476,29.476,0,0,0,15.86-28.13a.24.24,0,0,1,.089.183c0,.137-.133.183-.222.206-.576.023-1.152.023-1.728.023H10.322c-.554,0-1.108,0-1.639-.023-.133-.023-.266-.069-.266-.229a.234.234,0,0,1,.111-.183A31.3,31.3,0,0,0,11.7-31.447a.468.468,0,0,1,.377-.183A.489.489,0,0,1,12.449-31.424Zm.864,6.36c0-.458.177-.641.62-.641H14c.731,0,1.462.046,2.193.046.576,0,.532-.32.532-1.213.022-.16.089-.3.266-.3a.313.313,0,0,1,.155.046c.554.412,3.367,2.379,3.855,2.379.532,0,1.063-1.281,1.063-1.762,0-.3-.133-.343-.731-.641A26.191,26.191,0,0,1,13.6-33.231c0-.023-.022-.046-.022-.092a.124.124,0,0,1,.111-.137c.133-.046.332-.114.332-.3,0-.229-.2-.32-.377-.343-.354-.092-1.927-.5-2.193-.5-.2,0-.266.137-.377.32A21.943,21.943,0,0,1,2.9-26.917c-.377.206-.687.32-.687.595,0,.5.731,1.647,1.307,1.647.532,0,3.1-1.922,3.655-2.334a.214.214,0,0,1,.177-.069c.177,0,.244.137.244.3,0,.8-.022,1.121.554,1.121.709,0,1.44-.046,2.171-.046h.066c.421,0,.6.183.6.641v.8c0,.458-.177.641-.6.641H8.129c-.864,0-1.728-.046-2.592-.046-.532,0-.532.229-.532,1.075,0,.8,0,1.052.532,1.052.864,0,1.728-.046,2.592-.046h2.26c.421,0,.6.183.6.641v3.638c0,.458-.177.641-.6.641H5.958c-.908,0-1.839-.046-2.747-.046-.532,0-.532.229-.532,1.121,0,.846-.022,1.144.51,1.144.93,0,1.839-.069,2.769-.069H18.187c.93,0,1.839.069,2.747.069.532,0,.532-.3.532-1.144s0-1.121-.532-1.121c-.908,0-1.817.046-2.747.046H13.933c-.443,0-.62-.183-.62-.641v-3.638c0-.458.177-.641.62-.641h2.282c.886,0,1.75.046,2.614.046.532,0,.532-.252.532-1.075,0-.8,0-1.052-.554-1.052-.864,0-1.728.046-2.592.046H13.933c-.443,0-.62-.183-.62-.641Zm21.179-6.772c.731,0,1.462.046,2.171.046.532,0,.51-.3.51-.961s.022-.938-.51-.938c-.709,0-1.44.046-2.171.046H29.573c-.709,0-1.44-.046-2.149-.046-.532,0-.51.275-.51.938s-.022.961.51.961c.709,0,1.44-.046,2.149-.046Zm-4.32,3.249a.5.5,0,0,1,.51-.549h2.681a.52.52,0,0,1,.532.549v.252a.52.52,0,0,1-.532.549H30.681a.5.5,0,0,1-.51-.549Zm5.693-.5c0-.3.022-.572.022-.846,0-.732-.465-.892-1.063-.892-.51,0-1.019.023-1.529.023h-2.57c-.51,0-1.019-.023-1.529-.023-.6,0-1.063.16-1.063.869,0,.275.022.526.022.869v1.281c0,.32-.022.595-.022.846,0,.732.465.892,1.063.892.51,0,1.019-.046,1.529-.046H33.3c.51,0,1.019.046,1.551.046.6,0,1.041-.183,1.041-.892,0-.275-.022-.549-.022-.846ZM30.991-17.217c0,.641-.044,1.258-.044,1.876s.133.663.864.663c.687,0,.864-.046.864-.641,0-.641-.066-1.281-.044-1.9,0-.435.155-.618.6-.641.133,0,.332.023.487.023.421,0,.421-.229.421-.755v-.183c0-.3-.022-.572-.377-.572-.443,0-.864.023-1.307.023H31.3c-.443,0-.864-.023-1.307-.023-.354,0-.377.252-.377.549v.206c0,.458-.022.755.4.755a3.169,3.169,0,0,0,.465-.023c.354.023.51.183.51.526Zm12.1-6.337a.6.6,0,0,1-.6-.641v-3.317a.6.6,0,0,1,.6-.641h.2a.645.645,0,0,1,.62.641v3.317a.645.645,0,0,1-.62.641ZM40.65-24.1a.52.52,0,0,1-.532.549h-.266a.508.508,0,0,1-.532-.549v-3.5a.508.508,0,0,1,.532-.549h.266a.52.52,0,0,1,.532.549Zm-.532,2.631c.377,0,.532.16.532.549v3.2c0,.435-.155.663-.576.709l-1.839.206c-.155.023-.31.023-.421.046-.487.046-.665.069-.665.32a5.319,5.319,0,0,0,.244.984c.177.663.332,1.418.576,1.418.155,0,.244-.137.31-.252.089-.206.155-.343.354-.412,1.706-.275,3.434-.595,5.14-.915.044,0,.111-.023.155-.023.31,0,.443.229.51.526.111.869.089,1.235.554,1.235.066,0,1.374-.092,1.374-.595,0-.572-.576-3.249-.731-3.958-.288-1.441-.332-1.67-.908-1.67-.288,0-1.218.16-1.218.572,0,.183.266,1.052.332,1.327a.586.586,0,0,1,.022.183c0,.32-.2.435-.465.5a1.907,1.907,0,0,1-.332.046h-.111c-.354,0-.465-.229-.465-.549v-2.814c0-.458.177-.641.6-.641h.4c.421,0,.82.023,1.241.023.62,0,1.063-.137,1.063-.869,0-.458-.022-.892-.022-1.35v-4.347c0-.458.022-.892.022-1.35,0-.732-.421-.892-1.041-.892-.421,0-.842.023-1.263.023H43.22c-.443,0-.62-.183-.62-.618v-1.6c0-.8.022-1.03.244-1.19.177-.114.332-.183.332-.343,0-.206-.332-.229-.465-.252-.31-.023-1.639-.137-1.905-.137-.2,0-.377.023-.377.275,0,.069.022.137.022.183a14.077,14.077,0,0,1,.089,1.716v1.35c0,.435-.2.618-.62.618H39.83c-.421,0-.842-.023-1.241-.023-.642,0-1.063.16-1.063.892,0,.458.022.892.022,1.35V-22.2c0,.549-.022,1.1-.022,1.647,0,.412.244.412.908.412.775,0,.908-.023.908-.48v-.32c0-.366.155-.526.51-.526Zm-6.447-1.3a.52.52,0,0,1,.532-.549h.222a.52.52,0,0,1,.532.549v.526a.52.52,0,0,1-.532.549H34.2a.52.52,0,0,1-.532-.549ZM31.988-23.3c.31.023.4.206.4.5v.114c0,.549-.022,1.121-.022,1.67,0,.686.31.869.93.869.354,0,.709-.023,1.041-.023.443.023.62.183.62.641v2.517c0,.549.044,1.029-.62,1.029-.266,0-.753-.046-.864-.046-.288,0-.31.32-.31.549a3.54,3.54,0,0,0,.111.846c.155.663.31.732.975.732,1.817,0,2.525-.412,2.525-2.082,0-.458-.022-.938-.022-1.4v-5.239c0-.549.022-1.1.022-1.647,0-.755-.377-.869-1.019-.869-.532,0-1.041.046-1.551.046H29.795c-.532,0-1.041-.046-1.573-.046-.62,0-.975.16-.975.869,0,.572.022,1.121.022,1.67v5.582c0,.824-.022,1.647-.022,2.471,0,.618.111.663.93.663.731,0,.908-.046.908-.595,0-.846-.044-1.693-.044-2.539v-5.765c0-.389.155-.549.532-.549h.244c.288,0,.51.137.465.48a3.8,3.8,0,0,1-.775,1.876c-.111.114-.288.3-.288.458,0,.275.576.778.842.778.31,0,1.263-1.19,1.484-3.043a.45.45,0,0,1,.266-.435A.27.27,0,0,1,31.988-23.3Zm33.429.114c-.377,0-.554-.114-.6-.5l-.066-.618c0-.046.044-.046.089-.023.155.023.2-.046.266-.16.111-.16.2-.3.4-.32l.82-.137a.13.13,0,0,1,.133.137.178.178,0,0,1-.022.092.784.784,0,0,0-.2.435c0,.183.6.549.886.732.066.069.111.114.111.183,0,.137-.133.183-.244.183ZM57.4-23.76a.994.994,0,0,0,.133-.435.373.373,0,0,0-.111-.252,14.727,14.727,0,0,1-1.927-3.02,1.264,1.264,0,0,1-.066-.229c.044-.3.2-.389.465-.412.222.023.975.069,1.063.069.443,0,.421-.343.443-.961,0-.137.066-.252.222-.252a.289.289,0,0,1,.177.069c.288.229.576.458.864.709a.754.754,0,0,1,.266.526.864.864,0,0,1-.111.389c-.288.48-.554.984-.864,1.464a.343.343,0,0,1-.332.183c-.133.023-.354,0-.354.206a6.65,6.65,0,0,0,.222,1.075c.155.48.177.663.377.663.089,0,.133-.069.177-.137.111-.183.133-.252.31-.275.886-.137,1.772-.252,2.636-.412a.532.532,0,0,1,.62.389c.066.206.089.412.332.412a1.9,1.9,0,0,0,.642-.16.63.63,0,0,1,.2-.046c.244,0,.244.32.266.5,0,.343-.155.5-.465.5H59.591c-.62,0-1.241.023-1.861-.023a.342.342,0,0,1-.377-.343A.687.687,0,0,1,57.4-23.76Zm8.839-3.912c-.2.366-.443.709-.665,1.075a.463.463,0,0,1-.4.275c-.377,0-.532-.183-.576-.549,0-.526-.022-1.075-.022-1.6v-.686c.022-.16.111-.3.288-.3a.3.3,0,0,1,.2.069c.354.275.709.549,1.041.824a.656.656,0,0,1,.266.48A.754.754,0,0,1,66.237-27.672Zm-5.893,9.334c.421.32.864.641,1.263.984.111.092.31.3.443.3.4,0,.953-.824.953-1.327,0-.229-.111-.32-.4-.526a16.438,16.438,0,0,0-1.994-1.258.848.848,0,0,1-.51-.755c.044-.366.266-.48.6-.48h2.1a.648.648,0,0,1,.753.572,17.975,17.975,0,0,0,.864,2.471,1.066,1.066,0,0,1,.066.366.609.609,0,0,1-.288.526A11.973,11.973,0,0,1,60.81-15.73c-.31.092-.665.16-.665.5,0,.366.421,1.35.842,1.35.842,0,3.367-1.487,4.121-2.036a.73.73,0,0,1,.377-.114.561.561,0,0,1,.443.252c.709.938,1.617,1.945,2.858,1.945a1.617,1.617,0,0,0,1.462-1.213,7.865,7.865,0,0,0,.6-2.334c0-.618-.687-.846-1.2-.846-.377,0-.4.114-.443.366-.044.389-.155,2.013-.665,2.013-.377,0-1.041-.824-1.263-1.121A.758.758,0,0,1,67.1-17.4a.773.773,0,0,1,.244-.5,13.687,13.687,0,0,0,1.108-1.441c.2-.3.244-.389.532-.435.133-.023.354-.069.354-.252,0-.32-1.529-1.121-1.661-1.121-.155,0-.244.183-.332.3a5.833,5.833,0,0,1-.908,1.327.434.434,0,0,1-.288.137c-.177,0-.266-.137-.332-.275-.133-.389-.288-.778-.4-1.167a.459.459,0,0,1-.022-.183c0-.3.222-.389.465-.389H67.9c.731,0,1.484.046,2.237.046.51,0,.487-.3.487-.938,0-.572.022-.938-.465-.938-.4,0-.8.046-1.2.046-.155,0-.377-.046-.377-.252a.435.435,0,0,1,.044-.16.385.385,0,0,0,.111-.275c0-.183-.4-.458-.753-.709l-.222-.16a.27.27,0,0,1-.133-.229c0-.114.111-.183.222-.206.354-.069.709-.137,1.041-.183a.436.436,0,0,1,.532.32c.111.343.155.572.421.572.244,0,.953-.183.953-.48a8.981,8.981,0,0,0-.443-1.373c-.244-.595-.487-1.19-.753-1.784-.089-.16-.177-.32-.377-.32-.177,0-.953.183-.953.526a4.258,4.258,0,0,0,.244.595,1.264,1.264,0,0,1,.066.229.428.428,0,0,1-.421.435l-.487.069c-.155,0-.288-.069-.288-.252a.553.553,0,0,1,.044-.183,24.214,24.214,0,0,0,1.839-3.111c.111-.206.2-.252.465-.252.133-.023.266-.046.266-.229,0-.229-.443-.435-.62-.526a4.508,4.508,0,0,0-1.019-.48c-.133,0-.177.16-.244.3-.177.412-.354.8-.554,1.19a.463.463,0,0,1-.4.275.584.584,0,0,1-.332-.114l-.066-.069a.351.351,0,0,1-.155-.275.4.4,0,0,1,.066-.229,23.865,23.865,0,0,0,1.285-2.219.438.438,0,0,1,.4-.275c.133,0,.31,0,.31-.206,0-.183-.222-.3-.354-.366a5.945,5.945,0,0,0-1.2-.618c-.155,0-.177.16-.222.275a20.943,20.943,0,0,1-1.307,2.654.231.231,0,0,1-.2.114.55.55,0,0,1-.155-.046.308.308,0,0,0-.133-.046.27.27,0,0,0-.222.114.223.223,0,0,1-.155.092c-.089,0-.133-.046-.133-.16v-1.556c0-.458.022-.572.244-.686.155-.069.332-.137.332-.343,0-.275-.2-.275-.93-.366-.2-.023-1.041-.114-1.174-.114-.244,0-.354.114-.354.366,0,.046.022.618.044.778.022,2.128-.022,4.278.066,6.406,0,.16.066,1.075.066,1.121a.127.127,0,0,1-.133.137c-.066,0-.111-.092-.133-.16-.244-.663-.532-1.35-.842-2.013-.066-.16-.155-.32-.354-.32-.133,0-.975.229-.975.526a3.788,3.788,0,0,0,.244.641.452.452,0,0,1,.066.229c0,.275-.155.366-.4.412a2.934,2.934,0,0,1-.421.046c-.222.023-.332-.114-.332-.229a.265.265,0,0,1,.066-.183A28.015,28.015,0,0,0,61.541-29.8c.089-.183.266-.206.487-.229.133,0,.288-.023.288-.206,0-.3-1.506-1.052-1.573-1.052-.133,0-.155.114-.222.275-.155.343-.31.686-.465,1.007-.066.114-.133.3-.354.3a.551.551,0,0,1-.332-.137c-.022-.046-.066-.069-.111-.114a.294.294,0,0,1-.089-.206.493.493,0,0,1,.066-.16A17.852,17.852,0,0,0,60.189-32a7.082,7.082,0,0,1,.443-.824.446.446,0,0,1,.443-.229c.155,0,.31-.023.31-.229,0-.275-1.44-.915-1.551-.915-.133,0-.155.114-.2.252a21.751,21.751,0,0,1-1.351,2.814.223.223,0,0,1-.155.092.313.313,0,0,1-.155-.046.189.189,0,0,0-.133-.069c-.222,0-.465.572-.554.755a.353.353,0,0,1-.332.137c-.332.023-.642.023-.975.046-.421-.046-.554-.206-.554-.641v-1.441c0-.732.022-1.052.244-1.213.177-.114.31-.16.31-.32,0-.275-.377-.275-.554-.3-.332-.046-1.529-.16-1.794-.16-.177,0-.354.046-.354.275a.653.653,0,0,0,.022.206,10.472,10.472,0,0,1,.066,1.487v1.464c0,.458-.177.618-.62.641-.443,0-.908-.046-1.2-.046-.465,0-.421.366-.421,1.1,0,.709-.044,1.121.421,1.121.022,0,.908-.046,1.019-.046.288,0,.51.114.51.435,0,.046-.022.092-.022.16a24.134,24.134,0,0,1-2.393,7.206,1.232,1.232,0,0,0-.177.5c0,.366.753,1.441,1.152,1.441.244,0,.354-.229.443-.435a19.777,19.777,0,0,0,1.108-3.043c.022-.023.044-.069.089-.069.066,0,.089.046.089.114v4.232c0,1.029-.044,2.059-.044,3.088,0,.595.244.618,1.086.618.82,0,1.063,0,1.063-.618,0-1.029-.044-2.059-.044-3.088v-6.246c0-.092.044-.183.133-.183a.15.15,0,0,1,.133.092,1.324,1.324,0,0,0,.089.16c.222.389.554,1.052.82,1.075.066,0,.266-.023.266.252v.206c0,.595.022.824.487.824.133,0,.266-.023.4-.023.4.023.576.16.6.595a11.061,11.061,0,0,1-1.905,5.742.764.764,0,0,0-.155.366c0,.435.975.869,1.307.869.354,0,.51-.275.687-.549a12.345,12.345,0,0,0,1.44-3.706c.066-.206.155-.343.377-.343A.493.493,0,0,1,60.344-18.338ZM81.678-29.662a.4.4,0,0,1,.421.435v.114a.414.414,0,0,1-.421.435H78.732a.414.414,0,0,1-.421-.435v-.114a.4.4,0,0,1,.421-.435Zm0-2.288a.414.414,0,0,1,.421.435v.092a.443.443,0,0,1-.421.435H78.732a.443.443,0,0,1-.421-.435v-.092a.414.414,0,0,1,.421-.435Zm-3.367,5.605c0-.435.177-.641.62-.641h2.481c.554,0,1.13.046,1.684.046.842,0,1.2-.252,1.2-1.144,0-.686-.044-1.35-.044-2.013v-.412c0-.686.044-1.35.044-2.036,0-.892-.377-1.144-1.2-1.144-.576,0-1.13.046-1.684.046H78.975c-.576,0-1.13-.046-1.706-.046-.842,0-1.174.275-1.174,1.167,0,.709.022,1.418.022,2.151v12.423c0,1.121-.044,2.242-.044,3.363,0,.709.222.755,1.152.755.908,0,1.152-.023,1.152-.755,0-1.121-.066-2.242-.066-3.363Zm13.381-3.317a.4.4,0,0,1,.421.435v.114a.414.414,0,0,1-.421.435h-2.88a.414.414,0,0,1-.421-.435v-.114a.4.4,0,0,1,.421-.435Zm.421-1.762a.443.443,0,0,1-.421.435h-2.88a.443.443,0,0,1-.421-.435v-.092a.414.414,0,0,1,.421-.435h2.88a.414.414,0,0,1,.421.435Zm-7.377,7.458c-.288,0-.377-.114-.51-.389-.244-.549-.554-1.075-.842-1.6-.31-.572-.443-.824-.731-.824-.31,0-1.529.435-1.529.824a14.671,14.671,0,0,0,.886,1.464.744.744,0,0,1,.066.206c0,.206-.177.3-.354.3-.4.023-.8-.023-1.2-.023-.487,0-.465.275-.465.869,0,.572-.022.892.443.892.62,0,1.263-.046,1.883-.046h1.086c.377,0,.532.16.532.549v.206c0,.389-.155.549-.554.549H81.966c-.687,0-1.374-.046-2.06-.046-.465,0-.465.275-.465.892,0,.572-.022.892.443.892.709,0,1.4-.046,2.082-.046h.864c.177.023.377.069.377.3a.418.418,0,0,1-.089.206A6.9,6.9,0,0,1,79.6-16.531c-.244.069-.642.137-.642.435,0,.366.532,1.441,1.241,1.441a1.987,1.987,0,0,0,.709-.229,9.494,9.494,0,0,0,3.833-2.768.417.417,0,0,1,.332-.183.417.417,0,0,1,.354.206c.93,1.281,3.1,2.905,3.7,2.905a.974.974,0,0,0,.244-.069.493.493,0,0,1,.244-.069c.2,0,.288.137.354.3.222.663.51.709,1.241.709,2.592,0,3.146-.869,3.146-2.562,0-.663-.044-1.3-.044-1.967V-30.372c0-.732.022-1.441.022-2.151,0-.915-.354-1.167-1.2-1.167-.554,0-1.108.046-1.684.046h-2.37c-.554,0-1.13-.046-1.684-.046-.842,0-1.2.252-1.2,1.167,0,.663.044,1.327.044,2.013v.412c0,.663-.044,1.327-.044,2.013,0,.915.377,1.144,1.218,1.144.554,0,1.108-.046,1.662-.046h2.415c.443,0,.62.206.62.641v9.174c0,.526.089,1.167-.93,1.167-.155,0-.4-.023-.554-.023-.133-.023-.177-.137-.244-.252a.9.9,0,0,0-.443-.32,8.925,8.925,0,0,1-3.035-2.219.418.418,0,0,1-.089-.206c0-.206.155-.252.332-.275h1.086c.709,0,1.4.046,2.082.046.465,0,.443-.343.443-.892,0-.572.044-.892-.443-.892-.687,0-1.4.046-2.082.046H86.685c-.421,0-.6-.206-.6-.641v-.114c0-.389.155-.549.532-.549h1.2c.62,0,1.241.046,1.883.046.465,0,.443-.32.443-.869,0-.572.044-.892-.465-.892-.332,0-.731.023-1.086.023-.155,0-.31-.069-.31-.252a.326.326,0,0,1,.066-.206c.2-.32.421-.572.62-.869A.417.417,0,0,1,89.3-25.5c.155,0,.332,0,.332-.229,0-.275-.82-.572-1.241-.755a2.776,2.776,0,0,0-.908-.3c-.155,0-.177.183-.244.32a14.863,14.863,0,0,1-1.152,1.99.9.9,0,0,1-.93.5ZM108.727-33.6c-.31,0-2.149.48-2.149.938a.764.764,0,0,0,.155.366A15.709,15.709,0,0,1,108.4-29.5c0,.32-.288.389-.532.458a23.913,23.913,0,0,1-4.431.5c-.288.023-.532.046-.532.412a4.563,4.563,0,0,0,.266,1.213c.2.641.31.824.8.824a29.934,29.934,0,0,0,5.25-.869,1.317,1.317,0,0,1,.288-.069c.487,0,.642.435.842.8.443.824.8,1.441,1.285,2.219a.92.92,0,0,1,.133.343.225.225,0,0,1-.244.206.766.766,0,0,1-.244-.069,6.851,6.851,0,0,0-2.769-.663,4.4,4.4,0,0,0-4.674,4.37c0,2.7,2.082,4.072,4.386,4.667a16.459,16.459,0,0,0,3.81.526c.465,0,.642-.092.753-.389a4.374,4.374,0,0,0,.222-1.4c0-.412-.066-.732-.51-.732-.288,0-.731.046-1.241.046-1.706,0-5.1-.48-5.1-2.837a2.182,2.182,0,0,1,2.37-2.036,10.439,10.439,0,0,1,5.25,1.922c.266.183.6.48.842.48.465,0,1.573-1.007,1.573-1.51a1.089,1.089,0,0,0-.354-.641,26.348,26.348,0,0,1-3.212-5.033,1.8,1.8,0,0,1-.377-.869c0-.412.443-.5.731-.618a16.81,16.81,0,0,0,2.038-.984c.288-.16.665-.343.665-.595,0-.412-.975-1.784-1.418-1.784a1.3,1.3,0,0,0-.6.275,10.068,10.068,0,0,1-2.415,1.235.65.65,0,0,1-.6-.435c-.465-.892-.886-1.784-1.374-2.654C109.148-33.437,109.038-33.6,108.727-33.6Zm16.837,15.831c-.022.046-.4.984-.4,1.007,0,.389,1.772,1.052,2.127,1.052.377,0,.421-.412.487-.709a16.107,16.107,0,0,1,2.038-4.8,6.654,6.654,0,0,1,2.26-2.082,4.037,4.037,0,0,1,1.905-.641c.642,0,.842.458.842,1.052a10.625,10.625,0,0,1-.244,1.853,15.192,15.192,0,0,0-.288,2.654c0,1.441.642,2.837,2.215,2.837,1.728,0,3.234-1.258,4.453-2.4.532-.5,1.041-1.029,1.551-1.556a.894.894,0,0,0,.244-.5c0-.32-.753-2.128-1.152-2.128-.177,0-.332.183-.443.32-.687,1.007-2.791,3.775-4.032,3.775-.443,0-.576-.48-.576-.869a13.468,13.468,0,0,1,.354-2.242,12.412,12.412,0,0,0,.288-2.219,3.939,3.939,0,0,0-.244-1.441,2.616,2.616,0,0,0-2.348-1.35,4.871,4.871,0,0,0-2.348.778.869.869,0,0,1-.4.16.242.242,0,0,1-.222-.229,29.907,29.907,0,0,1,2.237-3.66,22.62,22.62,0,0,1,1.4-1.876.947.947,0,0,1,.576-.3c.2-.023.4-.114.4-.366s-.8-.824-1.019-.984a5.582,5.582,0,0,0-1.241-.869c-.155,0-.266.229-.332.343-.288.549-.576,1.029-.908,1.579a71.29,71.29,0,0,0-4.63,8.076C127.2-21.609,126.384-19.688,125.564-17.766Zm31.258-11.3c.244,0,.354.183.354.412a23.964,23.964,0,0,1-.709,4.461c-.62,2.334-1.861,4.942-2.969,4.942-1.13,0-1.418-2.128-1.418-2.974a7.1,7.1,0,0,1,3.988-6.589A2.436,2.436,0,0,1,156.822-29.068Zm2.127-2.677a9.284,9.284,0,0,0-9.194,9.609,7.368,7.368,0,0,0,.687,3.249,3.576,3.576,0,0,0,3.013,2.173,3.946,3.946,0,0,0,2.924-1.762c2.127-2.631,2.9-6.7,3.146-10.043.022-.389.022-.892.532-.892a3.767,3.767,0,0,1,.842.206,5.552,5.552,0,0,1,3.545,5.468c0,3.272-2.282,5.239-5.184,5.948-.222.046-.554.092-.554.32,0,.5.908,1.922,1.484,1.922a8.447,8.447,0,0,0,2.415-.915,8.259,8.259,0,0,0,4.32-7.39,7.869,7.869,0,0,0-2.237-5.628A7.741,7.741,0,0,0,158.949-31.744ZM189.565-28.5a6.642,6.642,0,0,0-1.662-1.19c-.354,0-1.329,1.144-1.329,1.487,0,.252.244.435.4.549a31.994,31.994,0,0,1,2.946,2.562.881.881,0,0,0,.487.275c.443,0,1.4-1.121,1.4-1.556,0-.252-1.108-1.213-1.706-1.693C189.92-28.2,189.742-28.358,189.565-28.5Zm-10.412,9.06c0,.092.022.206.022.32,0,.046.044.984.044,1.007,0,.092-.022.183-.155.183a.432.432,0,0,1-.266-.137,5.289,5.289,0,0,0-1.13-.709.507.507,0,0,0-.487.458c0,.183.155.32.266.435A4.612,4.612,0,0,1,178.8-16.1c.177.389.332.869.82.869.6,0,1.949-.549,1.949-1.67,0-.229-.155-2.288-.2-2.768-.022-.32-.066-1.235-.066-1.51a.777.777,0,0,1,.354-.709,8.428,8.428,0,0,1,3.9-1.1c1.241,0,2.658.709,2.658,2.151,0,1.67-1.883,2.1-3.168,2.1a16.963,16.963,0,0,1-1.817-.206c-.332,0-.4.3-.4.595a4.559,4.559,0,0,0,.354,1.647c.111.229.576.252.93.252h.266a8.594,8.594,0,0,0,4.453-1.029,4.063,4.063,0,0,0,1.772-3.409c0-2.745-2.37-4.324-4.829-4.324a10.073,10.073,0,0,0-3.677.755,2.06,2.06,0,0,1-.554.206c-.288,0-.332-.5-.332-.892v-.32c0-1.052.044-1.213.864-1.373,1.684-.3,2.06-.3,2.06-.892,0-.389-.066-1.876-.576-1.876a1.187,1.187,0,0,0-.377.114,14.477,14.477,0,0,1-1.4.389.4.4,0,0,1-.377-.389c0-.092.022-.229.022-.32.022-.206.044-.389.066-.526.066-.709.089-.984.421-1.258.089-.092.222-.229.222-.366,0-.206-.31-.275-.443-.3-.443-.092-1.927-.412-2.26-.412-.222,0-.288.16-.288.343,0,.092.044.618.044,1.075,0,.641-.022,1.281-.044,1.922a.949.949,0,0,1-.177.686,1.157,1.157,0,0,1-.82.275c-.687.092-1.462.137-2.149.16-.421.023-.465.114-.465.732,0,1.67.354,1.693.642,1.693.332,0,1.839-.275,2.26-.366.044,0,.089-.023.133-.023a.492.492,0,0,1,.487.526v.229c0,.343-.022.686-.022,1.029v.778c0,.709-.089.732-.93,1.258-1.218.778-2.393,1.6-3.633,2.334-.266.16-.51.229-.51.48,0,.458.886,2.173,1.329,2.173.111,0,.244-.114.332-.183a28.131,28.131,0,0,1,3.279-2.539C179.131-20.077,179.131-19.848,179.153-19.436Zm22.6-14.893c-.177,0-.266.092-.354.252a17.4,17.4,0,0,1-3.833,4.278c-.155.137-.443.343-.443.595,0,.412.93,1.3,1.329,1.3.222,0,.487-.229.665-.366a23.258,23.258,0,0,0,3.877-4.255c.177-.275.2-.3.532-.32.111,0,.288-.046.288-.206,0-.206-.222-.343-.377-.435-.332-.16-.753-.389-1.063-.572A1.371,1.371,0,0,0,201.749-34.329Zm6.624,3.272c.022-.435.222-.572.642-.618h1.063c.443,0,.62.206.62.641v1.945c0,.435-.022.846-.022,1.235,0,1.121.2,1.945,1.861,1.945h1.817c1.152,0,1.684-.183,2.149-1.327a8.834,8.834,0,0,0,.62-2.448c0-.641-1.44-.824-1.6-.824-.288,0-.377.137-.421.412-.266,1.784-.487,2.013-.975,2.013H213.4c-.62,0-.62-.389-.62-1.052v-2.311c0-.389.022-.778.022-1.19,0-.8-.2-1.052-1.019-1.052-.332,0-.665.023-1,.023h-2.636c-.332,0-.665-.023-1.019-.023-.842,0-.842.458-.864,1.579,0,.32,0,.709-.022,1.144a5.554,5.554,0,0,1-1.662,4.232c-.133.137-.332.3-.332.5,0,.435,1.13,1.19,1.4,1.19.576,0,1.506-1.373,1.794-1.853A8.143,8.143,0,0,0,208.373-31.058Zm.222,9.22a.326.326,0,0,1-.066-.206c0-.252.2-.32.4-.343h2.548c.51,0,.8.023.8.183,0,.343-1.351,1.739-1.639,2.036a.622.622,0,0,1-.421.206.6.6,0,0,1-.421-.229A9.66,9.66,0,0,1,208.595-21.838Zm1.108,5.353a.818.818,0,0,1,.465-.16.984.984,0,0,1,.487.183,16.01,16.01,0,0,0,4.032,2.151,5.7,5.7,0,0,0,.975.275c.642,0,1.241-1.4,1.241-1.716,0-.343-.332-.435-.6-.5a14.333,14.333,0,0,1-3.81-1.693.461.461,0,0,1-.244-.366.531.531,0,0,1,.177-.389c.665-.663,3.035-3.294,3.035-4.187,0-.366-.62-1.647-1.506-1.647-.443,0-1.241.046-1.949.046h-4.719c-.8,0-1.617-.046-2.437-.046-.532,0-.51.252-.51,1.1,0,.892,0,1.121.532,1.121.177,0,.354-.023.554-.023.4.023.532.206.687.549a13.058,13.058,0,0,0,1.905,2.951.6.6,0,0,1,.155.366.474.474,0,0,1-.244.412,18.72,18.72,0,0,1-4.209,1.83c-.244.069-.665.16-.665.5a2.552,2.552,0,0,0,.4,1.029c.2.32.4.686.8.686a6.9,6.9,0,0,0,1.44-.435A20.781,20.781,0,0,0,209.7-16.485ZM201.86-24.9c1.4-1.739,1.086-1.418,2.26-3.043a.543.543,0,0,1,.51-.3c.133-.023.332-.092.332-.275,0-.206-.266-.343-.953-.641a8.848,8.848,0,0,0-1.241-.549c-.2,0-.266.137-.377.343a25.835,25.835,0,0,1-4.829,5.857c-.244.206-.532.389-.532.709,0,.435.82,1.418,1.2,1.418.288,0,.687-.366.975-.663.111-.114.177-.206.332-.206.177,0,.222.137.222.3v4.53c0,.961-.044,1.9-.044,2.837,0,.641.266.778,1.174.778.864,0,1.152-.114,1.152-.732,0-.961-.044-1.922-.044-2.883v-5.239c0-.618.022-1.052.244-1.19.155-.092.354-.183.354-.389,0-.275-.354-.3-.554-.32-.133-.023-.222-.069-.222-.206A.2.2,0,0,1,201.86-24.9ZM229.6-19.139c0-.572-.6-3.249-.753-3.935a36.2,36.2,0,0,0-1.13-3.889.553.553,0,0,0-.554-.366,3.711,3.711,0,0,0-.975.206c-.288.092-.665.206-.665.595a2.4,2.4,0,0,0,.155.663,38.784,38.784,0,0,1,1.706,6.726c.089.48.089.824.642.824C228.4-18.315,229.6-18.5,229.6-19.139Zm5.583-8.122a68.311,68.311,0,0,1-2.393,9.609c-.133.435-.354.549-.8.549h-7.133c-.886,0-1.75-.069-2.636-.069-.576,0-.532.3-.532,1.19,0,.869-.044,1.19.532,1.19.886,0,1.75-.046,2.636-.046h13.093c.886,0,1.75.046,2.636.046.554,0,.532-.3.532-1.19s.022-1.19-.532-1.19c-.886,0-1.75.069-2.636.069h-2.57c-.244-.023-.465-.114-.465-.412a.434.434,0,0,1,.044-.16c.354-1.075.687-2.151,1.019-3.226.532-1.762.953-3.546,1.44-5.331.066-.16.111-.206.377-.275.155-.046.288-.092.288-.3s-.244-.275-.4-.343a18.194,18.194,0,0,0-2.149-.618C235.268-27.764,235.223-27.489,235.179-27.26Zm-2.592-5.216c0-.641.022-.938.288-1.121.177-.114.31-.16.31-.32,0-.3-.421-.3-.62-.32-.465-.069-1.551-.16-1.994-.16-.222,0-.421.046-.421.32,0,.069.022.16.022.229a19.182,19.182,0,0,1,.089,1.967v.435c0,.458-.177.641-.62.641h-3.788c-.864,0-1.706-.046-2.57-.046-.576,0-.532.275-.532,1.19,0,.869-.044,1.167.532,1.167.864,0,1.706-.046,2.57-.046H237.04c.864,0,1.728.046,2.57.046.576,0,.532-.3.532-1.167,0-.915.044-1.19-.532-1.19-.864,0-1.706.046-2.57.046h-3.833c-.421,0-.62-.183-.62-.641Zm21.156-1.029c-.354,0-.332.5-.377.824a22.657,22.657,0,0,1-.465,2.905c-.2.48-.443.549-2.016.549-.886,0-2.193-.092-2.5-.092-.111,0-.465-.023-.465.572a7.153,7.153,0,0,0,.244,1.51.524.524,0,0,0,.576.458c.443,0,2.171-.206,2.681-.229.133,0,.332-.023.465-.023a.324.324,0,0,1,.354.343,2.609,2.609,0,0,1-.111.572,23.615,23.615,0,0,1-1.218,3.8,3.306,3.306,0,0,0-.31,1.007c0,.641,1.263,1.281,1.772,1.281.266,0,.465-.3.62-.5a7.216,7.216,0,0,1,5.361-2.86,2.2,2.2,0,0,1,2.193,2.379c0,3.02-3.522,3.706-5.826,3.706-.842,0-1.506-.16-1.794-.16a.449.449,0,0,0-.465.48,7.257,7.257,0,0,0,.288,1.51c.133.48.244.595.975.595a19.662,19.662,0,0,0,4.63-.641c2.57-.709,4.475-2.471,4.475-5.353,0-2.814-1.772-4.736-4.5-4.736a6.978,6.978,0,0,0-3.877,1.235.456.456,0,0,1-.244.092c-.155,0-.222-.069-.222-.206a1.334,1.334,0,0,1,.066-.412c.133-.5.244-.915.31-1.235.266-1.075.288-1.235,1.019-1.327,1.241-.137,3.855-.549,5.051-.778.554-.114.8-.183.8-.549a7.537,7.537,0,0,0-.2-1.418c-.089-.32-.133-.641-.421-.641a1.788,1.788,0,0,0-.6.16,23.068,23.068,0,0,1-4.276,1.007.344.344,0,0,1-.377-.343,2.671,2.671,0,0,1,.133-.572c.066-.183.089-.32.133-.458a1.508,1.508,0,0,1,.465-.938.428.428,0,0,0,.2-.343C256.291-32.842,253.965-33.506,253.743-33.506Zm19.451,15.831c0,1.007-.044,2.013-.044,3.02,0,.595.222.8,1.13.8.82,0,1.13-.114,1.13-.732,0-1.029-.044-2.059-.044-3.088V-32.293c0-.663.022-1.052.266-1.258.133-.114.31-.229.31-.412,0-.3-.377-.32-.576-.343-.377-.046-1.351-.137-1.706-.137-.332,0-.51.069-.51.412,0,.137.044,1.6.044,2.677ZM271.289-30.28c-.31,0-.332.206-.354.778-.022.206-.022.458-.044.778a21.528,21.528,0,0,1-.842,4.118,1.015,1.015,0,0,0-.044.275c0,.458.775.732,1.152.732s.554-.229.908-2.1c.244-1.213.31-2.059.465-3.249a.5.5,0,0,1,.31-.48c.089-.069.2-.16.2-.275,0-.3-.4-.343-.82-.412A6.6,6.6,0,0,0,271.289-30.28Zm9.88,10.341a.391.391,0,0,1,.421-.435h4.054a.391.391,0,0,1,.421.435v.137a.409.409,0,0,1-.421.458H281.59a.409.409,0,0,1-.421-.458Zm.421-1.945a.409.409,0,0,1-.421-.458v-.114a.391.391,0,0,1,.421-.435h4.054a.391.391,0,0,1,.421.435v.114a.409.409,0,0,1-.421.458Zm4.475,4.964c0,.824-.066.869-1,.869-.31,0-.62-.046-.953-.046-.354,0-.4.32-.4.755,0,1.3.443,1.441,1.573,1.441,2.393,0,3.035-.343,3.035-2.334,0-.572-.044-1.121-.044-1.67V-21.5c0-.641.044-1.258.044-1.9,0-.892-.222-1.19-1.108-1.19-.554,0-1.108.023-1.661.023H281.7c-.554,0-1.108-.023-1.661-.023-.886,0-1.086.32-1.086,1.213,0,.641.044,1.258.044,1.9v3.958c0,.938-.066,1.9-.066,2.86,0,.755.288.755,1.174.755.908,0,1.108-.023,1.108-.846s-.066-1.647-.044-2.448c0-.458.177-.641.62-.641h3.677c.421,0,.6.183.6.641Zm-5.583-15.625c-.731,0-1.44-.023-2.171-.023-.487,0-.465.183-.465.846s0,.869.465.869c.709,0,1.44-.046,2.171-.046h1.595c.31,0,.421.114.421.435v.183c0,.3-.111.435-.421.435h-.886c-.731,0-1.462-.046-2.215-.046-.487,0-.465.16-.465.778,0,.595-.022.778.465.778.753,0,1.484-.046,2.215-.046h.886c.31,0,.421.137.421.458v.229c0,.32-.111.435-.421.435h-1.75c-2.082,0-2.149.046-2.238-.435a17.131,17.131,0,0,0-.62-1.99c-.354-1.007-.465-1.4-.842-1.4-.2,0-1.019.229-1.019.618a1.157,1.157,0,0,0,.111.366,21.466,21.466,0,0,1,.753,2.585c.089.366.111.618.576.572.221,0,.354.069.354.32,0,.846-.022,1.029.487,1.029.82,0,1.617-.046,2.437-.046h6.8c.82,0,1.617.046,2.437.046.487,0,.465-.183.465-.846,0-.686.022-.869-.465-.869-.82,0-1.617.046-2.437.046h-2.016c-.288,0-.4-.114-.4-.435v-.252c0-.3.111-.435.421-.435h1.13c.731,0,1.462.046,2.215.046.487,0,.465-.183.465-.778s.022-.778-.443-.778c-.753,0-1.506.046-2.238.046h-1.152c-.288,0-.4-.137-.4-.435v-.183c0-.32.111-.435.421-.435h1.772c.731,0,1.462.046,2.193.046.443,0,.443-.206.443-.869s.022-.846-.465-.846c-.731,0-1.44.023-2.171.023h-1.573c-.421,0-.62-.137-.6-.595A.506.506,0,0,1,285-33.6c.111-.069.288-.16.288-.343,0-.206-.222-.229-.377-.252-.266-.046-1.839-.16-2.1-.16-.221,0-.4.046-.4.343a.4.4,0,0,0,.022.16l.066.709c-.022.435-.2.595-.62.595Zm29.8,12.262a11.673,11.673,0,0,1-.953-2.539v-.16c0-.32.222-.435.487-.435h1.241c.377,0,.62.046.62.412a9.1,9.1,0,0,1-.82,2.677c-.066.114-.133.229-.288.229C310.434-20.1,310.367-20.191,310.279-20.283Zm-3.035,3.958c-.022-.412-.022-.846-.022-1.281v-5.376c.022-.229.066-.366.288-.412a.219.219,0,0,1,.155.183,13.847,13.847,0,0,0,1.529,4.69,1.1,1.1,0,0,1,.133.48.775.775,0,0,1-.2.48,11.059,11.059,0,0,1-1.462,1.441.3.3,0,0,1-.2.069C307.31-16.05,307.244-16.165,307.244-16.325Zm3.877.5c.4.435,1.883,1.853,2.437,1.853.487,0,.975-1.075.975-1.6,0-.229-.111-.3-.288-.412a10.1,10.1,0,0,1-2.016-1.624.929.929,0,0,1-.222-.526,1.052,1.052,0,0,1,.111-.435,17.591,17.591,0,0,0,1.462-3.958,11.781,11.781,0,0,0,.288-1.693,1.325,1.325,0,0,0-.31-.846,1.217,1.217,0,0,0-1.019-.366c-.51,0-1.041.023-1.551.023h-3.146c-.443,0-.62-.183-.62-.641v-4.644c0-.435.177-.641.62-.641h2.725c.421,0,.62.206.62.641v1.373c0,.663-.111.892-.82.892-.288,0-.576-.046-.82-.046-.354,0-.4.206-.4.5,0,1.51.377,1.716,1.152,1.716a5.078,5.078,0,0,0,2.171-.458c.731-.366.842-.984.842-1.762,0-.5-.022-1.029-.022-1.533v-.686c0-.618.044-1.1.044-1.487,0-.938-.177-1.281-1.174-1.281-.51,0-1,.046-1.506.046h-2.991c-.465,0-.93-.046-1.4-.046-.82,0-1.152.275-1.152,1.121,0,.686.044,1.373.044,2.036v12.7c0,1.052-.066,2.082-.066,3.111,0,.663.221.663,1.085.663s1.086,0,1.086-.641V-14.7c.022-.092.066-.183.177-.183a.236.236,0,0,1,.155.069c.2.229.576.595.886.595.487,0,1.529-1.19,1.883-1.6a.568.568,0,0,1,.377-.206A.527.527,0,0,1,311.121-15.821ZM300.576-26.437c.244.023.465.114.465.412,0,.069-.022.137-.022.183-.2.595-.377,1.19-.642,1.784a.762.762,0,0,1-.842.526H298.4c-.111-.023-.111-.069-.111-.092,0-.046.022-.069.066-.114.177-.069.377-.183.377-.412a10.284,10.284,0,0,0-.487-1.418,2.666,2.666,0,0,1-.133-.32.442.442,0,0,1-.044-.183c0-.252.177-.343.4-.366Zm2.348,1.1a.369.369,0,0,1,.31-.229c.133-.023.31-.046.31-.229,0-.229-.244-.32-.6-.435a.092.092,0,0,1-.044-.092.083.083,0,0,1,.089-.092c.354.023.709.046,1.063.046.554,0,.532-.3.532-1.052,0-.778.022-1.052-.532-1.052-.775,0-1.529.046-2.3.046h-.4c-.443,0-.62-.206-.62-.641v-.389c0-.458.177-.641.62-.641.62-.023,1.241.046,1.883.046.532,0,.51-.32.51-1.052,0-.778.022-1.052-.532-1.052-.62,0-1.241.069-1.861.046-.421,0-.62-.183-.62-.641-.022-.48.022-.709.244-.892.155-.114.266-.183.266-.32,0-.252-.31-.275-.487-.3-.31-.046-1.551-.16-1.817-.16-.2,0-.355.046-.355.3v.229a10.721,10.721,0,0,1,.089,1.19c-.044.435-.222.595-.62.595-.642.023-1.285-.046-1.927-.046-.554,0-.532.3-.532,1.052,0,.732-.044,1.052.532,1.052.642,0,1.285-.069,1.927-.046.443,0,.62.183.62.641v.389c0,.435-.177.641-.62.641h-.509c-.753,0-1.529-.046-2.282-.046-.576,0-.554.3-.554,1.052,0,.732-.022,1.052.554,1.052.354,0,.687-.046,1.041-.046a.1.1,0,0,1,.089.092c0,.046-.022.069-.067.092-.133.092-.288.206-.288.389a11.729,11.729,0,0,0,.576,1.51c.044.092.066.183.089.229a.552.552,0,0,1,.044.183c0,.252-.177.343-.4.366-.244,0-.487-.023-.753-.023-.554,0-.532.3-.532,1.052,0,.709-.044,1.052.532,1.052.665,0,1.329-.069,2.016-.069h.354c.421,0,.62.206.62.641v.526c0,.458-.2.641-.62.641H297.9c-.642,0-1.285-.046-1.927-.046-.554,0-.532.343-.532,1.052,0,.778,0,1.075.554,1.075.642,0,1.285-.046,1.905-.046h.066c.421,0,.62.183.62.618.022.846-.066,1.693-.066,2.517,0,.709.222.732,1.108.732.908,0,1.108-.023,1.108-.709,0-.846-.066-1.693-.044-2.539.022-.435.177-.618.6-.618h.2c.642,0,1.285.046,1.927.046.554,0,.532-.343.532-1.075,0-.709.022-1.052-.532-1.052-.642,0-1.285.046-1.927.046h-.2c-.421,0-.6-.183-.6-.641V-20.9c0-.435.177-.641.6-.641h.443c.665,0,1.329.069,2.016.069.576,0,.554-.3.554-1.075,0-.732.022-1.03-.554-1.03-.31,0-.643.023-.975.023-.221,0-.4-.092-.4-.343a.684.684,0,0,1,.044-.183S302.747-24.927,302.924-25.339Z" transform="translate(-1.914 34.904)" fill="#ccede8" stroke="#6e6e6e" stroke-width="0.6"/>
</svg>
