<svg xmlns="http://www.w3.org/2000/svg" viewBox="0 0 1135.91 111.42"><defs><style>.cls-1{fill:#ccede8;stroke:#6e6e6e;stroke-width:3.12px;}</style></defs><g id="レイヤー_2" data-name="レイヤー 2"><g id="レイヤー_1-2" data-name="レイヤー 1"><path id="パス_9" data-name="パス 9" class="cls-1" d="M88.45,75.89a1.14,1.14,0,0,0-.69-1.07,65.12,65.12,0,0,0-7.5-3.45A12.27,12.27,0,0,0,77,70.05c-.58,0-.92.84-1.16,1.57A99.47,99.47,0,0,1,67.54,87.1a5.1,5.1,0,0,0-.92,2.15c0,2.14,7,4.76,8.33,4.76,1,0,1.62-1,2.19-1.79a111.19,111.19,0,0,0,6.92-12.15c.93-1.78,1.39-2.74,2.31-3C87,77,88.45,76.84,88.45,75.89ZM40,88.88a44.42,44.42,0,0,0-4.27-9.29,83.75,83.75,0,0,0-4.5-7.51c-.58-.71-1-1.56-2.09-1.56-1.53,0-7.89,3.22-7.89,5,0,.84.58,1.44.92,2.15a102.17,102.17,0,0,1,7.63,13.48c.69,1.43,1,2.49,2.54,2.49,1.27,0,7.61-2.49,7.61-4.76ZM54.91,18.12A154.27,154.27,0,0,0,72.62,35.27a1.21,1.21,0,0,1,.46.95c0,.71-.69,1-1.15,1.07-3,.12-6,.12-9,.12H43.78c-2.88,0-5.76,0-8.53-.12-.69-.12-1.38-.36-1.38-1.19a1.19,1.19,0,0,1,.57-1A162.29,162.29,0,0,0,51,18a2.45,2.45,0,0,1,2-.95,2.58,2.58,0,0,1,1.94,1.07ZM59.4,51.24c0-2.39.93-3.34,3.23-3.34h.31c3.8,0,7.61.24,11.41.24,3,0,2.77-1.67,2.77-6.32.12-.83.47-1.56,1.39-1.56a1.69,1.69,0,0,1,.81.24c2.88,2.14,17.53,12.39,20.07,12.39,2.77,0,5.53-6.67,5.53-9.18,0-1.56-.69-1.78-3.8-3.34A136.33,136.33,0,0,1,60.85,8.71c0-.12-.11-.24-.11-.48a.64.64,0,0,1,.57-.72h0C62,7.27,63,6.92,63,6c0-1.19-1-1.66-2-1.78-1.84-.48-10-2.61-11.42-2.61-1,0-1.38.72-2,1.67A114.27,114.27,0,0,1,5.14,41.58c-2,1.07-3.58,1.67-3.58,3.1,0,2.6,3.81,8.58,6.81,8.58,2.77,0,16.14-10,19-12.16a1.13,1.13,0,0,1,.92-.36c.92,0,1.27.72,1.27,1.57,0,4.16-.11,5.83,2.89,5.83,3.69,0,7.49-.24,11.3-.24h.34c2.19,0,3.13,1,3.13,3.34v4.17c0,2.38-.92,3.33-3.13,3.33H32.37c-4.5,0-9-.24-13.5-.24-2.77,0-2.77,1.2-2.77,5.6,0,4.17,0,5.48,2.77,5.48,4.5,0,9-.24,13.5-.24H44.13c2.2,0,3.13,1,3.13,3.34V91.62c0,2.38-.92,3.34-3.13,3.34H21.06c-4.73,0-9.57-.24-14.3-.24C4,94.72,4,95.91,4,100.55c0,4.41-.12,6,2.65,6,4.85,0,9.58-.36,14.42-.36H84.74c4.84,0,9.57.36,14.3.36,2.77,0,2.77-1.56,2.77-6s0-5.83-2.77-5.83c-4.73,0-9.46.24-14.3.24H62.59c-2.31,0-3.23-1-3.23-3.34V72.68c0-2.39.92-3.34,3.23-3.34H74.47c4.61,0,9.11.24,13.61.24,2.77,0,2.77-1.31,2.77-5.6s0-5.48-2.89-5.48c-4.49,0-9,.24-13.49.24H62.59c-2.31,0-3.23-1-3.23-3.33ZM169.68,16c3.81,0,7.61.24,11.3.24,2.78,0,2.66-1.56,2.66-5s.12-4.88-2.66-4.88c-3.69,0-7.49.24-11.3.24H144c-3.69,0-7.5-.24-11.19-.24-2.77,0-2.65,1.43-2.65,4.88s-.12,5,2.65,5c3.69,0,7.5-.24,11.19-.24ZM147.19,32.89A2.61,2.61,0,0,1,149.52,30H163.8a2.72,2.72,0,0,1,2.78,2.64,1.55,1.55,0,0,1,0,.22V34.2A2.7,2.7,0,0,1,164,37.06H149.79a2.6,2.6,0,0,1-2.67-2.54,1.77,1.77,0,0,1,0-.32Zm29.64-2.6c0-1.56.11-3,.11-4.41,0-3.81-2.42-4.64-5.53-4.64-2.66,0-5.31.12-8,.12H150.07c-2.66,0-5.31-.12-8-.12-3.13,0-5.54.83-5.54,4.52,0,1.44.12,2.74.12,4.53V37c0,1.66-.12,3.1-.12,4.4,0,3.81,2.42,4.65,5.54,4.65,2.65,0,5.3-.24,8-.24h13.36c2.65,0,5.3.24,8.07.24,3.13,0,5.42-1,5.42-4.65,0-1.43-.11-2.86-.11-4.4ZM151.4,92.09c0,3.34-.22,6.55-.22,9.77s.69,3.45,4.49,3.45c3.58,0,4.5-.24,4.5-3.34,0-3.34-.34-6.67-.23-9.89,0-2.27.81-3.22,3.13-3.34.69,0,1.73.12,2.53.12,2.2,0,2.2-1.19,2.2-3.93V84c0-1.57-.12-3-2-3-2.3,0-4.5.12-6.8.12h-6c-2.3,0-4.49-.12-6.8-.12-1.84,0-2,1.31-2,2.86v1.07c0,2.38-.12,3.93,2.08,3.93a16.28,16.28,0,0,0,2.42-.12c1.84.12,2.65,1,2.65,2.74Zm63-33A3.11,3.11,0,0,1,211.28,56V38.48a3.14,3.14,0,0,1,2.91-3.33h1.26a3.36,3.36,0,0,1,3.23,3.33V55.75a3.36,3.36,0,0,1-3.23,3.34ZM201.7,56.25a2.71,2.71,0,0,1-2.55,2.85h-1.61a2.64,2.64,0,0,1-2.77-2.51,2,2,0,0,1,0-.35V38a2.65,2.65,0,0,1,2.42-2.86,2,2,0,0,1,.35,0h1.39a2.7,2.7,0,0,1,2.77,2.64V56.25ZM198.93,70c2,0,2.77.83,2.77,2.86V89.47c0,2.26-.81,3.45-3,3.69l-9.58,1.07c-.8.12-1.61.12-2.19.24-2.53.24-3.46.36-3.46,1.67a27.38,27.38,0,0,0,1.27,5.12c.92,3.45,1.73,7.39,3,7.39.81,0,1.27-.72,1.61-1.32.47-1.07.81-1.78,1.85-2.14,8.88-1.43,17.88-3.1,26.76-4.77.23,0,.58-.12.81-.12,1.61,0,2.3,1.2,2.65,2.74.58,4.53.46,6.43,2.89,6.43.34,0,7.15-.47,7.15-3.09,0-3-3-16.92-3.81-20.61-1.5-7.51-1.72-8.7-4.72-8.7-1.5,0-6.35.83-6.35,3,0,1,1.39,5.48,1.73,6.91a3.06,3.06,0,0,1,.12,1c0,1.67-1,2.27-2.42,2.61a10.14,10.14,0,0,1-1.73.24h-.58c-1.84,0-2.42-1.2-2.42-2.86V73.24c0-2.38.92-3.33,3.12-3.33h2.09c2.19,0,4.26.12,6.46.12,3.23,0,5.53-.72,5.53-4.53,0-2.38-.11-4.64-.11-7V35.84c0-2.39.11-4.65.11-7,0-3.81-2.19-4.65-5.42-4.65-2.19,0-4.38.12-6.57.12h-1.41c-2.31,0-3.23-1-3.23-3.21V12.74c0-4.17.12-5.37,1.27-6.2.92-.59,1.73-1,1.73-1.79,0-1.07-1.73-1.19-2.42-1.31-1.61-.12-8.53-.71-9.92-.71-1,0-2,.12-2,1.43,0,.36.11.71.11,1a74.16,74.16,0,0,1,.47,8.94v7c0,2.26-1,3.22-3.23,3.22h-.47c-2.19,0-4.39-.12-6.46-.12-3.35,0-5.54.83-5.54,4.64,0,2.38.12,4.64.12,7V66.14c0,2.86-.12,5.73-.12,8.58,0,2.14,1.27,2.14,4.73,2.14,4,0,4.73-.12,4.73-2.5V72.7c0-1.91.8-2.74,2.65-2.74Zm-33.57-6.77a2.72,2.72,0,0,1,2.55-2.86h1.38A2.71,2.71,0,0,1,172.06,63v3a2.71,2.71,0,0,1-2.56,2.85h-1.39a2.72,2.72,0,0,1-2.77-2.64v-.22Zm-8.76-2.76c1.61.11,2.08,1.07,2.08,2.6v.59c0,2.86-.12,5.84-.12,8.7,0,3.57,1.62,4.52,4.85,4.52,1.84,0,3.69-.12,5.42-.12,2.3.12,3.23,1,3.23,3.34V93.16c0,2.85.22,5.35-3.23,5.35-1.39,0-3.92-.24-4.5-.24-1.5,0-1.62,1.67-1.62,2.86a18.72,18.72,0,0,0,.58,4.41c.81,3.45,1.62,3.81,5.08,3.81,9.46,0,13.15-2.15,13.15-10.84,0-2.39-.12-4.89-.12-7.29V63.94c0-2.86.12-5.73.12-8.58,0-3.93-2-4.52-5.31-4.52-2.77,0-5.42.24-8.08.24H145.18c-2.77,0-5.42-.24-8.19-.24-3.23,0-5.08.83-5.08,4.52,0,3,.11,5.84.11,8.7V93.12c0,4.29-.11,8.58-.11,12.87,0,3.22.58,3.45,4.84,3.45,3.81,0,4.73-.24,4.73-3.1,0-4.4-.23-8.81-.23-13.22v-30c0-2,.81-2.86,2.77-2.86h1.27c1.5,0,2.66.71,2.42,2.5a19.8,19.8,0,0,1-4,9.77c-.58.59-1.5,1.56-1.5,2.38,0,1.43,3,4,4.38,4,1.62,0,6.58-6.19,7.73-15.84a2.36,2.36,0,0,1,1.38-2.27A1.43,1.43,0,0,1,156.6,60.42Zm156.55-30c1.27,0,1.84.95,1.84,2.14a124.22,124.22,0,0,1-3.69,23.23c-3.23,12.15-9.69,25.73-15.46,25.73S288.46,70.4,288.46,66a37,37,0,0,1,20.76-34.31,12.73,12.73,0,0,1,3.93-1.31Zm11.08-13.94a48.33,48.33,0,0,0-47.9,48.78c0,.41,0,.83,0,1.25a38.46,38.46,0,0,0,3.58,16.92A18.62,18.62,0,0,0,295.62,94.7a20.53,20.53,0,0,0,15.22-9.17c11.08-13.7,15.1-34.89,16.38-52.29.12-2,.12-4.65,2.77-4.65a20.11,20.11,0,0,1,4.39,1.07,28.92,28.92,0,0,1,18.46,28.47c0,17-11.89,27.28-27,31-1.15.24-2.88.48-2.88,1.67,0,2.6,4.73,10,7.73,10A43.92,43.92,0,0,0,343.26,96a43,43,0,0,0,22.5-38.47,41,41,0,0,0-11.65-29.31,40.31,40.31,0,0,0-29.88-11.78Zm159.41,16.9a34.7,34.7,0,0,0-8.66-6.2c-1.84,0-6.92,6-6.92,7.75,0,1.31,1.28,2.26,2.09,2.85a167.7,167.7,0,0,1,15.34,13.34A4.56,4.56,0,0,0,488,52.52c2.31,0,7.29-5.84,7.29-8.11,0-1.31-5.77-6.31-8.88-8.81C485.49,34.9,484.56,34.08,483.64,33.34ZM429.42,80.51c0,.48.12,1.08.12,1.67,0,.24.23,5.12.23,5.24,0,.48-.12,1-.81,1a2.25,2.25,0,0,1-1.38-.72A27.88,27.88,0,0,0,421.69,84a2.64,2.64,0,0,0-2.53,2.39c0,1,.8,1.66,1.38,2.26a24,24,0,0,1,7,9.28c.92,2,1.73,4.53,4.27,4.53,3.12,0,10.14-2.86,10.14-8.7,0-1.19-.8-11.91-1-14.41-.11-1.67-.34-6.43-.34-7.86a4,4,0,0,1,1.84-3.69A43.85,43.85,0,0,1,462.77,62c6.46,0,13.84,3.69,13.84,11.2,0,8.7-9.81,10.93-16.5,10.93a86.1,86.1,0,0,1-9.46-1.07c-1.73,0-2.08,1.56-2.08,3.1a23.87,23.87,0,0,0,1.84,8.58c.58,1.19,3,1.31,4.85,1.31h1.38a44.74,44.74,0,0,0,23.19-5.36A21.15,21.15,0,0,0,489.05,73c0-14.29-12.34-22.52-25.14-22.52a52.48,52.48,0,0,0-19.15,3.94,10.85,10.85,0,0,1-2.88,1.07c-1.5,0-1.73-2.6-1.73-4.65V49.16c0-5.48.23-6.32,4.5-7.15,8.77-1.56,10.73-1.56,10.73-4.65,0-2-.35-9.76-3-9.76a5.91,5.91,0,0,0-2,.59,75.6,75.6,0,0,1-7.29,2,2.09,2.09,0,0,1-2-2c0-.48.12-1.19.12-1.67.11-1.07.22-2,.34-2.74.34-3.69.46-5.12,2.19-6.55.46-.47,1.16-1.19,1.16-1.9,0-1.07-1.62-1.43-2.31-1.56-2.31-.48-10-2.15-11.77-2.15-1.15,0-1.5.83-1.5,1.79,0,.48.23,3.22.23,5.6,0,3.33-.11,6.67-.23,10a4.89,4.89,0,0,1-.92,3.57A6,6,0,0,1,424.2,34c-3.57.48-7.61.71-11.19.83-2.19.12-2.42.59-2.42,3.81,0,8.7,1.85,8.82,3.34,8.82,1.73,0,9.58-1.44,11.77-1.91.23,0,.47-.12.69-.12A2.57,2.57,0,0,1,428.94,48s0,.11,0,.16v1.19c0,1.79-.11,3.57-.11,5.36v4c0,3.69-.47,3.81-4.85,6.55-6.34,4-12.46,8.33-18.91,12.15-1.39.84-2.66,1.2-2.66,2.5,0,2.39,4.61,11.32,6.92,11.32.58,0,1.27-.6,1.73-1a146.5,146.5,0,0,1,17.07-13.22c1.19.07,1.19,1.26,1.3,3.4ZM547.1,3a2,2,0,0,0-1.84,1.31,90.59,90.59,0,0,1-20,22.27c-.81.72-2.31,1.79-2.31,3.1,0,2.15,4.84,6.77,6.92,6.77,1.16,0,2.54-1.19,3.46-1.9a121,121,0,0,0,20.19-22.16c.92-1.43,1-1.56,2.77-1.67.58,0,1.5-.23,1.5-1.07,0-1.07-1.16-1.78-2-2.26-1.73-.84-3.92-2-5.54-3A7.1,7.1,0,0,0,547.08,3Zm34.49,17c.11-2.26,1.16-3,3.34-3.21h5.54c2.3,0,3.23,1.07,3.23,3.33V30.25c0,2.27-.12,4.41-.12,6.43,0,5.84,1,10.13,9.69,10.13h9.46c6,0,8.77-1,11.19-6.91a46,46,0,0,0,3.23-12.75c0-3.33-7.5-4.29-8.33-4.29-1.5,0-2,.72-2.19,2.15-1.39,9.29-2.54,10.48-5.08,10.48h-3.81c-3.22,0-3.22-2-3.22-5.48V18c0-2,.11-4.05.11-6.2,0-4.16-1-5.47-5.31-5.47-1.72,0-3.46.12-5.2.12H580.39c-1.73,0-3.46-.12-5.3-.12-4.39,0-4.39,2.38-4.5,8.22,0,1.66,0,3.69-.12,6a28.9,28.9,0,0,1-8.65,22c-.69.71-1.73,1.56-1.73,2.6,0,2.27,5.88,6.2,7.29,6.2,3,0,7.84-7.15,9.34-9.65A42.43,42.43,0,0,0,581.57,20Zm1.16,48a1.66,1.66,0,0,1-.35-1.07c0-1.31,1-1.67,2.08-1.79h13.27c2.66,0,4.17.12,4.17,1,0,1.78-7,9-8.54,10.6a3.24,3.24,0,0,1-2.19,1.07A3.15,3.15,0,0,1,589,76.59,51,51,0,0,1,582.72,68Zm5.76,27.87a4.26,4.26,0,0,1,2.43-.83,5.15,5.15,0,0,1,2.53,1,83.35,83.35,0,0,0,21,11.2,29.63,29.63,0,0,0,5.07,1.44c3.35,0,6.46-7.29,6.46-8.94s-1.72-2.26-3.12-2.6A74.77,74.77,0,0,1,603,88.28a2.4,2.4,0,0,1-1.27-1.9,2.8,2.8,0,0,1,.92-2c3.47-3.45,15.81-17.15,15.81-21.8,0-1.91-3.23-8.58-7.85-8.58-2.3,0-6.46.24-10.14.24H575.94c-4.17,0-8.42-.24-12.69-.24-2.77,0-2.66,1.32-2.66,5.73,0,4.65,0,5.84,2.77,5.84.92,0,1.84-.12,2.89-.12,2.08.12,2.77,1.07,3.57,2.86a68.18,68.18,0,0,0,9.92,15.36,3.17,3.17,0,0,1,.81,1.91,2.47,2.47,0,0,1-1.27,2.14,97,97,0,0,1-21.92,9.53c-1.27.36-3.46.84-3.46,2.61a13.3,13.3,0,0,0,2.08,5.35c1,1.67,2.09,3.58,4.17,3.58a35.84,35.84,0,0,0,7.5-2.27A108.56,108.56,0,0,0,588.48,95.9Zm-40.85-43.8c7.29-9,5.65-7.38,11.76-15.84a2.83,2.83,0,0,1,2.66-1.56c.69-.12,1.73-.48,1.73-1.43s-1.39-1.79-5-3.34a46.09,46.09,0,0,0-6.47-2.86c-1,0-1.38.71-2,1.79a134.69,134.69,0,0,1-25.14,30.49c-1.27,1.07-2.77,2-2.77,3.69,0,2.27,4.27,7.39,6.25,7.39,1.5,0,3.57-1.91,5.07-3.46.58-.59.92-1.07,1.73-1.07s1.16.72,1.16,1.56V91c0,5-.23,9.89-.23,14.77,0,3.34,1.38,4,6.11,4,4.5,0,6-.59,6-3.81,0-5-.23-10-.23-15V63.75c0-3.22.11-5.47,1.27-6.19.81-.48,1.84-1,1.84-2,0-1.43-1.84-1.56-2.88-1.67-.69-.11-1.16-.35-1.16-1.07A1.09,1.09,0,0,1,547.66,52.08Zm144.43,30c0-3-3.12-16.92-3.92-20.49a188.14,188.14,0,0,0-5.88-20.25,2.88,2.88,0,0,0-2.88-1.9,19.17,19.17,0,0,0-5.08,1.07c-1.5.48-3.46,1.07-3.46,3.1a12.46,12.46,0,0,0,.8,3.45,202.22,202.22,0,0,1,8.89,35c.46,2.5.46,4.29,3.34,4.29C685.85,86.37,692.09,85.41,692.09,82.08Zm29.07-42.29a354.14,354.14,0,0,1-12.46,50c-.69,2.27-1.84,2.86-4.16,2.86H667.4c-4.61,0-9.11-.36-13.73-.36-3,0-2.77,1.56-2.77,6.2s-.23,6.19,2.77,6.19c4.62,0,9.12-.23,13.73-.23h68.17c4.62,0,9.11.23,13.73.23,2.88,0,2.77-1.56,2.77-6.19s.11-6.2-2.77-6.2c-4.62,0-9.11.36-13.73.36H722.19c-1.27-.12-2.42-.59-2.42-2.14a2.24,2.24,0,0,1,.23-.84c1.84-5.59,3.58-11.2,5.3-16.79,2.77-9.18,5-18.47,7.5-27.76.35-.83.58-1.07,2-1.43.81-.24,1.5-.48,1.5-1.57s-1.27-1.43-2.08-1.78A94.64,94.64,0,0,0,723,37.15c-1.38,0-1.62,1.45-1.85,2.65ZM707.67,12.63c0-3.34.11-4.88,1.5-5.84.92-.59,1.61-.83,1.61-1.66,0-1.56-2.19-1.56-3.23-1.67a103.3,103.3,0,0,0-10.38-.83C696,2.63,695,2.87,695,4.3c0,.35.11.83.11,1.19a100,100,0,0,1,.47,10.24V18c0,2.39-.92,3.34-3.23,3.34H672.61c-4.5,0-8.89-.24-13.39-.24-3,0-2.77,1.43-2.77,6.2,0,4.52-.23,6.08,2.77,6.08,4.5,0,8.89-.24,13.39-.24h58.22c4.5,0,9,.24,13.39.24,3,0,2.77-1.57,2.77-6.08,0-4.77.22-6.2-2.77-6.2-4.5,0-8.89.24-13.39.24h-20c-2.2,0-3.23-.95-3.23-3.34ZM817.82,7.27c-1.84,0-1.72,2.61-2,4.29a118.84,118.84,0,0,1-2.42,15.13c-1,2.5-2.31,2.86-10.5,2.86-4.61,0-11.42-.48-13-.48-.58,0-2.42-.12-2.42,3a36.73,36.73,0,0,0,1.27,7.86,2.73,2.73,0,0,0,3,2.39c2.31,0,11.31-1.08,14-1.2.7,0,1.73-.12,2.43-.12A1.68,1.68,0,0,1,810,42.5a2.44,2.44,0,0,1,0,.27,13.78,13.78,0,0,1-.58,3,122.47,122.47,0,0,1-6.34,19.78,17.22,17.22,0,0,0-1.62,5.25c0,3.33,6.58,6.67,9.23,6.67,1.39,0,2.42-1.57,3.23-2.61A37.59,37.59,0,0,1,841.83,60a11.46,11.46,0,0,1,11.46,11.46c0,.31,0,.62,0,.93,0,15.72-18.34,19.3-30.33,19.3-4.39,0-7.84-.84-9.34-.84a2.34,2.34,0,0,0-2.43,2.25v.25a38.16,38.16,0,0,0,1.5,7.86c.7,2.5,1.27,3.1,5.08,3.1a102.29,102.29,0,0,0,24.11-3.34c13.38-3.69,23.3-12.86,23.3-27.87,0-14.65-9.23-24.66-23.43-24.66a36.34,36.34,0,0,0-20.19,6.43,2.36,2.36,0,0,1-1.27.48c-.81,0-1.15-.36-1.15-1.07a6.86,6.86,0,0,1,.34-2.15c.69-2.6,1.27-4.76,1.61-6.43,1.39-5.59,1.5-6.43,5.31-6.91,6.46-.71,20.07-2.85,26.3-4.05,2.88-.59,4.16-.95,4.16-2.86a39.17,39.17,0,0,0-1-7.38c-.46-1.66-.69-3.34-2.19-3.34a9.38,9.38,0,0,0-3.12.84,120.75,120.75,0,0,1-22.27,5.24,1.79,1.79,0,0,1-2-1.61,1.09,1.09,0,0,1,0-.18,13.78,13.78,0,0,1,.69-3c.34-1,.46-1.67.69-2.39a7.83,7.83,0,0,1,2.43-4.88,2.28,2.28,0,0,0,1-1.79c0-2.64-12.13-6.1-13.29-6.1ZM919.1,89.7c0,5.25-.23,10.49-.23,15.73,0,3.1,1.16,4.16,5.89,4.16,4.27,0,5.88-.59,5.88-3.81,0-5.36-.23-10.72-.23-16.08V13.59c0-3.45.12-5.48,1.39-6.55.69-.59,1.61-1.19,1.61-2.15,0-1.56-2-1.66-3-1.78-2-.24-7-.71-8.88-.71s-2.66.35-2.66,2.14c0,.71.23,8.33.23,13.94Zm-9.94-65.63c-1.61,0-1.73,1.07-1.84,4.05-.11,1.07-.11,2.39-.23,4.05a112.52,112.52,0,0,1-4.38,21.44,5,5,0,0,0-.23,1.44c0,2.38,4,3.81,6,3.81s2.88-1.19,4.72-10.94c1.27-6.31,1.62-10.72,2.42-16.91a2.61,2.61,0,0,1,1.62-2.5c.46-.36,1-.84,1-1.43,0-1.57-2.08-1.79-4.27-2.15A34.43,34.43,0,0,0,909.16,24.07Zm51.45,53.85a2,2,0,0,1,1.78-2.26,1.88,1.88,0,0,1,.41,0h21.11a2,2,0,0,1,2.2,1.86,1.89,1.89,0,0,1,0,.41v.71A2.13,2.13,0,0,1,984.24,81a1.82,1.82,0,0,1-.33,0H962.8A2.13,2.13,0,0,1,960.59,79a1.83,1.83,0,0,1,0-.33Zm2.19-10.13a2.14,2.14,0,0,1-2.21-2.05,1.94,1.94,0,0,1,0-.34v-.59a2,2,0,0,1,1.78-2.26,2.81,2.81,0,0,1,.41,0h21.11a2,2,0,0,1,2.2,1.86,1.88,1.88,0,0,1,0,.41v.59a2.13,2.13,0,0,1-1.86,2.37,1.83,1.83,0,0,1-.33,0Zm23.3,25.84c0,4.3-.34,4.53-5.21,4.53-1.61,0-3.23-.24-5-.24s-2.08,1.67-2.08,3.93c0,6.77,2.3,7.5,8.19,7.5,12.46,0,15.8-1.78,15.8-12.15,0-3-.23-5.84-.23-8.69V69.79c0-3.34.23-6.55.23-9.9,0-4.64-1.15-6.19-5.77-6.19-2.88,0-5.77.12-8.65.12h-20c-2.88,0-5.77-.12-8.65-.12-4.61,0-5.65,1.66-5.65,6.31,0,3.34.23,6.55.23,9.9V90.52c0,4.88-.35,9.89-.35,14.89,0,3.93,1.5,3.93,6.12,3.93s5.77-.12,5.77-4.41-.35-8.57-.23-12.74c0-2.39.92-3.34,3.23-3.34H983c2.19,0,3.12,1,3.12,3.34ZM957,12.28c-3.81,0-7.5-.12-11.3-.12-2.54,0-2.43.95-2.43,4.4s0,4.53,2.43,4.53c3.69,0,7.49-.24,11.3-.24h8.3c1.62,0,2.2.59,2.2,2.26v1c0,1.56-.58,2.26-2.2,2.26h-4.61c-3.8,0-7.61-.24-11.53-.24-2.54,0-2.42.83-2.42,4.05s-.12,4,2.42,4c3.92,0,7.73-.24,11.53-.24h4.61c1.62,0,2.2.72,2.2,2.39v1.19c0,1.67-.58,2.27-2.2,2.27h-9.11c-10.84,0-11.19.24-11.65-2.27a86.9,86.9,0,0,0-3.23-10.36c-1.84-5.24-2.42-7.29-4.38-7.29-1,0-5.31,1.19-5.31,3.22a6.07,6.07,0,0,0,.58,1.9,110.77,110.77,0,0,1,3.92,13.46c.46,1.91.58,3.22,3,3,1.15,0,1.84.36,1.84,1.67,0,4.4-.11,5.36,2.54,5.36,4.27,0,8.42-.24,12.69-.24h35.4c4.27,0,8.42.24,12.69.24,2.54,0,2.42-1,2.42-4.41s.12-4.52-2.42-4.52c-4.27,0-8.42.24-12.69.24H981.13c-1.5,0-2.09-.6-2.09-2.27V36.2c0-1.56.58-2.27,2.2-2.27h5.88c3.81,0,7.61.24,11.53.24,2.54,0,2.42-1,2.42-4.05s.12-4.05-2.3-4.05c-3.92,0-7.84.24-11.66.24h-6c-1.5,0-2.09-.71-2.09-2.26v-1c0-1.66.58-2.26,2.2-2.26h9.22c3.81,0,7.61.24,11.42.24,2.31,0,2.31-1.08,2.31-4.53s.11-4.4-2.42-4.4c-3.81,0-7.5.12-11.31.12h-8.19c-2.19,0-3.23-.72-3.12-3.1a2.63,2.63,0,0,1,1.41-2.38c.58-.35,1.5-.83,1.5-1.78s-1.15-1.19-2-1.31c-1.38-.24-9.57-.84-10.93-.84-1.15,0-2.09.24-2.09,1.79a2,2,0,0,0,.12.83l.34,3.69c-.11,2.27-1,3.1-3.23,3.1Zm155.16,63.84a60.87,60.87,0,0,1-5-13.22v-.83c0-1.67,1.16-2.26,2.54-2.26h6.46c2,0,3.23.24,3.23,2.14a47.64,47.64,0,0,1-4.27,13.94c-.35.59-.69,1.19-1.5,1.19s-1-.48-1.51-1Zm-15.8,20.61c-.11-2.14-.11-4.4-.11-6.67v-28c.11-1.19.34-1.9,1.5-2.14a1.12,1.12,0,0,1,.8,1,72.19,72.19,0,0,0,8,24.42,5.75,5.75,0,0,1,.7,2.5,4.07,4.07,0,0,1-1,2.5,57.45,57.45,0,0,1-7.62,7.5,1.57,1.57,0,0,1-1,.36c-.82,0-1.16-.59-1.16-1.43Zm20.19,2.61c2.08,2.26,9.8,9.64,12.69,9.64,2.53,0,5.07-5.59,5.07-8.33,0-1.19-.57-1.56-1.5-2.14a52.74,52.74,0,0,1-10.49-8.46,4.79,4.79,0,0,1-1.16-2.74,5.56,5.56,0,0,1,.58-2.26,91.79,91.79,0,0,0,7.61-20.61,59.75,59.75,0,0,0,1.5-8.82,6.93,6.93,0,0,0-1.61-4.4,6.36,6.36,0,0,0-5.31-1.91c-2.65,0-5.42.12-8.07.12h-16.38c-2.31,0-3.23-1-3.23-3.33V21.92c0-2.27.92-3.34,3.23-3.34h14.18c2.2,0,3.23,1.07,3.23,3.34v7.14c0,3.46-.58,4.65-4.27,4.65-1.5,0-3-.24-4.27-.24-1.84,0-2.08,1.07-2.08,2.6,0,7.87,2,8.94,6,8.94a26.35,26.35,0,0,0,11.3-2.39c3.81-1.9,4.39-5.12,4.39-9.17,0-2.6-.12-5.36-.12-8V21.89c0-3.21.23-5.72.23-7.74,0-4.88-.92-6.67-6.11-6.67-2.66,0-5.21.24-7.84.24h-15.58c-2.42,0-4.84-.24-7.29-.24-4.27,0-6,1.43-6,5.84,0,3.57.22,7.15.22,10.6V90.05c0,5.47-.34,10.84-.34,16.2,0,3.45,1.15,3.45,5.65,3.45s5.65,0,5.65-3.34v-1.17c.12-.48.35-1,.93-1a1.21,1.21,0,0,1,.8.36c1,1.19,3,3.1,4.62,3.1,2.53,0,8-6.2,9.8-8.33a3,3,0,0,1,2-1.08,2.78,2.78,0,0,1,2,1.07Zm-54.92-55.26c1.27.12,2.42.59,2.42,2.15,0,.36-.12.71-.12,1-1,3.1-2,6.2-3.34,9.29a4,4,0,0,1-4.38,2.74h-5.91c-.58-.12-.58-.36-.58-.48s.11-.36.34-.6c.92-.35,2-1,2-2.14a54.47,54.47,0,0,0-2.54-7.38,12.76,12.76,0,0,1-.69-1.67,2.11,2.11,0,0,1-.23-.95c0-1.32.92-1.79,2.08-1.91Zm12.22,5.73a1.92,1.92,0,0,1,1.62-1.19c.69-.12,1.61-.24,1.61-1.2,0-1.19-1.27-1.66-3.12-2.26a.47.47,0,0,1-.23-.48.43.43,0,0,1,.38-.48h.08c1.84.12,3.69.24,5.54.24,2.88,0,2.77-1.56,2.77-5.48s.11-5.47-2.77-5.47c-4,0-8,.23-12,.23h-2.08c-2.31,0-3.23-1.07-3.23-3.33v-2c0-2.38.92-3.34,3.23-3.34,3.22-.12,6.46.24,9.8.24,2.77,0,2.66-1.66,2.66-5.47,0-4,.11-5.48-2.77-5.48-3.23,0-6.47.36-9.69.24-2.2,0-3.23-1-3.23-3.34s.11-3.69,1.27-4.64c.81-.6,1.38-1,1.38-1.67,0-1.31-1.61-1.43-2.53-1.56-1.62-.24-8.08-.84-9.46-.84-1,0-1.85.24-1.85,1.57V5.26a55.68,55.68,0,0,1,.46,6.2c-.23,2.26-1.15,3.09-3.23,3.09-3.34.12-6.69-.24-10-.24-2.88,0-2.77,1.57-2.77,5.48s-.23,5.48,2.77,5.48c3.34,0,6.69-.36,10-.24,2.31,0,3.23.95,3.23,3.34v2c0,2.27-.92,3.34-3.23,3.34h-2.65c-3.92,0-8-.24-11.88-.24-3,0-2.88,1.56-2.88,5.48s-.12,5.48,2.88,5.48c1.84,0,3.58-.24,5.42-.24a.52.52,0,0,1,.47.48c0,.23-.12.35-.35.47-.7.48-1.5,1.08-1.5,2a59.71,59.71,0,0,0,3,7.86c.23.48.34,1,.46,1.19a2.93,2.93,0,0,1,.23,1c0,1.31-.92,1.78-2.08,1.9s-2.54-.12-3.93-.12c-2.88,0-2.77,1.57-2.77,5.48,0,3.69-.22,5.48,2.77,5.48,3.47,0,6.92-.36,10.5-.36h1.85c2.19,0,3.22,1.07,3.22,3.34v2.74c0,2.38-1,3.33-3.22,3.33h-.33c-3.34,0-6.69-.24-10-.24-2.89,0-2.77,1.79-2.77,5.48,0,4,0,5.6,2.88,5.6,3.35,0,6.69-.24,9.92-.24h.35c2.19,0,3.22,1,3.22,3.22.12,4.4-.34,8.81-.34,13.1,0,3.69,1.16,3.81,5.77,3.81s5.77-.12,5.77-3.69c0-4.4-.34-8.81-.23-13.22.11-2.26.92-3.22,3.12-3.22h1c3.34,0,6.69.24,10,.24,2.88,0,2.77-1.78,2.77-5.59s.11-5.48-2.77-5.48c-3.34,0-6.69.24-10,.24h-1c-2.19,0-3.12-1-3.12-3.34V72.91c0-2.26.92-3.34,3.12-3.34h2.31c3.46,0,6.92.36,10.5.36,3,0,2.88-1.56,2.88-5.59,0-3.82.12-5.37-2.88-5.37-1.62,0-3.35.12-5.08.12-1.15,0-2.08-.48-2.08-1.78a3.54,3.54,0,0,1,.23-1s1.7-4.41,2.62-6.55Z"/></g></g></svg>