<svg xmlns="http://www.w3.org/2000/svg" viewBox="0 0 975.61 235.09"><defs><style>.cls-1{fill:#87d8ca;}.cls-2{fill:#444;}</style></defs><g id="レイヤー_2" data-name="レイヤー 2"><g id="レイヤー_1-2" data-name="レイヤー 1"><path class="cls-1" d="M97.81,145.22c-.15.48-5.25,11-23.1,11.31-3.51,0-3.66.32-3.51.64A69.25,69.25,0,0,0,74.55,165c2.23,4.62,8.29,14.5,3.51,21.19a10.29,10.29,0,0,1-8.29,3.51c-6.37-.48-12.27-3-18.32-4.62-9.57-2.55-21.68-4.78-31.71-1.12-6.06,2.39-12.75,7.81-11,15.78,2.71,9.72,16.25,12.43,25.18,13.22a135,135,0,0,0,33.78-.79c6.53-.8,7.49,9.4,1.12,10.19h-.16a143.5,143.5,0,0,1-36,.17C21,220.59,3.48,215.65.93,201.15c-2.07-11,6.06-20.39,16.9-23.42,14.49-4,30.59-.32,45.25,3.82,5.58,1.44,8,.16,7.17-2.71-.32-.8-2.07-5.1-4.46-10-1.76-4-3.35-7.81-4.94-11.64a1.06,1.06,0,0,0-.8-.64H8.42a3.33,3.33,0,0,1-3.34-3.18c0-2.39,1.91-3,3.66-3.51,4.94-1.28,37.93-10.67,29.64-21.35-5.26-6.85-19.92-4.94-32.35-4.14-5.42.47-6.21-8.13-.64-8.45,12.28-.79,41.12-2.23,40.16,15.94-.48,9.08-10.68,13.7-19.6,17.21a.48.48,0,0,0,.16.95H57.5c.32,0,.48-.31.48-.64-4.94-13.38-8.29-26.61-9.24-40,0,0-.16-2.23-.32-3.51-.32-6.21,8.92-7,9.88-.64v.17c0,14.18,3.82,28.52,9.72,44,0,.48.48.64.8.64h6.37c12.75,0,16.57-7.33,16.73-7.65C93.68,138.69,99.73,141.4,97.81,145.22Z"/><path class="cls-1" d="M242.68,210.71c-9.08,11.32-23.58,18.17-36.81,11.8a19.77,19.77,0,0,1-10-12.59c-1.76-6.06-.64-12-1-17.69-.48-9.4-5.42-17.21-14.5-15.14-8.29,1.91-13.07,5.9-18.17,12.59-6.53,8.44-12.59,19.44-17.2,28.2a31.22,31.22,0,0,1-2.4,4.79c-3.82,6.05-13.22,1.11-9.56-4.79-.32.48,19.6-28,32.51-52.58,10.2-19.12,16.89-32.67,18-56.57.48-6.85,10.83-7,10.83-.16,0,2.71,0,4.15-.16,6.05-1.91,20.88-11.15,38.89-22.31,58a.87.87,0,0,0,1.28,1.11,22,22,0,0,1,5.89-2.39c14.67-2.87,23.9,7.81,24.54,20.56.32,6.05-.16,11,1.44,15.14a10.48,10.48,0,0,0,7.81,6.85c9.08,1.44,16.89-2.71,22.78-9.08,8.77-9.72,14.34-22.79,17.21-35.06.8-3.18,6.05-1.59,5.1,1.44C255.11,185.54,251.45,199.56,242.68,210.71Z"/><path class="cls-1" d="M400.54,197.49c-9.4,3.66-18.32,4.46-27.57,4.46a.94.94,0,0,0-1,.48,62.37,62.37,0,0,1-25.18,25c-2.87,1.76-5.42-2.7-2.87-4.62,7.81-6,14.18-12.27,18.64-20.39l.64-1.28a.85.85,0,0,0-.48-.79c-14.82-4-24.38-15.78-27.88-29.65l-.32-1.9c0-.33-.64-.48-.8-.16-5.25,7.49-8.44,12.11-14.18,25.33-.64,1.28-1.12,2.39-2.39,3a4.61,4.61,0,0,1-6.22-2.23c-10.51-21-9.24-44-8.28-66.93.32-6.69,10.67-6.21,10.36.48-1.44,13.7-3,26.77-1.12,39.68a70.5,70.5,0,0,0,4.15,15.13,1.64,1.64,0,0,0,2.86.16c4.62-9.39,7.49-14.49,13.87-22.62a1.48,1.48,0,0,0,.47-1.12,58.62,58.62,0,0,1,0-7.8c.8-12.91,3.19-25.82,11.32-35.22,4.3-5.26,10.67-8.45,17.21-7,7.49,1.76,11.63,7.5,14.82,13.39a55.41,55.41,0,0,1,2.39,6.53c0,.48.32.64.79.64,7-1.75,14.82-2.39,22.79-.16a32.78,32.78,0,0,1,21,19.92C431,169.44,418.39,190.63,400.54,197.49Zm-62.31-44.14a.54.54,0,0,0,.8.47,92.57,92.57,0,0,1,30.91-20.71.54.54,0,0,0,.49-.8,26.45,26.45,0,0,0-1.6-6c-1.91-4.46-4.62-8.45-8.76-9.56-8-2.71-15.62,9.88-17.85,15.14a57.39,57.39,0,0,0-4,20.08Zm33.31-13.23c0-.48-.32-.63-.64-.48-12.59,5-24.06,12.91-31.87,22.47a1.52,1.52,0,0,0-.32,1.12c2.71,15.3,12.27,28.2,26.93,31.07a.88.88,0,0,0,.8-.48c6.69-16.57,7.17-34.9,5.42-51.47Zm28.52-2.71c-5.74-2.23-12.43-2.23-18.8-.95-.32.16-.64.47-.48.79,2.87,21.83,2.39,39.84-4.94,57.05-.16.32.16.64.48.64a54.86,54.86,0,0,0,20.39-5.58c13.07-6.53,21-22.47,17.22-36.17A24.18,24.18,0,0,0,400.06,137.41Z"/><path class="cls-1" d="M529.59,215.81a116.64,116.64,0,0,1-25.65,12.43c-3.19,1.43-5.1-3.18-2.39-4.78a135.57,135.57,0,0,0,23.58-14c10.67-7.81,19.44-17.53,22.79-30.12,1.91-8.12,1.28-17.84-4.46-24.38-7-7.17-14.35-7.81-24.55-7.33-4.14.16-8.6,1.28-12.74,1.59-7.17.8-15.62.16-20.24-4.3-5.74-5.41-5.74-15.29.64-20.39,6.05-4.94,12.91-5.58,22.79-6.86,2.71-.31,6.21-.63,10.67-1,2.39-.16,2.87-1.44.48-2.23-8-2.71-13.54-6.38-20.08-11.32-4.46-1.91-.95-7.32,2.71-4.62A78.3,78.3,0,0,0,539,111.12c6,.48,5.74,9.72-.32,9.24-8.29-.15-16.26.48-24.54,1.12-10.84.8-17.69,1.43-23.91,7.33-2.71,3.34-2.87,8.6,0,11.47,2.08,2.07,8.13,3.35,15.3,2.55,3.66-.32,8.29-1.27,13.07-1.59,14.18-1,21-.16,30.75,7.65,9.57,8.28,11.8,21.51,9.08,32.82C554.13,196.69,542.82,207.69,529.59,215.81Z"/><path class="cls-1" d="M742.47,223.62c0,3.51-1.45,5.26-4.79,5.26-1.43,0-4.46-2.07-9.24-6.06-8.92-7.48-21.2-15.77-37-24.53-14.82,18-40,29.15-75.21,33.46a2.82,2.82,0,0,1-3-1.75c-.63-1.12.16-2.08,1.92-2.4,31.55-5.73,54.17-17,67.88-33.78a338.64,338.64,0,0,0-38.73-16.73c-1.91,3.51-4,7.65-6.52,12.27a2.19,2.19,0,0,1-3.2,1.27l-4.14-1.43c-1.6-.64-2.07-1.75-1.28-3.19,8.13-14.18,15.94-30.75,23.75-49.55l1.43-3.35H614.5a3,3,0,0,1-3-1.75c-.64-1.28.16-2.23,2.23-2.23h42.23c5.25-13.55,9.4-25.82,12.74-36.49a2.43,2.43,0,0,1,3-1.76c8.29,1.6,12.43,3.35,12.43,5.42,0,1.43-2.55,2.71-7.49,3.83-3.34,10.67-6.85,20.39-10.51,29h65.48l7.5-9.88c1-1.44,2.23-1.6,3.5-.32,3.35,3.51,6.06,6.53,8.45,9.4.95,1.11.95,2.07.32,3.51-.48.95-1.43,1.27-2.71,1.27H719.2c-4.62,22.31-12.27,41.75-23.11,58.32C727,205.29,742.47,216,742.47,223.62Zm-33.78-90.51H664.54c-5.26,13.07-11.32,26.29-18.16,40.16a416.45,416.45,0,0,1,41.11,14.5A164.56,164.56,0,0,0,708.69,133.11Z"/><path class="cls-1" d="M846.83,168.48V220c0,8-5.43,12.12-15.94,12.75-1.6.16-2.23-.63-2.87-2.07-.64-1.91-2.23-3.5-4.94-4.46q-4.3-1.66-18.17-3.83a2.65,2.65,0,0,1-2.23-2.86c0-1.12,1-1.76,2.55-1.6q18.16,1.44,25.34,1.44c4,0,6.06-1.75,6.06-5.1V168.48H772.56a2.73,2.73,0,0,1-2.86-2.07c-.32-1.11.48-1.91,2.39-1.91H836v-26c0-1.6,1-2.39,2.56-2.39,2.07.16,3.82.32,5.58.63a198,198,0,0,0,28.2-23.89H792.65a2.8,2.8,0,0,1-2.88-1.92c-.47-1.27.48-2.07,2.24-2.07h80.31l5.41-6.21a2.44,2.44,0,0,1,3.67-.32c6.85,5.57,10.36,9.08,10.36,10.83,0,.8-.8,1.43-2.23,1.92l-5.74,1.43A311.53,311.53,0,0,1,850,138.05c1.59.64,2.55,1.44,2.55,2.07,0,1.12-2.23,2.55-6.53,4.14V164.5H891l7.81-9.72c1-1.43,2.23-1.59,3.51-.32a96.79,96.79,0,0,1,8.44,9.09,2.48,2.48,0,0,1,.32,3.34,2.89,2.89,0,0,1-2.87,1.59Z"/><path class="cls-1" d="M956.92,198.29c6.37,4,9.72,9.4,9.72,17.05A19.73,19.73,0,0,1,938.11,233c-7.64-3.82-11.31-9.72-11.31-17.68,0-7.33,3.19-12.91,9.4-16.9a19.24,19.24,0,0,1,10.36-3.18A19.58,19.58,0,0,1,956.92,198.29Zm-20.72,7.16a13.14,13.14,0,0,0-3.83,9.89,14.52,14.52,0,0,0,2.24,7.48,13.55,13.55,0,0,0,12.11,6.7A13.13,13.13,0,0,0,956,226a13.72,13.72,0,0,0,5.1-10.67,13.88,13.88,0,0,0-6.06-11.8,14.17,14.17,0,0,0-18.8,1.91Z"/><path class="cls-2" d="M46.77,19.76c.52.26.58.68.16,1.1a12.52,12.52,0,0,0-1.26,1.78.72.72,0,0,1-1.11.32A66.24,66.24,0,0,1,23.79,4.13,55.25,55.25,0,0,1,1.28,25.21.88.88,0,0,1,.13,25c-.27-.31-.11-.68.36-.94A58.88,58.88,0,0,0,22,.55.92.92,0,0,1,23.06,0C25.63.77,26.94,1.34,26.94,2c0,.42-.79.74-2.36.9A69.4,69.4,0,0,0,46.77,19.76Zm-22.09-.37v8H37l2-2.67a.69.69,0,0,1,1.15-.11,22.84,22.84,0,0,1,2.57,2.52.9.9,0,0,1,.16,1.1,1,1,0,0,1-1,.47H24.68V43.94H38.54L40.84,41A.69.69,0,0,1,42,41l.36.32c.74.78,1.52,1.62,2.2,2.41a.88.88,0,0,1,.06,1.16,1,1,0,0,1-.89.42H2.86a.94.94,0,0,1-.95-.64c-.21-.42.11-.68.73-.68h19V28.67H5a1,1,0,0,1-1-.62c-.16-.42.16-.69.73-.69H21.59v-8H13.72a.92.92,0,0,1-1-.63c-.16-.42.16-.63.74-.63H29l1.89-2.31a.72.72,0,0,1,1.16-.1c.68.63,1.47,1.42,2.31,2.31a.8.8,0,0,1,.15,1.1c-.1.21-.36.26-.78.26ZM9.26,31.14c4.19,2.73,6.29,5.46,6.29,8.13,0,1.52-.68,2.26-1.94,2.26-.89,0-1.47-.74-1.73-2.2a16.77,16.77,0,0,0-3.57-7.14c-.31-.42-.36-.73-.1-1A.75.75,0,0,1,9.26,31.14Zm21,10a58.24,58.24,0,0,0,4.3-9.76c.22-.58.64-.73,1.11-.47,2.47,1.05,3.72,1.94,3.72,2.63,0,.42-.73.68-2.15.73a53,53,0,0,1-5.88,7.66c-.31.42-.68.47-1,.2S30,41.53,30.24,41.11Z"/><path class="cls-2" d="M72.1,4.28,74,1.81a.71.71,0,0,1,1.15-.1A20.38,20.38,0,0,1,77.29,4a.8.8,0,0,1,.06,1.1,1,1,0,0,1-.9.47H53.16A.92.92,0,0,1,52.22,5c-.16-.42.16-.68.79-.68Zm.84,27.6H68.43a2.4,2.4,0,0,1-2.73-2.73V24.53H63.24c-.16,4-1.84,7.08-5.1,9A.83.83,0,0,1,57,33.29c-.16-.26-.05-.52.31-.89a10.53,10.53,0,0,0,3.31-7.87H56.36V46.41a.77.77,0,0,1-.84.84h-1.2a.73.73,0,0,1-.79-.84V22.7c0-.58.37-.9.94-.63A21.14,21.14,0,0,1,57,23.22H72.52l1.15-1.42a.79.79,0,0,1,1.16-.1c1.57,1.26,2.31,2,2.31,2.41a.7.7,0,0,1-.37.63l-1.1.73V42.84c0,2.2-1.16,3.46-3.46,3.73-.53,0-.79-.21-.9-.74a1.5,1.5,0,0,0-.63-1A10.38,10.38,0,0,0,67.8,44a.86.86,0,0,1-.73-.9c0-.36.31-.52.89-.47a23.91,23.91,0,0,0,3.51.21,1.28,1.28,0,0,0,1.47-1.47ZM70,10.31,71.21,8.9a.8.8,0,0,1,1.2-.11c1.42,1.21,2.16,2,2.16,2.36a.73.73,0,0,1-.37.58l-1.1.68v7.14c0,.58-.27.84-.79.84H71.16c-.58,0-.84-.26-.84-.84v-1.1H58.93v1.2c0,.58-.26.84-.79.84h-1.2c-.58,0-.84-.26-.84-.84V9.89c0-.57.37-.84.94-.63a19,19,0,0,1,2.52,1.05ZM65.44,36.08v7.5a.75.75,0,0,1-.84.84h-.89a.73.73,0,0,1-.84-.84v-7.5H59.19a.94.94,0,0,1-.94-.58c-.21-.42,0-.74.68-.74h8l1.21-1.47a.71.71,0,0,1,1.15-.1,12.73,12.73,0,0,1,1.47,1.47.88.88,0,0,1,.1,1.15c-.1.16-.37.27-.84.27ZM58.93,11.62v5.52H70.32V11.62Zm9.34,12.91v3.83a1.14,1.14,0,0,0,1.31,1.31h3.36V24.53Zm18-13.43V1.24a.73.73,0,0,1,.89-.79c2.73.21,4.09.63,4.09,1.26,0,.42-.68.89-2.1,1.36v8h4.2l1.42-1.73c.37-.47.74-.47,1.21,0,1.52,1.36,2.25,2.25,2.25,2.62s-.21.47-.52.68l-1.05.63v15.9c0,.52-.26.78-.84.78H94.66a.69.69,0,0,1-.78-.78V27.21H89.2V39.85C92,39.38,94,39,95.34,38.7a34.26,34.26,0,0,0-2.41-5.3c-.26-.47-.21-.84.26-1.1.21-.16.53,0,.89.31C98,36.91,100,40.74,100,44.05c0,1.57-.63,2.31-1.88,2.31-1,0-1.58-.79-1.63-2.36a15.34,15.34,0,0,0-.74-3.84.37.37,0,0,0-.31.11,124.75,124.75,0,0,1-15,3.83c-.32,1.31-.63,2-1,2-.79,0-1.47-1.32-2-3.84a.7.7,0,0,1,.68-1c3.1-.32,5.67-.69,7.72-.9l.47,0V27.21H81.81v3A.74.74,0,0,1,81,31H79.76a.7.7,0,0,1-.79-.79V10.42c0-.63.37-.84,1-.63.84.42,1.68.84,2.57,1.31Zm0,1.31H81.81V25.89h4.51Zm2.88,0V25.89h4.68V12.41Z"/><path class="cls-2" d="M143.08,8.69a1.81,1.81,0,0,1,1.73,1.88v.11a27.62,27.62,0,0,1-2.52,10.86,40.67,40.67,0,0,1-6.3,9.18c-5,5.62-11.27,9.86-17.47,14.17a.9.9,0,0,1-1-1.47c5.67-4.3,11.39-8.55,16.06-14a29.56,29.56,0,0,0,7.61-17.94.6.6,0,0,0-.63-.63H118.36a.22.22,0,0,0-.2.21V26a1.76,1.76,0,0,1-3.52,0V10.05C114.54,8.84,114,8,113.17,8h-.42a1,1,0,0,1,0-2h.63c2.15,0,3.67.94,4.3,2.57a.34.34,0,0,0,.32.16Z"/><path class="cls-2" d="M195.53,16.61a1.7,1.7,0,0,1,1.68,1.73v.06c-.47,10-2.88,16.78-8.92,24.49a1.78,1.78,0,0,1-2.41.27,1.75,1.75,0,0,1-.57-1.21c-.06-2.05-.9-2.83-2.52-4.46l-.69-.63a1,1,0,0,1,1.48-1.41,19,19,0,0,1,2.67,2.93.73.73,0,0,0,1.2,0C192.12,32,193.54,25.79,193.8,19c0-.15-.1-.2-.26-.2H182.68c-.16,0-.26.05-.26.2-3.31,11.13-12.12,18.63-20.83,25.18a.87.87,0,0,1-1.1-1.36c8.45-7,15.95-14.32,18.67-23.82,0-.1,0-.2-.15-.2H168.62a1.11,1.11,0,0,1,0-2.21h10.86c.16,0,.26-.05.26-.21a60.93,60.93,0,0,0,.95-10.18c0-2.09,3.25-2,3.25,0A59.85,59.85,0,0,1,183,16.4c-.06.1.05.21.16.21Z"/><path class="cls-2" d="M245.63,16.72a1.78,1.78,0,0,1,1.73,1.88c-.68,13.17-14.27,20.57-24.29,26.13-.94.58-1.84-.89-.94-1.52,8.29-5.25,21-12.49,21.4-23.66a.68.68,0,0,0-.63-.68H220.39a1.08,1.08,0,1,1,0-2.15Zm-2.78-8.51a1.07,1.07,0,1,0,0-2.14H224.33a1.07,1.07,0,1,0,0,2.14Z"/><path class="cls-2" d="M296.56,20.18h-7.29a.23.23,0,0,0-.26.21c-.47,5.66-2,11.07-5.77,15.48-3.15,3.61-6.88,6.23-10.76,9a.92.92,0,0,1-1.1-1.47c3.46-2.89,6.93-5.67,9.71-9.23,3.1-4,4.3-8.87,4.56-13.8a.22.22,0,0,0-.21-.21H270.07a1.08,1.08,0,1,1,0-2.15H285.5a.23.23,0,0,0,.21-.21V5.38a1.7,1.7,0,0,1,3.4,0V17.82a.23.23,0,0,0,.21.21h7.24c4.2,0,5.46-2.42,5.52-2.52a1.07,1.07,0,0,1,1.94.89C304,16.56,302.23,20.18,296.56,20.18Z"/><path class="cls-2" d="M342,18.87a.42.42,0,0,0-.16.37V43.47a1.73,1.73,0,0,1-3.46,0V21.91c0-.11-.1-.16-.21-.11-5,3.41-10.23,6.19-18.42,10a.89.89,0,0,1-.83-1.58c9.34-5,12.33-6.3,18.62-11.33,4.57-3.52,9.24-8.08,9.24-14v-.1c0-2.26,3.56-2.36,3.56-.16C350.33,10.63,346.45,15.24,342,18.87Z"/><path class="cls-2" d="M410.29,43.84c0,1.15-.47,1.73-1.57,1.73-.48,0-1.47-.68-3-2A77.71,77.71,0,0,0,393.5,35.5c-4.87,5.92-13.17,9.6-24.76,11a.93.93,0,0,1-1-.58c-.21-.37.05-.68.63-.79Q384,42.32,390.72,34A110.53,110.53,0,0,0,378,28.52c-.63,1.15-1.31,2.52-2.15,4a.72.72,0,0,1-1.05.42l-1.36-.47c-.52-.21-.68-.58-.42-1a145.89,145.89,0,0,0,7.81-16.32l.48-1.1H368.16a1,1,0,0,1-1-.58c-.22-.42.05-.74.73-.74h13.9c1.74-4.45,3.1-8.49,4.2-12a.81.81,0,0,1,1-.58c2.73.53,4.09,1.11,4.09,1.79,0,.47-.84.89-2.46,1.26-1.11,3.51-2.26,6.71-3.47,9.54h21.56l2.47-3.25a.66.66,0,0,1,1.15-.1c1.1,1.15,2,2.15,2.78,3.09a.94.94,0,0,1,.11,1.16.89.89,0,0,1-.89.42h-9.71A55.14,55.14,0,0,1,395,33.24C405.2,37.81,410.29,41.32,410.29,43.84ZM399.17,14H384.64c-1.74,4.3-3.73,8.66-6,13.22A139.06,139.06,0,0,1,392.19,32,54,54,0,0,0,399.17,14Z"/><path class="cls-2" d="M444.6,25.68v17c0,2.63-1.79,4-5.25,4.2-.53.05-.74-.21-1-.68a2.41,2.41,0,0,0-1.62-1.47,35,35,0,0,0-6-1.26.88.88,0,0,1-.73-1c0-.37.31-.57.83-.52q6,.46,8.34.47c1.32,0,2-.58,2-1.68V25.68H420.15a.91.91,0,0,1-.95-.68c-.1-.36.16-.63.79-.63h21V15.82c0-.52.31-.78.84-.78a18.3,18.3,0,0,1,1.83.2A65,65,0,0,0,453,7.38H426.76a.93.93,0,0,1-.95-.63c-.16-.42.16-.68.74-.68H453L454.77,4A.81.81,0,0,1,456,3.91c2.26,1.84,3.41,3,3.41,3.57,0,.26-.26.47-.73.63l-1.89.47a103.56,103.56,0,0,1-11.12,7.08c.52.22.84.48.84.69,0,.37-.74.84-2.15,1.36v6.66h14.79l2.57-3.19a.66.66,0,0,1,1.15-.11,30.53,30.53,0,0,1,2.78,3,.81.81,0,0,1,.11,1.1.94.94,0,0,1-.95.52Z"/><path class="cls-2" d="M514.74,24.64a15,15,0,0,1-2.84,9.71,18.36,18.36,0,0,1-6.46,5.55c-3,1.63-6.34,2.52-11.43,3a.87.87,0,0,1-.21-1.73,26.07,26.07,0,0,0,10.39-3.46,15.53,15.53,0,0,0,5.09-5,16,16,0,0,0,2-8,15.21,15.21,0,0,0-3.09-8.76,14.49,14.49,0,0,0-8.82-5,14.33,14.33,0,0,0-3-.26.23.23,0,0,0-.21.21v.63a38.06,38.06,0,0,1,0,4A30.2,30.2,0,0,1,491.7,30.2c-2.73,4.2-8.08,8.55-13.12,5.3-4.51-2.89-4.09-9.71-2.25-14a20.46,20.46,0,0,1,11.49-11A23.93,23.93,0,0,1,499.73,9a16.81,16.81,0,0,1,10.59,5.14,17.75,17.75,0,0,1,4.42,10.39ZM494,11.05a.23.23,0,0,0-.21-.21,19.14,19.14,0,0,0-5.14,1.52c-4.73,2.36-9,6.66-10.18,12.33-.58,3-.53,7.82,3.25,8.55s6.62-3.31,8.29-6a28.74,28.74,0,0,0,3.78-11.86c.16-1.68.16-2.94.21-3.83Z"/><path class="cls-2" d="M548.62,13.56a1,1,0,0,1,0,1.9h-7.08a.23.23,0,0,0-.22.26,51.48,51.48,0,0,1-1.83,10.44,53.82,53.82,0,0,1-8.24,16.68c-1.26,1.78-4-.26-2.67-1.94l0,0a45.4,45.4,0,0,0,7.87-15.43,48,48,0,0,0,1.52-9.7.24.24,0,0,0-.21-.26h-7.66a1,1,0,1,1,0-1.9h7.71a.24.24,0,0,0,.26-.26c.06-1.57.06-3.15.06-4.72,0,0-.06-1-.06-1.62,0-2.26,3.52-2.31,3.52-.06V8.58c0,1.57-.1,3.15-.16,4.72,0,.16.06.26.21.26Zm17.26,28.76c-1,.47-2.52.26-3.52.26-2.77,0-6-.16-8.55-1.42a7,7,0,0,1-3.83-7.5c.68-5.09,4.82-8.5,8.55-11.38.94-.74,2.25-1.68,3-2.21a.84.84,0,0,0,0-1.31,16.28,16.28,0,0,0-8.6-3.25.92.92,0,0,1,.15-1.84c4,.11,8.55.79,11.55,3.73,1.47,1.36-.37,2.52-1.32,3.2-3.41,2.46-6.92,5-9.54,8.55-1.78,2.41-2.57,6.3.1,8.5,2.47,2,8.5,1.62,11.23,1.57h.37a0,0,0,0,0,0,.05A1.66,1.66,0,0,1,565.88,42.32Z"/><path class="cls-2" d="M619.54,32.61c-2.83,6.24-8.76,9.76-14.69,11.91-1.05.37-1.67-1.31-.68-1.68l.05-.05c5.62-2.26,10.49-5.82,12.22-11.28A15.28,15.28,0,0,0,617,23.8a10.73,10.73,0,0,0-4.89-7,15.75,15.75,0,0,0-11.9-1.26.23.23,0,0,0-.22.26,32.08,32.08,0,0,1-5.87,14.27c-.11.11-.11.26,0,.32a25.46,25.46,0,0,0,3.72,3.2,1.32,1.32,0,1,1-1.52,2.15,21.36,21.36,0,0,1-3.93-3.36.45.45,0,0,0-.37,0,12.54,12.54,0,0,1-5.36,3.83c-3.61,1.42-7.55.26-7.29-4.09.58-4.2,3.41-7.77,6.2-10.6a.44.44,0,0,0,.1-.36,39.64,39.64,0,0,1-1.58-5.62,1.32,1.32,0,0,1,2.57-.58V15c.37,1.52.69,3,1.11,4.4a.16.16,0,0,0,.27.06,30.49,30.49,0,0,1,9-4.88.37.37,0,0,0,.22-.32,23,23,0,0,0,.1-5.3s0-.84-.1-1.26c-.22-2.2,3.36-2.36,3.36-.21,0,1.89-.12,3.57-.27,5.3a2.68,2.68,0,0,0,0,.63c-.05.1,0,.16.15.16a19.26,19.26,0,0,1,13,.94,12.87,12.87,0,0,1,6.82,8.4A14.8,14.8,0,0,1,619.54,32.61Zm-28.85-2.15a30,30,0,0,1-3.78-6.3c-.1-.1-.27-.15-.32-.05a19.43,19.43,0,0,0-3.73,6.14c-1.25,3.2.17,4.78,3,3.88a12.23,12.23,0,0,0,4.78-3.36A.34.34,0,0,0,590.69,30.46Zm6.08-13.8a29,29,0,0,0-7.92,5.09.33.33,0,0,0-.11.37,25.41,25.41,0,0,0,3.68,6.29c.05.06.15.06.26,0A30.71,30.71,0,0,0,597,16.87C597,16.72,596.93,16.66,596.77,16.66Z"/><path class="cls-2" d="M672,24.64a15,15,0,0,1-2.84,9.71,18.42,18.42,0,0,1-6.45,5.55c-3,1.63-6.35,2.52-11.44,3a.87.87,0,0,1-.21-1.73,26,26,0,0,0,10.38-3.46,15.46,15.46,0,0,0,5.1-5,16,16,0,0,0,2-8,15.22,15.22,0,0,0-3.1-8.76,15.57,15.57,0,0,0-11.81-5.25.22.22,0,0,0-.2.21v.63a36,36,0,0,1-.06,4,30.08,30.08,0,0,1-4.45,14.64c-2.74,4.2-8.08,8.55-13.12,5.3-4.51-2.89-4.09-9.71-2.26-14a20.44,20.44,0,0,1,11.5-11A23.88,23.88,0,0,1,656.94,9a16.86,16.86,0,0,1,10.6,5.14A17.74,17.74,0,0,1,672,24.53ZM651.22,11.05a.22.22,0,0,0-.21-.21,19,19,0,0,0-5.14,1.52c-4.72,2.36-9,6.66-10.18,12.33-.57,3-.52,7.82,3.25,8.55s6.62-3.31,8.3-6A28.87,28.87,0,0,0,651,15.35c.16-1.68.16-2.94.21-3.83Z"/><path class="cls-2" d="M719,12.88a1.75,1.75,0,0,1,1.73,1.74V37.39c0,.94-.79,1.67-2,1.73H687.84a1.11,1.11,0,0,1,0-2.21h28.74a.61.61,0,0,0,.64-.62V15.72a.65.65,0,0,0-.64-.68h-28a1.08,1.08,0,0,1,0-2.16Z"/><path class="cls-2" d="M769.46,41a1.69,1.69,0,0,1-2.05,2.68c-6.87-5.35-13.95-9.13-22.77-10.44a.88.88,0,0,1,.32-1.73A44.73,44.73,0,0,1,769.46,41Zm-12.7-20.4A32.24,32.24,0,0,1,766,24.16a1.7,1.7,0,0,1-1.63,3,24.85,24.85,0,0,0-7.66-3.93c-3.15-.94-6.35-1.63-9.55-2.31a.88.88,0,0,1,.27-1.73A93.38,93.38,0,0,1,756.76,20.6Zm9.71-8.3c2,.79.68,4.1-1.31,3.16A35.88,35.88,0,0,0,748,10.52c-1,0-.89-1.83.16-1.73A40.81,40.81,0,0,1,766.47,12.3Z"/><path class="cls-2" d="M821.66,39.64H793.48a1,1,0,1,1,0-1.89h21.41a.16.16,0,0,0,.15-.15V25.32a.42.42,0,0,0-.42-.47H802.35a1,1,0,1,1,0-1.89h14.22a1.48,1.48,0,0,1,1.51,1.52V37.6a.17.17,0,0,0,.17.15h3.41c3.3,0,4.25-1.83,4.25-1.94.67-.94,2.25-.26,1.73.84C827.58,36.76,826.17,39.64,821.66,39.64Z"/><path class="cls-2" d="M843.31,37.18a1.21,1.21,0,0,1,0-2.42H875c4.1.06,5.31-2.2,5.36-2.31a1.25,1.25,0,0,1,2.3.95c-.1.16-1.83,3.78-7.61,3.78Zm7.08-20.46a1.21,1.21,0,0,1,0-2.42h22.25c1.42,0,1.63,2.42,0,2.42Z"/><path class="cls-2" d="M933.5,16.4c-.11.16-1.84,3.78-7.51,3.78h-7.82c-.15,0-.21.1-.26.21,0,1.26.05,1.83,0,3.09-.26,10.39-11.17,18-19.78,21.46a.91.91,0,0,1-.89-1.58c7.29-3.09,17.31-11,17.26-20,0-1.16-.05-1.84-.05-3a.23.23,0,0,0-.21-.21H898.13a1.08,1.08,0,1,1,0-2.15H926c4.25,0,5.46-2.42,5.51-2.52A1.1,1.1,0,0,1,933.5,16.4Zm-7.82-5.62a1.08,1.08,0,1,0,0-2.15h-22.2a1.08,1.08,0,0,0,0,2.15Z"/><path class="cls-2" d="M969.05,24.11a.41.41,0,0,0-.1.32c0,.1,0,.15,0,.26V43.58a1.55,1.55,0,1,1-3.09,0V26.79a.17.17,0,0,0-.27-.11,135.13,135.13,0,0,1-12,6.72c-.89.47-1.67-1-.78-1.42a71.62,71.62,0,0,0,12.49-7.92c3.51-3,7.07-6.35,7.18-11.23,0-2,3.09-1.94,3.09.05C975.56,17.61,972.41,21.49,969.05,24.11Z"/></g></g></svg>