<svg xmlns="http://www.w3.org/2000/svg" viewBox="0 0 778.23 426.8"><defs><style>.cls-1{fill:#e0e554;}.cls-2{fill:#fff;}</style></defs><g id="レイヤー_2" data-name="レイヤー 2"><g id="レイヤー_2-2" data-name="レイヤー 2"><polygon class="cls-1" points="543.03 239.26 541.55 238.83 541.24 240.44 543.03 239.26"/><path class="cls-1" d="M535.75,234.19l-2.4.87c1.8,4.43-.21,3.27,3.91,6.19,1.29-.82,4.12-2.65,3.57-4.4-1,.28-2.22,2.13-3.71,1.7.51-1.36,2.07-1.34,2.64-3.11-2.44-1.2-1.36,1.23-4,.82Z"/><path class="cls-1" d="M533.23,239a7,7,0,0,0,.23-2.24C533.3,237.53,532.19,238.6,533.23,239Z"/><path class="cls-1" d="M531.78,239.57c-1.57,0-.12-1.68-.3-1.92L530,240.74Z"/><path class="cls-1" d="M525.31,239.93a5,5,0,0,0-.7.34C524.9,240.71,525.07,240.3,525.31,239.93Z"/><path class="cls-1" d="M522.17,240.55c.72,1,1.47.29,2.44-.28l-.12-.18c-1-.78-.3-2.94,1.18-2.52,1.46-.59,1.5,1.48,2.69,0l-1.93-1.53C524.09,236.51,523,239.64,522.17,240.55Z"/><path class="cls-1" d="M525.31,239.93a3.16,3.16,0,0,1,.83-.21C525.74,239.4,525.5,239.63,525.31,239.93Z"/><polygon class="cls-1" points="528.57 239.89 529.34 239.39 529.07 238.53 528.57 239.89"/><path class="cls-1" d="M516.89,241.17c.13-2.87,3.81,0,4-2.27-2.07.3-3.92-1.64-3.6-3.24l-2.23,1.08C514.4,237.88,515.57,239.93,516.89,241.17Z"/><path class="cls-1" d="M511.75,234.36a1.16,1.16,0,0,1-.49.53C511.5,234.75,511.71,234.59,511.75,234.36Z"/><path class="cls-1" d="M500.49,240.25l5.15-3.33c-.42,1-.15,1.84-1.35,2.27,2.42.18,2.57-1.67,4.57-1.55.82,2.6-3.46.49-2.12,2.76,1.38-.19,3.45-.49,4.37-2.83l2.36,1.62-1-2.85c-1-.76-1.61,2.43-2.34.46-.39-1.23.49-1.54,1.1-1.89-1.38.71-4.09-1.93-7-1.3S502.38,238.68,500.49,240.25Z"/><polygon class="cls-1" points="500 237.07 499.55 235.96 499.93 237.48 500 237.07"/><path class="cls-1" d="M494.44,241.37l2.65-2.07a3.74,3.74,0,0,1,.8,1.34c-.17-.67.49-1.87.32-2.41-1.52-2.52-3.37,1.14-4.83,1.73-4.09-.85.05-1.43-1.71-3.78,1.13,0,1.22.6,2.78.65-2.69-2.76-5.52.22-7,1.1.48.22.67,1,1.51.71l-1.55,1C489.24,241.59,490.73,242,494.44,241.37Z"/><path class="cls-1" d="M499.46,240.92c-1,.28-1.43.12-1.56-.25C498.24,241.36,498.64,241.84,499.46,240.92Z"/><path class="cls-1" d="M486.59,238.07c.19.15.47.07.83-.14A.78.78,0,0,0,486.59,238.07Z"/><path class="cls-1" d="M488.45,241.05l-2-.11.88,1.18C487.6,242,488.55,241.68,488.45,241.05Z"/><path class="cls-1" d="M412.81,243.5c.27,1.06,1,1.52,2.54,1.19-.06,1.44-2.06,1.33-2.91,2.23,2.09.74.12,1.67.74,3,2.26-.06,3.09-2,5.52-1.82a2,2,0,0,0,.38,1.5c2.8-1.14,7.57-2.9,10.5-1.92,2.76.31,4.72-.54,7.65-1.44,9.87-.09,20-2.44,30.64-2l1.26-2.91c.63,1.34,2.51-.22,2.37,1.61-.61-.3-1.13,0-1.82.13,2.46,2.25,6-.72,8.75-.07-.35-.48-1-2.85-.22-3.35,0,3.11,3.19-.33,4.29,3.15,2.78.65-.13-2.71,2.73-2.46.14-1.84-2.78-.65-3.41-2,.76-1.55,2.61.41,2.32-1.49-4.6-.52-12.68,4-19.5,5.62l.58-1.77c-3.44,1.52-9.16,2.08-12.23-.46.81,1.56-5.3-.43-4.46,3.22-1-.77-1.22-.61-2.52-.81l-.24,1.2c-1.82.12-1.68-1.7-3.76-1.41,1.5,1.47,0,2.08-.46,3.44-2.54-1.56-5.45-2.88-7.69-4.16a3.68,3.68,0,0,0,1.24,1.69c-1.49-.43-1.11,1.07-1.45,1.64-1.39.2-1.42-1.87-1.44-2.91-2.6-.41-3.4,3.61-5.42,2.45l.81,1.59c-2.59.62-5-1-7.8-.19-1.6-2.12,2.21-2.14,3.33-3.21-.63-.42-1.89-.44-2.36-1.14a51.53,51.53,0,0,1-4.53,4.2C417.49,243.13,413.81,243.59,412.81,243.5Z"/><path class="cls-1" d="M420.77,241.66a6.6,6.6,0,0,0,.76-1,1.19,1.19,0,0,1-.94.27A1.09,1.09,0,0,0,420.77,241.66Z"/><path class="cls-1" d="M412.81,243.5c0-.09-.06-.16-.08-.26C412.45,243.42,412.54,243.48,412.81,243.5Z"/><path class="cls-1" d="M430,247.81a3.4,3.4,0,0,0-.38-.12c-.17,0-.31,0-.49,0Z"/><path class="cls-1" d="M431.49,240.18a14.75,14.75,0,0,0,2.37,1.56C433.55,241,433.3,240.47,431.49,240.18Z"/><path class="cls-1" d="M449.35,240.5c.52-.33.17-.8.5-1.36C448.72,239.17,448.39,239.73,449.35,240.5Z"/><polygon class="cls-1" points="417.56 241.51 415.4 242.2 414.63 242.72 417.56 241.51"/><path class="cls-1" d="M373.63,253.86c2.12,1.78,4.87.34,7.3.53,4.31-1.4.18-4.32,4.34-4.91l-.38,4.08c4.16-.59,10.14-.27,13.38-4.1.35.46,1.14,1,.11,1.67,2.76-.4.95-5.85,4.77-4.84-3.25,2.8,1.34,2.28.61,4.85l-.52.33c2.33-.46,5.34-2.05,6.91-2,0-1-1.52-2.5.55-2.81-.86-.13-.62-1.33-.64-2.37-2.06,1.33-3.29.72-4.48,2.2-1.32-1.25.78-.51-.55-1.74l-1.62,1.39c-1.3-.2,1.2-1.46-.81-1.57-.16.8-1.69,1.8-3.26,1.75l.41-.5c-1.14.64-2.88.13-2.11,2.31L396,246l.38,1.51c-3.3-.32-4.84-3.86-8.87-1.6,1,.37.19,1.27-.32,1.61,1.84.9,2.06-1.33,3.7-1.68.37,1.5-2.28,3.56-.19,4.3-2.37-1.62-4.15.59-5.43-3.13-2.68,0-3.52,1.93-6.31,1.29l0-.58c-.29,2.56-2.3-.95-4.08,1.8l1.48.44c0,1-.67,1.13-1.62,1.4.08-.41.08-.41-.28-.88-.14,1.85-3.17,2.4-3.5,3,1.3.21,2.75-1.43,4.21-2C374.57,252.56,374.93,254.06,373.63,253.86Z"/><path class="cls-1" d="M400.53,244.85l-.78,1A1.55,1.55,0,0,0,400.53,244.85Z"/><path class="cls-1" d="M361.29,251.71c-1.74-.27.32-1.59-1.33-2.27-1.63,1.41,2.2,2.42.68,4.45-1.15-1-2.68,1-3.37,1.14.68-1.15,0-3.52-.33-4-.59.73-2.17-.34-3.29-.31,2.88,1.27-2.24,1.1.38,2.53-.06,1.45-2.55,2.72-3.7,1.71,0-1,.86-.9,1.55-1,.4-2-1.83-.9-2.38-2.65-2.39,2.94-10.79,3.47-8,7.64,1,.76,1.64-.36,2.59-.64-2.79-.64-.21-2.3-.05-3.1,1.23.6,3.1-1,2.79.64l-1.71,1.8c6,.31,14-.69,20.78-1.92l-2.95.17c.24-1.21,1.62-1.41,2.65-2.07l-1.69-2.75c.87.14,1.64-.36,1.66.68.93-1.31.4-2-.31-3,2.16-.68,2.61.41,4.14-1.62-3.85-2-2.91,2.23-7.27.51Z"/><polygon class="cls-1" points="369.15 249.44 368.39 250.97 369.67 250.14 369.15 249.44"/><path class="cls-1" d="M368.29,255.91c-.09-.63.42-1,.32-1.58C366.88,254.05,367.15,254.91,368.29,255.91Z"/><path class="cls-1" d="M347.24,251.38l-2.15.69,1.48.44A1.16,1.16,0,0,1,347.24,251.38Z"/><path class="cls-1" d="M332.48,260.22c3-.55,4.21-2,7.78-.85,1.53-2-1.09-3.46-.51-5.23-1.74-.28-1.26,2.9-3,3.67-.81-1.57-2.57.58-4.29.35A2.47,2.47,0,0,1,332.48,260.22Z"/><path class="cls-1" d="M321.45,254.9c-1.39.1-2.69,1.49-3.86.8a1.32,1.32,0,0,1,1.73-1.28c-.73-2.27-1.51.49-3.16-.93.16.25.74.59.36,1.13-3.79-.22-1.94,2.08-6.92,1.18-.65.7-1.34.74-1.09,2.27-2.93-1.71-1.54-1.82-5-3.23.21.88,1.47,2.85,1.62,4.77-4.93-2.3-4.76.8-7.93-1,.32-.12.69-.66,1.51-.47-.62-2.66-2.47.71-4.17.32l0-2.31c-1.51.49-4,2.23-6.12.72l.34-1.19c-3.77,2.09-8.43,1.67-11.71,2.82l-1.92-1.27c-4.46,2.15,4.66.41,1.57,4.14-.87-4.2-2.26,1.58-5,.12-1.38-1.58,2.58-1.11,1-2.91-.39,2.22-1.34.74-2.69,1.49.13-2.07-3,0-2.29-2.41l-4.59,4.22c-.89-1.09-2.3-.77-3.32-.39,2.65-.2-.47,3.11,2.59,3.8,4.25-1.36,11.44-2.67,17-2.06.35-2.87,3.48-.27,4.14-2.64.21.89.69,1.63.89,2.51,3.44-.9-1-1.47-.19-2.57a2.31,2.31,0,0,1,2.82,2.11c2.52-.06.22-.79,1.37-2.42l1.9,2.95c7.72-1.62,17.88-4.59,26.92-3.59l-.83-1.88c4.11.72,6.37-4.87,10.29-1l1.08-1.76c-.59,1,.94,2.84,0,4.24,1-.75,2.27-.11,3.35-.81l-2.09-.75c1.27-1.76,2.91-.88,3.5.51,2.84-2.19-2.07-3.18-2.88-4.75-3.92,3.94-4.56-3.13-8.49-1.29C318.68,253.43,321.51,253.86,321.45,254.9Z"/><path class="cls-1" d="M327.14,259.74a2.2,2.2,0,0,0,.57-.57A2.37,2.37,0,0,0,327.14,259.74Z"/><path class="cls-1" d="M259.77,261.52a6.09,6.09,0,0,0-1.17.22C258.24,262.26,258.85,261.86,259.77,261.52Z"/><path class="cls-1" d="M332.49,258.16l0,0s0,0,0,0Z"/><polygon class="cls-1" points="334.1 253.25 332.97 253.28 333.24 254.15 334.1 253.25"/><path class="cls-1" d="M247.68,260.12l.08,1A1.43,1.43,0,0,0,247.68,260.12Z"/><path class="cls-1" d="M215.46,262.26h.69A.76.76,0,0,0,215.46,262.26Z"/><path class="cls-1" d="M138.44,271c-2,.8-4.78,1.65-6.19,3.43l.06-1c-1.08.59-4.57,2.53-2.07,4.15l.49-.94c2.53-1.74,2.08,1.52,4.22,2,2.46-.7,3.57-4.65,5.87-3.94,1-.19.9.85.68,1.64,2.25.09,2.87-2.93,4.37-3.44,1.27,7.64,6.67-2.69,10.38,1.92,2-.8,4.88-.36,7.41-2.11-1.25,2.05,2.52-.05,2.13,2.17.36-4.54,7.8,1.33,7.8-4.34,3.74,1.27.12-.39,4.39.58.05.63-.65.69-.92.83,1.76,1,2.33-2.62,3.92-.16,3.37.13.44-1.58,2.27-3.26,3.54.36,2.62,1.21,4.74,3.37.08-2.72,2.27-1.59,3.84-3.13-.43-.09-2.84-.42-1.38-1.57,4.07.08,3.07-2.05,6.78-3.1,2.17,2.81-3.76.42-.24,2.47-2.27,1.59-4.09,1.61-5.18,3.88A28.94,28.94,0,0,0,202.28,268c2,.23-.87,1.48.68,1.62,3.58,1,5.07-3.48,8-2.41l-.45,1.58c1.52-2.18,6.17-.08,9.28-1.48-.47-.73-.79-1.23-.4-1.77.27,3.85,4.3-2.39,7.7.05-.45-2.41,2.51-4.05,4.44-4.47a3,3,0,0,1,.73,2.29c-3.31-1.18-2.87,2.91-5.29,4.26,2-1.45,5.58-.43,7.26-2.36l-.56,2c3,0,2.18-4.55,5.39-3l-.18,1.43c6.12-.72,13.54,1.16,18.19-2.41.33-1.19-2.38-3.69-2.59-4.58-2.85,1.25-4.37,3.44-6.52,4.63l-.16-2.2c-.38,1.55-3,2.68-1.41,3.73-1.72,1.28-1.54-1.81-3.53-.38,0-2.31,1.2-2.67,1.06-4.58l-1.72,1.28c.49-.93-1.18-.67-.69-1.62-3.14,3.07-4.82-.68-8.21.88l2,.24c.09,1.28-1,1.24-1.84,1.69-1.11-1.72-1.65-1.43-3.52-2.06-1.46,1.14-2.12,3.51-4.21,3.68.24-2.47-3.58-1-4.15-3-.24,2.46-4,1.21-4.15,2.63-1.08.59-2.64.47-2.73-.83a7,7,0,0,1,.81-.49l-1.13,0c.09-.29,0-.5.15-.55-1,0-.85,1.79-2.24.7,0-.64.65-.69,1.19-1-2.68-.18-4.33,4.07-6.71,2.06-.34,1.18-3.39,1.54-2.51,4.07-.9-.85-.77-2.92-3-2.36-1.09,2.27-2.56-.58-4.13,1,2.06-2.48,0-.64,1.74-3-1.59-.77-3.61,2.34-6.29,2.17-.31-.49-.36-1.14-.68-1.63-.92.85-1.9,2.72-3,1l.25,1.53c-1.88-.63-4.34.07-6.42-1.45l-2,3.12c-3.3-2.84-7.13.3-9.3,3.16-1.12,0-2.84-.43-2.88-1.08.24-.24.64-.73,1.12-1.17-1.65,0-3.79-1.46-4.5,1.05-1.61.89-1.37-1.57-2.65-1.86-3.1,3.71-10.23-1.67-10.81,3.65,1.4-.1,4.12.72,6.75.27-.65.69,0,1.67-1,1.87-2.64.46-4.17-1.35-6.75-.25l0-3.36C145.87,267.21,142.42,275.47,138.44,271Z"/><path class="cls-1" d="M172.43,268.16l-2.07-1.52.33,1.42A1.52,1.52,0,0,1,172.43,268.16Z"/><path class="cls-1" d="M170.69,268.06a4.63,4.63,0,0,0-1.06.77,1.56,1.56,0,0,0,1.14-.41Z"/><path class="cls-1" d="M130.83,272.23a2.92,2.92,0,0,0-2.1.15C129.32,272.73,130.44,272.77,130.83,272.23Z"/><polygon class="cls-1" points="128.67 273.42 129.69 273.86 129.79 273.46 128.67 273.42"/><path class="cls-1" d="M72.61,281.16l-2.92,2.29c-.63-1-4,.56-3-1.3-1.63,2.56-5.84.56-4.05,3.91,9-2,21.65-1,31.87-5l-1.57,1.53c5.22-3.22,7.75,2.39,11.66-3.45l-.35,2.86c2.57.57,4.44-4.46,7.31-1.72l-.37-1.13c.7-.05,1,.44,1.71.39l-.32-.5c1.73-1.28,2.86-1.24,4.72-.62.21.89-.81.46-1.34.75.9.84,2.15-1.19,3.55-1.29,1.17.68.1,1.27,0,1.67,4.09-1.6,6.25,1.2,8.87-3.25.22-.8-1.22-1.33.28-1.83-2.88-1.08-5,.77-7.41,2.11l.7,0c-1.65,4.24-1.6-.8-4.67,1.24.71-1.72,2.11-1.83,2.59-2.77-4-2.79-5.11,2.83-7.92-1l.27-.14c-.58-.33-1.5.51-2.31,1,.32.5,1.17.69,1.76,1-.81.45-1.09,2.28-1.32,3.06-1.1-1.71-1.18,1-2.78.22-.68-1.62,1.14-1.63,1.63-2.58l-1.73,1.3c-1.66.25-1.8-1.68-2.71-2.51-1.3,1.4.91.83-.08,2.72-2-1.92-9.58-.68-13.09,1.25,1.25-.34.29-1.82,1.85-1.68-.59-.34-2.47.7-2.38,2-2.42,1.35-5.68.82-8.14-.15l.79,1.23c-1.79,2.32-5.13-1.17-8.52.39l.08,0c-1.1.38-1.8,3.57-3.92,3.11C71.74,282.65,72.86,282.68,72.61,281.16Z"/><path class="cls-1" d="M60.57,285.18l1-1.88c-1.28-.29-2.64,2.13-2.28,3.26.8-.45,2,.24,2-.8C61.15,285.52,61.11,284.88,60.57,285.18Z"/><path class="cls-1" d="M37.19,287.48c-.42.44-.25,1.11-.4,1.62,4.94-.65,11-1.88,13.09-.66,1.72.38,1.79-2.32,3.83-3.13L54.82,287c1-1.24,4.66.43,3.19-2.42-.16-.25-.88,1.47-1.89,1l.07-1-2.21.55.6-1.34c-3.2-1.56-1.8,4-5.65,3.15l-.19-2.57c-2.52.07-3.71,1.06-6.05-.3,0,0,.09,1.28.47.72A1.76,1.76,0,0,1,44,286.7c-3.61,2.33.44-1.58-2.28-2.4-3.07,2-9.09,4-11,2.12,1.64,1.42-.47,3.26-2.29,3.27-.9-.83.45-1.57.67-2.37-.86-.2-1.6-.79-2.41-.33,1.21,1.32.67,3.3-1.22,4.34C29.86,292.54,32.85,287.55,37.19,287.48Z"/><path class="cls-1" d="M36.1,289.75a.88.88,0,0,0,.69-.65l-1.71.21Z"/><polygon class="cls-1" points="778.23 383.02 777.02 382.57 776.79 384.18 778.23 383.02"/><path class="cls-1" d="M772.25,377.84l-1.94.83c1.54,4.46-.11,3.27,3.27,6.25,1-.8,3.3-2.58,2.83-4.34-.77.26-1.77,2.09-3,1.63.39-1.35,1.65-1.3,2.09-3-2-1.25-1.09,1.2-3.21.75Z"/><path class="cls-1" d="M770.28,382.57a8.36,8.36,0,0,0,.15-2.23C770.31,381.14,769.43,382.19,770.28,382.57Z"/><path class="cls-1" d="M769.11,383.15c-1.27-.06-.12-1.68-.27-1.92l-1.18,3Z"/><path class="cls-1" d="M763.88,383.4a3.44,3.44,0,0,0-.56.33C763.56,384.18,763.69,383.77,763.88,383.4Z"/><path class="cls-1" d="M761.34,384c.6,1,1.2.31,2-.24a1.45,1.45,0,0,1-.1-.18c-.79-.79-.3-2.95.91-2.5,1.18-.57,1.24,1.51,2.18.06l-1.59-1.56C762.83,380,762,383.07,761.34,384Z"/><path class="cls-1" d="M763.88,383.4a1.86,1.86,0,0,1,.67-.19C764.21,382.89,764,383.11,763.88,383.4Z"/><polygon class="cls-1" points="766.52 383.42 767.13 382.93 766.9 382.06 766.52 383.42"/><path class="cls-1" d="M757.07,384.5c.06-2.86,3.09,0,3.23-2.2-1.67.27-3.2-1.69-3-3.29l-1.79,1C755,381.18,756,383.24,757.07,384.5Z"/><path class="cls-1" d="M752.79,377.62a1.09,1.09,0,0,1-.38.52A.77.77,0,0,0,752.79,377.62Z"/><path class="cls-1" d="M743.76,383.32l4.12-3.24c-.33.95-.09,1.83-1,2.24,2,.22,2.06-1.62,3.67-1.47.71,2.61-2.79.43-1.67,2.72a3.69,3.69,0,0,0,3.5-2.76l1.94,1.66-.85-2.86c-.8-.78-1.27,2.4-1.89.42-.33-1.23.37-1.53.86-1.87-1.1.69-3.35-2-5.66-1.41S745.27,381.78,743.76,383.32Z"/><polygon class="cls-1" points="743.32 380.13 742.93 379.02 743.26 380.54 743.32 380.13"/><path class="cls-1" d="M738.88,384.34l2.12-2a4.23,4.23,0,0,1,.66,1.35c-.15-.67.37-1.86.22-2.4-1.27-2.54-2.71,1.07-3.89,1.64-3.32-.91,0-1.42-1.44-3.8.91,0,1,.62,2.26.69-2.22-2.79-4.47.14-5.68,1,.4.23.56,1,1.24.75l-1.24,1C734.67,384.47,735.88,384.93,738.88,384.34Z"/><path class="cls-1" d="M742.94,384c-.83.26-1.16.1-1.27-.27C742,384.39,742.29,384.88,742.94,384Z"/><path class="cls-1" d="M732.46,380.92c.15.15.38.07.67-.14C733,380.69,732.77,380.68,732.46,380.92Z"/><path class="cls-1" d="M734,383.92l-1.62-.14.74,1.19C733.35,384.82,734.11,384.55,734,383.92Z"/><path class="cls-1" d="M672.74,385.14a1.47,1.47,0,0,0,2.08,1.22c0,1.44-1.64,1.3-2.32,2.18,1.71.78.12,1.68.65,3,1.83,0,2.47-1.94,4.45-1.73a2.46,2.46,0,0,0,.32,1.51c2.26-1.1,6.1-2.77,8.48-1.74,2.25.35,3.82-.47,6.18-1.32,8,.07,16.16-2.11,24.81-1.51l1-2.88c.53,1.35,2-.19,1.94,1.64-.49-.31-.91,0-1.47.1,2,2.29,4.83-.61,7.1.07-.3-.48-.86-2.86-.24-3.34.09,3.11,2.58-.28,3.53,3.22,2.27.69-.15-2.71,2.18-2.42.08-1.84-2.27-.69-2.8-2,.59-1.54,2.12.45,1.86-1.46-3.74-.59-10.22,3.79-15.72,5.3l.44-1.76c-2.77,1.47-7.39,1.93-9.92-.66.68,1.58-4.3-.51-3.56,3.15-.79-.79-1-.63-2.06-.86l-.18,1.2c-1.47.1-1.38-1.72-3.06-1.46,1.24,1.48.06,2.07-.32,3.43-2.08-1.61-4.46-3-6.3-4.29a3.9,3.9,0,0,0,1,1.71c-1.21-.46-.89,1.05-1.15,1.62-1.12.17-1.18-1.9-1.21-2.93-2.12-.46-2.7,3.54-4.35,2.36l.67,1.59c-2.08.58-4-1.07-6.32-.31-1.33-2.15,1.76-2.1,2.64-3.15-.51-.43-1.53-.47-1.92-1.18a43.71,43.71,0,0,1-3.61,4.11C676.53,384.84,673.56,385.24,672.74,385.14Z"/><path class="cls-1" d="M679.17,383.43a8.48,8.48,0,0,0,.6-.95.87.87,0,0,1-.77.25A1.45,1.45,0,0,0,679.17,383.43Z"/><path class="cls-1" d="M672.74,385.14c0-.09,0-.16-.07-.26C672.45,385.05,672.53,385.11,672.74,385.14Z"/><path class="cls-1" d="M686.72,389.72a1.75,1.75,0,0,0-.32-.12c-.13,0-.25,0-.39,0Z"/><path class="cls-1" d="M687.83,382.13a12.72,12.72,0,0,0,1.95,1.59C689.51,383,689.3,382.44,687.83,382.13Z"/><path class="cls-1" d="M702.32,382.74c.41-.33.11-.8.37-1.36C701.78,381.4,701.52,382,702.32,382.74Z"/><polygon class="cls-1" points="676.56 383.23 674.82 383.88 674.21 384.38 676.56 383.23"/><path class="cls-1" d="M641.15,394.84c1.75,1.82,4,.43,5.93.65,3.47-1.32.08-4.31,3.44-4.83l-.24,4.07c3.36-.53,8.21-.11,10.77-3.88.29.47,1,1,.12,1.67,2.24-.35.67-5.83,3.79-4.75-2.59,2.74,1.12,2.29.57,4.85l-.41.32c1.88-.42,4.29-2,5.56-1.91,0-1-1.27-2.52.41-2.79-.71-.15-.53-1.34-.56-2.38-1.65,1.3-2.66.67-3.6,2.13-1.09-1.28.62-.5-.47-1.75l-1.29,1.36c-1.06-.22.94-1.44-.68-1.58a2.64,2.64,0,0,1-2.62,1.7l.32-.5c-.91.62-2.33.08-1.67,2.27l-1.33-2.13.33,1.51c-2.68-.37-4-3.93-7.21-1.74.85.39.17,1.28-.24,1.6,1.51.94,1.65-1.29,3-1.62.33,1.51-1.79,3.53-.08,4.3-2-1.66-3.35.52-4.45-3.22-2.18-.05-2.82,1.87-5.09,1.18v-.57c-.19,2.55-1.88-1-3.28,1.73l1.21.47c0,1-.53,1.11-1.29,1.37,0-.42,0-.42-.24-.88-.09,1.83-2.53,2.34-2.79,2.9,1.06.23,2.2-1.38,3.38-1.95C641.9,393.56,642.21,395.07,641.15,394.84Z"/><path class="cls-1" d="M662.81,386.29l-.62.93A1.43,1.43,0,0,0,662.81,386.29Z"/><path class="cls-1" d="M631.11,392.5c-1.41-.3.24-1.59-1.11-2.3-1.3,1.39,1.82,2.46.62,4.47-.94-1-2.15,1-2.71,1.07a6.16,6.16,0,0,0-.33-4c-.47.73-1.76-.37-2.68-.36,2.36,1.32-1.79,1.06.36,2.53,0,1.45-2,2.68-3,1.65,0-1,.68-.88,1.23-1,.3-2-1.5-.93-2-2.69-1.89,2.9-8.68,3.3-6.38,7.5.79.77,1.32-.33,2.09-.59-2.27-.69-.21-2.3-.09-3.1,1,.62,2.49-.91,2.26.69l-1.35,1.77c4.86.41,11.36-.47,16.81-1.58l-2.39.12c.18-1.21,1.3-1.38,2.12-2l-1.42-2.77c.71.15,1.33-.33,1.36.7.73-1.29.29-2-.3-2.94,1.74-.65,2.12.44,3.33-1.56-3.15-2.11-2.32,2.18-5.89.4Z"/><polygon class="cls-1" points="637.45 390.36 636.86 391.88 637.88 391.06 637.45 390.36"/><path class="cls-1" d="M636.86,396.81c-.09-.63.32-.95.23-1.58C635.68,394.92,635.92,395.79,636.86,396.81Z"/><path class="cls-1" d="M619.72,391.94l-1.73.66,1.2.46A1.18,1.18,0,0,1,619.72,391.94Z"/><path class="cls-1" d="M607.9,400.53c2.44-.51,3.38-1.95,6.3-.72,1.2-2-1-3.48-.51-5.24-1.41-.3-1,2.87-2.35,3.62-.67-1.59-2.07.53-3.47.28A3,3,0,0,1,607.9,400.53Z"/><path class="cls-1" d="M598.87,395c-1.13.07-2.16,1.43-3.12.73,0-1,.68-1.47,1.38-1.25-.62-2.28-1.21.46-2.56-1,.12.25.6.6.31,1.13-3.09-.28-1.55,2.05-5.6,1.07-.51.68-1.07.72-.85,2.25-2.4-1.76-1.27-1.84-4.1-3.31.18.89,1.23,2.87,1.38,4.8-4-2.38-3.85.71-6.44-1.11.26-.12.54-.65,1.22-.44-.55-2.67-2,.67-3.38.25l-.07-2.31c-1.21.47-3.24,2.16-4.95.62l.26-1.18c-3,2-6.81,1.53-9.45,2.63l-1.57-1.3c-3.59,2.07,3.78.48,1.34,4.15-.78-4.2-1.81,1.55-4.08,0-1.15-1.6,2.07-1.06.8-2.89-.29,2.21-1.08.73-2.16,1.45.07-2.07-2.39-.08-1.89-2.45l-3.66,4.14c-.74-1.1-1.87-.81-2.7-.44,2.15-.16-.33,3.1,2.17,3.84,3.42-1.29,9.23-2.49,13.71-1.78.23-2.86,2.82-.22,3.31-2.57.18.88.58,1.63.76,2.52,2.78-.84-.79-1.49-.19-2.57,1.21-.48,2.35,1.12,2.32,2.15,2,0,.17-.78,1.07-2.39l1.58,3c6.24-1.5,14.43-4.3,21.77-3.16l-.7-1.88c3.34.78,5.08-4.77,8.32-.87l.85-1.74c-.47,1,.81,2.84.06,4.23.84-.74,1.84-.08,2.71-.76l-1.71-.78c1-1.74,2.35-.83,2.85.57,2.26-2.14-1.73-3.21-2.41-4.79-3.12,3.86-3.75-3.2-6.91-1.42C596.6,393.52,598.91,394,598.87,395Z"/><path class="cls-1" d="M603.56,400a1.91,1.91,0,0,0,.45-.56A2.24,2.24,0,0,0,603.56,400Z"/><path class="cls-1" d="M549,400.64a4,4,0,0,0-1,.2C547.75,401.35,548.24,401,549,400.64Z"/><path class="cls-1" d="M607.87,398.47a.06.06,0,0,0,0,0s0,0,0,0Z"/><polygon class="cls-1" points="609.1 393.59 608.18 393.6 608.42 394.47 609.1 393.59"/><path class="cls-1" d="M539.16,399l.08,1A1.81,1.81,0,0,0,539.16,399Z"/><path class="cls-1" d="M513.08,400.66h.56A.52.52,0,0,0,513.08,400.66Z"/><path class="cls-1" d="M450.79,408.14c-1.64.77-3.85,1.57-5,3.33l0-1c-.87.58-3.67,2.46-1.62,4.11l.39-.92c2-1.69,1.71,1.55,3.45,2.06,2-.65,2.82-4.58,4.69-3.83.79-.18.75.86.58,1.64,1.83.13,2.28-2.88,3.49-3.36,1.15,7.65,5.36-2.57,8.45,2.09,1.63-.77,3.94-.29,6-2-1,2,2,0,1.76,2.2.22-4.53,6.35,1.46,6.25-4.2,3.05,1.32.09-.39,3.57.64.05.63-.52.68-.73.82,1.44,1.05,1.85-2.58,3.17-.1,2.73.18.33-1.57,1.79-3.22,2.87.42,2.15,1.26,3.9,3.44,0-2.7,1.81-1.55,3.06-3.06-.35-.1-2.31-.46-1.15-1.59,3.31.15,2.46-2,5.45-3,1.8,2.84-3,.36-.16,2.46-1.81,1.55-3.28,1.54-4.13,3.79a19.28,19.28,0,0,0,8.45-2.3c1.61.26-.69,1.47.58,1.63,2.91,1.07,4.05-3.39,6.4-2.27l-.33,1.56c1.2-2.15,5,0,7.5-1.32-.4-.74-.66-1.24-.36-1.78.29,3.85,3.45-2.31,6.25.18-.41-2.42,2-4,3.52-4.39a3.5,3.5,0,0,1,.63,2.3c-2.7-1.23-2.28,2.86-4.22,4.17,1.6-1.42,4.52-.34,5.85-2.25l-.42,2c2.39.07,1.69-4.51,4.32-2.89l-.12,1.42c4.94-.62,11,1.38,14.7-2.11.25-1.18-2-3.72-2.17-4.62-2.29,1.21-3.49,3.37-5.21,4.52l-.17-2.19c-.28,1.54-2.39,2.62-1.08,3.7-1.38,1.25-1.28-1.84-2.87-.44-.06-2.31.93-2.64.79-4.56L534.7,400c.38-.93-1-.7-.59-1.64-2.49,3-3.91-.75-6.63.75l1.61.27c.1,1.28-.82,1.22-1.46,1.66-.93-1.74-1.36-1.45-2.89-2.11-1.16,1.11-1.66,3.47-3.35,3.6.15-2.46-2.92-1.08-3.42-3.1-.15,2.45-3.2,1.14-3.31,2.56-.87.57-2.13.42-2.23-.88a5.35,5.35,0,0,1,.65-.47h-.92c.07-.29,0-.5.12-.55-.81,0-.67,1.77-1.81.66,0-.64.52-.67.95-1-2.18-.23-3.44,4-5.41,1.95-.25,1.17-2.72,1.48-2,4-.75-.86-.68-2.92-2.46-2.4-.84,2.25-2.08-.62-3.33.89,1.63-2.44-.05-.64,1.36-2.95-1.3-.79-2.89,2.28-5.06,2.07-.26-.5-.31-1.14-.58-1.64-.73.83-1.49,2.68-2.42.95l.23,1.53c-1.53-.66-3.52,0-5.23-1.55L485,405.74c-2.72-2.88-5.78.18-7.49,3-.91-.05-2.31-.47-2.35-1.12.19-.24.5-.71.88-1.14-1.33,0-3.09-1.53-3.62,1-1.3.86-1.14-1.6-2.19-1.9-2.45,3.65-8.31-1.83-8.7,3.46,1.13-.07,3.35.79,5.48.39-.52.68,0,1.66-.77,1.85-2.13.41-3.4-1.42-5.47-.37l0-3.34C456.75,404.47,454.08,412.66,450.79,408.14Z"/><path class="cls-1" d="M478.29,405.85l-1.7-1.55.29,1.42A1.05,1.05,0,0,1,478.29,405.85Z"/><path class="cls-1" d="M476.88,405.72a3.53,3.53,0,0,0-.85.76,1.12,1.12,0,0,0,.92-.4Z"/><path class="cls-1" d="M444.64,409.23a2,2,0,0,0-1.7.12C443.42,409.71,444.34,409.77,444.64,409.23Z"/><polygon class="cls-1" points="442.91 410.39 443.74 410.85 443.82 410.45 442.91 410.39"/><path class="cls-1" d="M397.59,417.2l-2.33,2.25c-.52-1-3.25.49-2.48-1.36-1.28,2.54-4.73.47-3.22,3.84,7.23-1.82,17.53-.65,25.75-4.48L414.07,419c4.17-3.14,6.31,2.51,9.39-3.26l-.24,2.85c2.09.61,3.52-4.39,5.89-1.6l-.31-1.13c.56-.05.83.45,1.4.41l-.27-.5c1.38-1.25,2.29-1.2,3.81-.54.18.89-.65.44-1.08.72.75.85,1.73-1.15,2.86-1.23,1,.7.1,1.28,0,1.67,3.29-1.53,5.09,1.3,7.14-3.1.17-.79-1-1.35.2-1.82-2.35-1.13-4,.68-6,2l.56,0c-1.27,4.21-1.31-.82-3.76,1.17.54-1.71,1.67-1.8,2.05-2.73-3.28-2.85-4.1,2.75-6.43-1.08l.21-.14c-.48-.34-1.21.48-1.85.91.26.5.95.71,1.44,1.06-.65.43-.85,2.25-1,3-.92-1.74-.94,1-2.25.17-.58-1.63.89-1.62,1.27-2.55l-1.37,1.27c-1.34.22-1.49-1.71-2.24-2.55-1,1.37.75.84,0,2.71-1.63-1.94-7.78-.84-10.59,1,1-.32.21-1.81,1.47-1.65-.48-.34-2,.67-1.89,1.95-2,1.3-4.6.73-6.61-.28l.66,1.23c-1.41,2.29-4.18-1.24-6.9.26l.07,0c-.89.35-1.4,3.54-3.13,3C396.91,418.68,397.82,418.73,397.59,417.2Z"/><path class="cls-1" d="M387.9,421l.76-1.86c-1-.31-2.1,2.09-1.79,3.22.64-.43,1.61.28,1.65-.76C388.38,421.37,388.33,420.74,387.9,421Z"/><path class="cls-1" d="M369,422.94c-.34.44-.19,1.1-.3,1.61,4-.57,8.88-1.7,10.59-.45,1.4.41,1.41-2.29,3.06-3.06l.92,1.74c.82-1.22,3.79.5,2.55-2.37-.13-.25-.68,1.46-1.51,1l0-1-1.77.51.46-1.32c-2.62-1.61-1.4,4-4.53,3.05l-.19-2.57c-2.05,0-3,1-4.91-.4,0,0,.09,1.28.39.73a2,2,0,0,1,.71,1.89c-2.89,2.27.34-1.57-1.89-2.44-2.46,2-7.3,3.89-8.92,1.95,1.36,1.44-.33,3.24-1.8,3.22-.74-.85.34-1.56.5-2.35-.7-.22-1.31-.81-2-.37a3,3,0,0,1-.92,4.31C363.12,427.88,365.47,422.94,369,422.94Z"/><path class="cls-1" d="M368.13,425.19a.77.77,0,0,0,.56-.64l-1.39.18Z"/><path class="cls-2" d="M486.38,327.83c3-2.21,6.23-3.39,9.19-5a65.79,65.79,0,0,1,7.7-3.57,109.76,109.76,0,0,1,11.65-4.28c3.35-.89,6.7-1.77,10.08-2.51,1.54-.34,2.28-1.07,2.28-2.64,0-5.39.58-10.77.42-16.17-.09-3.08.8-3.72,3.52-2.29,2.32,1.23,4.42,2.59,4.1,6-.34,3.71-.15,7.48-.39,11.22-.09,1.31.33,1.67,1.66,1.45,3.19-.52,6.4-1,9.62-1.25a16,16,0,0,1,10,2.2c1.22.78,2.64,1.59,2.18,3.45a2,2,0,0,1-2.5,1.68c-6.82-1.12-13.44.44-20.1,1.5a1.66,1.66,0,0,0-1.45,1.81c-.16,4.31-.28,8.61-.5,12.91-.18,3.52-.48,7-.73,10.53,0,.34-.1.68-.12,1-.22,3-.1,3.11,2.88,2.79a18.69,18.69,0,0,1,7.76.54,11.66,11.66,0,0,1,4.95,3.49,2.34,2.34,0,0,1,0,2.88A1.85,1.85,0,0,1,546,354c-3.77-1.93-7.45-.41-11.17.08-1.44.18-2,1-2,2.45q.07,9,0,17.9c0,1.09.16,1.66,1.42,1.13a76.63,76.63,0,0,1,9.29-2.72,39.62,39.62,0,0,1,10.93-1.47,5.08,5.08,0,0,1,4.15,3.08,1.66,1.66,0,0,1-.85,2.29,11.35,11.35,0,0,1-2.55.94,142.69,142.69,0,0,0-27.69,8.93,84.5,84.5,0,0,0-10.25,5,7.56,7.56,0,0,0-1.61,1.48c-2.31,2.5-5.75,2.08-7.71-.66-1.51-2.12-1.44-3.31.79-5.07,3.19-2.5,6.8-4.08,10.4-5.75a15.37,15.37,0,0,1,2.82-1.19c2.24-.53,3.17-1.93,3.25-4.14.22-5.85,0-11.7,0-17.55,0-1-.48-1.32-1.41-1-4.26,1.62-8.58,3.1-11.63,6.79-3.3,4-6.72,1.57-8.54-1.83-.46-.87.15-1.62.7-2.3,3.66-4.48,8.55-7,13.9-8.82,1.83-.61,3.66-1.21,5.44-2a2.14,2.14,0,0,0,1.54-2.16c0-5.74.32-11.46.67-17.19.19-2.94.24-5.89.43-8.84.08-1.38-.36-1.6-1.68-1.31a95.29,95.29,0,0,0-11.37,3.53,110,110,0,0,0-21.68,10.94c-3,1.88-5,4.75-7,7.58-.57.82-.37,2.19-.5,3.32a50.56,50.56,0,0,0,1,18.26c.23.92.73,1.78,1,2.7a1.87,1.87,0,0,1-1.81,2.6,4.13,4.13,0,0,1-3.39-1.32,13.4,13.4,0,0,1-3.73-6c-1.67-5.93-1.32-12-.88-18,.8-11,2.55-22,4.32-32.9.89-5.48,2.14-10.91,3.19-16.37.24-1.24.84-1.64,2-1.24.48.16,1,.26,1.48.39,3.63.94,4.46,2.28,3.61,5.88-2.1,9-3.22,18.09-4.64,27.16C486.35,326.93,486.38,327.16,486.38,327.83Z"/><path class="cls-2" d="M676.35,344.09c-5.91,0-10.12,2.22-13.88,5.4-2.25,1.91-4.5,3.82-6.81,5.65a3.44,3.44,0,0,1-4.38.4,6.09,6.09,0,0,1-2.67-4.35c-.13-.81.59-1.43,1.14-2a35.63,35.63,0,0,1,7.35-6.29,21.57,21.57,0,0,0,5.26-5c2.44-2.91,4.83-5.86,7-8.93,3.29-4.54,5.58-9.49,5.94-15.17.15-2.38-.23-2.56-2.55-2.74-3.32-.25-5.81,1.18-8,3.47a3,3,0,0,0-1,1.95c0,1-.09,2.05-1.24,2.36a3.16,3.16,0,0,1-3.49-.77c-2.47-3.2-3.84-6.06-.43-9.27,2.12-2,4.07-4,7.09-4.74,9.44-2.38,19,5.07,16.52,15.88a41.51,41.51,0,0,1-7.18,15.32c-1.09,1.47-1,1.42.76,1.73,6.78,1.17,12.37,4.25,16.23,10.17a22.45,22.45,0,0,1,4.1,11.89c0,2.13.12,4.2,1.28,6.08a1.42,1.42,0,0,1-.33,2.11c-1.8,1.14-2.1,3-2.51,4.83a37,37,0,0,1-10.27,18.29c-6.64,6.59-16.69,2.1-19.57-3.55-3.51-6.91-.9-14.62,4.79-19.07a38,38,0,0,1,17.94-7.58,1.19,1.19,0,0,0,1.18-1.34c.09-4.74-1-9.08-4.88-12.16A11.53,11.53,0,0,0,676.35,344.09Zm-5.7,38.6a13.57,13.57,0,0,0,.1,1.69,2.6,2.6,0,0,0,3.25,2.17,12.67,12.67,0,0,0,4.75-2.59c4.3-3.83,6.63-8.83,8.32-14.2.35-1.13-.08-1.6-1.15-1.24-3.11,1.06-6.37,1.82-9,3.89C673.52,375,671.05,378.24,670.65,382.69Z"/><path class="cls-2" d="M602.39,354c.08-4.5,0-4.45-3.47-3.14-2.61,1-5.13,2.17-7.62,3.38s-4.31.91-6-1.21a10.27,10.27,0,0,1-.94-1.42c-1.24-2.16-.93-3,1.32-4.09,4.51-2.18,9.3-3.64,14-5.46.89-.34,1.53-.69,1.38-1.78-.3-2.31-.59-4.62-.84-6.93-.13-1.24-.66-1.4-1.83-1.1a21.36,21.36,0,0,0-8.72,4.06,2.89,2.89,0,0,1-3,.42c-2.11-.73-3-2.52-3.74-4.37a1.91,1.91,0,0,1,.79-2.27,19.17,19.17,0,0,1,7.26-3.89c2.27-.53,4.48-1.51,6.79-2.05a.84.84,0,0,0,.73-1.12c-.19-.77-.38-1.54-.59-2.3-.52-2,.44-3,2.39-2.53a7.47,7.47,0,0,1,5.12,3.63,1.64,1.64,0,0,0,1.79.88,20.12,20.12,0,0,1,9.45,1.73,9.17,9.17,0,0,1,3.41,2.74,3.59,3.59,0,0,1,.13,4.27,2.59,2.59,0,0,1-3.84.06c-2.26-1.86-4.76-1.77-7.4-1.39-1.22.17-1.74.69-1.57,1.89.29,2,.6,4,.88,6.07.15,1.11.71,1.42,1.77,1.11,1.36-.4,2.73-.75,4.11-1.06,1.68-.38,5.67,2.14,5.93,3.81.19,1.17,0,2.23-1.49,2.64-2.57.72-5.09,1.6-7.66,2.31a1.79,1.79,0,0,0-1.53,2.2c.17,2,.21,4,.32,6a5.64,5.64,0,0,1-.42,2.5c-.41,1-.57,2.37-1.85,2.36a4.38,4.38,0,0,1-3.73-1.64A5.43,5.43,0,0,1,602.39,354Z"/><path class="cls-2" d="M747.05,357.34a17,17,0,0,1,10.87,4c2.5,2,2.93,4.32,1.64,7.28A17.31,17.31,0,0,1,756,374a87.5,87.5,0,0,1-8.26,7.61,3,3,0,0,1-2.52.75,30.58,30.58,0,0,1-12-5c-3.4-2.53-3.73-8.22-1.67-11.88,2.67-4.73,7.33-5.75,11.73-7.39A8.73,8.73,0,0,1,747.05,357.34Zm-5.18,17.1a2,2,0,0,0,1.46-.3c2.6-2.52,5.41-4.84,7.55-7.79.76-1,.25-1.45-.84-1.3a32.53,32.53,0,0,0-3.68.64,15.59,15.59,0,0,0-6.55,3.08c-1.27,1.11-2.31,2.75-2,4.3s2.41.94,3.7,1.34A1.79,1.79,0,0,0,741.87,374.44Z"/><path class="cls-2" d="M386.82,374.52A123.12,123.12,0,0,1,389.3,356a120.24,120.24,0,0,1,3.29-12.67c.73-2.43,1.48-2.69,3.9-1.83a17.06,17.06,0,0,1,3.63,2.18c.93.64.83,1.81.39,2.82-2.84,6.47-3.79,13.38-4.79,20.29a64.15,64.15,0,0,0-1,10A31.89,31.89,0,0,0,395.8,384a4,4,0,0,0,2.15,2.51,13.26,13.26,0,0,1,1.35.7c1.91,1.31,2.59,2.76,1.93,4a4.27,4.27,0,0,1-5.36,2.1,11.58,11.58,0,0,1-6.2-5.78C387.5,383.49,386.88,379.05,386.82,374.52Z"/><path class="cls-2" d="M598.22,379c-6.22.06-11-1.32-14.65-5.31-2.37-2.59-4-5.51-2.55-9.29.48-1.22,1-1.56,2.29-1.24a8.28,8.28,0,0,1,4.48,2.89,2.33,2.33,0,0,1,.49,1.58c0,2.4.57,3.21,2.8,4a9.32,9.32,0,0,0,3.19.47c6.56,0,12.78-1.74,19-3.55,3.11-.9,6.07-2.26,9.28-2.8,2.1-.35,4,1,3.78,2.83a4.14,4.14,0,0,1-2.4,2.91,60.91,60.91,0,0,1-14.9,5.72C605.16,378.15,601.31,379.13,598.22,379Z"/><path class="cls-2" d="M424.84,382.3c-2.33-.18-4.55-.25-6.54-1.42a6.59,6.59,0,0,1-3.18-4.62c-.32-1.57.48-2.4,2-2,5.62,1.43,10.63-.54,15.64-2.6,2.52-1,5-2,7.56-3.06l.16-.06c1.11-.33,4.69,1.82,5.26,3.15s-.16,2.74-1.93,3.85a55.28,55.28,0,0,1-14.22,6.05A41.94,41.94,0,0,1,424.84,382.3Z"/><path class="cls-2" d="M427.82,343.33c5,.09,8.73.37,11.64,3.42a4.37,4.37,0,0,1-1,6.85,4.1,4.1,0,0,1-4.48-1.14c-1.3-1.71-2.77-2-4.87-1.73a21.5,21.5,0,0,0-10,3.54c-1.39,1-2.65.66-3.93-.21a8.72,8.72,0,0,1-2.63-3.49,2.32,2.32,0,0,1,1-3,16.7,16.7,0,0,1,6.43-3C423,344,425.88,343.16,427.82,343.33Z"/><path class="cls-2" d="M104.64,248.61l-3.27.21a2.39,2.39,0,0,0-2.09,1.37c-2.13,3.7-5,4-8,.83a2.25,2.25,0,0,0-2.42-.75,103.75,103.75,0,0,0-20.14,5.53c-6.21,2.45-12.19,5.38-17.35,9.73a11.92,11.92,0,0,0-2.69,3,2.66,2.66,0,0,1-2.65,1.32c-1.92-.13-3.21-1.39-4.32-2.74a2.16,2.16,0,0,1,.12-2.51,22.35,22.35,0,0,1,2.9-3.46c.53-.57.57-1-.27-1.22-3.22-1-4.6-3.4-5.45-6.45-1.18-4.21-2.28-8.44-3.26-12.7-1.4-6.11-1.85-12.34-2.42-18.56-.64-7-.71-14.16-1.82-21.13-.78-4.88.08-9.71-.64-14.55-.39-2.62.33-5.27,1-7.84,2.4-9,5.42-17.8,8.41-26.62.88-2.6,2.06-5.11,3.13-7.65.63-1.5,1.19-1.68,2.67-1a12.9,12.9,0,0,1,1.39.7c2.55,1.61,3.05,2.47,1.9,5.34-2.25,5.63-4.47,11.28-6.22,17.13-1,3.26-2.29,6.45-3.33,9.71a92.36,92.36,0,0,0-2.32,10.34c-.12.63-.46,1.53.19,1.89s1.06-.58,1.56-1a74.93,74.93,0,0,1,12.76-8.35c5.55-2.76,11.08-5.56,17.14-7.09a24,24,0,0,1,13,.34A27.87,27.87,0,0,1,89,175.37a11.44,11.44,0,0,1,4,4c2.26,3.86,2.43,8.23,3.19,12.46,1.21,6.73,1.45,13.55,2,20.34.46,5.43.71,10.89,1.09,16.34.31,4.51.64,9,1,13.54.07,1.09.82,1.22,1.64,1.18a10.57,10.57,0,0,1,6.47,1.94c.68.45,1.33.94,1.12,1.87a1.9,1.9,0,0,1-1.9,1.57c-1,.06-2,0-3,0Zm-63.77-25a83.79,83.79,0,0,0,.9,9.58c.3,2.46.95,2.73,3,1.26,1.53-1.08,3.05-2.19,4.63-3.18a101.49,101.49,0,0,1,14.81-7.7c5-2.09,10.07-4,15.66-3.67a10.18,10.18,0,0,1,5,1.53,2.58,2.58,0,0,1,1.2,3.22c-.47,1.37-1.73.93-2.7.78a10.57,10.57,0,0,0-3.72,0,59,59,0,0,0-9.12,2.73,82.84,82.84,0,0,0-19.32,10.41,23,23,0,0,0-6.07,5.57,3.71,3.71,0,0,0-.57,3.38c1.12,3.79,2.57,7.51,2.89,11.67a28.42,28.42,0,0,1,2.71-2.05,102.45,102.45,0,0,1,17.07-8A108.06,108.06,0,0,1,90.75,244c1.7-.21,2-.9,2-2.37a122.14,122.14,0,0,0-.73-13.25c-.37-4.35-.73-8.7-1-13.06-.26-5-.72-10.07-1.19-15.09a127.78,127.78,0,0,0-2.26-16.53c-.39-1.68-.74-3.59-2.4-4.57a15.08,15.08,0,0,0-4.82-1.76c-3.74-.72-7.3.15-10.73,1.39-10.33,3.72-19.86,8.86-28,16.37-1.88,1.73-3.33,3.63-3,6.5.51,4.49.76,9,1.23,13.52a20.34,20.34,0,0,0,.69,4.91c.5-.72.79-1.21,1.15-1.63,4.5-5.31,10.24-9.11,16.11-12.62A75.06,75.06,0,0,1,72,199.27c3.3-1.14,6-.35,8.7,1.26a1.53,1.53,0,0,1,.87,1.95A1.88,1.88,0,0,1,79.66,204a13.5,13.5,0,0,0-5.27,1.23,84,84,0,0,0-8,4c-7,4.18-14.13,8.21-19.14,15-1.48,2-2.44,2-4.52.77C42.22,224.54,41.68,224.14,40.87,223.57Z"/><path class="cls-2" d="M422.82,204.28c1.48-3.26,3-6.5,4.43-9.8,2.34-5.44,4.65-10.89,6.55-16.5.1-.3.24-.58.32-.88.64-2.43.63-2.43,3-1.69a7.86,7.86,0,0,1,2.26,1c1.7,1.2,2,2.33,1.38,4.32-1.91,5.74-4.39,11.24-6.7,16.82-2.45,5.91-4.91,11.88-8.3,17.29-2.62,4.19-2,8.36-1.63,12.74.5,6.36,1.33,12.73.25,19.14a23.87,23.87,0,0,1-1.94,6.56c-1.59,3.26-7.36,4-9.77,1.23a1.69,1.69,0,0,1-.53-1.57c.16-.67.74-.85,1.33-.87,1.54-.05,2.23-1,2.76-2.31,1.06-2.68,1.1-5.51,1.37-8.28a70.92,70.92,0,0,0,.05-8.12c0-1.12-.23-2.24-.4-3.76-.79,1.11-1.4,1.91-1.95,2.76a154.89,154.89,0,0,1-12.17,16,84.82,84.82,0,0,1-8,8.55c-2.29,2-5.27,2.65-7.9,1-1.31-.8-1.55-2.09-.33-2.87,3.81-2.44,6.43-6,9.23-9.43a127.59,127.59,0,0,0,10.1-13c2.91-4.61,6.42-8.84,8.81-13.79.21-.45.65-.82.48-1.51a35.2,35.2,0,0,0-6.52,2,128.86,128.86,0,0,0-15.94,7.54,13.71,13.71,0,0,0-3,2.7c-2.74,3-6.32.89-7.7-1.92-.53-1.08.2-1.84.92-2.59,2.74-2.83,6.21-4.52,9.63-6.3,1.06-.55,2.68-.82,3.07-1.67.53-1.14-1.23-1.76-1.87-2.71a25.41,25.41,0,0,1-3.15-6.94c-1.95-6.42-2.45-13.06-3-19.7-.38-4.71-.52-9.37.69-14,1.57-6,3.66-11.71,7.69-16.56,1-1.19,1.7-2.61,2.6-3.88.74-1.05,1.5-2.41,3.06-1.87,1.92.68,4.14,1.18,4.76,3.57.28,1.05-.43,1.82-1.06,2.63-3.49,4.48-7,9-8.76,14.47-.69,2.13-.57,2.28,1.59,2,2.68-.36,5.35-.85,8-1.05,5.08-.38,9.74.63,13.39,4.55a6.89,6.89,0,0,1,1.52,3.7,52.76,52.76,0,0,1,.69,9.64A81.22,81.22,0,0,0,422.82,204.28Zm-7.9-2.87c0-3.33,0-6.66,0-10a84.9,84.9,0,0,0-.32-9.83c-.23-1.94-.58-2.3-2.54-2.36-3.05-.1-6,.64-9,1.09-2.23.34-4.52,1.13-6.61-.55-1.15-.94-1.48-.33-1.54.84-.19,3.66.32,7.28.44,10.92,0,1,.43,1.3,1.39.8a22.71,22.71,0,0,1,7.83-2,12,12,0,0,1,6.32.5c1,.44,2.66,2.49,2.42,3.35-.4,1.46-1.79,1.13-2.84,1.4-.1,0-.21,0-.31,0-2.86.52-5.86.63-8.32,2.43a5.35,5.35,0,0,1-4.66,1.12c-.31-.07-.74-.13-.76.27a4.11,4.11,0,0,0,.32,2.58c.4.62,1.16.29,1.74.16,2.14-.47,4.26-1,6.39-1.48a8.39,8.39,0,0,1,5.77.81,3.3,3.3,0,0,1,2,2.94c-.08,1.31-1.56,1.44-2.67,1.7-2.39.54-4.81,1-7.15,1.64-4.67,1.35-4.71,1.54-2.84,5.93.47,1.09,1,1.49,2.27,1.05a84,84,0,0,1,11.81-3.55c1.16-.23,1.47-.86,1.46-2C415.47,206.6,415,204,414.92,201.41Z"/><path class="cls-2" d="M340.54,266.45a6.41,6.41,0,0,1-4.57-1.71c-.81-.69-1.39-1.9-.25-2.5,2.64-1.36,2.52-3.71,2.33-5.94-.82-9.53-1.52-19.07-2.88-28.55-.46-3.18-.86-6.38-1.21-9.58-.14-1.23-.6-1.48-1.74-1.1-12.09,4-24.05,8.25-35.49,13.83a108.27,108.27,0,0,0-14.85,8.62,6.29,6.29,0,0,0-1.28,1.13,3.28,3.28,0,0,1-3.93,1.07,5.27,5.27,0,0,1-3.38-3c-.35-.87.2-1.56.82-2.19A46.32,46.32,0,0,1,286,228.26c5.95-3.12,12-5.93,18.21-8.6,3.91-1.7,8-3,12-4.48,4.93-1.84,10-3.31,15-4.81,1.28-.38,1.52-1,1.21-2.18-.67-2.51-1.32-5-1.93-7.56-.2-.84-.6-.78-1.24-.54-2.9,1-5.59,2.54-8.38,3.83-3.2,1.48-6.52,2.74-9.34,5a3.08,3.08,0,0,1-3.8,0,8.9,8.9,0,0,1-2.56-2.7,1.82,1.82,0,0,1,.46-2.64,34,34,0,0,1,7.35-4.06c2.69-1.1,5.33-2.31,8-3.49.47-.21.92-.47,1.4-.69a6.54,6.54,0,0,0,3.35-8.63c-.32-.81-.68-1.22-1.63-.74s-2.2.95-3.3,1.42a18.26,18.26,0,0,0-5.64,3.54,3.06,3.06,0,0,1-3.7.83c-1.72-.88-3.29-2.1-3.45-4.12-.15-1.84,1.48-2.93,2.73-3.92a19.28,19.28,0,0,1,5.85-2.9c2.81-.94,5.36-2.57,8.34-3.05a1.31,1.31,0,0,0,1.12-1.33,10.81,10.81,0,0,0-.12-3.26c-.43-1.81.67-2.9,2.49-2.5a15.14,15.14,0,0,1,4.1,1.89,1.49,1.49,0,0,1,.77,1.3c0,1.51.74,1.24,1.81,1,3-.53,6.07-1.31,8.88.74.84.62,2,1.11,1.84,2.3a2.8,2.8,0,0,1-2.46,2.3c-2.8.61-5.59,1.24-8.4,1.78a1.66,1.66,0,0,0-1.61,1.88c0,1.88,0,3.75-.07,5.63,0,1.25.42,1.69,1.7,1.4a44.43,44.43,0,0,1,6.81-.82,10.14,10.14,0,0,1,5.23,1.31c.94.47,2,1.15,1.66,2.36a2.55,2.55,0,0,1-2.55,1.72,50.83,50.83,0,0,0-7.64,1.5c-1.37.3-1.58.86-1.13,2.18.8,2.36,1.25,4.83,2,7.23a1.82,1.82,0,0,0,2.55,1.45c4.09-1.05,8.29-1.51,12.45-2.16a35,35,0,0,1,12.12-.19,7.26,7.26,0,0,1,4.51,2.57,1.58,1.58,0,0,1,0,2.36c-1.2,1.15-2.7,2.18-4.35,1.5-3.84-1.57-7.59-.39-11.37,0-4.31.46-8.5,1.54-12.73,2.42-1.16.24-1.45.84-1.29,2,1.2,8.77,2.39,17.53,3.07,26.35.42,5.49,1.17,11,1.22,16.49a11.31,11.31,0,0,1-.89,4.56C343.72,265.87,342.81,266.46,340.54,266.45Z"/><path class="cls-2" d="M134.43,237a21.13,21.13,0,0,1,.49,2.38c.17,2-1.39,3.24-3.22,2.46a9.25,9.25,0,0,1-5-4.38,52.63,52.63,0,0,1-4.83-17.5c-.8-7.34-.65-14.76-1.81-22.07-.32-2,.18-2.43,2.21-2a11.59,11.59,0,0,1,2.73.66,3,3,0,0,0,3.77-.66,39.59,39.59,0,0,1,12-7.34,1.61,1.61,0,0,0,1.1-1.8c0-2.66,0-5.31,0-8,0-2,.36-2.31,2.32-2.05a10.45,10.45,0,0,1,2.28.51c2.54.95,3,1.71,3,4.42,0,.26,0,.52,0,.78.06,3.9-.56,3.39,3.34,3A27.08,27.08,0,0,1,164,186.66a19.42,19.42,0,0,1,4.67,2.49,10.59,10.59,0,0,1,4.62,7.47,64.13,64.13,0,0,1-.16,20.18,50.78,50.78,0,0,1-4.57,15.34,18.85,18.85,0,0,1-2.49,4,6.94,6.94,0,0,1-10.56-.15,1.7,1.7,0,0,1-.4-1.75c.28-.72.93-.43,1.49-.45a3.82,3.82,0,0,0,1.2-.24c.8-.29,1.83-.68,1.52-1.64s-1.28-.35-1.95-.21c-5.05,1-10.08,2.1-14.59,4.76-.36.21-.83.3-1.09.59C139.21,239.78,137.06,238.94,134.43,237Zm23.84-23a34.49,34.49,0,0,0-7.92.63c-1.26.23-2,.84-1.94,2.33.19,2.8.29,5.61.4,8.41,0,.93.5,1.21,1.32,1a27.34,27.34,0,0,1,11.46-.26,1.36,1.36,0,0,0,1.59-.93,26.45,26.45,0,0,0,1.46-4.6,73.85,73.85,0,0,0,1.85-14.2,30.52,30.52,0,0,0-1-11,5.21,5.21,0,0,0-4.34-3.94,24,24,0,0,0-10.78,1,1.9,1.9,0,0,0-1.45,1.81c-.14,1.29-.29,2.58-.34,3.88-.13,3.11-.65,6.21-.29,9.34.08.76.26,1.17,1.14,1a22.68,22.68,0,0,1,5.76-.14,13,13,0,0,1,7.57,2.9,1.55,1.55,0,0,1,.58,1.81c-.27.76-1,.9-1.66.91Zm-17.42-10.45h.08c0-1.72,0-3.44,0-5.16,0-.48.32-1.13-.28-1.41s-.95.23-1.37.54a64.81,64.81,0,0,0-6.94,5.54,11.51,11.51,0,0,0-3.79,8.86,76.38,76.38,0,0,0,3.78,20.95c.41,1.26,1,1.51,1.79.54a15.39,15.39,0,0,1,6.33-4.13,2,2,0,0,0,1.44-2.25c-.23-2.44-.44-4.87-.62-7.31-.13-1.9-.1-1.9-1.79-1.07-3,1.47-5.7.68-7.35-2.17a2,2,0,0,1,.73-2.94c2.22-1,4.44-2.06,6.74-2.89a1.59,1.59,0,0,0,1.27-1.79C140.83,207,140.85,205.26,140.85,203.49Z"/><path class="cls-2" d="M478.38,216.45a145.56,145.56,0,0,1-15.25,35.77c-1.58,2.63-2.83,5.47-5.13,7.6-1.67,1.54-5.5,1.27-6.8-.56a1.76,1.76,0,0,1,.32-2.53c2.53-2.11,3.39-5.29,5.09-7.93.67-1,1.1-2.24,1.86-3.23,2.08-2.72,2.82-6.09,4.41-9.06a86.66,86.66,0,0,0,5.18-12.18,126.6,126.6,0,0,0,5.29-19.9c.07-.38.42-.86,0-1.14s-.81.07-1.18.25c-3.07,1.52-6.11,3.14-9.23,4.58-2.81,1.29-6.4-.79-6.9-3.88a1.27,1.27,0,0,1,.76-1.54c4.84-2,9.28-4.91,14.35-6.43a17.64,17.64,0,0,0,3.57-1.92,1.43,1.43,0,0,0,.54-1.24c.37-4.15.75-8.29-.21-12.43-.46-2,.25-2.59,2.24-2.19,3.51.7,4.71,1.9,5.32,5.39a20.68,20.68,0,0,1,.05,6.38c-.17,1.3.33,1.49,1.39,1a17,17,0,0,1,6.23-1.84,4.16,4.16,0,0,0,1.32-.46,5.76,5.76,0,0,1,6.94,1.85,1.31,1.31,0,0,1-.17,1.92c-1.56,1.68-3.76,1.95-5.71,2.73-3.15,1.25-6.34,2.37-9.52,3.53a2.17,2.17,0,0,0-1.58,1.9c-.36,2.42-.84,4.82-1.28,7.23-.09.5-.36,1.06.21,1.43,3.21,2.07,4.45,5.57,6.19,8.67,2.44,4.32,4.92,8.59,8.76,11.86a18.4,18.4,0,0,0,4.76,3.34c1.31.55,2.53,1.79,4,2.45A22.8,22.8,0,0,0,518.7,237c1.84-.41,3.39-.45,4.82,1,1.09,1.12,1.13,2-.24,2.85-3.88,2.3-8.21,2.42-12.44,1.94-11.1-1.27-19.63-6.86-25.94-16.05a106.91,106.91,0,0,1-5.58-9.21A2.26,2.26,0,0,0,478.38,216.45Z"/><path class="cls-2" d="M292.23,155.24a55.74,55.74,0,0,1,11-5.67c4.49-1.77,9.06-3.29,13.93-3.55,2.4-.12,4.28,1.17,6,2.67.88.79.5,1.72-.37,2.39a3.84,3.84,0,0,1-2.22.64c-2.37.11-4.56,1-6.82,1.61-.82.21-1.08.62-.31,1.25a2,2,0,0,1,.6,2.26,18.12,18.12,0,0,0-.26,5.74,65.84,65.84,0,0,0,.42,7.93,8.94,8.94,0,0,0,.46,2.11,1.78,1.78,0,0,1-.63,2.46,2.14,2.14,0,0,1-2.67-.08c-3.47-2.31-4.61-5.76-4.56-9.53.05-2.69-.86-5.06-1.39-7.56-.23-1.06-1-.46-1.47-.18-2.5,1.58-5.21,2.82-7.48,4.78-1.9,1.62-2.78,1.65-5.12.36a35.32,35.32,0,0,0-.07,8.53c.22,2.12.6,4.22.79,6.34.17,1.89-.87,2.59-2.61,1.86a7.26,7.26,0,0,1-4.07-4.5c-1.65-4.71-1.66-9.59-1.39-14.51.33-6,1.54-12,1.77-18,.05-1.2-.34-2.43.67-3.53a1.66,1.66,0,0,1,1.89-.66c1.08.35,2.16.71,3.24,1.1a2.86,2.86,0,0,1,2,3c0,3.2-.9,6.28-1.09,9.45C292.45,152.89,292.35,153.87,292.23,155.24Z"/><path class="cls-2" d="M207.23,181.35c3.88.23,7.6.89,10.73,3.52a5.26,5.26,0,0,1,2.09,4.16,23.2,23.2,0,0,1-2.52,9.91c-2.88,6.29-6.09,12.44-8.45,19-1,2.61-2.07,5.26-1,8.17.82,2.2,2.27,2.9,4.54,2.23a21.45,21.45,0,0,0,6.56-3.22,2.31,2.31,0,0,1,2.84-.26,15.29,15.29,0,0,1,1.86,1.12c1.51,1.16,1.67,2.8.21,4.07-7.15,6.23-15.36,6.34-21.93-1.28-2.6-3-2.67-6.33-1.55-9.8,2.13-6.64,5.15-12.93,8-19.26,1.26-2.76,2.15-5.62,3.22-8.42s-.05-4.24-2.84-3.77c-5,.84-9.87,2.13-13.62,5.92-2.06,2.08-4.68,1.85-6.41-.53-.19-.25-.36-.51-.57-.75-1.18-1.34-1.19-1.92,0-3.14a25.26,25.26,0,0,1,10.48-6.25A23.16,23.16,0,0,1,207.23,181.35Z"/><path class="cls-2" d="M328.88,156.81c1.09-6.19.81-13.23,2.39-20.06.55-2.38.92-4.8,1.36-7.21.32-1.76.91-2.12,2.58-1.53,5,1.75,5.37,2.58,3.94,7.71-.68,2.45-1,5-1.5,7.49-.27,1.28.28,1.2,1.26,1,2.32-.47,4.3-1.8,6.53-2.44,2.8-.82,5.66-1.72,8.57-1.42a12.27,12.27,0,0,1,8,3.71,2.09,2.09,0,0,1,.24,2.72,1.74,1.74,0,0,1-2.32.7,10,10,0,0,0-4-.38c-.81,0-1.43.27-.61,1.2a1.88,1.88,0,0,1,.32,1.76c-1.24,6-2.45,12-3.74,18a12.92,12.92,0,0,1-2.6,4.94,2,2,0,0,1-2.65.56,7.4,7.4,0,0,1-2.67-2.36,1.56,1.56,0,0,1-.23-1.63c2-4.28,2.16-9,3-13.52.26-1.38.53-2.76.67-4.15.17-1.72-.5-2.2-2.13-1.61a23.37,23.37,0,0,0-8.18,4.44,2.52,2.52,0,0,0-1,1.82A21.51,21.51,0,0,1,335,161a2.59,2.59,0,0,1-1.86,1.94c-1,.23-1.67-.49-2.25-1.16C328.83,159.34,328.84,159.33,328.88,156.81Z"/><path class="cls-2" d="M316.65,247.75a6.67,6.67,0,0,1-5-3.31,1.67,1.67,0,0,1,1.35-2.53c3.76-.82,7.54-1.57,11.3-2.39,2.29-.5,4.55-1.11,6.83-1.61a5.89,5.89,0,0,1,4.89,2.18c.55.95-.17,2.31-1.64,2.9-1.83.74-3.67,1.47-5.55,2.08A58.79,58.79,0,0,1,316.65,247.75Z"/><path class="cls-2" d="M228.36,214.43a5.9,5.9,0,0,1-5.58-3.9c-1.15-2.6-1-5.48-1.61-8.21-.29-1.36.82-2.19,2.23-2a8,8,0,0,1,3.53,1.13,3.69,3.69,0,0,1,2,3.12,26.07,26.07,0,0,0,.86,5.83,6.92,6.92,0,0,1,.19,2.48C229.87,214,229.49,214.8,228.36,214.43Z"/><path class="cls-2" d="M234.63,199.59c1.31-.05,2.78.85,4.23,1.78a1.7,1.7,0,0,1,.84,1.26c.14,2.43,1.31,4.46,2.39,6.53a2.56,2.56,0,0,1,.38,1.94c-.34,1.18-1.63,1.66-3.1,1.08a11,11,0,0,1-6.05-6.14c-.65-1.41-.69-3-1.55-4.38C231.18,200.71,232.61,199.5,234.63,199.59Z"/><path class="cls-2" d="M25.56,80.23l-1.34-.71-.28-.85,2.12-7.59-.29-3.36-1.16-1-3.78.32a36.93,36.93,0,0,0-9.24,3.78l-.18.22.29,3.37a14.13,14.13,0,0,0,2.19,5.77,2.86,2.86,0,0,1-2,1l-1.58-1.15-1.41-4.3L8.65,73.2l-1.08-.11a16.23,16.23,0,0,1-5.86,3.07L.27,74.38l7.87-4.73.38-2.77-.22-.19L8,63.74l-.65,0-5.1,2.34-2-.9L0,64l7.81-3L8,58.85l-.33-3.77,1.86-.58a1.66,1.66,0,0,1,1.79,1.13l.07.82L11,59l.86.38,2.47-1.08,1.95.5.5,1q-2.86,1.32-5.71,2.39l-.23.23.45,5.26.68.14a35.64,35.64,0,0,1,10.11-3.18l.22.19,2.92-.26a5.48,5.48,0,0,1,3.16,2.09l.36,1.87L29,71.24a30.62,30.62,0,0,1-2.46,8.49Z"/><path class="cls-2" d="M49.56,80.77,48,80.33l-1-2.27L46.83,76l-.22-.15-.39-4.56,1.13-13.79-1.11.1-.37.44-2.1.18a1.66,1.66,0,0,1-1.07-1.85c1.63-.66,3.4-1.3,5.3-1.9l.56-5.56,1.63-.34,1.25,1.63L51,52.72l1.5.12a23.76,23.76,0,0,1,6.66-2.39l1.43,1.2,0,.61a70.92,70.92,0,0,0-10,4.13c-.48,2.69-.89,5.36-1.21,8l.17,2.06-.66,4.36.53,6.08a6.14,6.14,0,0,1,1.72,3.16Zm7.55-16.62-1.77-1.33-.05-.66a28.3,28.3,0,0,1,9-4.59l2-.17a1.88,1.88,0,0,1,1,1.9l-.8.81-2.21.19A24.78,24.78,0,0,0,57.11,64.15ZM69.9,74.72l-1-.32-2.67.23q-4.29-.21-8.55-.8L57,72.27l1.6-.71,6.59.67L67.6,72l3.66.68.2.48-.3.85Z"/><path class="cls-2" d="M101.08,74.57a10.53,10.53,0,0,1-5.45-1.85,11.45,11.45,0,0,1-4.57-8.92l-.31-3.57L90.48,60,90,53.92l.23-.22L89.7,48a2.26,2.26,0,0,1,2-.84l1.1.77L93,49.44l-.19.23.42,4.84-.19.23.39,4.6.23.18.29,3.37.22.19.2,2.34a10.26,10.26,0,0,0,3.48,5.83,8.5,8.5,0,0,0,3.89.94L105,70.43l.15-.64,2.06-.59.92.54.07.83A10.44,10.44,0,0,1,101.08,74.57Z"/><path class="cls-2" d="M145.67,70l-1.6-1.35-.09-1a7.54,7.54,0,0,0,2.59-4l1.12-4.31-.17-2.06-.45-.37-2.3.19a21.3,21.3,0,0,0-8.6,4.92l-1.33,1.81-1.23.11-1.35-1.17-.12-1.44.19-.22L132,57.75l.19-.22L132,54.41l.12-1-.92-3.48,1.4-.53,1.3.72.8,1.62.41,4.77-.19.22.2,2.3.64.15a21.73,21.73,0,0,1,7.8-4l3.12-.27a4.52,4.52,0,0,1,3.06,1.39l.75,1,.2,2.3a30.69,30.69,0,0,1-3.39,9.72ZM143,48.66l-1.81-1.75a36.43,36.43,0,0,1-8.06-3.28l-.5-1a1.82,1.82,0,0,1,1.83-.78q5.48,2.48,11.07,4.51l.26.6L145,48.07Z"/><path class="cls-2" d="M185.21,67.33a10.43,10.43,0,0,1-5.46-1.84,11.48,11.48,0,0,1-4.57-8.92L174.87,53l-.26-.19-.53-6.12.23-.23-.49-5.66a2.24,2.24,0,0,1,2-.84l1.1.77.13,1.48-.19.22.42,4.85-.19.22.39,4.61.23.18.29,3.37.22.19.2,2.34A10.26,10.26,0,0,0,181.94,64a8.53,8.53,0,0,0,3.89.94l3.24-1.76.15-.64,2.06-.59.92.54.07.82A10.37,10.37,0,0,1,185.21,67.33Z"/><path class="cls-2" d="M217.89,62.46l-1.57-1a85.38,85.38,0,0,1-5.84-15.42l2.31-.62,1.4,1.37.18,2.14a31.52,31.52,0,0,0,4.74,9.89l1.14.78.11,1.27L219.8,62Zm18.7-5.29-.89-.34L235,56l-.51-6-.26-.22L234,47.7l-1.62-6.31a2,2,0,0,1,2.33-.82l1.14,1.18.2,2.34.9,2.74.18,2.13.22.19.43,4.93.35,1.67-.53,1.12Z"/><path class="cls-2" d="M269,48.71l-2-1.52-.15-1.68.32-1.11-.36-4.23.18-.22-.4-4.64A17.53,17.53,0,0,0,263.47,29l1.42-.78,3,.16a90.28,90.28,0,0,1,8.69-2.86l1.35.75.11,1.23-.62.51-2.1.18a20.68,20.68,0,0,1-7,2.3l.11,1.28a13.38,13.38,0,0,1,1.39,4.14l.29,3.37-.19.22.35,4,0,2.11.54,1.44L270,48.62Z"/><path class="cls-2" d="M313.26,57.11q-6.63-4.52-13.1-9.42l-.1-1.19,1.69-.52q6.06,4.56,12.28,8.5l1,2.07A2.24,2.24,0,0,1,313.26,57.11Zm-1.4-12q-5.33-2.69-10.47-5.72l-.7-1.51,1.3-.69A64.75,64.75,0,0,0,312,42l1.51,1.65,0,.57A2,2,0,0,1,311.86,45.11ZM315,38.59,301.74,30l-.08-1a1.52,1.52,0,0,1,1.51-.71l6.82,4.3,0,.41,6.55,3.53.34,1.54A2.48,2.48,0,0,1,315,38.59Z"/><path class="cls-2" d="M356.15,53.43l-1.35-1.17-.12-1.44a78.14,78.14,0,0,0,4.46-16l-.64-.16-.18.23-2.06.17a88.13,88.13,0,0,0-16.34,6.83l-1.28-.51-.76-1.63a84.43,84.43,0,0,1,20.2-7.57l3.53-.31L363.16,33l0,.66q-2.67,9.83-6,19.51ZM340.42,30.32l-.91-.54L339.14,28a58,58,0,0,1,9.11-3.31l2.1-.18,2.22-.6,2.09-.18,1.42-.33,1.51.7.35,1.66-1.4.54-2.26.19-.67-.15-.19.23-2.26.19A100.29,100.29,0,0,0,340.42,30.32Z"/><path class="cls-2" d="M396.67,49.28l-1.73-.93-.06-.61.19-.27-.22-2.5-.65-2.26.23-.23-.2-2.34-1-3.93-.2-2.3-1.1-.77a150.61,150.61,0,0,0-9.86,11.44l-1.23.1-1.64-1.76q10.26-11.06,21-22.12l1.46-.37,1.32,1,.09,1.07-7.8,7.45.15,1.65.52,1.23.2,2.35.53,1.4.18,2.13.23.19.36,4.19.22.19.2,2.34,1.05,2A3.49,3.49,0,0,1,396.67,49.28Z"/><path class="cls-2" d="M426.91,45.81a3.26,3.26,0,0,1-2.09-2.18l1.39-1.19,2.13-.19,5.6-1.76.15-.63a16.84,16.84,0,0,1-2.51-6.61l-.42-4.85.5-4.31.85-.28,2,1.11L434.8,26l-.48,1.53.18,2.09-.23.23.27,3.16a25.65,25.65,0,0,0,3.59,9.5l-.36.69-1.48.13-.22-.23-2.34.2Q430.45,44.65,426.91,45.81Z"/><path class="cls-2" d="M488.93,37.54q-6.19-7.12-12.38-14l-4.63,5.74-.41,0-1.08,1.95-2.61,3.33a8,8,0,0,1-1.53,3.85l-1.21.32-1.31-.72-.55-1.61a69.82,69.82,0,0,1,6.24-9.22l.41,0L475,20.36l1.62-.34,2.16,1.05,5,5.53,5,7.43,1.74.89.57,1.81-.17.43Z"/><path class="cls-2" d="M509,37.76a3.92,3.92,0,0,1-3-1l-.53-1.4-.2-2.3a19.42,19.42,0,0,1,2.15-9.21,18.8,18.8,0,0,1,12.37-7.15,8.89,8.89,0,0,1,6.07,2.21,21.41,21.41,0,0,1,7.3,11.75l.27,3.12-.74,1.1-1.06.09a2.11,2.11,0,0,1-1.81-1.71,3.82,3.82,0,0,0,.39-2.76,21.88,21.88,0,0,0-6.77-10.34l-1.75-.68a46.16,46.16,0,0,1-6.62,15.46,7.15,7.15,0,0,1-3.54,2.63Zm2.25-3.13a42.5,42.5,0,0,0,7.07-12.57l.48-2.15-1.1-.32A24.57,24.57,0,0,0,510,25.51a19.56,19.56,0,0,0-1.86,9.59,1.53,1.53,0,0,0,1.69.48Z"/><path class="cls-2" d="M548.28,34.39l-2.35-1-.24-.77,0-2.19-.32-1.34.19-.26-.4-4.56.5-6.75-.26-3,.32-4,.12,0,3.08-.26,1.93-.71,2-5.47-1.26-.26L549,4.08l-1.74-.43-4.71,7.77-1.11.51-1.54-1.48q2.68-4.86,5.24-9.89l1.66-.35,1.06.78.36.76,3.27.54,4-.34,2.09.73.21.56a16.42,16.42,0,0,0-3.32,5.63l3.7.75,2.2,5.86.42,4.8-.27.23.37,4.36a27.47,27.47,0,0,1-1.55,7l-1.08.34-1.39-.75-.33-1.38a11.43,11.43,0,0,0,1.25-6.68l-1.38-.22a27.93,27.93,0,0,1-6.1,1.77l-1.84-.71-.31,1.18.45,5.3,1,2.53-.26.72Zm2.44-12.09.45-.58-.4-.33.46-3.73-2.3.2-.8,1.23.27,3.12,1.94.5Zm.67-7.09.43-2.31a2.52,2.52,0,0,0-2.76-.8l-.89,2.68a2.54,2.54,0,0,0,2.84.79ZM558,20.93l-.06-.74.11-2-2.44-.91-1.26.73-.65,3a5.08,5.08,0,0,0,3.34.33Zm-.77-5.52.26-.93-1.4-2.78-1.19.11-.69,3a3.2,3.2,0,0,0,2.69,1Zm16,20.56-1.56-.78-.51-1.11a4.23,4.23,0,0,0,.93-3.19l-.3-3.49.27-.23-.25-2.92-1.66-.47-5.24,1.65-1.72-1.76q3.69-1.43,8-2.84l.18-2.29-2.18-.72-4.8,1.4-1.69-1.38,0-.29,2.15-1,.19-1.26-.36-1.25.31-2.18-.34-4,.18-.22-.28-3.29-1.8-.71-.53-1.45A26.66,26.66,0,0,1,570.83.13l.76.14.76-.27,3.75.84.36,1.21a15,15,0,0,1-2.91,8.52l-.84.36.23,2.72.41,1.33,3-.26c.82.2,1.26.64,1.32,1.29a10.73,10.73,0,0,1-3.61,1.43l-.15,2,1.64.81,1.35-.69,2.71-.24,1.1,1.27-.86,1.07-4.23.36-1.11,1,.55,6.45-.23.23.29,3.32-1.18,2.67Zm-3-20.6.39-1.65-.27-.27-.19-2.21A75.72,75.72,0,0,0,573,3l-.8-.64-2.71.24-1.94,1,.22,2.55-.23.22.25,3-.24,6.35,2.2.1Z"/><path class="cls-2" d="M596.91,32.56l-1.78-.51-.07-.86a13.23,13.23,0,0,0,2.8-9.3l-2.18-.72-2.23.48L591,20.33l-2.37,9-1.48.12a2.52,2.52,0,0,1-1.46-2,76,76,0,0,0,3-11.39l-1.18-.27L583,16.88l-1.47-1.61c2.33-.84,5-1.64,7.91-2.42l.37-.45L589.42,8l.35-4.54.08-.05,2.34-.2q.85.25,1,1.53l-.6,5.51L593.2,12l.52.28,2.83-.24.23-.23,2.39-.2,2.63.27.43-2.19-.45-5.18a2.39,2.39,0,0,1,2-.62l.86.42.4,1.7-.41,1,.24,2.75,1,1,2.71-.23a126.41,126.41,0,0,0,12.62-3.4l1.53.45.09,1.06a56.54,56.54,0,0,1-8,3,64.77,64.77,0,0,1-1.62,11.93,13.74,13.74,0,0,0,7.3,2.6l.76,1.21-1.55,1.17-8.17-2.61a13.75,13.75,0,0,1-3.1,4.91l-2.31.48-1.2-.89,1.24-1.51.57-.05a12.66,12.66,0,0,0,2.51-6q-2.65-2.51-5.22-4.89L603,17.52l-.08,0-.22-2.5-.77-1.76-1.35.12-.27.27-4.6.4-3.18,1.06-1.38,5.12,1.62-.47.56-.21,3.37-.29,3.53,1.14a6.15,6.15,0,0,1,1.07,3.8,22.66,22.66,0,0,1-2.86,8.07Zm14-12.37-.1-1.15.78-5.9-1.12-.94-4.72.41-.37,2.51.8,3A11.55,11.55,0,0,1,610.87,20.19Z"/></g></g></svg>