<svg xmlns="http://www.w3.org/2000/svg" viewBox="0 0 973.28 279.37"><defs><style>.cls-1{fill:#e0e554;}.cls-2{fill:#fff;}</style></defs><g id="レイヤー_2" data-name="レイヤー 2"><g id="レイヤー_2-2" data-name="レイヤー 2"><polygon class="cls-1" points="973.28 204.83 971.05 204.58 970.46 205.91 973.28 204.83"/><path class="cls-1" d="M962.47,201.15l-3.74.86c2.49,3.5-.52,2.68,5.6,4.81,2-.75,6.46-2.42,5.74-3.82-1.47.29-3.53,1.88-5.78,1.62.86-1.14,3.24-1.22,4.22-2.7-3.65-.83-2.15,1.09-6.11.92Z"/><path class="cls-1" d="M958.32,205.2a3.4,3.4,0,0,0,.48-1.84C958.5,204,956.74,205,958.32,205.2Z"/><path class="cls-1" d="M956.05,205.78c-2.39.07-.08-1.36-.34-1.54l-2.5,2.6Z"/><path class="cls-1" d="M946.14,206.47c-.38.1-.74.2-1.09.32C945.47,207.14,945.75,206.79,946.14,206.47Z"/><path class="cls-1" d="M941.3,207.17c1,.74,2.23.15,3.75-.38a.94.94,0,0,1-.16-.14c-1.43-.57-.29-2.38,2-2.12,2.27-.58,2.2,1.11,4.11-.16l-2.86-1.13C944.49,203.76,942.65,206.38,941.3,207.17Z"/><path class="cls-1" d="M946.14,206.47a8.33,8.33,0,0,1,1.28-.22A1.17,1.17,0,0,0,946.14,206.47Z"/><polygon class="cls-1" points="951.13 206.24 952.34 205.79 951.97 205.1 951.13 206.24"/><path class="cls-1" d="M933.19,208c.37-2.36,5.83-.26,6.3-2.1-3.18.37-5.89-1.1-5.3-2.43l-3.48,1C929.59,205.47,931.25,207.08,933.19,208Z"/><path class="cls-1" d="M925.75,202.77a2,2,0,0,1-.78.46C925.35,203.1,925.67,203,925.75,202.77Z"/><path class="cls-1" d="M908.16,208.27l8.09-3c-.71.8-.34,1.5-2.2,1.93,3.69,0,4-1.52,7.08-1.55,1.09,2.07-5.32.62-3.41,2.39,2.11-.25,5.31-.62,6.86-2.59l3.51,1.18-1.35-2.27c-1.43-.55-2.61,2.09-3.6.53-.51-1,.84-1.29,1.79-1.61-2.14.66-6.13-1.33-10.55-.64C909.72,203.25,911.15,206.87,908.16,208.27Z"/><polygon class="cls-1" points="907.63 205.7 907 204.83 907.48 206.04 907.63 205.7"/><path class="cls-1" d="M898.85,209.56l4.19-1.85c.48.16.78.63,1.13,1-.22-.54.86-1.56.64-2-2.17-2-5.22,1.14-7.5,1.71-6.2-.44.18-1.17-2.37-3,1.72-.09,1.83.41,4.21.36-3.95-2.08-8.46.52-10.81,1.33.72.15.95.79,2.26.49l-2.43.91C890.89,210.06,893.13,210.32,898.85,209.56Z"/><path class="cls-1" d="M906.56,208.88c-1.6.29-2.2.18-2.37-.11C904.66,209.31,905.24,209.68,906.56,208.88Z"/><path class="cls-1" d="M887.05,207.35a2.15,2.15,0,0,0,1.29-.17A2.16,2.16,0,0,0,887.05,207.35Z"/><path class="cls-1" d="M889.71,209.67l-3,0,1.27.91C888.36,210.46,889.83,210.17,889.71,209.67Z"/><path class="cls-1" d="M773.9,216.34c.35.84,1.49,1.17,3.81.81-.18,1.17-3.22,1.21-4.58,2,3.15.48.07,1.37.94,2.42,3.45-.19,4.85-1.82,8.56-1.83a1,1,0,0,0,.47,1.21c4.37-1.11,11.77-2.84,16.18-2.22,4.21.08,7.25-.73,11.79-1.65,15.1-.69,30.7-3.23,47-3.54l2.1-2.44c.88,1,3.85-.34,3.52,1.16a8.54,8.54,0,0,0-2.79.22c3.64,1.69,9.17-.95,13.39-.6-.51-.36-1.35-2.26-.13-2.71-.12,2.53,4.9-.47,6.36,2.3,4.22.36,0-2.2,4.33-2.17.34-1.52-4.21-.36-5.09-1.41,1.26-1.31,4,.17,3.64-1.36-7-.14-19.64,4-30.17,5.79l1-1.48c-5.36,1.45-14.13,2.26-18.67.38,1.14,1.22-8.07,0-7,2.9-1.43-.57-1.84-.42-3.81-.51l-.45,1c-2.79.21-2.46-1.28-5.65-.92,2.2,1.11-.08,1.69-.92,2.84-3.78-1.12-8.15-2-11.5-2.92a3.31,3.31,0,0,0,1.78,1.3c-2.24-.26-1.76.94-2.31,1.43-2.13.25-2-1.44-2-2.29-3.95-.17-5.42,3.16-8.44,2.34l1.13,1.24c-4,.67-7.52-.5-11.91.33-2.31-1.63,3.52-1.88,5.29-2.82-.94-.31-2.86-.25-3.53-.79-1.81,1.09-4.9,2.63-7.19,3.7C781.08,215.74,775.43,216.34,773.9,216.34Z"/><path class="cls-1" d="M786.19,214.34a9.63,9.63,0,0,0,1.23-.84,3.41,3.41,0,0,1-1.47.28A.58.58,0,0,0,786.19,214.34Z"/><path class="cls-1" d="M773.9,216.34c0-.08-.09-.13-.11-.21C773.36,216.29,773.49,216.33,773.9,216.34Z"/><path class="cls-1" d="M799.87,218.79c-.18,0-.39,0-.59-.07l-.74,0Z"/><path class="cls-1" d="M802.67,212.47a24.66,24.66,0,0,0,3.53,1.13C805.77,213,805.42,212.59,802.67,212.47Z"/><path class="cls-1" d="M830,211.63c.82-.3.3-.66.84-1.15C829.08,210.58,828.53,211.06,830,211.63Z"/><polygon class="cls-1" points="781.29 214.42 777.94 215.12 776.74 215.58 781.29 214.42"/><path class="cls-1" d="M713.36,227.21c3.12,1.32,7.41,0,11.12,0,6.68-1.4.55-3.53,6.94-4.28l-.82,3.36c6.38-.74,15.51-.85,20.7-4.18.51.36,1.68.75.06,1.36,4.26-.49,1.82-4.83,7.6-4.24-5.14,2.48,1.91,1.78.63,3.92l-.81.3c3.59-.52,8.28-2,10.68-2.08,0-.84-2.17-1.94,1-2.32-1.31-.06-.86-1.05-.83-1.9-3.23,1.21-5.07.8-7,2.08-1.94-1,1.21-.47-.73-1.39l-2.57,1.24c-2-.09,1.92-1.27-1.14-1.24-.29.66-2.71,1.58-5.1,1.63l.65-.43c-1.77.59-4.4.28-3.36,2l-2.31-1.62.48,1.2c-5-.05-7.15-2.84-13.46-.75,1.57.24.21,1-.59,1.33,2.75.63,3.23-1.21,5.75-1.6.49,1.2-3.7,3-.54,3.52-3.53-1.17-6.39.74-8.11-2.22-4.11.16-5.51,1.8-9.72,1.44l.07-.47c-.6,2.11-3.46-.63-6.35,1.72l2.23.27c0,.85-1.1,1-2.56,1.24.14-.34.14-.34-.37-.69-.33,1.51-5,2.15-5.54,2.64,2,.08,4.29-1.34,6.57-1.92C714.87,226.09,715.33,227.29,713.36,227.21Z"/><path class="cls-1" d="M755,218.19l-1.26.83A2.2,2.2,0,0,0,755,218.19Z"/><path class="cls-1" d="M694.62,226.22c-2.64-.12.59-1.32-1.9-1.78-2.57,1.25,3.22,1.85.76,3.6-1.68-.75-4.15,1-5.22,1.13,1.11-1,.27-2.87-.25-3.23-1,.63-3.29-.15-5-.05,4.33.86-3.49,1,.43,2-.18,1.19-4.07,2.38-5.76,1.62.05-.85,1.37-.78,2.43-.91.73-1.67-2.75-.62-3.48-2-3.83,2.55-16.7,3.51-12.74,6.73,1.43.56,2.53-.39,4-.67-4.23-.36-.19-1.87.11-2.54,1.83.42,4.8-1,4.22.36l-2.72,1.57c9.13-.11,21.5-1.43,31.89-2.84l-4.53.31c.45-1,2.57-1.25,4.19-1.85l-2.41-2.14c1.31.06,2.53-.39,2.5.45,1.5-1.12.72-1.66-.3-2.38,3.34-.7,4,.16,6.43-1.59-5.76-1.43-4.59,2-11.15.87Z"/><polygon class="cls-1" points="706.77 223.88 705.52 225.18 707.53 224.41 706.77 223.88"/><path class="cls-1" d="M705.06,229.21c-.1-.51.7-.81.59-1.31C703,227.78,703.38,228.47,705.06,229.21Z"/><path class="cls-1" d="M673.16,226.82l-3.34.69,2.24.27C672,227.26,672.76,227,673.16,226.82Z"/><path class="cls-1" d="M650,234.94c4.66-.64,6.58-1.9,12-1.17,2.46-1.75-1.46-2.76-.46-4.24-2.65-.12-2.1,2.44-4.77,3.18-1.13-1.24-4,.63-6.58.55A1.21,1.21,0,0,1,650,234.94Z"/><path class="cls-1" d="M633.5,231.28c-2.14.17-4.21,1.38-6,.89.17-.85,1.42-1.27,2.73-1.15-1-1.81-2.34.49-4.76-.56.22.18,1.09.43.48.89-5.8.06-3.11,1.83-10.66,1.39-1,.61-2.1.69-1.82,1.92-4.37-1.21-2.23-1.38-7.44-2.32.26.7,2.07,2.24,2.17,3.8-7.39-1.58-7.33.94-12.07-.31a5.11,5.11,0,0,1,2.35-.48c-.79-2.13-3.83.73-6.41.52l.08-1.88c-2.33.49-6.31,2.07-9.39,1l.59-1c-5.9,1.94-13,1.88-18.08,3l-2.85-.92c-7,2,7.1.05,2.14,3.28-1.07-3.37-3.55,1.43-7.7.41-2-1.2,4-1.06,1.77-2.44-.74,1.83-2.1.69-4.21,1.38.32-1.7-4.5.16-3.34-1.82l-7.29,3.72c-1.29-.84-3.46-.49-5.05-.11,4.07-.33-.91,2.57,3.73,2.94a133.65,133.65,0,0,1,26-2.73c.71-2.36,5.35-.43,6.51-2.41.25.71.94,1.29,1.2,2,5.31-.95-1.37-1.15-.14-2.09,2.33-.5,4.34.71,4.19,1.55,3.85-.21.39-.66,2.24-2.06l2.72,2.29c11.91-1.8,27.63-4.85,41.39-4.6l-1.16-1.48c6.24.34,10-4.37,15.8-1.48l1.76-1.5c-1,.85,1.27,2.25-.26,3.46,1.64-.68,3.47-.24,5.17-.87l-3.15-.48c2-1.52,4.51-.9,5.33.2,4.47-2-3-2.47-4.11-3.7-6.24,3.45-6.78-2.28-12.91-.53C629.36,230.25,633.66,230.43,633.5,231.28Z"/><path class="cls-1" d="M641.9,234.88a3.74,3.74,0,0,0,.91-.5A3.71,3.71,0,0,0,641.9,234.88Z"/><path class="cls-1" d="M538.78,240.49a18.07,18.07,0,0,0-1.81.25C536.39,241.19,537.35,240.82,538.78,240.49Z"/><path class="cls-1" d="M650.18,233.26l0,0s0,0,0,0Z"/><polygon class="cls-1" points="652.94 229.15 651.22 229.25 651.58 229.93 652.94 229.15"/><path class="cls-1" d="M520.38,240.09l0,.83A.68.68,0,0,0,520.38,240.09Z"/><path class="cls-1" d="M471,243.83l1.06-.05A2.13,2.13,0,0,0,471,243.83Z"/><path class="cls-1" d="M352.68,255.72c-3.18.79-7.42,1.65-9.68,3.19l.16-.85c-1.7.55-7.16,2.35-3.44,3.52l.81-.8c4-1.57,3.09,1.11,6.33,1.37,3.82-.72,5.75-4,9.22-3.57,1.49-.22,1.33.63.94,1.29,3.44-.07,4.57-2.57,6.9-3.08,1.47,6.16,10.36-2.6,15.75.93,3.17-.78,7.48-.6,11.46-2.18-2,1.75,3.86-.2,3.12,1.64.83-3.73,11.86.6,12.2-4,5.64.8.2-.33,6.68.2,0,.51-1,.6-1.46.73,2.62.73,3.73-2.28,6-.37,5.14-.11.77-1.32,3.68-2.8,5.38.07,3.93.83,7,2.46.29-2.22,3.57-1.44,6.06-2.8-.65,0-4.31-.16-2-1.19,6.23-.19,4.83-1.86,10.56-2.95,3.14,2.16-5.77.57-.52,2-3.56,1.44-6.35,1.56-8.16,3.49a81.75,81.75,0,0,0,16.17-2.67c3,.07-1.43,1.27.94,1.28,5.41.61,8-3.15,12.31-2.45l-.78,1.31c2.46-1.87,9.44-.44,14.28-1.78-.67-.57-1.13-1-.51-1.42.19,3.13,6.73-2.21,11.79-.43-.56-1.94,4.08-3.46,7.06-3.92,1.1.45.94,1.29,1,1.82-5-.76-4.56,2.55-8.36,3.81,3.15-1.31,8.56-.7,11.25-2.38l-1,1.64c4.5-.16,3.62-3.84,8.42-2.76l-.36,1.17c9.4-1,20.64.12,28-3.09.58-1-3.41-2.86-3.68-3.58-4.43,1.2-6.89,3.08-10.25,4.19l-.12-1.78c-.67,1.28-4.74,2.36-2.37,3.13-2.72,1.15-2.24-1.39-5.38-.1.09-1.88,2-2.25,1.9-3.8l-2.71,1.15c.81-.79-1.75-.48-1-1.28-5,2.7-7.31-.25-12.59,1.22l3,.08c.06,1-1.66,1.07-2.92,1.49-1.59-1.34-2.44-1.06-5.25-1.46-2.3,1-3.46,3-6.67,3.26.52-2-5.42-.62-6.16-2.22-.52,2-6.15,1.23-6.5,2.4-1.69.55-4.06.54-4.13-.51.25-.07.74-.32,1.27-.45l-1.72.08c.14-.24.07-.4.26-.46-1.53.09-1.42,1.52-3.47.71,0-.51,1-.6,1.88-.88-4.09,0-6.87,3.59-10.39,2.1-.59,1-5.28,1.46-4.08,3.47-1.33-.64-1-2.33-4.41-1.74-1.81,1.92-3.89-.32-6.38,1,3.3-2.14,0-.51,2.85-2.54-2.4-.52-5.67,2.14-9.76,2.17-.44-.39-.48-.91-.94-1.29-1.46.74-3.07,2.33-4.66,1l.29,1.23c-2.82-.4-6.64.33-9.72-.78l-3.26,2.66c-4.87-2.11-10.92.69-14.42,3.16-1.71,0-4.31-.18-4.34-.71.38-.21,1-.63,1.78-1-2.52.13-5.7-1-6.93,1.14-2.53.82-2-1.2-3.95-1.36-5,3.22-15.53-.73-16.75,3.65,2.14-.17,6.25.33,10.3-.2-1,.61-.13,1.37-1.62,1.59-4.05.54-6.28-.85-10.3.21l.26-2.74C364.27,252.17,358.48,259.12,352.68,255.72Z"/><path class="cls-1" d="M404.82,251.3l-3.07-1.11.42,1.14A4.08,4.08,0,0,1,404.82,251.3Z"/><path class="cls-1" d="M402.17,251.33a9.38,9.38,0,0,0-1.68.69,4.23,4.23,0,0,0,1.78-.4Z"/><path class="cls-1" d="M341,257.19a8.18,8.18,0,0,0-3.22.26A4.84,4.84,0,0,0,341,257.19Z"/><polygon class="cls-1" points="337.58 258.3 339.11 258.59 339.3 258.26 337.58 258.3"/><path class="cls-1" d="M251.39,268.07l-4.61,2.05c-.9-.76-6.18.71-4.56-.87-2.66,2.19-9,.82-6.45,3.44,13.84-2.16,33.18-2.16,49-6.05L282.33,268c8.18-3,11.69,1.48,18-3.54l-.7,2.36c3.89.31,7-3.92,11.27-1.86l-.49-.89c1.07-.09,1.52.29,2.6.21l-.46-.39a11.8,11.8,0,0,1,7.25-.8c.26.72-1.26.43-2.1.7,1.33.63,3.37-1.11,5.51-1.28,1.75.49.07,1-.13,1.37,6.35-1.56,9.49.59,13.76-3.2.39-.66-1.78-1,.55-1.51-4.34-.7-7.68.93-11.47,2.18l1.08-.08c-2.79,3.56-2.4-.55-7.23,1.31,1.19-1.46,3.34-1.63,4.14-2.43-5.93-2-8,2.63-12.05-.29l.42-.13c-.87-.24-2.33.51-3.59.92a9.9,9.9,0,0,0,2.62.73c-1.26.41-1.8,1.92-2.2,2.58-1.58-1.33-1.87.88-4.27.35-.94-1.28,1.84-1.41,2.65-2.21l-2.72,1.17c-2.55.31-2.65-1.26-4-1.88-2.07,1.22,1.34.62-.29,2.22-2.89-1.44-14.6,0-20.09,1.83,1.93-.36.56-1.51,2.93-1.49-.88-.23-3.82.73-3.75,1.77-3.8,1.25-8.75,1-12.45.38l1.13.95c-2.88,2-7.78-.63-13.05.85h.12c-1.71.37-3,3-6.18,2.78C250,269.34,251.68,269.3,251.39,268.07Z"/><path class="cls-1" d="M232.73,272.1l1.62-1.6c-1.95-.16-4.18,1.91-3.69,2.81,1.25-.42,3,.07,3.18-.78C233.6,272.34,233.57,271.82,232.73,272.1Z"/><path class="cls-1" d="M196.84,275.42c-.67.39-.45.92-.71,1.35,7.59-.84,16.92-2.22,20.05-1.35,2.6.2,2.87-2,6-2.79l1.58,1.33c1.66-1.07,7.11.06,5-2.17-.22-.19-1.42,1.26-3,1l.17-.84-3.4.58,1-1.13c-4.8-1.08-3,3.39-8.84,2.92l-.13-2.09c-3.87.21-5.74,1.1-9.24.13,0,0,.07,1,.67.56.66.06,1.57.82,1.17,1.48-5.66,2.13.78-1.32-3.33-1.82-4.83,1.85-14.15,3.86-17,2.42,2.44,1.06-.91,2.69-3.69,2.81-1.32-.63.78-1.32,1.17-2-1.3-.12-2.4-.55-3.67-.13,1.78,1,.82,2.65-2.13,3.62C185.31,280,190.2,275.74,196.84,275.42Z"/><path class="cls-1" d="M195,277.34c.68-.13,1-.33,1.11-.57l-2.63.27Z"/><polygon class="cls-1" points="648.6 120.48 646.92 120.17 646.51 121.49 648.6 120.48"/><path class="cls-1" d="M640.42,116.56l-2.78.78c1.93,3.55-.34,2.67,4.3,4.93,1.49-.71,4.79-2.28,4.21-3.69-1.09.25-2.6,1.8-4.29,1.49.62-1.12,2.4-1.15,3.11-2.6-2.76-.91-1.6,1-4.57.78Z"/><path class="cls-1" d="M637.39,120.52a4.25,4.25,0,0,0,.33-1.82C637.51,119.35,636.21,120.25,637.39,120.52Z"/><path class="cls-1" d="M635.71,121.05c-1.8,0-.09-1.36-.29-1.55l-1.82,2.55Z"/><path class="cls-1" d="M628.29,121.53c-.28.09-.55.18-.81.29C627.8,122.18,628,121.84,628.29,121.53Z"/><path class="cls-1" d="M624.68,122.12c.8.76,1.67.2,2.8-.3a.94.94,0,0,1-.12-.14c-1.08-.6-.27-2.38,1.42-2.08,1.69-.52,1.67,1.16,3.07-.07l-2.16-1.19C627,118.78,625.67,121.36,624.68,122.12Z"/><path class="cls-1" d="M628.29,121.53a4.8,4.8,0,0,1,1-.19A.7.7,0,0,0,628.29,121.53Z"/><polygon class="cls-1" points="632.03 121.41 632.92 120.98 632.64 120.28 632.03 121.41"/><path class="cls-1" d="M618.62,122.78c.23-2.34,4.36-.13,4.68-2-2.38.3-4.45-1.22-4-2.53l-2.59.94C615.87,120.18,617.14,121.81,618.62,122.78Z"/><path class="cls-1" d="M612.92,117.39a1.28,1.28,0,0,1-.56.45C612.64,117.72,612.87,117.58,612.92,117.39Z"/><path class="cls-1" d="M599.86,122.51l6-2.86c-.51.79-.22,1.5-1.61,1.88,2.77.08,3-1.43,5.27-1.39.87,2.09-4,.5-2.5,2.31,1.58-.2,4-.5,5.09-2.43l2.66,1.25L613.7,119c-1.08-.59-1.91,2-2.68.44-.41-1,.6-1.26,1.31-1.57-1.6.62-4.63-1.45-7.93-.86C600.93,117.53,602.07,121.18,599.86,122.51Z"/><polygon class="cls-1" points="599.41 119.93 598.91 119.04 599.3 120.27 599.41 119.93"/><path class="cls-1" d="M592.91,123.59l3.1-1.76a2.89,2.89,0,0,1,.87,1.07c-.17-.54.61-1.54.44-2-1.67-2-3.89,1-5.59,1.54-4.65-.57.11-1.16-1.84-3,1.29-.06,1.38.45,3.17.44-3-2.16-6.34.35-8.08,1.1.54.17.73.82,1.71.54l-1.81.86C587,123.92,588.64,124.23,592.91,123.59Z"/><path class="cls-1" d="M598.67,123.08c-1.19.26-1.64.14-1.77-.16C597.26,123.47,597.7,123.85,598.67,123.08Z"/><path class="cls-1" d="M584,121.13c.21.12.53,0,1-.14A1.27,1.27,0,0,0,584,121.13Z"/><path class="cls-1" d="M586.06,123.5l-2.27,0,1,.93C585.07,124.27,586.16,124,586.06,123.5Z"/><path class="cls-1" d="M499.4,127.67c.27.85,1.14,1.2,2.87.89-.11,1.17-2.39,1.14-3.39,1.89,2.37.55.08,1.36.76,2.43,2.58-.11,3.59-1.71,6.37-1.64a1.26,1.26,0,0,0,.38,1.22c3.25-1,8.76-2.58,12.08-1.86,3.16.16,5.42-.58,8.8-1.4,11.31-.36,22.94-2.56,35.14-2.52l1.52-2.4c.69,1.08,2.88-.25,2.67,1.24a4.91,4.91,0,0,0-2.09.16c2.76,1.76,6.86-.75,10-.31-.38-.37-1.06-2.28-.15-2.71,0,2.53,3.66-.36,4.82,2.44,3.17.45-.07-2.2,3.2-2.08.21-1.51-3.17-.45-3.85-1.51.92-1.29,3,.25,2.7-1.29-5.25-.29-14.63,3.62-22.49,5.13l.71-1.45c-4,1.34-10.54,1.95-14,0,.88,1.25-6-.19-5.19,2.75-1.09-.59-1.39-.46-2.87-.59l-.31,1c-2.09.15-1.88-1.33-4.26-1,1.67,1.15,0,1.69-.63,2.82-2.86-1.21-6.15-2.2-8.68-3.17a3,3,0,0,0,1.36,1.34c-1.69-.31-1.3.9-1.7,1.38-1.59.2-1.57-1.49-1.56-2.33-3-.26-4,3-6.28,2.15l.88,1.26c-3,.58-5.65-.66-8.93.08-1.77-1.68,2.6-1.81,3.9-2.71-.7-.32-2.14-.3-2.65-.86a61.94,61.94,0,0,1-5.31,3.54C504.77,127.23,500.54,127.71,499.4,127.67Z"/><path class="cls-1" d="M508.57,125.94a7,7,0,0,0,.89-.81,1.94,1.94,0,0,1-1.09.25A.67.67,0,0,0,508.57,125.94Z"/><path class="cls-1" d="M499.4,127.67a1.89,1.89,0,0,1-.09-.21C499,127.61,499.09,127.66,499.4,127.67Z"/><path class="cls-1" d="M518.91,130.68a2.87,2.87,0,0,0-.44-.08c-.19,0-.35,0-.55,0Z"/><path class="cls-1" d="M520.88,124.43a17.14,17.14,0,0,0,2.67,1.2C523.21,125.06,522.94,124.61,520.88,124.43Z"/><path class="cls-1" d="M541.32,124.18c.6-.29.21-.66.6-1.13C540.64,123.11,540.23,123.58,541.32,124.18Z"/><polygon class="cls-1" points="504.89 125.91 502.4 126.54 501.5 126.97 504.89 125.91"/><path class="cls-1" d="M454.24,137.22c2.37,1.38,5.56.14,8.34.22,5-1.26.34-3.52,5.11-4.12l-.54,3.33c4.77-.6,11.61-.51,15.43-3.72.38.36,1.27.78.07,1.35,3.18-.4,1.26-4.78,5.61-4.07-3.8,2.37,1.47,1.82.55,3.93l-.6.28c2.68-.44,6.17-1.82,8-1.84,0-.85-1.67-2,.71-2.3-1-.08-.67-1.06-.67-1.91-2.39,1.14-3.78.68-5.19,1.92-1.47-1,.91-.44-.57-1.4l-1.9,1.18c-1.49-.13,1.41-1.23-.88-1.26-.21.66-2,1.52-3.78,1.52l.47-.42c-1.32.55-3.29.19-2.48,1.94l-1.76-1.67.39,1.21c-3.78-.16-5.43-3-10.11-1,1.18.27.18,1-.42,1.32,2.08.68,2.4-1.14,4.28-1.48.39,1.21-2.71,3-.33,3.51-2.67-1.25-4.77.6-6.13-2.39-3.07.07-4.09,1.67-7.25,1.23l0-.47c-.4,2.09-2.6-.71-4.72,1.58l1.68.32c0,.83-.8.93-1.9,1.18.1-.34.1-.34-.29-.71-.22,1.51-3.69,2.05-4.09,2.52,1.48.13,3.18-1.24,4.88-1.77C455.36,136.13,455.73,137.34,454.24,137.22Z"/><path class="cls-1" d="M485.3,129.12l-.93.79A1.59,1.59,0,0,0,485.3,129.12Z"/><path class="cls-1" d="M440.18,135.82c-2-.17.41-1.3-1.47-1.81-1.89,1.19,2.46,1.91.66,3.61-1.28-.79-3.09.91-3.89,1,.81-.95.13-2.86-.26-3.23-.7.61-2.48-.21-3.77-.16,3.26,1-2.59,1,.37,2-.11,1.18-3,2.29-4.28,1.5,0-.85,1-.76,1.8-.86.51-1.65-2.07-.68-2.65-2.09-2.82,2.46-12.45,3.14-9.41,6.45,1.08.59,1.89-.34,3-.59-3.17-.45-.18-1.87,0-2.53,1.39.45,3.58-.87,3.17.45l-2,1.51c6.84.08,16.08-1,23.84-2.16l-3.38.22c.31-1,1.9-1.19,3.09-1.76l-1.85-2.19c1,.09,1.89-.34,1.88.51,1.1-1.09.51-1.64-.27-2.39,2.49-.62,3,.25,4.78-1.44-4.34-1.56-3.39,1.9-8.34.63Z"/><polygon class="cls-1" points="449.24 133.75 448.33 135.02 449.82 134.3 449.24 133.75"/><path class="cls-1" d="M448.07,139c-.09-.51.51-.79.42-1.3C446.5,137.56,446.8,138.26,448.07,139Z"/><path class="cls-1" d="M424.1,136l-2.48.62,1.68.32C423.21,136.38,423.81,136.11,424.1,136Z"/><path class="cls-1" d="M407,143.57c3.47-.53,4.88-1.76,8.93-.91,1.81-1.69-1.15-2.79-.44-4.25-2-.17-1.52,2.4-3.5,3.07-.88-1.25-3,.55-4.93.41A1.5,1.5,0,0,1,407,143.57Z"/><path class="cls-1" d="M394.47,139.56c-1.6.12-3.12,1.29-4.44.76.1-.84,1-1.23,2-1.09-.77-1.83-1.74.44-3.58-.66.17.19.83.45.38.9-4.34-.07-2.29,1.75-8,1.16-.76.59-1.56.64-1.32,1.88-3.3-1.31-1.7-1.43-5.63-2.49.21.72,1.6,2.28,1.71,3.84-5.57-1.73-5.47.79-9.05-.56a2.85,2.85,0,0,1,1.75-.42c-.64-2.15-2.85.64-4.8.37l0-1.87c-1.74.44-4.69,1.92-7,.75l.42-1c-4.38,1.8-9.7,1.6-13.49,2.63l-2.16-1c-5.17,1.88,5.32.2,1.68,3.32-.87-3.39-2.64,1.35-5.77.25-1.53-1.25,3-1,1.28-2.4-.52,1.81-1.56.64-3.13,1.29.21-1.69-3.37.06-2.54-1.9l-5.38,3.57c-1-.87-2.61-.57-3.79-.22,3-.25-.63,2.54,2.86,3A75.19,75.19,0,0,1,346,147.57c.48-2.34,4-.32,4.82-2.27.21.72.74,1.31.94,2,4-.83-1-1.17-.14-2.09,1.74-.44,3.27.8,3.17,1.64,2.88-.13.28-.65,1.63-2l2.09,2.35c8.89-1.54,20.61-4.25,30.93-3.7l-.9-1.5c4.69.46,7.43-4.15,11.81-1.14l1.29-1.46c-.71.82,1,2.27-.13,3.45,1.22-.65,2.61-.17,3.86-.76l-2.37-.55a2.51,2.51,0,0,1,4,.31c3.31-1.86-2.28-2.52-3.16-3.78-4.6,3.32-5.13-2.41-9.69-.8C391.34,138.44,394.58,138.71,394.47,139.56Z"/><path class="cls-1" d="M400.84,143.34a2.36,2.36,0,0,0,.67-.48A2.39,2.39,0,0,0,400.84,143.34Z"/><path class="cls-1" d="M323.67,146.72a10.27,10.27,0,0,0-1.35.2C321.89,147.36,322.6,147,323.67,146.72Z"/><path class="cls-1" d="M407,141.89v0a.07.07,0,0,1,0,0Z"/><polygon class="cls-1" points="409 137.85 407.71 137.91 407.99 138.61 409 137.85"/><path class="cls-1" d="M309.87,145.92l.05.82A.83.83,0,0,0,309.87,145.92Z"/><path class="cls-1" d="M272.92,148.59l.79,0A1.13,1.13,0,0,0,272.92,148.59Z"/><path class="cls-1" d="M184.49,157.91c-2.36.72-5.52,1.49-7.18,3l.1-.84c-1.26.52-5.32,2.19-2.5,3.44l.59-.78c2.95-1.48,2.34,1.18,4.77,1.5,2.85-.63,4.23-3.88,6.84-3.37,1.11-.18,1,.67.73,1.32,2.57,0,3.37-2.47,5.1-2.93,1.24,6.18,7.71-2.37,11.83,1.27,2.36-.71,5.59-.44,8.55-1.93-1.49,1.7,2.88-.12,2.37,1.7.54-3.7,8.9.86,9.06-3.75,4.24.93.14-.32,5,.34,0,.52-.77.59-1.08.71,2,.78,2.75-2.2,4.49-.25,3.85,0,.55-1.29,2.7-2.71,4,.19,3,.91,5.32,2.6.17-2.21,2.64-1.36,4.49-2.65-.49-.07-3.24-.26-1.54-1.24,4.66-.05,3.58-1.75,7.85-2.71,2.4,2.21-4.31.44-.34,2-2.64,1.36-4.73,1.42-6,3.3a45.7,45.7,0,0,0,12.06-2.31c2.26.13-1.05,1.24.73,1.3,4.07.72,5.9-3,9.18-2.19L267,154c1.8-1.82,7.06-.24,10.67-1.47-.52-.58-.87-1-.42-1.43.21,3.12,5-2.06,8.83-.18-.46-2,3-3.36,5.2-3.76.84.47.74,1.31.78,1.84-3.77-.86-3.37,2.45-6.19,3.62,2.33-1.24,6.4-.51,8.38-2.13l-.69,1.62c3.37-.06,2.63-3.76,6.25-2.58l-.24,1.17c7-.76,15.47.55,20.89-2.49.41-1-2.62-2.93-2.83-3.65-3.3,1.1-5.1,2.92-7.6,4l-.13-1.79c-.47,1.28-3.5,2.27-1.71,3.08-2,1.09-1.71-1.43-4-.21,0-1.88,1.45-2.2,1.34-3.76l-2,1.1c.59-.78-1.32-.52-.74-1.3-3.68,2.58-5.49-.42-9.42.95l2.27.13c.07,1-1.22,1-2.16,1.43-1.22-1.37-1.84-1.11-4-1.57-1.7,1-2.53,2.92-4.93,3.11.34-2-4.07-.73-4.67-2.35-.34,2-4.58,1.1-4.82,2.26-1.25.51-3,.45-3.1-.6a7.81,7.81,0,0,1,.94-.42l-1.29,0c.1-.24,0-.41.19-.46-1.15,0-1,1.48-2.59.64,0-.52.76-.58,1.39-.84-3.06-.08-5.07,3.43-7.75,1.86-.41,1-3.92,1.35-3,3.38-1-.66-.8-2.35-3.34-1.83-1.32,1.88-2.92-.4-4.76.9,2.43-2.08,0-.52,2.08-2.48-1.81-.58-4.2,2-7.27,1.95-.34-.39-.38-.92-.73-1.31-1.08.72-2.25,2.27-3.47.9l.24,1.24c-2.12-.46-5,.18-7.3-1L233,154.19c-3.69-2.21-8.17.45-10.74,2.83-1.28,0-3.23-.26-3.27-.79.28-.2.75-.61,1.32-1-1.89.08-4.3-1.08-5.18,1-1.87.77-1.53-1.24-3-1.43-3.65,3.1-11.65-1.07-12.47,3.27,1.6-.11,4.69.47,7.72,0-.77.58-.07,1.36-1.18,1.55-3,.45-4.73-1-7.72,0l.13-2.73C193.11,154.61,188.91,161.43,184.49,157.91Z"/><path class="cls-1" d="M223.48,154.63l-2.32-1.18.34,1.14A2.29,2.29,0,0,1,223.48,154.63Z"/><path class="cls-1" d="M221.5,154.59a5.64,5.64,0,0,0-1.24.66,2.39,2.39,0,0,0,1.32-.37Z"/><path class="cls-1" d="M175.74,159.13a4.62,4.62,0,0,0-2.4.18A2.76,2.76,0,0,0,175.74,159.13Z"/><polygon class="cls-1" points="173.24 160.16 174.38 160.49 174.52 160.16 173.24 160.16"/><path class="cls-1" d="M108.84,168.06,105.42,170c-.69-.78-4.61.57-3.44-1-1.94,2.13-6.7.62-4.75,3.29,10.32-1.86,24.82-1.44,36.64-5L132,168.64c6.06-2.77,8.79,1.72,13.44-3.15l-.48,2.34c2.92.39,5.2-3.76,8.41-1.61l-.39-.9c.8-.07,1.15.32,2,.26l-.36-.39a6.65,6.65,0,0,1,5.42-.64c.21.71-.94.39-1.56.64,1,.66,2.5-1,4.1-1.15,1.32.52.08,1-.07,1.36,4.73-1.42,7.13.79,10.25-2.9.28-.65-1.35-1.05.38-1.49-3.27-.8-5.73.76-8.55,1.93l.81-.06c-2,3.49-1.82-.6-5.39,1.15.86-1.43,2.46-1.56,3.05-2.33-4.49-2.15-5.94,2.45-9-.55l.31-.12c-.66-.26-1.73.45-2.67.83.35.4,1.32.53,2,.79-.94.39-1.31,1.88-1.59,2.53-1.22-1.37-1.39.84-3.2.26-.73-1.3,1.35-1.37,1.94-2.15l-2,1.11c-1.91.25-2-1.32-3-2-1.53,1.17,1,.64-.17,2.2-2.2-1.49-10.95-.27-15,1.4,1.43-.32.38-1.49,2.16-1.42-.67-.26-2.84.64-2.77,1.68-2.82,1.16-6.54.83-9.33.11l.87,1c-2.11,1.93-5.84-.8-9.76.56h.09c-1.27.34-2.16,3-4.58,2.64C107.79,169.3,109.08,169.3,108.84,168.06Z"/><path class="cls-1" d="M94.93,171.68l1.18-1.56c-1.46-.2-3.09,1.81-2.7,2.72.93-.39,2.26.14,2.36-.71C95.59,171.94,95.56,171.42,94.93,171.68Z"/><path class="cls-1" d="M68.1,174.22c-.49.37-.31.91-.5,1.33,5.67-.67,12.64-1.85,15-.91,2,.25,2.11-1.94,4.48-2.66l1.21,1.37c1.22-1,5.33.21,3.72-2.07-.17-.19-1,1.23-2.19.9l.11-.84-2.54.51.73-1.11c-3.62-1.17-2.19,3.32-6.57,2.73l-.14-2.09c-2.89.13-4.28,1-6.92-.07,0,0,.07,1,.52.58.49.07,1.19.85.91,1.5-4.21,2,.55-1.3-2.54-1.89-3.58,1.74-10.52,3.55-12.72,2.05,1.85,1.1-.63,2.66-2.71,2.72-1-.65.56-1.29.83-1.94-1-.14-1.8-.6-2.75-.21,1.36,1,.67,2.67-1.52,3.57C59.56,178.55,63.13,174.4,68.1,174.22Z"/><path class="cls-1" d="M66.78,176.1a1,1,0,0,0,.82-.55c-.67.08-1.34.16-2,.22Z"/><path class="cls-2" d="M88.48,160.51l-2.52-2-.1-1.2,1.71-2,.83-.07,3-10.29-1.88-3.39a10.37,10.37,0,0,0-7.11-2l-1.09.47-1.16-.28-11.49,6a43.49,43.49,0,0,1-3.14,12.65,10.29,10.29,0,0,1-6,2.48l-6.75-2.14L51.34,156A42.92,42.92,0,0,1,62.6,143l.12-7.33-.57-2.29.34-.41L62,127.24l-.88-1.43L60,125.53a40.5,40.5,0,0,1-10.52,4l-2.93-2.47-.1-1.2a87.52,87.52,0,0,1,13.5-5.38l.17-2.36-1.55-4.85,3.34-1.49A4.18,4.18,0,0,1,65.25,115l-.35,1.16,1,2.25,2.7-.23A14.08,14.08,0,0,1,75,116.08l1.56.62.67,3.42L74.3,122l-5.77.49-1.44.88-.34.41.5,5.77.4.34.44,5-.35.4.36,4.2,1.5-.13a40,40,0,0,1,8.92-4.24l5.77-.49a18.31,18.31,0,0,1,8.79,3.09,12.26,12.26,0,0,1,3.8,8.2,37.9,37.9,0,0,1-4.61,13.91Zm-27.9-4.92,1.25-4-1.2.1-1.74,1.66-.25,2.37,1.6.23Zm38.19-23.74-3.66-1.27a68.38,68.38,0,0,0-9.62-9.21l-.2-2.32,3.35-1.42,2.45,1.3,1.73,2.57,3.27,2a15.94,15.94,0,0,1,4.82,6.91C100.75,131.53,100,132,98.77,131.85Z"/><path class="cls-2" d="M136.1,159.66l-.69-.17c-1.34-.94-2-2-1.85-3.08l18.09-4.73.6-2.61-.64-.48-1.32-15.36-1.46-2-6.44.55-8,5.07q6,1.59,7.73,5.67l2.35,7.05-1.35,1a8.83,8.83,0,0,1-5.68-4.57,94.28,94.28,0,0,1-4.17-9.91l-4-2-.67-1.68,2.2-.72a52,52,0,0,1,9.58-3.61l4.87-.42,3.71-1.53a11.31,11.31,0,0,0,1.17-7.57l-1.76-1.13-5,.43-4.08.8-5-2.21-7.57,15.6-.79,1.35a18.46,18.46,0,0,1-2.27,4.27l-1.35.12L120,136.52l-.35-4.05a228.65,228.65,0,0,1,26.26-44.9l2.1-.18,2.18.87.8,3.1-.44,2.76a274.09,274.09,0,0,1,29.64,25.22l.16,2a2.78,2.78,0,0,1-2.65.76,33,33,0,0,0-12-10.06,36,36,0,0,1-9.95,4.55L155,124.9l4.57-.39,6.26-1.89,2.9,1.33.31.88a8.21,8.21,0,0,1-4.09,2.54l-5.39.46-3.75,2.06-.84,2.49.75,8.77L158,141l7.28-10.14,1.5-.13,1.81,2.56a124.52,124.52,0,0,0-9.46,17.34l3.15-.27,17.12-3.66,3.75,1.49,0,.3a32.15,32.15,0,0,1-14.62,4.65l-6.52.56-.41.57-4.49.38L154,155.86l-4.57.39-8.88,3Zm26-49.93-.18-2.1L148.07,96.9l-2.17.18a51.65,51.65,0,0,0-9.66,17.66l7.57-.65.4-.63,6-.52.49-.49,5.54-.48Z"/><path class="cls-2" d="M216.23,151.49A20.13,20.13,0,0,1,208.59,139l-1.22-14.24.34-.41-.49-5.76.52-2.69-.43-5a4.28,4.28,0,0,1,3.38-1.05l2.9,2.09.26,3.08-1.07,5.07.33,3.82-.42.41.76,8.84-.24,1.61.41.34.36,4.2,1.63,4.91,1.5-.13,2.66-.6,1.35,2.52a9.63,9.63,0,0,0-1.47,4.81Zm11.93-31.59-2.44-2.06-.17-1.94a113.44,113.44,0,0,1,20.56-7.58l2.42,1,1,3a9.21,9.21,0,0,1-4.41,2.27l-3.82.33Q234.51,117.47,228.16,119.9Zm10.16,14.6a10.46,10.46,0,0,1-6.3-1.35l-1-3a4.69,4.69,0,0,1,3.75-1.16l6.22.3a17,17,0,0,0,5-.43l1.09-.47,5.15,1.06.6,2.67-2.6,1.35-7.71.67-1.53-.25Z"/><path class="cls-2" d="M304.2,139.7a16.14,16.14,0,0,1-7.92-7l-.39-4.57,2.95-6q-8.79-12.76-16.49-25.91a4.25,4.25,0,0,1,3.38-1l2.89,2,12.08,20.17,1.23.27a70.78,70.78,0,0,1,12.32-13l2.75,1.27.65,2.29-5.35,5.44-.75.06-.27,1.16A72.85,72.85,0,0,0,301.4,130l.17,1.87a5.59,5.59,0,0,0,4.11,3.12l3.07-.26A42.74,42.74,0,0,0,320,127.17l1-1.59,3.07-.27,2.57,3.63-1.43.88L325,131a89,89,0,0,1-14.31,8.18Z"/><path class="cls-2" d="M391.77,133.76l-2.93-2.47-.16-1.87a13.75,13.75,0,0,0,4.73-7.27l2-7.88-.32-3.74-.81-.69-4.2.36a38.63,38.63,0,0,0-15.68,9L372,122.48l-2.25.19-2.45-2.13-.22-2.62.34-.41-.53-6.14.34-.41-.49-5.69.22-1.91L365.29,97l2.56-1,2.37,1.31,1.47,3,.74,8.69-.34.4.36,4.2,1.16.28a39.43,39.43,0,0,1,14.23-7.34l5.7-.49a8.15,8.15,0,0,1,5.57,2.54l1.37,1.84.36,4.2a56.12,56.12,0,0,1-6.17,17.74Zm-4.94-39-3.29-3.19a67.31,67.31,0,0,1-14.7-6l-.92-1.89a3.33,3.33,0,0,1,3.35-1.42q10,4.51,20.18,8.23l.47,1.09-1.33,2.08Z"/><path class="cls-2" d="M479.55,126l-2.45-1.3-.51-1.54,3.87-13.84-.53-6.15-2.11-1.78-6.9.59a67.06,67.06,0,0,0-16.84,6.89l-.34.4.53,6.15a26.13,26.13,0,0,0,4,10.52,5.23,5.23,0,0,1-3.7,1.83l-2.89-2.09-2.57-7.86-.39-4.64-2-.21a29.78,29.78,0,0,1-10.69,5.6l-2.62-3.25,14.35-8.63.7-5-.41-.34-.46-5.4-1.2.11-9.29,4.27-3.62-1.66-.56-2.21,14.24-5.53L447.6,87,447,80.11l3.38-1a3,3,0,0,1,3.27,2.06l.13,1.5-.73,4.66,1.57.7,4.51-2,3.54.9.92,1.81q-5.24,2.41-10.42,4.36l-.42.42.82,9.59,1.24.27a65.12,65.12,0,0,1,18.44-5.81l.41.34,5.32-.46a9.9,9.9,0,0,1,5.76,3.81l.67,3.41.42,4.95a56,56,0,0,1-4.48,15.48Z"/><path class="cls-2" d="M527.08,121.37a8.14,8.14,0,0,1-2.83-6.62l.15-2.66-1.53-.24a31.08,31.08,0,0,1-10.48,6.26l-2.62-3.25L523.88,106l.39-4.19-.68-7.94.12-3-1.57-.62A34.39,34.39,0,0,1,510.4,95a3.6,3.6,0,0,1-2.27-3.58l14.71-6.24.65-1.19L523,78.7l.34-.41L523,74.17l.32-.78,3.41-.67a3.69,3.69,0,0,1,2.16,3.21l-.57,6.54,5,1.08.6,2.59-5.05,2.7-.34.41.49,5.69-.35.41.56,6.44,1.12-.1Q541.13,94.28,552,86.86l2,1,1,2.56-1.08,5,.65,7.57a42.32,42.32,0,0,0,3.94,10.75l2.65.15,3-1,1.32,2.15a7.61,7.61,0,0,1-5.85,3.14l-4.78-3a27.25,27.25,0,0,1-5.21-11.4l-.78-9.07-1.53-.24a154.63,154.63,0,0,1-17.59,12.23l-.65,1.18.35,4.12.41.35.65,7.56A3.3,3.3,0,0,1,527.08,121.37Z"/><path class="cls-2" d="M616.54,118.14l-3.38-4.24a56,56,0,0,0,1.41-9.93l-1.53-.25-.69.81-4.42.38A13,13,0,0,1,601,98.72l-1.44-3.65L599,88.7a16.54,16.54,0,0,1,2.45-6.62l1.06-.85,3.75-.32,6.2,2.86.28-1.16-.6-7-1-2.18-2.27-.18a88.82,88.82,0,0,0-23.23,9.84l-3.32-3.41a92.53,92.53,0,0,1,26.53-11l.25-1.53-2.66-5.43,2.86-1,2,1,3.14,5.77,2.28.18,2.59-.6-.1-1.12A74.19,74.19,0,0,1,614.51,55L617,53.64l3.16,1.62a23.28,23.28,0,0,0,4.71,10.91l1.91.21,1.47-.5,3,.12.63-1.56-3.88-14.39,1.81-.91L633,50.76a99.48,99.48,0,0,0,6.33,21L637.19,73a11.24,11.24,0,0,0-7.4-2.76l-2.59.6c.65,1.71.1,2.63-1.65,2.78l-2.75-1.27L621.54,71l-4.49.38-1,2,1,2.94.45,5.17-.34.4.54,6.37-.65,1.19.39,4.49,1.64,5.9.67,7.87-.34.4.39,4.5-.74,4.59ZM609,100.29a16.4,16.4,0,0,0,2.09-10L608.2,86l-1.94-.59-2.06,2.45-.21,1.9.42,4.87a8.2,8.2,0,0,0,4.29,6Z"/><path class="cls-2" d="M210.48,264.77l-3.86-1.11-4.87.42-.49-.33-6.29.54-5.1,1.27-6.81.58-2.44.66-3.24-1.68-.57-2.22.79-6.63-.65-7.64-.39-1,.27-.33L176,237.09l-.58-1.53.33-1.39-4-14.75a87.3,87.3,0,0,0,11.14-15.22l3.37-.29,1.8,1.58.17,2-8.78,11,.27,3.15,2-.18,10.74-3.26,6.74-.58.41-.49,11.16-1,1.58,1.6.79,9.29,0,4.76.56,1.24-.33,1.38.4,1.18-.28.32.87,10-.49.5.68,7.86a16.49,16.49,0,0,1-2,9.84Zm-3.25-32.63.68-.89-.72-8.32-.85-2-1.92-.44L199,221l-19.83,4.57.47,5.47,1.34,4.18,2.24.57,6.48-1.92,6.89-.59,1.15-.63,1.47.4,3.55-.83,3.61.67Zm.44,10.45a6.91,6.91,0,0,0,.62-5.94l-2.57-1-4.27,1.28-1.46-.33-1.09.47-.48-.33-5.32.45-.34.48-5.39.47-5.93,3.07-.22,4.4,3.37,1.52L196,243.9l2.29.25,3.7-.77,4.91,0ZM207.8,259A17.13,17.13,0,0,0,209,248.82a10.57,10.57,0,0,0-6.79-1.76l-1.62.52-2-.21-15.86,4.24-.82,1,.65,7.57a7.33,7.33,0,0,0,7.2,1.19l.34-.41,9.74-.83.56.4,6.59-.57Z"/><path class="cls-2" d="M257.69,259.88a10.79,10.79,0,0,1-6.05-1.9l-1.43-7,.35-.33-.54-6.22.25-2.36-.4-1.17.28-.25-.66-7.72.41-.41-.67-7.8-.06.09,4.19-.36,2,1.63,9.89-.85,1.22-1.61-.47-5.4-2.65-10.71a3.88,3.88,0,0,1,3.1-.72l2.86,2.47.73,3.18.64,7.49,1.37,2.83,3.94.11L288.38,220l2.27.94q1.62,4.92,2.94,10.54l.73,8.54a29.17,29.17,0,0,1-2.22,12.72l-5.29,2.57-4.8.41-.33.48-9.59.82Zm8.53-6.09,1.85-5.75-.49-5.69-7.79.67-1.24.56-3.05-.42-.19,4.92.57,1.31-.67,2.78,1.43,3.42,4.46.14Zm.86-16.31.52-7.13a4.77,4.77,0,0,0-5.27-1.66l-.41.56-5.77.49a8.07,8.07,0,0,0-1.79,7.18l1.3,2,.82.76,8-.69ZM288,250.93l-.13-1.5.73-8.29-1.56-1.37-5.09.44-.49-.42-6.59.57-2.17,2-.22,3.64.54,6.22a48.86,48.86,0,0,0,7.85.91Zm0-15.77.08-4.24-1.9-5.49-4.67-.73-1.41,1.1-4.5.38-2.92,1.16-.82,1,.61,7.11,2,1.72L287,236.07Z"/><path class="cls-2" d="M352.54,250.06a16.87,16.87,0,0,1-14-5.06,18.89,18.89,0,0,1-3.82-10.23,52.91,52.91,0,0,1,10.09-24.87l-1.42.12a227.49,227.49,0,0,1-22.05,6,4.15,4.15,0,0,1-2.72-3.54l.51-1,5.17-.44q14.25-4.62,29.06-7.86l2.27.94,1.2,2.54a49.17,49.17,0,0,0-14.61,19.67,23.11,23.11,0,0,0-2.37,8.35l.36,4.27,2.73,4.52a9.85,9.85,0,0,0,7.29,1.34l1.76-.53,3.35,2.13.15,1.72A3.32,3.32,0,0,1,352.54,250.06Zm11.4-36.83L362.17,212l-2.59-7.32-.39-4.5L356.61,192a2.92,2.92,0,0,1,3-1.17l2.93,1.56,1.77,6.57.36,4.19,2.61,8.46-.85,1.43Zm12.2-.29a5.84,5.84,0,0,1-2.29-3l-.58-6.82L370,191.28c.32-.93,1.14-1.33,2.46-1.19l2.38,1.3a49.23,49.23,0,0,1,2.9,8.28l.94,10.94-.52,1.78Z"/><path class="cls-2" d="M414.11,198.05l-2.44-.24a3.8,3.8,0,0,1-1.19-3.37l.29-1.91-1.64-3.26-5-.55a27.45,27.45,0,0,0-2,7.35l-1.54.51-3.78-1.87,0-.37,1.41-3.82-.66-7.72L396.4,180a4.09,4.09,0,0,1,3.25-.81l1.41.56,2.13,5.48.67.7,10.93-.94.34-.48,4.12-.36,1.26.57.38,1a10.68,10.68,0,0,1-5.77,3.14l-.3,2.59.77,3.71-.23,2.58Zm23.32,50.07-2.74-1.19a6.57,6.57,0,0,1-1.87-4.15l.79-1.42-1.75-20.3-.75-1.75-4.12.35q-9,3-17.63,6.5l-3-1.85-.05-.6a137,137,0,0,1,24-8.71l.5-2.15-1.16-2-1.85-.44-.48.49-5.62.49-3.6,1.14-4.57.39-12.35,3.85-2.6-2.19a97.25,97.25,0,0,1,15.64-5l6.74-.58,1.75-1.66.26-3.95a6.74,6.74,0,0,0-4.9-.79l-6.7,1.86-2.66-2-.08-.89,5.7-1.25,2.37-.58,4-.35.79-2.25-1-4.22.52-.12,4.09,1.09,1.27,4.19,2.51.24,5.32-1.29,2.49.84.42,1.4-.75,1-7.41.64a4.81,4.81,0,0,0-1,5.59l1.13.89,6.15-.53,1.89-.84,8-.69,1.42.71.14,1.64-.83.91-9.66.83-.73,3.83,2.2,1,6.22-2.27,2.87.89.47,1.92-10.36,3.3-.33,2.3.55,1.16-.36,1.91.56.41.73,8.46.47,1-.35.41.73,8.46.61,1.84-.81,3.69Zm-14-14a25.23,25.23,0,0,1-10.18-2.6l-.14-1.64,3.56-.69a33,33,0,0,0,10.56,1.66l.94-.46,2.25,1.54.05.68-1.19,1Zm12.81-39.74-1.69-1.29-.15-1.72.08-4.31-2.18-3.44-2.09-.57-1.66,6.1-2.52.52-2.39-3.19.27-.33-.48-5.62-2.57-7,3.27-.66,2.24,1.47,1.73,6,3,.2,5.54-.48,4.35-1.2,3.05,1.25.28.58a13.26,13.26,0,0,1-5.4,3.1l-.37,1.84.42.5.5,5.76-1.54,2.33Z"/><path class="cls-2" d="M513.28,238.43,511.19,237l-.11-1.27,2.16-4.71-.82-9.59-3.53-1.59q-7.78,11.39-17.06,16.64L489.44,235l-.12-1.34,13.76-15.53-4.78-1.17-18.13,1.56-2-1.11-1.9-2.71.45-1,4.07-.88,1.4-8.27-1-11.61-3.27-6.51a38.11,38.11,0,0,0,10.39-10.86l1.12-.09,2.22-4,2.15-.49,2.59,2.88-5.21,7.92,1.9,1.87,5.69-.49.49.41,5.69-.49,2.74.22,3.41-.75,4,1.47.94,2.18a27.77,27.77,0,0,0-1.17,11.87l2.76.52,3.31-1.11,2.75,1.27.44,1.62a38.49,38.49,0,0,0-8.48,14.69l.73.55.66,7.71.72.47.88,10.19-3.11,4.26Zm-3.14-26.9.62-5.11-1.63-1.37-9.74.84-.95.39-.32-.28-6.52.56-3.19-.25a6.3,6.3,0,0,0-1.37,6.08,11.34,11.34,0,0,0,7.18,1.8L507.85,213ZM510,192.91l-.4-4.65-4-1.69-5,.43-14.18-.74-1.29,4.26,1.91,4.74,5.6.12,4.56-1.37Zm-.83,7.92.47-3.36-1.28-.8-7.79.67-.42.41-5.69.49-.41.49-6.37.55.21,2.47,3.1,1.77,15.13-1.3Z"/><path class="cls-2" d="M561.49,233.84l-2.43-2-.19-2.17a182.57,182.57,0,0,0,8.86-36.54l-3-.42-10.12,3.43c-2.36-.5-3.79-1.68-4.31-3.55q8.61-2.62,19.47-5.3l1.22-14,4.49-.39a3.71,3.71,0,0,1,1.83,3.77l-1.58,8.74a6,6,0,0,0,5.59,1l8.84-2.57,4.47,1.12,1,2.18-2.36,1.49-5.77.49-1.53.66-3.57-.22-.55.58-6.22.53a36.07,36.07,0,0,0-3.45,10.71,28.3,28.3,0,0,1,7.9,5,46,46,0,0,0,20.39,13.42l4.45,1.73,0,.15-3.82,2.14a37.9,37.9,0,0,1-18.11-8.71l-1-1.8-1.46-.33L575,206.87l-3.15.27-7.12,26.05Z"/><path class="cls-2" d="M642.22,227.43A20.15,20.15,0,0,1,634.58,215l-1.22-14.23.34-.41-.49-5.77.52-2.69-.43-5a4.27,4.27,0,0,1,3.38-1l2.9,2.09.26,3.07L638.77,196l.33,3.82-.42.42.76,8.84-.24,1.6.41.35.36,4.19,1.63,4.92,1.5-.13,2.66-.61,1.35,2.53a9.59,9.59,0,0,0-1.47,4.8Zm11.93-31.6-2.44-2.05-.17-1.95a114.19,114.19,0,0,1,20.56-7.58l2.42,1,1,3a9.3,9.3,0,0,1-4.41,2.27l-3.82.32Q660.5,193.4,654.15,195.83Zm10.16,14.6a10.53,10.53,0,0,1-6.3-1.34l-1-3a4.68,4.68,0,0,1,3.75-1.15l6.22.29a16.62,16.62,0,0,0,5-.43l1.09-.47,5.15,1.07.6,2.66-2.6,1.36-7.71.66-1.54-.24Z"/><path class="cls-2" d="M717.33,220.52a4.32,4.32,0,0,1-2.72-4.45l4.65-1.15,7-.6,4.49-1.37.69-.66-1.21-14.16-.89-.68-6.45.55-3.33-2.81-.07-.82,2.81-1.52,4.4.3,2.73-1.6.69-.81-.44-5.17.33-.48-.48-5.62-1.32-1.25-6.51.56-.41.57-5.17.44-2,.78-.9,12.3.6,2.59-.87,2.26-2.77.24-2.87-2.62-.23-2.77,2.22-19.82-.63-7.26,2.63-1.06,3.55,1.81.21,2.47-.59,5.41,1.54,1.15,5.31-.46.49-.49,5.92-.51,1.17-1.31-1.14-13.26-.4-1.17,1.83-1.52,4.25,1.22.66,3.27-.42.33.84,9.74,4.31,1,.47-.64,9.37-.81,2.08.58,1.19,2.39a15.05,15.05,0,0,1-7.27,2.36l-.56-.41-5.4.47-3.14,1.25-1,4.53.69,8.09a5.17,5.17,0,0,0,6.08,1.29l2-.78,4.06,1.62.48,2-3.41,2.49-6.73-1-2.06,4.18.91,10.56.68,1.75,5,0,.42-.42,5.62-.48,5.62-1.39,4,1.32.46,1-1.85,2.2-3.25.81L741,216.14l-.41.56-5.24.45-.41.49-6.82.59Z"/><path class="cls-2" d="M811.59,214.38l-.05-.6q-12.79-7.59-25.09-16.26l-.2-2.25,2.19-.87A244.68,244.68,0,0,1,811,208.16a5.46,5.46,0,0,1,2.87,4.36q-.5,1.24-2.55,1l.07.82Zm4.19-23.31-2.14-1.17-.13-1.58a6.31,6.31,0,0,0,1.81-5.28L810.77,175l-2.54.22-11.94,5.1-3.52.31-3.06-2.23-.13-1.42q8.52-3.67,17.76-6.81l.33-1.39-3.7-7.91-3.29.28q-4.36,1.89-9.07,3.43l-3.59.3-3.1-2.6-.1-1.27a2,2,0,0,1,1.83-1.44l4.5-.39,10.48-3.62.33-1.38-1.05-3.54a3.88,3.88,0,0,1,3.17-.87l2.27,1.92.21,2.39,2.55-.22,9.5-2.7,3.36,2.2.1,1.2a10.88,10.88,0,0,1-5.85,3l-2.28-.18L809.32,159l-.3,1.76,3.7,7.08,1.39.33a103.73,103.73,0,0,1,10.9-4l3,1.18.8,2.2a121.65,121.65,0,0,1-12.66,5.54l.12,1.42a39.23,39.23,0,0,1,5.13,11.41,8.86,8.86,0,0,1-4.24,5.05Z"/><path class="cls-2" d="M883.37,205.56l-8-3.53-.51-1.55a23.48,23.48,0,0,1,12.85-6.84l4.94-.42,3.73-1.45,1.39-6.69-2.31-4-4.8-2.3-6.07.52a21.74,21.74,0,0,0-9.88,6.28L872.57,188l-1.87.16-2.65-3.62a87.53,87.53,0,0,0,15.77-22.86l1.35-6.23a4.66,4.66,0,0,0-3.89-.5l-8.94,3.11-3.3-2.43-.1-1.13a78.79,78.79,0,0,1,9.76-3.18l4.57-.39,5.9,1.83a4.2,4.2,0,0,1,1.93,4.06,131.82,131.82,0,0,1-9.21,18.46l1.16.27,5.77-.49a14,14,0,0,1,9.91,3.82l4,5.78.39,4.57L899.62,198a29.61,29.61,0,0,1-9.44,7l-5.69.49-.41-.34Zm7.62-5.25,2.7-3.71-3.82.33-7.71,3.38-.32,1.54,1.26.64,4.57-.39Z"/><path class="cls-2" d="M949.56,202.14l-1.6-.24a9,9,0,0,1-2.32-4.1,12.89,12.89,0,0,1-9.41-5l-.48-1.16a25.16,25.16,0,0,1,6.3-18,16.7,16.7,0,0,1,7.32-5.31l4.27-.37a12.34,12.34,0,0,1,6.06,2.95,16.09,16.09,0,0,1,3.72,6.32l.33,3.9a59.18,59.18,0,0,1-11.52,20.46Zm1.22-8.64-.07-.82a27.86,27.86,0,0,0,7.24-15l-3.1-4.41-3.1-.11-4.11,2.31a23.19,23.19,0,0,0-5.6,16.49,6,6,0,0,0,4.5,2.33l1.1-.47,2,.2Z"/><path class="cls-2" d="M20.87,65.5l-1.1-.58-.23-.69L21.27,58,21,55.28l-.94-.8L17,54.75a30,30,0,0,0-7.54,3.08L9.31,58l.24,2.75a11.65,11.65,0,0,0,1.79,4.71,2.32,2.32,0,0,1-1.66.82l-1.29-.94L7.24,61.84l-.18-2.08-.88-.09a13.31,13.31,0,0,1-4.79,2.5L.22,60.72l6.42-3.86L7,54.6l-.18-.15L6.57,52l-.54,0L1.87,54,.25,53.25l-.25-1,6.37-2.47.19-1.74L6.3,45l1.51-.47a1.36,1.36,0,0,1,1.47.92l.05.68L9,48.17l.7.32,2-.89,1.59.41.4.81q-2.34,1.08-4.66,2L8.87,51l.37,4.29.55.12a29,29,0,0,1,8.26-2.6l.18.15,2.38-.2a4.38,4.38,0,0,1,2.58,1.7l.3,1.53.19,2.21a25,25,0,0,1-2,6.93Z"/><path class="cls-2" d="M40.46,65.94l-1.28-.36-.8-1.86L38.23,62l-.18-.12-.32-3.72.93-11.26-.91.08-.3.36-1.71.15A1.37,1.37,0,0,1,34.86,46c1.33-.55,2.77-1.06,4.33-1.56l.45-4.53L41,39.62,42,41,41.63,43l1.23.1a19.44,19.44,0,0,1,5.44-2l1.16,1,0,.51A57.23,57.23,0,0,0,41.32,46q-.6,3.28-1,6.54l.14,1.67-.54,3.56.43,5a5,5,0,0,1,1.4,2.59Zm6.17-13.57-1.45-1.09,0-.54A23.38,23.38,0,0,1,52.51,47l1.65-.14A1.54,1.54,0,0,1,55,48.41l-.65.66-1.81.16A20.14,20.14,0,0,0,46.63,52.37ZM57.06,61l-.83-.27-2.18.19q-3.49-.16-7-.65L46.52,59l1.3-.58,5.39.55,2-.17,3,.55.17.39-.24.7Z"/><path class="cls-2" d="M82.52,60.87a8.45,8.45,0,0,1-4.45-1.51,9.37,9.37,0,0,1-3.74-7.28l-.25-2.91L73.87,49l-.43-5,.19-.18-.4-4.63a1.82,1.82,0,0,1,1.66-.69l.9.64.1,1.2-.15.19.34,4-.15.18.32,3.76.18.15.24,2.75.18.16L77,53.41a8.29,8.29,0,0,0,2.84,4.75,6.91,6.91,0,0,0,3.17.78l2.65-1.45L85.8,57l1.68-.49.75.45.06.67A8.5,8.5,0,0,1,82.52,60.87Z"/><path class="cls-2" d="M118.92,57.17l-1.31-1.1-.07-.84A6.19,6.19,0,0,0,119.66,52l.91-3.52-.14-1.68-.37-.31-1.88.17a17.17,17.17,0,0,0-7,4l-1.09,1.48-1,.09-1.09-1-.11-1.17.16-.18-.24-2.75.15-.18-.21-2.55.09-.86-.75-2.84,1.14-.43,1.07.58.65,1.33.34,3.89-.16.18.17,1.88.51.12A17.78,17.78,0,0,1,117.17,45l2.54-.22a3.65,3.65,0,0,1,2.5,1.14l.61.82.16,1.88a25,25,0,0,1-2.76,7.94Zm-2.21-17.44-1.47-1.43a30.06,30.06,0,0,1-6.58-2.68l-.41-.84a1.47,1.47,0,0,1,1.5-.64c3,1.35,6,2.57,9,3.69l.21.48-.6.93Z"/><path class="cls-2" d="M151.2,55a8.57,8.57,0,0,1-4.46-1.51A9.35,9.35,0,0,1,143,46.18l-.25-2.92-.22-.15-.43-5,.19-.19-.4-4.63a1.86,1.86,0,0,1,1.67-.68l.89.63.11,1.21-.16.18.34,4-.15.18.32,3.76.19.15.23,2.75.18.15.17,1.91a8.32,8.32,0,0,0,2.84,4.76,6.94,6.94,0,0,0,3.17.77l2.65-1.44.12-.52,1.69-.48.74.44.06.67A8.49,8.49,0,0,1,151.2,55Z"/><path class="cls-2" d="M177.88,51l-1.29-.77a70.36,70.36,0,0,1-4.76-12.6l1.88-.5,1.15,1.12L175,40a25.59,25.59,0,0,0,3.87,8.08l.93.63.09,1-.46.92Zm15.27-4.32-.74-.28-.56-.66-.42-4.86-.22-.18-.15-1.75-1.32-5.15a1.66,1.66,0,0,1,1.9-.67l.93,1,.16,1.91.74,2.24.15,1.74.18.16.35,4,.28,1.36-.43.91Z"/><path class="cls-2" d="M219.58,39.77l-1.66-1.24-.12-1.38.26-.9-.3-3.45.15-.19-.32-3.79a14.3,14.3,0,0,0-2.51-5.15l1.17-.64,2.44.13c2.24-.87,4.61-1.65,7.09-2.34l1.1.62.09,1-.5.42-1.71.15A17.21,17.21,0,0,1,219,24.89l.09,1a11.12,11.12,0,0,1,1.13,3.38l.24,2.75-.16.18.29,3.29,0,1.72.43,1.18-.56,1.26Z"/><path class="cls-2" d="M255.74,46.62q-5.43-3.69-10.7-7.69L245,38l1.38-.43q4.95,3.73,10,6.95l.79,1.69A1.84,1.84,0,0,1,255.74,46.62Zm-1.15-9.79c-2.9-1.47-5.74-3-8.54-4.68l-.58-1.23,1.06-.56a52,52,0,0,0,8.14,3.89l1.23,1.35,0,.47A1.64,1.64,0,0,1,254.59,36.83Zm2.55-5.32-10.81-7-.07-.8a1.26,1.26,0,0,1,1.24-.58l5.57,3.51,0,.33,5.34,2.89.28,1.26A2,2,0,0,1,257.14,31.51Z"/><path class="cls-2" d="M290.74,43.62l-1.09-1-.1-1.17a64.34,64.34,0,0,0,3.64-13.08l-.52-.13-.16.18-1.67.15a71.32,71.32,0,0,0-13.34,5.57l-1.05-.42-.62-1.33a69.44,69.44,0,0,1,16.49-6.18l2.89-.25,1.26.91,0,.54q-2.17,8-4.91,15.92ZM277.91,24.75l-.75-.44-.3-1.49a47.27,47.27,0,0,1,7.44-2.7L286,20l1.81-.49,1.71-.15,1.16-.27,1.23.57.29,1.36-1.14.44-1.85.16-.55-.13-.15.19-1.85.16A81.87,81.87,0,0,0,277.91,24.75Z"/><path class="cls-2" d="M323.83,40.23l-1.42-.76,0-.5.15-.21-.18-2-.53-1.85.19-.18-.17-1.91L321,29.56l-.16-1.88-.9-.63a123.11,123.11,0,0,0-8,9.34l-1,.09L309.56,35q8.38-9,17.13-18.06l1.19-.3,1.08.78.08.87-6.37,6.09.12,1.34.42,1,.16,1.91.44,1.15.15,1.74.18.15.3,3.42.18.16.16,1.91.85,1.65A2.8,2.8,0,0,1,323.83,40.23Z"/><path class="cls-2" d="M348.51,37.4a2.66,2.66,0,0,1-1.7-1.78l1.13-1,1.74-.15,4.57-1.44.13-.51a13.56,13.56,0,0,1-2.05-5.4l-.34-4,.4-3.51.69-.23,1.64.91.24.86-.4,1.25.15,1.71-.19.18.22,2.58a21,21,0,0,0,2.93,7.76l-.29.56-1.21.11-.18-.19-1.91.16C352.29,36.07,350.44,36.76,348.51,37.4Z"/><path class="cls-2" d="M399.14,30.65q-5.06-5.82-10.1-11.43l-3.79,4.68-.33,0-.88,1.6-2.13,2.72a6.44,6.44,0,0,1-1.25,3.14l-1,.26-1.06-.59-.45-1.31a56.26,56.26,0,0,1,5.09-7.53l.34,0,4.21-5.56,1.33-.29,1.76.86L395,21.72l4.07,6.06,1.41.73.46,1.48-.14.35Z"/><path class="cls-2" d="M415.54,30.83a3.19,3.19,0,0,1-2.47-.84l-.44-1.14L412.47,27a15.91,15.91,0,0,1,1.76-7.52,15.34,15.34,0,0,1,10.1-5.83,7.26,7.26,0,0,1,4.95,1.8,17.49,17.49,0,0,1,6,9.59l.22,2.55-.6.9-.87.07a1.73,1.73,0,0,1-1.47-1.39,3.15,3.15,0,0,0,.31-2.26,17.8,17.8,0,0,0-5.52-8.44l-1.43-.55a38.11,38.11,0,0,1-5.4,12.62,5.82,5.82,0,0,1-2.89,2.14Zm1.84-2.56A34.46,34.46,0,0,0,423.15,18l.39-1.76-.9-.26a20,20,0,0,0-6.27,4.83,16,16,0,0,0-1.52,7.84,1.24,1.24,0,0,0,1.38.38Z"/><path class="cls-2" d="M447.6,28.07l-1.93-.78-.19-.63,0-1.79-.26-1.09.15-.21-.32-3.73.4-5.5-.21-2.45.26-3.23.1-.05,2.52-.21,1.57-.58,1.67-4.46-1-.22-2.21.19L446.72,3l-3.84,6.34-.91.42-1.25-1.21q2.19-4,4.27-8.07l1.36-.29.86.64.29.62,2.68.44,3.25-.28,1.71.6.17.46a13.42,13.42,0,0,0-2.71,4.59l3,.62,1.8,4.77.34,3.93-.22.18.3,3.56a22.2,22.2,0,0,1-1.26,5.75l-.89.28-1.13-.61-.27-1.13a9.33,9.33,0,0,0,1-5.46L454.18,19a23,23,0,0,1-5,1.44l-1.5-.58-.26,1,.38,4.32.78,2.06-.22.6Zm2-9.87.36-.47-.33-.27.39-3-1.88.16-.66,1,.22,2.55,1.59.41Zm.55-5.78.34-1.89a2,2,0,0,0-2.25-.65l-.72,2.19a2.05,2.05,0,0,0,2.31.64Zm5.36,4.67-.05-.61.1-1.66-2-.74-1,.6L452,17.12a4.16,4.16,0,0,0,2.73.27Zm-.62-4.51.21-.76-1.15-2.27-1,.09-.56,2.48a2.62,2.62,0,0,0,2.2.82Zm13.06,16.78-1.27-.63-.41-.91a3.43,3.43,0,0,0,.75-2.6l-.24-2.85.22-.19-.21-2.38-1.35-.39-4.27,1.35-1.41-1.44c2-.78,4.18-1.55,6.52-2.31l.15-1.87-1.78-.59-3.92,1.14-1.38-1.13,0-.23,1.76-.79.14-1-.29-1,.26-1.78-.28-3.25.15-.19-.23-2.68L459.36,3l-.44-1.18A21.9,21.9,0,0,1,466,.11l.62.11.62-.22,3.07.68.29,1a12.2,12.2,0,0,1-2.38,7l-.68.3.19,2.21.33,1.09,2.45-.21c.66.16,1,.52,1.07,1.05a8.77,8.77,0,0,1-2.94,1.17l-.13,1.66,1.34.66L471,16l2.21-.19.9,1-.7.88-3.45.29-.91.82.45,5.27-.19.18L469.5,27l-1,2.18Zm-2.42-16.81.32-1.35-.22-.22-.16-1.81a60.75,60.75,0,0,0,2.3-6.75l-.66-.52-2.21.19-1.58.85L463.49,5l-.19.18.21,2.42-.2,5.18,1.8.08Z"/><path class="cls-2" d="M487.3,26.58l-1.46-.41-.06-.71a10.79,10.79,0,0,0,2.29-7.59l-1.78-.59-1.82.39-2-1.07-1.94,7.32-1.2.11a2.06,2.06,0,0,1-1.19-1.66,62,62,0,0,0,2.44-9.29l-1-.22-3.67.92-1.2-1.32q2.85-1,6.45-2l.31-.36-.31-3.63.29-3.7.06,0,1.91-.17c.47.14.73.56.79,1.25l-.49,4.5.52,1.45.43.23,2.31-.2.19-.18,1.95-.17,2.14.22.36-1.79-.37-4.22a2,2,0,0,1,1.65-.52l.7.35L494,4.9l-.34.84L493.8,8l.82.8,2.21-.19a102,102,0,0,0,10.3-2.77l1.25.36.07.87a44.71,44.71,0,0,1-6.51,2.42,51.68,51.68,0,0,1-1.33,9.74,11.33,11.33,0,0,0,6,2.13l.63,1-1.27.95-6.67-2.13a11.15,11.15,0,0,1-2.53,4l-1.89.4-1-.72,1-1.24.47,0a10.4,10.4,0,0,0,2-4.9l-4.26-4-.88-.36-.07,0-.17-2-.63-1.43-1.11.09-.22.22-3.75.32-2.6.87-1.12,4.18,1.32-.38.45-.17,2.75-.24,2.89.93a5,5,0,0,1,.87,3.1,18.38,18.38,0,0,1-2.34,6.59Zm11.39-10.1-.08-.94.63-4.81-.91-.77-3.85.33-.3,2.05.65,2.42A9.26,9.26,0,0,1,498.69,16.48Z"/></g></g></svg>