<svg xmlns="http://www.w3.org/2000/svg" xmlns:xlink="http://www.w3.org/1999/xlink" viewBox="0 0 670.53 82.21"><defs><style>.cls-1{fill:#444;}.cls-2{fill:url(#名称未設定グラデーション_57);}.cls-3{fill:#fff;}</style><linearGradient id="名称未設定グラデーション_57" x1="70.17" y1="70.17" x2="12.04" y2="12.04" gradientUnits="userSpaceOnUse"><stop offset="0" stop-color="#a9f7ec"/><stop offset="0.44" stop-color="#d6e0d0"/><stop offset="0.8" stop-color="#f2d1bf"/><stop offset="1" stop-color="#fdccb8"/></linearGradient></defs><g id="レイヤー_2" data-name="レイヤー 2"><g id="レイヤー_1-2" data-name="レイヤー 1"><path class="cls-1" d="M128.44,36.42h-8.71a.48.48,0,0,1-.54-.54c0-.28.18-.46.57-.46,1.52-.08,2.31-.36,2.31-.94,0-.29-.43-.94-1.3-2l-7.48-9.18-2.42,2.3v7a2.38,2.38,0,0,0,1,2.3,5.6,5.6,0,0,0,2.26.47.58.58,0,0,1,.58.61c0,.29-.22.43-.58.43H105.3a.47.47,0,0,1-.54-.54c0-.28.17-.46.54-.5a5.86,5.86,0,0,0,2.08-.4c.69-.28,1.05-1.08,1.05-2.37V15a2.44,2.44,0,0,0-1.05-2.38,8.4,8.4,0,0,0-2.26-.54.52.52,0,0,1-.55-.57c0-.29.19-.47.55-.47h9a.53.53,0,0,1,.58.57c0,.29-.22.44-.58.47a10,10,0,0,0-2.16.43c-.72.33-1.08,1.12-1.08,2.45v9l10-9.68a1.83,1.83,0,0,0,.72-1.19c0-.58-.72-.94-2.13-1-.39,0-.57-.18-.57-.54s.18-.47.54-.47h7.7a.53.53,0,0,1,.58.57c0,.29-.18.44-.54.51a7.93,7.93,0,0,0-4.32,2.23l-7.85,7.41,9.43,11.34a5.93,5.93,0,0,0,4,2.27q.54.06.54.54C129,36.24,128.8,36.42,128.44,36.42Z"/><path class="cls-1" d="M139.89,36.42h-7.42c-.39,0-.57-.18-.57-.54s.18-.46.57-.46a7.27,7.27,0,0,0,1.37-.22c.79-.22,1.19-.9,1.19-2.05V22.39c0-1.16-.29-1.8-.86-2a6.71,6.71,0,0,0-1.7-.22.5.5,0,0,1-.57-.57c0-.33.18-.51.57-.54a28,28,0,0,0,4.32-.43c.4-.08.62.1.62.5v14c0,1.08.28,1.73.82,2a6.73,6.73,0,0,0,1.66.29c.4,0,.58.18.58.5S140.29,36.42,139.89,36.42Zm-2.38-24.94a1.83,1.83,0,0,1,.54,1.3,1.82,1.82,0,0,1-3.63,0,1.61,1.61,0,0,1,1.8-1.84A1.76,1.76,0,0,1,137.51,11.48Z"/><path class="cls-1" d="M164.55,36.42H157a.51.51,0,0,1-.58-.54c0-.28.22-.46.58-.46s1-.11,1.36-.18c.79-.18,1.19-.9,1.19-2.09V25.59c0-3.64-1.33-5.44-4-5.44s-4.43,1.44-5.48,4.32v8.68c0,1.12.33,1.76,1,2a5.19,5.19,0,0,0,1.54.26.53.53,0,0,1,.58.57c0,.29-.22.43-.58.43h-7.52c-.39,0-.58-.18-.58-.54s.19-.46.58-.46a6.42,6.42,0,0,0,1.4-.22c.8-.22,1.19-.9,1.19-2.05V22.39c0-1.16-.29-1.8-.86-2a7.34,7.34,0,0,0-1.73-.22c-.39,0-.58-.18-.58-.57s.19-.51.58-.54a25.53,25.53,0,0,0,4.25-.43c.39-.08.61.1.61.5v3.17a6.85,6.85,0,0,1,6.12-3.67c3.92,0,5.9,2.16,5.9,6.48v8.06c0,1.08.36,1.76,1,2a4.91,4.91,0,0,0,1.51.26c.36,0,.57.18.57.5S164.91,36.42,164.55,36.42Z"/><path class="cls-1" d="M174.41,37.83c0,4.07-1.69,6.12-5,6.12a4.24,4.24,0,0,1-2.78-.9,2.31,2.31,0,0,1-1-1.77,1.5,1.5,0,0,1,1.69-1.72c1.05,0,1.55.46,1.55,1.47a1.27,1.27,0,0,1-1,1.33,1.81,1.81,0,0,0,1.48.62c1.79,0,2.69-1.62,2.69-4.83V22.39c0-1.16-.28-1.8-.86-2a7.17,7.17,0,0,0-1.69-.22.51.51,0,0,1-.58-.57c0-.33.18-.51.58-.54a27.7,27.7,0,0,0,4.28-.43c.4-.08.61.1.61.5Zm.15-26.35a1.83,1.83,0,0,1,.54,1.3,1.82,1.82,0,0,1-3.64,0,1.61,1.61,0,0,1,1.8-1.84A1.77,1.77,0,0,1,174.56,11.48Z"/><path class="cls-1" d="M196.88,20.8a9.24,9.24,0,0,1,2.59,6.81,9.48,9.48,0,0,1-2.59,7,8.65,8.65,0,0,1-11.92,0,9.34,9.34,0,0,1-2.59-6.94A9.4,9.4,0,0,1,185,20.77a8.56,8.56,0,0,1,11.88,0Zm-10.26,1.08a9.83,9.83,0,0,0-1.59,5.8,9.27,9.27,0,0,0,1.73,5.94,5.32,5.32,0,0,0,8.86-.8,10.59,10.59,0,0,0,1.18-5.11,9.5,9.5,0,0,0-1.72-6,5.25,5.25,0,0,0-8.46.18Z"/><path class="cls-1" d="M246.05,13.57a13.75,13.75,0,0,1,3.89,10q0,6.48-3.92,10.37a12.09,12.09,0,0,1-16.81,0,13.74,13.74,0,0,1-3.93-10.26,13.81,13.81,0,0,1,3.89-10.11,12.12,12.12,0,0,1,16.88,0ZM230.64,15a14.32,14.32,0,0,0-2.37,8.57,15.65,15.65,0,0,0,1.84,7.92,8.51,8.51,0,0,0,14.43.86c1.62-2.16,2.41-5,2.41-8.64,0-3.85-.9-6.91-2.7-9.14a8.5,8.5,0,0,0-13.61.43Z"/><path class="cls-1" d="M258,19.07V16.63a6.28,6.28,0,0,1,1.69-4.72,5.16,5.16,0,0,1,3.78-1.47,5.41,5.41,0,0,1,3.6,1.08,1.92,1.92,0,0,1,.76,1.51c0,1-.51,1.58-1.44,1.58s-1.55-.47-1.55-1.4a1.75,1.75,0,0,1,.4-1.12,2.35,2.35,0,0,0-1.7-.57c-2.12,0-3.16,1.72-3.16,5.11v2.44h4.39a.5.5,0,0,1,.57.54v.22a.51.51,0,0,1-.57.58h-4.39V33.15c0,1,.25,1.69.82,2a6.89,6.89,0,0,0,1.88.29.5.5,0,0,1,.54.57c0,.29-.18.43-.54.43h-7.64a.47.47,0,0,1-.53-.54c0-.28.18-.46.53-.46a5.81,5.81,0,0,0,1.34-.22A1.88,1.88,0,0,0,258,33.15V20.41h-2.77c-.4,0-.58-.18-.58-.58v-.22c0-.36.18-.54.58-.54Z"/><path class="cls-1" d="M271.11,19.07V16.63a6.28,6.28,0,0,1,1.69-4.72,5.12,5.12,0,0,1,3.78-1.47,5.41,5.41,0,0,1,3.6,1.08,2,2,0,0,1,.76,1.51c0,1-.51,1.58-1.44,1.58s-1.55-.47-1.55-1.4a1.79,1.79,0,0,1,.39-1.12,2.32,2.32,0,0,0-1.69-.57c-2.12,0-3.17,1.72-3.17,5.11v2.44h4.4a.5.5,0,0,1,.57.54v.22a.51.51,0,0,1-.57.58h-4.4V33.15c0,1,.26,1.69.83,2a6.87,6.87,0,0,0,1.87.29c.37,0,.54.21.54.57s-.17.43-.54.43h-7.63a.48.48,0,0,1-.54-.54c0-.28.18-.46.54-.46a5.72,5.72,0,0,0,1.33-.22,1.88,1.88,0,0,0,1.23-2.05V20.41h-2.77c-.4,0-.58-.18-.58-.58v-.22c0-.36.18-.54.58-.54Z"/><path class="cls-1" d="M289.25,36.42h-7.41c-.4,0-.58-.18-.58-.54s.18-.46.58-.46a7.55,7.55,0,0,0,1.37-.22c.79-.22,1.18-.9,1.18-2.05V22.39c0-1.16-.28-1.8-.86-2a6.69,6.69,0,0,0-1.69-.22c-.4,0-.58-.18-.58-.57s.18-.51.58-.54a28.22,28.22,0,0,0,4.32-.43c.39-.08.61.1.61.5v14c0,1.08.29,1.73.83,2a6.56,6.56,0,0,0,1.65.29c.4,0,.58.18.58.5S289.65,36.42,289.25,36.42Zm-2.37-24.94a1.83,1.83,0,0,1,.54,1.3,1.6,1.6,0,0,1-1.84,1.8,1.59,1.59,0,0,1-1.8-1.8,1.61,1.61,0,0,1,1.8-1.84A1.78,1.78,0,0,1,286.88,11.48Z"/><path class="cls-1" d="M309.84,32.1a.55.55,0,0,1,.18.8,7.64,7.64,0,0,1-7,4.1,8.06,8.06,0,0,1-5.94-2.41,9.2,9.2,0,0,1-2.48-6.73,9.55,9.55,0,0,1,2.63-7,8.06,8.06,0,0,1,5.9-2.38,7.81,7.81,0,0,1,5,1.59,3.36,3.36,0,0,1,1.55,2.62c0,1.23-.54,1.84-1.66,1.84S306.46,24,306.46,23a1.4,1.4,0,0,1,.86-1.4,4.49,4.49,0,0,0-4.1-1.94,5,5,0,0,0-4.68,2.8,10.15,10.15,0,0,0-1.3,5.19A8.52,8.52,0,0,0,299,33.15a5.47,5.47,0,0,0,4.47,2.19,6.25,6.25,0,0,0,5.5-3.2.49.49,0,0,1,.79-.14Z"/><path class="cls-1" d="M323,36.42h-7.42c-.39,0-.57-.18-.57-.54s.18-.46.57-.46a7.41,7.41,0,0,0,1.37-.22c.79-.22,1.19-.9,1.19-2.05V22.39c0-1.16-.29-1.8-.87-2a6.54,6.54,0,0,0-1.69-.22.5.5,0,0,1-.57-.57c0-.33.18-.51.57-.54a28.1,28.1,0,0,0,4.32-.43c.4-.08.61.1.61.5v14c0,1.08.29,1.73.83,2a6.56,6.56,0,0,0,1.66.29c.39,0,.57.18.57.5S323.34,36.42,323,36.42Zm-2.38-24.94a1.83,1.83,0,0,1,.54,1.3,1.82,1.82,0,0,1-3.63,0,1.61,1.61,0,0,1,1.8-1.84A1.76,1.76,0,0,1,320.57,11.48Z"/><path class="cls-1" d="M345,35.56a2.63,2.63,0,0,1-2.38,1.37c-1.69,0-2.55-1-2.63-3.06A7,7,0,0,1,333.86,37a6,6,0,0,1-4-1.26,4.49,4.49,0,0,1-1.7-3.68c0-3.77,3.24-5.9,9.69-6.26l1.83-.11v-.64c0-3.6-1.44-5.4-4.25-5.4-1.87,0-3.16.61-3.85,1.87a1.13,1.13,0,0,1,1,1.29c0,1-.5,1.55-1.58,1.55a1.54,1.54,0,0,1-1.73-1.76,3.43,3.43,0,0,1,1.65-2.7,7.43,7.43,0,0,1,4.68-1.48c4.22,0,6.34,2.09,6.34,6.3v7.31c0,2.41.4,3.6,1.23,3.6a1.2,1.2,0,0,0,1-.58c.25-.32.43-.43.68-.25A.54.54,0,0,1,345,35.56ZM339.72,27l-1.51.08c-5,.21-7.49,1.87-7.49,4.82a3.53,3.53,0,0,0,1,2.7,3.42,3.42,0,0,0,2.55,1,5.79,5.79,0,0,0,3.78-1.3,4.77,4.77,0,0,0,1.62-2.37Z"/><path class="cls-1" d="M356.72,36.42h-7.64a.47.47,0,0,1-.53-.54c0-.28.17-.46.53-.46a8.09,8.09,0,0,0,1.44-.22c.8-.18,1.23-.86,1.23-2.05V14.36c0-1.08-.29-1.73-.83-2a7.33,7.33,0,0,0-1.76-.22c-.4,0-.58-.18-.58-.57a.49.49,0,0,1,.54-.54,43.24,43.24,0,0,0,4.39-.43.46.46,0,0,1,.61.5v22c0,1.12.29,1.76.94,2a5.87,5.87,0,0,0,1.66.26c.36,0,.57.18.57.5S357.08,36.42,356.72,36.42Z"/><path class="cls-1" d="M411.83,36.42h-8.64a.51.51,0,0,1-.58-.54c0-.28.22-.46.54-.5a7.9,7.9,0,0,0,2.06-.4c.72-.28,1-1.11,1-2.44V12.81h-.11L397.22,36a.63.63,0,0,1-.65.43h-.29a.68.68,0,0,1-.65-.43l-8.85-23.14h-.15V32.57c0,1.23.33,2,.94,2.34a5.2,5.2,0,0,0,2.05.47.55.55,0,0,1,.54.61c0,.29-.18.43-.58.43h-7.74c-.39,0-.57-.18-.57-.54s.18-.46.54-.5a5.76,5.76,0,0,0,2-.4c.72-.32,1.05-1.11,1.05-2.41V15c0-1.3-.33-2.13-.94-2.45a7.33,7.33,0,0,0-2.27-.47.51.51,0,0,1-.53-.57c0-.29.17-.47.57-.47h6.48a.63.63,0,0,1,.65.43l8.1,21.06,8-21.06a.67.67,0,0,1,.65-.43h6.23a.5.5,0,0,1,.54.57c0,.29-.18.44-.54.47a6.2,6.2,0,0,0-2.05.47c-.72.32-1.08,1.12-1.08,2.41V32.54c0,1.26.32,2.05.93,2.37a6.21,6.21,0,0,0,2.2.47q.54.06.54.54C412.37,36.24,412.19,36.42,411.83,36.42Z"/><path class="cls-1" d="M434,26.92c0,.22-.18.33-.58.33h-13v.61a7.68,7.68,0,0,0,2.16,5.76,5.86,5.86,0,0,0,4.39,1.8,6.4,6.4,0,0,0,5.65-3.24.49.49,0,0,1,.79-.15l.07.07a.55.55,0,0,1,.18.8,7.66,7.66,0,0,1-7.13,4.1,8.44,8.44,0,0,1-6.19-2.45,9.12,9.12,0,0,1-2.44-6.73,9.6,9.6,0,0,1,2.59-7,7.76,7.76,0,0,1,5.72-2.31,7.25,7.25,0,0,1,5.47,2.16,8.35,8.35,0,0,1,2.31,6Zm-2.45-1a6.92,6.92,0,0,0-1.8-4.83,4.88,4.88,0,0,0-3.56-1.36A5.1,5.1,0,0,0,422,21.85a7.93,7.93,0,0,0-1.48,4Z"/><path class="cls-1" d="M468.92,36.42h-7.55c-.37,0-.58-.18-.58-.54s.21-.46.58-.46a9.7,9.7,0,0,0,1.65-.26c.61-.21.94-.86.94-2V25.66a8.52,8.52,0,0,0-.62-4,3.12,3.12,0,0,0-2.87-1.58c-2.34,0-4,1.44-5,4.35v8.68c0,1.08.25,1.73.79,2a7.24,7.24,0,0,0,1.8.29.51.51,0,0,1,.57.57c0,.29-.18.43-.57.43h-7.6c-.39,0-.57-.18-.57-.54s.18-.46.57-.46a7.18,7.18,0,0,0,1.44-.22c.8-.22,1.16-.9,1.16-2.05V25.63a8.66,8.66,0,0,0-.58-4,2.94,2.94,0,0,0-2.81-1.55c-2.37,0-4,1.44-5,4.32v8.71c0,1.08.25,1.73.79,2a7,7,0,0,0,1.76.29.53.53,0,0,1,.58.57c0,.29-.22.43-.58.43H439.7c-.4,0-.58-.18-.58-.54s.18-.46.58-.46a6.53,6.53,0,0,0,1.4-.22c.79-.22,1.19-.9,1.19-2.05V22.39c0-1.16-.29-1.8-.87-2a7.24,7.24,0,0,0-1.72-.22c-.4,0-.58-.18-.58-.57s.18-.51.58-.54a25.25,25.25,0,0,0,4.28-.43c.4-.08.61.1.61.5v3c1.37-2.34,3.17-3.52,5.51-3.52,2.84,0,4.5,1.29,5,3.92,1.34-2.63,3.28-3.92,5.91-3.92q5.4,0,5.4,6.48v8.06c0,1.15.32,1.8,1,2a6.93,6.93,0,0,0,2.08.26,2.55,2.55,0,0,1,0,.5C469.5,36.24,469.28,36.42,468.92,36.42Z"/><path class="cls-1" d="M477.82,22.13a6.86,6.86,0,0,1,6.05-3.6A7,7,0,0,1,489,20.66a9.5,9.5,0,0,1,2.55,7,9.44,9.44,0,0,1-2.59,7,7.21,7.21,0,0,1-11.05-.82l-1,2.48a.61.61,0,0,1-.64.43h-.18c-.4,0-.58-.18-.58-.57V14.36c0-1.12-.25-1.76-.79-2a6.79,6.79,0,0,0-1.73-.22.51.51,0,0,1-.58-.57.52.52,0,0,1,.58-.54,29.77,29.77,0,0,0,4.25-.43c.39-.08.61.1.61.5Zm0,8.1a4.86,4.86,0,0,0,2.34,3.93,5.86,5.86,0,0,0,3.38,1.15,4.74,4.74,0,0,0,4.25-2.59,9.79,9.79,0,0,0,1.19-5c0-2.7-.68-4.75-2.09-6.16A4.84,4.84,0,0,0,483.36,20a5.28,5.28,0,0,0-4.42,2.48,5,5,0,0,0-1.12,3.06Z"/><path class="cls-1" d="M513.42,26.92c0,.22-.18.33-.57.33h-13v.61A7.71,7.71,0,0,0,502,33.62a5.88,5.88,0,0,0,4.39,1.8,6.38,6.38,0,0,0,5.65-3.24.5.5,0,0,1,.8-.15l.07.07a.55.55,0,0,1,.18.8A7.67,7.67,0,0,1,506,37a8.44,8.44,0,0,1-6.19-2.45,9.08,9.08,0,0,1-2.45-6.73,9.64,9.64,0,0,1,2.59-7,7.78,7.78,0,0,1,5.73-2.31,7.27,7.27,0,0,1,5.47,2.16,8.38,8.38,0,0,1,2.3,6Zm-2.45-1a6.87,6.87,0,0,0-1.8-4.83,4.86,4.86,0,0,0-3.56-1.36,5.1,5.1,0,0,0-4.17,2.16,7.84,7.84,0,0,0-1.48,4Z"/><path class="cls-1" d="M523.94,23.07a8.29,8.29,0,0,1,2.52-3.38,4.78,4.78,0,0,1,3.2-1.19c1.37,0,2.05.61,2.05,1.83S531.21,22,530.2,22a1.32,1.32,0,0,1-1.51-1.48,2,2,0,0,1,.07-.5,4.49,4.49,0,0,0-2.88,1.8,8.71,8.71,0,0,0-1.76,3.35v8c0,1.08.25,1.73.79,2a7.64,7.64,0,0,0,1.87.29.52.52,0,0,1,.57.57c0,.29-.21.43-.57.43h-7.67c-.39,0-.57-.18-.57-.54s.18-.46.57-.46a6.63,6.63,0,0,0,1.41-.22c.79-.22,1.18-.9,1.18-2.05V22.39c0-1.16-.29-1.8-.86-2a7.17,7.17,0,0,0-1.69-.22c-.4,0-.58-.18-.58-.57s.18-.51.58-.54a24.11,24.11,0,0,0,4.17-.43c.4-.08.62.1.62.5Z"/><path class="cls-1" d="M536.75,16A8,8,0,0,0,539,11.7a1.89,1.89,0,0,1-.79-.15,2,2,0,0,1-1.48-2,2.65,2.65,0,0,1,.32-1.26A2.16,2.16,0,0,1,539,7.09a2.29,2.29,0,0,1,1.73.75,2.64,2.64,0,0,1,.75,1.91,7,7,0,0,1-1.19,3.67,9.6,9.6,0,0,1-3,3.17c-.29.22-.51.22-.69,0S536.54,16.27,536.75,16Z"/><path class="cls-1" d="M561.3,23.9a5.32,5.32,0,0,0-1.37-2.74,5.07,5.07,0,0,0-3.63-1.47,3.84,3.84,0,0,0-2.92,1.15,2.77,2.77,0,0,0-.83,2.09c0,1.4,1.23,2.52,3.64,3.24l.94.28a14.88,14.88,0,0,1,4.25,1.91,4.34,4.34,0,0,1,1.79,3.6,4.54,4.54,0,0,1-2,4,6.73,6.73,0,0,1-3.85,1.08A8.71,8.71,0,0,1,553,35.81a2.83,2.83,0,0,0-1.19-.47c-.29,0-.47.26-.54.72s-.25.58-.58.58-.5-.22-.5-.58V30.59c0-.39.18-.57.58-.57a.51.51,0,0,1,.57.54,5.86,5.86,0,0,0,1.51,3.38,5.77,5.77,0,0,0,4.39,1.8c2.49,0,3.75-1.12,3.75-3.31a2.91,2.91,0,0,0-1.12-2.38,14.54,14.54,0,0,0-3.49-1.54l-1.08-.36A12.93,12.93,0,0,1,552,26.63a4,4,0,0,1-1.59-3.27A4.56,4.56,0,0,1,551.87,20a6,6,0,0,1,4.21-1.51,7.31,7.31,0,0,1,4,1.08,1.93,1.93,0,0,0,.87.29c.18,0,.32-.18.43-.5a.57.57,0,0,1,.61-.54c.22,0,.36.18.36.57v4.47c0,.36-.18.57-.5.57A.56.56,0,0,1,561.3,23.9Z"/><path class="cls-1" d="M611.27,28.25a.55.55,0,0,1,.39.72,12.25,12.25,0,0,1-3.81,6.09,10.42,10.42,0,0,1-6.73,2.26A11.45,11.45,0,0,1,592.66,34c-2.56-2.49-3.82-5.87-3.82-10.12a14.06,14.06,0,0,1,3.89-10.29,11.46,11.46,0,0,1,8.42-3.42,11.79,11.79,0,0,1,7,2.12,2.45,2.45,0,0,0,1,.51c.29,0,.47-.29.57-.9,0-.4.22-.58.58-.58s.58.18.58.58V18c0,.36-.18.54-.58.54a.56.56,0,0,1-.61-.5,8.73,8.73,0,0,0-2-3.89,8.09,8.09,0,0,0-6.34-2.7A8.34,8.34,0,0,0,593.56,16a15.19,15.19,0,0,0-1.8,7.59,12.87,12.87,0,0,0,2.7,8.46,8.64,8.64,0,0,0,7.13,3.42c4.28,0,7.2-2.3,8.71-6.91a.52.52,0,0,1,.72-.36Z"/><path class="cls-1" d="M623.91,36.42h-7.63a.48.48,0,0,1-.55-.54c0-.28.19-.46.55-.46a8.55,8.55,0,0,0,1.44-.22c.79-.18,1.22-.86,1.22-2.05V14.36c0-1.08-.29-1.73-.83-2a7.33,7.33,0,0,0-1.76-.22c-.4,0-.58-.18-.58-.57a.49.49,0,0,1,.54-.54,43.24,43.24,0,0,0,4.39-.43.46.46,0,0,1,.61.5v22c0,1.12.29,1.76.94,2a5.87,5.87,0,0,0,1.66.26c.36,0,.57.18.57.5S624.27,36.42,623.91,36.42Z"/><path class="cls-1" d="M647.92,36.42h-4.21a.51.51,0,0,1-.58-.54L643,33.51a6.75,6.75,0,0,1-6.09,3.63c-4,0-5.94-2.16-5.94-6.44V22.39c0-1.19-.25-1.88-.79-2a7.88,7.88,0,0,0-1.73-.18c-.39,0-.57-.22-.57-.58s.18-.54.57-.57a26.5,26.5,0,0,0,4.29-.43c.39-.08.61.1.61.5V30.16c0,3.64,1.33,5.47,4,5.47a5.28,5.28,0,0,0,3.46-1.26A6.62,6.62,0,0,0,643,30.85v-8.5c0-1.08-.29-1.73-.86-2a6.42,6.42,0,0,0-1.7-.22.5.5,0,0,1-.57-.57c0-.33.18-.51.57-.54a30.12,30.12,0,0,0,4.29-.43c.39-.08.61.1.61.5v14c0,1.08.36,1.76,1,2a5.27,5.27,0,0,0,1.59.26c.36,0,.57.18.57.5S648.28,36.42,647.92,36.42Z"/><path class="cls-1" d="M656.81,22.13a6.86,6.86,0,0,1,6.05-3.6A7,7,0,0,1,668,20.66a9.51,9.51,0,0,1,2.56,7,9.45,9.45,0,0,1-2.6,7,7.21,7.21,0,0,1-11-.82l-1,2.48a.63.63,0,0,1-.65.43h-.18c-.4,0-.58-.18-.58-.57V14.36c0-1.12-.25-1.76-.79-2a6.79,6.79,0,0,0-1.73-.22.51.51,0,0,1-.57-.57.51.51,0,0,1,.57-.54,29.77,29.77,0,0,0,4.25-.43c.4-.08.61.1.61.5Zm0,8.1a4.86,4.86,0,0,0,2.34,3.93,5.86,5.86,0,0,0,3.38,1.15,4.74,4.74,0,0,0,4.25-2.59,9.79,9.79,0,0,0,1.19-5c0-2.7-.68-4.75-2.09-6.16A4.84,4.84,0,0,0,662.35,20a5.3,5.3,0,0,0-4.42,2.48,5,5,0,0,0-1.12,3.06Z"/><circle class="cls-2" cx="41.1" cy="41.1" r="41.1"/><path class="cls-3" d="M59.71,34.54c-.06.19-2,4.26-8.94,4.38-1.36,0-1.42.12-1.36.25a27.75,27.75,0,0,0,1.3,3c.86,1.78,3.2,5.61,1.36,8.19a4,4,0,0,1-3.21,1.36c-2.47-.18-4.75-1.17-7.09-1.79-3.7-1-8.38-1.85-12.27-.43-2.34.93-4.93,3-4.25,6.1,1.05,3.77,6.29,4.81,9.74,5.12a52.27,52.27,0,0,0,13.07-.31c2.53-.31,2.9,3.64.43,3.95h-.06a55.57,55.57,0,0,1-13.93.06c-4.5-.74-11.28-2.65-12.27-8.26-.8-4.25,2.34-7.89,6.53-9.06C34.37,45.58,40.6,47,46.27,48.6c2.16.55,3.08.06,2.77-1.05-.12-.31-.8-2-1.72-3.88-.68-1.55-1.3-3-1.91-4.5a.41.41,0,0,0-.31-.25h-20a1.3,1.3,0,0,1-1.3-1.23c0-.93.74-1.18,1.42-1.36,1.91-.49,14.67-4.13,11.47-8.26-2-2.65-7.71-1.91-12.52-1.6-2.09.18-2.4-3.15-.24-3.27,4.74-.31,15.9-.86,15.53,6.16-.18,3.52-4.13,5.31-7.58,6.66a.19.19,0,0,0,.06.37H44.11c.13,0,.19-.12.19-.25a56.2,56.2,0,0,1-3.58-15.47s-.06-.86-.12-1.35a1.92,1.92,0,0,1,3.82-.25v.06c0,5.49,1.48,11,3.76,17,0,.19.19.25.31.25H51c4.93,0,6.41-2.83,6.47-3C58.11,32,60.45,33.06,59.71,34.54Z"/><path class="cls-1" d="M121.92,60.54a.45.45,0,0,1,0,.9H118a.1.1,0,0,0-.09.09v9.66a.64.64,0,0,1-1.25.24,1.31,1.31,0,0,1,0-.22c0-.6-.55-.93-1.31-1.52-.23-.16-.47-.31-.71-.51-.42-.31.09-1,.51-.66l1.16.82a.21.21,0,0,0,.35-.18V61.53a.09.09,0,0,0-.08-.09h-1.37a.1.1,0,0,0-.09.09c-.22,4.86-5,8-8.91,10.27a.37.37,0,0,1-.39-.64c3.39-2.26,7.57-5.26,7.81-9.63a.1.1,0,0,0-.09-.09h-5.41a.45.45,0,1,1,0-.9h8.45s.08,0,.08-.11V56.18a.65.65,0,1,1,1.3,0v4.25a.11.11,0,0,0,.09.11Z"/><path class="cls-1" d="M142.66,58.11a.74.74,0,0,1,.71.8v0a11.56,11.56,0,0,1-4,7.85,30.1,30.1,0,0,1-8.1,5.07.38.38,0,0,1-.33-.69A27.33,27.33,0,0,0,138,66.41a13.42,13.42,0,0,0,2.9-3.83,8.54,8.54,0,0,0,.82-3.3.25.25,0,0,0-.25-.26h-9.79a.46.46,0,0,1,0-.91Z"/><path class="cls-1" d="M161,63.73a.16.16,0,0,0,0,.13s0,.06,0,.11v7.92a.65.65,0,1,1-1.3,0v-7a.07.07,0,0,0-.11,0,55.42,55.42,0,0,1-5,2.82c-.37.2-.7-.42-.33-.59a30.05,30.05,0,0,0,5.24-3.33c1.47-1.25,3-2.66,3-4.7a.65.65,0,0,1,1.3,0A6.34,6.34,0,0,1,161,63.73Z"/><path class="cls-1" d="M179.75,63.26c.66.51-.11,1.57-.79,1a16.76,16.76,0,0,0-1.47-1.17,12.25,12.25,0,0,0-2.4-1.14.41.41,0,0,1,.22-.79A11.8,11.8,0,0,1,179.75,63.26Zm-1.49,6.58c2.92-.11,5.1-1.6,7.17-3.56A43.22,43.22,0,0,0,191,59.52c.29-.39,1,0,.73.44-3.1,4.78-7.11,10.87-13.33,11.38-.93.11-1-1.48-.11-1.5Zm4.31-10.45a.65.65,0,0,1-.77,1c-.5-.38-.92-.84-1.47-1.19a12.11,12.11,0,0,0-2.42-1.13.41.41,0,0,1,.24-.79A11.44,11.44,0,0,1,182.57,59.39Z"/><path class="cls-1" d="M209.74,66.12a12.52,12.52,0,0,1-4.31,1.1c-.05,0-.07,0-.07.07.36,2.29.4,2.69.75,4.95.2.82-1.1,1-1.21.2v0c-.35-2.77-.7-5-1.14-8,0,0,0-.07,0-.07l-2.83.22a.39.39,0,0,1-.07-.77l2.77-.2s.07,0,.07-.06c-.05-.46-.16-1-.2-1.32,0,0-.18-1.17-.31-1.9a.6.6,0,0,1,1.19-.21l.48,3.34s0,0,.07,0l6.71-.52a.67.67,0,0,1,.53,1A9.15,9.15,0,0,1,209.74,66.12Zm1-2.17c.05-.07,0-.14-.09-.14l-5.63.44s-.09,0-.06.07c.06.75.24,1.54.33,2.29,0,0,0,.06.06.06l.77-.11C208,66.19,209.81,65.49,210.73,64Z"/><path class="cls-1" d="M225.67,66.45c-1,2.27-3,3.86-4.91,5.35a.4.4,0,0,1-.53-.59c1.54-1.43,3.5-3,4.25-5.06a19.25,19.25,0,0,0,1-6.47.74.74,0,1,1,1.47,0A16.7,16.7,0,0,1,225.67,66.45Zm4.82,3.7a.83.83,0,0,1-.93-.77V58.05a.73.73,0,0,1,1.46,0V68.32a.21.21,0,0,0,.26.22c3.06-.7,5.08-4,6.84-6.4.29-.39.84.07.62.44C236.74,65.68,234.51,69.71,230.49,70.15Z"/><path class="cls-1" d="M257.64,67.33c-.51-.5-.93-1.1-1.46-1.6a12.37,12.37,0,0,0-1.49-1.28.12.12,0,0,0-.14,0c-2.42,3.3-6,5.42-9.54,7.38a.38.38,0,0,1-.38-.66c3.32-1.94,6.73-4.1,9-7.38,0,0,0-.11-.05-.13A51.23,51.23,0,0,0,248.66,61c-.44-.22-.09-.86.33-.71a52.14,52.14,0,0,1,5.15,2.49c0,.05.08,0,.11,0A12.87,12.87,0,0,0,256,57.19c0-.37,0-.46,0-.77a.76.76,0,0,1,1.51,0v0c0,.27,0,.33,0,.79a15.52,15.52,0,0,1-2.2,6.21.1.1,0,0,0,.05.13,20.68,20.68,0,0,1,3.36,2.77C259.33,67,258.27,68,257.64,67.33Z"/><path class="cls-1" d="M273.08,60.93a.7.7,0,0,1,.06,1,.72.72,0,0,1-1,.07c-.53-.48-1-1-1.56-1.5s-1.41-1-2.13-1.43a.36.36,0,0,1,.33-.64A15.44,15.44,0,0,1,273.08,60.93Zm1.21,7.39a12.62,12.62,0,0,0,4.07-2.75,37.13,37.13,0,0,0,4.82-6.4c.24-.4.86,0,.64.38A32.21,32.21,0,0,1,278.73,67a12.62,12.62,0,0,1-8.36,3.63c-1,0-1.05-1.5-.09-1.5A10.44,10.44,0,0,0,274.29,68.32Z"/><path class="cls-1" d="M294.15,66.32a49.22,49.22,0,0,1-5,3.83c-.37.26-.79-.29-.44-.62a52.12,52.12,0,0,0,4.47-3.82,7.32,7.32,0,0,0,2.39-5.46.76.76,0,0,1,1.52,0A8.22,8.22,0,0,1,294.15,66.32Zm10.72-3.12a17.89,17.89,0,0,1,2.84,5.06.78.78,0,0,1-1.45.57c-.25-.62-.38-1.25-.64-1.87a15.84,15.84,0,0,0-1.39-2.64,20.78,20.78,0,0,0-4-4.36.37.37,0,0,1,.46-.59A21.55,21.55,0,0,1,304.87,63.2Zm.79-3.24c0,.64-.55.77-.88.33A7,7,0,0,0,301.92,58a.25.25,0,0,1,.11-.48C302.45,57.45,305.6,58.25,305.66,60Zm1.87-1.62c.07.61-.5.79-.83.33a7.14,7.14,0,0,0-3-2.16.26.26,0,0,1,.06-.51C304.23,56,307.38,56.6,307.53,58.34Z"/><path class="cls-1" d="M314.33,64.43a.55.55,0,0,1,0-1.1h12.5a2.26,2.26,0,0,0,2.13-1,.54.54,0,0,1,1,.4,3.31,3.31,0,0,1-3.14,1.67Z"/><path class="cls-1" d="M352.1,70.33a11.25,11.25,0,0,0-6.05-4.51.11.11,0,0,0-.15,0,16.43,16.43,0,0,1-1.32,1,39.36,39.36,0,0,1-8.43,4.29c-.61.2-.77-.53-.28-.73,1.07-.41,2.09-1,3.1-1.45a32.72,32.72,0,0,0,4.71-2.84c2.33-1.71,4.24-3.82,4.49-6.82a.23.23,0,0,0-.25-.26H340.6a.45.45,0,0,1-.44-.46.46.46,0,0,1,.44-.47h7.59l.83,0a.76.76,0,0,1,.71.79v0a9.38,9.38,0,0,1-2.93,6.08s0,.08,0,.11a12.61,12.61,0,0,1,6.45,4.24A.75.75,0,0,1,352.1,70.33Zm.8-11.86c-.07.63-.62.72-.91.24a7.16,7.16,0,0,0-2.64-2.6.25.25,0,0,1,.16-.46C349.93,55.67,353,56.75,352.9,58.47Zm2-1.45c0,.63-.59.74-.88.26a7.12,7.12,0,0,0-2.75-2.44.26.26,0,0,1,.11-.49C351.84,54.37,354.92,55.28,354.92,57Z"/><path class="cls-1" d="M374.08,58.11a.68.68,0,0,1,.68.73v0c-.19,3.63-2.31,6.42-5,8.47a39.15,39.15,0,0,1-8.33,4.49c-.44.19-.71-.49-.31-.69a34.61,34.61,0,0,0,7.76-4.57c2.45-2,4.1-4.34,4.34-7.29a.27.27,0,0,0-.26-.28h-5.13a.14.14,0,0,0-.13.08c-1.26,3-4.67,4.69-7.15,6.17-.42.26-.75-.36-.4-.62,2.44-1.67,5.21-3.3,6.27-5.94a6.09,6.09,0,0,0,.24-2.44c0-1,1.37-.91,1.43-.05a12.22,12.22,0,0,1-.11,1.81.1.1,0,0,0,.09.08Z"/><path class="cls-1" d="M396.3,60.62a.76.76,0,0,1,.73.8c-.29,5.52-6,8.62-10.19,11-.4.24-.77-.37-.4-.64,3.48-2.2,8.81-5.23,9-9.92a.28.28,0,0,0-.26-.28h-9.44a.46.46,0,1,1,0-.91Zm-1.16-3.56a.45.45,0,1,0,0-.9h-7.77a.45.45,0,1,0,0,.9Z"/><path class="cls-1" d="M419.86,58.11a.74.74,0,0,1,.71.8v0a11.56,11.56,0,0,1-4,7.85,30.1,30.1,0,0,1-8.1,5.07.38.38,0,0,1-.33-.69,27.33,27.33,0,0,0,7.07-4.75,13.42,13.42,0,0,0,2.9-3.83,8.54,8.54,0,0,0,.82-3.3.25.25,0,0,0-.25-.26h-9.79a.46.46,0,0,1,0-.91Zm2.78-.48c-.07.64-.62.73-.91.24a7.05,7.05,0,0,0-2.64-2.59.25.25,0,0,1,.16-.47C419.67,54.84,422.72,55.91,422.64,57.63Zm2-1.45c0,.64-.59.75-.88.26A7.29,7.29,0,0,0,421,54a.25.25,0,0,1,.11-.48C421.58,53.54,424.66,54.44,424.66,56.18Z"/></g></g></svg>