<svg xmlns="http://www.w3.org/2000/svg" width="592.198" height="745" viewBox="0 0 592.198 745">
  <path id="パス_323" data-name="パス 323" d="M572.413,261.043c-.967,1.934-24.177,46.42-101.545,46.42H432.184c-1.934,0-4.835-.967-4.835-3.868-35.782-93.808-58.993-180.846-58.993-266.917v-.967c-5.8-38.684-61.894-33.848-59.96,3.868.967,7.737,1.934,21.276,1.934,21.276,5.8,81.236,26.111,161.5,56.091,242.74,0,1.934-.967,3.868-2.9,3.868H173c-2.9,0-4.835-3.868-.967-5.8,54.157-21.276,116.051-49.322,118.952-104.446,5.8-110.249-169.241-101.545-243.707-96.709-33.848,1.934-29.013,54.157,3.868,51.256,75.433-4.835,164.406-16.441,196.32,25.144C297.759,241.7,97.571,298.76,67.591,306.5c-10.638,2.9-22.243,6.77-22.243,21.276,0,10.638,9.671,19.342,20.309,19.342H378.994c1.934,0,3.868,1.934,4.835,3.868,9.671,23.21,19.342,46.42,29.98,70.6,14.506,29.98,25.144,56.091,27.079,60.927,4.835,17.408-9.671,25.144-43.519,16.441C308.4,473.8,210.72,451.561,122.715,475.738,56.953,494.113,7.631,551.171,20.2,617.9c15.473,88.005,121.854,117.985,192.451,129.59,69.631,7.737,139.261,9.671,218.563-.967h.967c38.684-4.835,32.881-66.729-6.77-61.894-72.532,10.638-144.1,11.605-205.023,4.835-54.157-4.835-136.36-21.276-152.8-80.269-10.638-48.355,29.98-81.236,66.729-95.742,60.927-22.243,134.426-8.7,192.451,6.77,36.75,9.671,72.532,25.144,111.216,28.046,20.309,0,38.684-6.77,50.289-21.276C517.288,486.376,480.539,426.416,467,398.37a410.836,410.836,0,0,1-20.309-47.387c-.967-1.934,0-3.868,21.276-3.868,108.314-1.934,139.261-65.762,140.228-68.664C619.8,255.241,583.051,238.8,572.413,261.043Z" transform="translate(-18.237 -8.902)" fill="#fff"/>
</svg>
