<svg xmlns="http://www.w3.org/2000/svg" width="583.443" height="733.987" viewBox="0 0 583.443 733.987">
  <path id="パス_325" data-name="パス 325" d="M564.221,257.316c-.953,1.906-23.82,45.734-100.044,45.734H426.065c-1.906,0-4.764-.953-4.764-3.811-35.253-92.421-58.121-178.173-58.121-262.972v-.953C357.464-2.8,302.2,1.967,304.107,39.126c.953,7.622,1.906,20.961,1.906,20.961,5.717,80.035,25.725,159.117,55.262,239.152,0,1.906-.953,3.811-2.858,3.811h-187.7c-2.858,0-4.764-3.811-.953-5.717,53.357-20.961,114.336-48.593,117.194-102.9,5.717-108.619-166.739-100.044-240.1-95.28-33.348,1.906-28.584,53.357,3.811,50.5,74.318-4.764,161.975-16.2,193.418,24.773C293.627,238.26,96.4,294.475,66.861,302.1c-10.481,2.858-21.914,6.67-21.914,20.962,0,10.481,9.528,19.056,20.009,19.056H373.661c1.906,0,3.811,1.906,4.764,3.811,9.528,22.867,19.056,45.734,29.537,69.554,14.292,29.537,24.773,55.262,26.678,60.026,4.764,17.15-9.528,24.773-42.876,16.2-87.657-24.773-183.89-46.687-270.594-22.867-64.79,18.1-113.383,74.318-101,140.061,15.245,86.7,120.052,116.241,189.606,127.675,68.6,7.622,137.2,9.528,215.332-.953h.953c38.112-4.764,32.395-65.743-6.67-60.979-71.46,10.481-141.967,11.434-201.993,4.764-53.357-4.764-134.344-20.961-150.542-79.082C56.38,552.683,96.4,520.288,132.6,506c60.026-21.914,132.439-8.575,189.606,6.669,36.206,9.528,71.46,24.773,109.572,27.631,20.009,0,38.112-6.67,49.545-20.961,28.584-40.017-7.622-99.091-20.961-126.722a404.757,404.757,0,0,1-20.009-46.687c-.953-1.906,0-3.811,20.962-3.811,106.713-1.906,137.2-64.79,138.155-67.649C610.908,251.6,574.7,235.4,564.221,257.316Z" transform="translate(-18.237 -8.902)" fill="#7dd7cb" opacity="0.996"/>
</svg>
