<svg xmlns="http://www.w3.org/2000/svg" viewBox="0 0 1028.36 1028.36"><defs><style>.cls-1,.cls-2{fill:none;}.cls-2{stroke:#7dd7cb;stroke-miterlimit:10;stroke-width:20.59px;}.cls-3{fill:#7dd7cb;}</style></defs><g id="レイヤー_2" data-name="レイヤー 2"><g id="レイヤー_1-2" data-name="レイヤー 1"><rect class="cls-1" width="1028.36" height="1028.36"/><line class="cls-2" x1="243.39" y1="254.79" x2="784.97" y2="254.79"/><line class="cls-2" x1="243.39" y1="376.12" x2="784.97" y2="376.12"/><line class="cls-2" x1="243.39" y1="514.18" x2="784.97" y2="514.18"/><path class="cls-3" d="M369.58,798.19V672L313.79,775.8h-4L253.45,671.25v79.12c0,21.07.19,37.2,2.28,47.82h-7.59c2.28-10.62,2.66-27.13,2.66-53.7V661h15l53.33,98.67c17.45-32.83,35.48-65.84,52.94-98.67h13.66V798.19Z"/><path class="cls-3" d="M448.14,795.92c18.4,0,45.16-.76,62.62-8.92l-2.09,11.19h-88.8V661H506l.57,10.25c-12.9-7.59-29.41-8-49.52-8H436v61.86h12.72c11.57,0,31.88-1.71,37.38-2.85v7.59c-5.5-1-25.81-2.47-37.38-2.47H436v68.51Z"/><path class="cls-3" d="M631.63,661h7.59c-2.09,9.49-2.66,30.36-2.66,48.2v91.65H634.1l-92.6-115V751.7c0,18.79.38,34.92,2.46,46.49h-7.59c2.85-11.76,2.28-37.57,2.47-46.49V682.63c-5.31-6.83-12-14.8-17.08-21.63h20.12l92,115.18V703.5C633.91,693.07,633.53,671.82,631.63,661Z"/><path class="cls-3" d="M774.51,661h6.84c-2.09,13.48-1.71,27.52-2.28,44.4v32.83c0,35.3-11.39,61.86-50.48,61.86-55.59,0-55-37.38-55-49.72V661H689.7v92.6c0,36.25,26.37,43.45,39.08,43.45,38.33,0,47.63-26.56,47.63-58.82V703.69C776.41,688.71,776.41,674.29,774.51,661Z"/></g></g></svg>