<?xml version="1.0" encoding="utf-8"?>
<!-- Generator: Adobe Illustrator 26.0.1, SVG Export Plug-In . SVG Version: 6.00 Build 0)  -->
<svg version="1.1" id="レイヤー_1" xmlns="http://www.w3.org/2000/svg" xmlns:xlink="http://www.w3.org/1999/xlink" x="0px"
	 y="0px" viewBox="0 0 233 233" style="enable-background:new 0 0 233 233;" xml:space="preserve">
<style type="text/css">
	.st0{fill:none;stroke:#7DD7CB;stroke-width:4.67;stroke-miterlimit:10;}
	.st1{fill:#7DD7CB;stroke:#7DD7CB;stroke-miterlimit:10;}
</style>
<g id="レイヤー_2_00000130637330604268393480000017730049448843284637_">
	<g id="レイヤー_1-2">
		<line class="st0" x1="55.2" y1="57.7" x2="177.9" y2="57.7"/>
		<line class="st0" x1="55.2" y1="85.2" x2="177.9" y2="85.2"/>
		<line class="st0" x1="55.2" y1="116.5" x2="177.9" y2="116.5"/>
		<path class="st1" d="M80.8,180.9v-28.6l-12.6,23.5h-0.9l-12.8-23.7V170c-0.1,3.6,0.1,7.2,0.5,10.8h-1.7c0.5-2.4,0.6-6.1,0.6-12.2
			v-18.9h3.4l12.1,22.4c4-7.4,8-14.9,12-22.4h3.1v31.1L80.8,180.9L80.8,180.9z"/>
		<path class="st1" d="M115.1,149.8h1.6c-0.4,3.3-0.5,6.7-0.5,10.1v7.4c0,8-2.6,14-11.4,14c-12.6,0-12.5-8.5-12.5-11.3v-20.2H96v21
			c0,8.2,6,9.8,8.8,9.8c8.7,0,10.8-6,10.8-13.3v-7.8C115.6,156.3,115.5,153,115.1,149.8z"/>
		<path class="st1" d="M145.8,149.8h1.7c-0.5,3.6-0.7,7.3-0.6,10.9v20.8h-0.6l-21-26.1v14.9c-0.1,3.5,0.1,7,0.6,10.5h-1.7
			c0.6-2.7,0.5-8.5,0.6-10.5v-15.7c-1.2-1.5-2.7-3.4-3.9-4.9h4.6l20.9,26.1v-16.5C146.4,156.2,146.2,153,145.8,149.8z"/>
		<path class="st1" d="M178.2,149.8h1.6c-0.4,3.3-0.5,6.7-0.5,10.1v7.4c0,8-2.6,14-11.4,14c-12.6,0-12.5-8.5-12.5-11.3v-20.2h3.6v21
			c0,8.2,6,9.8,8.9,9.8c8.7,0,10.8-6,10.8-13.3v-7.8C178.7,156.3,178.6,153,178.2,149.8z"/>
	</g>
</g>
</svg>
