<svg xmlns="http://www.w3.org/2000/svg" viewBox="0 0 233.03 233.03"><defs><style>.cls-1{fill:#8ddcd1;}.cls-2{fill:none;stroke:#fff;stroke-miterlimit:10;stroke-width:4.67px;}.cls-3{fill:#fff;}</style></defs><g id="レイヤー_2" data-name="レイヤー 2"><g id="レイヤー_1-2" data-name="レイヤー 1"><rect class="cls-1" width="233.03" height="233.03"/><line class="cls-2" x1="55.15" y1="57.74" x2="177.88" y2="57.74"/><line class="cls-2" x1="55.15" y1="85.23" x2="177.88" y2="85.23"/><line class="cls-2" x1="55.15" y1="116.52" x2="177.88" y2="116.52"/><path class="cls-3" d="M80.78,180.92V152.33L68.14,175.85h-.9l-12.77-23.7v17.93A65.92,65.92,0,0,0,55,180.92H53.26c.52-2.41.61-6.15.61-12.17V149.83h3.39l12.09,22.36c4-7.44,8-14.92,12-22.36h3.1v31.09Z"/><path class="cls-3" d="M115.1,149.83h1.55a86.81,86.81,0,0,0-.52,10.06v7.44c0,8-2.58,14-11.44,14-12.6,0-12.47-8.47-12.47-11.27V149.83h3.66v21c0,8.21,6,9.84,8.85,9.84,8.69,0,10.8-6,10.8-13.33v-7.82A70.06,70.06,0,0,0,115.1,149.83Z"/><path class="cls-3" d="M145.84,149.83h1.72a68.56,68.56,0,0,0-.6,10.92v20.77h-.56l-21-26.05v14.92a64.76,64.76,0,0,0,.56,10.53h-1.72c.64-2.67.51-8.51.56-10.53V154.73c-1.21-1.54-2.71-3.35-3.87-4.9h4.55l20.86,26.1V159.46A73.1,73.1,0,0,0,145.84,149.83Z"/><path class="cls-3" d="M178.22,149.83h1.55a89.1,89.1,0,0,0-.52,10.06v7.44c0,8-2.58,14-11.43,14-12.6,0-12.47-8.47-12.47-11.27V149.83H159v21c0,8.21,6,9.84,8.86,9.84,8.68,0,10.79-6,10.79-13.33v-7.82A70.06,70.06,0,0,0,178.22,149.83Z"/></g></g></svg>