<svg xmlns="http://www.w3.org/2000/svg" viewBox="0 0 557.22 744.04"><defs><style>.cls-1{fill:#8ddcd1;stroke:#8ddcd1;stroke-miterlimit:10;stroke-width:16px;}</style></defs><g id="レイヤー_2" data-name="レイヤー 2"><g id="contents"><path class="cls-1" d="M544.42,258.1c10.22-36.92,3.93-74.33-17.26-102.64-15.37-20.53-38.19-36-66-44.83-22.19-7-47.21-9.67-73-7.81-11.29-23.28-26.1-43.62-43.27-59.32-21.52-19.68-46.36-31.69-71.82-34.74-35.11-4.2-70.65,9.06-97.52,36.38-33.5,34.06-48.62,83.56-41.48,135.79s35.72,89.55,58.68,119.44c11.61,15.12,21.87,28.49,27.15,40.64l-209,362L57,729.58l23.27-40.29,75.92,43.83,26-45.09-41.5-24,21.84-37.83,41.5,24,26-45.08-75.92-43.84L266,367.63c13.16-1.49,29.88.7,48.77,3.2,37.37,4.93,83.88,11.08,132.78-8.9S531.67,304.15,544.42,258.1Zm-114.76,60c-37.26,15.22-73.57,10.42-108.68,5.79-20.44-2.7-40-5.27-58.45-3.49-7.69-16.88-19.69-32.53-32.24-48.87-21.58-28.09-43.88-57.14-49.33-97-5.14-37.61,5.19-72.67,28.34-96.21,16.5-16.79,37.7-25,58.15-22.56,32.41,3.87,63.87,33.17,82.1,76.46l8.91,21.15.07.54.15,0,.06.14.5-.21L382,151c46.6-5.86,87.7,6.74,107.26,32.86,12.35,16.49,15.82,39,9.54,61.65C490,277.29,464.8,303.77,429.66,318.12Z"/></g></g></svg>