<svg xmlns="http://www.w3.org/2000/svg" viewBox="0 0 342.3 459.35"><defs><style>.cls-1{fill:#8ddcd1;}</style></defs><g id="レイヤー_2" data-name="レイヤー 2"><g id="レイヤー_1-2" data-name="レイヤー 1"><path class="cls-1" d="M.06,311.07c0-32.11.08-64.22-.06-96.34,0-6.37,2.56-11.23,7.08-15.27,9.6-8.57,21.35-13.08,33.19-17.42,2.65-1,6.36-.9,7.72-3,1.25-2,.37-5.33.4-8.09.22-17.47-.09-35,.74-52.4,2.17-45.74,23.32-80.22,63-103.14C132,3.84,153.75-1,176.64.16,205.83,1.6,231.57,12,253.36,31.64c20.44,18.45,33.55,41.14,38.85,68.21a82.37,82.37,0,0,1,1.67,16.07c0,20,0,40.06-.06,60.09,0,2.21.5,3.26,2.83,4,11.53,3.57,22.74,7.94,32.87,14.7a41.29,41.29,0,0,1,8.1,7.1,18.16,18.16,0,0,1,4.61,12.46q-.09,95.87.07,191.72c0,8.9-3.47,15.43-10.06,20.81-8.74,7.15-18.92,11.56-29.45,15.2-25,8.65-51,12.54-77.27,15a560.61,560.61,0,0,1-66.58,2.16c-36.53-.9-72.8-4.14-108.17-14-12.34-3.45-24.36-7.78-35.29-14.66A40.64,40.64,0,0,1,3.93,420.19,20,20,0,0,1,0,408Q.12,359.56.06,311.07ZM240.12,141.68q0-9.54,0-19.07c0-21.81-8.82-39.66-25.27-53.53-24.39-20.59-55-21.89-81.14-3.57-17.36,12.17-28.56,28.64-30.55,50.07-1.56,16.76-.63,33.65-.74,50.48,0,2.29,1.31,1.58,2.49,1.42a496.37,496.37,0,0,1,56.19-4.56,462.85,462.85,0,0,1,76.24,4.35c2.49.36,2.84-.59,2.81-2.69C240.07,157,240.12,149.31,240.12,141.68ZM171,369.87c7,0,14-.08,21,.05,2.49,0,3.47-.19,2.92-3.23-3.16-17.45-6-35-9.1-52.43-.4-2.27.16-3.4,2.1-4.52a26.23,26.23,0,0,0,5.48-4.25,31.21,31.21,0,1,0-52.64-28.94,31,31,0,0,0,13.7,33.21c1.89,1.17,2.5,2.25,2.09,4.51-3.11,17.57-6,35.18-9.14,52.75-.4,2.25,0,2.94,2.34,2.9C156.78,369.79,163.88,369.87,171,369.87Z"/></g></g></svg>