<svg xmlns="http://www.w3.org/2000/svg" width="165.885" height="89.252" viewBox="0 0 165.885 89.252">
  <g id="グループ_153" data-name="グループ 153" transform="translate(8128 -986.748)">
    <g id="グループ_152" data-name="グループ 152" transform="translate(-8128 986.748)">
      <path id="パス_216" data-name="パス 216" d="M1973.74,1772.171l1.612-6.488-1.612-6.341-5.5-6.864-5.895-4.991-4.764-3.412-5.364-5.5-3.021-9.752,1.908-6.931,5.338-7.578,4.932-4.619,3.617-2.773,3.248-2.179,3.781-2,4.213-1.683,5.264-1.914,3.578-.995h5.889l3.093-.515,6.185-.428,5.307-2.3,7.955-3.3,7.032-1.9,10.381-2.041,11.023-1.026h10.986l9.349.459,9.411,1.924,14.384,4.173,8.306,1.712,7.858,3.9,6.427,5.17,4.019,6.879,1.531,6.649-1.531,7.114-2.734,5.761-4.767,4.411-8.131,2.627,3.225,2.25,1.961,4.732v4.34l-3.053,4.68-4.8,4.272-3.7,2.308-7.781,3.235-11.207,3.914-10.574,2.211-11.809,1.409h-12.267l-13.386-1.409-10.146-2.211-7.955-1.456-9.713-.977-7.463.977-5.848,1.456-4.716,1.1Z" transform="translate(-1948.98 -1685.449)" fill="#fff"/>
      <g id="グループ_53" data-name="グループ 53" transform="translate(0)">
        <path id="パス_127" data-name="パス 127" d="M1521.964,632.788c.065-.028.2.111.315.028a.636.636,0,0,0-.634-.251c-.037-.056.029-.084.052-.112-.193.028-.433.111-.386.306.221-.111.234-.028.48-.167C1521.936,632.621,1522.011,632.732,1521.964,632.788Z" transform="translate(-1389.611 -624.629)" fill="#202020"/>
        <path id="パス_128" data-name="パス 128" d="M1482.111,621.377c-.063,0-.116,0-.1.022C1482.074,621.406,1482.105,621.393,1482.111,621.377Z" transform="translate(-1365.7 -619.721)" fill="#202020"/>
        <path id="パス_129" data-name="パス 129" d="M1479.376,620.626l.087.023C1479.432,620.628,1479.4,620.615,1479.376,620.626Z" transform="translate(-1364.363 -619.386)" fill="#202020"/>
        <path id="パス_130" data-name="パス 130" d="M1497.41,624.581l-.218-.11C1497.162,624.526,1497.3,624.542,1497.41,624.581Z" transform="translate(-1373.418 -621.092)" fill="#202020"/>
        <path id="パス_131" data-name="パス 131" d="M1518.408,632.036a.372.372,0,0,0,.137,0l-.12-.021Z" transform="translate(-1388.327 -624.433)" fill="#202020"/>
        <path id="パス_132" data-name="パス 132" d="M1504.463,626.06l.07.02a.453.453,0,0,0,.077-.056Z" transform="translate(-1377.106 -621.78)" fill="#202020"/>
        <path id="パス_133" data-name="パス 133" d="M1509.346,627.7a.217.217,0,0,1,.173-.062.232.232,0,0,0,0-.115C1509.458,627.494,1509.391,627.637,1509.346,627.7Z" transform="translate(-1379.589 -622.441)" fill="#202020"/>
        <path id="パス_134" data-name="パス 134" d="M1354.5,641.444a.172.172,0,0,0-.012-.025C1354.48,641.441,1354.48,641.453,1354.5,641.444Z" transform="translate(-1300.947 -628.601)" fill="#202020"/>
        <path id="パス_135" data-name="パス 135" d="M1348.3,642.8l.039-.028a.57.57,0,0,0-.031-.082Z" transform="translate(-1297.808 -629.166)" fill="#202020"/>
        <path id="パス_136" data-name="パス 136" d="M1474.473,619.666l.012,0C1474.559,619.661,1474.518,619.659,1474.473,619.666Z" transform="translate(-1361.871 -618.961)" fill="#202020"/>
        <path id="パス_137" data-name="パス 137" d="M1428.644,619.056c.3.115-.452.217-.007.336C1428.592,619.335,1429.011,619.117,1428.644,619.056Z" transform="translate(-1338.541 -618.692)" fill="#202020"/>
        <path id="パス_138" data-name="パス 138" d="M1463.015,618.749a.2.2,0,0,0,.06.073C1463.074,618.806,1463.061,618.785,1463.015,618.749Z" transform="translate(-1356.054 -618.556)" fill="#202020"/>
        <path id="パス_139" data-name="パス 139" d="M1458.424,618.812a.292.292,0,0,0-.172-.024.114.114,0,0,0,.026.021A.153.153,0,0,1,1458.424,618.812Z" transform="translate(-1353.644 -618.571)" fill="#202020"/>
        <path id="パス_140" data-name="パス 140" d="M1453.946,618.7a.413.413,0,0,0,.046.032l.082-.007Z" transform="translate(-1351.454 -618.534)" fill="#202020"/>
        <path id="パス_141" data-name="パス 141" d="M1367.027,635.711a.447.447,0,0,1-.161-.086C1366.944,635.714,1366.613,635.893,1367.027,635.711Z" transform="translate(-1307.216 -626.034)" fill="#202020"/>
        <path id="パス_142" data-name="パス 142" d="M1518.383,631.906a.1.1,0,0,1-.094.039l.083.019C1518.387,631.945,1518.4,631.925,1518.383,631.906Z" transform="translate(-1388.274 -624.386)" fill="#202020"/>
        <path id="パス_143" data-name="パス 143" d="M1457.947,621l-.4-.052A3.174,3.174,0,0,0,1457.947,621Z" transform="translate(-1353.301 -619.529)" fill="#202020"/>
        <path id="パス_144" data-name="パス 144" d="M1455.17,620.854a.616.616,0,0,0-.224-.112.158.158,0,0,0-.048.039Z" transform="translate(-1351.948 -619.439)" fill="#202020"/>
        <path id="パス_145" data-name="パス 145" d="M1348.452,631.868l-.2.145c.078.25.033.566.647.473l.3-.318.176.055-.308.156c.23.021.3-.126.389-.25a.278.278,0,0,0,.217.05l.254-.4c.089.07-.074.258.195.192.12-.185-.264-.126-.015-.329.23.021.22.131.384-.058.058.046.033.105-.037.172.151-.161.476-.265.511-.435.248.043.61-.333.7-.1a1.3,1.3,0,0,1,.41-.421c-.186.415.645-.289.695.036.119-.35.781-.5,1.129-.832-.014.03-.042.09-.083.1a1.377,1.377,0,0,1,.508-.069c-.059-.212.287-.409.431-.614.373.073-.072.307.1.454-.086-.156.429-.368.272-.463.272.028.215-.021.4.1-.069-.267.187-.127.3-.357.372-.008.182.2.5-.02.2.008-.075.226-.075.226.357-.143.089-.255.119-.395.4-.23.256.058.441.1.244-.16.376-.419.577-.493.027.025.071.021.042.078.219-.268.83-.352,1.082-.678a.117.117,0,0,1,.061.029.446.446,0,0,1-.154-.242c.159-.07.25-.244.36-.144-.1.037-.088.091-.119.149l.146-.124c.222.117-.2.157-.152.29a3.6,3.6,0,0,1,.9-.554c.12.155-.564.3-.168.32l-.414.093c.4.155-.243.078.145.263.531-.155.53-.336,1.067-.473.079-.139-.094-.132-.014-.271.672-.437.747.241,1.2-.187.1-.168.069-.411.5-.429l-.059.247c.51-.158.183-.39.76-.441-.066.112-.372.206-.288.2.4.038.2-.2.464-.292l.117.159c.526-.217,1.072-.555,1.656-.8-.015.065-.1.157.06.163a6.557,6.557,0,0,1,1.167-.422c.41-.1.829-.154,1.212-.211l.232-.238c.066-.018.143.035.081.086.3-.025-.016-.1.1-.206.16-.059.243.027.154.1a4.555,4.555,0,0,1,1.936-.7l-.09.077c.433-.058.376-.46.8-.427l-.066.05a9.573,9.573,0,0,1,2.639-.552c.074-.26.929-.114.908-.447a4.169,4.169,0,0,0,1.185.056c.2-.032.245-.269.479-.361l.046.166.288-.254.221.158.218-.1c-.093.012-.21-.029-.207-.081a1.139,1.139,0,0,1,.92-.007l.809-.343c0,.072-.14.129-.242.2.411-.278.119.157.5-.1-.064-.025.008-.108.01-.144a2.406,2.406,0,0,0,1.039-.133l-.043.129c.635-.088,1.315-.3,2.022-.431-.263-.007-.244-.219-.039-.277l.116.163c.113-.135-.229-.027.021-.213.268-.028.215.17.074.256l.31-.121c.029.05-.042.092-.049.164.112-.136.586.076.741-.151l.027.049c.706-.13,1.015-.25,1.588-.366-.014-.156.217-.164.369-.321a9.519,9.519,0,0,0,1.438-.031c.35-.125.086-.145.236-.259.047.138.558.056.306.193a10.838,10.838,0,0,0,1.549-.352c-.092-.047-.191-.059-.148-.114.139-.042.33.016.318.087l-.036.019c.853-.325,2.068.134,2.733-.237l-.038.018.711-.214c.337,0-.19.123.066.19.761-.3,1.241-.067,1.873-.278.533.378,1.771-.176,2.464.037l-.045-.1c.168-.111.214.039.344.051-.023-.075-.194-.074-.09-.136a9.961,9.961,0,0,1,2.273-.072c.771.038,1.547.1,2.305.122.555.01.3-.522,1.009-.308l-.2.19a8.027,8.027,0,0,1,1.7-.154,9.431,9.431,0,0,0,1.686-.044c-.066.041-.068.1-.176.094.231.138.857.023.862-.086.171.016.039.1.143.157.231.083.586-.159.707-.024.021.022-.066.042-.109.052.153-.062.7.03.563-.127.41.081.79-.054,1.116.044.22-.168.7.1.779-.146-.04.254.713.208.979.121-.091.07.222.095.115.193.3.018.57-.01.526-.143.529.339,1.113-.165,1.4.242.889-.073,1.712-.108,2.51-.111-.05.248-.879-.036-.865.229a7.925,7.925,0,0,1,1.953-.123c.19.048-.12.1-.189.139.761-.057,1.443.187,2.124.121,0,.023-.079.04-.149.05.132.008.3.073.3-.041l-.131.015c-.192-.191.56-.281.594-.365-.26.3.649.162.247.53.089-.011.2-.051.193-.13.125.038.16.087.021.158.477,0,.325-.145.75-.091-.008.055-.1.065-.149.125a1.247,1.247,0,0,1,.813-.071c-.026.031.01.079-.1.065a8.144,8.144,0,0,1,1.757.03c-.234.213.22.106.226.316.125-.008.248-.008.371-.007l-.13-.125c.316.059.62-.042.882.073l-.248.044.6.064-.324-.136c.338-.05.007-.266.421-.135-.089.005.318.058.463.208h0a.856.856,0,0,1,.568.013c.05.076-.087.218-.055.269.184-.144.751.082.979-.066a.15.15,0,0,0-.078.164l.155-.116c.139.07.156.1.118.177.438.1-.094-.285.411-.081-.043,0-.027.028-.117.034.516.15,1.035.09,1.507.243.1.23-.433-.024-.3.178.352.042.726.044,1.094.056a4.774,4.774,0,0,1,1.056.169l-.12-.051c.154-.267.468.257.835.2-.087,0-.143.135-.114.109a8.052,8.052,0,0,0,1.666.212l-.1.054a10.066,10.066,0,0,0,.985.3c.1-.054.268,0,.193-.134.792.635,1.779.144,2.472.738-.094-.026-.241,0-.166.021l.687.124c-.019-.139-.067-.1-.183-.237a.787.787,0,0,1,.476-.005c-.324,0-.051.2.06.307-.012-.044.044-.074.044-.115.29.321.127-.233.565.053l-.043.058a1.923,1.923,0,0,1,.565.053c.04.166-.209.012-.255.126.273.069.612-.118.817.095-.127.007-.293-.04-.419-.033a.817.817,0,0,0,.453.294l-.018-.01.436.207-.1-.079c.448-.276.71.129,1.241.017-.515.1-.114.112-.2.264.1.078.265.179.2.21.255-.069.328.2.691.1,0,.056.229.071.14.187.293.04-.038-.109.005-.168.492-.064.933.55,1.625.511.56.082.716-.057,1.236.026.138.139-.2.141-.2.141a1.382,1.382,0,0,0,.718.25c-.066.027-.027.084.03.168.206.056.2-.14.439.027a.809.809,0,0,1-.273.136c.254.035.522.02.784.058.033.112-.2.084-.3.113.29.055.744.166.88.055l-.159-.111c.1.028.008.139-.075.139-.277.029-.324-.167-.32-.223l.187.027c-.073-.362-.722-.195-1.068-.333l.223-.168-.425.056c-.057-.083-.068-.224.117-.2-.216-.2-.25,0-.427-.2-.018-.027,0-.034.022-.035l-.27-.021c.065-.029.011-.169.153-.085-.4-.281-.773-.083-.885-.307h.041c-.642-.139-.113.141-.637.171l-.183-.507-.113.141c-.062-.028-.184-.083-.14-.14-.273.03.018.085-.153.142-.257-.264-.874-.2-.864-.476-.15.091.268.181-.091.171-.009-.305-.4-.062-.645-.271.131-.119.378.035.132-.175-.246.194-.539-.212-.794-.234-.069.191-.546-.068-.968-.119a7.526,7.526,0,0,0-1.085-.5l.02-.03c-.128.177-.5.029-.8-.011.043-.115.106-.147.273-.156l-.266-.075a.506.506,0,0,1-.349.028l.106-.129a4.709,4.709,0,0,1-1.188-.249c-.061.133.267.468-.242.45,0-.079.015-.211.15-.213a.4.4,0,0,1-.24-.023l.226-.081c-.2-.1-.136.08-.3.03.03-.106-.1-.1-.06-.184.046,0,.135.078.21.051a.967.967,0,0,1-.452-.276c0,.064-.036.144-.178.126-.36-.075-.091-.156-.286-.259-.1.055-.315-.075-.359.083-.1-.025-.106-.1-.136-.156-.2.028-.87-.178-.7.04l.045.022h-.032a13.01,13.01,0,0,1-1.856-.449l.012-.053a5.649,5.649,0,0,0-1.088-.09c-.106-.025-.23-.156-.172-.209a1.432,1.432,0,0,1-.707-.14c.3-.043-.078-.106.3-.013a1.189,1.189,0,0,0-.832-.136c.159-.115-.238-.222-.418-.21l.234.144a3,3,0,0,1-.532-.1l.127-.166c-.7-.351-1.4.145-1.9-.325-.217.094.387.16.185.279-.335-.084-.644-.408-.751-.427-.45-.183-.48.191-.955.036.052.076.082.261-.291.259-.335-.083-.375-.347-.151-.362.083.009.119.036.111.058.114,0,.262-.007.139-.1l-.055.057c-.158-.1-.627-.171-.5-.259-.267.017-.126.088.059.155a7.5,7.5,0,0,0-1.124-.245c.067.044.121.13.05.12-.652-.162-.31.089-.764.062-.242-.131.125-.227-.34-.2-.267-.1-.035-.181.083-.221a2.062,2.062,0,0,1-.995-.229l.224-.026a1.345,1.345,0,0,1-.35-.012l.108.146c-.125-.038-.233-.052-.224-.106-.143.07.073.231-.2.316-.162-.087-.527.009-.564-.173.528.124-.038-.182.419-.155a.815.815,0,0,1-.323-.042c-.017-.022.023-.034.059-.04-.495-.218-.259.168-.79.1.079-.09-.1-.2-.191-.191.214.028.083.177-.121.228-.332-.118-.376.012-.553-.018l.2.061c-.08.09-.248.056-.488.058-.012-.079.221-.027.14-.071-.281.141-.576-.251-.956-.18-.163-.087,0-.187-.143-.25-.425.081-.436-.172-.881-.1.114.141.139.11-.179.218l.723-.043-.476.16c.215.017.462-.051.59-.02-.229.093-.2.061-.11.178-.277-.219-.595.075-.923-.083l.039-.327c-.5-.182-.926.1-1.585-.025l.21.072c-.1.124-.413-.011-.632.027.028-.108-.1-.157-.192-.232.006.082-.487-.042-.562.173l-.289-.165c-.534-.1-.632.27-1.146.2.162-.109-.068-.2.282-.264-.173-.013-.327-.044-.334.032-.1-.076-.486.114-.639,0-.075.043-.1.156-.3.134-.02-.024,0-.055,0-.055,0,.051-.306.061-.143.188-.518-.353-1.487,0-1.941-.307-.378.029-.834.056-1.176.058.023-.032,0-.055.067-.042-.471-.111-.3.31-.831.186-.272-.183.287-.091.116-.162-.069-.363-.649.037-1.009-.181l.088-.02c-.277-.129-.676.124-1.128.09,0,0,.022-.032,0-.055a4.854,4.854,0,0,1-1.325.315c.133-.146.2-.081.112-.222-.194.027.06.229-.328.282-.127-.073-.408-.133-.448-.285l.366-.02c-.191-.193-.475.022-.669-.007l.023-.087c-.562.046-.564.265-1.168.268l.065.063c-.323.227-.281-.113-.6.058l-.107-.217a9.638,9.638,0,0,1-1.142.29,4.124,4.124,0,0,1,.947-.374,1.978,1.978,0,0,0-.842.151c.086-.024.193-.081.281-.05a1.837,1.837,0,0,1-1.031.287c.055-.428-1.126-.079-1.456-.365a14.757,14.757,0,0,1-2.4.155c.34.3-.258.031-.176.365-.2.038-.28.04-.3.02l.044.01-.046-.012h0l-.641-.151c-.157-.086.189-.091.164-.165-.454.011-.2-.128-.51-.194.073.116-.141.187-.4.161l.378.126c-.614.233-.574-.24-1.193-.008l.19-.123c-.321.083-1.207.1-1.493.428-.062-.031-.149-.114-.008-.158a15.557,15.557,0,0,1-2.317.433l.048-.09c-.142.043-.231.189-.424.13.005-.035.047-.09-.021-.086a1.216,1.216,0,0,1-.563.173l.151-.115c-.774-.007-1.13.381-1.755.522-.035-.238-.645-.251-.946-.232l.005-.036a13.811,13.811,0,0,0-2.246.721,14.765,14.765,0,0,0-2.56.21c.133.021.017.191-.121.242-.2-.013-.489.264-.5.038l.068-.008c-.187-.186-.568-.069-.87,0l.012.3c-.879-.229-2.026.647-2.542.376-.173.117-.408.173-.579.289l-.027-.156a9.185,9.185,0,0,0-1.446.323l.105-.141c-.37.078-.351.551-.686.641l-.161-.2a5.183,5.183,0,0,0-1.9.537.141.141,0,0,1,.1-.146c-.3.082-1.195.186-1,.464-.066-.2-.658.173-.972.362l.009-.165a1.2,1.2,0,0,1-.61.5c-.1.008-.119-.095.019-.094-.34.016-.2.213-.612.247l.114-.137c-.33.085-.289.128-.433.291-.186.12-.629.145-.72.025a.428.428,0,0,1-.366.275c-.042-.043.018-.1.048-.121-.578.06-.743.444-1.162.423a.11.11,0,0,0-.091-.066,7.162,7.162,0,0,1,.744-.237c-.044-.136-.4-.038-.184-.323a2.6,2.6,0,0,1-1,.644.173.173,0,0,1-.06-.031l.03-.027a.435.435,0,0,0-.205.1,1.477,1.477,0,0,0-.292.057c-.078-.1-.416.079-.59.134.066.143-.168.2.086.246-.031,0,.026-.029.138-.075a.322.322,0,0,0,.068-.041l-.007.017.423-.16a.514.514,0,0,1-.448.221c-.055.126-.118.258-.156.323-.306-.124-.8-.076-.906-.18-.495.267-1.217.49-1.443.882-.136.088-.2-.019-.272-.042.076-.058.179-.09.211-.146-.271.175-.872.339-.87.556-.407.048.141-.257-.358-.032l.046-.087c-1.116.106-1.422,1.156-2.68,1.219.086-.007.129-.012.158.013a11.711,11.711,0,0,0-1.926.776,11.058,11.058,0,0,1-1.933.73c-.369.111-.352.248-.52.439l-.145-.117-.277.348c-.447.371-1.057.048-1.586.6l.132.062c-.24.091-.7.41-.721.275-.015.03-.024.142-.14.132l-.046-.075-.5.406c-.469.154-.087-.346-.738-.053-.225.145-.565.554-.448.563C1348.232,631.82,1348.4,631.793,1348.452,631.868Zm16.5-6.432c-.028.048.151.018.272.024-.089.024-.2.062-.312.1C1364.869,625.521,1364.879,625.459,1364.952,625.436Zm-.443.278v0l-.172.071Zm-1.164-.679-.007.023a.191.191,0,0,1,.02-.09c.107-.061.155-.046.181-.021C1363.486,624.969,1363.425,625,1363.345,625.035Z" transform="translate(-1304.689 -618.403)" fill="#707070"/>
        <path id="パス_146" data-name="パス 146" d="M1375.206,630.651a.3.3,0,0,1-.043.027.719.719,0,0,0,.08.009l.025-.06Z" transform="translate(-1311.45 -623.819)" fill="#202020"/>
        <path id="パス_147" data-name="パス 147" d="M1497.739,624.743a.1.1,0,0,1,.028.029c-.009-.009-.008-.014-.013-.022Z" transform="translate(-1373.682 -621.212)" fill="#202020"/>
        <path id="パス_148" data-name="パス 148" d="M1397.031,626.521l-.01-.038-.056.049Z" transform="translate(-1322.518 -621.983)" fill="#202020"/>
        <path id="パス_149" data-name="パス 149" d="M1507.931,628.476l.23.124A1.773,1.773,0,0,0,1507.931,628.476Z" transform="translate(-1378.874 -622.866)" fill="#202020"/>
        <path id="パス_150" data-name="パス 150" d="M1510.289,629.247a.188.188,0,0,0,.045-.056l0,0Z" transform="translate(-1380.055 -623.182)" fill="#202020"/>
        <path id="パス_151" data-name="パス 151" d="M1471.375,621.769a.291.291,0,0,0-.054,0C1471.193,621.785,1471.279,621.783,1471.375,621.769Z" transform="translate(-1360.243 -619.894)" fill="#202020"/>
        <path id="パス_152" data-name="パス 152" d="M1483.065,622.716a1.425,1.425,0,0,1-.22.036C1482.958,622.784,1483.047,622.8,1483.065,622.716Z" transform="translate(-1366.135 -620.314)" fill="#202020"/>
        <path id="パス_153" data-name="パス 153" d="M1458.312,621.043v0l-.045,0Z" transform="translate(-1353.642 -619.57)" fill="#202020"/>
        <path id="パス_154" data-name="パス 154" d="M1482.606,622.736a.921.921,0,0,0-.3-.055A.6.6,0,0,0,1482.606,622.736Z" transform="translate(-1365.868 -620.298)" fill="#202020"/>
        <path id="パス_155" data-name="パス 155" d="M1520.56,632.833a.038.038,0,0,1,.016-.021l-.077-.007Z" transform="translate(-1389.254 -624.784)" fill="#202020"/>
        <path id="パス_156" data-name="パス 156" d="M1520.637,632.812l.077.007C1520.682,632.808,1520.653,632.8,1520.637,632.812Z" transform="translate(-1389.315 -624.785)" fill="#202020"/>
        <path id="パス_157" data-name="パス 157" d="M1520.936,632.843l-.161-.013C1520.826,632.848,1520.887,632.874,1520.936,632.843Z" transform="translate(-1389.376 -624.796)" fill="#202020"/>
        <path id="パス_158" data-name="パス 158" d="M1516.467,631.3c.122.056.277.224.464.251l.031-.037C1516.852,631.568,1516.617,631.253,1516.467,631.3Z" transform="translate(-1387.467 -624.117)" fill="#202020"/>
        <path id="パス_159" data-name="パス 159" d="M1513.387,628.734c-.508-.362.077.161-.5-.047.148.054.29.124.434.189C1513.258,628.791,1513.18,628.678,1513.387,628.734Z" transform="translate(-1381.415 -622.923)" fill="#202020"/>
        <path id="パス_160" data-name="パス 160" d="M1510.326,627.792c.251.043.022-.085.045-.114C1510.2,627.687,1510.159,627.69,1510.326,627.792Z" transform="translate(-1380.036 -622.513)" fill="#202020"/>
        <path id="パス_161" data-name="パス 161" d="M1492.018,623.106l.054-.134C1491.878,622.948,1492.059,623.026,1492.018,623.106Z" transform="translate(-1370.763 -620.425)" fill="#202020"/>
        <path id="パス_162" data-name="パス 162" d="M1488.527,623.858l-.282-.007.169.119Z" transform="translate(-1368.882 -620.817)" fill="#202020"/>
        <path id="パス_163" data-name="パス 163" d="M1486.363,621.677l-.33-.005.243.011Z" transform="translate(-1367.763 -619.852)" fill="#202020"/>
        <path id="パス_164" data-name="パス 164" d="M1454.775,618.46l.054.177C1454.961,618.607,1455,618.411,1454.775,618.46Z" transform="translate(-1351.877 -618.425)" fill="#202020"/>
        <path id="パス_165" data-name="パス 165" d="M1440.68,618.716a.386.386,0,0,0-.433-.044A2.715,2.715,0,0,0,1440.68,618.716Z" transform="translate(-1344.519 -618.501)" fill="#202020"/>
        <path id="パス_166" data-name="パス 166" d="M1400.089,623.074l-.272.115.135-.022Z" transform="translate(-1323.977 -620.473)" fill="#202020"/>
        <path id="パス_167" data-name="パス 167" d="M1346.693,643.834l-.414.164.879-.007C1347.367,643.962,1347.259,643.837,1346.693,643.834Z" transform="translate(-1296.815 -629.671)" fill="#202020"/>
        <path id="パス_168" data-name="パス 168" d="M1339.149,643.636c.657-.181.816-.135,1.529-.324.568.006.987.108.889.17a7.551,7.551,0,0,0,1.187-.017,8.008,8.008,0,0,0-2.645-.14c-.209-.037-.006-.088.043-.123C1339.481,643.3,1338.717,643.474,1339.149,643.636Z" transform="translate(-1293.219 -629.392)" fill="#202020"/>
        <path id="パス_169" data-name="パス 169" d="M1255.667,686.484c-.065.074-.14.173-.221.285Z" transform="translate(-1250.036 -654.67)" fill="#202020"/>
        <path id="パス_170" data-name="パス 170" d="M1260.225,743.037c-.195-.178-.284-.246-.305-.243C1260.1,742.96,1260.258,743.087,1260.225,743.037Z" transform="translate(-1252.019 -684.663)" fill="#202020"/>
        <path id="パス_171" data-name="パス 171" d="M1267.742,750.1a1.369,1.369,0,0,0,.261.231Z" transform="translate(-1255.484 -688.553)" fill="#202020"/>
        <path id="パス_172" data-name="パス 172" d="M1255.007,687c-.194.241-.367.5-.551.746C1254.475,687.831,1254.742,687.361,1255.007,687Z" transform="translate(-1249.597 -654.97)" fill="#202020"/>
        <path id="パス_173" data-name="パス 173" d="M1327.433,644.741a4.7,4.7,0,0,0,.484-.12l-.458.087A.156.156,0,0,1,1327.433,644.741Z" transform="translate(-1287.226 -630.02)" fill="#202020"/>
        <path id="パス_174" data-name="パス 174" d="M1273.691,666.324l.216-.181a2,2,0,0,0,.133-.208Z" transform="translate(-1258.12 -643.728)" fill="#202020"/>
        <path id="パス_175" data-name="パス 175" d="M1290.578,655.256a1.73,1.73,0,0,1,.453-.377c-.011-.028-.057-.043-.157-.04C1290.64,654.964,1290.634,655.146,1290.578,655.256Z" transform="translate(-1265.603 -634.548)" fill="#202020"/>
        <path id="パス_176" data-name="パス 176" d="M1322.634,644.334l.321-.069Z" transform="translate(-1284.785 -629.862)" fill="#202020"/>
        <path id="パス_177" data-name="パス 177" d="M1262.7,677.051a.233.233,0,0,0-.115.042C1262.6,677.106,1262.647,677.087,1262.7,677.051Z" transform="translate(-1253.202 -649.633)" fill="#202020"/>
        <path id="パス_178" data-name="パス 178" d="M1544.571,640.727c.013-.006,0-.018.01-.026C1544.514,640.689,1544.491,640.692,1544.571,640.727Z" transform="translate(-1399.897 -628.281)" fill="#202020"/>
        <path id="パス_179" data-name="パス 179" d="M1521.617,633.862l.187.01a.176.176,0,0,0,.047-.084Z" transform="translate(-1389.749 -625.221)" fill="#202020"/>
        <path id="パス_180" data-name="パス 180" d="M1282.606,763.021l-.032-.035C1282.357,762.809,1282.475,762.914,1282.606,763.021Z" transform="translate(-1262.003 -695.354)" fill="#202020"/>
        <path id="パス_181" data-name="パス 181" d="M1417.762,803.524c-1.11-.229,1.834-.034.159-.323C1418.074,803.274,1416.371,803.323,1417.762,803.524Z" transform="translate(-1332.868 -717.346)" fill="#202020"/>
        <path id="パス_182" data-name="パス 182" d="M1326.523,644.878l-.468.071C1326.269,644.922,1326.413,644.9,1326.523,644.878Z" transform="translate(-1286.526 -630.134)" fill="#202020"/>
        <path id="パス_183" data-name="パス 183" d="M1294.909,801.089a1,1,0,0,0,.176-.179C1295.067,800.91,1295.024,800.95,1294.909,801.089Z" transform="translate(-1267.522 -716.331)" fill="#202020"/>
        <path id="パス_184" data-name="パス 184" d="M1290.6,771.033l.241.38C1290.754,771.259,1290.675,771.138,1290.6,771.033Z" transform="translate(-1265.615 -699.722)" fill="#202020"/>
        <path id="パス_185" data-name="パス 185" d="M1305.927,797.45a.889.889,0,0,0-.1.028,1.65,1.65,0,0,1-.311.176A3.066,3.066,0,0,0,1305.927,797.45Z" transform="translate(-1272.222 -714.798)" fill="#202020"/>
        <path id="パス_186" data-name="パス 186" d="M1321.482,792.309l-.185,0-.305.068Z" transform="translate(-1283.955 -712.52)" fill="#202020"/>
        <path id="パス_187" data-name="パス 187" d="M1579.519,677.125c-.073.171-.46-1.2-.03.468A2.535,2.535,0,0,1,1579.519,677.125Z" transform="translate(-1415.304 -649.516)" fill="#202020"/>
        <path id="パス_188" data-name="パス 188" d="M1327.179,644.681a.579.579,0,0,1-.283.11l.325-.056C1327.246,644.707,1327.25,644.685,1327.179,644.681Z" transform="translate(-1286.95 -630.047)" fill="#202020"/>
        <path id="パス_189" data-name="パス 189" d="M1304.819,795.122c.493-.228.972-.487,1.479-.678A15.7,15.7,0,0,0,1304.819,795.122Z" transform="translate(-1271.913 -713.466)" fill="#202020"/>
        <path id="パス_190" data-name="パス 190" d="M1534.711,776.89a1.789,1.789,0,0,0-.3.192Z" transform="translate(-1395.416 -705.688)" fill="#202020"/>
        <path id="パス_191" data-name="パス 191" d="M1315.6,791.327c.29-.036.6-.07.909-.127a1.145,1.145,0,0,0,.172-.084C1316.321,791.188,1315.954,791.236,1315.6,791.327Z" transform="translate(-1281.23 -711.992)" fill="#202020"/>
        <path id="パス_192" data-name="パス 192" d="M1336.588,643.494a.734.734,0,0,0-.182-.01Z" transform="translate(-1291.774 -629.516)" fill="#202020"/>
        <path id="パス_193" data-name="パス 193" d="M1410.885,653.32c-.124-.351-.243-.7-.4-1.057l-.214-.54c-.076-.181-.167-.358-.25-.544-.34-.736-.633-1.551-1.061-2.435a1.738,1.738,0,0,1,.168.432,20.439,20.439,0,0,0-4.03-5.55c-.8-.854-1.7-1.6-2.571-2.366l-1.364-1.072c-.439-.372-.93-.672-1.381-1.019a6.855,6.855,0,0,0-1.989-1.025l-.169-.258-.633-.262-.652-.224a11.847,11.847,0,0,1-1.232-.594c-.385-.213-.777-.394-1.176-.6a13.694,13.694,0,0,0-1.292-.6,15.036,15.036,0,0,0-1.6-.483l.267.19c-.207-.073-.474-.169-.762-.255l-.872-.232c-.549-.149-.972-.274-.886-.306a1.8,1.8,0,0,1-.628-.109l-.007-.076c-.72-.108-1.435-.228-2.152-.324-1.655-.307.32-.244-2.123-.632-.4-.025-.939-.034-1.4-.031a.122.122,0,0,0-.083-.045l-.058.047c-.539.008-.924.035-.745.077a2.718,2.718,0,0,1,.954.207l-.832-.039c-.171.2-.8.361,1.18.7.469,0,.941-.007,1.409.032l.429.171c-.389-.052-.775-.126-1.166-.161a5.518,5.518,0,0,0,1.557.179,1.711,1.711,0,0,0,.557.2c.467-.005.924.048,1.391.07.142.116-.64.034.248.271.652.042-.559-.312.5-.15a3.509,3.509,0,0,0,1.2.4c.09.082-.081.072-.386.013.688.131,1.793.44,2.164.472.616.333,2.241.729,2.084.918a13.915,13.915,0,0,1,1.792.551c-1.162-.275,2.139,1.039,1.727,1.14a9.79,9.79,0,0,1,1.865.872c.737.427,1.5.952,2.172,1.317a1.994,1.994,0,0,1-.343-.18,11.133,11.133,0,0,1,1.226,1.065c.1-.037.425.135.8.36.354.248.76.554,1.067.748.643.807-.626-.261-.505.075.035-.07.394.2.726.443s.6.5.534.328c.461.636.429.521.589.908.27-.046.556.479,1.061.9.619.937,0,.351.843,1.262.132.26.031.175-.109.03s-.341-.335-.341-.335c.4.476.5.587.563.573s.064-.131.182-.049c.885,1.205.277.638.482,1.1.3.362.533.695.756,1.005a8.256,8.256,0,0,1,.6.9c0,.057.054.178-.057.056a10.714,10.714,0,0,1,.876,1.744c.164.335.279.689.408,1.017s.24.639.36.9a.438.438,0,0,1,0,.152c.04-.2.122-.246.2-.224a3.2,3.2,0,0,1,.282,1.207,1.349,1.349,0,0,0-.19-.5l.172.558c-.059.538-.223-.763-.346-.738a13.058,13.058,0,0,1,.621,3.243c-.13.185-.239-2-.275-.847-.008-.443-.077-.881-.116-1.323-.1,1.038-.11-.8-.242.163a17.288,17.288,0,0,1,.284,3.645c.086.393.139-.126.226.27a4.987,4.987,0,0,1-.326,2.112,4.429,4.429,0,0,0-.392,1.594,3.161,3.161,0,0,1-.331,1.934l-.038-.472a6.25,6.25,0,0,0-.339,1.3,3.624,3.624,0,0,1-.52,1.313,6.163,6.163,0,0,1,.253-.715c.088-.248.155-.426.1-.31a2.83,2.83,0,0,0-.378.876,1.811,1.811,0,0,1-.224.725l-.236.1a20.273,20.273,0,0,1-3.233,4.894c.042-.114.236-.405-.125-.085a14.9,14.9,0,0,1-3.089,2.606,15.481,15.481,0,0,1-3.632,1.694c-.28.164-.58.282-.872.427-.217.066-.419.066-.194-.031-.972.2-.023.1-.471.265-.1.027-.35.083-.489.109a2.279,2.279,0,0,1-.354.037c-.149,0-.106-.04.222-.119l-1.278.268-.674.137-.344.069-.043.009c-.014,0-.036,0-.011.015l.082.052.164.1,1.326.843.353.23c.108.077.2.156.3.233l.215.171a1.491,1.491,0,0,1,.172.144,6.165,6.165,0,0,1,1.756,2.7l-.173-.292c.258.614.417.957.6,1.293a2.551,2.551,0,0,1,.209.548,2.6,2.6,0,0,1,.115.766l-.054-.236a11.878,11.878,0,0,1-.228,4.438,8.765,8.765,0,0,1-1.757,3.547,4.78,4.78,0,0,1-.968,1.365c-.478.539-.968,1.029-.939,1.188a14.615,14.615,0,0,1-1.3.961c-.344.222-.74.519-1.786,1.2-.558.363-.718.7-1.413,1.157l-.1-.108-.892.7-.623.146q-.332.207-.674.4c.284-.135.622-.256.6-.2a11.166,11.166,0,0,1-2.8,1.21c-.859.455-1.744.873-2.629,1.292a2.412,2.412,0,0,1,.562-.337c-.979.506-.162-.111-1.334.524.191-.046-.059.118-.076.157-.349.1-.9.312-1.5.561-.609.226-1.27.488-1.827.72l.177-.173c-2.036.784-4.306,1.624-6.641,2.385.431-.1.609-.109.6-.052s-.215.174-.559.283l-.328-.059c-.415.221.742-.162-.137.219-.888.247-.649.015-.16-.182l-1.053.369c-.077-.024.166-.121.212-.2-.41.215-1.889.417-2.478.741l-.075-.027c-2.384.6-3.437.977-5.4,1.393-.006.134-.78.275-1.34.505-.364.069-.737.14-1.122.2l-1.188.169c-.811.118-1.656.249-2.531.414-1.223.27-.34.168-.883.33-.113-.1-1.872.164-.973-.052l-2.475.39-2.9.411c.3.017.63,0,.464.06-.487.072-1.119.071-1.055.007l.128-.026c-.376.061-.767.121-1.17.158s-.817.057-1.237.077c-.838.04-1.7.061-2.536.082a36.948,36.948,0,0,0-4.485.148l.135-.017c-.835.057-1.672.087-2.51.133-1.156-.022.693-.088-.161-.162-.677.047-1.284.075-1.847.076s-1.083-.038-1.587-.064c-1.009-.062-1.958-.092-3.074-.108a25.283,25.283,0,0,0-3.974-.453,38.454,38.454,0,0,1-4.408-.565l.121.1a4.2,4.2,0,0,1-1.146-.238c.052.072.633.17.257.158-5.072-.576-10.307-2.026-15.449-3.121-1.888-.387-1.161.2-3.51-.428l.71-.027a81.5,81.5,0,0,0-11.757-1.2,2.121,2.121,0,0,1,.614-.057,10.349,10.349,0,0,0-3.02.071c-.6.005-.142-.078-.513-.114-.823-.031-2.039.248-2.479.194-.049-.007.062-.029.186-.051-.308.044-.786.091-1.18.136-.486.063-.839.136-.578.161a16.47,16.47,0,0,0-2.044.32c-.644.12-1.242.273-1.814.367a15.088,15.088,0,0,1-1.485.436,2.446,2.446,0,0,0-1.08.423c.015-.109-.608.035-1.321.3-.354.138-.734.3-1.075.448a8.021,8.021,0,0,0-.826.437c.247-.185-.749.275-.468.047-.941.451-1.74.971-1.526.965a8.547,8.547,0,0,0-1.706.989,10.268,10.268,0,0,0,.377-1.268,12.139,12.139,0,0,0,.2-3.986c.064.018.1.212.128.489a6.354,6.354,0,0,1,.035.995c0,.712-.115,1.395.018,1.354a10.961,10.961,0,0,0-.145-3.264,21.523,21.523,0,0,0-.791-3.119c-.183-.62.212.319.319.519a17.11,17.11,0,0,0-3.578-6.171,2.309,2.309,0,0,1,.354.338c-.286-.345-.641-.819-.69-.718.1.1.208.206.306.314.165.321-.164.011-.581-.345a8.224,8.224,0,0,0-.952-.788c.366.183,0-.236-.338-.6s-.637-.706-.072-.4c-.224-.2-.528-.416-.527-.324-.308-.308-.383-.428,0-.179a8.07,8.07,0,0,0-1.039-.8,9.752,9.752,0,0,1-.943-.727c.037-.031.274.143.428.2a20.2,20.2,0,0,1-2.2-1.588c.063.02.019-.051.158.046-1.615-1.226-2.944-1.922-4.672-3.344.672.257-.575-.525-.553-.732l-1-.721.328.37a26.245,26.245,0,0,1-2.3-1.841c.215.16.43.319.651.472-.515-.428-1.022-.865-1.511-1.317.256.276.516.548.785.814-.871-.662-.084.242-1.09-.768a13.955,13.955,0,0,1-1.066-1.223l0,0a7.521,7.521,0,0,1-1.288-1.341c-.08-.192.262.012.211-.114a6.37,6.37,0,0,1-1-1.137c-.2-.25-.38-.511-.542-.742a6.324,6.324,0,0,0-.436-.541c.139.17.236.13.213.063l-.322-.313c-.206-.437-.224-.505-.116-.471-.63-1.3-.018.511-.677-1.073.064.12.047.057.191.3a13.408,13.408,0,0,1-1.31-4.664c.071-.236.114.1.152.43s.121.642.145.375a15.865,15.865,0,0,1-.213-3.409,13.879,13.879,0,0,1,.608-3.343l-.128.39c-.19-.367.6-1.535.921-2.6-.084.261,0,.381,0,.3a36.431,36.431,0,0,1,2.461-4.816l-.105.272c.542-.728,1.4-1.931,2.041-2.68.138-.258.516-.679.214-.476a19.3,19.3,0,0,0,1.565-1.609l1.463-1.576.71-.776c.248-.246.506-.479.763-.712a17.219,17.219,0,0,1,1.607-1.3c-.245.215-.541.555-.348.383.275-.27.573-.517.874-.76l.9-.738c-.218.031-.284.138-.728.377a8.924,8.924,0,0,1,1.134-1.032c-.782.7.123.126.517-.1-.082.02.019-.1-.033-.1,1.132-.543.03-.286,1.493-1.133l-.038.1a11.93,11.93,0,0,1,1.519-1.1c.316-.041-.542.39-.512.5a18.359,18.359,0,0,1,2.28-1.509c-.327.238-.826.539-1.152.776a9.411,9.411,0,0,0,1.527-.765c.058-.029.118-.057.176-.086l.651-.3-.388.173c.332-.159.667-.315,1-.475l-.384.157a6.907,6.907,0,0,1,1.56-1.02,18.371,18.371,0,0,0,1.944-.992c-1.34.827-.183.21-.228.386.393-.135.98-.353.836-.244.636-.432,1.214-.394,2.144-.943.063.024.763-.289.646-.122.91-.389-.248.011-.193-.071a12.834,12.834,0,0,1,2.511-.844c.477-.125.965-.286,1.476-.418s1.032-.285,1.553-.474c.456-.14.817-.259,1.128-.369l.846-.257c.526-.163,1.038-.322,1.906-.531.6-.046-.451.256-.451.256.959-.144,1.685-.21,2.58-.4-.178.064.016.071.3.083.724-.1.46-.254,1.432-.268a7.213,7.213,0,0,1-.7.253c.848-.142,1.692-.265,2.58-.382.242.06-.529.16-.837.235l1.7-.192a5.827,5.827,0,0,0,1.19-.15l-.486-.025c.123.025-.026.1-.237.122a6.487,6.487,0,0,1-.947.05.806.806,0,0,1-.346-.071l.634-.078a4.861,4.861,0,0,0-1.689.05l-1.1.156c-.366.048-.718.131-1.036.165l.5-.262-1.283.336c-.285-.012-.493-.091.133-.206-.93.032-.8.178-1.6.182-.09,0-.052-.018.027-.037-.293.067-.583.151-.874.225.165-.074-.175-.1.375-.184a14.754,14.754,0,0,0-1.95.4,7.068,7.068,0,0,1-1.206.253l.128-.045c-2.154.623-.174.19-1.749.768-.4-.012-.8-.047-1.2-.036l-.164.2c-.222.065-.66.195-.6.115-.785.353.16.013-.283.251a14.042,14.042,0,0,0-1.892.574,3.423,3.423,0,0,1-1.288.368c-.327.242,1.021-.3-.051.189-.411-.093-1.268.5-2.223.841.226-.24,1.128-.576.157-.259a19.53,19.53,0,0,1-2.563,1.181c.024.083-.376.313-.936.611a20.676,20.676,0,0,0-1.877,1.048,35.116,35.116,0,0,0-3.462,2.008l.014-.045c-.1.29-1.265,1-2,1.656-.039-.1.074-.242.466-.607l-.732.572a5.33,5.33,0,0,1-.8.762l.1-.24c-.243.192-.48.391-.72.595s-.458.44-.7.667c-.478.46-1,.938-1.618,1.434.032.147,1.167-.614.019.574-.092,0-.219-.033.067-.36a4.956,4.956,0,0,1-.538.582l.384-.545c-.54.476-.194.328-.6.727-.063-.07-.348.257-.347.149a6.141,6.141,0,0,0,.507-.51,10.912,10.912,0,0,1-1.3,1.105c.081-.006.1.081-.225.425-.806.913-.366.241-.873.747-.142.264-.706.812-.6.911a1.385,1.385,0,0,1-.453.362l-.97,1.294c-.322.466-.535.8-.262.558l.1-.125-.055.086a35.959,35.959,0,0,0-3.195,5.389l-.043-.02a16.319,16.319,0,0,0-1.038,3.368c-.1.339-.265.8-.3.638-.075.454-.112.706-.138,1.011s-.115.653-.182,1.313c-.013-.464-.036-.386-.045-.35s-.022.029.076-.6a7.487,7.487,0,0,0-.105,2.748c-.15-.436-.1.918.048,1.48a6.845,6.845,0,0,1-.019-.848c.034.32.07.618.129.9s.087.569.149.849c-.083-.088-.151-.181-.224-.273a9.2,9.2,0,0,0,1.138,3.22c.509.928,1.061,1.728,1.449,2.606.464.492-.678-1.176-.235-.747.576.982,1.153,2.042,1.38,2.328a5,5,0,0,0,1.076,1.115,9.154,9.154,0,0,1,1.184,1.083c-.1-.194-.147-.413.789.393.826.8.884,1.115.3.662-.212-.181-.3-.286-.273-.291-.287-.242-.663-.563-.374-.206l.151.065c.369.441,1.584,1.481,1.236,1.3.706.531.35.177-.124-.265,1.07,1.031,1.785,1.493,2.96,2.468-.173-.172-.306-.357-.115-.21,1.738,1.411.855.518,2.083,1.412.634.581-.38-.03.887.83.7.6.061.231-.265.044a21.567,21.567,0,0,1,2.616,2.119l-.6-.413c.361.246.639.466.919.694l-.246-.342c.318.281.6.506.56.536.39.223-.13-.352.609.129.4.4,1.358,1.076,1.391,1.315-1.206-1.124-.132.041-.9-.569.183.15.376.321.6.533.036.053-.067-.017-.16-.087,1.149,1.226.711.39,1.952,1.618-.217-.1.156.394.366.585-.486-.5-.117-.338.367.1.7.865.824.888,1.193,1.338l-.4-.531a6,6,0,0,1,1.04,1.17c-.017.088-.46-.538-.319-.3a12.882,12.882,0,0,1,1.581,2.659c.186.51-.122.109.044.551a4.652,4.652,0,0,1,.495,1.264c.043.174.086.35.152.56a7.852,7.852,0,0,0,.233.785c0-.4-.012-.471.306.444a15.327,15.327,0,0,0-.7-2.134c.209.437.433.875.6,1.332-.048-.164-.1-.332-.146-.5l-.188-.475-.306-.765c.354.611.278.565.269.22a23.48,23.48,0,0,1,.764,2.844l-.294.01c.035.4.063.771.114,1.139.015.369.076.735.083,1.117a7.769,7.769,0,0,1-.288,2.594l.194-.638a2.351,2.351,0,0,1-.137.819c-.13.349-.243.754-.379,1.064-.065-.091-.27.281-.441.514a3.368,3.368,0,0,1-.346.682c-.095.168-.2.334-.287.478a2.635,2.635,0,0,1-.362.2l-.094.086.213.179-.048.05-2.122,2.187,2.673-1.724.061-.04.2.168c.139-.181.269-.365.393-.552.675-.559,1.063-.877,1.418-1.229a7.205,7.205,0,0,1,1.483-1.106c-.382.358.314,0-.615.666a4.54,4.54,0,0,0,.9-.611,17.531,17.531,0,0,1,1.869-1,2.639,2.639,0,0,1,.828-.518c.047-.006.041.012.031.026.106-.083.868-.408.337-.3.45-.1.958-.278,1.518-.437l.852-.274.886-.258c.587-.182,1.181-.323,1.724-.434a7.6,7.6,0,0,1,1.438-.19,35.478,35.478,0,0,1,3.946-.585c-.072.032,0,.045-.22.057a4.1,4.1,0,0,0,1.318-.176,3.972,3.972,0,0,1,1.494-.136c.941.122-.972.1-.386.145.259.284,2.211-.093,3.439.155l-.3.006c.931.134,2.3,0,3.834.178,0,0-.078.019-.014.044a31.267,31.267,0,0,1,4.536.35c-.478.043-.678-.044-.42.117.661.087-.16-.219,1.161-.044a6.856,6.856,0,0,1,1.449.5l-1.235-.206a14.2,14.2,0,0,0,2.242.421l-.1.055c1.891.332,1.958.164,3.981.585l-.2-.1c1.148.053.9.289,2.04.387l.292.247c.74.109,2.6.361,3.919.591-.774-.018-2.325-.266-3.291-.386a25.693,25.693,0,0,0,2.865.484,6.989,6.989,0,0,1-.957-.16,26.176,26.176,0,0,1,3.557.491c-.165.144.773.356,1.885.559a22.765,22.765,0,0,1,2.906.61c.654.065,1.3.149,1.953.246l1.984.251,2.064.275c.708.089,1.443.134,2.206.191-1.057-.353.892.058.727-.236a7.478,7.478,0,0,1,1.04.082l-.147-.023.152.024h0c.71.121,1.426.182,2.141.271.507.1-.68.037-.618.1,1.559.08.649.144,1.68.257-.208-.109.548-.124,1.438-.052l-1.249-.177c2.182-.058,1.88.279,4.083.146l-.7.088c.565-.03,1.608-.014,2.646-.055a18.222,18.222,0,0,0,2.618-.27c.2.025.469.093-.027.131,1.351-.008,2.843-.2,4.26-.345,1.419-.127,2.752-.334,3.8-.372l-.195.09a8.02,8.02,0,0,1,1.488-.221c-.029.032-.192.09.04.069.263-.039,1.306-.292,1.97-.348l-.551.158a30.469,30.469,0,0,0,3.231-.535c.927-.229,1.8-.474,2.871-.693.019.1.539.074,1.184,0s1.4-.231,1.91-.323l-.028.036a38.457,38.457,0,0,0,3.962-1.016c1.208-.382,2.4-.716,3.73-1.178.436-.073,1.012-.21,1.672-.385s1.408-.381,2.17-.646c1.528-.516,3.194-1.045,4.52-1.516-.416.119,0-.171.459-.368.632-.2,1.64-.778,1.62-.57l-.22.08a11.208,11.208,0,0,0,2.74-.985l.052-.289a23.21,23.21,0,0,0,4.448-1.906c1.462-.769,2.723-1.561,3.452-1.838.532-.4,1.217-.865,1.706-1.306l.058.124a21.182,21.182,0,0,0,1.866-1.463,16.194,16.194,0,0,0,1.857-1.946l-.222.416a3.8,3.8,0,0,0,.744-1.236,7.486,7.486,0,0,1,.575-1.22,3.831,3.831,0,0,0,.361-.209,12.452,12.452,0,0,0,1.28-3.082,10.472,10.472,0,0,0,.292-1.631,8.508,8.508,0,0,0-.041-1.64c.032.035.094.1.113.455a10.864,10.864,0,0,0-.21-2.352c-.046-.2-.086-.4-.135-.569s-.116-.314-.166-.428c-.1-.228-.18-.325-.219-.214.1-.041-.1-.586-.443-1.235a8.513,8.513,0,0,0-1.369-1.772l.238.061c-.436-.329-.635-.509-.915-.684l-.334-.215a5.113,5.113,0,0,0-.472-.287c-.121-.093.025-.067.148.013-.023-.017-.047-.038-.069-.053l-.063-.04c-.022-.013-.051-.027-.019-.028a.611.611,0,0,0,.136-.059,2.565,2.565,0,0,1,.68-.163,1.931,1.931,0,0,0-.224.138l.187-.044.2-.052c.163-.043.278-.079.375-.113.192-.077.314-.155.608-.3.35-.122.869-.316,1.335-.466a4.474,4.474,0,0,1,.968-.277,5.938,5.938,0,0,1,1.25-.806c.1-.01-.094.143-.2.211a11.845,11.845,0,0,0,1.121-.66c.309-.227.577-.437.831-.636.486-.421.911-.788,1.442-1.191a.359.359,0,0,0,.225-.094,15.094,15.094,0,0,1-2.086,1.655c.075.1,1.119-.619.407.092.785-.659,1.933-1.919,2.777-2.772a.88.88,0,0,1,.14-.092l-.073.1a5.582,5.582,0,0,0,.494-.578c.258-.284.423-.465.655-.75a8.028,8.028,0,0,0,1.208-1.62c-.146-.024.3-.679-.2-.109.061-.076-.048.1-.262.444-.046.078-.1.169-.128.224l.012-.041c-.233.323-.517.759-.893,1.218a8.722,8.722,0,0,1,.934-1.359c.094-.3.2-.632.266-.811.6-.6,1.434-1.97,1.609-2.14a23.247,23.247,0,0,0,.989-2.818,8.992,8.992,0,0,0,.362-2.43,1.7,1.7,0,0,1,.248-.754c-.021.3-.09.644-.08.809.068-.512.167-1.268.212-1.931a3.6,3.6,0,0,0-.07-1.354c.1-1.29.172.73.137-1.049l.065.24A11.461,11.461,0,0,0,1410.885,653.32Zm-6.9,20.327c.079-.114-.373.268-.7.462a10.367,10.367,0,0,0,.828-.7C1404.209,673.385,1404.172,673.481,1403.982,673.647Zm1.137-1.219,0,0,.4-.455Zm2.574-1.742.014-.047a.406.406,0,0,1-.036.166c-.223.34-.326.436-.382.466Z" transform="translate(-1245.732 -625.006)" fill="#707070"/>
        <path id="パス_194" data-name="パス 194" d="M1575.114,713.194l.092-.174-.178.224-.046.171Z" transform="translate(-1413.395 -668.815)" fill="#202020"/>
        <path id="パス_195" data-name="パス 195" d="M1255.843,686.407a.857.857,0,0,1,.093-.1.68.68,0,0,1-.055.046Z" transform="translate(-1250.212 -654.567)" fill="#202020"/>
        <path id="パス_196" data-name="パス 196" d="M1539.354,774.013l.025.031.192-.17Z" transform="translate(-1397.609 -704.351)" fill="#202020"/>
        <path id="パス_197" data-name="パス 197" d="M1276.667,665.736a.878.878,0,0,0,.2-.1A.937.937,0,0,0,1276.667,665.736Z" transform="translate(-1259.439 -643.559)" fill="#202020"/>
        <path id="パス_198" data-name="パス 198" d="M1295.667,654.177a.253.253,0,0,0,.066-.106l-.01,0Z" transform="translate(-1267.858 -634.207)" fill="#202020"/>
        <path id="パス_199" data-name="パス 199" d="M1291.7,769.376l.136.165C1292.162,769.928,1291.956,769.656,1291.7,769.376Z" transform="translate(-1266.102 -698.836)" fill="#202020"/>
        <path id="パス_200" data-name="パス 200" d="M1257.408,738.484l.6.557C1257.709,738.705,1257.484,738.435,1257.408,738.484Z" transform="translate(-1250.906 -682.396)" fill="#202020"/>
        <path id="パス_201" data-name="パス 201" d="M1304.529,795.738s0,0,0,0l.163-.081Z" transform="translate(-1271.784 -714.005)" fill="#202020"/>
        <path id="パス_202" data-name="パス 202" d="M1259.309,740.349c-.3-.34-.557-.618-.815-.859A9.335,9.335,0,0,0,1259.309,740.349Z" transform="translate(-1251.387 -682.965)" fill="#202020"/>
        <path id="パス_203" data-name="パス 203" d="M1336.27,644.1c0-.01.011-.019.03-.026l-.289.024Z" transform="translate(-1291.577 -629.777)" fill="#202020"/>
        <path id="パス_204" data-name="パス 204" d="M1336.817,644.03a1.136,1.136,0,0,0-.287.023Z" transform="translate(-1291.84 -629.758)" fill="#202020"/>
        <path id="パス_205" data-name="パス 205" d="M1337.651,643.941l-.6.05A2.475,2.475,0,0,0,1337.651,643.941Z" transform="translate(-1292.112 -629.719)" fill="#202020"/>
        <path id="パス_206" data-name="パス 206" d="M1323.227,645.34l-.071.068C1323.2,645.39,1323.223,645.367,1323.227,645.34Z" transform="translate(-1285.043 -630.339)" fill="#202020"/>
        <path id="パス_207" data-name="パス 207" d="M1321.466,645.516l.058-.054c-.321.118-1.586.185-2.05.373C1319.985,645.747,1320.764,645.673,1321.466,645.516Z" transform="translate(-1283.225 -630.393)" fill="#202020"/>
        <path id="パス_208" data-name="パス 208" d="M1303.459,648.921c.574-.214,1.166-.378,1.748-.569-.323.047-.751.108.036-.178C1302.989,648.765,1305.734,648.133,1303.459,648.921Z" transform="translate(-1271.311 -631.595)" fill="#202020"/>
        <path id="パス_209" data-name="パス 209" d="M1293.661,653.327c.878-.456-.049-.073-.017-.127C1293.1,653.523,1292.973,653.6,1293.661,653.327Z" transform="translate(-1266.761 -633.777)" fill="#202020"/>
        <path id="パス_210" data-name="パス 210" d="M1246.347,707.312l-.121-.125C1246.1,707.951,1246.279,707.2,1246.347,707.312Z" transform="translate(-1245.931 -665.703)" fill="#202020"/>
        <path id="パス_211" data-name="パス 211" d="M1247.712,719.987l.148.512c-.023-.242-.07-.477-.074-.72l-.185-.314Z" transform="translate(-1246.56 -672.304)" fill="#202020"/>
        <path id="パス_212" data-name="パス 212" d="M1249.034,729.233c.223.373.435.751.667,1.117-.172-.27-.325-.551-.487-.826Z" transform="translate(-1247.195 -677.521)" fill="#202020"/>
        <path id="パス_213" data-name="パス 213" d="M1318.358,793.114l-.26-.116C1317.613,793.149,1317.561,793.366,1318.358,793.114Z" transform="translate(-1282.309 -712.825)" fill="#202020"/>
        <path id="パス_214" data-name="パス 214" d="M1372.887,795.995c-.649-.155-1.285-.366-1.622-.416A5.214,5.214,0,0,0,1372.887,795.995Z" transform="translate(-1309.537 -713.969)" fill="#202020"/>
        <path id="パス_215" data-name="パス 215" d="M1527.217,783.2l1.01-.515-.488.212Z" transform="translate(-1392.23 -708.254)" fill="#202020"/>
      </g>
    </g>
    <path id="パス_324" data-name="パス 324" d="M8.455,11.914l-.394-.381v-.2l.317-.317h.14l.647-1.688-.267-.6a1.753,1.753,0,0,0-1.168-.444l-.19.063-.19-.063-2.019.838A7.389,7.389,0,0,1,4.621,11.2a1.733,1.733,0,0,1-1.041.33l-1.1-.457-.2-.457A7.271,7.271,0,0,1,4.354,8.6l.127-1.231-.063-.394.063-.063V5.935l-.127-.254-.19-.063a6.8,6.8,0,0,1-1.828.521l-.457-.457v-.2a14.839,14.839,0,0,1,2.349-.711l.063-.394L4.1,3.535l.584-.2a.706.706,0,0,1,.521.6l-.076.19.14.394h.457a2.39,2.39,0,0,1,1.1-.267l.254.127.063.584-.521.267H5.649L5.4,5.351l-.063.063v.978l.063.063v.851l-.063.063V8.08h.254A6.754,6.754,0,0,1,7.147,7.5h.978a3.1,3.1,0,0,1,1.435.647,2.078,2.078,0,0,1,.521,1.435A6.39,6.39,0,0,1,9.1,11.851ZM3.834,10.683l.267-.647H3.9l-.317.254-.076.394.267.063ZM10.6,7.242,10,6.976A11.6,11.6,0,0,0,8.519,5.287V4.894L9.1,4.7l.394.254.254.457.521.394a2.7,2.7,0,0,1,.711,1.231Q10.918,7.306,10.6,7.242Zm6.528,5.218-.114-.038a.583.583,0,0,1-.267-.546l3.11-.533.14-.432-.1-.089V8.22l-.216-.355H18.588L17.167,8.6a1.784,1.784,0,0,1,1.219,1.066l.292,1.219-.241.152a1.484,1.484,0,0,1-.889-.851,15.966,15.966,0,0,1-.559-1.727l-.647-.394-.089-.292.381-.089a8.848,8.848,0,0,1,1.663-.47h.825l.647-.2a1.9,1.9,0,0,0,.3-1.257l-.279-.216h-.851l-.7.076-.812-.444-1.5,2.514-.152.216a3.1,3.1,0,0,1-.444.686H15.11l-.355-.254V7.648A38.49,38.49,0,0,1,19.82.476h.355l.355.178.089.533-.114.457a46.159,46.159,0,0,1,4.621,4.672v.33a.471.471,0,0,1-.457.089,5.578,5.578,0,0,0-1.879-1.866,6.068,6.068,0,0,1-1.739.622l-.241,1.4h.774l1.079-.229.47.267.038.152a1.38,1.38,0,0,1-.724.368h-.914l-.66.292-.178.406V9.629h.394l1.371-1.6h.254l.267.457a21.118,21.118,0,0,0-1.841,2.78h.533l2.933-.368.609.3v.051a5.42,5.42,0,0,1-2.526.571h-1.1l-.076.089h-.762l-.559.165h-.774l-1.536.381Zm5.091-8.023V4.081L20.048,2.075H19.68A8.713,8.713,0,0,0,17.8,4.906h1.282l.076-.1h1.016l.089-.076H21.2Zm8.267,7.046a1.213,1.213,0,0,1-.9-.394l-.127-.444V9.934a5.988,5.988,0,0,1,.9-2.768A5.784,5.784,0,0,1,34.346,5.3a2.722,2.722,0,0,1,1.8.838,6.591,6.591,0,0,1,1.93,3.8V10.9l-.254.317h-.33a.651.651,0,0,1-.508-.571,1.191,1.191,0,0,0,.19-.838,6.734,6.734,0,0,0-1.8-3.352L34.854,6.2a14.237,14.237,0,0,1-2.437,4.57,2.2,2.2,0,0,1-1.155.711Zm.774-.9a13.136,13.136,0,0,0,2.5-3.669l.2-.647-.33-.127A7.523,7.523,0,0,0,31.121,7.75a6.037,6.037,0,0,0-.825,2.895.473.473,0,0,0,.508.19Zm16.57,2.057-.394-.267v-.33a3.872,3.872,0,0,0,.914-1.93l-.5-.127-1.968.5H44.809l-.394-.33V9.857l.508-.114.33.076,3.072-.686V8.677a5.812,5.812,0,0,0-1.65-.774l-.1-.406a6.7,6.7,0,0,0,1.879-1.219l.19-.47L47.6,5.693l-1.587.229-.47-.267L45.495,5.4a9.412,9.412,0,0,1,1.536-.279H48.72a1.321,1.321,0,0,1,.99.406l.076.368a6.193,6.193,0,0,1-1.219,1.27l-.279.1-.14.394,1.168,1.092h.5A5.039,5.039,0,0,1,51.4,8.347q.317.051.267.394a17.582,17.582,0,0,1-2.184.965,9.383,9.383,0,0,1-1.117,2.717A.594.594,0,0,1,47.831,12.638ZM43.273,6.823l-.292-.317V5.465l.457-2.4.165-.051,1.028.355.127-.444L44.289.971a.633.633,0,0,1,.546-.076l.343.33.355,1.854.711.1,1.27-.381V2.431L47.133.374l.33-.114.47.406.419,1.98.571.114.762-.279q.343-1.219.559-2.349l.279-.038.406.66-.343,1.587.267.267h1.231l.482.279.14.381v.863l-.432,1.511-.444.127-.19-.1V5.224l.267-1.663-.127-.381-.863-.089-5.675.9H44.149l-.368.774V5.922l-.063.419.051.267-.152.216ZM59.45,11.432a1.677,1.677,0,0,1-.9-.584l-.394-.66V8.829a10.28,10.28,0,0,1,.978-3h-.127a14.118,14.118,0,0,1-2.6,1.181l-.521-.457V6.29a42.691,42.691,0,0,1,4.672-1.815l.394.127.063.33A7.557,7.557,0,0,0,59.005,10l.254.457.521.127a10.6,10.6,0,0,0,2.272-2.856l.33-.787V6.227A.82.82,0,0,1,63.03,6.1q.978,2.336,2.019,4.685l-.521.381-.584-.584L63.03,8.245l-.254-.063a10.275,10.275,0,0,1-2.222,2.983l-.444.267Zm6.7-3.974a1.033,1.033,0,0,1-.33-.774V5.909L65.3,2.329l.457-.127.457.254.127.33V3.5l.33,1.815v.851l-.063.063V7.395Zm-2.019-.647a1.223,1.223,0,0,1-.584-.584L62.7,3.18a.491.491,0,0,1,.521-.2l.457.267q.457,1.688.787,3.44Zm8.191,5.434a3.392,3.392,0,0,1-1.1-2.209V7.623l.063-.063V6.582l.127-.444V5.287A.722.722,0,0,1,72,5.16l.457.394v.521l-.254.838V7.56l-.076.063v1.5l-.063.267.063.063v.711l.2.851h.254l.457-.063.19.444a1.634,1.634,0,0,0-.317.787Zm3.961-2.539a1.781,1.781,0,0,1-1.041-.317l-.127-.521a.79.79,0,0,1,.647-.14l1.041.14a2.83,2.83,0,0,0,.851,0l.19-.063.851.254.063.457-.457.19H77l-.254-.063Zm-1.5-2.6-.381-.381v-.33a19.234,19.234,0,0,1,3.567-.978l.394.2.127.521a1.555,1.555,0,0,1-.774.317h-.647Q75.893,6.785,74.788,7.1Zm13.079,5.142a3.181,3.181,0,0,1-1.295-1.295l-.063-.647a5.336,5.336,0,0,1,2.4-.838l.317-1.549V7.2l.063-.647-.063-.521.457-.127.444.317.076.063v.647l-.076.2.076.381-.33,2.2a7.28,7.28,0,0,1,1.942,1.1l.063.394a.525.525,0,0,1-.584.254,3.522,3.522,0,0,0-1.485-.9,14.118,14.118,0,0,1-.711,1.485l-.394.19Zm.457-.838a1.26,1.26,0,0,0,.381-.9l-.317-.14-.838.394-.063.317a.794.794,0,0,0,.647.457ZM85.087,9.4l-.381-.394-.076-.774.711-2.717h-.19l-1.028.394L83.6,5.389V5.135L85.924,4.3l.457-1.358.394-.076.444.267.063.317-.19.647.19.063,1.1-.19.584.584-.2.254h-.635l-.076.063h-.965l-.457.2a11.882,11.882,0,0,0-1.028,3.034v.647h.127l.063.457A.8.8,0,0,1,85.087,9.4Zm7.757-3.491A18.392,18.392,0,0,1,90.33,4.221l-.063-.444.444-.063a11.479,11.479,0,0,0,2.92,1.612l.063.33A.99.99,0,0,1,92.843,5.909Zm8.661,6.145-1.295-.711-.063-.267a3.951,3.951,0,0,1,2.26-.965h.838l.647-.19.33-1.1-.33-.711-.774-.457h-1.028a3.655,3.655,0,0,0-1.752.914l-.394.381h-.317L99.232,8.3a14.755,14.755,0,0,0,2.983-3.618l.317-1.028a.79.79,0,0,0-.647-.14l-1.549.394-.521-.457v-.19a13.18,13.18,0,0,1,1.688-.394h.774l.965.394a.71.71,0,0,1,.267.711,22.313,22.313,0,0,1-1.815,2.971l.19.063h.978a2.357,2.357,0,0,1,1.612.787l.584,1.028v.774l-.711,1.422a5,5,0,0,1-1.688,1.041h-.965l-.063-.063Zm1.358-.774.508-.584h-.647l-1.346.457-.076.254.2.127h.774ZM7.414,32.054l-.508-.33v-.19l.063-.076v-.774l-.14-.711.076-.063v-.724l-.2-1.231v-.711l-.317-.267a46.483,46.483,0,0,0-3.326,3.25H2.679l-.457-.584q3.44-3.123,7.021-6.233l.457-.076.381.33v.33L7.49,26.074v.508l.127.394V27.7l.127.444v.66l.063.063v1.295l.063.063v.724l.267.647A1.064,1.064,0,0,1,7.414,32.054Zm8.953-1.168L15.91,30.5v-.33q1.625-2.59,3.428-5.167h.457a16.293,16.293,0,0,1,2.323,2.907l.063-.584A28.611,28.611,0,0,0,21.47,23.9a.532.532,0,0,1,.647-.19l.33.254.521,2.653v.774l.19.711-.19.33-.33.063-.19-.063v.19a4.265,4.265,0,0,1,1.028,1.612l-.508.2-.394-.2-2.653-4.012-.254-.063q-1.549,2.272-2.907,4.6Zm8.087-2.133-.33-.19L24,28.042l.063-.063V25.008L24,24.932v-.965l-.063-.521.521-.19.444.457v1.676l.076.19-.076.076v1.866A2.4,2.4,0,0,1,24.454,28.753Zm7.937,3.034L31.87,31.2q1.93-1.282,3.8-2.641h.127l.063-.19a7.682,7.682,0,0,1,2.26-1.282l.063.317a44.223,44.223,0,0,1-4.9,4.126h-.127l-.063.19-.063.063Zm.635-3.605-.711-.711a26.455,26.455,0,0,1-2.057-3.021.75.75,0,0,1,.774-.19q1.092,1.346,2.184,2.768l.2.381v.647Zm13.206,3.9-.774-.381-.063-.2.127-.9-.127-.635v-2.45l-.063-.254.063-.063V26.48l.063-.063V23.269l-.063-.33a.533.533,0,0,1,.635-.19l.457.381v.584l-.063.063v1.93l-.063.063v1.155a3.611,3.611,0,0,0,1.219.2l.19-.063.584.127h.711l.635.127h.9l.33.317v.19l-.267.267H49.253l-.063-.063h-.774l-.063-.063H47.323L47.26,27.9h-.838l-.127.127v1.409l.063.063V30.67l.127.381v.711Zm11.974.165A5.15,5.15,0,0,1,56.961,29.2v-.939l-.063-.063v-.927a11.445,11.445,0,0,1,1.688-5.357l.3-.063.432.317v.368a10.617,10.617,0,0,0-1.549,4.608v.622l-.063.3.063.063v.939a3.957,3.957,0,0,0,.813,2.234l.241.063a.67.67,0,0,1,.19.622A1.439,1.439,0,0,1,58.205,32.244Zm12.469-.127-2.006-.978-.686.813-.559.076-.279-.406.508-1.028-2.285-1.257-.19-.533.457-1.727h-.546l-1.384.343-.533-.482V26.76q1.333-.394,2.907-.7.749-1.663,1.371-3.1H67.7l.47.381v.406l-.787,2.069.254.19H69l.813-.267.292-.952h.343l.381.216.165.673.355.1,1.193-.178.609.292.063.406-.127.114h-.749l-.419.076-.66-.076-.66.267a32.351,32.351,0,0,1-1.625,3.91q1.295.521,2.247.99l.051.444A.694.694,0,0,1,70.675,32.117Zm-2.552-2.234,1.333-2.92-.279-.317H68.2l-.114.063h-1.1a4.453,4.453,0,0,0-.736,2.107l.1.368,1.6.876ZM80.9,32.333l-.394-.216-.2-.508a2.4,2.4,0,0,0,1.6-.876,4.289,4.289,0,0,0,.813-1.98l-.381-.6H81.4l-2.019.47H78.65a.742.742,0,0,1-.432-.736l.622-.2.216.089,1.739-.3h.876l.216-.47-.432-.812-.533-.355-.114-.457a6.493,6.493,0,0,0,2.146-2.146v-.368l-.66-.279h-.8l-.47-.076-.6.076-.381-.216-.241-.521.1-.127h1.511a5.853,5.853,0,0,1,2.793,1.028l.051.19a19.8,19.8,0,0,1-2.209,2.971l.965,1.473H84.2l.825-.152.571.33.063.368-.1.089H83.944l-.533.178v.749l.076.063v.9a5.452,5.452,0,0,1-1.422,1.98A1.662,1.662,0,0,1,80.9,32.333Zm18.271.14-.444-.457-.254-1.054h-.482a7.219,7.219,0,0,1-3.161,1.295h-.749a.956.956,0,0,1-.838-.457l-.089-.355,1.892-3.072h-.889l-2.729.609-.571-.381-.038-.178.813-.229.292-.114h.571a21.851,21.851,0,0,0,5.941-1.892l.33.165.038.406-2.387,1.206a23.218,23.218,0,0,0-1.942,3.39l.521.127a6.691,6.691,0,0,0,3.021-1.625l.267-.33h.19l.533.267a8.6,8.6,0,0,1,.647,2.374l-.051.178Zm-7.541-4.71-.47-.317-.063-.406a37.711,37.711,0,0,1,4.063-5.7l.482-.127.241.178q2.133,1.993,4.228,3.783v.14l-.355.216-1.13-.9q-2.755.622-5.319,1.32l-.508-.089a3.613,3.613,0,0,0-.9,1.942ZM97.9,24.335l.229-.254L95.5,22.126a18.728,18.728,0,0,0-1.841,2.831h.521l1.295-.3h.749Zm7.683,8.036-.127-.063-.3-.6.241-.127a7,7,0,0,0,.787-2.78v-.9l.063-.063V26.633l.063-.063V25.059a4.175,4.175,0,0,0-.914-2.666,1.086,1.086,0,0,1-.6-.6v-.254l.533-.114a3.664,3.664,0,0,1,1.333,1.511,7.667,7.667,0,0,1,.432,2.171V27.6l-.063.063V28.8a10.918,10.918,0,0,1-.914,3.5l-.355.063-.127-.063ZM6.3,51.813a3.358,3.358,0,0,1-2.082-.851.874.874,0,0,1-.33-.838,15.25,15.25,0,0,1,2.082-2.729h.127v-.33a2.233,2.233,0,0,1-1.231-.914,2.268,2.268,0,0,1-.457-1.168l-.647-.063-.063.063H2.59l-.33-.521a.56.56,0,0,1,.584-.19l.647.063.787-.19.127-.267v-.914l-.127-.711.521-.063.317.254.063.394-.063.19.063.076v.647l.394.063,1.168-.457.063-.19.33-.14h.787l.317.267v.33a25.806,25.806,0,0,1-2.856,1.028l-.063.076v.647l.647.9.711.394A3.525,3.525,0,0,1,8.95,45.5l.394.267v.19l-1.752.978-.063.19,1.041.978.19.711-.19.457-.394.127-.457-.381v-.394l.063-.33-.521-.647H6.881A9.128,9.128,0,0,0,4.8,50.5a2.577,2.577,0,0,0,1.688.584h.647a13.133,13.133,0,0,0,3.123-1.168l.317.127.14.457a9.526,9.526,0,0,1-3.453,1.308Zm15.377.787-.47-.355-.051-.394.063-.457-.381-2.4-.571-.1-.66.254-.127.1v.939l.063.533-.482.1-.546-.394-.063-.419.1-.406a2.116,2.116,0,0,1-1.143-.419l-.051-.267q.546-.2,1.219-.457l.1-.876-.66-.076-.482.051-.355-.508a12.275,12.275,0,0,1,3.313-.736h1l.063-.076h.8l.66-.076.406.343v.19l-.686.254h-.9a1.239,1.239,0,0,0-.2.927l.127.152H22.8l.406.178.063.394-.051.089-.19.063H22.08a.966.966,0,0,0-.216.825l.152.381v1.028l.089.063v1.168l-.2.3Zm-6.335-.533-.559-.5v-.927L14.7,49.9l.076-.076V48.271l.076-.089v-.952l.076-.635-.063-.178.063-.051v-.952l.089-.076V42.583L15.1,42.1l-.063-.33L15.4,41.5h1.574l.076-.076h1.866l.406.343v1.206a1.366,1.366,0,0,1,.3.825l-.152.724.2.508a1.33,1.33,0,0,1-1.181.381l-.317-.089-2.234.5-.127.1V47.94l-.089.089v1.016l-.076.076v1.358l.165,1.346A.568.568,0,0,1,15.338,52.066Zm10.232-.394-.622-.2v-.647l.076-.076v-1.9l-.14-.787V47.28l-.406-2.069-.394-.1-1.117.216H21.381l-.724-.406-.114-.381.051-.063V42.481l-.114-.939.406-.178.279.14h1.65a6.751,6.751,0,0,1,2.247.66l.533,2.983v.774l.317,1.46v.863l.152.851v1.5l.076.089v.825A.557.557,0,0,1,25.571,51.673Zm-4.837-3.542.114-.368-.2-.635-.533-.089-.47.178-.089.889a1.062,1.062,0,0,0,.914.241Zm-2.311-3.453.114-.736-.8-.089-.076.076h-.914l-.851.178V45h.813Zm5.992-.152v-.546l-.229-.19H22.143l-.47-.1-.19.571.1.33.292.114h.838l.089-.089h.724Zm-6.094-1.4.14-.165-.19-.724-.559-.165-1.65.33-.178.66.2.229h1l.241-.076.381.076ZM24,42.989l.14-.3a2.2,2.2,0,0,0-1.155-.533h-.952l-.457.279-.1.33a1.581,1.581,0,0,0,1.041.381h1.371ZM30.41,52.65l-.635-.254v-.216l.14-.368v-.863l.076-.076v-1l.076-.076v-.736l.063-.063V47.331l-.076-.609h-.444l-.965,1.7-.546.127-.292-.47q1.727-2.437,3.174-4.977a1.041,1.041,0,0,1,.762-.127l.3.241V43.5a6.739,6.739,0,0,0-1.308,2.095l.14.444-.089.33.089.076v1.5l.089.533-.089,1.054v1.447l-.076.368.076.317-.076.292.063.2-.241.432Zm.914-4.177a29.217,29.217,0,0,0,2.222-3.288h.419l.292.114.051.432-.1.33h.381l.635-.317.584-1.46.14-.051.6.19.114.368-.241.559.406.216.9-.241h.99l.355.19v.165a7.612,7.612,0,0,1-2.311.47l-.089.381.152.66.3.1.939-.216.292.178.051.114-.6.47-.914.3-.178.8.584.19a.914.914,0,0,1,.736-.229l.457.254.038.114a4.424,4.424,0,0,1-1.79.609l-.076.9a.738.738,0,0,0,.774.3,10.583,10.583,0,0,1,1.854-.432l.216.152v.33a4.935,4.935,0,0,1-2.526.635h-1.98l-.876-.216h-.711l-.127-.051-.076-.8.216-.5v-1l.076-.076V47.407l-.355-.127-1.066,1.587-.521.051Zm4.329,2.577a1.267,1.267,0,0,0,.165-.927,1.116,1.116,0,0,0-.851-.178l-.267.076-.254-.1a1.153,1.153,0,0,0-.19.9,1.853,1.853,0,0,0,1.308.33Zm.165-1.727.165-.8a5.294,5.294,0,0,0-1.676-.419v1.1l.292.279h.774Zm-.025-1.752.114-.127v-.9l-.394-.19-1.1.394-.165.508.089.317,1.117.152Zm1.422-3.479a.826.826,0,0,1-.343-.724l-.635-.089-2.057.584h-.66l-.381-.3v-.609l.076-.774L33.14,42.1v-.6l.394-.063.432.2.051.216-.063.355.152.838H34.4a2.946,2.946,0,0,0,.482-1.65l-.2-.889a.844.844,0,0,1,.647-.1l.241.114.2,1.257-.165.9h.432l.584-.152.229-.66.546-.063a1.219,1.219,0,0,1,.508.647V42.7l-.063.063v.749l-.2.444Zm10.21,8.277-.749-.686v-.279l.076-.076V49.984l-.063-.178.063-.051V48.55l.089-.787-.8-.089-1.79.216-.482-.724.152-.622-.089-.089V44.729l.076-.533-.063-.394a1.792,1.792,0,0,1,.813-.19h.978l.063-.063h.851a1.034,1.034,0,0,0,.2-.838l-.368-1.46a.579.579,0,0,1,.508-.1l.508.432.368,1.879.914.152H50.37l.5.14a3,3,0,0,1,.571,1.308v.736a8.732,8.732,0,0,0-.368,1.358l-.927.216H49.2l-.076.076H47.971l-.292.368v3.542l.076.736Zm-.7-5.548.19-.584-.089-.089v-1.7l-.216-.2H45.8l-.914.317-.178.292v1.79l.1.317.686.076Zm3.44-.33.317-1.46-.33-.609-.114-.114h-.774l-1.041-.14-.381.165-.178.66.089.089v1.46l.229.19h.825l.076-.063h.762ZM58.4,52.231a1.866,1.866,0,0,1-1.257-.66l-.2-.394v-.66a7.763,7.763,0,0,1,1.46-1.98,3.3,3.3,0,0,1,1.117-.66h.99l.724-3.3a.864.864,0,0,1-.394-.851l.394-.076.2.076.19-.47.406-.063.394.2.127.521A6.48,6.48,0,0,1,65.721,45.3l.394.863a3.151,3.151,0,0,1-1.193,1.917l-.394.394H64.4l-.2.267-.99.457-.33-.267v-.394a6.961,6.961,0,0,0,2.311-2.374v-.33a6.7,6.7,0,0,0-2.907-1.054,17.612,17.612,0,0,0-.99,4.024,3.273,3.273,0,0,1,.736,1.384v.724a6.9,6.9,0,0,1-2.514,1.32Zm.521-.724v-.127a6.247,6.247,0,0,1-1.117-.66v.457a1.567,1.567,0,0,0,1.054.394Zm.6-1.447.457-.14v-.19l-.457-.076-.127.406.063.063Zm.787-.533-.33-.063v.127h.267Z" transform="translate(-8096.804 1007.56)" fill="#707070"/>
  </g>
</svg>
