<svg xmlns="http://www.w3.org/2000/svg" width="161.151" height="86.452" viewBox="0 0 161.151 86.452">
  <g id="グループ_121" data-name="グループ 121" transform="translate(-2562.425 174.452)">
    <g id="グループ_120" data-name="グループ 120" transform="translate(951.042 -808.401)">
      <path id="パス_120" data-name="パス 120" d="M2037.166,697.474l.072.128-.054.373Z" transform="translate(-425.783 -37.863)" fill="#1b1b1b"/>
      <path id="パス_121" data-name="パス 121" d="M2036.771,701.1c-.036-.063-.066-.022-.1-.086l.081-1.432C2037.07,700.144,2036.558,700.723,2036.771,701.1Z" transform="translate(-425.202 -39.118)" fill="#1b1b1b"/>
      <path id="パス_122" data-name="パス 122" d="M2036.335,704.3a1.22,1.22,0,0,1,.081.894C2036.5,704.983,2036.128,704.23,2036.335,704.3Z" transform="translate(-424.649 -41.929)" fill="#1b1b1b"/>
      <path id="パス_123" data-name="パス 123" d="M1966.679,793.844c-.045-.023-.1-.056-.146-.083A.446.446,0,0,1,1966.679,793.844Z" transform="translate(-326.69 -95.252)" fill="#1b1b1b"/>
      <path id="パス_124" data-name="パス 124" d="M1648.43,703.333l.091.164c-1.034-.419-2.173-.676-3.3-1.059-.565-.183-1.142-.341-1.7-.546s-1.11-.432-1.645-.669l.132.1a43.521,43.521,0,0,1-7.715-4,52.78,52.78,0,0,1-6.827-5.445c.059.074.059.126.12.2a4.993,4.993,0,0,0-.609-.726c-.08-.035.028.109.1.19a6.921,6.921,0,0,1-.872-.71c-.308-.286-.6-.636-.894-.96a17.014,17.014,0,0,0-1.43-1.514c-.221-.286-.261-.468-.083-.367l-1.158-1.35-1.11-1.427-.557-.72-.526-.751-1.049-1.512-.976-1.571c-.161-.263-.329-.521-.481-.789l-.446-.811c-.293-.542-.6-1.075-.874-1.621l-.789-1.651c-.132-.192-.2-.2-.235-.109a92.564,92.564,0,0,1-4.2-12.067c.048-.183.192.4.184-.034a34.475,34.475,0,0,0,.927,3.634l.037-.181c.307.846-.166.253.24,1.1.188.323.073-.126.135.034.3.907.6,1.841.965,2.73.349.9.653,1.8.95,2.656.351.317.848,1.87,1.351,2.393a4.876,4.876,0,0,1,.383,1.135,55.8,55.8,0,0,0,12.432,15.622,20.247,20.247,0,0,0,3.947,3.167c.759.461,1.51.972,2.316,1.4.8.442,1.578.928,2.388,1.358.028,0,.03-.016.013-.037a20.839,20.839,0,0,0,1.827,1.033c.688.327,1.406.658,2.065.922l1.068.589a63.422,63.422,0,0,0,6.164,1.8,55.788,55.788,0,0,0,6.347,1.068,49.2,49.2,0,0,0,6.443.283,43.487,43.487,0,0,0,6.415-.68c.463-.085.926-.157,1.382-.252l1.353-.321,1.04-.243.543-.127.034-.008.017,0v.513q0,.571,0,1.139c0,.219-.008.311-.014.442l-.019.374a23.559,23.559,0,0,1-3.4,11.02,21.567,21.567,0,0,1-1.653,2.316l-.219.265-.063.07-.151.154c-.1.109-.227.214-.361.338-.011.014-.059.047-.042.045l.056,0,.116-.008.257-.019c.091-.007.189-.028.291-.043l.172-.029.388-.081,1.541-.431c.505-.185,1.02-.357,1.531-.551-.026-.031.039-.076-.192.008a23.808,23.808,0,0,0,6.538-4.413l-.03-.022a21.6,21.6,0,0,0,5.76-8.347l.3-.784.08-.206.04-.1a.468.468,0,0,1,.1.03l.394.143,1.292.469c.778.3,1.563.551,2.339.814l1.159.395,1.154.369,1.138.377,1.129.352a86.5,86.5,0,0,0,23.968,2.722l-.021-.076a59.984,59.984,0,0,0,9.47-.961,48.214,48.214,0,0,0,9.154-2.548,30.154,30.154,0,0,0,4.415-2.4,19.776,19.776,0,0,0,3.914-3.362,16.234,16.234,0,0,0,4.048-9.676,21.746,21.746,0,0,0-.247-3.469c-.023-.149-.039-.3-.067-.45l-.105-.446c-.078-.3-.119-.606-.225-.9l-.305-.908c-.11-.3-.244-.557-.356-.818l-.086-.191-.042-.094c-.012-.029-.045-.078.012-.043l.426.183.79.339a2.7,2.7,0,0,0,.372.132l.407.124c.276.081.549.166.822.237.554.093,1.095.2,1.622.244a12.581,12.581,0,0,0,1.524-.005,21.406,21.406,0,0,0,10.954-3.911,20.617,20.617,0,0,0,4.34-4.111,22.476,22.476,0,0,0,3.1-5.375,30.013,30.013,0,0,0,1.488-11.565,24.909,24.909,0,0,0-3.3-10.925,18.581,18.581,0,0,0-3.024-4.6c-1.234-1.43-2.619-2.749-4-4.075l.159.021a8.7,8.7,0,0,1-1.608-1.441,9.01,9.01,0,0,0-.724-.682,1.7,1.7,0,0,0-.7-.346l.106.1a2.319,2.319,0,0,1-.873-.8c-.257-.317-.492-.613-.739-.627l-.046-.156c-.725-.505-.144.044-.74-.277-.211-.144.008-.219-.475-.443-.147.156-.594-.139-1.053-.4s-.908-.531-1.037-.317c.422.212-.738-.162.164.41-.286-.1-1.567-.756-1.372-.891-.029-.253-.471-.679.395-.448l.1.227c.331-.013.235.029.379-.033a19.733,19.733,0,0,0,2.068.706c-.01,0-.019,0-.011.014a5.8,5.8,0,0,0,1.552.995l.2.026c.327,0,.937,1.062.8.589a40.824,40.824,0,0,1,5.944,5.236c.2.347,1.382,1.576.835,1.275a5.661,5.661,0,0,1,1.265,1.163,14.753,14.753,0,0,1,1.086,1.413c0-.038.006-.082-.071-.174a3.348,3.348,0,0,1,.9,1.345,3.574,3.574,0,0,0,.845,1.3c-.106.316,1.247,2.246,1.234,3.144.126.133.2.162.222.083a29.681,29.681,0,0,1,2.015,7.3c0,.943.115,2.064.152,3.162a10.041,10.041,0,0,1-.235,2.951,17.442,17.442,0,0,1-.873,5.239l.092-.159c-.161.5-.306,1.034-.5,1.557s-.4,1.054-.634,1.541-.466.957-.711,1.361-.492.751-.705,1.03a2.478,2.478,0,0,1-.35,1.079c-.19.371-.42.757-.661,1.14-.243.248-.513.587-.841.945s-.7.745-1.1,1.14c-.417.369-.834.774-1.276,1.127-.455.335-.889.683-1.325.947-.177.31-1.417.9-1.415,1.127l-.977.473c-.332.153-.68.28-1.023.425l-.518.215c-.176.065-.357.12-.535.182-.36.118-.718.251-1.084.362a23.3,23.3,0,0,1-4.606.848,18.935,18.935,0,0,1-4.755-.294l-.582-.135-.29-.067-.06-.014h-.011l-.029,0a1.433,1.433,0,0,0-.206-.025l-.03,0c0,.006-.029-.008,0,.023l.085.114a.769.769,0,0,0,.118.125l.013-.008c-.056-.067.02.251.05.461a6.553,6.553,0,0,1,.046.7c.008.232.016.464.024.692s-.021.453-.024.666c.031.078.066.062.037-.112a14.608,14.608,0,0,1,.3,3.4c.034-.007.045-.005.082-.194a13.226,13.226,0,0,1-.582,3.51l.037.087-.144.385-.171.373c.072.006.193.017.3-.412a18.032,18.032,0,0,1-3.54,6.574l-.3.359-.325.334c-.219.22-.429.452-.656.66-.458.409-.912.825-1.4,1.19-.473.391-.986.719-1.485,1.068-.517.317-1.028.647-1.564.925-.525.3-1.073.548-1.614.814-.552.234-1.1.486-1.661.689a33.065,33.065,0,0,1-3.4,1.1,57.8,57.8,0,0,1-6.957,1.378l.352.028-1.827.1c.014.038.1.046.191.052a28.248,28.248,0,0,1-3.506.369l-3.476.127c.012.037.357.1.041.154a10.723,10.723,0,0,0-2.082.057,2.64,2.64,0,0,1-1.453-.17c-.078.02-.132.119.039.154-1.167-.021-2.34-.122-3.517-.171l-1.766-.136-.885-.065-.884-.09c-2.36-.2-4.712-.542-7.038-.9-3.786-1.079-8.117-1.817-11.9-3.431l0,.082c-.62-.23-1.232-.5-1.858-.742l-.885-.345c-.092-.073-.1.054-.134.119l-.091.225-.189.469c-.244.671-.579,1.3-.875,1.952-.153.323-.34.628-.508.945s-.335.635-.535.93l-.575.907c-.19.305-.415.582-.621.874-.406.591-.879,1.125-1.336,1.673a21.717,21.717,0,0,1-3.088,2.889c-.227.181-.444.357-.658.52l-.649.438-.623.412-.633.357c-.421.236-.839.476-1.3.679s-.927.456-1.463.658l-.02.114c-.446.134-.885.3-1.344.412s-.9.3-1.37.4c-.484.115-.984.273-1.518.371l-.828.162-.433.086-.221.044c-.028.008-.017,0-.013-.011l.011-.023.021-.046c.394-.417.824-.866,1.265-1.383.221-.253.467-.513.666-.782l.5-.641c.642-.878,1.274-1.758,1.878-2.655l-.25.179a4.9,4.9,0,0,0,.756-1.253c.232-.463.4-.836.5-.644.068-.243.147-.48.2-.726a10.623,10.623,0,0,0,1.309-3.9c.064-.343.109-.695.15-1.055s.093-.726.124-1.107.087-.769.115-1.176q.031-.3.064-.621l.054-.669-.082.269c.016-.239.033-.487.05-.736.059-.2-.116-.091-.213-.09l-.334.063a9.029,9.029,0,0,0-1.174.3,1.56,1.56,0,0,0,.269,0c-2.654.927-5.781.968-8.681,1.062l.335.139c-.708-.044-1.706-.082-2.761-.061-.527.006-1.068-.036-1.592-.057s-1.034-.047-1.494-.116l.107.086-.925-.2-.037.145A45.16,45.16,0,0,1,1648.43,703.333Z" transform="translate(0.551 0)" fill="#1b1b1b"/>
      <path id="パス_125" data-name="パス 125" d="M1994.384,776.529a.213.213,0,0,0,.024.014C1994.458,776.6,1994.43,776.578,1994.384,776.529Z" transform="translate(-365.696 -84.981)" fill="#1b1b1b"/>
      <path id="パス_126" data-name="パス 126" d="M1655.824,636.463c-.109-.053-.2-.087-.3-.124A.981.981,0,0,1,1655.824,636.463Z" transform="translate(98.877 -1.424)" fill="#1b1b1b"/>
    </g>
    <path id="パス_308" data-name="パス 308" d="M5.895,11.137,5.227,10.7,5.2,10.68v-.6q.609-2.613,1.43-5.332l-.4-.5a11.137,11.137,0,0,1,2.367-.6h.855l.07-.07h.926l.2.105.094.27-.527.8.047.3a14.559,14.559,0,0,1-3.082.973l-.6,1.664L6.07,10v1.055ZM7.172,7.188,8.32,6.895l.691-.129h.879l1.078-.2h.668l.211.363v.727l.07.188-.07.691.047.152-.047.047v.727l-.07.34.07.375-.3.586-.094.035-.223-.07-.2.047-.187-.328.223-1.008-.527-.129a.733.733,0,0,0-.316.855l.047.293-.316.129-.328-.164-.012-.012V9.566l-.375-.129-.176.176v1.02q-.07.152-.27.094L8.32,10.48l-.012-.012V9.461l-.621-.117L7.559,9.8l.07.211-.07.176.07.551a.467.467,0,0,1-.4.082L6.9,10.527V8.922l.152-1.23Zm-4.734,3.82-.293-.621a28.9,28.9,0,0,0,.621-3.738l-.551-.164L1.7,6.6l-.5-.457V6.1A8.908,8.908,0,0,0,3.141,4.445L2.613,4.3l-1.1.258-.445-.445v-.07L3.34,2.09h.41l.258.094.117.234A2.991,2.991,0,0,0,2.789,3.684a7.827,7.827,0,0,1,1.535.4l.047.258L3.352,5.348v.4H4l.246-.059.445.164.059.223a2.99,2.99,0,0,1-1.078.281l-.281,1.02a3.911,3.911,0,0,1,1.031.563l.645.715v.176l-.023.035-.352.059L3.469,8.008,3.082,9.73V10.4a.758.758,0,0,1-.246.609ZM.4,9.73a.581.581,0,0,1-.293-.668L1.465,7.375h.492l.188.129v.211A6.381,6.381,0,0,0,.914,9.426l-.035.2Zm10.664-.949.105-.668-.2-.645L10.5,7.422q-.457.059-.352.586l.023.3v.469l.281.094h.469Zm-1.453.012V7.844l-.187-.187-.328-.047-.035.855.105.328ZM8.391,8.781l.141-.387V7.938L8.391,7.7l-.609-.094q-.082.281-.2.938l.105.281ZM9.035,4.9l.3-.621-.551-.105L7.5,4.469l-.094.738h.727ZM6.574,2.617l-.492-.41V2.043l.2-.094.469.082.07-.082h.75l.07-.082h1.3l.75-.129a.97.97,0,0,1,.926.316V2.16a.839.839,0,0,1-.6.246H8.1l-.059.07H7.348Zm11.873,9.012-.082-.082v-.656l.07-.059V10l.047-.059V8.793h-.316l-1.617,1.465h-.387l-.422-.352V9.8a15.946,15.946,0,0,0,2.121-1.875L17.37,7.8l-.047.082h-.855a.835.835,0,0,1-.387-.586l.082-.082h.691l.07.07h1.383l.234-.258V6.25l-.129-.328-.785-.211-.5.129-.387-.316V2.535H16.4a3.765,3.765,0,0,0-.75,1.395l-.234.047-.387-.223-.047-.516,2.227-3.2h.387l.316.328V.5a1.487,1.487,0,0,0-.457.973l1.02.141.375-.234.211-.551V-.23l.551-.059a.707.707,0,0,1,.258.8l-.152.7.281.27h.7l.434-.07.445.234.035.258a3.509,3.509,0,0,1-1.2.176L19.983,2l-.2.375.34.434a.966.966,0,0,1,.867.246l.035.164a3.009,3.009,0,0,1-1.078.164l-.094.527.27.246h.656l.41.234.047.188-.41.164-.059-.059h-.82l-.094.832.48.082.34-.07.445.27.047.176a1.32,1.32,0,0,1-.75.211l-.855-.129-.27.094-.082.809.27.258h1.16l.68-.129.586.293.035.223a.753.753,0,0,1-.715.211l-.211-.07-.293.059-.047-.059h-1.2l-.2.2v.844a2.912,2.912,0,0,0,1.371.984l1.137.5.035.105a.947.947,0,0,1-.6.211l-2-.891-.07,1.113.059.2-.059.258-.023.188-.2.176Zm.891-6.094V5.277l-.3-.6-.691-.07a.957.957,0,0,0-.8.4A6.6,6.6,0,0,0,19.338,5.535Zm-.293-1.5.164-.539-.258-.246h-.867l-.469-.082-.152.645.094.258.609.152.07-.07h.715Zm0-1.359.094-.422A1.157,1.157,0,0,0,18.3,2.09l-.059.059h-.75l-.129.4.633.246h.961ZM33.274,11.43a.96.96,0,0,1-.2-.773l.07-.094V8.969L32.864,7.2V6.473l-.129-.328H32.4a1.88,1.88,0,0,1-.82.211H30.8l-.352.07L30.2,6.332l-.094.094h-.867l-.07.07h-1.23a10.465,10.465,0,0,1-2.074.516l-.4-.246-.035-.187a5.293,5.293,0,0,1,1.547-.492h1.066l.223-.41-.152-.457V3.578a1.391,1.391,0,0,0-.949-.187l-.375.059-.469-.281-.035-.234,1.184-.187.422.082.984-.258.094-.656-.082-.07V.754L28.88.766h.656a.551.551,0,0,1,.211.563l-.07.094V2.23l.281.375h.363l.645-.141h.914l.258.422L30.813,3.2a5.637,5.637,0,0,1-.891,2.742h.527l1.7-.211.4.082.129-.129.164-.164-.129-.141V4.7a1.753,1.753,0,0,1-.211-1.09l.07-.3-.059-.293.047-.047,2.355-.012,1.676.34.082.316L35.044,5.125a5.033,5.033,0,0,1,1.723,1.758v.293l-.457.7-.8.4h-.867l-.785-.27v.844l.129.656v1.465l-.223.4Zm-4.887-.7-.422-.352-.059-.387.129-.258V8.992l.328-1.934h.422l.645.387.621-.152h1.2l.188.141V8.793l-.07.082V9.59l-.328.469a3.542,3.542,0,0,1-1.078.316h-.926A.649.649,0,0,1,28.388,10.727Zm1.957-1.078a2.879,2.879,0,0,0,.3-1.676l-.7-.211-.9.5-.223,1.09.164.352.129.141h.961ZM35.653,7.4l.293-.633a5.393,5.393,0,0,0-1.98-1.594H33.5V6l.07.07v.75l.316.762.281.2h.8ZM29.442,5.793l.551-2.4-.469-.246L29,3.426l-.176.281V4.48l.059.188-.059.375L29.2,6.086ZM34.411,4.5l.727-.562V3.7L35,3.52H33.649l-.234.234v.891l.539.094Zm8.967,5.988a2.514,2.514,0,0,1-1.137-1.2V8.582l.539-.891q-1.2-2.1-2.215-4.242a.667.667,0,0,1,.539-.117l.422.352,1.605,3.293.188.059a11.082,11.082,0,0,1,2.086-1.852l.41.234.07.363-.9.773h-.117l-.059.176a11.4,11.4,0,0,0-1.734,2.215v.293a.877.877,0,0,0,.6.539h.48A6.7,6.7,0,0,0,46,8.758l.176-.234h.48l.352.6-.234.117-.059.176a13.935,13.935,0,0,1-2.332,1.078Zm13.959.621-.422-.422-.117-.656.117-.422-.059-.059V8.582L56.8,8.523V7.258l.059-.059V6.531h-.176a22.47,22.47,0,0,0-3.2,3.387H53.06L52.7,9.191,55.591,6.3h.117l.129-.246,1.02-.961V4.9l-.234-.059q-1.758.48-3.5.785l-.3-.234V4.9q2.051-.48,4.1-.9l.059-.059V2.734l-.059-.059v-.9l.48-.117.434.352v.609l-.129.176v.668l.059.422h.246a11.346,11.346,0,0,1,1.8-.363l.422.422v.3l-1.324.3h-.785l-.363.176-.059.059V5.57l-.059.059v.9l-.059.246.059.176-.059.363.059.188-.059.059V8.828l.059.059v.6l.117.3v.727l.07.363A.393.393,0,0,1,57.338,11.113Zm12.19.035-.234-.187v-.352a27,27,0,0,0,1.664-5.59h-.422A26.579,26.579,0,0,0,66.258,6.1l-.469-.422V5.5A26.991,26.991,0,0,1,69.82,4.375h.715l.422-.117h.715l.293.234v.6a39.546,39.546,0,0,1-1.781,6l-.059.059Zm13.057.023-.152-.164-.246-.363V9.566l-.059-.059V8.055a.484.484,0,0,0-.234-.48,13.839,13.839,0,0,0-1.875,2.473h-.293l-.434-.363V9.438l1.336-1.5h.117a9.311,9.311,0,0,1,.961-1.266l.188-.059,1.148-1.395.422-.059.352.246.07.234-.973.973v.293l.059.363-.059.551.059.059v.785l.07.176-.07.246.07.059v.9l.117.176v.785Zm9.67-.316A.625.625,0,0,1,91.9,10.2a33.223,33.223,0,0,0,5.672-2.1l.059.3A11.866,11.866,0,0,1,92.255,10.855Zm.785-2.508A13.97,13.97,0,0,1,90.532,6.73V6.555l.176-.246h.363a7.929,7.929,0,0,1,2.438,1.734Zm1.008-2.625-.41-.363a17.642,17.642,0,0,1-1.676-2.332l.293-.176a.739.739,0,0,1,.656.363l.539.715.961,1.008.117.48Q94.47,5.781,94.048,5.723Zm12.506,5.531-.352-.293-.352-1.652V8.723l-.176-.7-.176-.059a3.867,3.867,0,0,1-1.523.7l-.363-.352V8.078l1.887-.891.059-.176-.352-1.7a.4.4,0,0,1,.527-.176l.352.352.234,1.348.176.059a15.767,15.767,0,0,1,2.648-.7h.586l.3.293V6.66a6.169,6.169,0,0,1-1.3,2.063,1.56,1.56,0,0,1-1.055.41l-.234-.176V8.664l.7-.469a3.612,3.612,0,0,0,.762-1.3h-.293l-2.121.715-.059.293a20.138,20.138,0,0,0,.6,3.117ZM2.449,31.16l-.41-.176-.187-.6V29.074l.059-.059v-.832l.07-.07v-.6l.059-.059v-.715L2.1,26.2l-.059-.176.059-.539-.117-.832a.736.736,0,0,1,.586-.117l.246.117a.65.65,0,0,1,.176.6l-.059.059v1.313l-.059.059V28.77l-.059.07V29.5l-.059.059v.6l.176.715L2.7,31.16Zm3.645-.891-.48-.422A10.8,10.8,0,0,1,4.957,26.8v-.6l-.293-1.781.48-.187.469.422.059.293v.6l.188.715v.668a11.752,11.752,0,0,0,.469,2.32l.3.059q1.969-1.254,4.055-2.32l.422.234.059.234-.234.3A22.763,22.763,0,0,1,6.094,30.27Zm10.725,1.008-.469-.352v-.293a21.47,21.47,0,0,1,1.77-3.645q-1.125-.48-2.238-.891l-.117-.41a.634.634,0,0,1,.527-.117q1.113.41,2.238.82a21.358,21.358,0,0,1,2.355-4.113l.352-.059.352.176.059.352a21.067,21.067,0,0,0-2.473,4l2.414,1.242v.176l-.527.176-2.3-1a16.078,16.078,0,0,0-1.711,3.82Zm13.08-.551-.48-.539Q31.2,29,32.923,27.75h.117l.059-.176a7.092,7.092,0,0,1,2.086-1.184l.059.293a40.821,40.821,0,0,1-4.523,3.809H30.6l-.059.176-.059.059Zm.586-3.328-.656-.656a24.42,24.42,0,0,1-1.9-2.789.693.693,0,0,1,.715-.176q1.008,1.242,2.016,2.555l.188.352v.6Zm9.448,3.938a.674.674,0,0,1-.352-.773,56.408,56.408,0,0,1,2.32-5.414l.469-.059.246.117.117.539a43.119,43.119,0,0,0-2.32,4.758v.773Zm6.9-.891q-1.254-2.086-2.437-4.16l.352-.059.48.293a18.1,18.1,0,0,1,2.191,3.855Zm.891-4.219a36.3,36.3,0,0,0-1.02-4.641l.539-.059.422.422a18.278,18.278,0,0,1,.527,2.555v.586l-.059.059v1.02Zm-2.2-.656-.293-.176a22.219,22.219,0,0,0-.6-3.211l.48-.059.293.176q.293,1.184.6,2.438v.715l-.07.117Zm8.018,2.156-.387-.48.035-.293q3.035-.445,6.07-.926l.34.34.023.375-.2.234-.668-.07Zm12.014,3.281-.293-.246v-.41l.6-2.824-.234-.059-1.207.844-.48-.3-.059-.246q1.078-.773,2.1-1.43v-1.8l.6-.059a.541.541,0,0,1,.246.656l-.059.059v.9l.539.059.234-.117h1.02l.609.363.293,1.02a7.522,7.522,0,0,1-.832,3.234l-.609.059-.234-.48a7.139,7.139,0,0,0,.844-3.117l-.246-.422-.059-.059h-.785l-.715.3-.176.9v.715q-.3,1.2-.609,2.4Zm6.9-2.7A19.725,19.725,0,0,0,69.7,24.7l-.48-.48V23.93l.422-.117.949.832a20.891,20.891,0,0,1,2.461,3.363l-.176.234Zm-.234-3.07q-.844-1.137-1.746-2.332v-.246a.667.667,0,0,1,.539-.117,22.9,22.9,0,0,1,1.629,2.1l.059.363A.588.588,0,0,1,72.223,25.242Zm1.793-.176a19.311,19.311,0,0,0-1.676-2.461l-.246-.176-.059-.422.48-.117.422.234.188.363.176.059a4.524,4.524,0,0,1,1.137,2.52Zm4.819,6.328a.857.857,0,0,1-.41-.867l1.02-2.7-.855-.187-.234-.363a14.939,14.939,0,0,1,1.664-.328l.445-1.289-.176-.187h-.879l-.6-.164-1.453,2.18-.539.07-.176-.152v-.363l.059-.152a21.261,21.261,0,0,0,1.852-2.73,4.888,4.888,0,0,1-1.547-1.336v-.117h.609l1.055.9h.375l.891-1.594-.844-.117-1.512.223-.434-.434v-.059l1.137-.258H80.9l.352.3v.164A15.213,15.213,0,0,0,79.631,24.7l.563.035.586.094.105-.082h.832l.059-.094H83.9a11.227,11.227,0,0,1-1.828-2.273l-.07-.34a12.353,12.353,0,0,1,3.023-1.113l.352.176.035.2L83.3,22.395l-.117.457.6.832h.4a3.992,3.992,0,0,1,1.43-1.641h.516l.352.3v.129A6.576,6.576,0,0,0,84.694,24l-.117.422L86.7,26.3v.2l-.41.082a11.823,11.823,0,0,0-1.477-1.23l-.7-.152h-1.43l-.562.07-.562.141A2.463,2.463,0,0,0,81.1,26.73l.844.07.328-.176.176-.551.234-.41.387.141.223.715.117.152h1.172l.5.246.035.211a1.532,1.532,0,0,1-.809.2l-.844-.082-.258.668a2.947,2.947,0,0,0,.773,1.77,1.66,1.66,0,0,0,1.16.293l1.219-.234.34.246v.141a2,2,0,0,1-1.043.445h-1.2a2.275,2.275,0,0,1-1.23-.75,4.642,4.642,0,0,1-.949-2.379l-.656-.117-1.008.258L79.245,31.16l.035.141Zm16.373-.117-.492-.328-.035-.035v-.891l.246-1.172v-.738l.4-.176.984.445.094-.105h.973l1.559.5.176.445-.059.2.152.785a1.142,1.142,0,0,1-.727.633l-.352.082H96.743A5.088,5.088,0,0,0,95.208,31.277Zm-3.68-.949-.574-.3-.07-.34.223-.668V27.645l.07-.059V25.617l-.094-.4h-.352a15.964,15.964,0,0,0-1.2,1.84l-.363.059-.5-.246-.059-.234.141-.375a48.624,48.624,0,0,1,3.27-3.926h.141l.457.27.059.4-1.113,1.2v.281a4.7,4.7,0,0,1,.527,2.215l-.082.422.082.082v.867l-.07.07v1.641l-.2.434Zm6.609-.246.105-.352-.258-.656-.34-.176h-.914l-.9.164-.246,1.008.645.27.094-.094H97.7ZM95,27.047l-.445-.387V26.4l.223-.094h2.566l.4-.07.668.328v.316l-.293.164h-.973l-.059-.07H95.794l-.059.07Zm-.141-1.828a.743.743,0,0,1-.469-.691l.422-.105.059.059h1.594l.082-.07h1.113l.457.316V25l-.176.152H96.755l-.469-.07Zm-.3-1.91-.586-.387-.047-.34.07-.082h1.148l.7-.246.188-.281V20.5l.516-.07.387.328v.457l-.082.7.281.27h.8l.188-.047.059.047h1.09l.375.34v.188a1.144,1.144,0,0,1-.738.234l-.07-.059H96.942Zm11.686,7.84-.363-.422v-.844l.234-.422.609-.07.3.3V30l-.07.246.07.176-.363.668ZM106.05,27.7l-.363-.293V26.2a13.721,13.721,0,0,1,1.207-4.465h.3l.422.246.117.48a15.932,15.932,0,0,0-1.207,4.277v.785Z" transform="translate(2583.5 -163.5)" fill="#707070"/>
  </g>
</svg>
