<svg xmlns="http://www.w3.org/2000/svg" xmlns:xlink="http://www.w3.org/1999/xlink" viewBox="0 0 1052.07 178.69"><defs><style>.cls-1{fill:url(#名称未設定グラデーション_13);}.cls-2{isolation:isolate;}.cls-3{fill:#707070;}.cls-4{fill:none;stroke:#8ddcd1;stroke-miterlimit:10;stroke-width:1.5px;}</style><linearGradient id="名称未設定グラデーション_13" x1="218.34" y1="397.04" x2="833.72" y2="-218.34" gradientUnits="userSpaceOnUse"><stop offset="0" stop-color="#e3fdf5"/><stop offset="1" stop-color="#fafaec"/></linearGradient></defs><g id="レイヤー_2" data-name="レイヤー 2"><g id="レイヤー_1-2" data-name="レイヤー 1"><path id="パス_254" data-name="パス 254" class="cls-1" d="M0,0H1052.07V178.69H0Z"/><g id="_登録しようとしている方へ_" data-name=" 登録しようとしている方へ " class="cls-2"><g class="cls-2"><path class="cls-3" d="M391,87.75c-.06.18-2,4.14-8.7,4.26-1.32,0-1.38.12-1.32.24a25.49,25.49,0,0,0,1.26,2.94c.84,1.74,3.12,5.46,1.32,8a3.87,3.87,0,0,1-3.12,1.32c-2.4-.18-4.62-1.14-6.9-1.74-3.6-1-8.16-1.8-11.94-.42-2.28.9-4.8,2.94-4.14,5.94,1,3.66,6.12,4.68,9.48,5a50.88,50.88,0,0,0,12.72-.3c2.46-.3,2.82,3.54.42,3.84H380a54,54,0,0,1-13.56.06c-4.38-.72-11-2.58-11.94-8-.78-4.14,2.28-7.68,6.36-8.82,5.46-1.5,11.52-.12,17,1.44,2.1.54,3,.06,2.7-1-.12-.3-.78-1.92-1.68-3.78-.66-1.5-1.26-2.94-1.86-4.38a.4.4,0,0,0-.3-.24H357.3a1.26,1.26,0,0,1-1.26-1.2c0-.9.72-1.14,1.38-1.32,1.86-.48,14.28-4,11.16-8-2-2.58-7.5-1.86-12.18-1.56-2,.18-2.34-3.06-.24-3.18,4.62-.3,15.48-.84,15.12,6-.18,3.42-4,5.16-7.38,6.48a.18.18,0,0,0,.06.36h11.82c.12,0,.18-.12.18-.24a54.75,54.75,0,0,1-3.48-15.06s-.06-.84-.12-1.32a1.87,1.87,0,0,1,3.72-.24v.06c0,5.34,1.44,10.74,3.66,16.56,0,.18.18.24.3.24h2.4c4.8,0,6.24-2.76,6.3-2.88C389.4,85.29,391.68,86.31,391,87.75Z"/><path class="cls-3" d="M455.28,112.41c-3.42,4.26-8.88,6.84-13.86,4.44a7.44,7.44,0,0,1-3.78-4.74c-.66-2.28-.24-4.5-.36-6.66-.18-3.54-2-6.48-5.46-5.7-3.12.72-4.92,2.22-6.84,4.74a76.3,76.3,0,0,0-6.48,10.62,11.68,11.68,0,0,1-.9,1.8c-1.44,2.28-5,.42-3.6-1.8a222.44,222.44,0,0,0,12.24-19.8C430.08,88.11,432.6,83,433,74c.18-2.58,4.08-2.64,4.08-.06,0,1,0,1.56-.06,2.28-.72,7.86-4.2,14.64-8.4,21.84a.33.33,0,0,0,.48.42,8.2,8.2,0,0,1,2.22-.9c5.52-1.08,9,2.94,9.24,7.74.12,2.28-.06,4.14.54,5.7a4,4,0,0,0,2.94,2.58c3.42.54,6.36-1,8.58-3.42A30.29,30.29,0,0,0,459.12,97c.3-1.2,2.28-.6,1.92.54C460,102.93,458.58,108.21,455.28,112.41Z"/><path class="cls-3" d="M512.22,118.11c-10.8,2.58-16.38-7.8-16.38-17.52V75.87a1.38,1.38,0,0,0-1.32-1.38h-2a1.14,1.14,0,0,1,0-2.28h1.74c3.36,0,5.28,1.86,5.28,5.22v23c0,7.26,3.24,17,12.24,15.54C513.18,115.65,513.48,117.75,512.22,118.11Zm2.34-28.32c-.48,1.68-2,1.74-2.58.3a20.14,20.14,0,0,0-6.06-8,.67.67,0,0,1,.54-1.2C507.6,81.09,515.46,85.17,514.56,89.79Zm6-3.12c-.24,1.68-1.92,1.8-2.46.36a20,20,0,0,0-6.48-7.68.69.69,0,0,1,.48-1.26C513.3,78.33,521.22,82,520.56,86.67Z"/><path class="cls-3" d="M574.8,93.39a7.11,7.11,0,0,1-3.24-2c-.12-.06-.3,0-.3.12v16.68c0,.18.06.3.24.3a41.26,41.26,0,0,1,8,2.82c1.14.48,2.22,1.08,3.36,1.68,1.86,1,.3,4.14-1.68,3-1.08-.54-2.1-1.32-3.18-1.92a40.46,40.46,0,0,0-6.48-2.94c-.12,0-.24.06-.24.18a8.71,8.71,0,0,1-1,3.18c-2.22,3.9-8.76,4-12.36,3a8.05,8.05,0,0,1-4-2,4.21,4.21,0,0,1-.72-4.68,5.89,5.89,0,0,1,3.3-2.88c3.42-1.2,7.56-.6,11.1-.12a.22.22,0,0,0,.24-.24V89.13a9.69,9.69,0,0,0-.9-4.56,8,8,0,0,0-1.56-2.34v-.06c-1.68-1.38.84-2.58,2.28-1,1.44.66,2.52,2.46,3.06,4.74.6,2.58,1.92,4.68,4.62,5.28,2.34.54,4.68-.84,6.18-2.76,1.14-1.38,3.36.3,2.16,1.62C581.76,92.61,578.34,94.47,574.8,93.39Zm-7,16.92a.4.4,0,0,0-.24-.3c-3.3-.78-7.14-1.62-10.38-.24a3.77,3.77,0,0,0-2.22,1.92,1.86,1.86,0,0,0,.48,2.22c2.58,2.34,10.32,2.88,11.94-.84A11.15,11.15,0,0,0,567.84,110.31Z"/><path class="cls-3" d="M618.48,107.73a7.09,7.09,0,0,1,3.66,6.42,7.43,7.43,0,0,1-10.74,6.66,7,7,0,0,1-4.26-6.66,7.14,7.14,0,0,1,3.54-6.36,7.25,7.25,0,0,1,3.9-1.2A7.4,7.4,0,0,1,618.48,107.73Zm-7.8,2.7a4.93,4.93,0,0,0-1.44,3.72,5.49,5.49,0,0,0,.84,2.82,5.11,5.11,0,0,0,4.56,2.52,5,5,0,0,0,3.48-1.32,5.17,5.17,0,0,0,1.92-4,5.23,5.23,0,0,0-2.28-4.44,5.53,5.53,0,0,0-3.12-1A5.47,5.47,0,0,0,610.68,110.43Z"/><path class="cls-3" d="M723.3,95.31a17.1,17.1,0,0,1-3.24,11.1,21.08,21.08,0,0,1-7.38,6.36c-3.48,1.86-7.26,2.88-13.08,3.48-1.26.12-1.5-1.86-.24-2a29.94,29.94,0,0,0,11.88-4,17.74,17.74,0,0,0,5.82-5.76,18.17,18.17,0,0,0,2.34-9.18,17.41,17.41,0,0,0-3.54-10,17.83,17.83,0,0,0-13.5-6,.26.26,0,0,0-.24.24v.72a41.48,41.48,0,0,1-.06,4.62,34.4,34.4,0,0,1-5.1,16.74c-3.12,4.8-9.24,9.78-15,6.06-5.16-3.3-4.68-11.1-2.58-16a23.37,23.37,0,0,1,13.14-12.6,27.3,27.3,0,0,1,13.62-1.68c4.5.6,8.88,2.28,12.12,5.88a20.25,20.25,0,0,1,5,11.88ZM699.6,79.77a.26.26,0,0,0-.24-.24,22.14,22.14,0,0,0-5.88,1.74c-5.4,2.7-10.26,7.62-11.64,14.1-.66,3.42-.6,8.94,3.72,9.78s7.56-3.78,9.48-6.9a33,33,0,0,0,4.32-13.56c.18-1.92.18-3.36.24-4.38Z"/><path class="cls-3" d="M788.4,104.43c-.3,10.56-13,13.44-20.88,9.06a12,12,0,0,1-3.48-2.76c-.66-.78-1-1.26-1-1.26-.72-1.08,1-2.28,1.68-1.2h.06a10.42,10.42,0,0,0,3.84,3.18c5.88,2.82,15.06,1.26,15.84-6.42a8.6,8.6,0,0,0-3.9-8.1c-5.88-3.78-15-.42-20.64,2.34a.49.49,0,0,0-.24.36v6.3a18.83,18.83,0,0,1-.54,5.88,5.21,5.21,0,0,1-6.36,3.66c-2.7-.66-6.78-3.48-7.32-6.36-.78-3.84,3.36-6.06,6.06-7.68,1.5-1,3.06-1.86,4.62-2.7a.41.41,0,0,0,.24-.36V87.75a.27.27,0,0,0-.3-.24h-7.32a1.23,1.23,0,0,1,0-2.46h7.32a.27.27,0,0,0,.3-.24v-9a1.65,1.65,0,0,1,3.3,0v8.94c0,.12.12.24.24.18a14,14,0,0,0,6.24-1.68,1.23,1.23,0,0,1,1.44,2c-.12.12-2.58,1.86-7.68,2.22a.26.26,0,0,0-.24.24v9.06c0,.12.12.24.24.18,6.54-2.88,15.84-6.48,23-2.1A10.72,10.72,0,0,1,788.4,104.43Zm-32.1-3.06c0-.12-.12-.18-.24-.12-1.32.78-2.64,1.62-3.9,2.46-1.44.9-4.32,2.52-4,4.56.24,1.56,3.54,3.36,5,3.78a1.94,1.94,0,0,0,2.7-1.32,16.9,16.9,0,0,0,.48-4.8C756.36,104.37,756.3,102.87,756.3,101.37Zm32.16-17.16c-5-4.2-9.24-5.4-15.18-2a1.05,1.05,0,0,1-1.08-1.8c5.88-4.38,13-3.54,18.3,1.26C792,83.07,790.08,85.53,788.46,84.21Z"/><path class="cls-3" d="M831.18,76.65V68.31c0-.6.3-1,1-.9q4.86.36,4.86,1.44c0,.48-.78,1-2.4,1.62v6.18h16.08l2.46-3.3a.82.82,0,0,1,1.32-.12c1,1,2,2,2.94,3.06a1.18,1.18,0,0,1,.12,1.32,1.09,1.09,0,0,1-1.08.54H814.74v11.1q0,20.52-7.8,31.26a.85.85,0,0,1-1.32.18c-.42-.24-.42-.66-.18-1.2,3.78-7.26,5.7-17.34,5.7-30.18V76.17c0-.72.42-1,1.08-.78,1.08.42,2,.84,2.82,1.26Zm1.44,24.42V80.79a.84.84,0,0,1,1-.9c3.36.3,5,.72,5,1.44,0,.48-.84,1-2.52,1.68v6.54h12.66l2.34-3.12a.82.82,0,0,1,1.32-.12,26.39,26.39,0,0,1,2.76,3,.92.92,0,0,1,.06,1.26c-.12.3-.48.48-1,.48H836.16v10h10.92l1.62-1.86a.87.87,0,0,1,1.38-.12c2,1.56,2.94,2.64,2.94,3.06q0,.36-.54.72l-1.32.9v16.44a.86.86,0,0,1-1,1h-1.68a.86.86,0,0,1-1-1v-3.36H821.88v3.36a.84.84,0,0,1-.9,1h-1.62a.88.88,0,0,1-1-1V100.53c0-.72.42-1,1.08-.78a33.66,33.66,0,0,1,3.18,1.32Zm-10.74,1.5v12.78h25.68V102.57Z"/></g></g><path class="cls-3" d="M259.85,38.6c1.42,1,.66,2.49.68,3.72a1.94,1.94,0,0,0,1.07,1.94,49.21,49.21,0,0,1,10.21,8.41,70.78,70.78,0,0,0,6.2,5.22c2.19,1.87,4.48,3.66,6.49,5.71,1.18,1.2,2.34,2.38,3.6,3.49a4.6,4.6,0,0,1,1.18,1.57,35.48,35.48,0,0,0,3.09,5.24,6.07,6.07,0,0,1,.93,4.17c-.41,4-.61,8.11-.65,12.2a123.7,123.7,0,0,1-.46,12.61c-.28,2.54.35,5.24.08,7.84-.35,3.42-.15,6.85-.49,10.26-.14,1.34.2,2.66.1,4a28.2,28.2,0,0,0-.06,6c.31,2.15-.16,4.25.1,6.36.13,1.06-.17,1.57-1.34,1.73a26.5,26.5,0,0,1-8.05-.09,12.14,12.14,0,0,0-3.28.17A62.24,62.24,0,0,1,259.7,139a29.07,29.07,0,0,0-9.07.15c-3.17.4-6.36.48-9.55.6-5.54.21-11.1.29-16.65.42-.58,0-1.23,0-1.56-.57-.43-.8.34-1,.78-1.27s.25-.56.23-.91c-.24-3.95,0-7.91-.37-11.87-.26-3,.05-6,0-9-.12-3.88-.08-7.75-.22-11.62-.18-5.23-.14-10.48-.05-15.72.06-3.25.46-6.51.15-9.75-.15-1.57,1.78-2.4,1.29-3.73-.68-1.84.66-2.61,1.48-3.58,1.29-1.5,2.79-2.82,4.23-4.19.93-.87,1.5-2.19,2.69-2.69,2.3-1,3.11-3.39,5-4.82.82-.63,2-1.21,2.38-1.92a10.37,10.37,0,0,1,3.23-3.08c3.7-2.68,7.06-5.79,10.57-8.69,1.47-1.21,2.94-2.38,4.51-3.44a1,1,0,0,0,.49-1.12,5.32,5.32,0,0,1,.74-3.61Zm-34,41a20.06,20.06,0,0,0-.83,5.08c.07,4.81-.05,9.63.18,14.42.06,1.38-.46,2.65-.21,4a12.46,12.46,0,0,1,.13,5.16c-.36,1.6.7,3.08.51,4.76a9.85,9.85,0,0,0-.27,3c.57,2.8-.15,5.6.14,8.42.13,1.33.4,2.66.44,4,.06,2.18-.18,4.35,0,6.54.28,3.23.25,3.26,3.4,3.09.3,0,.59,0,.88,0,3.18,0,6.35.06,9.53-.15,3-.2,5.93-.3,8.9-.45a1.55,1.55,0,0,0,1.42-2.14,6,6,0,0,1-.24-2.45,40.29,40.29,0,0,0,.06-7.2,80.2,80.2,0,0,1,.54-8.09,4.6,4.6,0,0,1,1.43-2.87,9,9,0,0,1,4.14-2.47c1.59-.49,3.44-1,5-.18,2.78,1.54,4.92,3.67,5.34,7.14.19,1.67.12,3.37.33,5a34.86,34.86,0,0,1-.58,10.84c-.4,2.16.09,3.2,2.23,3.14a33.84,33.84,0,0,0,8-.9,4,4,0,0,1,2.14-.06,4.84,4.84,0,0,0,2.26.14,39.37,39.37,0,0,1,8.12.21c.7.08,1.1-.17,1-1a24.43,24.43,0,0,1-.51-2.71c0-3,.15-6.09,0-9.12-.38-6.83.41-13.62.59-20.44.08-3.06.37-6.13.27-9.19-.13-3.92,0-7.83,0-11.75,0-1.66.55-3.31.25-5.08A11.6,11.6,0,0,0,288,80.4c-2.32,2.35-7,2.06-8.91-.62-.54-.76-1.09-.8-1.4-.06a9.57,9.57,0,0,1-3.72,4,4.32,4.32,0,0,1-5,.12,18.18,18.18,0,0,1-5.21-5.2c-.15-.25-.32-.81-.71-.36s-1.23.66-1.68,1.32c-2.15,3.16-7.93,5-11.6,3.9-2.13-.64-3.29-2.27-4.44-3.93S244.27,78,243,79.25A55.81,55.81,0,0,1,238.76,83a7.16,7.16,0,0,1-7.55,1.19A11.26,11.26,0,0,1,225.88,79.62Zm30.78-32.17a33.47,33.47,0,0,0-2.93,2.11c-4.68,4.22-9.76,8-14.27,12.4-1.16,1.14-2.73,1.84-3.71,3.06-2.16,2.7-5,4.72-7.21,7.3-.75.86-1.57,1.21-1.39,2.94.27,2.47.76,4.44,2.58,6.18,1.47,1.4,4.93,2,6.75,1.07a32,32,0,0,0,5.09-4c1.28-1.06,2.83-2.33,3.24-3.79.71-2.55,2.41-4.69,2.65-7.43a10.82,10.82,0,0,1,1.19-4.17c1.28-2.39,2.76-4.65,4-7.06C254.07,53.35,255.72,50.8,256.66,47.45Zm4.39,27.09c-.87-3.14-.54-6.42-.77-9.64-.34-4.91-.43-9.85-.8-14.76a5.11,5.11,0,0,1,.09-2.71.72.72,0,0,0-.46-1c-.71-.18-.37.5-.56.74a6.59,6.59,0,0,0-1.32,2.7c-.57,3.51-2.77,6.22-4.29,9.22s-3.37,5.65-3.75,9c-.3,2.62-2,4.74-2.49,7.38-.3,1.68-.51,2.89.86,4,0,0,0,.1.07.12.89.7,1.27,2,2.54,2.23a10.58,10.58,0,0,0,8.46-1.88C260.12,79,262,77.14,261.05,74.54Zm4,48c.1-1-.48-2.7-.85-4.46-.42-2-1.82-3.24-3.36-4.38a1.93,1.93,0,0,0-1.51-.31c-.87.13-1.72.29-2.59.39a4.4,4.4,0,0,0-3.84,2.83c-1.11,2.68-.87,5.55-1.09,8.34-.26,3.13.07,6.31-.08,9.45-.12,2.55-.27,2.55,2.13,2.53a2.89,2.89,0,0,1,.29,0,48.4,48.4,0,0,1,9,.72c.57.12.82-.13,1-.7a9.48,9.48,0,0,0,.41-3.05C264.6,130.45,264.83,126.94,265,122.57Zm-2.3-75.21c.69,3.34,2.39,5.81,3.8,8.39,1,1.75,2.22,3.33,2.67,5.34.1.46.31,1.12.64,1.25a5.1,5.1,0,0,1,2.56,3.29c.84,2.42,2.86,4,3.7,6.41a20.73,20.73,0,0,0,1.17,2.23c.8,1.54,2.3,2.47,2.94,4.09a3.59,3.59,0,0,0,3.54,1.89c1.86-.11,3-1.17,4.21-2.49,1-1.16,1.68-3.16,1.09-4.47-2.24-4.92-6.11-8.49-10.12-11.82-3.53-2.93-7.06-5.83-10.33-9.06C266.86,50.68,264.89,49.19,262.74,47.36Zm-.41,22.8c-.52,2.93,1,5.28,2.42,7.49a15.23,15.23,0,0,0,3.91,3.52c2.64,2,2.68,1.93,5.22.17s3.22-4.31,1.49-7.1c-1.95-3.17-4-6.3-5.88-9.5-.72-1.22-.76-2.84-2.15-3.68-.1-.06-.11-.27-.16-.4-.77-2-1.35-4-2.83-5.66s-1.74-3.54-2.56-5.33c-.12-.28-.2-.61-.56-.53s-.2.44-.17.71c.2,2.1-.05,4.22.41,6.32.3,1.4,0,2.95.2,4.32C262.2,63.72,261.92,67,262.33,70.16Z"/><path class="cls-3" d="M259.85,38.6l.06,0a12.23,12.23,0,0,1-.79-6,9.17,9.17,0,0,0-.44-3.8c-.34-.87.16-1.36,1.07-.94A79.82,79.82,0,0,1,267,31.33c1.68,1,3.59,1.58,5.38,2.41,1.22.57,1.12,1.36.13,2.28-2.24,2.07-5.22,1.77-7.81,2.67a16.38,16.38,0,0,0-1.71.75,1.06,1.06,0,0,1-1.5-.47c-.44-.65,0-.95.47-1.28a6,6,0,0,1,3-1,22.28,22.28,0,0,0,5.34-1.55c-.05-.63-.55-.79-.9-.91a67.64,67.64,0,0,1-7.72-3.84c-.79-.4-1.2-.71-1.23.72a48.18,48.18,0,0,1-.06,5.76A4.46,4.46,0,0,1,259.85,38.6Z"/><path class="cls-3" d="M183.58,119.79c-.57-2.91.35-5.81-.13-8.72-.25-1.53.64-2.59,2.2-2.36,3.33.48,6.72.23,10,.88,1.45.29,2-.07,1.91-1.46-.12-1.7.6-2.38,2.29-2.17a24.26,24.26,0,0,0,3.41.15c1.35,0,1.92.48,1.62,1.85s.44,1.83,1.62,1.51c2.68-.73,5.31,0,8,.22a2.06,2.06,0,0,1,1.9,2.22c-.21,4.73.18,9.43.28,14.15.06,3.07-.65,3.67-3.65,3.58-2.67-.08-5.27.71-8,.7-1.24,0-1.22,1.64-.85,2.65.65,1.82.39,3.66.38,5.5a1.73,1.73,0,0,1-1.62,1.88,11,11,0,0,1-5.54-.53,1.18,1.18,0,0,1-.81-1.7c.64-1.95.16-4.08.75-6.08.32-1.06-.25-1.47-1.28-1.33-2.85.39-5.7,0-8.54.14-.71,0-1.26,0-1.53-.63A38,38,0,0,1,183.58,119.79Zm28.23,7.82c2.05.2,2.2,0,2.32-2a18.13,18.13,0,0,0-.3-3.47c-.39-3.09.18-6.19-.13-9.28-.06-.67,0-1.31-1.11-1.23-2.3.18-4.66-.08-6.9.07-4.35.29-8.59-1-12.91-.43a5.14,5.14,0,0,1-1.27-.16c-1.39-.16-2.78-.35-4.17-.49-.89-.1-1.31.32-1.46,1.23-.43,2.52,0,5,0,7.56,0,3,1,6,1.41,9,.15,1.18.93,1,1.48.89,2.85-.79,5.78-.68,8.68-.79C202.25,128.33,207.05,128.43,211.81,127.61Zm-11.22,2.82c-.8-.14-1,.32-1.23,1-.48,1.75,0,3.53-.22,5.28-.11.74-.36,1.49.52,1.9a2.43,2.43,0,0,0,2.28-.37,1.57,1.57,0,0,0,.45-2,3.61,3.61,0,0,1,.15-2.81A2.07,2.07,0,0,0,200.59,130.43Zm.43-20.92c1.48.16,1.58-.93,1.77-1.78s-.51-.56-.84-.43c-.93.34-2.51-.39-2.63,1.24C199.23,109.69,200.45,109.34,201,109.51Z"/><line class="cls-4" x1="10.39" y1="8.76" x2="1041.67" y2="8.76"/><line class="cls-4" x1="10.39" y1="169.41" x2="1041.67" y2="169.41"/></g></g></svg>