<svg xmlns="http://www.w3.org/2000/svg" xmlns:xlink="http://www.w3.org/1999/xlink" viewBox="0 0 1052.07 188.97"><defs><style>.cls-1{fill:none;}.cls-2{fill:#8ddcd1;}.cls-3{isolation:isolate;}.cls-4{fill:#707070;}.cls-5{clip-path:url(#clip-path);}.cls-10,.cls-6,.cls-9{fill:#fff;}.cls-7{fill:#81bfb7;}.cls-8{clip-path:url(#clip-path-2);}.cls-10,.cls-9{stroke:#707070;stroke-linecap:round;stroke-linejoin:round;}.cls-9{stroke-width:1.08px;}.cls-10{stroke-width:1.01px;}.cls-11{fill:#25ce69;}.cls-12{fill:#06c755;}</style><clipPath id="clip-path"><rect class="cls-1" x="103.79" y="31.32" width="129.36" height="147.32"/></clipPath><clipPath id="clip-path-2"><rect class="cls-1" x="822.86" y="45.37" width="122.7" height="132.93"/></clipPath></defs><g id="レイヤー_2" data-name="レイヤー 2"><g id="レイヤー_1-2" data-name="レイヤー 1"><path id="パス_254" data-name="パス 254" class="cls-2" d="M0,0H1052.07V178.69H0Z"/><g id="LINEで編集部と話してみる" class="cls-3"><g class="cls-3"><path class="cls-4" d="M420.87,101.85l-.52,8.78a.72.72,0,0,1-.77.72H395.1a.64.64,0,0,1-.72-.72c0-.38.24-.62.72-.67a8.56,8.56,0,0,0,2.73-.53c1-.43,1.44-1.49,1.44-3.17V82.74c0-1.63-.48-2.64-1.34-3.12a10.47,10.47,0,0,0-3-.72.7.7,0,0,1-.72-.77c0-.38.24-.62.72-.62h11.91a.71.71,0,0,1,.77.77c0,.38-.29.57-.77.62a11.34,11.34,0,0,0-3,.72c-.77.43-1.16,1.44-1.16,3.12v23.47c0,1.44.24,2.36.77,2.74a4.86,4.86,0,0,0,3.27.82h2.92c4,0,6.63-.72,7.88-2.26a12,12,0,0,0,2.06-5.71.7.7,0,0,1,.77-.72C420.73,101.08,420.92,101.37,420.87,101.85Z"/><path class="cls-4" d="M440.75,111.35H429a.67.67,0,0,1-.76-.72c0-.38.28-.62.72-.67a11.71,11.71,0,0,0,2.83-.53c.91-.38,1.34-1.44,1.34-3.17V82.69c0-1.68-.38-2.73-1.2-3.12a8.23,8.23,0,0,0-3-.67.72.72,0,0,1-.72-.77c0-.38.28-.62.76-.62h11.77a.68.68,0,0,1,.72.77c0,.38-.25.57-.72.62a10.71,10.71,0,0,0-2.69.58c-1,.43-1.54,1.48-1.54,3.21v23.57c0,1.63.43,2.64,1.3,3.07a7.58,7.58,0,0,0,2.93.63c.47.05.72.29.72.72S441.22,111.35,440.75,111.35Z"/><path class="cls-4" d="M485.72,78.9a8,8,0,0,0-2.54.53c-.91.43-1.39,1.49-1.39,3.17v28.46c0,.53-.24.77-.77.77h-.72a1,1,0,0,1-.91-.48L458.07,81.4h-.14v24.81c0,1.64.43,2.69,1.25,3.12a6.89,6.89,0,0,0,2.73.63.73.73,0,0,1,.72.81c0,.39-.24.58-.76.58H451.54c-.52,0-.76-.24-.76-.72s.24-.62.72-.67a7.92,7.92,0,0,0,2.68-.53c1-.43,1.4-1.49,1.4-3.22V82.79c0-1.73-.44-2.83-1.25-3.27a9.71,9.71,0,0,0-3-.62.7.7,0,0,1-.72-.77c0-.38.24-.62.77-.62h7.35a1,1,0,0,1,.91.48l19.68,27.74h.14V82.6c0-1.64-.43-2.64-1.24-3.08a7.59,7.59,0,0,0-2.88-.62c-.53-.05-.77-.29-.77-.77s.24-.62.77-.62h10.41c.48,0,.72.24.72.67S486.2,78.85,485.72,78.9Z"/><path class="cls-4" d="M523.26,101.75l-.58,8.88a.73.73,0,0,1-.81.72h-26a.67.67,0,0,1-.77-.72c0-.38.29-.62.72-.67a10.23,10.23,0,0,0,2.83-.58c.91-.38,1.35-1.44,1.35-3.12V82.64c0-1.48-.29-2.44-.92-2.88a7.37,7.37,0,0,0-3.26-.86.72.72,0,0,1-.72-.77c0-.38.29-.62.77-.62h25.44a.7.7,0,0,1,.77.72l.53,8.06a.69.69,0,0,1-.77.77q-.65,0-.72-.72a9.7,9.7,0,0,0-1.73-5.23c-1.15-1.39-3.74-2.07-7.68-2.07h-4.22a7,7,0,0,0-3.12.53c-.73.39-1.11,1.39-1.11,3.07V93h5.09c1.92,0,3.22-.43,3.89-1.29a6.51,6.51,0,0,0,1.1-2.93.7.7,0,0,1,.77-.72c.48,0,.67.24.67.77V99c0,.53-.24.77-.72.77s-.67-.24-.72-.72a7,7,0,0,0-.91-2.78c-.67-1.06-2-1.59-4.08-1.59h-5.09v11.48c0,1.53.34,2.54,1,2.92a5.52,5.52,0,0,0,3.27.68h4.22c3.79,0,6.34-.58,7.58-1.68,1.4-1.2,2.26-3.32,2.55-6.39a.71.71,0,0,1,.81-.72C523.07,101,523.31,101.27,523.26,101.75Z"/><path class="cls-4" d="M572.41,101.89c-.24,8.45-10.42,10.76-16.7,7.25a9.5,9.5,0,0,1-2.79-2.21c-.53-.62-.77-1-.82-1-.57-.87.77-1.83,1.35-1h0a8.26,8.26,0,0,0,3.07,2.54c4.7,2.26,12,1,12.67-5.14a6.88,6.88,0,0,0-3.12-6.48c-4.7-3-12-.33-16.51,1.87a.4.4,0,0,0-.19.29v5a15.07,15.07,0,0,1-.44,4.71,4.16,4.16,0,0,1-5.08,2.93c-2.16-.53-5.43-2.79-5.86-5.09-.62-3.07,2.69-4.85,4.85-6.15,1.2-.76,2.45-1.48,3.69-2.16a.32.32,0,0,0,.2-.28v-8.5a.22.22,0,0,0-.24-.19h-5.86a1,1,0,0,1,0-2h5.86a.23.23,0,0,0,.24-.19V79a1.32,1.32,0,0,1,2.64,0v7.15c0,.09.09.19.19.14a11.21,11.21,0,0,0,5-1.34,1,1,0,0,1,1.15,1.58c-.09.1-2.06,1.49-6.14,1.78a.2.2,0,0,0-.19.19v7.25c0,.09.09.19.19.14,5.23-2.3,12.67-5.18,18.43-1.68A8.56,8.56,0,0,1,572.41,101.89Zm-25.68-2.44a.12.12,0,0,0-.19-.1c-1.06.62-2.12,1.3-3.12,2-1.16.72-3.46,2-3.22,3.65.19,1.24,2.83,2.68,4,3a1.56,1.56,0,0,0,2.17-1.06,13.7,13.7,0,0,0,.38-3.84C546.78,101.85,546.73,100.65,546.73,99.45Zm25.73-13.73c-4-3.36-7.39-4.32-12.15-1.59a.84.84,0,0,1-.86-1.44c4.7-3.5,10.37-2.83,14.64,1C575.29,84.8,573.76,86.77,572.46,85.72Z"/><path class="cls-4" d="M588,113.41a.72.72,0,0,1-1.06,0c-.24-.29-.19-.58.15-1a48,48,0,0,0,11-17.38,77.85,77.85,0,0,0,3.17-11.81H588a.82.82,0,0,1-.86-.62c-.15-.34.14-.58.72-.58h13.63c.38-2,.77-4.94,1.15-8.83a.71.71,0,0,1,.87-.68c2.78.44,4.17.92,4.17,1.49s-.72.87-2.06,1.3c-.24,1.54-.48,3.17-.72,4.8L604.52,82h18l2.26-2.88a.69.69,0,0,1,1.06-.14c.77.72,1.63,1.63,2.64,2.73a1,1,0,0,1,.19,1.06.84.84,0,0,1-.82.43H604.28a74.9,74.9,0,0,1-1.92,7.92H618.2l1.44-1.73a.69.69,0,0,1,1.06,0c1.63,1.35,2.45,2.26,2.45,2.74,0,.24-.2.43-.53.62l-1.3.68a49.56,49.56,0,0,1-8.11,10.7,46.39,46.39,0,0,0,15.17,7.54c.58.14.67.53.24,1a10.15,10.15,0,0,0-1.3,1.53.7.7,0,0,1-1,.39,47,47,0,0,1-14.92-8.59.87.87,0,0,1-.29.28A44.19,44.19,0,0,1,594.2,115a.79.79,0,0,1-1-.34c-.19-.33,0-.62.48-.81a43.77,43.77,0,0,0,15.6-9.89,44.84,44.84,0,0,1-7.54-10.85A45.58,45.58,0,0,1,588,113.41Zm30.38-21.07H603a41,41,0,0,0,8.07,9.94A46.31,46.31,0,0,0,618.39,92.34Z"/><path class="cls-4" d="M648.73,105.49a11.73,11.73,0,0,0,6.81,4.71A49.66,49.66,0,0,0,669,111.64c3.69,0,7.82-.24,12.33-.58.63,0,.82.29.53.82a13,13,0,0,0-.53,1.53.79.79,0,0,1-.86.63H669.85c-7.25,0-12.48-.63-15.7-1.92a12,12,0,0,1-6.29-5.33,73.44,73.44,0,0,1-5.13,6.53c0,1.29-.19,1.92-.63,1.92-.62,0-1.48-1-2.59-2.93a.72.72,0,0,1,.24-1.06,55.86,55.86,0,0,0,6.29-4.51v-13h-5.81a.87.87,0,0,1-.86-.58c-.15-.38.14-.62.72-.62h5.52L647,90.9a.77.77,0,0,1,1.1-.1c1.49,1.3,2.26,2.12,2.26,2.5,0,.19-.14.38-.48.58l-1.15.72Zm-6.43-31.1c4.46,2.21,6.72,4.51,6.72,7,0,1.25-.58,1.87-1.78,1.87-.72,0-1.2-.53-1.58-1.58a14.3,14.3,0,0,0-4.18-6.2c-.34-.33-.43-.62-.19-.91A.79.79,0,0,1,642.3,74.39ZM667.11,92v4.32h7l1.63-2a.61.61,0,0,1,1.06,0c.72.67,1.34,1.34,1.87,1.92a.8.8,0,0,1,.1,1c-.1.2-.34.25-.72.25H667.11v4.89h9.6l1.68-2.11a.67.67,0,0,1,1.06-.1c.67.63,1.39,1.35,2.11,2.12a.8.8,0,0,1,.1,1c-.1.19-.34.24-.72.24H667.11v5.14a.67.67,0,0,1-.72.77h-1.34a.71.71,0,0,1-.77-.77v-5.14h-12a.89.89,0,0,1-.91-.53c-.19-.38.1-.67.67-.67h12.29V97.53h-9.65a.79.79,0,0,1-.86-.58c-.19-.34.05-.63.67-.63h9.84V92H652.86a.88.88,0,0,1-.87-.57c-.19-.39.1-.63.67-.63h7.49a1.77,1.77,0,0,1-.76-1.34,7.27,7.27,0,0,0-2-3.55.77.77,0,0,1-.1-1.11c.19-.19.43-.19.86,0,2.84,1.44,4.23,2.93,4.23,4.52a1.66,1.66,0,0,1-1,1.48h6.77a29.13,29.13,0,0,0,2.4-6.33H652.18a.87.87,0,0,1-.86-.58c-.14-.38.14-.62.67-.62h12.34V78.71H654a.89.89,0,0,1-.87-.58c-.19-.33.1-.62.68-.62h10.51V72.76a.68.68,0,0,1,.82-.73c2.64.15,4,.58,4,1.21s-.67.86-2.06,1.29v3h7.39l1.49-2c.33-.43.67-.48,1-.09a22.89,22.89,0,0,1,1.83,2,.83.83,0,0,1,0,1.06.85.85,0,0,1-.77.29h-11v4.56h9.45l1.54-2a.63.63,0,0,1,1.05-.1c.77.72,1.45,1.4,2,2a.87.87,0,0,1,.1,1.06c-.14.19-.38.24-.77.24h-9.74c2.59,1,3.88,1.77,3.88,2.3,0,.34-.62.58-1.92.67a20.73,20.73,0,0,1-2.78,3.36h6.29l1.68-2.06c.29-.43.62-.53.82-.34,0,.1.19.2.28.34a11.45,11.45,0,0,1,1.78,1.92.79.79,0,0,1,.1,1A.8.8,0,0,1,680,92Z"/><path class="cls-4" d="M714.44,76.26a44,44,0,0,0,4.37,4.94,39.35,39.35,0,0,0,5.28-6.81.71.71,0,0,1,1.06-.29c2,1.2,3,2.06,3,2.69,0,.33-.38.53-1,.53a6.67,6.67,0,0,1-1.11-.15,42.08,42.08,0,0,1-6.24,5,39.73,39.73,0,0,0,4.18,3.36,39.11,39.11,0,0,0,5.52-6.34.74.74,0,0,1,1.05-.24c1.88,1.2,2.84,2.11,2.84,2.74,0,.33-.29.48-.87.48a5.92,5.92,0,0,1-1.15-.15,39.85,39.85,0,0,1-6.19,4.37A50.72,50.72,0,0,0,734.22,91c.53.19.58.57.19,1a8.06,8.06,0,0,0-1.1,1.49.62.62,0,0,1-1,.34,46,46,0,0,1-18.72-16.42Q707,89.08,693.18,95.08a.77.77,0,0,1-1-.24c-.24-.34-.1-.63.33-.92A43.1,43.1,0,0,0,711,76.12H699a.88.88,0,0,1-.86-.58c-.15-.38.14-.62.67-.62h12L712.52,73a.77.77,0,0,1,1.06-.14c1.63,1.1,2.45,1.87,2.45,2.31,0,.19-.15.38-.44.52Zm1.78,35.91a57.83,57.83,0,0,0,3.17-7.92.67.67,0,0,1,1-.44c2.36.87,3.56,1.59,3.56,2.16,0,.39-.63.63-1.92.72a48.48,48.48,0,0,1-4.18,5.48h11l2.16-2.55a.64.64,0,0,1,1.06-.05,24.41,24.41,0,0,1,2.49,2.5.81.81,0,0,1,0,1.06c-.09.19-.34.24-.72.24H693.42a.92.92,0,0,1-.92-.53c-.14-.39.1-.67.68-.67ZM696.44,77.84a15.26,15.26,0,0,1,5.23,2.84,4,4,0,0,1,1.78,2.88c0,1.24-.58,1.82-1.68,1.82-.67,0-1.25-.48-1.63-1.44A12,12,0,0,0,695.82,79c-.39-.24-.53-.58-.34-.92A.8.8,0,0,1,696.44,77.84ZM722.51,93.3l1.29-1.49a.66.66,0,0,1,1.06-.09c1.53,1.1,2.3,1.92,2.3,2.25s-.19.44-.48.63l-1,.62v7.83a.66.66,0,0,1-.76.76h-1.25c-.48,0-.72-.24-.72-.76v-.39H703.69v.48c0,.53-.24.77-.77.77h-1.25c-.48,0-.72-.24-.72-.77V92.87c0-.58.34-.82.87-.63s1.48.63,2.3,1.06Zm-17.81,11c3.36,1.72,5,3.6,5,5.52,0,1.24-.58,1.87-1.78,1.87-.82,0-1.39-.63-1.58-1.87a8.54,8.54,0,0,0-2.45-4.47c-.34-.33-.43-.62-.19-.91S704.26,104.05,704.7,104.25Zm-1-9.75v7h19.25v-7Zm11.76-7.06L717,85.67a.66.66,0,0,1,1.06-.1,18.06,18.06,0,0,1,2,1.73.77.77,0,0,1,.14,1.06c-.14.24-.38.33-.77.33H707.24a.83.83,0,0,1-.86-.57c-.2-.39,0-.68.62-.68Z"/><path class="cls-4" d="M755.24,108c2-.67,4-1.39,6-2.16a.65.65,0,0,1,1,.43c.1.34-.05.58-.48.82a106.43,106.43,0,0,1-13.68,5.8c-.24,1.2-.53,1.88-.91,1.88s-1.2-1.06-1.87-3.17a.68.68,0,0,1,.48-1c3.07-.67,5.32-1.3,6.81-1.73V93.78h-6.33a.91.91,0,0,1-.92-.58c-.14-.38.15-.62.72-.62h6.53V85.86h-3.93c-1.11,1.2-2.26,2.4-3.41,3.46a.69.69,0,0,1-1.06,0c-.19-.24-.09-.48.19-.87a42.13,42.13,0,0,0,8.5-15.74.74.74,0,0,1,1-.53c2.45.48,3.7,1,3.7,1.44s-.58.63-1.78.87a22.06,22.06,0,0,1,6.82,5.47,5.11,5.11,0,0,1,1.34,2.88c0,1.1-.53,1.63-1.58,1.63-.48,0-1-.53-1.54-1.54a23.83,23.83,0,0,0-5.71-7.34,39.79,39.79,0,0,1-5.43,9.12h6.68l1.49-1.87a.65.65,0,0,1,1.05-.1c.58.58,1.11,1.15,1.63,1.73a.88.88,0,0,1,.15,1.06c-.15.28-.39.38-.82.38h-4.56v6.72h2.93l1.58-2.26a.61.61,0,0,1,1.06,0c.43.48,1,1.1,1.63,1.92l.1.14a.87.87,0,0,1-.72,1.44h-6.58Zm-8.35-11c2.35,2.68,3.5,5.28,3.5,7.77,0,1.49-.53,2.21-1.58,2.21-.77,0-1.15-.67-1.2-2a15.66,15.66,0,0,0-1.83-7.25c-.24-.48-.19-.76.15-1S746.55,96.71,746.89,97.05Zm10.42,7.58A69.69,69.69,0,0,0,759,96.52a.68.68,0,0,1,1-.58c2,.63,3,1.2,3,1.73,0,.38-.58.67-1.68.86a41.55,41.55,0,0,1-2.74,6.53c-.24.43-.53.58-.86.43S757.21,105.06,757.31,104.63ZM773.63,90H763.4a1,1,0,0,1-.86-.53c-.19-.39.09-.67.67-.67h15.26V82.69h-10.8a.94.94,0,0,1-.91-.57c-.14-.34.15-.63.67-.63h11V75.78h-12a.85.85,0,0,1-.86-.58c-.19-.38.09-.62.67-.62H778L779.39,73a.67.67,0,0,1,1.05-.09c1.59,1.3,2.36,2.11,2.36,2.5,0,.19-.15.43-.53.67l-1.11.67v12.1h2.6l1.63-2.31c.29-.48.57-.57.81-.33a2.73,2.73,0,0,0,.34.33,22.59,22.59,0,0,1,1.63,2.07.93.93,0,0,1,.05,1.05.9.9,0,0,1-.82.39H776.51c.09.52.19,1,.29,1.39a24.7,24.7,0,0,0,2.92,8A41,41,0,0,0,784.19,93c.19-.43.57-.52,1-.24,1.78,1.11,2.64,1.92,2.64,2.45s-.62.58-2,.58a32.59,32.59,0,0,1-5.57,4.75,25.38,25.38,0,0,0,7.49,7.39c.43.29.48.68,0,1a6.45,6.45,0,0,0-1.29,1.54c-.29.43-.63.53-1,.19a28.08,28.08,0,0,1-9.22-16.18v17.28c0,2.12-1.2,3.27-3.69,3.41-.44,0-.68-.19-.82-.62a2.07,2.07,0,0,0-1.3-1.25,15.7,15.7,0,0,0-2.68-.58.76.76,0,0,1-.68-.86c0-.34.24-.53.77-.48a29.76,29.76,0,0,0,4.27.29c1,0,1.4-.58,1.4-1.63v-7.88a51.94,51.94,0,0,1-8.21,6.82,3.26,3.26,0,0,1,.05.72c0,.82-.2,1.2-.58,1.2s-1.3-.91-2.21-2.74a.69.69,0,0,1,.34-1,58.08,58.08,0,0,0,10.61-6.67Zm-8.88,3.12q6,2.94,6,6c0,1.15-.52,1.72-1.58,1.72-.72,0-1.2-.48-1.44-1.39a11,11,0,0,0-3.7-5.38c-.33-.33-.43-.62-.24-.91S764.31,92.92,764.75,93.16Z"/></g></g><g class="cls-5"><g id="マスクグループ_12" data-name="マスクグループ 12"><g id="グループ_100" data-name="グループ 100"><path id="パス_295" data-name="パス 295" class="cls-6" d="M153.76,50.27,138.31,66.45l-8.1,12.13-4.66,20,5.25,12.3,1.53,8.27-1.08,12.33-7.08,16.17-3.43,20.09,1.29,4.38,7.58,2.78,12.23,11.77,15.68,1.37,7-1.64-4.67-1.1-6.61-4.4,37.92-.62,7.7,2.9,12.79-12.69,9.29-4.38-5.84-22.95-10.84-21.76.22-15.16.17-15.54L193.47,64.33,182,50.9l-9.33-2.69-7.9,1.18-2,1.66-4-1.19Z"/><g id="グループ_99" data-name="グループ 99"><g id="グループ_98" data-name="グループ 98"><path id="パス_275" data-name="パス 275" class="cls-7" d="M168.36,142c-1.09.11-1.86-.82-3-.61-.63.11-1,.16-.85,1a11,11,0,0,1-.19,6.7c-.28.56.39.58.7.69,2.13.79,4.27,1.61,6.44,2.3,2.69.85,2.74.87,1.76,3.92,1-.76,1.67-1.26,2.29-1.84,2.75-2.57,5.47-5.17,8.2-7.76.33-.31.72-.6.65-1.13a27.58,27.58,0,0,1,1.94-12.45,4.33,4.33,0,0,0-2.2,2.33,16.56,16.56,0,0,0-.74,10c.1.33.3.68-.17.86a.83.83,0,0,1-.93-.27,3.49,3.49,0,0,1-.78-2.72,21.17,21.17,0,0,1,1.16-5.85,5.69,5.69,0,0,0,.33-1.63,29.74,29.74,0,0,1-7.65,4.06,40,40,0,0,0,10.28-9.31,32.93,32.93,0,0,0,6.77-12.42c.6,1.33,1,2.4,2.14,2.79.45.15.29.57.11.86a20.15,20.15,0,0,0-1.53,10.84A26.48,26.48,0,0,0,196.94,147a5.58,5.58,0,0,1-3.53-3.36,26.28,26.28,0,0,1-1.61-12.1,47.71,47.71,0,0,1,.52-5.48c-1,1.29-2.43,2.33-2.42,4.2a33.26,33.26,0,0,1-1.26,5.91A18.88,18.88,0,0,0,191,151.1a2.54,2.54,0,0,1,.21.66,6.39,6.39,0,0,1-3.46-4.63,111,111,0,0,1-13.25,9.3,22.47,22.47,0,0,0,8.8,1.07,10.15,10.15,0,0,0,8.5-3.23c.34-.42,1-.84,1.5-.44s.45,1.12.24,1.73a9.82,9.82,0,0,1-12.39,6.28l-.17-.06a14.61,14.61,0,0,1-6.42-3.77c-.76-.78-1.26-.36-1.55.28a10.42,10.42,0,0,1-10.72,6.37,20.92,20.92,0,0,0-4.26,0c-1.3.18-2.65.39-3.3-1.28-.27-.71-.81.24-1.47-.4,4.32-8.6,3-17-1.91-25.49-.44.89.07,1.26.21,1.71a60.8,60.8,0,0,1,3,15.64,3.29,3.29,0,0,1-1.57,2.93,25.94,25.94,0,0,0-.7-13.37,4.06,4.06,0,0,0-.48,2.62,49.55,49.55,0,0,1-.54,11.92,4.46,4.46,0,0,1-.36,1.14c-.35.69-.92,1.42-1.71,1s-.05-1.08.12-1.61a54.79,54.79,0,0,0,1.53-13.38,23.37,23.37,0,0,0-4-13.06,31,31,0,0,0-4.29-4.94,56.43,56.43,0,0,1,3.7,20.41,8.41,8.41,0,0,1-.8,2.91,3.65,3.65,0,0,1-1-2.81A74.4,74.4,0,0,0,141,126.44c-.24-.8,0-1,.68-1.42a3.93,3.93,0,0,0,1.06-5.15,2.51,2.51,0,0,0-3-1.12,18.54,18.54,0,0,0-1.75.67c.29-1.16.29-1.16-2.42-3.36a6.42,6.42,0,0,0,1.58,4.39c.21.21.14.37.1.56a3.55,3.55,0,0,0,2.16,4.46c-.68.48-1.1-.27-1.74-.16a84.17,84.17,0,0,1,1,10.38,36.56,36.56,0,0,1-.37,5.63,6.06,6.06,0,0,1-2.86,4.74l.34-2.3c-1.36.94-1.68.21-1.73-.83a21.86,21.86,0,0,1,0-2.56,98.64,98.64,0,0,0-.53-22.52c-.24-1.35-.56-2.68-.9-4-.13-.5-.1-1.19-.88-1.28-.39.37-.06.74,0,1.08a55.47,55.47,0,0,1-.68,26.09,134.36,134.36,0,0,0-3.84,21.88,23.24,23.24,0,0,0,6,16.77,80.61,80.61,0,0,1,1-23.15,71.82,71.82,0,0,0,.37,17.88,19.47,19.47,0,0,0,3,8.47,4.38,4.38,0,0,0,5.49,2.19c.35,2.94,2.85.74,4.08,1.88a2.85,2.85,0,0,1-2.57,1.58,10,10,0,0,1-6.53-1.54,27.72,27.72,0,0,1-10.66-10.34,1.4,1.4,0,0,0-1.24-.72,7.24,7.24,0,0,1-7.21-7.3,7,7,0,0,1,.21-1.71,48.88,48.88,0,0,1,5.62-19.25,52.81,52.81,0,0,0,6.68-19.61,41.1,41.1,0,0,0-.22-13.28,2.41,2.41,0,0,0-1.12-1.8,10.2,10.2,0,0,1-4.48-6.23,33.19,33.19,0,0,1,.15-18.74,49.32,49.32,0,0,1,9-17.74c2.47-3,4.47-6.43,7-9.42a42.78,42.78,0,0,1,9-8.09,12.05,12.05,0,0,1,6.17-2.34c-1.84-2.07-3.27-4.15-2.13-6.93.3-.73.7-1.47,1.83-1.16-1.39.35-1.54,1.43-1.59,2.49a6,6,0,0,0,4.41,5.64,9.16,9.16,0,0,1,2.75.81,5.93,5.93,0,0,1-4.15,0,6,6,0,0,0-5.49,1.57A53,53,0,0,0,142.76,62a51.11,51.11,0,0,0-7.48,17.87A128.44,128.44,0,0,0,131.8,99a26,26,0,0,0,2.48,12.28,8.13,8.13,0,0,0,3.47,4.43c-.91-2.85-.62-5.59-2.38-7.83a6.46,6.46,0,0,1-1-4.58,64.94,64.94,0,0,0-.53-11.58A2.57,2.57,0,0,1,134,90.4l.82,4.22c2.54-9.77,4.44-19.67,9.45-28.54-3.89,8.76-4.78,18.23-6.59,27.47a9,9,0,0,1-.17,1,18,18,0,0,0,1.33,13.55c1.9,4.09,3.52,8.29,5.35,12.41A31,31,0,0,0,155.39,133a33.92,33.92,0,0,0,9.67,5.7C166.68,139.22,166.8,141.31,168.36,142Zm3.39,15.14a38.38,38.38,0,0,1-9.53-4.24c-.54-.37-1-.35-1,.44a9.24,9.24,0,0,1-4.18,8.12c5-1.11,10.67.69,14.75-4.32ZM133,110.67c0-.84,0-1.47-.74-1.9a6.36,6.36,0,0,1-2.74-4.54,20.66,20.66,0,0,1,0-8.82c1.38-5.81,1.41-11.78,2.27-18-.3.65-.49,1-.62,1.37a67.69,67.69,0,0,0-3.4,17.54,28.9,28.9,0,0,0,.52,7.65A8.65,8.65,0,0,0,133,110.67Zm-6.63,62.53c-4-8.72-1.11-17.09-.13-25.49a6.07,6.07,0,0,0-.67,1.38A87.23,87.23,0,0,0,122,165.92c-.57,4.15,0,5.18,4.37,7.28ZM161.61,148c.53,0,.63,1,1.16.67s.31-.92.32-1.41a12.78,12.78,0,0,0-.6-4.21c-.25-.74-.27-1.8-1-2.1-1.74-.73-3.53-1.39-5.3-2.17.74,1.5,1.6,2.84,2.35,4.23a21.73,21.73,0,0,1,2.45,7.6c.06.5,0,1.59.93.9a1.43,1.43,0,0,0,.59-1.94,1.39,1.39,0,0,0-.31-.41c-.3-.27-.76-.52-.6-1.16Zm27.89-17.95-.38-.18a16.14,16.14,0,0,0-2.56,4.2,27.23,27.23,0,0,0-1.15,9.58c0,.53-.13,1.18.88,1,.67-.14,1.09-.13,1.07-1a26.92,26.92,0,0,1,.73-7.43c.51-2,.95-4.08,1.42-6.1ZM152,136.45a82.69,82.69,0,0,1,7.58,15.21c-.48-6.11-1.77-11.81-7.58-15.21ZM171.25,156c.5.07,1,.35,1.13-.22s-.35-.75-.8-.79a6.91,6.91,0,0,1-3.58-1.46c-1.18-.88-2.38-1.74-3.58-2.59-.44-.31-1-.86-1.26.13-.18.62-1.22,1.22.11,1.87a46.81,46.81,0,0,0,8,3.05Zm4.25,2.1c3.59,3,9.44,3.79,12.11,1.7a33.82,33.82,0,0,1-12.1-1.7ZM157.23,150a26.93,26.93,0,0,1-.89,10.22c2.78-2.83,3-5.85.9-10.22Zm6.92-3.24c.71-3,.25-5.13-1.18-5.44ZM134.93,118a8.06,8.06,0,0,0-1.9-5.15Z"/><path id="パス_276" data-name="パス 276" class="cls-7" d="M196.3,131.36a188.22,188.22,0,0,1,7.84,21.11,21.21,21.21,0,0,0-1-5.29c-.51-1.87-1.06-3.72-1.61-5.58a42.93,42.93,0,0,1-1.38-5.47c1.26,3.28,2.55,6.53,3.77,9.82a58.3,58.3,0,0,1,4.34,20.47A30.4,30.4,0,0,1,207,174a17.7,17.7,0,0,0,4.58-9.45,31.38,31.38,0,0,0-1.33-12.33c-2.41-8.51-5.19-16.89-8-25.28-.76-2.26-1.41-4.56-2.1-6.93a6.12,6.12,0,0,1-4.1,1c3.45-.85,4.53-2.33,3.79-4.92-.65-2.26-2.45-2.62-6.23-1.17,1.35-4.91,2.14-9.85,3.09-14.77a5.93,5.93,0,0,0-1.37-5.43,57.54,57.54,0,0,1-12.48-22.17,15.71,15.71,0,0,1-.71-7.54A33.67,33.67,0,0,0,186.78,80a78.77,78.77,0,0,0,9,13c-1.79-3.66-3.69-7.27-5.35-11a45.72,45.72,0,0,1-3.88-11.61,49.45,49.45,0,0,0,6.71,13.34l-7-15.9.4-.2c3.67,7.61,8,14.85,12.08,22.34,2-8.44-8.95-27.49-19.4-33.93a31.36,31.36,0,0,1,9.33,6.59c.48-.46,0-.76-.14-1.05a29.9,29.9,0,0,0-8.14-10,16.51,16.51,0,0,0-13.7-2.46,9.29,9.29,0,0,0-3.7,2,7.83,7.83,0,0,1,4.68-3,19.7,19.7,0,0,1,20.06,6,20.51,20.51,0,0,1,3.47,4.65c3.07,5.41,6,10.86,8.8,16.43a55.91,55.91,0,0,1,5.42,29.41c-.15,2.11-1,4.18-1.17,6.29a33.69,33.69,0,0,0,5.26,19.35q5,8.49,9.82,17a31.56,31.56,0,0,1,4,15.93,6,6,0,0,1-1.13,4,1.81,1.81,0,0,1-2,.73c-.87-.33-.43-1.19-.32-1.79a20.91,20.91,0,0,0-1.76-11.69A115.09,115.09,0,0,0,208.52,138c.74,2.3,1.5,4.59,2.2,6.89A83.46,83.46,0,0,1,214.39,160a20.18,20.18,0,0,1-4.6,15.78,43.31,43.31,0,0,1-5.07,5.33,14.47,14.47,0,0,1-6.36,2.73,2.56,2.56,0,0,1-2-.35c-.54-.33-1.1-.82-1-1.47s.81-.6,1.27-.66a5.79,5.79,0,0,0,4-2.7,21.14,21.14,0,0,0,3.53-6.62,23.61,23.61,0,0,0,.5-9.93,120,120,0,0,0-7.35-26.83c-.43-1.06-.74-2.15-1.08-3.24C196.16,131.86,196.25,131.67,196.3,131.36Zm5.78-24.09c-.77,1.33-1.41,2.52-2.15,3.65a2.42,2.42,0,0,0,.33,3.39l.09.07a3.39,3.39,0,0,1,.94,4,2.3,2.3,0,0,0-.22,1,31.43,31.43,0,0,0,3.18,7.62,36.48,36.48,0,0,1-.7-17.31c0-.24.12-.77-.15-.7-1.82.56-.87-1-1.31-1.72Zm-4.29,4.31c1.11-1,1.46-2.13,2.31-2.89a7.72,7.72,0,0,0,1.39-2.14,5.46,5.46,0,0,0-2.61-7.26h0Zm3.06-21.94c-1.64,2.77,0,4.71,1.06,6.75a27,27,0,0,0-1.07-6.74Z"/><path id="パス_277" data-name="パス 277" class="cls-7" d="M150.31,101.67a10,10,0,0,1-2.37-6.27,71.24,71.24,0,0,1,2-24.42,12.47,12.47,0,0,1,.51-1.45,3.26,3.26,0,0,1,.54-.89,54,54,0,0,0-1.76,16.89c.16,5.62-.52,11.42,2.84,16.57-2-.28-3.14,1.49-4.66,2.45s-2,3.07-3.75,4.41a5.59,5.59,0,0,1,1.22-3.53c-4.2-.23-5.07-3.22-5.31-6.48a64.16,64.16,0,0,1,4.17-27.32c.46.17.3.39.28.57a3.82,3.82,0,0,1-.15.67,67.64,67.64,0,0,0-1.4,26.8c.29,2.63.87,3.07,3.24,3.4a12.77,12.77,0,0,1-2.79-8.65,71.44,71.44,0,0,1,3-24.66A10.48,10.48,0,0,1,147.16,67a2,2,0,0,1,2.29-1c-1.46.22-2,1.27-2.42,2.45a29.3,29.3,0,0,0-1.46,7.36,97.36,97.36,0,0,0-.24,20.48,11.16,11.16,0,0,0,1,4.13C147.35,102.3,148.36,102.64,150.31,101.67Z"/><path id="パス_278" data-name="パス 278" class="cls-7" d="M165.48,68.52a7.15,7.15,0,0,0-.13,3.44,69.45,69.45,0,0,0,6.5,22.56,10.35,10.35,0,0,0,2.42,3.36,52.87,52.87,0,0,1-5.42-28.54,58.72,58.72,0,0,0,5.83,25.52,23.53,23.53,0,0,0,2,3.41,3.67,3.67,0,0,0,3.94,2,12,12,0,0,1,6.09,1.41c.43.17.83.43.57,1.15a20.15,20.15,0,0,0-6.21-2c-.51,0-1.61-1-1.73.68,0,.23-1.66,0-2.53-.22-.43-.09-.86-.46-.58.5.15.5-.75.42-1,.27-2.16-1.09-4.75-1-6.81-2.12a20.69,20.69,0,0,1-9.91-25.22c0-.1.13-.18.32-.44a23,23,0,0,0,2.64,17.43,29.77,29.77,0,0,1-1.83-7.9c1.82,6.72,4.41,12.86,11.3,15.93A40.88,40.88,0,0,1,160,71.76a46.79,46.79,0,0,0,3.83,13.91,41.78,41.78,0,0,0,8,12.18,40.92,40.92,0,0,1-5.39-14.36A34.15,34.15,0,0,1,165.48,68.52Z"/><path id="パス_279" data-name="パス 279" class="cls-7" d="M150.06,173A13.2,13.2,0,0,0,164.4,185c.34,0,.67-.07,1-.13,0,.1.05.28,0,.29-1.81.93-2.95,2.85-4.82,3.55a10.63,10.63,0,0,1-6.38-.45,13.77,13.77,0,0,1-10.13-9.07,42.86,42.86,0,0,1-2-20.46c.08,1.51-.13,3,.07,4.56s.35,3.27.63,4.91.65,3.12,1.06,4.66a26.65,26.65,0,0,0,2.61,6.49,15.75,15.75,0,0,0,11.89,7.74,4.24,4.24,0,0,0,3.29-.55C153,183,149,178.31,150.06,173Z"/><path id="パス_280" data-name="パス 280" class="cls-7" d="M169.89,132.86c-3.14-.1-6.07-5.15-6-7.1,0-.83.8-.84,1.24-.75a21.35,21.35,0,0,0,10.78-1.75,7.47,7.47,0,0,1,1.3-.39,1.1,1.1,0,0,1,1.3.86,1,1,0,0,1,0,.34,9,9,0,0,1-6.92,8.66C171,132.82,170.46,132.82,169.89,132.86Zm5.66-7.61a44.24,44.24,0,0,1-8.43.94c1.51,1.46,2.44,3.23,4.7,2.94s3.05-1.74,3.73-3.88Z"/><path id="パス_281" data-name="パス 281" class="cls-7" d="M191.25,97.5c-.37,1.35-1.42,1.13-2.35.93A22.7,22.7,0,0,1,172,78.52s.06-.09.09-.14A24.87,24.87,0,0,0,183.59,95c-7.85-8.11-10-17.93-10.88-28.22a54.16,54.16,0,0,0,4.61,15.85,37.43,37.43,0,0,0,8.84,12.46,9.2,9.2,0,0,0,5.14,2.42Z"/><path id="パス_282" data-name="パス 282" class="cls-7" d="M116.24,129c-.68-.17-.91-.71-1.11-1.24a7.33,7.33,0,0,0-3.06-4c-.84-.51-.74-1.07,0-1.6a1.91,1.91,0,0,0,.52-2.64l0,0a13.78,13.78,0,0,1-.93-5.19c0-.79.19-1.52,1.08-1.71s1.51.41,1.75,1.24c.39,1.42.68,2.87,1.06,4.3a2.24,2.24,0,0,0,2.27,1.9c1.85.12,2.18.92,1.2,2.43a8.26,8.26,0,0,0-1.61,5.12C117.37,128.41,117.1,129,116.24,129Zm-.78-4.28c.65-.12.7-.66.74-1,.17-1.57-1.55-.77-2.09-1.57-.16-.25-.73.2-.66.49.26,1.08,1.53,1.2,2,2.1Z"/><path id="パス_283" data-name="パス 283" class="cls-7" d="M156.55,70.75a36.5,36.5,0,0,0-.75,11.51,45.54,45.54,0,0,0,2.74,10.89A9.78,9.78,0,0,0,164.26,99a3.44,3.44,0,0,1-4.45-.29,7.91,7.91,0,0,1-2.27-3,31.58,31.58,0,0,1-1.37-24.24A7.39,7.39,0,0,1,156.55,70.75Z"/><path id="パス_284" data-name="パス 284" class="cls-7" d="M156,102.69c-1.17.26-2-.49-2.61-1.52a7.29,7.29,0,0,1-1-3.25,90.56,90.56,0,0,1,1.9-26.52,10.72,10.72,0,0,1,.34-1.14,5.12,5.12,0,0,1,.3-.57C153.49,80.75,152.14,91.78,156,102.69Z"/><path id="パス_285" data-name="パス 285" class="cls-7" d="M140.2,129.37c2,6.72-1.15,29-4.68,33.13a11.24,11.24,0,0,1,.5-4.92q2.4-8.91,3.9-18A53.28,53.28,0,0,0,140.2,129.37Z"/><path id="パス_286" data-name="パス 286" class="cls-7" d="M191.3,97.55a34.77,34.77,0,0,1-10.43-12.23A40.9,40.9,0,0,1,177,69a2.6,2.6,0,0,1,.18-1A37.86,37.86,0,0,0,196.38,99.3a10.73,10.73,0,0,1-5.12-1.8Z"/><path id="パス_287" data-name="パス 287" class="cls-7" d="M186.47,108.1c-1.49.53-2,1.79-2.63,2.9a2.44,2.44,0,0,1-.77.66,3.49,3.49,0,0,1-4.41.06,2.65,2.65,0,0,1-.34-3.44,3.94,3.94,0,0,1,4.13-1.92,2,2,0,0,1,1.48,1C184.46,108.81,185.25,108.8,186.47,108.1Z"/><path id="パス_288" data-name="パス 288" class="cls-7" d="M148.05,111.82c.75-.06,1.12-.14,1.21-1A2.85,2.85,0,0,1,152,108.2a4.75,4.75,0,0,1,4.13,2.28,2.23,2.23,0,0,1-.68,2.48,3.91,3.91,0,0,1-4.58.54C149.94,112.94,149.27,112,148.05,111.82Z"/><path id="パス_289" data-name="パス 289" class="cls-7" d="M196.92,166.52a8.13,8.13,0,0,1,.28,5.11,17.75,17.75,0,0,1-5,8.76,2.21,2.21,0,0,1-2.29.81,1.34,1.34,0,0,1-1.08-1.58.52.52,0,0,1,0-.11c.15-.68.46-1.1,1.33-.66.72.38,1.12-.39,1.51-.81a16.93,16.93,0,0,0,5-10.54A6.55,6.55,0,0,1,196.92,166.52Z"/><path id="パス_290" data-name="パス 290" class="cls-7" d="M174.62,176.8c-1.1-.32-2-.79-1.85-2.18.14-1.22,1.28-2.33,2.25-2a2.31,2.31,0,0,1,1.91,2.45C176.8,176.29,175.83,176.77,174.62,176.8Z"/><path id="パス_291" data-name="パス 291" class="cls-7" d="M176.38,165.73c-.14,1.22-.65,2.25-2.08,2.13s-1.51-1.32-1.46-2.45a1.42,1.42,0,0,1,1.79-1.52C175.53,164.06,176.62,164.3,176.38,165.73Z"/><path id="パス_292" data-name="パス 292" class="cls-7" d="M197.55,116a1.59,1.59,0,0,1-1.72,1.15c-.57,0-.81-.26-.63-.87s.51-1.39,1.46-1.27A1,1,0,0,1,197.55,116Z"/><path id="パス_293" data-name="パス 293" class="cls-7" d="M140.83,120.83c-.2.88-.85.91-1.55.92-.5,0-.8-.11-.59-.65.27-.7.72-1.33,1.56-1.31C140.86,119.82,140.76,120.42,140.83,120.83Z"/></g><path id="パス_294" data-name="パス 294" class="cls-7" d="M169.38,118.88c-1.06-.32-2.21-.74-2.26-1.77s1-1.52,2.28-1.61A2.48,2.48,0,0,0,169.38,118.88Z"/></g></g></g></g><g class="cls-8"><g id="マスクグループ_13" data-name="マスクグループ 13"><g id="グループ_101" data-name="グループ 101"><path id="パス_296" data-name="パス 296" class="cls-6" d="M874.72,64.12l-6.53,3.45L852.07,82.48,847,106.25l.76,12.62,5.65,6.42,4.46,4.77v9.58L847,150.51h5.07l8.95-.76h8.67l-5.05,4.9-3.62,4.8-7.61,22,12.46-1.9h55.36l-2-12.56-6.91-5.42-5.75,1.16,1.18-4.8,5.58-6.14,16.14,1.2,8.21-7.26,2.73-10.56V122.72L928.34,91.37l-15-28.48-13.47-7.53H887.43l-6,6.09Z"/><g id="グループ_97" data-name="グループ 97"><path id="パス_255" data-name="パス 255" class="cls-7" d="M857.83,148.17c-.08.53.19.87.66.77a17.84,17.84,0,0,1,4,.2,1.31,1.31,0,0,0,.92-.32c.17-.13.13-.54.49-.4,0,0-.17.47-.08.61a.76.76,0,0,0,.61.22,20.46,20.46,0,0,0,5.45-.68c1.37-.46,1.44-1,.34-2a21.46,21.46,0,0,1-4.92-5.65A51.27,51.27,0,0,0,876,147.75a6.93,6.93,0,0,0,7,.25,116.64,116.64,0,0,0,10.4-6.13,39.14,39.14,0,0,1,5.62-3.05,21.14,21.14,0,0,0,7.82-5.7,8.65,8.65,0,0,0,1.53-9.5,11.43,11.43,0,0,1-.71-3.11,48.39,48.39,0,0,0-14.79-25.59c-4.49-4.3-9.25-8.31-13.86-12.49-.68-.62-1-.44-1.57.1a127.31,127.31,0,0,0-16.62,20.56,3.69,3.69,0,0,0-.79,2c.91.1,1.63-.77,3-.3-5,1-4.8,5.28-6,8.51-.51,1.36,1.1,2.64,1.91,3.81.36.53,1.45-.32,1.73-.7,1.28-1.7,2.43-.85,3.65-.05a4.48,4.48,0,0,1,1.7,4.06,2,2,0,0,1-1.42,1.87,1.79,1.79,0,0,1-1.78-.87,15.7,15.7,0,0,1-1.54-2.58c-.26-.53-.45-.72-1.06-.49s-.42.72-.21,1.11a30.08,30.08,0,0,1,3,10.54c.11.9.37,1.92-.73,2.28s-1.83-.42-2.22-1.32c-1.12-2.55-2.14-5.14-3.24-7.7-.46-1.07-1-2.1-1.72-3.46a9.12,9.12,0,0,0-.87,5.06c.34,1.61,2.83,1.57,3.55,3.41a5.37,5.37,0,0,1-5.53-1,20.8,20.8,0,0,1-8.08-19.42,69.1,69.1,0,0,1,2.77-14.11,44.68,44.68,0,0,1,22.08-27.27,11,11,0,0,0,1-.68,16,16,0,0,1-4.72-.47c-2-.6-3.37-2-3.4-3.43,0-.48,0-1,.39-1.31s1,.13,1.2.46c2.51,3.31,6.08,2.72,9.47,2.5a23.63,23.63,0,0,0,9-2.46,13.69,13.69,0,0,1-5.58,3.17c-12.61,3.49-18.94,13.15-23.83,24.2a22.19,22.19,0,0,0-2.52,9.36,1.76,1.76,0,0,0,.42,1.52,43.42,43.42,0,0,1,4.16-11.87l-1.06,3.24.24.11,2.52-4.71c-2.19,5.65-5.06,11.08-5,17.4A63.34,63.34,0,0,1,856.27,92,41.37,41.37,0,0,1,864,81.87a58,58,0,0,0-6,11.21,45.28,45.28,0,0,0-3.09,12.49,81.24,81.24,0,0,0,5-7.5,59.82,59.82,0,0,1,14.54-19.32,6,6,0,0,1,1.29-.88,55.25,55.25,0,0,0-9.94,13.84,148,148,0,0,1,11.51-9.88c.43-.34.42-.63,0-1a3.54,3.54,0,0,1-1.17-1.7,14.22,14.22,0,0,1,1.44,1.36c.62.79,1.14,0,2-.07-1.24,1-.29,1.44.34,1.87,4.12,2.79,8.26,5.55,12.37,8.35,1.27.86,2.48,1.8,3.86,2.61a131.13,131.13,0,0,0-13.7-21.09,56.74,56.74,0,0,1,8.3,8.53c2.44,3.21,4.91,6.39,7.36,9.58a59.38,59.38,0,0,1,6.36,10.05,88.15,88.15,0,0,1,4.67,11.13,26,26,0,0,0-1.78-6.77c-.82-2.22-1.74-4.41-2.67-6.58s-2.26-4.24-3.41-6.37a21,21,0,0,1,3.33,4.81c1,1.77,1.86,3.57,2.66,5.42s1.43,3.75,2.26,5.57a52.21,52.21,0,0,0-4-13.21,67.13,67.13,0,0,1,4.63,10.7,75.68,75.68,0,0,0-5.72-17.09,71.63,71.63,0,0,1,8,18.18c.58-.87.93-1.46,1.36-2,1.41-1.75,2.84-1.56,3.79.47a9.54,9.54,0,0,1-2.48,10.4,3,3,0,0,0-1.19,2.71,22.19,22.19,0,0,1-1.55,9.93c-1.43,3-2.79,6-4.35,9-2.85,5.4-7.13,9.85-10,15.25-.52,1-1.06,2-1.56,3-.34.66-.68,1.38-1.54,1.14s-1-1.11-.88-1.9a19.61,19.61,0,0,1,2.43-6.63,7.8,7.8,0,0,0,1-2.26l-6,3.75a28.38,28.38,0,0,1-8.18,3.25,8.3,8.3,0,0,1-7.84-1.53,25.84,25.84,0,0,1-1.83,15.2c4.43.55,11-6.62,10.57-12.8.91.19,1,.86,1,1.57a14.88,14.88,0,0,1-9.6,12.7c-1,.29-2.07,1-3.11-.2a1.81,1.81,0,0,0-1.76.1c-1.85,1.66-4.62,2.6-4.25,6a16.7,16.7,0,0,1-.87,5.78c-.13.51-.26,1.17-1,1s-.53-.87-.42-1.36c.46-1.9,1-3.79,1.45-5.68a6,6,0,0,0,.34-2.26c-.13-.89-.2-1.46.75-2s.68-1.67.51-2.6a12.34,12.34,0,0,1-.53-4c.55,1.5,1,2.88,1.55,4.26.14.38.27.89.8.77s.38-.55.43-.9a21.41,21.41,0,0,0-.26-5.71,10.75,10.75,0,0,1,1.21,4.51c.17,1.38.73,1.32,1.57.55a6,6,0,0,0,1.82-2.39c.27-.74.76-1.58-.52-2a1.06,1.06,0,0,1-.51-.85c.1-1.55-.93-2.65-1.51-4,.63-.28.68.73,1.45.43,0-1.89,0-3.89,0-5.88,0-.82-.37-1.28-1.24-.79-5.27,3-10.3,6.06-11.37,12.83a61.46,61.46,0,0,1-3.49,11.87c-.63,1.68-.57,3.62-1.32,5.32-.23.54-.31,1.55-1.19,1.16s-.12-1,.08-1.53a18.18,18.18,0,0,0,1.37-3.87c-1.63,2.2-2.5,4.52-4.68,5.74a20.53,20.53,0,0,0,3.36-8.27,66.42,66.42,0,0,1,2.86-10.07,17.43,17.43,0,0,1,6.14-8.47,20.79,20.79,0,0,0,4.25-3.75c-2.48,0-4.86-1-6.7-.34a46.89,46.89,0,0,1-11.53.68,7.87,7.87,0,0,0-2.82,1,8.16,8.16,0,0,1-3.84,1.25,1.93,1.93,0,0,1-1.91-1.33,1.83,1.83,0,0,1,.85-2.15,8.13,8.13,0,0,1,1.58-.81,42.41,42.41,0,0,0,6.52-3.21A15.64,15.64,0,0,0,857.55,132a10.26,10.26,0,0,1,.17-2.35,25.36,25.36,0,0,1,.31,10.76,15.19,15.19,0,0,0,2.76-5.19c.1,2.94-1.37,5.49-7.32,12.85,1,.72,1.77.37,2.53-.46a23.35,23.35,0,0,0,5.06-6.81,10.67,10.67,0,0,1-3.28,7.41l1.05-2.26.23.3L856,148.49C856.85,149,857.33,148.55,857.83,148.17Zm56-35.1a9.77,9.77,0,0,0,2.46-7.87c-.13-.68-.34-1.81-1.43-1.07a3.67,3.67,0,0,0-2,3.47c.2,1.67.58,3.32,1,5.46Zm-64.67-7.38a25.4,25.4,0,0,0,2.59,16.61c.19-1.35,1-2.58.38-3.8a22.16,22.16,0,0,1-2.88-11.42c0-.46,0-.93-.09-1.39Zm8.06,44.41c-3.7-1.75-4.54-1.69-6.82.47Zm53.94-29.49c.06-1.31.13-2.61.21-4.16-1.79,1.4-.32,2.8-.21,4.16Z"/><path id="パス_256" data-name="パス 256" class="cls-7" d="M883.74,59.87a2.39,2.39,0,0,1,1-2.52,12.72,12.72,0,0,1,8.46-3.2,23.08,23.08,0,0,1,18.25,6.25,49.08,49.08,0,0,1,10,13.24c3,5.82,6.72,11.29,10.24,16.83a80.55,80.55,0,0,1,12.64,38.76,19.14,19.14,0,0,1-.14,4.6,5.85,5.85,0,0,1-2.9,4.16l-.89-1.81c-.51.37-.3.88-.29,1.28a34.14,34.14,0,0,1-.24,6.39,7.55,7.55,0,0,1-.85,2.69c-.47.79-1.18,1.66-2.07,1.27-.59-.25-.06-1.29.13-1.94a32.18,32.18,0,0,0,.09-13,21.74,21.74,0,0,0-1.3-5.53c.3,2.38.63,4.79.91,7.2a21.11,21.11,0,0,1-1.61,13.17,11.9,11.9,0,0,1-8.54,6.44,11.66,11.66,0,0,1,3-3.56,12,12,0,0,0,3.83-12,46.83,46.83,0,0,1-2.75,8.42c1.09-5.31,3.19-10.54,1.47-16.11a42.78,42.78,0,0,1-1.55,7.69,69.69,69.69,0,0,1-2.79,7.55,3.45,3.45,0,0,1,.43-2.18,48.35,48.35,0,0,0,3.45-17.33,69.3,69.3,0,0,0-3.35-24.17c-3-8.24-5.87-16.51-9.22-24.61a44.64,44.64,0,0,0-12.86-17.39,21,21,0,0,0-17.14-4.53A6.49,6.49,0,0,0,883.74,59.87ZM934.32,107c1.87,7,3.66,14,5.11,21.09a89.57,89.57,0,0,0-5.1-21.09Z"/><path id="パス_257" data-name="パス 257" class="cls-7" d="M908.18,162.53l2,1.19a3.1,3.1,0,0,1-3.07-.49,2.72,2.72,0,0,0-3.85.05l-.08.08a39,39,0,0,0-7.44,8.31,8.79,8.79,0,0,0-1.37,3.44c-.19,1-.51,2.11-1.83,1.95a1.84,1.84,0,0,1-1.62-2,1.18,1.18,0,0,1,0-.2c.18-1.46-.58-1-1.34-.85a36.4,36.4,0,0,1-13.17,1.36,3.41,3.41,0,0,1-2.6-1,14.77,14.77,0,0,0,7.41-.31,99.23,99.23,0,0,0,10.62-3.51,5.08,5.08,0,0,0,2.23-1.68,24.69,24.69,0,0,1,11-8.18,2,2,0,0,0,1.32-1.48,6.39,6.39,0,0,1,3.07-3.66,12.54,12.54,0,0,0-2,3c-.34.91-.6,1.68.94,1.24a1.6,1.6,0,0,1,1.72.26c-.78.19-1.5.34-2.2.54-.37.1-.92.16-.8.73s.65.36,1,.31a21.4,21.4,0,0,1,6.54,0,7,7,0,0,1,5.32,3.75,26.23,26.23,0,0,1,3.12,11.38,4.19,4.19,0,0,1-.05,1.06c-.2,1.16-.78,2.12-2,2.07s-1.39-1.21-1.39-2.13a30.89,30.89,0,0,0-1.42-9.45A8.35,8.35,0,0,0,908.18,162.53Z"/><path id="パス_258" data-name="パス 258" class="cls-7" d="M910.94,81a51.87,51.87,0,0,1,7.34,11.08A53.73,53.73,0,0,1,924,113.76a7.73,7.73,0,0,1-1.56,5.33c-.5.63-.79.69-1.34,0a7.88,7.88,0,0,1-1.92-4.85,101.39,101.39,0,0,0-2.08-17.09A59,59,0,0,0,910.94,81Z"/><path id="パス_259" data-name="パス 259" class="cls-7" d="M916.35,146.26a2.27,2.27,0,0,1,.92-1.47c3.47-3.41,3.47-7.94,3.85-12.37-.41,1.05-.83,2.11-1.25,3.16a25.52,25.52,0,0,1-12.39,14,22.37,22.37,0,0,0-4.9,3.15,1.92,1.92,0,0,1-1.19.31c1.34-.63,1.71-2.23,3-2.84l0,0c.59.34.81-.25,1.15-.49a32,32,0,0,0,12.4-17.88c.05-.17.12-.34.17-.51.75-2.35,1.64-2.6,3.54-.82a9.1,9.1,0,0,0-.34-4.74c-.28-.56-.3-1,.27-1.37a1.31,1.31,0,0,1,1.64.2,3.45,3.45,0,0,1,.92,2.77,46.44,46.44,0,0,1-1.41,9.82A26.83,26.83,0,0,1,917,148.9c-.12-.24.44-1-.39-.66a4.66,4.66,0,0,0-1.19.94,31.23,31.23,0,0,0,2.92-4.53C917.27,145.06,917.18,146.08,916.35,146.26Z"/><path id="パス_260" data-name="パス 260" class="cls-7" d="M882.85,111.3a5,5,0,0,1,7-1.19l.16.12a18,18,0,0,0,2.21,1.46,4.31,4.31,0,0,1,2.58,4.77,4.89,4.89,0,0,1-4,4,4.07,4.07,0,0,1-4.18-2.38,4.9,4.9,0,0,1,1-5.56c.41-.43,1.47-.54,1.18-1.29a2.4,2.4,0,0,0-2.07-1.19A4.65,4.65,0,0,0,882.85,111.3Z"/><path id="パス_261" data-name="パス 261" class="cls-7" d="M923.56,149.39a37.69,37.69,0,0,0,2.33-29.23,4.28,4.28,0,0,1,3.06,3,20.92,20.92,0,0,1,.58,10,38.67,38.67,0,0,1-3.78,13.22A8.79,8.79,0,0,1,923.56,149.39Z"/><path id="パス_262" data-name="パス 262" class="cls-7" d="M910.23,150.72c1.22.71,2.11-.09,3-.69-.17.29-.23.64.21.59a4.25,4.25,0,0,0,2.91-.9c0,.68.42.52.84.51,1.65-.07,3.31,0,4.95-.18.75-.07,1.36,0,1.41.79s-.8.68-1.33.74c-3.36.27-6.72.44-10.07.78A44.89,44.89,0,0,0,898,156a1.36,1.36,0,0,1,.92-1,83.14,83.14,0,0,1,10.16-3.55,5.28,5.28,0,0,0,1.23-.68Z"/><path id="パス_263" data-name="パス 263" class="cls-7" d="M826.26,118.75a2.85,2.85,0,0,1,1.66-3.59c1.14-.68,2.34-1,3.37.15s2,2.57,1.16,4.31a16.32,16.32,0,0,1-1.31,1.89c-.22.34-.64.64-.41,1.09s.69.34,1.11.34c.73,0,1.86-.92,2.08.27.26,1.36-1.13,1.63-2.17,1.78a3,3,0,0,1-3.37-1.4c-.63-1.25.12-2.24.94-3.17s1.9-1.23,1.86-2.46c0-1.06-.34-2.33-1.57-2.48a3.08,3.08,0,0,0-3.13,1.9A4.52,4.52,0,0,0,826.26,118.75Z"/><path id="パス_264" data-name="パス 264" class="cls-7" d="M909.83,139c-.43,2.13-2.12,3.17-2.72,4.94l3.61-4,.42.38-11.37,13A58.59,58.59,0,0,1,909.83,139Z"/><path id="パス_265" data-name="パス 265" class="cls-7" d="M924.11,98.67a2.64,2.64,0,0,1,1.08,1.7A93.07,93.07,0,0,1,928.64,113c.18.89.31,2.23-.48,2.36-1,.15-1.25-1.18-1.36-2.1-.47-3.94-1.12-7.84-1.88-11.74A13.21,13.21,0,0,0,924.11,98.67Z"/><path id="パス_266" data-name="パス 266" class="cls-7" d="M920.69,94A60.11,60.11,0,0,1,926,111.56a1.3,1.3,0,0,1,0,.34c-.08.88.4,2.25-.8,2.35-.68,0-.59-1.37-.66-2.14a83.34,83.34,0,0,0-3.62-17.33Z"/><path id="パス_267" data-name="パス 267" class="cls-7" d="M894.22,103.51a21.17,21.17,0,0,0-13.4-3.23C884.72,98.41,892.73,100.15,894.22,103.51Z"/><path id="パス_268" data-name="パス 268" class="cls-7" d="M904.41,150.19c0-.11-.11-.26-.06-.34a59.94,59.94,0,0,1,7.87-8.82l.34.32q-4.08,4.4-8.2,8.78Z"/><path id="パス_269" data-name="パス 269" class="cls-7" d="M837.35,129.24a5.6,5.6,0,0,1-4.09,1.69,1,1,0,0,1-1-.6c-.2-.45.12-.8.45-1.06s.64-.56,1.11-.38A4,4,0,0,0,837.35,129.24Z"/><path id="パス_270" data-name="パス 270" class="cls-7" d="M910.29,150.75a76.12,76.12,0,0,1,7.73-8.23,57.36,57.36,0,0,1-7.78,8.18Z"/><path id="パス_271" data-name="パス 271" class="cls-7" d="M870.13,129.82c-1.13-.24-2.35-.56-2.49-1.63s.88-1.66,2.22-1.84A2.56,2.56,0,0,0,870.13,129.82Z"/><path id="パス_272" data-name="パス 272" class="cls-7" d="M923.25,141.79c.82-1,.85-2.42,2-3.63a27.69,27.69,0,0,1-3.16,7l1.17-3.41Z"/><path id="パス_273" data-name="パス 273" class="cls-7" d="M875.7,139.57a7.72,7.72,0,0,1-1-1.6c-.15-.42.34-.73.75-.8.64-.1,1,.25,1,.89S876.58,139.25,875.7,139.57Z"/><path id="パス_274" data-name="パス 274" class="cls-7" d="M923.29,141.74c-1.24,1-1.3,2.84-2.66,3.84l2.21-4.67c.48.18.08.69.4.88Z"/></g></g></g></g><path id="パス_297" data-name="パス 297" class="cls-9" d="M103.79,60.26A13.05,13.05,0,0,0,90.35,47.63c-.26,0-.5,0-.75,0-.72-5.15-6.51-9.16-13.57-9.16A15.32,15.32,0,0,0,64.8,42.92,15.69,15.69,0,0,0,54,39c-7,0-12.76,3.84-13.47,8.77-.26,0-.52,0-.79,0a10.69,10.69,0,0,0-11.47,9.67A8.69,8.69,0,0,0,30.35,63a12.24,12.24,0,0,0,7,21.47c0,.32-.06.65-.06,1,0,6.81,6.58,12.33,14.7,12.33a15.66,15.66,0,0,0,11.89-5.11,14,14,0,0,0,19.69,1.47c.35-.31.69-.63,1-1a15.24,15.24,0,0,0,12.74,1.76,13.85,13.85,0,0,1-6.68-5.83,11.86,11.86,0,0,0,10.9-11.67,11.55,11.55,0,0,0-2.67-7.35A12.31,12.31,0,0,0,103.79,60.26Z"/><path id="パス_298" data-name="パス 298" class="cls-10" d="M1038.25,61.27c-.72-12.24-9-23.05-22.33-28.45a68.47,68.47,0,0,0-44.48-.36c-10.46,3.85-20,13.14-22,21.26s-3.42,23.41,10.45,32.77c.24.17.5.34.76.49a15,15,0,0,1-6,7,16.62,16.62,0,0,0,12.85-3.71,88.61,88.61,0,0,0,48.49,1.26A30.11,30.11,0,0,0,1038.25,61.27Z"/><circle class="cls-11" cx="306.27" cy="91.12" r="54.61"/><path class="cls-6" d="M348.92,90c0-19.09-19.14-34.61-42.65-34.61S263.62,70.87,263.62,90c0,17.11,15.17,31.43,35.67,34.14,1.39.3,3.28.92,3.76,2.11a8.78,8.78,0,0,1,.14,3.85s-.49,3-.61,3.65c-.19,1.08-.86,4.22,3.69,2.3s24.56-14.46,33.51-24.76h0C346,104.47,348.92,97.6,348.92,90Z"/><path class="cls-12" d="M334.42,99.9h-12a.82.82,0,0,1-.82-.81h0V80.49h0a.82.82,0,0,1,.81-.82h12a.82.82,0,0,1,.82.81v3a.82.82,0,0,1-.82.81h-8.14v3.15h8.14a.81.81,0,0,1,.81.81v3a.82.82,0,0,1-.81.82h-8.15v3.14h8.15a.81.81,0,0,1,.81.81v3A.81.81,0,0,1,334.42,99.9Z"/><path class="cls-12" d="M290.09,99.9a.82.82,0,0,0,.82-.81v-3a.82.82,0,0,0-.82-.81H282V80.49a.82.82,0,0,0-.81-.82h-3a.82.82,0,0,0-.81.82v18.6h0a.82.82,0,0,0,.81.82h12Z"/><rect class="cls-12" x="293.47" y="79.66" width="4.65" height="20.24" rx="0.81"/><path class="cls-12" d="M317.9,79.66h-3a.81.81,0,0,0-.81.81V91.53L305.54,80l-.06-.09h0l-.05,0h0l0,0,0,0-.05,0h0l0,0h0l0,0h0l0,0h-3.24a.82.82,0,0,0-.82.82V99.09a.82.82,0,0,0,.82.82h3a.82.82,0,0,0,.81-.82V88l8.53,11.51a1,1,0,0,0,.21.21h0l.05,0h0l0,0,0,0h0l.06,0h0l.21,0h3a.81.81,0,0,0,.81-.81V80.48A.8.8,0,0,0,317.9,79.66Z"/></g></g></svg>