<svg xmlns="http://www.w3.org/2000/svg" xmlns:xlink="http://www.w3.org/1999/xlink" viewBox="0 0 1052.07 188.97"><defs><style>.cls-1{fill:none;}.cls-2{fill:#b0e2db;}.cls-3{isolation:isolate;}.cls-4{fill:#707070;}.cls-5{clip-path:url(#clip-path);}.cls-10,.cls-6,.cls-9{fill:#fff;}.cls-7{fill:#81bfb7;}.cls-8{clip-path:url(#clip-path-2);}.cls-10,.cls-9{stroke:#707070;stroke-linecap:round;stroke-linejoin:round;}.cls-9{stroke-width:1.08px;}.cls-10{stroke-width:1.01px;}</style><clipPath id="clip-path"><rect class="cls-1" x="103.79" y="31.32" width="129.36" height="147.32"/></clipPath><clipPath id="clip-path-2"><rect class="cls-1" x="822.86" y="45.37" width="122.7" height="132.93"/></clipPath></defs><g id="レイヤー_2" data-name="レイヤー 2"><g id="レイヤー_1-2" data-name="レイヤー 1"><path id="パス_254" data-name="パス 254" class="cls-2" d="M0,0H1052.07V178.69H0Z"/><g id="LINEで編集部と話してみる" class="cls-3"><g class="cls-3"><path class="cls-4" d="M262.15,125.18h15.36v3.12h-19v-31h3.66Z"/><path class="cls-4" d="M291.44,128.3h-3.66v-31h3.66Z"/><path class="cls-4" d="M327.17,128.3H322.5l-9.72-18.77c-1.73-3.37-2.82-5.77-4.42-9h-.63c0,3.49.17,6.52.17,10V128.3h-3.41v-31h5.68l8.88,17.38c1.81,3.49,2.9,6.19,4.38,9.3h.67c-.13-3.32-.34-6.52-.34-10.18V97.28h3.41Z"/><path class="cls-4" d="M359.74,100.35H343.88v9.93h12v3.08h-12v11.86H360v3.08H340.22v-31h19.52Z"/><path class="cls-4" d="M391.14,103c-6.32,1-11.79,1.9-17.09,3a9.24,9.24,0,0,0-2.52.72,2.52,2.52,0,0,1-.8.29.7.7,0,0,1-.59-.38,23.73,23.73,0,0,1-1.18-3,33,33,0,0,0,5.22-.51c6.27-1,14.81-2.27,26.09-3.66.42,0,.63.08.71.34a11.48,11.48,0,0,1,.26,2.1c0,.38-.13.46-.55.51a17.1,17.1,0,0,0-6.14,1.26c-6.15,2.44-10.86,7.62-10.86,13.25,0,7,6.1,9,12.24,9.56.55,0,.68.12.68.46a13.37,13.37,0,0,1-.25,2c-.09.46-.22.63-.68.59-7.11-.63-14.77-3.66-14.77-12.16,0-5.94,3.66-10.82,10.27-14.31Zm5.13,5.94a.31.31,0,0,1,.42,0,20.36,20.36,0,0,1,4.76,5.09.32.32,0,0,1-.09.47l-1.22,1a.33.33,0,0,1-.54-.09,18.19,18.19,0,0,0-4.89-5.39Zm3.49-2.74c.17-.12.3-.17.47,0a24.54,24.54,0,0,1,4.79,4.92c.13.22.09.34-.12.51l-1.14,1c-.17.17-.33.17-.5-.09a20,20,0,0,0-4.84-5.25Z"/><path class="cls-4" d="M416.93,119.25a6.06,6.06,0,0,0-.25,1.47,34.89,34.89,0,0,1-1.81,7.79c-.17.42-.25.59-.46.59s-.34-.13-.67-.34a6.53,6.53,0,0,0-1.27-.59,25.59,25.59,0,0,0,2-7.87,15.94,15.94,0,0,0,0-2.4,18.34,18.34,0,0,1,2.11.38c.38.08.54.21.54.42A1.23,1.23,0,0,1,416.93,119.25Zm7.37-10.73c.38-.13.5-.13.63.12a40,40,0,0,1,2.4,6.82c.08.3,0,.42-.46.55l-.89.25c-.55.17-.63.17-.71-.25-.17-.63-.34-1.31-.55-2l-3.33.38v11.32c0,4.59.09,5.93.09,6.14s0,.3-.34.3h-1.85c-.29,0-.34,0-.34-.3s.09-1.55.09-6.14V114.62c-1.14.08-2.27.17-3.45.21a3,3,0,0,0-1.6.34,1.1,1.1,0,0,1-.51.17c-.21,0-.33-.22-.42-.55-.12-.63-.29-1.43-.42-2.23.93.08,1.81.08,2.57.08h.25c1.14-1.47,2.23-3,3.24-4.54a53.07,53.07,0,0,0-5.6-6c-.25-.21-.25-.29.13-.71l.76-.89c.33-.38.38-.38.63-.17l1.26,1.18a50.43,50.43,0,0,0,2.74-5,10.63,10.63,0,0,0,.92-2.53,16.89,16.89,0,0,1,2.15,1c.34.21.46.29.46.5s-.17.34-.33.47a2.42,2.42,0,0,0-.72.92c-1.39,2.44-2.44,4.29-3.7,6.23.92.93,1.76,1.89,2.65,3,1.05-1.65,2-3.33,3-5a11.46,11.46,0,0,0,1.17-2.65,20.65,20.65,0,0,1,2.15,1.05c.34.21.42.34.42.55s-.17.33-.42.5a6.85,6.85,0,0,0-1.35,1.81c-2.31,3.66-4.58,7-6.94,10.19,2.15-.09,4.21-.21,6.06-.38-.34-1-.72-1.94-1.09-2.82-.13-.3-.05-.38.42-.55Zm.17,8.92c.46-.09.54-.09.63.21a22,22,0,0,1,1.18,5.47c0,.38,0,.51-.47.59l-.75.13c-.72.12-.76.12-.8-.26a23.6,23.6,0,0,0-1-5.43c-.13-.33-.05-.42.46-.54ZM448.75,107c0,1.9.08,2.4.08,2.65s0,.34-.33.34-1.6-.08-5.39-.08H431.2a78.8,78.8,0,0,1-.93,10.47,30.83,30.83,0,0,1-3.36,9.6c-.21.38-.3.55-.47.55s-.29-.13-.54-.38a4.73,4.73,0,0,0-1.39-.89,24.67,24.67,0,0,0,3.66-9.88,56.16,56.16,0,0,0,.8-10c0-5.22-.08-7.32-.08-7.58s0-.33.33-.33,1.56.08,5.39.08h8.5c3.79,0,5.18-.08,5.39-.08s.33,0,.33.33-.08.72-.08,2.65Zm1.72-8.88c0,.3,0,.34-.29.34s-1.6-.08-5.77-.08H433c-4.12,0-5.51.08-5.77.08s-.33,0-.33-.34V96.4c0-.3,0-.34.33-.34s1.65.08,5.77.08h11.4c4.17,0,5.56-.08,5.77-.08s.29,0,.29.34Zm-4.08,5.56H431.28v2.82c0,.33,0,.8-.08,1.3h15.19Zm3.62,19.4c0,2.14.09,4.25.09,5.34a2.85,2.85,0,0,1-.89,2.49c-.59.42-1,.59-2.57.59-.79,0-.84,0-1-.85a3.55,3.55,0,0,0-.54-1.3,15.75,15.75,0,0,0,1.64.08c1,0,1.09-.25,1.09-1.64v-5H444.5v3.08c0,3,.08,4.25.08,4.46s0,.33-.33.33h-1.52c-.29,0-.34,0-.34-.33s.09-1.43.09-4.46v-3.08h-3.24v3.08c0,3,.08,4.25.08,4.46s0,.33-.33.33h-1.52c-.29,0-.34,0-.34-.33s.09-1.43.09-4.46v-3.08H434V127c0,3,.08,4.34.08,4.55s0,.34-.33.34h-1.6c-.34,0-.38,0-.38-.34s.08-1.31.08-4.5V118.2c0-3.2-.08-4.38-.08-4.59s0-.34.38-.34,1.47.09,5.09.09h7.41c3.62,0,4.88-.09,5.13-.09s.3,0,.3.34-.09,1.6-.09,4.84Zm-12.79-7.74H434v5.51h3.2Zm5.26,0h-3.24v5.51h3.24Zm5.34,0H444.5v5.51h3.32Z"/><path class="cls-4" d="M494.16,116.09c0,.3-.05.34-.34.34s-1.64-.09-5.93-.09H471.22c-4.25,0-5.81.09-6,.09s-.33,0-.33-.34.08-1.47.08-4.67v-5c0-1.27,0-2.61.08-3.75-1.13,1.22-2.39,2.48-3.78,3.75-.3.25-.47.37-.63.37s-.3-.16-.51-.5A5,5,0,0,0,459,105a27.57,27.57,0,0,0,8.13-8.54,10.09,10.09,0,0,0,1.13-2.53,16.75,16.75,0,0,1,2.44.76.61.61,0,0,1,.38.46c0,.17-.12.34-.42.55a9.09,9.09,0,0,0-1.26,1.52c-.34.5-.72,1.09-1.18,1.68h9.34a14.74,14.74,0,0,0,1.52-2.65,8.66,8.66,0,0,0,.76-2.27,25.45,25.45,0,0,1,2.44.75c.29.13.42.3.42.47s-.21.38-.42.5a4.18,4.18,0,0,0-.76,1,25.32,25.32,0,0,1-1.35,2.15h7.49c4.25,0,5.6-.08,5.85-.08s.34,0,.34.29v1.52c0,.33,0,.37-.34.37s-1.6-.08-5.85-.08h-7.91V104h5.94c4.2,0,5.63-.08,5.84-.08s.38,0,.38.34v1.47c0,.29,0,.34-.38.34s-1.64-.09-5.84-.09h-5.94v3.16h5.94c4.2,0,5.63-.09,5.84-.09s.38,0,.38.34v1.47c0,.3,0,.34-.38.34s-1.64-.08-5.84-.08h-5.94v3.19h8.17c4.29,0,5.72-.08,5.93-.08s.34,0,.34.3Zm-12.88,5.81c4.38,3.32,8.92,5.34,15.91,6.82a4.68,4.68,0,0,0-1.14,1.6c-.38.8-.42.84-1.26.59-6.48-1.77-11.62-4.47-15.57-8.34,0,5.77.21,8.46.21,9.26,0,.25-.05.3-.34.3h-2c-.29,0-.34,0-.34-.3,0-.8.17-3.49.21-9.26-3.87,3.87-9.3,6.4-15.27,8.17-.8.21-.89.21-1.26-.59a4.88,4.88,0,0,0-1-1.43c6.31-1.52,11.19-3.62,15.32-6.82h-8.38c-4,0-5.34.08-5.6.08s-.33,0-.33-.33v-1.73c0-.25,0-.29.33-.29s1.6.08,5.6.08h10.48a17.54,17.54,0,0,0-.17-2.9c1,.08,1.94.17,2.53.25.38.08.46.21.46.38s-.13.34-.25.55a5.51,5.51,0,0,0-.13,1.72h10.94c4,0,5.39-.08,5.6-.08s.34,0,.34.29v1.73c0,.29-.05.33-.34.33s-1.6-.08-5.6-.08Zm-3.83-21H467.31V104h10.14Zm0,5.09H467.31v3.16h10.14Zm0,5.14H467.31v3.19h10.14Z"/><path class="cls-4" d="M527.15,111.84c0,.3,0,.34-.34.34s-1.51-.09-5.47-.09H512c-4,0-5.26.09-5.47.09s-.34,0-.34-.34v-1.77c0-.29,0-.33.34-.33s1.51.08,5.47.08h6.61a44.3,44.3,0,0,0,1.89-5,10.07,10.07,0,0,0,.38-2.27,23.14,23.14,0,0,1,2.44.63c.34.13.5.25.5.42a.86.86,0,0,1-.33.67,3.53,3.53,0,0,0-.63,1c-.59,1.48-1.22,3-1.94,4.59h.42c4,0,5.22-.08,5.47-.08s.34,0,.34.33Zm-.67-10.94c0,.29-.05.34-.3.34s-1.47-.09-5.26-.09h-8c-3.83,0-5,.09-5.26.09s-.33,0-.33-.34V99.17c0-.29,0-.33.33-.33s1.43.08,5.26.08h2.66V97.7a16.35,16.35,0,0,0-.26-3.62,22.23,22.23,0,0,1,2.65.26c.3,0,.51.16.51.33a2,2,0,0,1-.25.72A6.06,6.06,0,0,0,518,97.7v1.22h2.9c3.79,0,5-.08,5.26-.08s.3,0,.3.33Zm-2.11,23.31c0,5.85.09,6.82.09,7s-.05.38-.34.38h-1.81c-.3,0-.34,0-.34-.38v-2.35H511.7v2.52c0,.25,0,.3-.33.3h-1.9c-.25,0-.29-.05-.29-.3s.08-1.22.08-7.11v-3.12c0-3.19-.08-4.29-.08-4.54s0-.34.29-.34,1.31.09,4.59.09h5.43c3.28,0,4.38-.09,4.63-.09s.34,0,.34.34-.09,1.35-.09,4ZM511.7,102.5c.47-.13.64-.08.72.13a23.15,23.15,0,0,1,1.81,5.17c.08.38.08.38-.42.55l-1.22.34c-.55.16-.59.08-.68-.26a24,24,0,0,0-1.72-5.13c-.17-.34-.13-.34.42-.51ZM522,118.62H511.7v8H522Zm17.55-22.18a2.89,2.89,0,0,0,1.1-.13,1,1,0,0,1,.46-.08c.25,0,.5.12,1.13.76s.72.92.72,1.13a.57.57,0,0,1-.29.55,3,3,0,0,0-.89,1.35,90.75,90.75,0,0,1-5.3,10.1c5.22,4.2,6.56,6.81,6.56,9.89,0,3.87-2.65,6.1-7.86,6.35-.8.08-.8.08-1-.8a3.37,3.37,0,0,0-.75-1.6c4.71.09,7.15-1.13,7.15-4.16,0-2.57-1.13-4.55-6.86-9.35a65.72,65.72,0,0,0,5.89-11.74h-8.08V123.2c0,5.73.09,8.3.09,8.51s0,.29-.34.29h-1.94c-.29,0-.33,0-.33-.29s.08-2.61.08-8.46V105.19c0-5.85-.08-8.25-.08-8.5s0-.34.33-.34,1.27.09,3.75.09Z"/><path class="cls-4" d="M564.31,96.48a.62.62,0,0,1,.5.55c0,.42-.21.8-.21,1.47a26.91,26.91,0,0,0,.26,2.69,55.32,55.32,0,0,0,1.64,8.51c2.48-1.23,5-2.4,7.49-3.79a6.89,6.89,0,0,0,2.44-1.94,17.3,17.3,0,0,1,2.14,2.36c.34.5.26,1.09-.5,1.18a16,16,0,0,0-3.7,1.34c-3.08,1.43-6.7,3.16-9.56,4.8-4.25,2.48-6.23,4.67-6.23,7.62,0,3.74,3.54,4.67,9.89,4.63a79.24,79.24,0,0,0,10.82-.89c.38,0,.5,0,.59.38a17.46,17.46,0,0,1,.25,2.19c0,.38-.12.55-.59.59a93.32,93.32,0,0,1-11.19.59c-7.28,0-12.54-1.6-12.54-7.37,0-4,2.86-7.15,8.2-10.39a75.86,75.86,0,0,1-2.23-10.77,15.56,15.56,0,0,0-.92-4.13A19.1,19.1,0,0,1,564.31,96.48Z"/><path class="cls-4" d="M606.26,104c0,.34,0,.38-.33.38s-1.22-.08-4.42-.08h-5.18c-3.2,0-4.21.08-4.42.08s-.33,0-.33-.38v-1.72c0-.3,0-.34.33-.34s1.22.09,4.42.09h5.18c3.2,0,4.21-.09,4.42-.09s.33,0,.33.34ZM605,125.1c0,4.92.09,5.72.09,5.93s-.05.34-.34.34H603c-.29,0-.33,0-.33-.34v-1.39h-6.82v2.15c0,.29,0,.34-.34.34h-1.72c-.3,0-.34,0-.34-.34s.09-1,.09-6.19V123c0-2.57-.09-3.45-.09-3.66s0-.34.34-.34,1.05.08,3.7.08H601c2.7,0,3.5-.08,3.75-.08s.34,0,.34.34-.09,1.05-.09,3Zm.25-26.89c0,.29,0,.33-.33.33s-1-.08-3.71-.08H597.6c-2.7,0-3.5.08-3.71.08s-.33,0-.33-.33V96.52c0-.29,0-.33.33-.33s1,.08,3.71.08h3.61c2.7,0,3.46-.08,3.71-.08s.33,0,.33.33Zm-.58,11.53c0,.29,0,.33-.38.33s-.89-.08-3.45-.08h-3.16c-2.57,0-3.28.08-3.49.08s-.34,0-.34-.33V108.1c0-.3,0-.34.34-.34s.92.08,3.49.08h3.16c2.56,0,3.24-.08,3.45-.08s.38,0,.38.34Zm0,5.6c0,.29,0,.33-.38.33s-.89-.08-3.45-.08h-3.16c-2.57,0-3.28.08-3.49.08s-.34,0-.34-.33v-1.65c0-.29,0-.33.34-.33s.92.08,3.49.08h3.16c2.56,0,3.24-.08,3.45-.08s.38,0,.38.33Zm-2,5.84h-6.82v6.4h6.82ZM629,109.57c0,.29,0,.34-.33.34s-1.6-.09-5.64-.09h-4.38v7h2.44c3.54,0,4.76-.09,5-.09s.33,0,.33.34-.08,1.26-.08,4v3.58c0,5.85.08,6.78.08,7s0,.33-.33.33h-1.9c-.29,0-.33,0-.33-.33v-1.85H611.36v2.1c0,.29,0,.34-.34.34h-1.89c-.3,0-.34,0-.34-.34s.08-1.22.08-7.11v-3.16c0-3.2-.08-4.25-.08-4.5s0-.34.34-.34,1.47.09,5,.09h2v-7h-3.53c-4.08,0-5.39.09-5.6.09s-.33,0-.33-.34v-1.81c0-.29,0-.34.33-.34s1.52.09,5.6.09h3.53v-7.16c-2.23.51-4.54.93-7,1.27-.68.08-.72.08-1-.59a4.27,4.27,0,0,0-1-1.6,54.71,54.71,0,0,0,15.15-3.37,9.31,9.31,0,0,0,2.48-1.39,14.36,14.36,0,0,1,1.73,1.77,1,1,0,0,1,.29.63c0,.21-.25.34-.67.34a4.1,4.1,0,0,0-1.31.29c-2,.76-4,1.43-6.14,2v7.79h4.38c4,0,5.38-.09,5.64-.09s.33,0,.33.34ZM623.9,119H611.36v8.46H623.9Z"/><path class="cls-4" d="M646.54,97c.46.12.67.34.67.63a3.33,3.33,0,0,1-.33,1.09,23.85,23.85,0,0,0-.51,4.34c-.38,6.35-.63,12.12-.63,17.93,0,4.71,1.3,6.14,5,6.14,5.34,0,10.81-3.24,15.15-8a9.76,9.76,0,0,0,.71,2.44,2,2,0,0,1,.17.59c0,.25-.13.47-.51.8-4.41,4.25-10,7.07-16,7.07-4.76,0-7.32-2.27-7.32-8.46,0-6,.38-12.83.59-18.77a23.42,23.42,0,0,0-.34-6.35A16.62,16.62,0,0,1,646.54,97Z"/><path class="cls-4" d="M693.55,102.75c-6.32,1-11.79,1.9-17.09,3a8.64,8.64,0,0,0-2.53.72,2.36,2.36,0,0,1-.8.29.7.7,0,0,1-.58-.38,21.94,21.94,0,0,1-1.18-3,32.7,32.7,0,0,0,5.22-.5c6.27-1,14.81-2.27,26.09-3.66.42,0,.63.08.71.33a11.7,11.7,0,0,1,.26,2.11c0,.38-.13.46-.55.5a17.64,17.64,0,0,0-6.15,1.26c-6.14,2.45-10.85,7.62-10.85,13.26,0,7,6.1,9,12.24,9.55.55,0,.68.13.68.47a12.29,12.29,0,0,1-.26,2c-.08.46-.21.63-.67.59-7.11-.64-14.77-3.66-14.77-12.17,0-5.93,3.66-10.81,10.27-14.3Z"/><path class="cls-4" d="M742.11,108.69A9.65,9.65,0,0,0,742,106a9,9,0,0,1,3.16,1.18.58.58,0,0,1,.21.84,2.54,2.54,0,0,0-.46,1.26c-.3,1.9-.8,4.42-1.31,6.4a50.85,50.85,0,0,1,7.11,4.34c.26.12.26.29.17.54-.29.59-.76,1.56-1.09,2.11-.17.25-.38.17-.55,0a39.57,39.57,0,0,0-6.44-4.34c-2.1,5.47-4.42,8.88-8.84,12-.5.38-.67.42-1.05.16a4.54,4.54,0,0,0-2.14-1c5.3-3.66,7.7-7.11,9.51-12.2a29.89,29.89,0,0,0-10.36-3c-1.89,4.08-3.19,6.48-4.62,8A6.7,6.7,0,0,1,720.1,125c-2.1,0-4.25-1.47-4.25-4.75,0-4.67,5.22-8.42,12.24-8.46a120.69,120.69,0,0,0,4.34-11.7c-2.9.29-5.93.63-7.41.84a11.59,11.59,0,0,0-1.85.38,1.2,1.2,0,0,1-.5.13.56.56,0,0,1-.51-.26,14.42,14.42,0,0,1-.88-3,11.79,11.79,0,0,0,3.66.21c1.85-.08,4.12-.29,6.44-.59a4,4,0,0,0,1.93-.59.78.78,0,0,1,.89-.08,7.53,7.53,0,0,1,1.81,1.6c.33.42.33.71,0,1a5.76,5.76,0,0,0-1,2c-1.39,3.87-2.7,6.86-4.09,10.23a35.63,35.63,0,0,1,10.23,2.69A50.57,50.57,0,0,0,742.11,108.69ZM718.29,120c0,1.39.71,2.36,1.89,2.36,1,0,2.19-.55,3.41-2.06a26,26,0,0,0,3.58-6.15C722.12,114.28,718.29,116.93,718.29,120Z"/><path class="cls-4" d="M770.3,113.27a16.5,16.5,0,0,1,9.05-3c6.06,0,9.81,3.75,9.81,9.22,0,6.27-5,10.82-13.89,10.82-5,0-7.32-2.28-7.32-5,0-2.19,1.93-4.29,4.92-4.29,3.79,0,6.36,2.44,7.16,6,3.61-1.18,6.14-3.54,6.14-7.66,0-4.3-3.28-6.91-7.28-6.91-4.17,0-8.33,2.15-11.57,4.76a39.82,39.82,0,0,0-3.71,3.45c-.33.34-.54.38-.84.09a20.54,20.54,0,0,1-1.56-1.69c-.17-.21-.12-.38.17-.63a113.76,113.76,0,0,0,9.51-9.38c2.44-2.65,5-5.35,8.21-9.18-3.49.55-6.78,1.18-10.52,1.9a7,7,0,0,0-1.47.37,2.56,2.56,0,0,1-.8.22.75.75,0,0,1-.68-.51,13.56,13.56,0,0,1-1-2.9,16.56,16.56,0,0,0,3.71,0c3.32-.34,6.77-.8,10.47-1.52a4.27,4.27,0,0,0,1.31-.38,1.35,1.35,0,0,1,.59-.29,1.24,1.24,0,0,1,.76.34A10.54,10.54,0,0,1,783.27,99a1.16,1.16,0,0,1,.29.72.87.87,0,0,1-.63.8,4.56,4.56,0,0,0-2,1.47c-3.74,4-6.56,6.9-10.77,11.2ZM773,123.33c-1.35,0-2.57.67-2.57,2s1.51,2.57,4.33,2.57a16.11,16.11,0,0,0,2.74-.21C776.91,125.27,775.35,123.33,773,123.33Z"/></g></g><g id="_登録しようとしている方へ_" data-name=" 登録しようとしている方へ " class="cls-3"><g class="cls-3"><path class="cls-4" d="M309.64,53.69l1.14-1.11L337.28,80l-1.17,1.08Z"/><path class="cls-4" d="M355.31,54.21c1.33,0,2.28-.06,2.5-.06s.28.06.4.34a14.33,14.33,0,0,0,1.14,2.13,15.11,15.11,0,0,0,1.33,1.79,22.51,22.51,0,0,0,2.5-2.62,6.08,6.08,0,0,0,.74-1.21,10.25,10.25,0,0,1,1.51,1c.18.15.25.25.25.37s-.13.25-.31.34a2.46,2.46,0,0,0-1,.77,30.66,30.66,0,0,1-2.65,2.53,23.22,23.22,0,0,0,2.31,1.94,33.17,33.17,0,0,0,3-2.86,7.2,7.2,0,0,0,.84-1.21,13.6,13.6,0,0,1,1.48,1c.18.15.31.25.27.4a.59.59,0,0,1-.4.37,2,2,0,0,0-.92.68,34.08,34.08,0,0,1-2.9,2.56,31.64,31.64,0,0,0,6.17,3,4,4,0,0,0-.8,1.11c-.19.34-.25.46-.4.46a1.58,1.58,0,0,1-.47-.15c-5.71-2.56-10-5.68-12.65-10.61-2.81,4.56-6.14,7.68-12.37,10.76a1.25,1.25,0,0,1-.46.16c-.16,0-.22-.12-.43-.49a2.92,2.92,0,0,0-.81-.93,32,32,0,0,0,7-4,20.47,20.47,0,0,0-3.52-3.09c-.19-.12-.19-.18,0-.4l.74-.68c.19-.18.25-.21.43-.09a27.18,27.18,0,0,1,3.67,3.15,22.94,22.94,0,0,0,3.95-4.72h-4.44c-2.31,0-3,.06-3.18.06s-.27,0-.27-.25V54.4c0-.22,0-.25.27-.25s.87.06,3.18.06Zm15.52,25.3c0,.22,0,.25-.25.25s-1.14-.06-4-.06h-18.2c-2.9,0-3.86.06-4,.06s-.24,0-.24-.25V78.22c0-.22,0-.25.24-.25s1.15.06,4,.06h11.1c.62-1,1.11-1.94,1.48-2.68a6.55,6.55,0,0,0,.59-1.73,12.36,12.36,0,0,1,1.79.71c.22.09.28.22.28.34s-.13.25-.28.37a1.94,1.94,0,0,0-.62.83c-.4.68-.8,1.42-1.29,2.16h5.15c2.9,0,3.89-.06,4-.06s.25,0,.25.25Zm-5.62-8.82c0,1.51.06,2,.06,2.16s0,.24-.24.24S363.85,73,361,73h-7.12c-2.87,0-3.86.06-4,.06s-.25,0-.25-.24.06-.65.06-2.16v-2c0-1.51-.06-2-.06-2.15s0-.25.25-.25,1.17.06,4,.06H361c2.9,0,3.89-.06,4.08-.06s.24,0,.24.25-.06.64-.06,2.15Zm-1.82-2.75h-12v3.58h12Zm-10.7,5.93c.34-.16.37-.16.52.06a15.36,15.36,0,0,1,1.57,2.84c.1.24.07.27-.3.46l-.81.4c-.4.19-.46.19-.55-.06a13.86,13.86,0,0,0-1.48-2.93c-.16-.22-.1-.25.24-.4Zm9.47-10c0,.22,0,.25-.22.25s-.83-.06-3.08-.06h-3.18c-2.25,0-2.9.06-3.06.06s-.24,0-.24-.25V62.7c0-.22,0-.25.24-.25s.81.06,3.06.06h3.18c2.25,0,2.93-.06,3.08-.06s.22,0,.22.25Z"/><path class="cls-4" d="M385.09,54.49a19.3,19.3,0,0,0,4.41,4.38,2.39,2.39,0,0,0-.8,1c-.15.28-.22.4-.31.4s-.21-.12-.46-.31a24.29,24.29,0,0,1-3.61-4.1A27.24,27.24,0,0,1,378.89,62c-.22.15-.34.24-.46.24s-.22-.12-.31-.4a3,3,0,0,0-.71-1.08,19.37,19.37,0,0,0,5.46-6,4.42,4.42,0,0,0,.65-1.67,11.52,11.52,0,0,1,1.79.5c.18.06.3.18.3.27a.45.45,0,0,1-.27.41ZM389,67.67c0,.21,0,.24-.25.24s-.86-.06-3.21-.06h-.71v8.52c1.21-.41,2.47-.87,3.7-1.42a5,5,0,0,0-.15,1.14c0,.62-.09.65-.59.83-2.22.86-4.59,1.64-7.31,2.41a4,4,0,0,0-1.14.46.71.71,0,0,1-.4.19.4.4,0,0,1-.37-.25c-.22-.53-.4-1.11-.59-1.7a14.8,14.8,0,0,0,2.35-.4c.89-.22,1.85-.43,2.81-.71V67.85h-1.21c-2.34,0-3.05.06-3.21.06s-.24,0-.24-.24V66.49c0-.21,0-.24.24-.24s.87.06,3.21.06h1.21V62.94h-.22c-1.91,0-2.44.07-2.62.07s-.25,0-.25-.28V61.62c0-.22,0-.25.25-.25s.71.06,2.62.06h2.38c1.88,0,2.4-.06,2.59-.06s.24,0,.24.25v1.11c0,.24,0,.28-.24.28s-.71-.07-2.59-.07h-.47v3.37h.71c2.35,0,3.06-.06,3.21-.06s.25,0,.25.24Zm-8.92,2c.34-.12.37-.12.46.09a23.27,23.27,0,0,1,1.11,4.76c0,.21.07.27-.3.43l-.74.31c-.31.12-.44.12-.47-.13a22.57,22.57,0,0,0-1.05-4.78c-.09-.25-.06-.28.34-.43Zm8.76.77a2.21,2.21,0,0,0-.46.87c-.28.86-.65,1.91-1,2.71-.18.53-.18.53-.61.31a4.45,4.45,0,0,0-1-.31,19.23,19.23,0,0,0,1.2-3.64,4.19,4.19,0,0,0,.16-1.17,17.06,17.06,0,0,1,1.63.55c.19.1.28.22.28.31S389,70.32,388.82,70.47Zm8.86-5.27a25.3,25.3,0,0,0,2.13,5.61,23,23,0,0,0,2.65-3.14,5.63,5.63,0,0,0,.68-1.21,7.94,7.94,0,0,1,1.33.93.63.63,0,0,1,.24.43c0,.12-.15.25-.34.37a4,4,0,0,0-.92.89,23.37,23.37,0,0,1-2.87,3.06A17.38,17.38,0,0,0,406,77.38a4.22,4.22,0,0,0-.9,1.15c-.15.27-.21.4-.34.4s-.21-.1-.4-.25a19.36,19.36,0,0,1-6.88-10.58v2.09c0,4.36.13,6.36.13,8,0,1.14-.13,1.75-.81,2.22-.43.3-1.17.49-3,.52-.62,0-.62,0-.77-.62A3.41,3.41,0,0,0,392.4,79a15.06,15.06,0,0,0,2,.12c1.23,0,1.48-.22,1.48-1.17V73.65A36.33,36.33,0,0,1,391,77.14a3.38,3.38,0,0,0-1,.74.4.4,0,0,1-.31.21.33.33,0,0,1-.34-.18,13.3,13.3,0,0,1-.93-1.51,13.54,13.54,0,0,0,1.67-.74,36.24,36.24,0,0,0,5.8-4V65.2h-2.65c-3,0-4,.06-4.17.06s-.25,0-.25-.25V63.78c0-.22,0-.25.25-.25s1.14.06,4.17.06h6.44l.22-3h-5.18c-2.32,0-3,.06-3.21.06s-.25,0-.25-.24V59.24c0-.21,0-.24.25-.24s.89.06,3.21.06H400l.22-2.78H394c-2.44,0-3.24.06-3.43.06s-.24,0-.24-.25V54.86c0-.22,0-.25.24-.25s1,.07,3.43.07h4.35c2.47,0,3.27-.07,3.42-.07s.28.07.28.28c-.09.77-.12,1.42-.18,2.13l-.5,6.57c2.72,0,3.67-.06,3.83-.06s.28,0,.28.25V65c0,.22,0,.25-.28.25s-1.14-.06-4.17-.06Zm-6.6,1.6c.24-.18.3-.18.49,0A16.87,16.87,0,0,1,394,70.38c.09.18.09.22-.22.46l-.62.5c-.18.12-.28.21-.37.21s-.12-.09-.18-.21a13.15,13.15,0,0,0-2.32-3.67c-.15-.16-.12-.22.19-.44Z"/><path class="cls-4" d="M418.11,55.08c.34.09.49.24.49.46a2.38,2.38,0,0,1-.24.8,16.68,16.68,0,0,0-.37,3.18c-.28,4.66-.47,8.89-.47,13.14,0,3.46,1,4.51,3.65,4.51,3.91,0,7.92-2.38,11.1-5.9a7.36,7.36,0,0,0,.53,1.79,1.63,1.63,0,0,1,.12.44c0,.18-.09.34-.37.58a17.15,17.15,0,0,1-11.75,5.19c-3.49,0-5.37-1.67-5.37-6.21,0-4.38.27-9.41.43-13.76a17,17,0,0,0-.25-4.66A12.44,12.44,0,0,1,418.11,55.08Z"/><path class="cls-4" d="M459.28,60.14a.21.21,0,0,1,.27.12,10.57,10.57,0,0,1,.5,1.57c0,.22-.06.28-.19.31a38.88,38.88,0,0,1-8.11,1.51,79.15,79.15,0,0,0,.58,8.36,33.29,33.29,0,0,1,8.8,4,.29.29,0,0,1,.15.4,6,6,0,0,1-.92,1.51c-.13.12-.19.15-.34.06a28.68,28.68,0,0,0-7.59-3.92c0,.19,0,.5,0,.87,0,2.56-2.07,4.47-5.56,4.47-3.79,0-5.89-1.57-5.89-3.86,0-2.47,2.71-4.1,6-4.1a22.81,22.81,0,0,1,3.34.21c-.31-2.9-.53-6.47-.56-10,0-1.36,0-3.27,0-4.72a9.44,9.44,0,0,0-.28-2.53,12.07,12.07,0,0,1,2.44.4c.37.12.4.37.25.68a4,4,0,0,0-.31,1.6c-.06,1-.06,2.62-.06,4.6A32.91,32.91,0,0,0,459.28,60.14Zm-12.41,13c-2.62,0-4.1,1-4.1,2.28s1.45,2,3.83,2,3.76-1.15,3.76-3.21a4.88,4.88,0,0,0,0-.71A17.22,17.22,0,0,0,446.87,73.19Z"/><path class="cls-4" d="M474.12,62.79c2.9-.93,4.63-1.48,6.7-1.48,3.05,0,5.71,2.1,5.71,6.91A11,11,0,0,1,484,75.35a18.09,18.09,0,0,1-5.46,4.35c-.62.34-.84.28-1.05,0a3.88,3.88,0,0,0-1.55-1,16.38,16.38,0,0,0,6.58-5A9.2,9.2,0,0,0,484.27,68c0-3.7-1.94-4.75-3.82-4.75a14.77,14.77,0,0,0-4.51,1.08,24.94,24.94,0,0,0-2.77,1.27c-.43.24-.68.46-1,.46s-.43-.25-.59-.49a14.55,14.55,0,0,1-1-2A14.45,14.45,0,0,0,474.12,62.79Zm10.28-6.7a.32.32,0,0,1,.31.41,10.56,10.56,0,0,1-.37,1.45c-.1.24-.13.37-.34.34A36.1,36.1,0,0,1,475.57,56c-.09,0-.12-.15-.09-.43a8.41,8.41,0,0,1,.5-1.7A32,32,0,0,0,484.4,56.09Z"/><path class="cls-4" d="M505.26,54.68a.44.44,0,0,1,.37.4c0,.3-.15.58-.15,1.08,0,.68.09,1.29.18,2a40.93,40.93,0,0,0,1.21,6.23c1.82-.89,3.67-1.76,5.49-2.77a5.17,5.17,0,0,0,1.79-1.42,12.8,12.8,0,0,1,1.57,1.73c.25.37.19.8-.37.86a11.14,11.14,0,0,0-2.71,1c-2.26,1-4.91,2.31-7,3.51-3.11,1.82-4.56,3.43-4.56,5.59,0,2.74,2.59,3.42,7.25,3.39a59.13,59.13,0,0,0,7.93-.65c.27,0,.37,0,.43.28a13.9,13.9,0,0,1,.18,1.61c0,.27-.09.4-.43.43a68.22,68.22,0,0,1-8.21.43c-5.33,0-9.19-1.17-9.19-5.4,0-3,2.1-5.24,6-7.62a55,55,0,0,1-1.64-7.9,11,11,0,0,0-.68-3A13.45,13.45,0,0,1,505.26,54.68Z"/><path class="cls-4" d="M531.62,55.08c.34.09.49.24.49.46a2.21,2.21,0,0,1-.25.8,18.72,18.72,0,0,0-.37,3.18c-.27,4.66-.46,8.89-.46,13.14,0,3.46,1,4.51,3.64,4.51,3.92,0,7.93-2.38,11.11-5.9a7.39,7.39,0,0,0,.52,1.79,1.39,1.39,0,0,1,.13.44c0,.18-.1.34-.37.58a17.18,17.18,0,0,1-11.76,5.19c-3.48,0-5.37-1.67-5.37-6.21,0-4.38.28-9.41.44-13.76a17,17,0,0,0-.25-4.66A12.57,12.57,0,0,1,531.62,55.08Z"/><path class="cls-4" d="M566.09,59.27c-4.63.74-8.64,1.39-12.53,2.19a6.54,6.54,0,0,0-1.85.53,1.75,1.75,0,0,1-.59.21.52.52,0,0,1-.43-.27,16.16,16.16,0,0,1-.86-2.19,25,25,0,0,0,3.82-.37c4.6-.74,10.86-1.67,19.13-2.69.31,0,.47.06.53.25a9,9,0,0,1,.18,1.54c0,.28-.09.34-.4.37a12.62,12.62,0,0,0-4.5.93c-4.51,1.79-8,5.58-8,9.72,0,5.12,4.47,6.63,9,7,.4,0,.5.09.5.34a9.53,9.53,0,0,1-.19,1.48c-.06.34-.15.46-.49.43-5.21-.46-10.83-2.68-10.83-8.92,0-4.35,2.68-7.92,7.53-10.49Z"/><path class="cls-4" d="M586,58.13c.19.09.28.22.28.34a2.36,2.36,0,0,1-.12.56,10.65,10.65,0,0,0-.25,2.83,49.44,49.44,0,0,0,.43,7c.47,3.64,1.79,6.29,3.27,6.29,1.24,0,2.41-2,3.31-4.84a3.83,3.83,0,0,0,1,1.54.69.69,0,0,1,.25.77c-.86,2.5-2.53,4.85-4.6,4.85-2.59,0-4.53-3.58-5.21-8.43a68.07,68.07,0,0,1-.56-8.6,13.5,13.5,0,0,0-.24-3A8.57,8.57,0,0,1,586,58.13Zm14.72,2.38c.19-.1.34-.13.46,0a18.67,18.67,0,0,1,6,10.67.35.35,0,0,1-.22.4,5.83,5.83,0,0,1-1.41.71.29.29,0,0,1-.41-.24,17.92,17.92,0,0,0-5.8-10.71A12.16,12.16,0,0,1,600.68,60.51Z"/><path class="cls-4" d="M622.32,67A12,12,0,0,1,629,64.8c4.44,0,7.19,2.74,7.19,6.75,0,4.6-3.64,7.93-10.18,7.93-3.71,0-5.37-1.66-5.37-3.64a3.37,3.37,0,0,1,3.61-3.15,5.21,5.21,0,0,1,5.24,4.42c2.66-.87,4.51-2.6,4.51-5.62s-2.41-5.06-5.34-5.06-6.11,1.57-8.48,3.49a29.13,29.13,0,0,0-2.72,2.53c-.25.24-.4.27-.62.06a13.29,13.29,0,0,1-1.14-1.24c-.12-.15-.09-.27.13-.46a84.72,84.72,0,0,0,7-6.88c1.79-1.94,3.64-3.92,6-6.72-2.57.4-5,.86-7.72,1.38a5.84,5.84,0,0,0-1.08.28,1.9,1.9,0,0,1-.58.16c-.22,0-.37-.13-.5-.37a10.06,10.06,0,0,1-.74-2.13,11.87,11.87,0,0,0,2.72,0c2.43-.25,5-.59,7.68-1.11a3.69,3.69,0,0,0,1-.28.93.93,0,0,1,.43-.22.89.89,0,0,1,.55.25,7.5,7.5,0,0,1,1.33,1.3A.85.85,0,0,1,632,57a.65.65,0,0,1-.47.59,3.33,3.33,0,0,0-1.45,1.08c-2.74,2.9-4.81,5.06-7.9,8.2Zm1.94,7.37c-1,0-1.88.49-1.88,1.45s1.11,1.88,3.18,1.88a11.44,11.44,0,0,0,2-.15C627.16,75.78,626,74.36,624.26,74.36Z"/><path class="cls-4" d="M671.63,60.29c0,.22,0,.25-.25.25s-1.11-.06-4-.06h-11c-.06,1.72-.19,3.27-.37,4.72h7.77c2.62,0,3.46-.07,3.61-.07s.31.1.28.34c-.06.71-.09,1.45-.16,2.16A59.34,59.34,0,0,1,666.41,77c-.58,2.38-1.6,3.18-3.82,3.18-.59,0-1.82-.06-3-.19-.59-.06-.59-.06-.65-.71a3.93,3.93,0,0,0-.43-1.45,24.13,24.13,0,0,0,3.91.38c1.18,0,1.73-.65,2-1.89a56.93,56.93,0,0,0,1-9.25h-9.78c-1.11,6.2-3.77,10-9.47,13.17a1.24,1.24,0,0,1-.47.19c-.18,0-.27-.16-.49-.5a3.75,3.75,0,0,0-1.11-1c7.4-3.64,10-8.24,10.12-18.42h-5.43c-2.87,0-3.86.06-4,.06s-.25,0-.25-.25V58.87c0-.21,0-.24.25-.24s1.14.06,4,.06h8V56.31a13.27,13.27,0,0,0-.22-3.18,13.6,13.6,0,0,1,2.13.16c.25,0,.37.12.37.24a1.49,1.49,0,0,1-.18.59,6.5,6.5,0,0,0-.16,2.16v2.41h8.55c2.9,0,3.86-.06,4-.06s.25,0,.25.24Z"/><path class="cls-4" d="M680.8,66.55c1.54-1.29,3.49-3,5.55-4.87a3.13,3.13,0,0,1,2.29-1.14,3.22,3.22,0,0,1,2.28,1c2.47,2,4.63,3.76,7.16,5.61a62.84,62.84,0,0,0,6.79,4.26c.21.12.27.25.21.4a9.79,9.79,0,0,1-.89,1.7.33.33,0,0,1-.53.09c-1.79-1.11-4.44-2.87-6.54-4.44-2.31-1.73-4.63-3.71-6.88-5.59a2.56,2.56,0,0,0-1.57-.86c-.43,0-.8.28-1.33.77l-5.58,5.28a9,9,0,0,0-1,1.11A.41.41,0,0,1,680,70a15.63,15.63,0,0,1-1.61-2A7.55,7.55,0,0,0,680.8,66.55Z"/><path class="cls-4" d="M711.69,80,738.2,52.58l1.14,1.11-26.48,27.4Z"/></g></g><g class="cls-5"><g id="マスクグループ_12" data-name="マスクグループ 12"><g id="グループ_100" data-name="グループ 100"><path id="パス_295" data-name="パス 295" class="cls-6" d="M153.76,50.27,138.31,66.45l-8.1,12.13-4.66,20,5.25,12.3,1.53,8.27-1.08,12.33-7.08,16.17-3.43,20.09,1.29,4.38,7.58,2.78,12.23,11.77,15.68,1.37,7-1.64-4.67-1.1-6.61-4.4,37.92-.62,7.7,2.9,12.79-12.69,9.29-4.38-5.84-22.95-10.84-21.76.22-15.16.17-15.54L193.47,64.33,182,50.9l-9.33-2.69-7.9,1.18-2,1.66-4-1.19Z"/><g id="グループ_99" data-name="グループ 99"><g id="グループ_98" data-name="グループ 98"><path id="パス_275" data-name="パス 275" class="cls-7" d="M168.36,142c-1.09.11-1.86-.82-3-.61-.63.11-1,.16-.85,1a11,11,0,0,1-.19,6.7c-.28.56.39.58.7.69,2.13.79,4.27,1.61,6.44,2.3,2.69.85,2.74.87,1.76,3.92,1-.76,1.67-1.26,2.29-1.84,2.75-2.57,5.47-5.17,8.2-7.76.33-.31.72-.6.65-1.13a27.58,27.58,0,0,1,1.94-12.45,4.33,4.33,0,0,0-2.2,2.33,16.56,16.56,0,0,0-.74,10c.1.33.3.68-.17.86a.83.83,0,0,1-.93-.27,3.49,3.49,0,0,1-.78-2.72,21.17,21.17,0,0,1,1.16-5.85,5.69,5.69,0,0,0,.33-1.63,29.74,29.74,0,0,1-7.65,4.06,40,40,0,0,0,10.28-9.31,32.93,32.93,0,0,0,6.77-12.42c.6,1.33,1,2.4,2.14,2.79.45.15.29.57.11.86a20.15,20.15,0,0,0-1.53,10.84A26.48,26.48,0,0,0,196.94,147a5.58,5.58,0,0,1-3.53-3.36,26.28,26.28,0,0,1-1.61-12.1,47.71,47.71,0,0,1,.52-5.48c-1,1.29-2.43,2.33-2.42,4.2a33.26,33.26,0,0,1-1.26,5.91A18.88,18.88,0,0,0,191,151.1a2.54,2.54,0,0,1,.21.66,6.39,6.39,0,0,1-3.46-4.63,111,111,0,0,1-13.25,9.3,22.47,22.47,0,0,0,8.8,1.07,10.15,10.15,0,0,0,8.5-3.23c.34-.42,1-.84,1.5-.44s.45,1.12.24,1.73a9.82,9.82,0,0,1-12.39,6.28l-.17-.06a14.61,14.61,0,0,1-6.42-3.77c-.76-.78-1.26-.36-1.55.28a10.42,10.42,0,0,1-10.72,6.37,20.92,20.92,0,0,0-4.26,0c-1.3.18-2.65.39-3.3-1.28-.27-.71-.81.24-1.47-.4,4.32-8.6,3-17-1.91-25.49-.44.89.07,1.26.21,1.71a60.8,60.8,0,0,1,3,15.64,3.29,3.29,0,0,1-1.57,2.93,25.94,25.94,0,0,0-.7-13.37,4.06,4.06,0,0,0-.48,2.62,49.55,49.55,0,0,1-.54,11.92,4.46,4.46,0,0,1-.36,1.14c-.35.69-.92,1.42-1.71,1s-.05-1.08.12-1.61a54.79,54.79,0,0,0,1.53-13.38,23.37,23.37,0,0,0-4-13.06,31,31,0,0,0-4.29-4.94,56.43,56.43,0,0,1,3.7,20.41,8.41,8.41,0,0,1-.8,2.91,3.65,3.65,0,0,1-1-2.81A74.4,74.4,0,0,0,141,126.44c-.24-.8,0-1,.68-1.42a3.93,3.93,0,0,0,1.06-5.15,2.51,2.51,0,0,0-3-1.12,18.54,18.54,0,0,0-1.75.67c.29-1.16.29-1.16-2.42-3.36a6.42,6.42,0,0,0,1.58,4.39c.21.21.14.37.1.56a3.55,3.55,0,0,0,2.16,4.46c-.68.48-1.1-.27-1.74-.16a84.17,84.17,0,0,1,1,10.38,36.56,36.56,0,0,1-.37,5.63,6.06,6.06,0,0,1-2.86,4.74l.34-2.3c-1.36.94-1.68.21-1.73-.83a21.86,21.86,0,0,1,0-2.56,98.64,98.64,0,0,0-.53-22.52c-.24-1.35-.56-2.68-.9-4-.13-.5-.1-1.19-.88-1.28-.39.37-.06.74,0,1.08a55.47,55.47,0,0,1-.68,26.09,134.36,134.36,0,0,0-3.84,21.88,23.24,23.24,0,0,0,6,16.77,80.61,80.61,0,0,1,1-23.15,71.82,71.82,0,0,0,.37,17.88,19.47,19.47,0,0,0,3,8.47,4.38,4.38,0,0,0,5.49,2.19c.35,2.94,2.85.74,4.08,1.88a2.85,2.85,0,0,1-2.57,1.58,10,10,0,0,1-6.53-1.54,27.72,27.72,0,0,1-10.66-10.34,1.4,1.4,0,0,0-1.24-.72,7.24,7.24,0,0,1-7.21-7.3,7,7,0,0,1,.21-1.71,48.88,48.88,0,0,1,5.62-19.25,52.81,52.81,0,0,0,6.68-19.61,41.1,41.1,0,0,0-.22-13.28,2.41,2.41,0,0,0-1.12-1.8,10.2,10.2,0,0,1-4.48-6.23,33.19,33.19,0,0,1,.15-18.74,49.32,49.32,0,0,1,9-17.74c2.47-3,4.47-6.43,7-9.42a42.78,42.78,0,0,1,9-8.09,12.05,12.05,0,0,1,6.17-2.34c-1.84-2.07-3.27-4.15-2.13-6.93.3-.73.7-1.47,1.83-1.16-1.39.35-1.54,1.43-1.59,2.49a6,6,0,0,0,4.41,5.64,9.16,9.16,0,0,1,2.75.81,5.93,5.93,0,0,1-4.15,0,6,6,0,0,0-5.49,1.57A53,53,0,0,0,142.76,62a51.11,51.11,0,0,0-7.48,17.87A128.44,128.44,0,0,0,131.8,99a26,26,0,0,0,2.48,12.28,8.13,8.13,0,0,0,3.47,4.43c-.91-2.85-.62-5.59-2.38-7.83a6.46,6.46,0,0,1-1-4.58,64.94,64.94,0,0,0-.53-11.58A2.57,2.57,0,0,1,134,90.4l.82,4.22c2.54-9.77,4.44-19.67,9.45-28.54-3.89,8.76-4.78,18.23-6.59,27.47a9,9,0,0,1-.17,1,18,18,0,0,0,1.33,13.55c1.9,4.09,3.52,8.29,5.35,12.41A31,31,0,0,0,155.39,133a33.92,33.92,0,0,0,9.67,5.7C166.68,139.22,166.8,141.31,168.36,142Zm3.39,15.14a38.38,38.38,0,0,1-9.53-4.24c-.54-.37-1-.35-1,.44a9.24,9.24,0,0,1-4.18,8.12c5-1.11,10.67.69,14.75-4.32ZM133,110.67c0-.84,0-1.47-.74-1.9a6.36,6.36,0,0,1-2.74-4.54,20.66,20.66,0,0,1,0-8.82c1.38-5.81,1.41-11.78,2.27-18-.3.65-.49,1-.62,1.37a67.69,67.69,0,0,0-3.4,17.54,28.9,28.9,0,0,0,.52,7.65A8.65,8.65,0,0,0,133,110.67Zm-6.63,62.53c-4-8.72-1.11-17.09-.13-25.49a6.07,6.07,0,0,0-.67,1.38A87.23,87.23,0,0,0,122,165.92c-.57,4.15,0,5.18,4.37,7.28ZM161.61,148c.53,0,.63,1,1.16.67s.31-.92.32-1.41a12.78,12.78,0,0,0-.6-4.21c-.25-.74-.27-1.8-1-2.1-1.74-.73-3.53-1.39-5.3-2.17.74,1.5,1.6,2.84,2.35,4.23a21.73,21.73,0,0,1,2.45,7.6c.06.5,0,1.59.93.9a1.43,1.43,0,0,0,.59-1.94,1.39,1.39,0,0,0-.31-.41c-.3-.27-.76-.52-.6-1.16Zm27.89-17.95-.38-.18a16.14,16.14,0,0,0-2.56,4.2,27.23,27.23,0,0,0-1.15,9.58c0,.53-.13,1.18.88,1,.67-.14,1.09-.13,1.07-1a26.92,26.92,0,0,1,.73-7.43c.51-2,.95-4.08,1.42-6.1ZM152,136.45a82.69,82.69,0,0,1,7.58,15.21c-.48-6.11-1.77-11.81-7.58-15.21ZM171.25,156c.5.07,1,.35,1.13-.22s-.35-.75-.8-.79a6.91,6.91,0,0,1-3.58-1.46c-1.18-.88-2.38-1.74-3.58-2.59-.44-.31-1-.86-1.26.13-.18.62-1.22,1.22.11,1.87a46.81,46.81,0,0,0,8,3.05Zm4.25,2.1c3.59,3,9.44,3.79,12.11,1.7a33.82,33.82,0,0,1-12.1-1.7ZM157.23,150a26.93,26.93,0,0,1-.89,10.22c2.78-2.83,3-5.85.9-10.22Zm6.92-3.24c.71-3,.25-5.13-1.18-5.44ZM134.93,118a8.06,8.06,0,0,0-1.9-5.15Z"/><path id="パス_276" data-name="パス 276" class="cls-7" d="M196.3,131.36a188.22,188.22,0,0,1,7.84,21.11,21.21,21.21,0,0,0-1-5.29c-.51-1.87-1.06-3.72-1.61-5.58a42.93,42.93,0,0,1-1.38-5.47c1.26,3.28,2.55,6.53,3.77,9.82a58.3,58.3,0,0,1,4.34,20.47A30.4,30.4,0,0,1,207,174a17.7,17.7,0,0,0,4.58-9.45,31.38,31.38,0,0,0-1.33-12.33c-2.41-8.51-5.19-16.89-8-25.28-.76-2.26-1.41-4.56-2.1-6.93a6.12,6.12,0,0,1-4.1,1c3.45-.85,4.53-2.33,3.79-4.92-.65-2.26-2.45-2.62-6.23-1.17,1.35-4.91,2.14-9.85,3.09-14.77a5.93,5.93,0,0,0-1.37-5.43,57.54,57.54,0,0,1-12.48-22.17,15.71,15.71,0,0,1-.71-7.54A33.67,33.67,0,0,0,186.78,80a78.77,78.77,0,0,0,9,13c-1.79-3.66-3.69-7.27-5.35-11a45.72,45.72,0,0,1-3.88-11.61,49.45,49.45,0,0,0,6.71,13.34l-7-15.9.4-.2c3.67,7.61,8,14.85,12.08,22.34,2-8.44-8.95-27.49-19.4-33.93a31.36,31.36,0,0,1,9.33,6.59c.48-.46,0-.76-.14-1.05a29.9,29.9,0,0,0-8.14-10,16.51,16.51,0,0,0-13.7-2.46,9.29,9.29,0,0,0-3.7,2,7.83,7.83,0,0,1,4.68-3,19.7,19.7,0,0,1,20.06,6,20.51,20.51,0,0,1,3.47,4.65c3.07,5.41,6,10.86,8.8,16.43a55.91,55.91,0,0,1,5.42,29.41c-.15,2.11-1,4.18-1.17,6.29a33.69,33.69,0,0,0,5.26,19.35q5,8.49,9.82,17a31.56,31.56,0,0,1,4,15.93,6,6,0,0,1-1.13,4,1.81,1.81,0,0,1-2,.73c-.87-.33-.43-1.19-.32-1.79a20.91,20.91,0,0,0-1.76-11.69A115.09,115.09,0,0,0,208.52,138c.74,2.3,1.5,4.59,2.2,6.89A83.46,83.46,0,0,1,214.39,160a20.18,20.18,0,0,1-4.6,15.78,43.31,43.31,0,0,1-5.07,5.33,14.47,14.47,0,0,1-6.36,2.73,2.56,2.56,0,0,1-2-.35c-.54-.33-1.1-.82-1-1.47s.81-.6,1.27-.66a5.79,5.79,0,0,0,4-2.7,21.14,21.14,0,0,0,3.53-6.62,23.61,23.61,0,0,0,.5-9.93,120,120,0,0,0-7.35-26.83c-.43-1.06-.74-2.15-1.08-3.24C196.16,131.86,196.25,131.67,196.3,131.36Zm5.78-24.09c-.77,1.33-1.41,2.52-2.15,3.65a2.42,2.42,0,0,0,.33,3.39l.09.07a3.39,3.39,0,0,1,.94,4,2.3,2.3,0,0,0-.22,1,31.43,31.43,0,0,0,3.18,7.62,36.48,36.48,0,0,1-.7-17.31c0-.24.12-.77-.15-.7-1.82.56-.87-1-1.31-1.72Zm-4.29,4.31c1.11-1,1.46-2.13,2.31-2.89a7.72,7.72,0,0,0,1.39-2.14,5.46,5.46,0,0,0-2.61-7.26h0Zm3.06-21.94c-1.64,2.77,0,4.71,1.06,6.75a27,27,0,0,0-1.07-6.74Z"/><path id="パス_277" data-name="パス 277" class="cls-7" d="M150.31,101.67a10,10,0,0,1-2.37-6.27,71.24,71.24,0,0,1,2-24.42,12.47,12.47,0,0,1,.51-1.45,3.26,3.26,0,0,1,.54-.89,54,54,0,0,0-1.76,16.89c.16,5.62-.52,11.42,2.84,16.57-2-.28-3.14,1.49-4.66,2.45s-2,3.07-3.75,4.41a5.59,5.59,0,0,1,1.22-3.53c-4.2-.23-5.07-3.22-5.31-6.48a64.16,64.16,0,0,1,4.17-27.32c.46.17.3.39.28.57a3.82,3.82,0,0,1-.15.67,67.64,67.64,0,0,0-1.4,26.8c.29,2.63.87,3.07,3.24,3.4a12.77,12.77,0,0,1-2.79-8.65,71.44,71.44,0,0,1,3-24.66A10.48,10.48,0,0,1,147.16,67a2,2,0,0,1,2.29-1c-1.46.22-2,1.27-2.42,2.45a29.3,29.3,0,0,0-1.46,7.36,97.36,97.36,0,0,0-.24,20.48,11.16,11.16,0,0,0,1,4.13C147.35,102.3,148.36,102.64,150.31,101.67Z"/><path id="パス_278" data-name="パス 278" class="cls-7" d="M165.48,68.52a7.15,7.15,0,0,0-.13,3.44,69.45,69.45,0,0,0,6.5,22.56,10.35,10.35,0,0,0,2.42,3.36,52.87,52.87,0,0,1-5.42-28.54,58.72,58.72,0,0,0,5.83,25.52,23.53,23.53,0,0,0,2,3.41,3.67,3.67,0,0,0,3.94,2,12,12,0,0,1,6.09,1.41c.43.17.83.43.57,1.15a20.15,20.15,0,0,0-6.21-2c-.51,0-1.61-1-1.73.68,0,.23-1.66,0-2.53-.22-.43-.09-.86-.46-.58.5.15.5-.75.42-1,.27-2.16-1.09-4.75-1-6.81-2.12a20.69,20.69,0,0,1-9.91-25.22c0-.1.13-.18.32-.44a23,23,0,0,0,2.64,17.43,29.77,29.77,0,0,1-1.83-7.9c1.82,6.72,4.41,12.86,11.3,15.93A40.88,40.88,0,0,1,160,71.76a46.79,46.79,0,0,0,3.83,13.91,41.78,41.78,0,0,0,8,12.18,40.92,40.92,0,0,1-5.39-14.36A34.15,34.15,0,0,1,165.48,68.52Z"/><path id="パス_279" data-name="パス 279" class="cls-7" d="M150.06,173A13.2,13.2,0,0,0,164.4,185c.34,0,.67-.07,1-.13,0,.1.05.28,0,.29-1.81.93-2.95,2.85-4.82,3.55a10.63,10.63,0,0,1-6.38-.45,13.77,13.77,0,0,1-10.13-9.07,42.86,42.86,0,0,1-2-20.46c.08,1.51-.13,3,.07,4.56s.35,3.27.63,4.91.65,3.12,1.06,4.66a26.65,26.65,0,0,0,2.61,6.49,15.75,15.75,0,0,0,11.89,7.74,4.24,4.24,0,0,0,3.29-.55C153,183,149,178.31,150.06,173Z"/><path id="パス_280" data-name="パス 280" class="cls-7" d="M169.89,132.86c-3.14-.1-6.07-5.15-6-7.1,0-.83.8-.84,1.24-.75a21.35,21.35,0,0,0,10.78-1.75,7.47,7.47,0,0,1,1.3-.39,1.1,1.1,0,0,1,1.3.86,1,1,0,0,1,0,.34,9,9,0,0,1-6.92,8.66C171,132.82,170.46,132.82,169.89,132.86Zm5.66-7.61a44.24,44.24,0,0,1-8.43.94c1.51,1.46,2.44,3.23,4.7,2.94s3.05-1.74,3.73-3.88Z"/><path id="パス_281" data-name="パス 281" class="cls-7" d="M191.25,97.5c-.37,1.35-1.42,1.13-2.35.93A22.7,22.7,0,0,1,172,78.52s.06-.09.09-.14A24.87,24.87,0,0,0,183.59,95c-7.85-8.11-10-17.93-10.88-28.22a54.16,54.16,0,0,0,4.61,15.85,37.43,37.43,0,0,0,8.84,12.46,9.2,9.2,0,0,0,5.14,2.42Z"/><path id="パス_282" data-name="パス 282" class="cls-7" d="M116.24,129c-.68-.17-.91-.71-1.11-1.24a7.33,7.33,0,0,0-3.06-4c-.84-.51-.74-1.07,0-1.6a1.91,1.91,0,0,0,.52-2.64l0,0a13.78,13.78,0,0,1-.93-5.19c0-.79.19-1.52,1.08-1.71s1.51.41,1.75,1.24c.39,1.42.68,2.87,1.06,4.3a2.24,2.24,0,0,0,2.27,1.9c1.85.12,2.18.92,1.2,2.43a8.26,8.26,0,0,0-1.61,5.12C117.37,128.41,117.1,129,116.24,129Zm-.78-4.28c.65-.12.7-.66.74-1,.17-1.57-1.55-.77-2.09-1.57-.16-.25-.73.2-.66.49.26,1.08,1.53,1.2,2,2.1Z"/><path id="パス_283" data-name="パス 283" class="cls-7" d="M156.55,70.75a36.5,36.5,0,0,0-.75,11.51,45.54,45.54,0,0,0,2.74,10.89A9.78,9.78,0,0,0,164.26,99a3.44,3.44,0,0,1-4.45-.29,7.91,7.91,0,0,1-2.27-3,31.58,31.58,0,0,1-1.37-24.24A7.39,7.39,0,0,1,156.55,70.75Z"/><path id="パス_284" data-name="パス 284" class="cls-7" d="M156,102.69c-1.17.26-2-.49-2.61-1.52a7.29,7.29,0,0,1-1-3.25,90.56,90.56,0,0,1,1.9-26.52,10.72,10.72,0,0,1,.34-1.14,5.12,5.12,0,0,1,.3-.57C153.49,80.75,152.14,91.78,156,102.69Z"/><path id="パス_285" data-name="パス 285" class="cls-7" d="M140.2,129.37c2,6.72-1.15,29-4.68,33.13a11.24,11.24,0,0,1,.5-4.92q2.4-8.91,3.9-18A53.28,53.28,0,0,0,140.2,129.37Z"/><path id="パス_286" data-name="パス 286" class="cls-7" d="M191.3,97.55a34.77,34.77,0,0,1-10.43-12.23A40.9,40.9,0,0,1,177,69a2.6,2.6,0,0,1,.18-1A37.86,37.86,0,0,0,196.38,99.3a10.73,10.73,0,0,1-5.12-1.8Z"/><path id="パス_287" data-name="パス 287" class="cls-7" d="M186.47,108.1c-1.49.53-2,1.79-2.63,2.9a2.44,2.44,0,0,1-.77.66,3.49,3.49,0,0,1-4.41.06,2.65,2.65,0,0,1-.34-3.44,3.94,3.94,0,0,1,4.13-1.92,2,2,0,0,1,1.48,1C184.46,108.81,185.25,108.8,186.47,108.1Z"/><path id="パス_288" data-name="パス 288" class="cls-7" d="M148.05,111.82c.75-.06,1.12-.14,1.21-1A2.85,2.85,0,0,1,152,108.2a4.75,4.75,0,0,1,4.13,2.28,2.23,2.23,0,0,1-.68,2.48,3.91,3.91,0,0,1-4.58.54C149.94,112.94,149.27,112,148.05,111.82Z"/><path id="パス_289" data-name="パス 289" class="cls-7" d="M196.92,166.52a8.13,8.13,0,0,1,.28,5.11,17.75,17.75,0,0,1-5,8.76,2.21,2.21,0,0,1-2.29.81,1.34,1.34,0,0,1-1.08-1.58.52.52,0,0,1,0-.11c.15-.68.46-1.1,1.33-.66.72.38,1.12-.39,1.51-.81a16.93,16.93,0,0,0,5-10.54A6.55,6.55,0,0,1,196.92,166.52Z"/><path id="パス_290" data-name="パス 290" class="cls-7" d="M174.62,176.8c-1.1-.32-2-.79-1.85-2.18.14-1.22,1.28-2.33,2.25-2a2.31,2.31,0,0,1,1.91,2.45C176.8,176.29,175.83,176.77,174.62,176.8Z"/><path id="パス_291" data-name="パス 291" class="cls-7" d="M176.38,165.73c-.14,1.22-.65,2.25-2.08,2.13s-1.51-1.32-1.46-2.45a1.42,1.42,0,0,1,1.79-1.52C175.53,164.06,176.62,164.3,176.38,165.73Z"/><path id="パス_292" data-name="パス 292" class="cls-7" d="M197.55,116a1.59,1.59,0,0,1-1.72,1.15c-.57,0-.81-.26-.63-.87s.51-1.39,1.46-1.27A1,1,0,0,1,197.55,116Z"/><path id="パス_293" data-name="パス 293" class="cls-7" d="M140.83,120.83c-.2.88-.85.91-1.55.92-.5,0-.8-.11-.59-.65.27-.7.72-1.33,1.56-1.31C140.86,119.82,140.76,120.42,140.83,120.83Z"/></g><path id="パス_294" data-name="パス 294" class="cls-7" d="M169.38,118.88c-1.06-.32-2.21-.74-2.26-1.77s1-1.52,2.28-1.61A2.48,2.48,0,0,0,169.38,118.88Z"/></g></g></g></g><g class="cls-8"><g id="マスクグループ_13" data-name="マスクグループ 13"><g id="グループ_101" data-name="グループ 101"><path id="パス_296" data-name="パス 296" class="cls-6" d="M874.72,64.12l-6.53,3.45L852.07,82.48,847,106.25l.76,12.62,5.65,6.42,4.46,4.77v9.58L847,150.51h5.07l8.95-.76h8.67l-5.05,4.9-3.62,4.8-7.61,22,12.46-1.9h55.36l-2-12.56-6.91-5.42-5.75,1.16,1.18-4.8,5.58-6.14,16.14,1.2,8.21-7.26,2.73-10.56V122.72L928.34,91.37l-15-28.48-13.47-7.53H887.43l-6,6.09Z"/><g id="グループ_97" data-name="グループ 97"><path id="パス_255" data-name="パス 255" class="cls-7" d="M857.83,148.17c-.08.53.19.87.66.77a17.84,17.84,0,0,1,4,.2,1.31,1.31,0,0,0,.92-.32c.17-.13.13-.54.49-.4,0,0-.17.47-.08.61a.76.76,0,0,0,.61.22,20.46,20.46,0,0,0,5.45-.68c1.37-.46,1.44-1,.34-2a21.46,21.46,0,0,1-4.92-5.65A51.27,51.27,0,0,0,876,147.75a6.93,6.93,0,0,0,7,.25,116.64,116.64,0,0,0,10.4-6.13,39.14,39.14,0,0,1,5.62-3.05,21.14,21.14,0,0,0,7.82-5.7,8.65,8.65,0,0,0,1.53-9.5,11.43,11.43,0,0,1-.71-3.11,48.39,48.39,0,0,0-14.79-25.59c-4.49-4.3-9.25-8.31-13.86-12.49-.68-.62-1-.44-1.57.1a127.31,127.31,0,0,0-16.62,20.56,3.69,3.69,0,0,0-.79,2c.91.1,1.63-.77,3-.3-5,1-4.8,5.28-6,8.51-.51,1.36,1.1,2.64,1.91,3.81.36.53,1.45-.32,1.73-.7,1.28-1.7,2.43-.85,3.65-.05a4.48,4.48,0,0,1,1.7,4.06,2,2,0,0,1-1.42,1.87,1.79,1.79,0,0,1-1.78-.87,15.7,15.7,0,0,1-1.54-2.58c-.26-.53-.45-.72-1.06-.49s-.42.72-.21,1.11a30.08,30.08,0,0,1,3,10.54c.11.9.37,1.92-.73,2.28s-1.83-.42-2.22-1.32c-1.12-2.55-2.14-5.14-3.24-7.7-.46-1.07-1-2.1-1.72-3.46a9.12,9.12,0,0,0-.87,5.06c.34,1.61,2.83,1.57,3.55,3.41a5.37,5.37,0,0,1-5.53-1,20.8,20.8,0,0,1-8.08-19.42,69.1,69.1,0,0,1,2.77-14.11,44.68,44.68,0,0,1,22.08-27.27,11,11,0,0,0,1-.68,16,16,0,0,1-4.72-.47c-2-.6-3.37-2-3.4-3.43,0-.48,0-1,.39-1.31s1,.13,1.2.46c2.51,3.31,6.08,2.72,9.47,2.5a23.63,23.63,0,0,0,9-2.46,13.69,13.69,0,0,1-5.58,3.17c-12.61,3.49-18.94,13.15-23.83,24.2a22.19,22.19,0,0,0-2.52,9.36,1.76,1.76,0,0,0,.42,1.52,43.42,43.42,0,0,1,4.16-11.87l-1.06,3.24.24.11,2.52-4.71c-2.19,5.65-5.06,11.08-5,17.4A63.34,63.34,0,0,1,856.27,92,41.37,41.37,0,0,1,864,81.87a58,58,0,0,0-6,11.21,45.28,45.28,0,0,0-3.09,12.49,81.24,81.24,0,0,0,5-7.5,59.82,59.82,0,0,1,14.54-19.32,6,6,0,0,1,1.29-.88,55.25,55.25,0,0,0-9.94,13.84,148,148,0,0,1,11.51-9.88c.43-.34.42-.63,0-1a3.54,3.54,0,0,1-1.17-1.7,14.22,14.22,0,0,1,1.44,1.36c.62.79,1.14,0,2-.07-1.24,1-.29,1.44.34,1.87,4.12,2.79,8.26,5.55,12.37,8.35,1.27.86,2.48,1.8,3.86,2.61a131.13,131.13,0,0,0-13.7-21.09,56.74,56.74,0,0,1,8.3,8.53c2.44,3.21,4.91,6.39,7.36,9.58a59.38,59.38,0,0,1,6.36,10.05,88.15,88.15,0,0,1,4.67,11.13,26,26,0,0,0-1.78-6.77c-.82-2.22-1.74-4.41-2.67-6.58s-2.26-4.24-3.41-6.37a21,21,0,0,1,3.33,4.81c1,1.77,1.86,3.57,2.66,5.42s1.43,3.75,2.26,5.57a52.21,52.21,0,0,0-4-13.21,67.13,67.13,0,0,1,4.63,10.7,75.68,75.68,0,0,0-5.72-17.09,71.63,71.63,0,0,1,8,18.18c.58-.87.93-1.46,1.36-2,1.41-1.75,2.84-1.56,3.79.47a9.54,9.54,0,0,1-2.48,10.4,3,3,0,0,0-1.19,2.71,22.19,22.19,0,0,1-1.55,9.93c-1.43,3-2.79,6-4.35,9-2.85,5.4-7.13,9.85-10,15.25-.52,1-1.06,2-1.56,3-.34.66-.68,1.38-1.54,1.14s-1-1.11-.88-1.9a19.61,19.61,0,0,1,2.43-6.63,7.8,7.8,0,0,0,1-2.26l-6,3.75a28.38,28.38,0,0,1-8.18,3.25,8.3,8.3,0,0,1-7.84-1.53,25.84,25.84,0,0,1-1.83,15.2c4.43.55,11-6.62,10.57-12.8.91.19,1,.86,1,1.57a14.88,14.88,0,0,1-9.6,12.7c-1,.29-2.07,1-3.11-.2a1.81,1.81,0,0,0-1.76.1c-1.85,1.66-4.62,2.6-4.25,6a16.7,16.7,0,0,1-.87,5.78c-.13.51-.26,1.17-1,1s-.53-.87-.42-1.36c.46-1.9,1-3.79,1.45-5.68a6,6,0,0,0,.34-2.26c-.13-.89-.2-1.46.75-2s.68-1.67.51-2.6a12.34,12.34,0,0,1-.53-4c.55,1.5,1,2.88,1.55,4.26.14.38.27.89.8.77s.38-.55.43-.9a21.41,21.41,0,0,0-.26-5.71,10.75,10.75,0,0,1,1.21,4.51c.17,1.38.73,1.32,1.57.55a6,6,0,0,0,1.82-2.39c.27-.74.76-1.58-.52-2a1.06,1.06,0,0,1-.51-.85c.1-1.55-.93-2.65-1.51-4,.63-.28.68.73,1.45.43,0-1.89,0-3.89,0-5.88,0-.82-.37-1.28-1.24-.79-5.27,3-10.3,6.06-11.37,12.83a61.46,61.46,0,0,1-3.49,11.87c-.63,1.68-.57,3.62-1.32,5.32-.23.54-.31,1.55-1.19,1.16s-.12-1,.08-1.53a18.18,18.18,0,0,0,1.37-3.87c-1.63,2.2-2.5,4.52-4.68,5.74a20.53,20.53,0,0,0,3.36-8.27,66.42,66.42,0,0,1,2.86-10.07,17.43,17.43,0,0,1,6.14-8.47,20.79,20.79,0,0,0,4.25-3.75c-2.48,0-4.86-1-6.7-.34a46.89,46.89,0,0,1-11.53.68,7.87,7.87,0,0,0-2.82,1,8.16,8.16,0,0,1-3.84,1.25,1.93,1.93,0,0,1-1.91-1.33,1.83,1.83,0,0,1,.85-2.15,8.13,8.13,0,0,1,1.58-.81,42.41,42.41,0,0,0,6.52-3.21A15.64,15.64,0,0,0,857.55,132a10.26,10.26,0,0,1,.17-2.35,25.36,25.36,0,0,1,.31,10.76,15.19,15.19,0,0,0,2.76-5.19c.1,2.94-1.37,5.49-7.32,12.85,1,.72,1.77.37,2.53-.46a23.35,23.35,0,0,0,5.06-6.81,10.67,10.67,0,0,1-3.28,7.41l1.05-2.26.23.3L856,148.49C856.85,149,857.33,148.55,857.83,148.17Zm56-35.1a9.77,9.77,0,0,0,2.46-7.87c-.13-.68-.34-1.81-1.43-1.07a3.67,3.67,0,0,0-2,3.47c.2,1.67.58,3.32,1,5.46Zm-64.67-7.38a25.4,25.4,0,0,0,2.59,16.61c.19-1.35,1-2.58.38-3.8a22.16,22.16,0,0,1-2.88-11.42c0-.46,0-.93-.09-1.39Zm8.06,44.41c-3.7-1.75-4.54-1.69-6.82.47Zm53.94-29.49c.06-1.31.13-2.61.21-4.16-1.79,1.4-.32,2.8-.21,4.16Z"/><path id="パス_256" data-name="パス 256" class="cls-7" d="M883.74,59.87a2.39,2.39,0,0,1,1-2.52,12.72,12.72,0,0,1,8.46-3.2,23.08,23.08,0,0,1,18.25,6.25,49.08,49.08,0,0,1,10,13.24c3,5.82,6.72,11.29,10.24,16.83a80.55,80.55,0,0,1,12.64,38.76,19.14,19.14,0,0,1-.14,4.6,5.85,5.85,0,0,1-2.9,4.16l-.89-1.81c-.51.37-.3.88-.29,1.28a34.14,34.14,0,0,1-.24,6.39,7.55,7.55,0,0,1-.85,2.69c-.47.79-1.18,1.66-2.07,1.27-.59-.25-.06-1.29.13-1.94a32.18,32.18,0,0,0,.09-13,21.74,21.74,0,0,0-1.3-5.53c.3,2.38.63,4.79.91,7.2a21.11,21.11,0,0,1-1.61,13.17,11.9,11.9,0,0,1-8.54,6.44,11.66,11.66,0,0,1,3-3.56,12,12,0,0,0,3.83-12,46.83,46.83,0,0,1-2.75,8.42c1.09-5.31,3.19-10.54,1.47-16.11a42.78,42.78,0,0,1-1.55,7.69,69.69,69.69,0,0,1-2.79,7.55,3.45,3.45,0,0,1,.43-2.18,48.35,48.35,0,0,0,3.45-17.33,69.3,69.3,0,0,0-3.35-24.17c-3-8.24-5.87-16.51-9.22-24.61a44.64,44.64,0,0,0-12.86-17.39,21,21,0,0,0-17.14-4.53A6.49,6.49,0,0,0,883.74,59.87ZM934.32,107c1.87,7,3.66,14,5.11,21.09a89.57,89.57,0,0,0-5.1-21.09Z"/><path id="パス_257" data-name="パス 257" class="cls-7" d="M908.18,162.53l2,1.19a3.1,3.1,0,0,1-3.07-.49,2.72,2.72,0,0,0-3.85.05l-.08.08a39,39,0,0,0-7.44,8.31,8.79,8.79,0,0,0-1.37,3.44c-.19,1-.51,2.11-1.83,1.95a1.84,1.84,0,0,1-1.62-2,1.18,1.18,0,0,1,0-.2c.18-1.46-.58-1-1.34-.85a36.4,36.4,0,0,1-13.17,1.36,3.41,3.41,0,0,1-2.6-1,14.77,14.77,0,0,0,7.41-.31,99.23,99.23,0,0,0,10.62-3.51,5.08,5.08,0,0,0,2.23-1.68,24.69,24.69,0,0,1,11-8.18,2,2,0,0,0,1.32-1.48,6.39,6.39,0,0,1,3.07-3.66,12.54,12.54,0,0,0-2,3c-.34.91-.6,1.68.94,1.24a1.6,1.6,0,0,1,1.72.26c-.78.19-1.5.34-2.2.54-.37.1-.92.16-.8.73s.65.36,1,.31a21.4,21.4,0,0,1,6.54,0,7,7,0,0,1,5.32,3.75,26.23,26.23,0,0,1,3.12,11.38,4.19,4.19,0,0,1-.05,1.06c-.2,1.16-.78,2.12-2,2.07s-1.39-1.21-1.39-2.13a30.89,30.89,0,0,0-1.42-9.45A8.35,8.35,0,0,0,908.18,162.53Z"/><path id="パス_258" data-name="パス 258" class="cls-7" d="M910.94,81a51.87,51.87,0,0,1,7.34,11.08A53.73,53.73,0,0,1,924,113.76a7.73,7.73,0,0,1-1.56,5.33c-.5.63-.79.69-1.34,0a7.88,7.88,0,0,1-1.92-4.85,101.39,101.39,0,0,0-2.08-17.09A59,59,0,0,0,910.94,81Z"/><path id="パス_259" data-name="パス 259" class="cls-7" d="M916.35,146.26a2.27,2.27,0,0,1,.92-1.47c3.47-3.41,3.47-7.94,3.85-12.37-.41,1.05-.83,2.11-1.25,3.16a25.52,25.52,0,0,1-12.39,14,22.37,22.37,0,0,0-4.9,3.15,1.92,1.92,0,0,1-1.19.31c1.34-.63,1.71-2.23,3-2.84l0,0c.59.34.81-.25,1.15-.49a32,32,0,0,0,12.4-17.88c.05-.17.12-.34.17-.51.75-2.35,1.64-2.6,3.54-.82a9.1,9.1,0,0,0-.34-4.74c-.28-.56-.3-1,.27-1.37a1.31,1.31,0,0,1,1.64.2,3.45,3.45,0,0,1,.92,2.77,46.44,46.44,0,0,1-1.41,9.82A26.83,26.83,0,0,1,917,148.9c-.12-.24.44-1-.39-.66a4.66,4.66,0,0,0-1.19.94,31.23,31.23,0,0,0,2.92-4.53C917.27,145.06,917.18,146.08,916.35,146.26Z"/><path id="パス_260" data-name="パス 260" class="cls-7" d="M882.85,111.3a5,5,0,0,1,7-1.19l.16.12a18,18,0,0,0,2.21,1.46,4.31,4.31,0,0,1,2.58,4.77,4.89,4.89,0,0,1-4,4,4.07,4.07,0,0,1-4.18-2.38,4.9,4.9,0,0,1,1-5.56c.41-.43,1.47-.54,1.18-1.29a2.4,2.4,0,0,0-2.07-1.19A4.65,4.65,0,0,0,882.85,111.3Z"/><path id="パス_261" data-name="パス 261" class="cls-7" d="M923.56,149.39a37.69,37.69,0,0,0,2.33-29.23,4.28,4.28,0,0,1,3.06,3,20.92,20.92,0,0,1,.58,10,38.67,38.67,0,0,1-3.78,13.22A8.79,8.79,0,0,1,923.56,149.39Z"/><path id="パス_262" data-name="パス 262" class="cls-7" d="M910.23,150.72c1.22.71,2.11-.09,3-.69-.17.29-.23.64.21.59a4.25,4.25,0,0,0,2.91-.9c0,.68.42.52.84.51,1.65-.07,3.31,0,4.95-.18.75-.07,1.36,0,1.41.79s-.8.68-1.33.74c-3.36.27-6.72.44-10.07.78A44.89,44.89,0,0,0,898,156a1.36,1.36,0,0,1,.92-1,83.14,83.14,0,0,1,10.16-3.55,5.28,5.28,0,0,0,1.23-.68Z"/><path id="パス_263" data-name="パス 263" class="cls-7" d="M826.26,118.75a2.85,2.85,0,0,1,1.66-3.59c1.14-.68,2.34-1,3.37.15s2,2.57,1.16,4.31a16.32,16.32,0,0,1-1.31,1.89c-.22.34-.64.64-.41,1.09s.69.34,1.11.34c.73,0,1.86-.92,2.08.27.26,1.36-1.13,1.63-2.17,1.78a3,3,0,0,1-3.37-1.4c-.63-1.25.12-2.24.94-3.17s1.9-1.23,1.86-2.46c0-1.06-.34-2.33-1.57-2.48a3.08,3.08,0,0,0-3.13,1.9A4.52,4.52,0,0,0,826.26,118.75Z"/><path id="パス_264" data-name="パス 264" class="cls-7" d="M909.83,139c-.43,2.13-2.12,3.17-2.72,4.94l3.61-4,.42.38-11.37,13A58.59,58.59,0,0,1,909.83,139Z"/><path id="パス_265" data-name="パス 265" class="cls-7" d="M924.11,98.67a2.64,2.64,0,0,1,1.08,1.7A93.07,93.07,0,0,1,928.64,113c.18.89.31,2.23-.48,2.36-1,.15-1.25-1.18-1.36-2.1-.47-3.94-1.12-7.84-1.88-11.74A13.21,13.21,0,0,0,924.11,98.67Z"/><path id="パス_266" data-name="パス 266" class="cls-7" d="M920.69,94A60.11,60.11,0,0,1,926,111.56a1.3,1.3,0,0,1,0,.34c-.08.88.4,2.25-.8,2.35-.68,0-.59-1.37-.66-2.14a83.34,83.34,0,0,0-3.62-17.33Z"/><path id="パス_267" data-name="パス 267" class="cls-7" d="M894.22,103.51a21.17,21.17,0,0,0-13.4-3.23C884.72,98.41,892.73,100.15,894.22,103.51Z"/><path id="パス_268" data-name="パス 268" class="cls-7" d="M904.41,150.19c0-.11-.11-.26-.06-.34a59.94,59.94,0,0,1,7.87-8.82l.34.32q-4.08,4.4-8.2,8.78Z"/><path id="パス_269" data-name="パス 269" class="cls-7" d="M837.35,129.24a5.6,5.6,0,0,1-4.09,1.69,1,1,0,0,1-1-.6c-.2-.45.12-.8.45-1.06s.64-.56,1.11-.38A4,4,0,0,0,837.35,129.24Z"/><path id="パス_270" data-name="パス 270" class="cls-7" d="M910.29,150.75a76.12,76.12,0,0,1,7.73-8.23,57.36,57.36,0,0,1-7.78,8.18Z"/><path id="パス_271" data-name="パス 271" class="cls-7" d="M870.13,129.82c-1.13-.24-2.35-.56-2.49-1.63s.88-1.66,2.22-1.84A2.56,2.56,0,0,0,870.13,129.82Z"/><path id="パス_272" data-name="パス 272" class="cls-7" d="M923.25,141.79c.82-1,.85-2.42,2-3.63a27.69,27.69,0,0,1-3.16,7l1.17-3.41Z"/><path id="パス_273" data-name="パス 273" class="cls-7" d="M875.7,139.57a7.72,7.72,0,0,1-1-1.6c-.15-.42.34-.73.75-.8.64-.1,1,.25,1,.89S876.58,139.25,875.7,139.57Z"/><path id="パス_274" data-name="パス 274" class="cls-7" d="M923.29,141.74c-1.24,1-1.3,2.84-2.66,3.84l2.21-4.67c.48.18.08.69.4.88Z"/></g></g></g></g><path id="パス_297" data-name="パス 297" class="cls-9" d="M103.79,60.26A13.05,13.05,0,0,0,90.35,47.63c-.26,0-.5,0-.75,0-.72-5.15-6.51-9.16-13.57-9.16A15.32,15.32,0,0,0,64.8,42.92,15.69,15.69,0,0,0,54,39c-7,0-12.76,3.84-13.47,8.77-.26,0-.52,0-.79,0a10.69,10.69,0,0,0-11.47,9.67A8.69,8.69,0,0,0,30.35,63a12.24,12.24,0,0,0,7,21.47c0,.32-.06.65-.06,1,0,6.81,6.58,12.33,14.7,12.33a15.66,15.66,0,0,0,11.89-5.11,14,14,0,0,0,19.69,1.47c.35-.31.69-.63,1-1a15.24,15.24,0,0,0,12.74,1.76,13.85,13.85,0,0,1-6.68-5.83,11.86,11.86,0,0,0,10.9-11.67,11.55,11.55,0,0,0-2.67-7.35A12.31,12.31,0,0,0,103.79,60.26Z"/><path id="パス_298" data-name="パス 298" class="cls-10" d="M1038.25,61.27c-.72-12.24-9-23.05-22.33-28.45a68.47,68.47,0,0,0-44.48-.36c-10.46,3.85-20,13.14-22,21.26s-3.42,23.41,10.45,32.77c.24.17.5.34.76.49a15,15,0,0,1-6,7,16.62,16.62,0,0,0,12.85-3.71,88.61,88.61,0,0,0,48.49,1.26A30.11,30.11,0,0,0,1038.25,61.27Z"/></g></g></svg>